<?xml version="1.0" encoding="utf-8"?>
<svg width="659px" height="667px" viewBox="0 0 659 667" version="1.1" xmlns:xlink="http://www.w3.org/1999/xlink" xmlns="http://www.w3.org/2000/svg">
  <defs>
    <filter filterUnits="userSpaceOnUse" color-interpolation-filters="sRGB" id="filter_1">
      <feFlood flood-opacity="0" result="BackgroundImageFix" />
      <feColorMatrix in="SourceAlpha" type="matrix" values="0 0 0 0 0 0 0 0 0 0 0 0 0 0 0 0 0 0 127 0" />
      <feOffset dx="0" dy="25" />
      <feGaussianBlur stdDeviation="25" />
      <feColorMatrix type="matrix" values="0 0 0 0 0.13333334 0 0 0 0 0.18039216 0 0 0 0 0.32941177 0 0 0 0.07058824 0" />
      <feBlend mode="normal" in2="BackgroundImageFix" result="effect0_dropShadow" />
      <feBlend mode="normal" in="SourceGraphic" in2="effect0_dropShadow" result="shape" />
    </filter>
    <path d="M86.3316 2.03131L101.593 105.131Q101.601 105.188 101.603 105.247Q101.605 105.305 101.6 105.364Q101.594 105.422 101.583 105.479Q101.571 105.536 101.552 105.592Q101.534 105.647 101.509 105.7Q101.484 105.753 101.454 105.803Q101.423 105.853 101.386 105.898Q101.35 105.944 101.309 105.985Q101.267 106.027 101.221 106.063Q101.175 106.099 101.125 106.129Q101.075 106.16 101.022 106.184Q100.969 106.209 100.913 106.227Q100.858 106.245 100.801 106.256Q100.743 106.268 100.685 106.273Q100.627 106.277 100.568 106.275Q100.51 106.273 100.452 106.264L1.88436 91.0566Q1.85078 91.0514 1.81762 91.044Q1.78446 91.0365 1.75189 91.0268Q1.71931 91.0171 1.68747 91.0052Q1.65563 90.9934 1.62467 90.9793Q1.59371 90.9653 1.56378 90.9492Q1.53384 90.9332 1.50507 90.9151Q1.4763 90.897 1.44882 90.877Q1.42134 90.857 1.39529 90.8352Q1.36923 90.8134 1.34472 90.7898Q1.32021 90.7663 1.29735 90.7411Q1.2745 90.716 1.25341 90.6893Q1.23231 90.6627 1.21308 90.6347Q1.19385 90.6067 1.17656 90.5774Q1.15928 90.5481 1.14402 90.5178Q1.12876 90.4874 1.1156 90.4561Q1.10245 90.4247 1.09145 90.3926Q1.08045 90.3604 1.07166 90.3276Q1.06288 90.2948 1.05634 90.2614Q1.0498 90.2281 1.04555 90.1943Q1.0413 90.1606 1.03934 90.1267Q1.03739 90.0928 1.03775 90.0588Q1.0381 90.0248 1.04077 89.9909Q1.04343 89.957 1.0484 89.9234Q1.05336 89.8898 1.06059 89.8566Q1.06783 89.8234 1.0773 89.7907Q1.08678 89.7581 1.09845 89.7262Q1.11012 89.6943 1.12393 89.6632Q1.13775 89.6322 1.15364 89.6021Q1.16953 89.5721 1.18743 89.5432Q1.20532 89.5143 1.22514 89.4867Q1.24496 89.4591 1.26661 89.4329Q1.28825 89.4067 1.31163 89.3821L84.6183 1.49036Q84.6424 1.46502 84.6681 1.44141Q84.6938 1.41781 84.7211 1.39606Q84.7484 1.37431 84.7772 1.35452Q84.806 1.33473 84.8361 1.317Q84.8661 1.29927 84.8974 1.28368Q84.9286 1.26809 84.9609 1.25472Q84.9931 1.24135 85.0262 1.23027Q85.0594 1.21918 85.0932 1.21044Q85.127 1.20169 85.1613 1.19533Q85.1956 1.18896 85.2303 1.18501Q85.265 1.18106 85.2999 1.17954Q85.3348 1.17802 85.3697 1.17894Q85.4046 1.17986 85.4393 1.18321Q85.4741 1.18657 85.5085 1.19234Q85.543 1.19811 85.5769 1.20627Q85.6109 1.21444 85.6442 1.22495Q85.6775 1.23546 85.71 1.24828Q85.7424 1.26109 85.7739 1.27614Q85.8055 1.29119 85.8358 1.3084Q85.8662 1.32561 85.8953 1.3449Q85.9244 1.36419 85.9521 1.38547Q85.9798 1.40674 86.0059 1.4299Q86.0321 1.45306 86.0565 1.47798Q86.081 1.50291 86.1036 1.52948Q86.1263 1.55605 86.147 1.58414Q86.1678 1.61223 86.1865 1.64169Q86.2052 1.67116 86.2218 1.70187Q86.2385 1.73257 86.2529 1.76436Q86.2674 1.79615 86.2796 1.82887Q86.2917 1.86159 86.3016 1.89508Q86.3115 1.92857 86.319 1.96267Q86.3265 1.99677 86.3316 2.03131Z" transform="matrix(-0.70710677 -0.70710677 0.70710677 -0.70710677 72.613785 147.92743)" id="path_1" />
    <path d="M22.499 0L256.501 0Q257.053 0 257.605 0.027101Q258.157 0.0542021 258.706 0.108339Q259.256 0.162476 259.802 0.243518Q260.349 0.32456 260.89 0.432312Q261.432 0.540064 261.968 0.674267Q262.504 0.808469 263.032 0.968799Q263.561 1.12913 264.081 1.3152Q264.601 1.50127 265.111 1.71263Q265.621 1.924 266.121 2.16014Q266.62 2.39629 267.107 2.65665Q267.594 2.91701 268.068 3.20096Q268.542 3.48491 269.001 3.79176Q269.46 4.09862 269.904 4.42763Q270.347 4.75665 270.774 5.10704Q271.201 5.45743 271.61 5.82834Q272.02 6.19926 272.41 6.5898Q272.801 6.98035 273.172 7.38959Q273.543 7.79884 273.893 8.22579Q274.243 8.65273 274.572 9.09636Q274.901 9.53999 275.208 9.99922Q275.515 10.4585 275.799 10.9322Q276.083 11.4059 276.343 11.893Q276.604 12.3801 276.84 12.8794Q277.076 13.3787 277.287 13.889Q277.499 14.3993 277.685 14.9193Q277.871 15.4393 278.031 15.9679Q278.191 16.4964 278.326 17.0322Q278.46 17.568 278.568 18.1097Q278.675 18.6514 278.756 19.1977Q278.837 19.7441 278.892 20.2937Q278.946 20.8434 278.973 21.395Q279 21.9467 279 22.499L279 28.501Q279 29.0533 278.973 29.605Q278.946 30.1566 278.892 30.7063Q278.837 31.2559 278.756 31.8023Q278.675 32.3486 278.568 32.8903Q278.46 33.432 278.326 33.9678Q278.191 34.5036 278.031 35.0321Q277.871 35.5606 277.685 36.0807Q277.499 36.6007 277.287 37.111Q277.076 37.6213 276.84 38.1206Q276.604 38.6198 276.343 39.1069Q276.083 39.5941 275.799 40.0678Q275.515 40.5415 275.208 41.0008Q274.901 41.46 274.572 41.9036Q274.243 42.3473 273.893 42.7742Q273.543 43.2012 273.172 43.6104Q272.801 44.0196 272.41 44.4102Q272.02 44.8007 271.61 45.1717Q271.201 45.5426 270.774 45.893Q270.347 46.2433 269.904 46.5724Q269.46 46.9014 269.001 47.2082Q268.541 47.5151 268.068 47.799Q267.594 48.083 267.107 48.3433Q266.62 48.6037 266.121 48.8398Q265.621 49.076 265.111 49.2874Q264.601 49.4987 264.081 49.6848Q263.561 49.8709 263.032 50.0312Q262.504 50.1915 261.968 50.3257Q261.432 50.4599 260.89 50.5677Q260.349 50.6754 259.802 50.7565Q259.256 50.8375 258.706 50.8917Q258.157 50.9458 257.605 50.9729Q257.053 51 256.501 51L22.499 51Q21.9467 51 21.395 50.9729Q20.8434 50.9458 20.2937 50.8917Q19.7441 50.8375 19.1977 50.7565Q18.6514 50.6754 18.1097 50.5677Q17.568 50.4599 17.0322 50.3257Q16.4964 50.1915 15.9679 50.0312Q15.4393 49.8709 14.9193 49.6848Q14.3993 49.4987 13.889 49.2874Q13.3787 49.076 12.8794 48.8399Q12.3801 48.6037 11.893 48.3433Q11.4059 48.083 10.9322 47.799Q10.4585 47.5151 9.99922 47.2082Q9.53999 46.9014 9.09636 46.5724Q8.65273 46.2433 8.22579 45.893Q7.79884 45.5426 7.38959 45.1716Q6.98035 44.8007 6.5898 44.4102Q6.19926 44.0196 5.82834 43.6104Q5.45743 43.2012 5.10704 42.7742Q4.75665 42.3473 4.42763 41.9036Q4.09862 41.46 3.79176 41.0008Q3.48491 40.5415 3.20096 40.0678Q2.91701 39.5941 2.65665 39.107Q2.39629 38.6198 2.16014 38.1206Q1.924 37.6213 1.71263 37.111Q1.50127 36.6007 1.3152 36.0807Q1.12913 35.5606 0.968799 35.0321Q0.808469 34.5036 0.674267 33.9678Q0.540064 33.432 0.432312 32.8903Q0.32456 32.3486 0.243518 31.8023Q0.162476 31.2559 0.108339 30.7063Q0.0542021 30.1566 0.027101 29.605Q0 29.0533 0 28.501L0 22.499Q0 21.9467 0.027101 21.395Q0.0542021 20.8434 0.108339 20.2937Q0.162476 19.7441 0.243518 19.1977Q0.32456 18.6514 0.432312 18.1097Q0.540064 17.568 0.674267 17.0322Q0.808469 16.4964 0.968799 15.9679Q1.12913 15.4393 1.3152 14.9193Q1.50127 14.3993 1.71263 13.889Q1.924 13.3787 2.16014 12.8794Q2.39629 12.3801 2.65665 11.893Q2.91701 11.4059 3.20096 10.9322Q3.48491 10.4585 3.79176 9.99922Q4.09862 9.53999 4.42763 9.09636Q4.75665 8.65273 5.10704 8.22579Q5.45743 7.79884 5.82834 7.38959Q6.19926 6.98035 6.5898 6.5898Q6.98035 6.19926 7.38959 5.82834Q7.79884 5.45743 8.22579 5.10704Q8.65273 4.75665 9.09636 4.42763Q9.53999 4.09862 9.99922 3.79176Q10.4585 3.48491 10.9322 3.20096Q11.4059 2.91701 11.893 2.65665Q12.3801 2.39629 12.8794 2.16014Q13.3787 1.924 13.889 1.71263Q14.3993 1.50127 14.9193 1.3152Q15.4393 1.12913 15.9679 0.968799Q16.4964 0.808469 17.0322 0.674267Q17.568 0.540064 18.1097 0.432312Q18.6514 0.32456 19.1977 0.243518Q19.7441 0.162476 20.2937 0.108339Q20.8434 0.0542021 21.395 0.027101Q21.9467 0 22.499 0L22.499 0Z" transform="translate(39 320)" id="path_2" />
    <clipPath id="clip_1">
      <use xlink:href="#path_2" />
    </clipPath>
    <clipPath id="mask_1">
      <use xlink:href="#path_1" />
    </clipPath>
  </defs>
  <g id="Group" transform="translate(0.5 0.5)">
    <g id="Shape-Group" transform="translate(35.620117 21.50586)">
      <g id="Shape">
        <g id="Group-62" transform="translate(0 256)">
          <path d="M0 0L14 0L14 14L0 14L0 0Z" id="Rectangle" fill="#F77A56" fill-opacity="0.31868052" fill-rule="evenodd" stroke="none" />
          <path d="M0 0L10 0L10 10L0 10L0 0Z" transform="translate(301 280)" id="Rectangle" fill="#F77A56" fill-rule="evenodd" stroke="none" />
        </g>
        <path d="M0 0L6 0L6 6L0 6L0 0Z" transform="translate(284 0)" id="Rectangle" fill="#FF5B32" fill-rule="evenodd" stroke="none" />
        <path d="M0 0L7 0L7 7L0 7L0 0Z" transform="translate(541 290)" id="Rectangle" fill="#F2DAD5" fill-rule="evenodd" stroke="none" />
      </g>
      <g id="Group-21" transform="translate(45.995117 61.847168)">
        <path d="M19 13.7406C18.4277 14.6503 17.8808 16.0532 17.5212 15.9984C11.3984 15.0723 5.50853 13.3077 1.2494 8.07423C0.27198 6.86861 -0.274971 4.42997 0.140306 2.94487C0.515069 1.62965 2.61678 -0.129464 3.77146 0.00753845C11.5554 0.982994 15.9816 6.55625 19 13.7406" transform="translate(0.7493805 87.107544)" id="Fill-305" fill="#363636" fill-rule="evenodd" stroke="none" />
        <path d="M8.90976 7.27511C8.04576 8.19417 7.28451 9.20913 6.25238 9.95237C5.96749 10.1562 4.75789 9.66466 4.18344 9.26108C1.73155 7.58679 -0.640951 5.7167 0.157666 2.70779C0.423872 1.68883 1.7082 0.773766 2.75434 0.0505062C3.04857 -0.157281 4.2535 0.318232 4.84195 0.709831C7.33588 2.36014 9.4702 4.21824 8.90976 7.27511" transform="translate(1.7493806 17.107548)" id="Fill-291" fill="#363636" fill-rule="evenodd" stroke="none" />
        <path d="M11.6527 13.6758C10.3405 14.7882 9.22175 16.4267 7.73704 16.8025C6.17915 17.2133 3.29861 16.9929 2.69741 16.0509C-0.251087 11.3658 -1.16073 6.27498 1.89755 1.18911C2.25305 0.592841 3.29861 -0.0735821 3.93118 0.00658908C5.64068 0.217038 7.96707 0.29721 8.8558 1.34445C11.8827 4.88701 12.4996 9.20623 11.6527 13.6758" transform="translate(70.74938 0.10754701)" id="Fill-255" fill="#363636" fill-rule="evenodd" stroke="none" />
      </g>
    </g>
    <path d="M326.903 473.592C448.945 405.624 575.645 79.2354 277.093 12.1545C-21.459 -54.9265 -20.0706 172.151 17.093 290.071C54.2565 407.991 204.861 541.56 326.903 473.592Z" transform="matrix(0.8290376 -0.5591929 0.5591929 0.8290376 0 257.78796)" id="Oval" fill="#E4F1FC" fill-rule="evenodd" stroke="none" />
    <g id="Rectangle-8" transform="matrix(-1 -8.742278E-08 8.742278E-08 -1 227.62012 552.50586)">
      <path d="M86.3316 2.03131L101.593 105.131Q101.601 105.188 101.603 105.247Q101.605 105.305 101.6 105.364Q101.594 105.422 101.583 105.479Q101.571 105.536 101.552 105.592Q101.534 105.647 101.509 105.7Q101.484 105.753 101.454 105.803Q101.423 105.853 101.386 105.898Q101.35 105.944 101.309 105.985Q101.267 106.027 101.221 106.063Q101.175 106.099 101.125 106.129Q101.075 106.16 101.022 106.184Q100.969 106.209 100.913 106.227Q100.858 106.245 100.801 106.256Q100.743 106.268 100.685 106.273Q100.627 106.277 100.568 106.275Q100.51 106.273 100.452 106.264L1.88436 91.0566Q1.85078 91.0514 1.81762 91.044Q1.78446 91.0365 1.75189 91.0268Q1.71931 91.0171 1.68747 91.0052Q1.65563 90.9934 1.62467 90.9793Q1.59371 90.9653 1.56378 90.9492Q1.53384 90.9332 1.50507 90.9151Q1.4763 90.897 1.44882 90.877Q1.42134 90.857 1.39529 90.8352Q1.36923 90.8134 1.34472 90.7898Q1.32021 90.7663 1.29735 90.7411Q1.2745 90.716 1.25341 90.6893Q1.23231 90.6627 1.21308 90.6347Q1.19385 90.6067 1.17656 90.5774Q1.15928 90.5481 1.14402 90.5178Q1.12876 90.4874 1.1156 90.4561Q1.10245 90.4247 1.09145 90.3926Q1.08045 90.3604 1.07166 90.3276Q1.06288 90.2948 1.05634 90.2614Q1.0498 90.2281 1.04555 90.1943Q1.0413 90.1606 1.03934 90.1267Q1.03739 90.0928 1.03775 90.0588Q1.0381 90.0248 1.04077 89.9909Q1.04343 89.957 1.0484 89.9234Q1.05336 89.8898 1.06059 89.8566Q1.06783 89.8234 1.0773 89.7907Q1.08678 89.7581 1.09845 89.7262Q1.11012 89.6943 1.12393 89.6632Q1.13775 89.6322 1.15364 89.6021Q1.16953 89.5721 1.18743 89.5432Q1.20532 89.5143 1.22514 89.4867Q1.24496 89.4591 1.26661 89.4329Q1.28825 89.4067 1.31163 89.3821L84.6183 1.49036Q84.6424 1.46502 84.6681 1.44141Q84.6938 1.41781 84.7211 1.39606Q84.7484 1.37431 84.7772 1.35452Q84.806 1.33473 84.8361 1.317Q84.8661 1.29927 84.8974 1.28368Q84.9286 1.26809 84.9609 1.25472Q84.9931 1.24135 85.0262 1.23027Q85.0594 1.21918 85.0932 1.21044Q85.127 1.20169 85.1613 1.19533Q85.1956 1.18896 85.2303 1.18501Q85.265 1.18106 85.2999 1.17954Q85.3348 1.17802 85.3697 1.17894Q85.4046 1.17986 85.4393 1.18321Q85.4741 1.18657 85.5085 1.19234Q85.543 1.19811 85.5769 1.20627Q85.6109 1.21444 85.6442 1.22495Q85.6775 1.23546 85.71 1.24828Q85.7424 1.26109 85.7739 1.27614Q85.8055 1.29119 85.8358 1.3084Q85.8662 1.32561 85.8953 1.3449Q85.9244 1.36419 85.9521 1.38547Q85.9798 1.40674 86.0059 1.4299Q86.0321 1.45306 86.0565 1.47798Q86.081 1.50291 86.1036 1.52948Q86.1263 1.55605 86.147 1.58414Q86.1678 1.61223 86.1865 1.64169Q86.2052 1.67116 86.2218 1.70187Q86.2385 1.73257 86.2529 1.76436Q86.2674 1.79615 86.2796 1.82887Q86.2917 1.86159 86.3016 1.89508Q86.3115 1.92857 86.319 1.96267Q86.3265 1.99677 86.3316 2.03131Z" transform="matrix(-0.70710677 -0.70710677 0.70710677 -0.70710677 72.613785 147.92743)" id="Rectangle" fill="none" fill-rule="evenodd" stroke="none" />
      <g clip-path="url(#mask_1)">
        <g id="Group-34" transform="matrix(0.81915206 -0.57357645 0.57357645 0.81915206 -45.26445 53.67875)">
          <path d="M0 0L2.33918 0L2.33918 136.927L0 136.927L0 0Z" transform="translate(0.015847072 1.3672354)" id="Rectangle" fill="#0FD8F7" fill-rule="evenodd" stroke="none" />
          <path d="M0 0L2.33918 0L2.33918 136.927L0 136.927L0 0Z" transform="translate(12.223562 1.6446018)" id="Rectangle" fill="#0FD8F7" fill-rule="evenodd" stroke="none" />
          <path d="M0 0L2.33918 0L2.33918 136.927L0 136.927L0 0Z" transform="translate(22.206589 1.1986705)" id="Rectangle-Copy-3" fill="#0FD8F7" fill-rule="evenodd" stroke="none" />
          <path d="M0 0L2.33918 0L2.33918 136.927L0 136.927L0 0Z" transform="translate(34.414303 1.4760369)" id="Rectangle-Copy-4" fill="#0FD8F7" fill-rule="evenodd" stroke="none" />
          <path d="M0 0L2.33918 0L2.33918 136.927L0 136.927L0 0Z" transform="translate(46.62202 1.7534033)" id="Rectangle-Copy-5" fill="#0FD8F7" fill-rule="evenodd" stroke="none" />
          <path d="M0 0L2.33918 0L2.33918 136.927L0 136.927L0 0Z" transform="translate(56.605045 1.3074719)" id="Rectangle-Copy-6" fill="#0FD8F7" fill-rule="evenodd" stroke="none" />
          <path d="M0 0L2.33918 0L2.33918 136.927L0 136.927L0 0Z" transform="translate(68.81276 1.5848383)" id="Rectangle-Copy-7" fill="#0FD8F7" fill-rule="evenodd" stroke="none" />
          <path d="M0 0L2.33918 0L2.33918 136.927L0 136.927L0 0Z" transform="translate(80.42383 0.07789567)" id="Rectangle-Copy-8" fill="#0FD8F7" fill-rule="evenodd" stroke="none" />
          <path d="M0 0L2.33918 0L2.33918 136.927L0 136.927L0 0Z" transform="translate(91.96157 2.0875416)" id="Rectangle-Copy-9" fill="#0FD8F7" fill-rule="evenodd" stroke="none" />
          <path d="M0 0L2.33918 0L2.33918 136.927L0 136.927L0 0Z" transform="translate(103.21122 1.6936396)" id="Rectangle-Copy-10" fill="#0FD8F7" fill-rule="evenodd" stroke="none" />
          <path d="M0 0L2.33918 0L2.33918 136.927L0 136.927L0 0Z" transform="translate(114.82229 0.18669708)" id="Rectangle-Copy-11" fill="#0FD8F7" fill-rule="evenodd" stroke="none" />
          <path d="M0 0L2.33918 0L2.33918 136.927L0 136.927L0 0Z" transform="translate(125.40196 1.5250747)" id="Rectangle-Copy-12" fill="#0FD8F7" fill-rule="evenodd" stroke="none" />
          <path d="M0 0L2.33918 0L2.33918 136.927L0 136.927L0 0Z" transform="translate(137.9711 0.68940026)" id="Rectangle-Copy-13" fill="#0FD8F7" fill-rule="evenodd" stroke="none" />
          <path d="M0 0L2.33918 0L2.33918 136.927L0 136.927L0 0Z" transform="translate(148.70505 1.7181586)" id="Rectangle-Copy-14" fill="#0FD8F7" fill-rule="evenodd" stroke="none" />
        </g>
      </g>
    </g>
    <g id="Card" transform="translate(144.62012 90.50586)">
      <path d="M7.999 0L345.001 0Q345.197 0 345.393 0.00963514Q345.59 0.0192703 345.785 0.0385174Q345.98 0.0577644 346.175 0.0865771Q346.369 0.11539 346.561 0.153699Q346.754 0.192007 346.945 0.23972Q347.135 0.287433 347.323 0.344434Q347.511 0.401436 347.696 0.467589Q347.881 0.533742 348.062 0.608888Q348.243 0.684033 348.421 0.76799Q348.598 0.851946 348.772 0.944512Q348.945 1.03708 349.113 1.13803Q349.282 1.23898 349.445 1.34807Q349.608 1.45717 349.766 1.57414Q349.924 1.69112 350.076 1.81569Q350.227 1.94026 350.373 2.07213Q350.518 2.204 350.657 2.34285Q350.796 2.4817 350.928 2.6272Q351.06 2.7727 351.184 2.92449Q351.309 3.07628 351.426 3.234Q351.543 3.39172 351.652 3.55499Q351.761 3.71826 351.862 3.88669Q351.963 4.05512 352.055 4.2283Q352.148 4.40148 352.232 4.57899Q352.316 4.7565 352.391 4.93791Q352.466 5.11933 352.532 5.30422Q352.599 5.4891 352.656 5.67701Q352.713 5.86492 352.76 6.0554Q352.808 6.24588 352.846 6.43847Q352.885 6.63106 352.913 6.8253Q352.942 7.01954 352.961 7.21496Q352.981 7.41038 352.99 7.60651Q353 7.80264 353 7.999L353 338.001Q353 338.197 352.99 338.393Q352.981 338.59 352.961 338.785Q352.942 338.98 352.913 339.175Q352.885 339.369 352.846 339.561Q352.808 339.754 352.76 339.945Q352.713 340.135 352.656 340.323Q352.599 340.511 352.532 340.696Q352.466 340.881 352.391 341.062Q352.316 341.243 352.232 341.421Q352.148 341.598 352.055 341.772Q351.963 341.945 351.862 342.113Q351.761 342.282 351.652 342.445Q351.543 342.608 351.426 342.766Q351.309 342.924 351.184 343.075Q351.06 343.227 350.928 343.373Q350.796 343.518 350.657 343.657Q350.518 343.796 350.373 343.928Q350.227 344.06 350.076 344.184Q349.924 344.309 349.766 344.426Q349.608 344.543 349.445 344.652Q349.282 344.761 349.113 344.862Q348.945 344.963 348.772 345.055Q348.598 345.148 348.421 345.232Q348.243 345.316 348.062 345.391Q347.881 345.466 347.696 345.532Q347.511 345.599 347.323 345.656Q347.135 345.713 346.945 345.76Q346.754 345.808 346.561 345.846Q346.369 345.885 346.175 345.913Q345.98 345.942 345.785 345.961Q345.59 345.981 345.393 345.99Q345.197 346 345.001 346L7.999 346Q7.80264 346 7.60651 345.99Q7.41038 345.981 7.21496 345.961Q7.01954 345.942 6.8253 345.913Q6.63106 345.885 6.43847 345.846Q6.24588 345.808 6.0554 345.76Q5.86492 345.713 5.67701 345.656Q5.4891 345.599 5.30422 345.532Q5.11933 345.466 4.93791 345.391Q4.7565 345.316 4.57899 345.232Q4.40148 345.148 4.2283 345.055Q4.05512 344.963 3.88669 344.862Q3.71826 344.761 3.55499 344.652Q3.39172 344.543 3.234 344.426Q3.07628 344.309 2.92449 344.184Q2.7727 344.06 2.6272 343.928Q2.4817 343.796 2.34285 343.657Q2.204 343.518 2.07213 343.373Q1.94026 343.227 1.81569 343.075Q1.69112 342.924 1.57414 342.766Q1.45717 342.608 1.34807 342.445Q1.23898 342.282 1.13803 342.113Q1.03708 341.945 0.944512 341.772Q0.851946 341.598 0.76799 341.421Q0.684033 341.243 0.608888 341.062Q0.533742 340.881 0.467589 340.696Q0.401436 340.511 0.344434 340.323Q0.287433 340.135 0.23972 339.945Q0.192007 339.754 0.153699 339.561Q0.11539 339.369 0.0865771 339.175Q0.0577644 338.98 0.0385174 338.785Q0.0192703 338.59 0.00963514 338.393Q0 338.197 0 338.001L0 7.999Q0 7.80264 0.00963514 7.60651Q0.0192703 7.41038 0.0385174 7.21496Q0.0577644 7.01954 0.0865771 6.8253Q0.11539 6.63106 0.153699 6.43847Q0.192007 6.24588 0.23972 6.0554Q0.287433 5.86492 0.344434 5.67701Q0.401436 5.4891 0.467589 5.30422Q0.533742 5.11933 0.608888 4.93791Q0.684033 4.7565 0.76799 4.57899Q0.851946 4.40148 0.944512 4.2283Q1.03708 4.05512 1.13803 3.88669Q1.23898 3.71826 1.34807 3.55499Q1.45717 3.39172 1.57414 3.234Q1.69112 3.07628 1.81569 2.92449Q1.94026 2.7727 2.07213 2.6272Q2.204 2.4817 2.34285 2.34285Q2.4817 2.204 2.6272 2.07213Q2.7727 1.94026 2.92449 1.81569Q3.07628 1.69112 3.234 1.57414Q3.39172 1.45717 3.55499 1.34807Q3.71826 1.23898 3.88669 1.13803Q4.05512 1.03708 4.2283 0.944512Q4.40148 0.851946 4.57899 0.76799Q4.7565 0.684033 4.93791 0.608888Q5.11933 0.533742 5.30422 0.467589Q5.4891 0.401436 5.67701 0.344434Q5.86492 0.287433 6.0554 0.23972Q6.24588 0.192007 6.43847 0.153699Q6.63106 0.11539 6.8253 0.0865771Q7.01954 0.0577644 7.21496 0.0385174Q7.41038 0.0192703 7.60651 0.00963514Q7.80264 0 7.999 0L7.999 0Z" transform="translate(0 59)" id="Rectangle" fill="#FFFFFF" fill-rule="evenodd" stroke="none" filter="url(#filter_1)" />
      <path d="M56 112C86.9279 112 112 86.9279 112 56C112 25.0721 86.9279 0 56 0C25.0721 0 0 25.0721 0 56C0 86.9279 25.0721 112 56 112Z" transform="translate(288 0)" id="Oval" fill="#FD3D76" fill-rule="evenodd" stroke="none" />
      <g id="calendar" transform="translate(322 32)">
        <path d="M6.33388 47L34.3585 47C34.8274 47 35.2786 46.8172 35.6058 46.4865L45.4781 36.7732C45.8142 36.4425 46 36.0072 46 35.546L46 9.71329C46 6.27533 43.1604 3.48142 39.6661 3.48142L37.1538 3.48142L37.1538 1.74071C37.154 0.78329 36.3577 0 35.3846 0C34.4115 0 33.6154 0.78329 33.6154 1.74071L33.6154 3.48142L12.3847 3.48142L12.3847 1.74071C12.3847 0.78329 11.5885 0 10.6154 0C9.64227 0 8.84616 0.78329 8.84616 1.74071L8.84616 3.48142L6.33388 3.48142C2.83965 3.48142 0 6.27533 0 9.71329L0 40.7681C0 44.2061 2.83965 47 6.33388 47L6.33388 47ZM34.5 42.6568L34.5 37.0603C34.5 36.7818 34.7301 36.5555 35.0131 36.5555L40.7013 36.5555L34.5 42.6568ZM3.53855 9.71329C3.53855 8.19889 4.79469 6.96298 6.33388 6.96298L8.84616 6.96298L8.84616 8.70369C8.84616 9.66111 9.64227 10.4444 10.6154 10.4444C11.5885 10.4444 12.3846 9.66111 12.3846 8.70369L12.3846 6.96298L33.6154 6.96298L33.6154 8.70369C33.6154 9.66111 34.4115 10.4444 35.3846 10.4444C36.3577 10.4444 37.1538 9.66111 37.1538 8.70369L37.1538 6.96298L39.6661 6.96298C41.2053 6.96298 42.4614 8.19889 42.4614 9.71329L42.4614 33.074L35.013 33.074C32.7749 33.074 30.9613 34.8584 30.9613 37.0604L30.9613 43.5186L6.33388 43.5186C4.79469 43.5186 3.53855 42.2827 3.53855 40.7683L3.53855 9.71329Z" id="Shape" fill="#FFFFFF" stroke="none" />
        <path d="M1.97143 3.91667C3.06022 3.91667 3.94286 3.03989 3.94286 1.95833C3.94286 0.876776 3.06022 0 1.97143 0C0.882639 0 0 0.876776 0 1.95833C0 3.03989 0.882639 3.91667 1.97143 3.91667Z" transform="translate(10.514286 15.666667)" id="Oval" fill="#FFFFFF" stroke="none" />
        <path d="M1.97143 3.91667C3.06022 3.91667 3.94286 3.03989 3.94286 1.95833C3.94286 0.876776 3.06022 0 1.97143 0C0.882639 0 0 0.876776 0 1.95833C0 3.03989 0.882639 3.91667 1.97143 3.91667Z" transform="translate(19.714285 15.666667)" id="Oval" fill="#FFFFFF" stroke="none" />
        <path d="M1.97143 3.91667C3.06022 3.91667 3.94286 3.03989 3.94286 1.95833C3.94286 0.876776 3.06022 0 1.97143 0C0.882639 0 0 0.876776 0 1.95833C0 3.03989 0.882639 3.91667 1.97143 3.91667Z" transform="translate(30.22857 15.666667)" id="Oval" fill="#FFFFFF" stroke="none" />
        <path d="M1.97143 3.91667C3.06022 3.91667 3.94286 3.03989 3.94286 1.95833C3.94286 0.876776 3.06022 0 1.97143 0C0.882639 0 0 0.876776 0 1.95833C0 3.03989 0.882639 3.91667 1.97143 3.91667Z" transform="translate(10.514286 24.805555)" id="Oval" fill="#FFFFFF" stroke="none" />
        <path d="M1.97143 3.91667C3.06022 3.91667 3.94286 3.03989 3.94286 1.95833C3.94286 0.876776 3.06022 0 1.97143 0C0.882639 0 0 0.876776 0 1.95833C0 3.03989 0.882639 3.91667 1.97143 3.91667Z" transform="translate(19.714285 24.805555)" id="Oval" fill="#FFFFFF" stroke="none" />
        <path d="M1.97143 3.91667C3.06022 3.91667 3.94286 3.03989 3.94286 1.95833C3.94286 0.876776 3.06022 0 1.97143 0C0.882639 0 0 0.876776 0 1.95833C0 3.03989 0.882639 3.91667 1.97143 3.91667Z" transform="translate(30.22857 24.805555)" id="Oval" fill="#FFFFFF" stroke="none" />
        <path d="M1.97143 3.91667C3.06022 3.91667 3.94286 3.03989 3.94286 1.95833C3.94286 0.876776 3.06022 0 1.97143 0C0.882639 0 0 0.876776 0 1.95833C0 3.03989 0.882639 3.91667 1.97143 3.91667Z" transform="translate(10.514286 32.63889)" id="Oval" fill="#FFFFFF" stroke="none" />
        <path d="M1.97143 3.91667C3.06022 3.91667 3.94286 3.03989 3.94286 1.95833C3.94286 0.876776 3.06022 0 1.97143 0C0.882639 0 0 0.876776 0 1.95833C0 3.03989 0.882639 3.91667 1.97143 3.91667Z" transform="translate(19.714285 32.63889)" id="Oval" fill="#FFFFFF" stroke="none" />
      </g>
      <path d="M13.999 0L270.001 0Q270.345 0 270.688 0.0168624Q271.031 0.0337248 271.373 0.067409Q271.715 0.101093 272.055 0.151518Q272.395 0.201943 272.732 0.268987Q273.069 0.336031 273.402 0.419532Q273.736 0.503034 274.065 0.602792Q274.394 0.70255 274.717 0.818324Q275.041 0.934099 275.358 1.06561Q275.676 1.19712 275.986 1.34405Q276.297 1.49099 276.6 1.65298Q276.903 1.81498 277.198 1.99166Q277.493 2.16833 277.778 2.35926Q278.064 2.55018 278.34 2.7549Q278.616 2.95961 278.882 3.17763Q279.147 3.39564 279.402 3.62642Q279.657 3.85721 279.9 4.10021Q280.143 4.34321 280.374 4.59785Q280.604 4.85248 280.822 5.11813Q281.04 5.38378 281.245 5.6598Q281.45 5.93583 281.641 6.22157Q281.832 6.50731 282.008 6.80207Q282.185 7.09684 282.347 7.39992Q282.509 7.70299 282.656 8.01366Q282.803 8.32432 282.934 8.64181Q283.066 8.95931 283.182 9.28288Q283.297 9.60644 283.397 9.9353Q283.497 10.2642 283.58 10.5975Q283.664 10.9309 283.731 11.2679Q283.798 11.605 283.848 11.9449Q283.899 12.2849 283.933 12.6269Q283.966 12.9689 283.983 13.3121Q284 13.6553 284 13.999L284 23.001Q284 23.3447 283.983 23.6879Q283.966 24.0311 283.933 24.3731Q283.899 24.7151 283.848 25.0551Q283.798 25.395 283.731 25.7321Q283.664 26.0691 283.58 26.4025Q283.497 26.7358 283.397 27.0647Q283.297 27.3936 283.182 27.7171Q283.066 28.0407 282.934 28.3582Q282.803 28.6757 282.656 28.9863Q282.509 29.297 282.347 29.6001Q282.185 29.9032 282.008 30.1979Q281.832 30.4927 281.641 30.7784Q281.45 31.0642 281.245 31.3402Q281.04 31.6162 280.822 31.8819Q280.604 32.1475 280.374 32.4021Q280.143 32.6568 279.9 32.8998Q279.657 33.1428 279.402 33.3736Q279.147 33.6044 278.882 33.8224Q278.616 34.0404 278.34 34.2451Q278.064 34.4498 277.778 34.6407Q277.493 34.8317 277.198 35.0083Q276.903 35.185 276.6 35.347Q276.297 35.509 275.986 35.6559Q275.676 35.8029 275.358 35.9344Q275.041 36.0659 274.717 36.1817Q274.394 36.2974 274.065 36.3972Q273.736 36.497 273.402 36.5805Q273.069 36.664 272.732 36.731Q272.395 36.798 272.055 36.8485Q271.715 36.8989 271.373 36.9326Q271.031 36.9663 270.688 36.9831Q270.345 37 270.001 37L13.999 37Q13.6553 37 13.3121 36.9831Q12.9689 36.9663 12.6269 36.9326Q12.2849 36.8989 11.9449 36.8485Q11.605 36.798 11.2679 36.731Q10.9309 36.664 10.5975 36.5805Q10.2642 36.497 9.9353 36.3972Q9.60644 36.2974 9.28288 36.1817Q8.95931 36.0659 8.64181 35.9344Q8.32432 35.8029 8.01366 35.6559Q7.70299 35.509 7.39992 35.347Q7.09684 35.185 6.80207 35.0083Q6.50731 34.8317 6.22157 34.6407Q5.93583 34.4498 5.6598 34.2451Q5.38378 34.0404 5.11813 33.8224Q4.85248 33.6044 4.59785 33.3736Q4.34321 33.1428 4.10021 32.8998Q3.85721 32.6568 3.62642 32.4021Q3.39564 32.1475 3.17763 31.8819Q2.95961 31.6162 2.7549 31.3402Q2.55018 31.0642 2.35926 30.7784Q2.16833 30.4927 1.99166 30.1979Q1.81498 29.9032 1.65298 29.6001Q1.49099 29.297 1.34405 28.9863Q1.19712 28.6757 1.06561 28.3582Q0.934099 28.0407 0.818324 27.7171Q0.70255 27.3936 0.602792 27.0647Q0.503034 26.7358 0.419532 26.4025Q0.336031 26.0691 0.268987 25.7321Q0.201943 25.395 0.151518 25.0551Q0.101093 24.7151 0.067409 24.3731Q0.0337248 24.0311 0.0168624 23.6879Q0 23.3447 0 23.001L0 13.999Q0 13.6553 0.0168624 13.3121Q0.0337248 12.9689 0.067409 12.6269Q0.101093 12.2849 0.151518 11.9449Q0.201943 11.605 0.268987 11.2679Q0.336031 10.9309 0.419532 10.5975Q0.503034 10.2642 0.602792 9.9353Q0.70255 9.60644 0.818324 9.28288Q0.934099 8.95931 1.06561 8.64181Q1.19712 8.32432 1.34405 8.01366Q1.49099 7.70299 1.65298 7.39992Q1.81498 7.09684 1.99166 6.80207Q2.16833 6.50731 2.35926 6.22157Q2.55018 5.93583 2.7549 5.6598Q2.95961 5.38378 3.17763 5.11813Q3.39564 4.85248 3.62642 4.59785Q3.85721 4.34321 4.10021 4.10021Q4.34321 3.85721 4.59785 3.62642Q4.85248 3.39564 5.11813 3.17763Q5.38378 2.95961 5.6598 2.7549Q5.93583 2.55018 6.22157 2.35926Q6.50731 2.16833 6.80207 1.99166Q7.09684 1.81498 7.39992 1.65298Q7.70299 1.49099 8.01366 1.34405Q8.32432 1.19712 8.64181 1.06561Q8.95931 0.934099 9.28288 0.818324Q9.60644 0.70255 9.9353 0.602792Q10.2642 0.503034 10.5975 0.419532Q10.9309 0.336031 11.2679 0.268987Q11.605 0.201943 11.9449 0.151518Q12.2849 0.101093 12.6269 0.067409Q12.9689 0.0337248 13.3121 0.0168624Q13.6553 0 13.999 0Z" transform="translate(33 135)" id="Rectangle" fill="#D8D8D8" fill-opacity="0.18906076" fill-rule="evenodd" stroke="none" />
      <path d="M13.999 0L270.001 0Q270.345 0 270.688 0.0168624Q271.031 0.0337248 271.373 0.067409Q271.715 0.101093 272.055 0.151518Q272.395 0.201943 272.732 0.268987Q273.069 0.336031 273.402 0.419532Q273.736 0.503034 274.065 0.602792Q274.394 0.70255 274.717 0.818324Q275.041 0.934099 275.358 1.06561Q275.676 1.19712 275.986 1.34405Q276.297 1.49099 276.6 1.65298Q276.903 1.81498 277.198 1.99166Q277.493 2.16833 277.778 2.35926Q278.064 2.55018 278.34 2.7549Q278.616 2.95961 278.882 3.17763Q279.147 3.39564 279.402 3.62642Q279.657 3.85721 279.9 4.10021Q280.143 4.34321 280.374 4.59785Q280.604 4.85248 280.822 5.11813Q281.04 5.38378 281.245 5.6598Q281.45 5.93583 281.641 6.22157Q281.832 6.50731 282.008 6.80207Q282.185 7.09684 282.347 7.39992Q282.509 7.70299 282.656 8.01366Q282.803 8.32432 282.934 8.64181Q283.066 8.95931 283.182 9.28288Q283.297 9.60644 283.397 9.9353Q283.497 10.2642 283.58 10.5975Q283.664 10.9309 283.731 11.2679Q283.798 11.605 283.848 11.9449Q283.899 12.2849 283.933 12.6269Q283.966 12.9689 283.983 13.3121Q284 13.6553 284 13.999L284 23.001Q284 23.3447 283.983 23.6879Q283.966 24.0311 283.933 24.3731Q283.899 24.7151 283.848 25.0551Q283.798 25.395 283.731 25.7321Q283.664 26.0691 283.58 26.4025Q283.497 26.7358 283.397 27.0647Q283.297 27.3936 283.182 27.7171Q283.066 28.0407 282.934 28.3582Q282.803 28.6757 282.656 28.9863Q282.509 29.297 282.347 29.6001Q282.185 29.9032 282.008 30.1979Q281.832 30.4927 281.641 30.7784Q281.45 31.0642 281.245 31.3402Q281.04 31.6162 280.822 31.8819Q280.604 32.1475 280.374 32.4021Q280.143 32.6568 279.9 32.8998Q279.657 33.1428 279.402 33.3736Q279.147 33.6044 278.882 33.8224Q278.616 34.0404 278.34 34.2451Q278.064 34.4498 277.778 34.6407Q277.493 34.8317 277.198 35.0083Q276.903 35.185 276.6 35.347Q276.297 35.509 275.986 35.6559Q275.676 35.8029 275.358 35.9344Q275.041 36.0659 274.717 36.1817Q274.394 36.2974 274.065 36.3972Q273.736 36.497 273.402 36.5805Q273.069 36.664 272.732 36.731Q272.395 36.798 272.055 36.8485Q271.715 36.8989 271.373 36.9326Q271.031 36.9663 270.688 36.9831Q270.345 37 270.001 37L13.999 37Q13.6553 37 13.3121 36.9831Q12.9689 36.9663 12.6269 36.9326Q12.2849 36.8989 11.9449 36.8485Q11.605 36.798 11.2679 36.731Q10.9309 36.664 10.5975 36.5805Q10.2642 36.497 9.9353 36.3972Q9.60644 36.2974 9.28288 36.1817Q8.95931 36.0659 8.64181 35.9344Q8.32432 35.8029 8.01366 35.6559Q7.70299 35.509 7.39992 35.347Q7.09684 35.185 6.80207 35.0083Q6.50731 34.8317 6.22157 34.6407Q5.93583 34.4498 5.6598 34.2451Q5.38378 34.0404 5.11813 33.8224Q4.85248 33.6044 4.59785 33.3736Q4.34321 33.1428 4.10021 32.8998Q3.85721 32.6568 3.62642 32.4021Q3.39564 32.1475 3.17763 31.8819Q2.95961 31.6162 2.7549 31.3402Q2.55018 31.0642 2.35926 30.7784Q2.16833 30.4927 1.99166 30.1979Q1.81498 29.9032 1.65298 29.6001Q1.49099 29.297 1.34405 28.9863Q1.19712 28.6757 1.06561 28.3582Q0.934099 28.0407 0.818324 27.7171Q0.70255 27.3936 0.602792 27.0647Q0.503034 26.7358 0.419532 26.4025Q0.336031 26.0691 0.268987 25.7321Q0.201943 25.395 0.151518 25.0551Q0.101093 24.7151 0.067409 24.3731Q0.0337248 24.0311 0.0168624 23.6879Q0 23.3447 0 23.001L0 13.999Q0 13.6553 0.0168624 13.3121Q0.0337248 12.9689 0.067409 12.6269Q0.101093 12.2849 0.151518 11.9449Q0.201943 11.605 0.268987 11.2679Q0.336031 10.9309 0.419532 10.5975Q0.503034 10.2642 0.602792 9.9353Q0.70255 9.60644 0.818324 9.28288Q0.934099 8.95931 1.06561 8.64181Q1.19712 8.32432 1.34405 8.01366Q1.49099 7.70299 1.65298 7.39992Q1.81498 7.09684 1.99166 6.80207Q2.16833 6.50731 2.35926 6.22157Q2.55018 5.93583 2.7549 5.6598Q2.95961 5.38378 3.17763 5.11813Q3.39564 4.85248 3.62642 4.59785Q3.85721 4.34321 4.10021 4.10021Q4.34321 3.85721 4.59785 3.62642Q4.85248 3.39564 5.11813 3.17763Q5.38378 2.95961 5.6598 2.7549Q5.93583 2.55018 6.22157 2.35926Q6.50731 2.16833 6.80207 1.99166Q7.09684 1.81498 7.39992 1.65298Q7.70299 1.49099 8.01366 1.34405Q8.32432 1.19712 8.64181 1.06561Q8.95931 0.934099 9.28288 0.818324Q9.60644 0.70255 9.9353 0.602792Q10.2642 0.503034 10.5975 0.419532Q10.9309 0.336031 11.2679 0.268987Q11.605 0.201943 11.9449 0.151518Q12.2849 0.101093 12.6269 0.067409Q12.9689 0.0337248 13.3121 0.0168624Q13.6553 0 13.999 0Z" transform="translate(33 260)" id="Rectangle" fill="#D8D8D8" fill-opacity="0.18906076" fill-rule="evenodd" stroke="none" />
      <path d="M3.499 0L112.501 0Q112.673 0 112.844 0.0168486Q113.015 0.0336973 113.184 0.0672323Q113.352 0.100767 113.517 0.150666Q113.681 0.200564 113.84 0.266345Q113.999 0.332127 114.15 0.413157Q114.302 0.494188 114.445 0.589688Q114.588 0.685187 114.721 0.794236Q114.854 0.903285 114.975 1.02483Q115.097 1.14638 115.206 1.27926Q115.315 1.41213 115.41 1.55506Q115.506 1.69799 115.587 1.84958Q115.668 2.00118 115.734 2.15999Q115.799 2.3188 115.849 2.48329Q115.899 2.64779 115.933 2.81638Q115.966 2.98497 115.983 3.15604Q116 3.32711 116 3.499L116 6.501Q116 6.6729 115.983 6.84396Q115.966 7.01503 115.933 7.18362Q115.899 7.35221 115.849 7.51671Q115.799 7.6812 115.734 7.84001Q115.668 7.99882 115.587 8.15042Q115.506 8.30202 115.41 8.44494Q115.315 8.58786 115.206 8.72074Q115.097 8.85362 114.975 8.97517Q114.854 9.09671 114.721 9.20576Q114.588 9.31481 114.445 9.41031Q114.302 9.50581 114.15 9.58684Q113.999 9.66787 113.84 9.73365Q113.681 9.79943 113.517 9.84933Q113.352 9.89923 113.184 9.93277Q113.015 9.9663 112.844 9.98315Q112.673 10 112.501 10L3.499 10Q3.32711 10 3.15604 9.98315Q2.98497 9.9663 2.81638 9.93277Q2.64779 9.89923 2.48329 9.84933Q2.3188 9.79943 2.15999 9.73365Q2.00118 9.66787 1.84958 9.58684Q1.69799 9.50581 1.55506 9.41031Q1.41213 9.31481 1.27926 9.20576Q1.14638 9.09671 1.02483 8.97517Q0.903285 8.85362 0.794236 8.72074Q0.685187 8.58787 0.589688 8.44494Q0.494188 8.30202 0.413157 8.15042Q0.332127 7.99882 0.266345 7.84001Q0.200564 7.6812 0.150666 7.51671Q0.100767 7.35221 0.0672323 7.18362Q0.0336973 7.01503 0.0168486 6.84396Q0 6.6729 0 6.501L0 3.499Q0 3.32711 0.0168486 3.15604Q0.0336973 2.98497 0.0672323 2.81638Q0.100767 2.64779 0.150666 2.48329Q0.200564 2.3188 0.266345 2.15999Q0.332127 2.00118 0.413157 1.84958Q0.494188 1.69799 0.589688 1.55506Q0.685187 1.41213 0.794236 1.27926Q0.903285 1.14638 1.02483 1.02483Q1.14638 0.903285 1.27926 0.794236Q1.41213 0.685187 1.55506 0.589688Q1.69799 0.494188 1.84958 0.413157Q2.00118 0.332127 2.15999 0.266345Q2.3188 0.200564 2.48329 0.150666Q2.64779 0.100767 2.81638 0.0672323Q2.98497 0.0336973 3.15604 0.0168486Q3.32711 0 3.499 0L3.499 0Z" transform="translate(55 149)" id="Rectangle" fill="#77CDBC" fill-rule="evenodd" stroke="none" />
      <path d="M13.999 0L107.001 0Q107.345 0 107.688 0.0168624Q108.031 0.0337248 108.373 0.067409Q108.715 0.101093 109.055 0.151518Q109.395 0.201943 109.732 0.268987Q110.069 0.336031 110.402 0.419532Q110.736 0.503034 111.065 0.602792Q111.394 0.70255 111.717 0.818324Q112.041 0.934099 112.358 1.06561Q112.676 1.19712 112.986 1.34405Q113.297 1.49099 113.6 1.65298Q113.903 1.81498 114.198 1.99166Q114.493 2.16833 114.778 2.35926Q115.064 2.55018 115.34 2.7549Q115.616 2.95961 115.882 3.17763Q116.148 3.39564 116.402 3.62642Q116.657 3.85721 116.9 4.10021Q117.143 4.34321 117.374 4.59785Q117.604 4.85248 117.822 5.11813Q118.04 5.38378 118.245 5.6598Q118.45 5.93583 118.641 6.22157Q118.832 6.50731 119.008 6.80207Q119.185 7.09684 119.347 7.39992Q119.509 7.70299 119.656 8.01366Q119.803 8.32432 119.934 8.64181Q120.066 8.95931 120.182 9.28288Q120.297 9.60644 120.397 9.9353Q120.497 10.2642 120.58 10.5975Q120.664 10.9309 120.731 11.2679Q120.798 11.605 120.848 11.9449Q120.899 12.2849 120.933 12.6269Q120.966 12.9689 120.983 13.3121Q121 13.6553 121 13.999L121 28.001Q121 28.3447 120.983 28.6879Q120.966 29.0311 120.933 29.3731Q120.899 29.7151 120.848 30.0551Q120.798 30.395 120.731 30.7321Q120.664 31.0691 120.58 31.4025Q120.497 31.7358 120.397 32.0647Q120.297 32.3936 120.182 32.7171Q120.066 33.0407 119.934 33.3582Q119.803 33.6757 119.656 33.9863Q119.509 34.297 119.347 34.6001Q119.185 34.9032 119.008 35.1979Q118.832 35.4927 118.641 35.7784Q118.45 36.0642 118.245 36.3402Q118.04 36.6162 117.822 36.8819Q117.604 37.1475 117.374 37.4021Q117.143 37.6568 116.9 37.8998Q116.657 38.1428 116.402 38.3736Q116.148 38.6044 115.882 38.8224Q115.616 39.0404 115.34 39.2451Q115.064 39.4498 114.778 39.6407Q114.493 39.8317 114.198 40.0083Q113.903 40.185 113.6 40.347Q113.297 40.509 112.986 40.6559Q112.676 40.8029 112.358 40.9344Q112.041 41.0659 111.717 41.1817Q111.394 41.2974 111.065 41.3972Q110.736 41.497 110.402 41.5805Q110.069 41.664 109.732 41.731Q109.395 41.7981 109.055 41.8485Q108.715 41.8989 108.373 41.9326Q108.031 41.9663 107.688 41.9831Q107.345 42 107.001 42L13.999 42Q13.6553 42 13.3121 41.9831Q12.9689 41.9663 12.6269 41.9326Q12.2849 41.8989 11.9449 41.8485Q11.605 41.7981 11.2679 41.731Q10.9309 41.664 10.5975 41.5805Q10.2642 41.497 9.9353 41.3972Q9.60644 41.2974 9.28288 41.1817Q8.95931 41.0659 8.64181 40.9344Q8.32432 40.8029 8.01366 40.6559Q7.70299 40.509 7.39992 40.347Q7.09684 40.185 6.80207 40.0083Q6.50731 39.8317 6.22157 39.6407Q5.93583 39.4498 5.6598 39.2451Q5.38378 39.0404 5.11813 38.8224Q4.85248 38.6044 4.59785 38.3736Q4.34321 38.1428 4.10021 37.8998Q3.85721 37.6568 3.62642 37.4022Q3.39564 37.1475 3.17763 36.8819Q2.95961 36.6162 2.7549 36.3402Q2.55018 36.0642 2.35926 35.7784Q2.16833 35.4927 1.99166 35.1979Q1.81498 34.9032 1.65298 34.6001Q1.49099 34.297 1.34405 33.9863Q1.19712 33.6757 1.06561 33.3582Q0.934099 33.0407 0.818324 32.7171Q0.70255 32.3936 0.602792 32.0647Q0.503034 31.7358 0.419532 31.4025Q0.336031 31.0691 0.268987 30.7321Q0.201943 30.395 0.151518 30.0551Q0.101093 29.7151 0.067409 29.3731Q0.0337248 29.0311 0.0168624 28.6879Q0 28.3447 0 28.001L0 13.999Q0 13.6553 0.0168624 13.3121Q0.0337248 12.9689 0.067409 12.6269Q0.101093 12.2849 0.151518 11.9449Q0.201943 11.605 0.268987 11.2679Q0.336031 10.9309 0.419532 10.5975Q0.503034 10.2642 0.602792 9.9353Q0.70255 9.60644 0.818324 9.28288Q0.934099 8.95931 1.06561 8.64181Q1.19712 8.32432 1.34405 8.01366Q1.49099 7.70299 1.65298 7.39992Q1.81498 7.09684 1.99166 6.80207Q2.16833 6.50731 2.35926 6.22157Q2.55018 5.93583 2.7549 5.6598Q2.95961 5.38378 3.17763 5.11813Q3.39564 4.85248 3.62642 4.59785Q3.85721 4.34321 4.10021 4.10021Q4.34321 3.85721 4.59785 3.62642Q4.85248 3.39564 5.11813 3.17763Q5.38378 2.95961 5.6598 2.7549Q5.93583 2.55018 6.22157 2.35926Q6.50731 2.16833 6.80207 1.99166Q7.09684 1.81498 7.39992 1.65298Q7.70299 1.49099 8.01366 1.34405Q8.32432 1.19712 8.64181 1.06561Q8.95931 0.934099 9.28288 0.818324Q9.60644 0.70255 9.9353 0.602792Q10.2642 0.503034 10.5975 0.419532Q10.9309 0.336031 11.2679 0.268987Q11.605 0.201943 11.9449 0.151518Q12.2849 0.101093 12.6269 0.067409Q12.9689 0.0337248 13.3121 0.0168624Q13.6553 0 13.999 0Z" transform="translate(34 194)" id="Rectangle" fill="#F3F3F3" fill-rule="evenodd" stroke="none" />
      <path d="M13.999 0L129.001 0Q129.345 0 129.688 0.0168624Q130.031 0.0337248 130.373 0.067409Q130.715 0.101093 131.055 0.151518Q131.395 0.201943 131.732 0.268987Q132.069 0.336031 132.402 0.419532Q132.736 0.503034 133.065 0.602792Q133.394 0.70255 133.717 0.818324Q134.041 0.934099 134.358 1.06561Q134.676 1.19712 134.986 1.34405Q135.297 1.49099 135.6 1.65298Q135.903 1.81498 136.198 1.99166Q136.493 2.16833 136.778 2.35926Q137.064 2.55018 137.34 2.7549Q137.616 2.95961 137.882 3.17763Q138.147 3.39564 138.402 3.62642Q138.657 3.85721 138.9 4.10021Q139.143 4.34321 139.374 4.59785Q139.604 4.85248 139.822 5.11813Q140.04 5.38378 140.245 5.6598Q140.45 5.93583 140.641 6.22157Q140.832 6.50731 141.008 6.80207Q141.185 7.09684 141.347 7.39992Q141.509 7.70299 141.656 8.01366Q141.803 8.32432 141.934 8.64181Q142.066 8.95931 142.182 9.28288Q142.297 9.60644 142.397 9.9353Q142.497 10.2642 142.58 10.5975Q142.664 10.9309 142.731 11.2679Q142.798 11.605 142.848 11.9449Q142.899 12.2849 142.933 12.6269Q142.966 12.9689 142.983 13.3121Q143 13.6553 143 13.999L143 28.001Q143 28.3447 142.983 28.6879Q142.966 29.0311 142.933 29.3731Q142.899 29.7151 142.848 30.0551Q142.798 30.395 142.731 30.7321Q142.664 31.0691 142.58 31.4025Q142.497 31.7358 142.397 32.0647Q142.297 32.3936 142.182 32.7171Q142.066 33.0407 141.934 33.3582Q141.803 33.6757 141.656 33.9863Q141.509 34.297 141.347 34.6001Q141.185 34.9032 141.008 35.1979Q140.832 35.4927 140.641 35.7784Q140.45 36.0642 140.245 36.3402Q140.04 36.6162 139.822 36.8819Q139.604 37.1475 139.374 37.4021Q139.143 37.6568 138.9 37.8998Q138.657 38.1428 138.402 38.3736Q138.147 38.6044 137.882 38.8224Q137.616 39.0404 137.34 39.2451Q137.064 39.4498 136.778 39.6407Q136.493 39.8317 136.198 40.0083Q135.903 40.185 135.6 40.347Q135.297 40.509 134.986 40.6559Q134.676 40.8029 134.358 40.9344Q134.041 41.0659 133.717 41.1817Q133.394 41.2974 133.065 41.3972Q132.736 41.497 132.402 41.5805Q132.069 41.664 131.732 41.731Q131.395 41.7981 131.055 41.8485Q130.715 41.8989 130.373 41.9326Q130.031 41.9663 129.688 41.9831Q129.345 42 129.001 42L13.999 42Q13.6553 42 13.3121 41.9831Q12.9689 41.9663 12.6269 41.9326Q12.2849 41.8989 11.9449 41.8485Q11.605 41.7981 11.2679 41.731Q10.9309 41.664 10.5975 41.5805Q10.2642 41.497 9.9353 41.3972Q9.60644 41.2974 9.28288 41.1817Q8.95931 41.0659 8.64181 40.9344Q8.32432 40.8029 8.01366 40.6559Q7.70299 40.509 7.39992 40.347Q7.09684 40.185 6.80207 40.0083Q6.50731 39.8317 6.22157 39.6407Q5.93583 39.4498 5.6598 39.2451Q5.38378 39.0404 5.11813 38.8224Q4.85248 38.6044 4.59785 38.3736Q4.34321 38.1428 4.10021 37.8998Q3.85721 37.6568 3.62642 37.4022Q3.39564 37.1475 3.17763 36.8819Q2.95961 36.6162 2.7549 36.3402Q2.55018 36.0642 2.35926 35.7784Q2.16833 35.4927 1.99166 35.1979Q1.81498 34.9032 1.65298 34.6001Q1.49099 34.297 1.34405 33.9863Q1.19712 33.6757 1.06561 33.3582Q0.934099 33.0407 0.818324 32.7171Q0.70255 32.3936 0.602792 32.0647Q0.503034 31.7358 0.419532 31.4025Q0.336031 31.0691 0.268987 30.7321Q0.201943 30.395 0.151518 30.0551Q0.101093 29.7151 0.067409 29.3731Q0.0337248 29.0311 0.0168624 28.6879Q0 28.3447 0 28.001L0 13.999Q0 13.6553 0.0168624 13.3121Q0.0337248 12.9689 0.067409 12.6269Q0.101093 12.2849 0.151518 11.9449Q0.201943 11.605 0.268987 11.2679Q0.336031 10.9309 0.419532 10.5975Q0.503034 10.2642 0.602792 9.9353Q0.70255 9.60644 0.818324 9.28288Q0.934099 8.95931 1.06561 8.64181Q1.19712 8.32432 1.34405 8.01366Q1.49099 7.70299 1.65298 7.39992Q1.81498 7.09684 1.99166 6.80207Q2.16833 6.50731 2.35926 6.22157Q2.55018 5.93583 2.7549 5.6598Q2.95961 5.38378 3.17763 5.11813Q3.39564 4.85248 3.62642 4.59785Q3.85721 4.34321 4.10021 4.10021Q4.34321 3.85721 4.59785 3.62642Q4.85248 3.39564 5.11813 3.17763Q5.38378 2.95961 5.6598 2.7549Q5.93583 2.55018 6.22157 2.35926Q6.50731 2.16833 6.80207 1.99166Q7.09684 1.81498 7.39992 1.65298Q7.70299 1.49099 8.01366 1.34405Q8.32432 1.19712 8.64181 1.06561Q8.95931 0.934099 9.28288 0.818324Q9.60644 0.70255 9.9353 0.602792Q10.2642 0.503034 10.5975 0.419532Q10.9309 0.336031 11.2679 0.268987Q11.605 0.201943 11.9449 0.151518Q12.2849 0.101093 12.6269 0.067409Q12.9689 0.0337248 13.3121 0.0168624Q13.6553 0 13.999 0Z" transform="translate(175 194)" id="Rectangle" fill="#F3F3F3" fill-rule="evenodd" stroke="none" />
      <g id="Crete-event" fill="#2C2C2C" transform="translate(40 91)">
        <path d="M8.35547 14.3633Q9.47656 13.3828 9.6875 11.5781L8.17969 11.5781Q7.96094 12.9844 7.29297 13.5508Q6.625 14.1172 5.375 14.1172Q3.98437 14.1172 3.21094 13.0225Q2.4375 11.9279 2.4375 10.0747L2.4375 8.97217Q2.4375 7.00964 3.25391 5.94623Q4.07031 4.88281 5.50781 4.88281Q6.67969 4.88281 7.33203 5.49402Q7.98437 6.10522 8.17969 7.46875L9.6875 7.46875Q9.50781 5.67969 8.41406 4.66797Q7.32031 3.65625 5.50781 3.65625Q4.14063 3.65625 3.10156 4.30078Q2.0625 4.94531 1.49609 6.14844Q0.929688 7.35156 0.929688 8.9375L0.929688 10.0313Q0.929688 12.4531 2.14453 13.8984Q3.35938 15.3438 5.375 15.3438Q7.23438 15.3438 8.35547 14.3633ZM27.3594 6.73438L27.3594 4.6875L25.9141 4.6875L25.9141 6.73438L24.375 6.73438L24.375 7.85156L25.9141 7.85156L25.9141 13.0938Q25.9141 14.1719 26.4063 14.7578Q26.8984 15.3438 27.8672 15.3438Q28.4063 15.3438 28.9766 15.1885L28.9766 14.0234Q28.5391 14.1172 28.2891 14.1172Q27.7813 14.1172 27.5703 13.863Q27.3594 13.6088 27.3594 13.1003L27.3594 7.85156L28.9375 7.85156L28.9375 6.73438L27.3594 6.73438ZM78.5547 6.73438L78.5547 4.6875L77.1094 4.6875L77.1094 6.73438L75.5703 6.73438L75.5703 7.85156L77.1094 7.85156L77.1094 13.0938Q77.1094 14.1719 77.6016 14.7578Q78.0938 15.3438 79.0625 15.3438Q79.6016 15.3438 80.1719 15.1885L80.1719 14.0234Q79.7344 14.1172 79.4844 14.1172Q78.9766 14.1172 78.7656 13.863Q78.5547 13.6088 78.5547 13.1003L78.5547 7.85156L80.1328 7.85156L80.1328 6.73438L78.5547 6.73438ZM14.8828 7.97656Q15.2656 7.97656 15.5938 8.03125L15.5938 6.6875Q15.375 6.57813 14.9531 6.57813Q13.6484 6.57813 12.9375 7.71094L12.9141 6.73438L11.5078 6.73438L11.5078 15.1875L12.9531 15.1875L12.9531 9.1875Q13.4609 7.97656 14.8828 7.97656ZM20.4297 15.3438Q18.7109 15.3438 17.6328 14.2148Q16.5547 13.0859 16.5547 11.1953L16.5547 10.9297Q16.5547 9.67188 17.0352 8.68359Q17.5156 7.69531 18.3789 7.13672Q19.2422 6.57813 20.25 6.57813Q21.8984 6.57813 22.8125 7.66406Q23.7266 8.75 23.7266 10.7734L23.7266 11.375L18 11.375Q18.0313 12.625 18.7305 13.3945Q19.4297 14.1641 20.5078 14.1641Q21.2734 14.1641 21.8047 13.8516Q22.3359 13.5391 22.7344 13.0234L23.6172 13.7109Q22.5547 15.3438 20.4297 15.3438ZM34.1328 15.3438Q32.4141 15.3438 31.3359 14.2148Q30.2578 13.0859 30.2578 11.1953L30.2578 10.9297Q30.2578 9.67188 30.7383 8.68359Q31.2188 7.69531 32.082 7.13672Q32.9453 6.57813 33.9531 6.57813Q35.6016 6.57813 36.5156 7.66406Q37.4297 8.75 37.4297 10.7734L37.4297 11.375L31.7031 11.375Q31.7344 12.625 32.4336 13.3945Q33.1328 14.1641 34.2109 14.1641Q34.9766 14.1641 35.5078 13.8516Q36.0391 13.5391 36.4375 13.0234L37.3203 13.7109Q36.2578 15.3438 34.1328 15.3438ZM43.7734 14.2148Q44.8516 15.3438 46.5703 15.3438Q48.6953 15.3438 49.7578 13.7109L48.875 13.0234Q48.4766 13.5391 47.9453 13.8516Q47.4141 14.1641 46.6484 14.1641Q45.5703 14.1641 44.8711 13.3945Q44.1719 12.625 44.1406 11.375L49.8672 11.375L49.8672 10.7734Q49.8672 8.75 48.9531 7.66406Q48.0391 6.57813 46.3906 6.57813Q45.3828 6.57813 44.5195 7.13672Q43.6563 7.69531 43.1758 8.68359Q42.6953 9.67188 42.6953 10.9297L42.6953 11.1953Q42.6953 13.0859 43.7734 14.2148ZM60 14.2148Q61.0781 15.3438 62.7969 15.3438Q64.9219 15.3438 65.9844 13.7109L65.1016 13.0234Q64.7031 13.5391 64.1719 13.8516Q63.6406 14.1641 62.875 14.1641Q61.7969 14.1641 61.0977 13.3945Q60.3984 12.625 60.3672 11.375L66.0938 11.375L66.0938 10.7734Q66.0938 8.75 65.1797 7.66406Q64.2656 6.57813 62.6172 6.57813Q61.6094 6.57813 60.7461 7.13672Q59.8828 7.69531 59.4023 8.68359Q58.9219 9.67188 58.9219 10.9297L58.9219 11.1953Q58.9219 13.0859 60 14.2148ZM69.1328 6.73438L69.1797 7.79688Q70.1484 6.57813 71.7109 6.57813Q74.3906 6.57813 74.4141 9.60156L74.4141 15.1875L72.9688 15.1875L72.9688 9.59375Q72.9609 8.67969 72.5508 8.24219Q72.1406 7.80469 71.2734 7.80469Q70.5703 7.80469 70.0391 8.17969Q69.5078 8.55469 69.2109 9.16406L69.2109 15.1875L67.7656 15.1875L67.7656 6.73438L69.1328 6.73438ZM54.3281 13.2266L56.4219 6.73438L57.8984 6.73438L54.8672 15.1875L53.7656 15.1875L50.7031 6.73438L52.1797 6.73438L54.3281 13.2266ZM20.25 7.76563Q19.375 7.76563 18.7813 8.40234Q18.1875 9.03906 18.0469 10.1875L22.2813 10.1875L22.2813 10.0781Q22.2188 8.97656 21.6875 8.37109Q21.1563 7.76563 20.25 7.76563ZM33.9531 7.76563Q33.0781 7.76563 32.4844 8.40234Q31.8906 9.03906 31.75 10.1875L35.9844 10.1875L35.9844 10.0781Q35.9219 8.97656 35.3906 8.37109Q34.8594 7.76563 33.9531 7.76563ZM44.9219 8.40234Q45.5156 7.76563 46.3906 7.76563Q47.2969 7.76563 47.8281 8.37109Q48.3594 8.97656 48.4219 10.0781L48.4219 10.1875L44.1875 10.1875Q44.3281 9.03906 44.9219 8.40234ZM61.1484 8.40234Q61.7422 7.76563 62.6172 7.76563Q63.5234 7.76563 64.0547 8.37109Q64.5859 8.97656 64.6484 10.0781L64.6484 10.1875L60.4141 10.1875Q60.5547 9.03906 61.1484 8.40234Z" />
      </g>
      <path d="M3.499 0L43.501 0Q43.6729 0 43.844 0.0168486Q44.015 0.0336973 44.1836 0.0672323Q44.3522 0.100767 44.5167 0.150666Q44.6812 0.200564 44.84 0.266345Q44.9988 0.332127 45.1504 0.413157Q45.302 0.494188 45.4449 0.589688Q45.5879 0.685187 45.7207 0.794236Q45.8536 0.903285 45.9752 1.02483Q46.0967 1.14638 46.2058 1.27926Q46.3148 1.41213 46.4103 1.55506Q46.5058 1.69799 46.5868 1.84958Q46.6679 2.00118 46.7336 2.15999Q46.7994 2.3188 46.8493 2.48329Q46.8992 2.64779 46.9328 2.81638Q46.9663 2.98497 46.9832 3.15604Q47 3.32711 47 3.499L47 6.501Q47 6.6729 46.9832 6.84396Q46.9663 7.01503 46.9328 7.18362Q46.8992 7.35221 46.8493 7.51671Q46.7994 7.6812 46.7336 7.84001Q46.6679 7.99882 46.5868 8.15042Q46.5058 8.30202 46.4103 8.44494Q46.3148 8.58786 46.2058 8.72074Q46.0967 8.85362 45.9752 8.97517Q45.8536 9.09671 45.7207 9.20576Q45.5879 9.31481 45.4449 9.41031Q45.302 9.50581 45.1504 9.58684Q44.9988 9.66787 44.84 9.73365Q44.6812 9.79943 44.5167 9.84933Q44.3522 9.89923 44.1836 9.93277Q44.015 9.9663 43.844 9.98315Q43.6729 10 43.501 10L3.499 10Q3.32711 10 3.15604 9.98315Q2.98497 9.9663 2.81638 9.93277Q2.64779 9.89923 2.48329 9.84933Q2.3188 9.79943 2.15999 9.73365Q2.00118 9.66787 1.84958 9.58684Q1.69799 9.50581 1.55506 9.41031Q1.41213 9.31481 1.27926 9.20576Q1.14638 9.09671 1.02483 8.97517Q0.903285 8.85362 0.794236 8.72074Q0.685187 8.58787 0.589688 8.44494Q0.494188 8.30202 0.413157 8.15042Q0.332127 7.99882 0.266345 7.84001Q0.200564 7.6812 0.150666 7.51671Q0.100767 7.35221 0.0672323 7.18362Q0.0336973 7.01503 0.0168486 6.84396Q0 6.6729 0 6.501L0 3.499Q0 3.32711 0.0168486 3.15604Q0.0336973 2.98497 0.0672323 2.81638Q0.100767 2.64779 0.150666 2.48329Q0.200564 2.3188 0.266345 2.15999Q0.332127 2.00118 0.413157 1.84958Q0.494188 1.69799 0.589688 1.55506Q0.685187 1.41213 0.794236 1.27926Q0.903285 1.14638 1.02483 1.02483Q1.14638 0.903285 1.27926 0.794236Q1.41213 0.685187 1.55506 0.589688Q1.69799 0.494188 1.84958 0.413157Q2.00118 0.332127 2.15999 0.266345Q2.3188 0.200564 2.48329 0.150666Q2.64779 0.100767 2.81638 0.0672323Q2.98497 0.0336973 3.15604 0.0168486Q3.32711 0 3.499 0L3.499 0Z" transform="translate(57 210)" id="Rectangle" fill="#8D75AD" fill-rule="evenodd" stroke="none" />
      <path d="M3.499 0L191.501 0Q191.673 0 191.844 0.0168486Q192.015 0.0336973 192.184 0.0672323Q192.352 0.100767 192.517 0.150666Q192.681 0.200564 192.84 0.266345Q192.999 0.332127 193.15 0.413157Q193.302 0.494188 193.445 0.589688Q193.588 0.685187 193.721 0.794236Q193.854 0.903285 193.975 1.02483Q194.097 1.14638 194.206 1.27926Q194.315 1.41213 194.41 1.55506Q194.506 1.69799 194.587 1.84958Q194.668 2.00118 194.734 2.15999Q194.799 2.3188 194.849 2.48329Q194.899 2.64779 194.933 2.81638Q194.966 2.98497 194.983 3.15604Q195 3.32711 195 3.499L195 6.501Q195 6.6729 194.983 6.84396Q194.966 7.01503 194.933 7.18362Q194.899 7.35221 194.849 7.51671Q194.799 7.6812 194.734 7.84001Q194.668 7.99882 194.587 8.15042Q194.506 8.30202 194.41 8.44494Q194.315 8.58786 194.206 8.72074Q194.097 8.85362 193.975 8.97517Q193.854 9.09671 193.721 9.20576Q193.588 9.31481 193.445 9.41031Q193.302 9.50581 193.15 9.58684Q192.999 9.66787 192.84 9.73365Q192.681 9.79943 192.517 9.84933Q192.352 9.89923 192.184 9.93277Q192.015 9.9663 191.844 9.98315Q191.673 10 191.501 10L3.499 10Q3.32711 10 3.15604 9.98315Q2.98497 9.9663 2.81638 9.93277Q2.64779 9.89923 2.48329 9.84933Q2.3188 9.79943 2.15999 9.73365Q2.00118 9.66787 1.84958 9.58684Q1.69799 9.50581 1.55506 9.41031Q1.41213 9.31481 1.27926 9.20576Q1.14638 9.09671 1.02483 8.97517Q0.903285 8.85362 0.794236 8.72074Q0.685187 8.58787 0.589688 8.44494Q0.494188 8.30202 0.413157 8.15042Q0.332127 7.99882 0.266345 7.84001Q0.200564 7.6812 0.150666 7.51671Q0.100767 7.35221 0.0672323 7.18362Q0.0336973 7.01503 0.0168486 6.84396Q0 6.6729 0 6.501L0 3.499Q0 3.32711 0.0168486 3.15604Q0.0336973 2.98497 0.0672323 2.81638Q0.100767 2.64779 0.150666 2.48329Q0.200564 2.3188 0.266345 2.15999Q0.332127 2.00118 0.413157 1.84958Q0.494188 1.69799 0.589688 1.55506Q0.685187 1.41213 0.794236 1.27926Q0.903285 1.14638 1.02483 1.02483Q1.14638 0.903285 1.27926 0.794236Q1.41213 0.685187 1.55506 0.589688Q1.69799 0.494188 1.84958 0.413157Q2.00118 0.332127 2.15999 0.266345Q2.3188 0.200564 2.48329 0.150666Q2.64779 0.100767 2.81638 0.0672323Q2.98497 0.0336973 3.15604 0.0168486Q3.32711 0 3.499 0L3.499 0Z" transform="translate(54 274)" id="Rectangle" fill="#973C56" fill-rule="evenodd" stroke="none" />
      <path d="M3.499 0L70.501 0Q70.6729 0 70.844 0.0168486Q71.015 0.0336973 71.1836 0.0672323Q71.3522 0.100767 71.5167 0.150666Q71.6812 0.200564 71.84 0.266345Q71.9988 0.332127 72.1504 0.413157Q72.302 0.494188 72.4449 0.589688Q72.5879 0.685187 72.7207 0.794236Q72.8536 0.903285 72.9752 1.02483Q73.0967 1.14638 73.2057 1.27926Q73.3148 1.41213 73.4103 1.55506Q73.5058 1.69799 73.5868 1.84958Q73.6679 2.00118 73.7336 2.15999Q73.7994 2.3188 73.8493 2.48329Q73.8992 2.64779 73.9328 2.81638Q73.9663 2.98497 73.9832 3.15604Q74 3.32711 74 3.499L74 6.501Q74 6.6729 73.9832 6.84396Q73.9663 7.01503 73.9328 7.18362Q73.8992 7.35221 73.8493 7.51671Q73.7994 7.6812 73.7336 7.84001Q73.6679 7.99882 73.5868 8.15042Q73.5058 8.30202 73.4103 8.44494Q73.3148 8.58786 73.2057 8.72074Q73.0967 8.85362 72.9752 8.97517Q72.8536 9.09671 72.7207 9.20576Q72.5879 9.31481 72.4449 9.41031Q72.302 9.50581 72.1504 9.58684Q71.9988 9.66787 71.84 9.73365Q71.6812 9.79943 71.5167 9.84933Q71.3522 9.89923 71.1836 9.93277Q71.015 9.9663 70.844 9.98315Q70.6729 10 70.501 10L3.499 10Q3.32711 10 3.15604 9.98315Q2.98497 9.9663 2.81638 9.93277Q2.64779 9.89923 2.48329 9.84933Q2.3188 9.79943 2.15999 9.73365Q2.00118 9.66787 1.84958 9.58684Q1.69799 9.50581 1.55506 9.41031Q1.41213 9.31481 1.27926 9.20576Q1.14638 9.09671 1.02483 8.97517Q0.903285 8.85362 0.794236 8.72074Q0.685187 8.58787 0.589688 8.44494Q0.494188 8.30202 0.413157 8.15042Q0.332127 7.99882 0.266345 7.84001Q0.200564 7.6812 0.150666 7.51671Q0.100767 7.35221 0.0672323 7.18362Q0.0336973 7.01503 0.0168486 6.84396Q0 6.6729 0 6.501L0 3.499Q0 3.32711 0.0168486 3.15604Q0.0336973 2.98497 0.0672323 2.81638Q0.100767 2.64779 0.150666 2.48329Q0.200564 2.3188 0.266345 2.15999Q0.332127 2.00118 0.413157 1.84958Q0.494188 1.69799 0.589688 1.55506Q0.685187 1.41213 0.794236 1.27926Q0.903285 1.14638 1.02483 1.02483Q1.14638 0.903285 1.27926 0.794236Q1.41213 0.685187 1.55506 0.589688Q1.69799 0.494188 1.84958 0.413157Q2.00118 0.332127 2.15999 0.266345Q2.3188 0.200564 2.48329 0.150666Q2.64779 0.100767 2.81638 0.0672323Q2.98497 0.0336973 3.15604 0.0168486Q3.32711 0 3.499 0Z" transform="translate(200 210)" id="Rectangle" fill="#F1CE8E" fill-rule="evenodd" stroke="none" />
      <g id="Rectangle">
        <g clip-path="url(#clip_1)">
          <use xlink:href="#path_2" fill="none" stroke="#973C56" stroke-width="2" />
        </g>
      </g>
      <g id="CREATE" fill="#973C56" transform="translate(142 336)">
        <path d="M11.7692 13.5227Q12.8678 12.5669 13.029 10.8604L11.1833 10.8604Q11.0368 12.0029 10.4875 12.4937Q9.93814 12.9844 8.84684 12.9844Q7.65299 12.9844 7.03409 12.0753Q6.4152 11.1663 6.4152 9.43625L6.4152 8.49051Q6.42984 6.78236 7.07804 5.89899Q7.72623 5.01563 8.93473 5.01563Q9.97477 5.01563 10.5131 5.52466Q11.0514 6.03369 11.1833 7.18359L13.029 7.18359Q12.8532 5.43311 11.7765 4.47729Q10.6999 3.52148 8.93473 3.52148Q7.62369 3.52148 6.62394 4.14404Q5.62418 4.7666 5.08951 5.9165Q4.55484 7.06641 4.55484 8.5752L4.55484 9.57129Q4.57682 11.0435 5.10416 12.1567Q5.6315 13.27 6.60196 13.8743Q7.57242 14.4785 8.84684 14.4785Q10.6706 14.4785 11.7692 13.5227ZM17.9009 10.2305L19.9663 10.2305L22.105 14.332L24.0899 14.332L24.0899 14.2369L21.6948 9.79617Q22.6177 9.40764 23.1341 8.68563Q23.6504 7.96362 23.6504 6.89337Q23.6504 5.32462 22.647 4.49629Q21.6436 3.66797 19.7979 3.66797L16.0479 3.66797L16.0479 14.332L17.9009 14.332L17.9009 10.2305ZM33.0048 9.57129L28.6249 9.57129L28.6249 12.8525L33.7445 12.8525L33.7445 14.332L26.7719 14.332L26.7719 3.66797L33.6932 3.66797L33.6932 5.16211L28.6249 5.16211L28.6249 8.10645L33.0048 8.10645L33.0048 9.57129ZM37.5911 14.332L38.4553 11.8491L42.5862 11.8491L43.4578 14.332L45.3914 14.332L41.3557 3.66797L39.6931 3.66797L35.6648 14.332L37.5911 14.332ZM55.6686 5.16211L52.3434 5.16211L52.3434 14.332L50.505 14.332L50.505 5.16211L47.2091 5.16211L47.2091 3.66797L55.6686 3.66797L55.6686 5.16211ZM60.2842 9.57129L64.664 9.57129L64.664 8.10645L60.2842 8.10645L60.2842 5.16211L65.3525 5.16211L65.3525 3.66797L58.4311 3.66797L58.4311 14.332L65.4038 14.332L65.4038 12.8525L60.2842 12.8525L60.2842 9.57129ZM19.8052 8.73633L17.9009 8.73633L17.9009 5.16211L19.8565 5.16211Q20.8233 5.17676 21.3103 5.64551Q21.7974 6.11426 21.7974 6.97119Q21.7974 7.7915 21.27 8.26392Q20.7427 8.73633 19.8052 8.73633ZM40.5208 5.93115L42.0662 10.355L38.9753 10.355L40.5208 5.93115Z" />
      </g>
    </g>
  </g>
</svg>