<?xml version="1.0" encoding="utf-8"?>
<svg width="278px" height="281px" viewBox="0 0 278 281" version="1.1" xmlns:xlink="http://www.w3.org/1999/xlink" xmlns="http://www.w3.org/2000/svg">
  <g id="Shape-2" transform="matrix(1.1924881E-08 1 -1 1.1924881E-08 277 0.5)">
    <path d="M0.888889 1.77778C1.37981 1.77778 1.77778 1.37981 1.77778 0.888889C1.77778 0.397969 1.37981 0 0.888889 0C0.397969 0 0 0.397969 0 0.888889C0 1.37981 0.397969 1.77778 0.888889 1.77778Z" transform="matrix(-1 2.3849761E-08 -2.3849761E-08 -1 275.55554 215.33333)" id="Oval" fill="#9A9A9A" stroke="none" />
    <path d="M0.888889 1.77778C1.37981 1.77778 1.77778 1.37981 1.77778 0.888889C1.77778 0.397969 1.37981 0 0.888889 0C0.397969 0 0 0.397969 0 0.888889C0 1.37981 0.397969 1.77778 0.888889 1.77778Z" transform="matrix(-1 2.3849761E-08 -2.3849761E-08 -1 256 215.33333)" id="Oval" fill="#9A9A9A" stroke="none" />
    <path d="M0.888889 1.77778C1.37981 1.77778 1.77778 1.37981 1.77778 0.888889C1.77778 0.397969 1.37981 0 0.888889 0C0.397969 0 0 0.397969 0 0.888889C0 1.37981 0.397969 1.77778 0.888889 1.77778Z" transform="matrix(-1 2.3849761E-08 -2.3849761E-08 -1 236.44444 215.33333)" id="Oval" fill="#9A9A9A" stroke="none" />
    <path d="M0.888889 1.77778C1.37981 1.77778 1.77778 1.37981 1.77778 0.888889C1.77778 0.397969 1.37981 0 0.888889 0C0.397969 0 0 0.397969 0 0.888889C0 1.37981 0.397969 1.77778 0.888889 1.77778Z" transform="matrix(-1 2.3849761E-08 -2.3849761E-08 -1 216.88889 215.33333)" id="Oval" fill="#9A9A9A" stroke="none" />
    <path d="M0.888889 1.77778C1.37981 1.77778 1.77778 1.37981 1.77778 0.888889C1.77778 0.397969 1.37981 0 0.888889 0C0.397969 0 0 0.397969 0 0.888889C0 1.37981 0.397969 1.77778 0.888889 1.77778Z" transform="matrix(-1 2.3849761E-08 -2.3849761E-08 -1 197.33333 215.33333)" id="Oval" fill="#9A9A9A" stroke="none" />
    <path d="M0.888889 1.77778C1.37981 1.77778 1.77778 1.37981 1.77778 0.888889C1.77778 0.397969 1.37981 0 0.888889 0C0.397969 0 0 0.397969 0 0.888889C0 1.37981 0.397969 1.77778 0.888889 1.77778Z" transform="matrix(-1 2.3849761E-08 -2.3849761E-08 -1 177.77777 215.33333)" id="Oval" fill="#9A9A9A" stroke="none" />
    <path d="M0.888889 1.77778C1.37981 1.77778 1.77778 1.37981 1.77778 0.888889C1.77778 0.397969 1.37981 0 0.888889 0C0.397969 0 0 0.397969 0 0.888889C0 1.37981 0.397969 1.77778 0.888889 1.77778Z" transform="matrix(-1 2.3849761E-08 -2.3849761E-08 -1 158.22221 215.33333)" id="Oval" fill="#9A9A9A" stroke="none" />
    <path d="M0.888889 1.77778C1.37981 1.77778 1.77778 1.37981 1.77778 0.888889C1.77778 0.397969 1.37981 0 0.888889 0C0.397969 0 0 0.397969 0 0.888889C0 1.37981 0.397969 1.77778 0.888889 1.77778Z" transform="matrix(-1 2.3849761E-08 -2.3849761E-08 -1 138.66666 215.33333)" id="Oval" fill="#9A9A9A" stroke="none" />
    <path d="M0.888889 1.77778C1.37981 1.77778 1.77778 1.37981 1.77778 0.888889C1.77778 0.397969 1.37981 0 0.888889 0C0.397969 0 0 0.397969 0 0.888889C0 1.37981 0.397969 1.77778 0.888889 1.77778Z" transform="matrix(-1 2.3849761E-08 -2.3849761E-08 -1 119.111115 215.33333)" id="Oval" fill="#9A9A9A" stroke="none" />
    <path d="M0.888889 1.77778C1.37981 1.77778 1.77778 1.37981 1.77778 0.888889C1.77778 0.397969 1.37981 0 0.888889 0C0.397969 0 0 0.397969 0 0.888889C0 1.37981 0.397969 1.77778 0.888889 1.77778Z" transform="matrix(-1 2.3849761E-08 -2.3849761E-08 -1 99.55556 215.33333)" id="Oval" fill="#9A9A9A" stroke="none" />
    <path d="M0.888889 1.77778C1.37981 1.77778 1.77778 1.37981 1.77778 0.888889C1.77778 0.397969 1.37981 0 0.888889 0C0.397969 0 0 0.397969 0 0.888889C0 1.37981 0.397969 1.77778 0.888889 1.77778Z" transform="matrix(-1 2.3849761E-08 -2.3849761E-08 -1 80 215.33333)" id="Oval" fill="#9A9A9A" stroke="none" />
    <path d="M0.888889 1.77778C1.37981 1.77778 1.77778 1.37981 1.77778 0.888889C1.77778 0.397969 1.37981 0 0.888889 0C0.397969 0 0 0.397969 0 0.888889C0 1.37981 0.397969 1.77778 0.888889 1.77778Z" transform="matrix(-1 2.3849761E-08 -2.3849761E-08 -1 60.444447 215.33333)" id="Oval" fill="#9A9A9A" stroke="none" />
    <path d="M0.888889 1.77778C1.37981 1.77778 1.77778 1.37981 1.77778 0.888889C1.77778 0.397969 1.37981 0 0.888889 0C0.397969 0 0 0.397969 0 0.888889C0 1.37981 0.397969 1.77778 0.888889 1.77778Z" transform="matrix(-1 2.3849761E-08 -2.3849761E-08 -1 40.88889 215.33333)" id="Oval" fill="#9A9A9A" stroke="none" />
    <path d="M0.888889 1.77778C1.37981 1.77778 1.77778 1.37981 1.77778 0.888889C1.77778 0.397969 1.37981 0 0.888889 0C0.397969 0 0 0.397969 0 0.888889C0 1.37981 0.397969 1.77778 0.888889 1.77778Z" transform="matrix(-1 2.3849761E-08 -2.3849761E-08 -1 21.333334 215.33333)" id="Oval" fill="#9A9A9A" stroke="none" />
    <path d="M0.888889 1.77778C1.37981 1.77778 1.77778 1.37981 1.77778 0.888889C1.77778 0.397969 1.37981 0 0.888889 0C0.397969 0 0 0.397969 0 0.888889C0 1.37981 0.397969 1.77778 0.888889 1.77778Z" transform="matrix(-1 2.3849761E-08 -2.3849761E-08 -1 1.7777778 215.33333)" id="Oval" fill="#9A9A9A" stroke="none" />
    <path d="M0.888889 1.77778C1.37981 1.77778 1.77778 1.37981 1.77778 0.888889C1.77778 0.397969 1.37981 0 0.888889 0C0.397969 0 0 0.397969 0 0.888889C0 1.37981 0.397969 1.77778 0.888889 1.77778Z" transform="matrix(-1 2.3849761E-08 -2.3849761E-08 -1 275.55554 195.77777)" id="Oval" fill="#9A9A9A" stroke="none" />
    <path d="M0.888889 1.77778C1.37981 1.77778 1.77778 1.37981 1.77778 0.888889C1.77778 0.397969 1.37981 0 0.888889 0C0.397969 0 0 0.397969 0 0.888889C0 1.37981 0.397969 1.77778 0.888889 1.77778Z" transform="matrix(-1 2.3849761E-08 -2.3849761E-08 -1 256 195.77777)" id="Oval" fill="#9A9A9A" stroke="none" />
    <path d="M0.888889 1.77778C1.37981 1.77778 1.77778 1.37981 1.77778 0.888889C1.77778 0.397969 1.37981 0 0.888889 0C0.397969 0 0 0.397969 0 0.888889C0 1.37981 0.397969 1.77778 0.888889 1.77778Z" transform="matrix(-1 2.3849761E-08 -2.3849761E-08 -1 236.44444 195.77777)" id="Oval" fill="#9A9A9A" stroke="none" />
    <path d="M0.888889 1.77778C1.37981 1.77778 1.77778 1.37981 1.77778 0.888889C1.77778 0.397969 1.37981 0 0.888889 0C0.397969 0 0 0.397969 0 0.888889C0 1.37981 0.397969 1.77778 0.888889 1.77778Z" transform="matrix(-1 2.3849761E-08 -2.3849761E-08 -1 216.88889 195.77777)" id="Oval" fill="#9A9A9A" stroke="none" />
    <path d="M0.888889 1.77778C1.37981 1.77778 1.77778 1.37981 1.77778 0.888889C1.77778 0.397969 1.37981 0 0.888889 0C0.397969 0 0 0.397969 0 0.888889C0 1.37981 0.397969 1.77778 0.888889 1.77778Z" transform="matrix(-1 2.3849761E-08 -2.3849761E-08 -1 197.33333 195.77777)" id="Oval" fill="#9A9A9A" stroke="none" />
    <path d="M0.888889 1.77778C1.37981 1.77778 1.77778 1.37981 1.77778 0.888889C1.77778 0.397969 1.37981 0 0.888889 0C0.397969 0 0 0.397969 0 0.888889C0 1.37981 0.397969 1.77778 0.888889 1.77778Z" transform="matrix(-1 2.3849761E-08 -2.3849761E-08 -1 177.77777 195.77777)" id="Oval" fill="#9A9A9A" stroke="none" />
    <path d="M0.888889 1.77778C1.37981 1.77778 1.77778 1.37981 1.77778 0.888889C1.77778 0.397969 1.37981 0 0.888889 0C0.397969 0 0 0.397969 0 0.888889C0 1.37981 0.397969 1.77778 0.888889 1.77778Z" transform="matrix(-1 2.3849761E-08 -2.3849761E-08 -1 158.22221 195.77777)" id="Oval" fill="#9A9A9A" stroke="none" />
    <path d="M0.888889 1.77778C1.37981 1.77778 1.77778 1.37981 1.77778 0.888889C1.77778 0.397969 1.37981 0 0.888889 0C0.397969 0 0 0.397969 0 0.888889C0 1.37981 0.397969 1.77778 0.888889 1.77778Z" transform="matrix(-1 2.3849761E-08 -2.3849761E-08 -1 138.66666 195.77777)" id="Oval" fill="#9A9A9A" stroke="none" />
    <path d="M0.888889 1.77778C1.37981 1.77778 1.77778 1.37981 1.77778 0.888889C1.77778 0.397969 1.37981 0 0.888889 0C0.397969 0 0 0.397969 0 0.888889C0 1.37981 0.397969 1.77778 0.888889 1.77778Z" transform="matrix(-1 2.3849761E-08 -2.3849761E-08 -1 119.111115 195.77777)" id="Oval" fill="#9A9A9A" stroke="none" />
    <path d="M0.888889 1.77778C1.37981 1.77778 1.77778 1.37981 1.77778 0.888889C1.77778 0.397969 1.37981 0 0.888889 0C0.397969 0 0 0.397969 0 0.888889C0 1.37981 0.397969 1.77778 0.888889 1.77778Z" transform="matrix(-1 2.3849761E-08 -2.3849761E-08 -1 99.55556 195.77777)" id="Oval" fill="#9A9A9A" stroke="none" />
    <path d="M0.888889 1.77778C1.37981 1.77778 1.77778 1.37981 1.77778 0.888889C1.77778 0.397969 1.37981 0 0.888889 0C0.397969 0 0 0.397969 0 0.888889C0 1.37981 0.397969 1.77778 0.888889 1.77778Z" transform="matrix(-1 2.3849761E-08 -2.3849761E-08 -1 80 195.77777)" id="Oval" fill="#9A9A9A" stroke="none" />
    <path d="M0.888889 1.77778C1.37981 1.77778 1.77778 1.37981 1.77778 0.888889C1.77778 0.397969 1.37981 0 0.888889 0C0.397969 0 0 0.397969 0 0.888889C0 1.37981 0.397969 1.77778 0.888889 1.77778Z" transform="matrix(-1 2.3849761E-08 -2.3849761E-08 -1 60.444447 195.77777)" id="Oval" fill="#9A9A9A" stroke="none" />
    <path d="M0.888889 1.77778C1.37981 1.77778 1.77778 1.37981 1.77778 0.888889C1.77778 0.397969 1.37981 0 0.888889 0C0.397969 0 0 0.397969 0 0.888889C0 1.37981 0.397969 1.77778 0.888889 1.77778Z" transform="matrix(-1 2.3849761E-08 -2.3849761E-08 -1 40.88889 195.77777)" id="Oval" fill="#9A9A9A" stroke="none" />
    <path d="M0.888889 1.77778C1.37981 1.77778 1.77778 1.37981 1.77778 0.888889C1.77778 0.397969 1.37981 0 0.888889 0C0.397969 0 0 0.397969 0 0.888889C0 1.37981 0.397969 1.77778 0.888889 1.77778Z" transform="matrix(-1 2.3849761E-08 -2.3849761E-08 -1 21.333334 195.77777)" id="Oval" fill="#9A9A9A" stroke="none" />
    <path d="M0.888889 1.77778C1.37981 1.77778 1.77778 1.37981 1.77778 0.888889C1.77778 0.397969 1.37981 0 0.888889 0C0.397969 0 0 0.397969 0 0.888889C0 1.37981 0.397969 1.77778 0.888889 1.77778Z" transform="matrix(-1 2.3849761E-08 -2.3849761E-08 -1 1.7777778 195.77777)" id="Oval" fill="#9A9A9A" stroke="none" />
    <path d="M0.888889 1.77778C1.37981 1.77778 1.77778 1.37981 1.77778 0.888889C1.77778 0.397969 1.37981 0 0.888889 0C0.397969 0 0 0.397969 0 0.888889C0 1.37981 0.397969 1.77778 0.888889 1.77778Z" transform="matrix(-1 2.3849761E-08 -2.3849761E-08 -1 275.55554 176.22221)" id="Oval" fill="#9A9A9A" stroke="none" />
    <path d="M0.888889 1.77778C1.37981 1.77778 1.77778 1.37981 1.77778 0.888889C1.77778 0.397969 1.37981 0 0.888889 0C0.397969 0 0 0.397969 0 0.888889C0 1.37981 0.397969 1.77778 0.888889 1.77778Z" transform="matrix(-1 2.3849761E-08 -2.3849761E-08 -1 256 176.22221)" id="Oval" fill="#9A9A9A" stroke="none" />
    <path d="M0.888889 1.77778C1.37981 1.77778 1.77778 1.37981 1.77778 0.888889C1.77778 0.397969 1.37981 0 0.888889 0C0.397969 0 0 0.397969 0 0.888889C0 1.37981 0.397969 1.77778 0.888889 1.77778Z" transform="matrix(-1 2.3849761E-08 -2.3849761E-08 -1 236.44444 176.22221)" id="Oval" fill="#9A9A9A" stroke="none" />
    <path d="M0.888889 1.77778C1.37981 1.77778 1.77778 1.37981 1.77778 0.888889C1.77778 0.397969 1.37981 0 0.888889 0C0.397969 0 0 0.397969 0 0.888889C0 1.37981 0.397969 1.77778 0.888889 1.77778Z" transform="matrix(-1 2.3849761E-08 -2.3849761E-08 -1 216.88889 176.22221)" id="Oval" fill="#9A9A9A" stroke="none" />
    <path d="M0.888889 1.77778C1.37981 1.77778 1.77778 1.37981 1.77778 0.888889C1.77778 0.397969 1.37981 0 0.888889 0C0.397969 0 0 0.397969 0 0.888889C0 1.37981 0.397969 1.77778 0.888889 1.77778Z" transform="matrix(-1 2.3849761E-08 -2.3849761E-08 -1 197.33333 176.22221)" id="Oval" fill="#9A9A9A" stroke="none" />
    <path d="M0.888889 1.77778C1.37981 1.77778 1.77778 1.37981 1.77778 0.888889C1.77778 0.397969 1.37981 0 0.888889 0C0.397969 0 0 0.397969 0 0.888889C0 1.37981 0.397969 1.77778 0.888889 1.77778Z" transform="matrix(-1 2.3849761E-08 -2.3849761E-08 -1 177.77777 176.22221)" id="Oval" fill="#9A9A9A" stroke="none" />
    <path d="M0.888889 1.77778C1.37981 1.77778 1.77778 1.37981 1.77778 0.888889C1.77778 0.397969 1.37981 0 0.888889 0C0.397969 0 0 0.397969 0 0.888889C0 1.37981 0.397969 1.77778 0.888889 1.77778Z" transform="matrix(-1 2.3849761E-08 -2.3849761E-08 -1 158.22221 176.22221)" id="Oval" fill="#9A9A9A" stroke="none" />
    <path d="M0.888889 1.77778C1.37981 1.77778 1.77778 1.37981 1.77778 0.888889C1.77778 0.397969 1.37981 0 0.888889 0C0.397969 0 0 0.397969 0 0.888889C0 1.37981 0.397969 1.77778 0.888889 1.77778Z" transform="matrix(-1 2.3849761E-08 -2.3849761E-08 -1 138.66666 176.22221)" id="Oval" fill="#9A9A9A" stroke="none" />
    <path d="M0.888889 1.77778C1.37981 1.77778 1.77778 1.37981 1.77778 0.888889C1.77778 0.397969 1.37981 0 0.888889 0C0.397969 0 0 0.397969 0 0.888889C0 1.37981 0.397969 1.77778 0.888889 1.77778Z" transform="matrix(-1 2.3849761E-08 -2.3849761E-08 -1 119.111115 176.22221)" id="Oval" fill="#9A9A9A" stroke="none" />
    <path d="M0.888889 1.77778C1.37981 1.77778 1.77778 1.37981 1.77778 0.888889C1.77778 0.397969 1.37981 0 0.888889 0C0.397969 0 0 0.397969 0 0.888889C0 1.37981 0.397969 1.77778 0.888889 1.77778Z" transform="matrix(-1 2.3849761E-08 -2.3849761E-08 -1 99.55556 176.22221)" id="Oval" fill="#9A9A9A" stroke="none" />
    <path d="M0.888889 1.77778C1.37981 1.77778 1.77778 1.37981 1.77778 0.888889C1.77778 0.397969 1.37981 0 0.888889 0C0.397969 0 0 0.397969 0 0.888889C0 1.37981 0.397969 1.77778 0.888889 1.77778Z" transform="matrix(-1 2.3849761E-08 -2.3849761E-08 -1 80 176.22221)" id="Oval" fill="#9A9A9A" stroke="none" />
    <path d="M0.888889 1.77778C1.37981 1.77778 1.77778 1.37981 1.77778 0.888889C1.77778 0.397969 1.37981 0 0.888889 0C0.397969 0 0 0.397969 0 0.888889C0 1.37981 0.397969 1.77778 0.888889 1.77778Z" transform="matrix(-1 2.3849761E-08 -2.3849761E-08 -1 60.444447 176.22221)" id="Oval" fill="#9A9A9A" stroke="none" />
    <path d="M0.888889 1.77778C1.37981 1.77778 1.77778 1.37981 1.77778 0.888889C1.77778 0.397969 1.37981 0 0.888889 0C0.397969 0 0 0.397969 0 0.888889C0 1.37981 0.397969 1.77778 0.888889 1.77778Z" transform="matrix(-1 2.3849761E-08 -2.3849761E-08 -1 40.88889 176.22221)" id="Oval" fill="#9A9A9A" stroke="none" />
    <path d="M0.888889 1.77778C1.37981 1.77778 1.77778 1.37981 1.77778 0.888889C1.77778 0.397969 1.37981 0 0.888889 0C0.397969 0 0 0.397969 0 0.888889C0 1.37981 0.397969 1.77778 0.888889 1.77778Z" transform="matrix(-1 2.3849761E-08 -2.3849761E-08 -1 21.333334 176.22221)" id="Oval" fill="#9A9A9A" stroke="none" />
    <path d="M0.888889 1.77778C1.37981 1.77778 1.77778 1.37981 1.77778 0.888889C1.77778 0.397969 1.37981 0 0.888889 0C0.397969 0 0 0.397969 0 0.888889C0 1.37981 0.397969 1.77778 0.888889 1.77778Z" transform="matrix(-1 2.3849761E-08 -2.3849761E-08 -1 1.7777778 176.22221)" id="Oval" fill="#9A9A9A" stroke="none" />
    <path d="M0.888889 1.77778C1.37981 1.77778 1.77778 1.37981 1.77778 0.888889C1.77778 0.397969 1.37981 0 0.888889 0C0.397969 0 0 0.397969 0 0.888889C0 1.37981 0.397969 1.77778 0.888889 1.77778Z" transform="matrix(-1 2.3849761E-08 -2.3849761E-08 -1 275.55554 156.66666)" id="Oval" fill="#9A9A9A" stroke="none" />
    <path d="M0.888889 1.77778C1.37981 1.77778 1.77778 1.37981 1.77778 0.888889C1.77778 0.397969 1.37981 0 0.888889 0C0.397969 0 0 0.397969 0 0.888889C0 1.37981 0.397969 1.77778 0.888889 1.77778Z" transform="matrix(-1 2.3849761E-08 -2.3849761E-08 -1 256 156.66666)" id="Oval" fill="#9A9A9A" stroke="none" />
    <path d="M0.888889 1.77778C1.37981 1.77778 1.77778 1.37981 1.77778 0.888889C1.77778 0.397969 1.37981 0 0.888889 0C0.397969 0 0 0.397969 0 0.888889C0 1.37981 0.397969 1.77778 0.888889 1.77778Z" transform="matrix(-1 2.3849761E-08 -2.3849761E-08 -1 236.44444 156.66666)" id="Oval" fill="#9A9A9A" stroke="none" />
    <path d="M0.888889 1.77778C1.37981 1.77778 1.77778 1.37981 1.77778 0.888889C1.77778 0.397969 1.37981 0 0.888889 0C0.397969 0 0 0.397969 0 0.888889C0 1.37981 0.397969 1.77778 0.888889 1.77778Z" transform="matrix(-1 2.3849761E-08 -2.3849761E-08 -1 216.88889 156.66666)" id="Oval" fill="#9A9A9A" stroke="none" />
    <path d="M0.888889 1.77778C1.37981 1.77778 1.77778 1.37981 1.77778 0.888889C1.77778 0.397969 1.37981 0 0.888889 0C0.397969 0 0 0.397969 0 0.888889C0 1.37981 0.397969 1.77778 0.888889 1.77778Z" transform="matrix(-1 2.3849761E-08 -2.3849761E-08 -1 197.33333 156.66666)" id="Oval" fill="#9A9A9A" stroke="none" />
    <path d="M0.888889 1.77778C1.37981 1.77778 1.77778 1.37981 1.77778 0.888889C1.77778 0.397969 1.37981 0 0.888889 0C0.397969 0 0 0.397969 0 0.888889C0 1.37981 0.397969 1.77778 0.888889 1.77778Z" transform="matrix(-1 2.3849761E-08 -2.3849761E-08 -1 177.77777 156.66666)" id="Oval" fill="#9A9A9A" stroke="none" />
    <path d="M0.888889 1.77778C1.37981 1.77778 1.77778 1.37981 1.77778 0.888889C1.77778 0.397969 1.37981 0 0.888889 0C0.397969 0 0 0.397969 0 0.888889C0 1.37981 0.397969 1.77778 0.888889 1.77778Z" transform="matrix(-1 2.3849761E-08 -2.3849761E-08 -1 158.22221 156.66666)" id="Oval" fill="#9A9A9A" stroke="none" />
    <path d="M0.888889 1.77778C1.37981 1.77778 1.77778 1.37981 1.77778 0.888889C1.77778 0.397969 1.37981 0 0.888889 0C0.397969 0 0 0.397969 0 0.888889C0 1.37981 0.397969 1.77778 0.888889 1.77778Z" transform="matrix(-1 2.3849761E-08 -2.3849761E-08 -1 138.66666 156.66666)" id="Oval" fill="#9A9A9A" stroke="none" />
    <path d="M0.888889 1.77778C1.37981 1.77778 1.77778 1.37981 1.77778 0.888889C1.77778 0.397969 1.37981 0 0.888889 0C0.397969 0 0 0.397969 0 0.888889C0 1.37981 0.397969 1.77778 0.888889 1.77778Z" transform="matrix(-1 2.3849761E-08 -2.3849761E-08 -1 119.111115 156.66666)" id="Oval" fill="#9A9A9A" stroke="none" />
    <path d="M0.888889 1.77778C1.37981 1.77778 1.77778 1.37981 1.77778 0.888889C1.77778 0.397969 1.37981 0 0.888889 0C0.397969 0 0 0.397969 0 0.888889C0 1.37981 0.397969 1.77778 0.888889 1.77778Z" transform="matrix(-1 2.3849761E-08 -2.3849761E-08 -1 99.55556 156.66666)" id="Oval" fill="#9A9A9A" stroke="none" />
    <path d="M0.888889 1.77778C1.37981 1.77778 1.77778 1.37981 1.77778 0.888889C1.77778 0.397969 1.37981 0 0.888889 0C0.397969 0 0 0.397969 0 0.888889C0 1.37981 0.397969 1.77778 0.888889 1.77778Z" transform="matrix(-1 2.3849761E-08 -2.3849761E-08 -1 80 156.66666)" id="Oval" fill="#9A9A9A" stroke="none" />
    <path d="M0.888889 1.77778C1.37981 1.77778 1.77778 1.37981 1.77778 0.888889C1.77778 0.397969 1.37981 0 0.888889 0C0.397969 0 0 0.397969 0 0.888889C0 1.37981 0.397969 1.77778 0.888889 1.77778Z" transform="matrix(-1 2.3849761E-08 -2.3849761E-08 -1 60.444447 156.66666)" id="Oval" fill="#9A9A9A" stroke="none" />
    <path d="M0.888889 1.77778C1.37981 1.77778 1.77778 1.37981 1.77778 0.888889C1.77778 0.397969 1.37981 0 0.888889 0C0.397969 0 0 0.397969 0 0.888889C0 1.37981 0.397969 1.77778 0.888889 1.77778Z" transform="matrix(-1 2.3849761E-08 -2.3849761E-08 -1 40.88889 156.66666)" id="Oval" fill="#9A9A9A" stroke="none" />
    <path d="M0.888889 1.77778C1.37981 1.77778 1.77778 1.37981 1.77778 0.888889C1.77778 0.397969 1.37981 0 0.888889 0C0.397969 0 0 0.397969 0 0.888889C0 1.37981 0.397969 1.77778 0.888889 1.77778Z" transform="matrix(-1 2.3849761E-08 -2.3849761E-08 -1 21.333334 156.66666)" id="Oval" fill="#9A9A9A" stroke="none" />
    <path d="M0.888889 1.77778C1.37981 1.77778 1.77778 1.37981 1.77778 0.888889C1.77778 0.397969 1.37981 0 0.888889 0C0.397969 0 0 0.397969 0 0.888889C0 1.37981 0.397969 1.77778 0.888889 1.77778Z" transform="matrix(-1 2.3849761E-08 -2.3849761E-08 -1 1.7777778 156.66666)" id="Oval" fill="#9A9A9A" stroke="none" />
    <path d="M0.888889 1.77778C1.37981 1.77778 1.77778 1.37981 1.77778 0.888889C1.77778 0.397969 1.37981 0 0.888889 0C0.397969 0 0 0.397969 0 0.888889C0 1.37981 0.397969 1.77778 0.888889 1.77778Z" transform="matrix(-1 2.3849761E-08 -2.3849761E-08 -1 275.55554 137.1111)" id="Oval" fill="#9A9A9A" stroke="none" />
    <path d="M0.888889 1.77778C1.37981 1.77778 1.77778 1.37981 1.77778 0.888889C1.77778 0.397969 1.37981 0 0.888889 0C0.397969 0 0 0.397969 0 0.888889C0 1.37981 0.397969 1.77778 0.888889 1.77778Z" transform="matrix(-1 2.3849761E-08 -2.3849761E-08 -1 256 137.1111)" id="Oval" fill="#9A9A9A" stroke="none" />
    <path d="M0.888889 1.77778C1.37981 1.77778 1.77778 1.37981 1.77778 0.888889C1.77778 0.397969 1.37981 0 0.888889 0C0.397969 0 0 0.397969 0 0.888889C0 1.37981 0.397969 1.77778 0.888889 1.77778Z" transform="matrix(-1 2.3849761E-08 -2.3849761E-08 -1 236.44444 137.1111)" id="Oval" fill="#9A9A9A" stroke="none" />
    <path d="M0.888889 1.77778C1.37981 1.77778 1.77778 1.37981 1.77778 0.888889C1.77778 0.397969 1.37981 0 0.888889 0C0.397969 0 0 0.397969 0 0.888889C0 1.37981 0.397969 1.77778 0.888889 1.77778Z" transform="matrix(-1 2.3849761E-08 -2.3849761E-08 -1 216.88889 137.1111)" id="Oval" fill="#9A9A9A" stroke="none" />
    <path d="M0.888889 1.77778C1.37981 1.77778 1.77778 1.37981 1.77778 0.888889C1.77778 0.397969 1.37981 0 0.888889 0C0.397969 0 0 0.397969 0 0.888889C0 1.37981 0.397969 1.77778 0.888889 1.77778Z" transform="matrix(-1 2.3849761E-08 -2.3849761E-08 -1 197.33333 137.1111)" id="Oval" fill="#9A9A9A" stroke="none" />
    <path d="M0.888889 1.77778C1.37981 1.77778 1.77778 1.37981 1.77778 0.888889C1.77778 0.397969 1.37981 0 0.888889 0C0.397969 0 0 0.397969 0 0.888889C0 1.37981 0.397969 1.77778 0.888889 1.77778Z" transform="matrix(-1 2.3849761E-08 -2.3849761E-08 -1 177.77777 137.1111)" id="Oval" fill="#9A9A9A" stroke="none" />
    <path d="M0.888889 1.77778C1.37981 1.77778 1.77778 1.37981 1.77778 0.888889C1.77778 0.397969 1.37981 0 0.888889 0C0.397969 0 0 0.397969 0 0.888889C0 1.37981 0.397969 1.77778 0.888889 1.77778Z" transform="matrix(-1 2.3849761E-08 -2.3849761E-08 -1 158.22221 137.1111)" id="Oval" fill="#9A9A9A" stroke="none" />
    <path d="M0.888889 1.77778C1.37981 1.77778 1.77778 1.37981 1.77778 0.888889C1.77778 0.397969 1.37981 0 0.888889 0C0.397969 0 0 0.397969 0 0.888889C0 1.37981 0.397969 1.77778 0.888889 1.77778Z" transform="matrix(-1 2.3849761E-08 -2.3849761E-08 -1 138.66666 137.1111)" id="Oval" fill="#9A9A9A" stroke="none" />
    <path d="M0.888889 1.77778C1.37981 1.77778 1.77778 1.37981 1.77778 0.888889C1.77778 0.397969 1.37981 0 0.888889 0C0.397969 0 0 0.397969 0 0.888889C0 1.37981 0.397969 1.77778 0.888889 1.77778Z" transform="matrix(-1 2.3849761E-08 -2.3849761E-08 -1 119.111115 137.1111)" id="Oval" fill="#9A9A9A" stroke="none" />
    <path d="M0.888889 1.77778C1.37981 1.77778 1.77778 1.37981 1.77778 0.888889C1.77778 0.397969 1.37981 0 0.888889 0C0.397969 0 0 0.397969 0 0.888889C0 1.37981 0.397969 1.77778 0.888889 1.77778Z" transform="matrix(-1 2.3849761E-08 -2.3849761E-08 -1 99.55556 137.1111)" id="Oval" fill="#9A9A9A" stroke="none" />
    <path d="M0.888889 1.77778C1.37981 1.77778 1.77778 1.37981 1.77778 0.888889C1.77778 0.397969 1.37981 0 0.888889 0C0.397969 0 0 0.397969 0 0.888889C0 1.37981 0.397969 1.77778 0.888889 1.77778Z" transform="matrix(-1 2.3849761E-08 -2.3849761E-08 -1 80 137.1111)" id="Oval" fill="#9A9A9A" stroke="none" />
    <path d="M0.888889 1.77778C1.37981 1.77778 1.77778 1.37981 1.77778 0.888889C1.77778 0.397969 1.37981 0 0.888889 0C0.397969 0 0 0.397969 0 0.888889C0 1.37981 0.397969 1.77778 0.888889 1.77778Z" transform="matrix(-1 2.3849761E-08 -2.3849761E-08 -1 60.444447 137.1111)" id="Oval" fill="#9A9A9A" stroke="none" />
    <path d="M0.888889 1.77778C1.37981 1.77778 1.77778 1.37981 1.77778 0.888889C1.77778 0.397969 1.37981 0 0.888889 0C0.397969 0 0 0.397969 0 0.888889C0 1.37981 0.397969 1.77778 0.888889 1.77778Z" transform="matrix(-1 2.3849761E-08 -2.3849761E-08 -1 40.88889 137.1111)" id="Oval" fill="#9A9A9A" stroke="none" />
    <path d="M0.888889 1.77778C1.37981 1.77778 1.77778 1.37981 1.77778 0.888889C1.77778 0.397969 1.37981 0 0.888889 0C0.397969 0 0 0.397969 0 0.888889C0 1.37981 0.397969 1.77778 0.888889 1.77778Z" transform="matrix(-1 2.3849761E-08 -2.3849761E-08 -1 21.333334 137.1111)" id="Oval" fill="#9A9A9A" stroke="none" />
    <path d="M0.888889 1.77778C1.37981 1.77778 1.77778 1.37981 1.77778 0.888889C1.77778 0.397969 1.37981 0 0.888889 0C0.397969 0 0 0.397969 0 0.888889C0 1.37981 0.397969 1.77778 0.888889 1.77778Z" transform="matrix(-1 2.3849761E-08 -2.3849761E-08 -1 1.7777778 137.1111)" id="Oval" fill="#9A9A9A" stroke="none" />
    <path d="M0.888889 1.77778C1.37981 1.77778 1.77778 1.37981 1.77778 0.888889C1.77778 0.397969 1.37981 0 0.888889 0C0.397969 0 0 0.397969 0 0.888889C0 1.37981 0.397969 1.77778 0.888889 1.77778Z" transform="matrix(-1 2.3849761E-08 -2.3849761E-08 -1 275.55554 117.55556)" id="Oval" fill="#9A9A9A" stroke="none" />
    <path d="M0.888889 1.77778C1.37981 1.77778 1.77778 1.37981 1.77778 0.888889C1.77778 0.397969 1.37981 0 0.888889 0C0.397969 0 0 0.397969 0 0.888889C0 1.37981 0.397969 1.77778 0.888889 1.77778Z" transform="matrix(-1 2.3849761E-08 -2.3849761E-08 -1 256 117.55556)" id="Oval" fill="#9A9A9A" stroke="none" />
    <path d="M0.888889 1.77778C1.37981 1.77778 1.77778 1.37981 1.77778 0.888889C1.77778 0.397969 1.37981 0 0.888889 0C0.397969 0 0 0.397969 0 0.888889C0 1.37981 0.397969 1.77778 0.888889 1.77778Z" transform="matrix(-1 2.3849761E-08 -2.3849761E-08 -1 236.44444 117.55556)" id="Oval" fill="#9A9A9A" stroke="none" />
    <path d="M0.888889 1.77778C1.37981 1.77778 1.77778 1.37981 1.77778 0.888889C1.77778 0.397969 1.37981 0 0.888889 0C0.397969 0 0 0.397969 0 0.888889C0 1.37981 0.397969 1.77778 0.888889 1.77778Z" transform="matrix(-1 2.3849761E-08 -2.3849761E-08 -1 216.88889 117.55556)" id="Oval" fill="#9A9A9A" stroke="none" />
    <path d="M0.888889 1.77778C1.37981 1.77778 1.77778 1.37981 1.77778 0.888889C1.77778 0.397969 1.37981 0 0.888889 0C0.397969 0 0 0.397969 0 0.888889C0 1.37981 0.397969 1.77778 0.888889 1.77778Z" transform="matrix(-1 2.3849761E-08 -2.3849761E-08 -1 197.33333 117.55556)" id="Oval" fill="#9A9A9A" stroke="none" />
    <path d="M0.888889 1.77778C1.37981 1.77778 1.77778 1.37981 1.77778 0.888889C1.77778 0.397969 1.37981 0 0.888889 0C0.397969 0 0 0.397969 0 0.888889C0 1.37981 0.397969 1.77778 0.888889 1.77778Z" transform="matrix(-1 2.3849761E-08 -2.3849761E-08 -1 177.77777 117.55556)" id="Oval" fill="#9A9A9A" stroke="none" />
    <path d="M0.888889 1.77778C1.37981 1.77778 1.77778 1.37981 1.77778 0.888889C1.77778 0.397969 1.37981 0 0.888889 0C0.397969 0 0 0.397969 0 0.888889C0 1.37981 0.397969 1.77778 0.888889 1.77778Z" transform="matrix(-1 2.3849761E-08 -2.3849761E-08 -1 158.22221 117.55556)" id="Oval" fill="#9A9A9A" stroke="none" />
    <path d="M0.888889 1.77778C1.37981 1.77778 1.77778 1.37981 1.77778 0.888889C1.77778 0.397969 1.37981 0 0.888889 0C0.397969 0 0 0.397969 0 0.888889C0 1.37981 0.397969 1.77778 0.888889 1.77778Z" transform="matrix(-1 2.3849761E-08 -2.3849761E-08 -1 138.66666 117.55556)" id="Oval" fill="#9A9A9A" stroke="none" />
    <path d="M0.888889 1.77778C1.37981 1.77778 1.77778 1.37981 1.77778 0.888889C1.77778 0.397969 1.37981 0 0.888889 0C0.397969 0 0 0.397969 0 0.888889C0 1.37981 0.397969 1.77778 0.888889 1.77778Z" transform="matrix(-1 2.3849761E-08 -2.3849761E-08 -1 119.111115 117.55556)" id="Oval" fill="#9A9A9A" stroke="none" />
    <path d="M0.888889 1.77778C1.37981 1.77778 1.77778 1.37981 1.77778 0.888889C1.77778 0.397969 1.37981 0 0.888889 0C0.397969 0 0 0.397969 0 0.888889C0 1.37981 0.397969 1.77778 0.888889 1.77778Z" transform="matrix(-1 2.3849761E-08 -2.3849761E-08 -1 99.55556 117.55556)" id="Oval" fill="#9A9A9A" stroke="none" />
    <path d="M0.888889 1.77778C1.37981 1.77778 1.77778 1.37981 1.77778 0.888889C1.77778 0.397969 1.37981 0 0.888889 0C0.397969 0 0 0.397969 0 0.888889C0 1.37981 0.397969 1.77778 0.888889 1.77778Z" transform="matrix(-1 2.3849761E-08 -2.3849761E-08 -1 80 117.55556)" id="Oval" fill="#9A9A9A" stroke="none" />
    <path d="M0.888889 1.77778C1.37981 1.77778 1.77778 1.37981 1.77778 0.888889C1.77778 0.397969 1.37981 0 0.888889 0C0.397969 0 0 0.397969 0 0.888889C0 1.37981 0.397969 1.77778 0.888889 1.77778Z" transform="matrix(-1 2.3849761E-08 -2.3849761E-08 -1 60.444447 117.55556)" id="Oval" fill="#9A9A9A" stroke="none" />
    <path d="M0.888889 1.77778C1.37981 1.77778 1.77778 1.37981 1.77778 0.888889C1.77778 0.397969 1.37981 0 0.888889 0C0.397969 0 0 0.397969 0 0.888889C0 1.37981 0.397969 1.77778 0.888889 1.77778Z" transform="matrix(-1 2.3849761E-08 -2.3849761E-08 -1 40.88889 117.55556)" id="Oval" fill="#9A9A9A" stroke="none" />
    <path d="M0.888889 1.77778C1.37981 1.77778 1.77778 1.37981 1.77778 0.888889C1.77778 0.397969 1.37981 0 0.888889 0C0.397969 0 0 0.397969 0 0.888889C0 1.37981 0.397969 1.77778 0.888889 1.77778Z" transform="matrix(-1 2.3849761E-08 -2.3849761E-08 -1 21.333334 117.55556)" id="Oval" fill="#9A9A9A" stroke="none" />
    <path d="M0.888889 1.77778C1.37981 1.77778 1.77778 1.37981 1.77778 0.888889C1.77778 0.397969 1.37981 0 0.888889 0C0.397969 0 0 0.397969 0 0.888889C0 1.37981 0.397969 1.77778 0.888889 1.77778Z" transform="matrix(-1 2.3849761E-08 -2.3849761E-08 -1 1.7777778 117.55556)" id="Oval" fill="#9A9A9A" stroke="none" />
    <path d="M0.888889 1.77778C1.37981 1.77778 1.77778 1.37981 1.77778 0.888889C1.77778 0.397969 1.37981 0 0.888889 0C0.397969 0 0 0.397969 0 0.888889C0 1.37981 0.397969 1.77778 0.888889 1.77778Z" transform="matrix(-1 2.3849761E-08 -2.3849761E-08 -1 275.55554 98)" id="Oval" fill="#9A9A9A" stroke="none" />
    <path d="M0.888889 1.77778C1.37981 1.77778 1.77778 1.37981 1.77778 0.888889C1.77778 0.397969 1.37981 0 0.888889 0C0.397969 0 0 0.397969 0 0.888889C0 1.37981 0.397969 1.77778 0.888889 1.77778Z" transform="matrix(-1 2.3849761E-08 -2.3849761E-08 -1 256 98)" id="Oval" fill="#9A9A9A" stroke="none" />
    <path d="M0.888889 1.77778C1.37981 1.77778 1.77778 1.37981 1.77778 0.888889C1.77778 0.397969 1.37981 0 0.888889 0C0.397969 0 0 0.397969 0 0.888889C0 1.37981 0.397969 1.77778 0.888889 1.77778Z" transform="matrix(-1 2.3849761E-08 -2.3849761E-08 -1 236.44444 98)" id="Oval" fill="#9A9A9A" stroke="none" />
    <path d="M0.888889 1.77778C1.37981 1.77778 1.77778 1.37981 1.77778 0.888889C1.77778 0.397969 1.37981 0 0.888889 0C0.397969 0 0 0.397969 0 0.888889C0 1.37981 0.397969 1.77778 0.888889 1.77778Z" transform="matrix(-1 2.3849761E-08 -2.3849761E-08 -1 216.88889 98)" id="Oval" fill="#9A9A9A" stroke="none" />
    <path d="M0.888889 1.77778C1.37981 1.77778 1.77778 1.37981 1.77778 0.888889C1.77778 0.397969 1.37981 0 0.888889 0C0.397969 0 0 0.397969 0 0.888889C0 1.37981 0.397969 1.77778 0.888889 1.77778Z" transform="matrix(-1 2.3849761E-08 -2.3849761E-08 -1 197.33333 98)" id="Oval" fill="#9A9A9A" stroke="none" />
    <path d="M0.888889 1.77778C1.37981 1.77778 1.77778 1.37981 1.77778 0.888889C1.77778 0.397969 1.37981 0 0.888889 0C0.397969 0 0 0.397969 0 0.888889C0 1.37981 0.397969 1.77778 0.888889 1.77778Z" transform="matrix(-1 2.3849761E-08 -2.3849761E-08 -1 177.77777 98)" id="Oval" fill="#9A9A9A" stroke="none" />
    <path d="M0.888889 1.77778C1.37981 1.77778 1.77778 1.37981 1.77778 0.888889C1.77778 0.397969 1.37981 0 0.888889 0C0.397969 0 0 0.397969 0 0.888889C0 1.37981 0.397969 1.77778 0.888889 1.77778Z" transform="matrix(-1 2.3849761E-08 -2.3849761E-08 -1 158.22221 98)" id="Oval" fill="#9A9A9A" stroke="none" />
    <path d="M0.888889 1.77778C1.37981 1.77778 1.77778 1.37981 1.77778 0.888889C1.77778 0.397969 1.37981 0 0.888889 0C0.397969 0 0 0.397969 0 0.888889C0 1.37981 0.397969 1.77778 0.888889 1.77778Z" transform="matrix(-1 2.3849761E-08 -2.3849761E-08 -1 138.66666 98)" id="Oval" fill="#9A9A9A" stroke="none" />
    <path d="M0.888889 1.77778C1.37981 1.77778 1.77778 1.37981 1.77778 0.888889C1.77778 0.397969 1.37981 0 0.888889 0C0.397969 0 0 0.397969 0 0.888889C0 1.37981 0.397969 1.77778 0.888889 1.77778Z" transform="matrix(-1 2.3849761E-08 -2.3849761E-08 -1 119.111115 98)" id="Oval" fill="#9A9A9A" stroke="none" />
    <path d="M0.888889 1.77778C1.37981 1.77778 1.77778 1.37981 1.77778 0.888889C1.77778 0.397969 1.37981 0 0.888889 0C0.397969 0 0 0.397969 0 0.888889C0 1.37981 0.397969 1.77778 0.888889 1.77778Z" transform="matrix(-1 2.3849761E-08 -2.3849761E-08 -1 99.55556 98)" id="Oval" fill="#9A9A9A" stroke="none" />
    <path d="M0.888889 1.77778C1.37981 1.77778 1.77778 1.37981 1.77778 0.888889C1.77778 0.397969 1.37981 0 0.888889 0C0.397969 0 0 0.397969 0 0.888889C0 1.37981 0.397969 1.77778 0.888889 1.77778Z" transform="matrix(-1 2.3849761E-08 -2.3849761E-08 -1 80 98)" id="Oval" fill="#9A9A9A" stroke="none" />
    <path d="M0.888889 1.77778C1.37981 1.77778 1.77778 1.37981 1.77778 0.888889C1.77778 0.397969 1.37981 0 0.888889 0C0.397969 0 0 0.397969 0 0.888889C0 1.37981 0.397969 1.77778 0.888889 1.77778Z" transform="matrix(-1 2.3849761E-08 -2.3849761E-08 -1 60.444447 98)" id="Oval" fill="#9A9A9A" stroke="none" />
    <path d="M0.888889 1.77778C1.37981 1.77778 1.77778 1.37981 1.77778 0.888889C1.77778 0.397969 1.37981 0 0.888889 0C0.397969 0 0 0.397969 0 0.888889C0 1.37981 0.397969 1.77778 0.888889 1.77778Z" transform="matrix(-1 2.3849761E-08 -2.3849761E-08 -1 40.88889 98)" id="Oval" fill="#9A9A9A" stroke="none" />
    <path d="M0.888889 1.77778C1.37981 1.77778 1.77778 1.37981 1.77778 0.888889C1.77778 0.397969 1.37981 0 0.888889 0C0.397969 0 0 0.397969 0 0.888889C0 1.37981 0.397969 1.77778 0.888889 1.77778Z" transform="matrix(-1 2.3849761E-08 -2.3849761E-08 -1 21.333334 98)" id="Oval" fill="#9A9A9A" stroke="none" />
    <path d="M0.888889 1.77778C1.37981 1.77778 1.77778 1.37981 1.77778 0.888889C1.77778 0.397969 1.37981 0 0.888889 0C0.397969 0 0 0.397969 0 0.888889C0 1.37981 0.397969 1.77778 0.888889 1.77778Z" transform="matrix(-1 2.3849761E-08 -2.3849761E-08 -1 1.7777778 98)" id="Oval" fill="#9A9A9A" stroke="none" />
    <path d="M0.888889 1.77778C1.37981 1.77778 1.77778 1.37981 1.77778 0.888889C1.77778 0.397969 1.37981 0 0.888889 0C0.397969 0 0 0.397969 0 0.888889C0 1.37981 0.397969 1.77778 0.888889 1.77778Z" transform="matrix(-1 2.3849761E-08 -2.3849761E-08 -1 275.55554 78.44444)" id="Oval" fill="#9A9A9A" stroke="none" />
    <path d="M0.888889 1.77778C1.37981 1.77778 1.77778 1.37981 1.77778 0.888889C1.77778 0.397969 1.37981 0 0.888889 0C0.397969 0 0 0.397969 0 0.888889C0 1.37981 0.397969 1.77778 0.888889 1.77778Z" transform="matrix(-1 2.3849761E-08 -2.3849761E-08 -1 256 78.44444)" id="Oval" fill="#9A9A9A" stroke="none" />
    <path d="M0.888889 1.77778C1.37981 1.77778 1.77778 1.37981 1.77778 0.888889C1.77778 0.397969 1.37981 0 0.888889 0C0.397969 0 0 0.397969 0 0.888889C0 1.37981 0.397969 1.77778 0.888889 1.77778Z" transform="matrix(-1 2.3849761E-08 -2.3849761E-08 -1 236.44444 78.44444)" id="Oval" fill="#9A9A9A" stroke="none" />
    <path d="M0.888889 1.77778C1.37981 1.77778 1.77778 1.37981 1.77778 0.888889C1.77778 0.397969 1.37981 0 0.888889 0C0.397969 0 0 0.397969 0 0.888889C0 1.37981 0.397969 1.77778 0.888889 1.77778Z" transform="matrix(-1 2.3849761E-08 -2.3849761E-08 -1 216.88889 78.44444)" id="Oval" fill="#9A9A9A" stroke="none" />
    <path d="M0.888889 1.77778C1.37981 1.77778 1.77778 1.37981 1.77778 0.888889C1.77778 0.397969 1.37981 0 0.888889 0C0.397969 0 0 0.397969 0 0.888889C0 1.37981 0.397969 1.77778 0.888889 1.77778Z" transform="matrix(-1 2.3849761E-08 -2.3849761E-08 -1 197.33333 78.44444)" id="Oval" fill="#9A9A9A" stroke="none" />
    <path d="M0.888889 1.77778C1.37981 1.77778 1.77778 1.37981 1.77778 0.888889C1.77778 0.397969 1.37981 0 0.888889 0C0.397969 0 0 0.397969 0 0.888889C0 1.37981 0.397969 1.77778 0.888889 1.77778Z" transform="matrix(-1 2.3849761E-08 -2.3849761E-08 -1 177.77777 78.44444)" id="Oval" fill="#9A9A9A" stroke="none" />
    <path d="M0.888889 1.77778C1.37981 1.77778 1.77778 1.37981 1.77778 0.888889C1.77778 0.397969 1.37981 0 0.888889 0C0.397969 0 0 0.397969 0 0.888889C0 1.37981 0.397969 1.77778 0.888889 1.77778Z" transform="matrix(-1 2.3849761E-08 -2.3849761E-08 -1 158.22221 78.44444)" id="Oval" fill="#9A9A9A" stroke="none" />
    <path d="M0.888889 1.77778C1.37981 1.77778 1.77778 1.37981 1.77778 0.888889C1.77778 0.397969 1.37981 0 0.888889 0C0.397969 0 0 0.397969 0 0.888889C0 1.37981 0.397969 1.77778 0.888889 1.77778Z" transform="matrix(-1 2.3849761E-08 -2.3849761E-08 -1 138.66666 78.44444)" id="Oval" fill="#9A9A9A" stroke="none" />
    <path d="M0.888889 1.77778C1.37981 1.77778 1.77778 1.37981 1.77778 0.888889C1.77778 0.397969 1.37981 0 0.888889 0C0.397969 0 0 0.397969 0 0.888889C0 1.37981 0.397969 1.77778 0.888889 1.77778Z" transform="matrix(-1 2.3849761E-08 -2.3849761E-08 -1 119.111115 78.44444)" id="Oval" fill="#9A9A9A" stroke="none" />
    <path d="M0.888889 1.77778C1.37981 1.77778 1.77778 1.37981 1.77778 0.888889C1.77778 0.397969 1.37981 0 0.888889 0C0.397969 0 0 0.397969 0 0.888889C0 1.37981 0.397969 1.77778 0.888889 1.77778Z" transform="matrix(-1 2.3849761E-08 -2.3849761E-08 -1 99.55556 78.44444)" id="Oval" fill="#9A9A9A" stroke="none" />
    <path d="M0.888889 1.77778C1.37981 1.77778 1.77778 1.37981 1.77778 0.888889C1.77778 0.397969 1.37981 0 0.888889 0C0.397969 0 0 0.397969 0 0.888889C0 1.37981 0.397969 1.77778 0.888889 1.77778Z" transform="matrix(-1 2.3849761E-08 -2.3849761E-08 -1 80 78.44444)" id="Oval" fill="#9A9A9A" stroke="none" />
    <path d="M0.888889 1.77778C1.37981 1.77778 1.77778 1.37981 1.77778 0.888889C1.77778 0.397969 1.37981 0 0.888889 0C0.397969 0 0 0.397969 0 0.888889C0 1.37981 0.397969 1.77778 0.888889 1.77778Z" transform="matrix(-1 2.3849761E-08 -2.3849761E-08 -1 60.444447 78.44444)" id="Oval" fill="#9A9A9A" stroke="none" />
    <path d="M0.888889 1.77778C1.37981 1.77778 1.77778 1.37981 1.77778 0.888889C1.77778 0.397969 1.37981 0 0.888889 0C0.397969 0 0 0.397969 0 0.888889C0 1.37981 0.397969 1.77778 0.888889 1.77778Z" transform="matrix(-1 2.3849761E-08 -2.3849761E-08 -1 40.88889 78.44444)" id="Oval" fill="#9A9A9A" stroke="none" />
    <path d="M0.888889 1.77778C1.37981 1.77778 1.77778 1.37981 1.77778 0.888889C1.77778 0.397969 1.37981 0 0.888889 0C0.397969 0 0 0.397969 0 0.888889C0 1.37981 0.397969 1.77778 0.888889 1.77778Z" transform="matrix(-1 2.3849761E-08 -2.3849761E-08 -1 21.333334 78.44444)" id="Oval" fill="#9A9A9A" stroke="none" />
    <path d="M0.888889 1.77778C1.37981 1.77778 1.77778 1.37981 1.77778 0.888889C1.77778 0.397969 1.37981 0 0.888889 0C0.397969 0 0 0.397969 0 0.888889C0 1.37981 0.397969 1.77778 0.888889 1.77778Z" transform="matrix(-1 2.3849761E-08 -2.3849761E-08 -1 1.7777778 78.44444)" id="Oval" fill="#9A9A9A" stroke="none" />
    <path d="M0.888889 1.77778C1.37981 1.77778 1.77778 1.37981 1.77778 0.888889C1.77778 0.397969 1.37981 0 0.888889 0C0.397969 0 0 0.397969 0 0.888889C0 1.37981 0.397969 1.77778 0.888889 1.77778Z" transform="matrix(-1 2.3849761E-08 -2.3849761E-08 -1 275.55554 60.666668)" id="Oval" fill="#9A9A9A" stroke="none" />
    <path d="M0.888889 1.77778C1.37981 1.77778 1.77778 1.37981 1.77778 0.888889C1.77778 0.397969 1.37981 0 0.888889 0C0.397969 0 0 0.397969 0 0.888889C0 1.37981 0.397969 1.77778 0.888889 1.77778Z" transform="matrix(-1 2.3849761E-08 -2.3849761E-08 -1 256 60.666668)" id="Oval" fill="#9A9A9A" stroke="none" />
    <path d="M0.888889 1.77778C1.37981 1.77778 1.77778 1.37981 1.77778 0.888889C1.77778 0.397969 1.37981 0 0.888889 0C0.397969 0 0 0.397969 0 0.888889C0 1.37981 0.397969 1.77778 0.888889 1.77778Z" transform="matrix(-1 2.3849761E-08 -2.3849761E-08 -1 236.44444 60.666668)" id="Oval" fill="#9A9A9A" stroke="none" />
    <path d="M0.888889 1.77778C1.37981 1.77778 1.77778 1.37981 1.77778 0.888889C1.77778 0.397969 1.37981 0 0.888889 0C0.397969 0 0 0.397969 0 0.888889C0 1.37981 0.397969 1.77778 0.888889 1.77778Z" transform="matrix(-1 2.3849761E-08 -2.3849761E-08 -1 216.88889 60.666668)" id="Oval" fill="#9A9A9A" stroke="none" />
    <path d="M0.888889 1.77778C1.37981 1.77778 1.77778 1.37981 1.77778 0.888889C1.77778 0.397969 1.37981 0 0.888889 0C0.397969 0 0 0.397969 0 0.888889C0 1.37981 0.397969 1.77778 0.888889 1.77778Z" transform="matrix(-1 2.3849761E-08 -2.3849761E-08 -1 197.33333 60.666668)" id="Oval" fill="#9A9A9A" stroke="none" />
    <path d="M0.888889 1.77778C1.37981 1.77778 1.77778 1.37981 1.77778 0.888889C1.77778 0.397969 1.37981 0 0.888889 0C0.397969 0 0 0.397969 0 0.888889C0 1.37981 0.397969 1.77778 0.888889 1.77778Z" transform="matrix(-1 2.3849761E-08 -2.3849761E-08 -1 177.77777 60.666668)" id="Oval" fill="#9A9A9A" stroke="none" />
    <path d="M0.888889 1.77778C1.37981 1.77778 1.77778 1.37981 1.77778 0.888889C1.77778 0.397969 1.37981 0 0.888889 0C0.397969 0 0 0.397969 0 0.888889C0 1.37981 0.397969 1.77778 0.888889 1.77778Z" transform="matrix(-1 2.3849761E-08 -2.3849761E-08 -1 158.22221 60.666668)" id="Oval" fill="#9A9A9A" stroke="none" />
    <path d="M0.888889 1.77778C1.37981 1.77778 1.77778 1.37981 1.77778 0.888889C1.77778 0.397969 1.37981 0 0.888889 0C0.397969 0 0 0.397969 0 0.888889C0 1.37981 0.397969 1.77778 0.888889 1.77778Z" transform="matrix(-1 2.3849761E-08 -2.3849761E-08 -1 138.66666 60.666668)" id="Oval" fill="#9A9A9A" stroke="none" />
    <path d="M0.888889 1.77778C1.37981 1.77778 1.77778 1.37981 1.77778 0.888889C1.77778 0.397969 1.37981 0 0.888889 0C0.397969 0 0 0.397969 0 0.888889C0 1.37981 0.397969 1.77778 0.888889 1.77778Z" transform="matrix(-1 2.3849761E-08 -2.3849761E-08 -1 119.111115 60.666668)" id="Oval" fill="#9A9A9A" stroke="none" />
    <path d="M0.888889 1.77778C1.37981 1.77778 1.77778 1.37981 1.77778 0.888889C1.77778 0.397969 1.37981 0 0.888889 0C0.397969 0 0 0.397969 0 0.888889C0 1.37981 0.397969 1.77778 0.888889 1.77778Z" transform="matrix(-1 2.3849761E-08 -2.3849761E-08 -1 99.55556 60.666668)" id="Oval" fill="#9A9A9A" stroke="none" />
    <path d="M0.888889 1.77778C1.37981 1.77778 1.77778 1.37981 1.77778 0.888889C1.77778 0.397969 1.37981 0 0.888889 0C0.397969 0 0 0.397969 0 0.888889C0 1.37981 0.397969 1.77778 0.888889 1.77778Z" transform="matrix(-1 2.3849761E-08 -2.3849761E-08 -1 80 60.666668)" id="Oval" fill="#9A9A9A" stroke="none" />
    <path d="M0.888889 1.77778C1.37981 1.77778 1.77778 1.37981 1.77778 0.888889C1.77778 0.397969 1.37981 0 0.888889 0C0.397969 0 0 0.397969 0 0.888889C0 1.37981 0.397969 1.77778 0.888889 1.77778Z" transform="matrix(-1 2.3849761E-08 -2.3849761E-08 -1 60.444447 60.666668)" id="Oval" fill="#9A9A9A" stroke="none" />
    <path d="M0.888889 1.77778C1.37981 1.77778 1.77778 1.37981 1.77778 0.888889C1.77778 0.397969 1.37981 0 0.888889 0C0.397969 0 0 0.397969 0 0.888889C0 1.37981 0.397969 1.77778 0.888889 1.77778Z" transform="matrix(-1 2.3849761E-08 -2.3849761E-08 -1 40.88889 60.666668)" id="Oval" fill="#9A9A9A" stroke="none" />
    <path d="M0.888889 1.77778C1.37981 1.77778 1.77778 1.37981 1.77778 0.888889C1.77778 0.397969 1.37981 0 0.888889 0C0.397969 0 0 0.397969 0 0.888889C0 1.37981 0.397969 1.77778 0.888889 1.77778Z" transform="matrix(-1 2.3849761E-08 -2.3849761E-08 -1 21.333334 60.666668)" id="Oval" fill="#9A9A9A" stroke="none" />
    <path d="M0.888889 1.77778C1.37981 1.77778 1.77778 1.37981 1.77778 0.888889C1.77778 0.397969 1.37981 0 0.888889 0C0.397969 0 0 0.397969 0 0.888889C0 1.37981 0.397969 1.77778 0.888889 1.77778Z" transform="matrix(-1 2.3849761E-08 -2.3849761E-08 -1 1.7777778 60.666668)" id="Oval" fill="#9A9A9A" stroke="none" />
    <path d="M0.888889 1.77778C1.37981 1.77778 1.77778 1.37981 1.77778 0.888889C1.77778 0.397969 1.37981 0 0.888889 0C0.397969 0 0 0.397969 0 0.888889C0 1.37981 0.397969 1.77778 0.888889 1.77778Z" transform="matrix(-1 2.3849761E-08 -2.3849761E-08 -1 275.55554 41.11111)" id="Oval" fill="#9A9A9A" stroke="none" />
    <path d="M0.888889 1.77778C1.37981 1.77778 1.77778 1.37981 1.77778 0.888889C1.77778 0.397969 1.37981 0 0.888889 0C0.397969 0 0 0.397969 0 0.888889C0 1.37981 0.397969 1.77778 0.888889 1.77778Z" transform="matrix(-1 2.3849761E-08 -2.3849761E-08 -1 256 41.11111)" id="Oval" fill="#9A9A9A" stroke="none" />
    <path d="M0.888889 1.77778C1.37981 1.77778 1.77778 1.37981 1.77778 0.888889C1.77778 0.397969 1.37981 0 0.888889 0C0.397969 0 0 0.397969 0 0.888889C0 1.37981 0.397969 1.77778 0.888889 1.77778Z" transform="matrix(-1 2.3849761E-08 -2.3849761E-08 -1 236.44444 41.11111)" id="Oval" fill="#9A9A9A" stroke="none" />
    <path d="M0.888889 1.77778C1.37981 1.77778 1.77778 1.37981 1.77778 0.888889C1.77778 0.397969 1.37981 0 0.888889 0C0.397969 0 0 0.397969 0 0.888889C0 1.37981 0.397969 1.77778 0.888889 1.77778Z" transform="matrix(-1 2.3849761E-08 -2.3849761E-08 -1 216.88889 41.11111)" id="Oval" fill="#9A9A9A" stroke="none" />
    <path d="M0.888889 1.77778C1.37981 1.77778 1.77778 1.37981 1.77778 0.888889C1.77778 0.397969 1.37981 0 0.888889 0C0.397969 0 0 0.397969 0 0.888889C0 1.37981 0.397969 1.77778 0.888889 1.77778Z" transform="matrix(-1 2.3849761E-08 -2.3849761E-08 -1 197.33333 41.11111)" id="Oval" fill="#9A9A9A" stroke="none" />
    <path d="M0.888889 1.77778C1.37981 1.77778 1.77778 1.37981 1.77778 0.888889C1.77778 0.397969 1.37981 0 0.888889 0C0.397969 0 0 0.397969 0 0.888889C0 1.37981 0.397969 1.77778 0.888889 1.77778Z" transform="matrix(-1 2.3849761E-08 -2.3849761E-08 -1 177.77777 41.11111)" id="Oval" fill="#9A9A9A" stroke="none" />
    <path d="M0.888889 1.77778C1.37981 1.77778 1.77778 1.37981 1.77778 0.888889C1.77778 0.397969 1.37981 0 0.888889 0C0.397969 0 0 0.397969 0 0.888889C0 1.37981 0.397969 1.77778 0.888889 1.77778Z" transform="matrix(-1 2.3849761E-08 -2.3849761E-08 -1 158.22221 41.11111)" id="Oval" fill="#9A9A9A" stroke="none" />
    <path d="M0.888889 1.77778C1.37981 1.77778 1.77778 1.37981 1.77778 0.888889C1.77778 0.397969 1.37981 0 0.888889 0C0.397969 0 0 0.397969 0 0.888889C0 1.37981 0.397969 1.77778 0.888889 1.77778Z" transform="matrix(-1 2.3849761E-08 -2.3849761E-08 -1 138.66666 41.11111)" id="Oval" fill="#9A9A9A" stroke="none" />
    <path d="M0.888889 1.77778C1.37981 1.77778 1.77778 1.37981 1.77778 0.888889C1.77778 0.397969 1.37981 0 0.888889 0C0.397969 0 0 0.397969 0 0.888889C0 1.37981 0.397969 1.77778 0.888889 1.77778Z" transform="matrix(-1 2.3849761E-08 -2.3849761E-08 -1 119.111115 41.11111)" id="Oval" fill="#9A9A9A" stroke="none" />
    <path d="M0.888889 1.77778C1.37981 1.77778 1.77778 1.37981 1.77778 0.888889C1.77778 0.397969 1.37981 0 0.888889 0C0.397969 0 0 0.397969 0 0.888889C0 1.37981 0.397969 1.77778 0.888889 1.77778Z" transform="matrix(-1 2.3849761E-08 -2.3849761E-08 -1 99.55556 41.11111)" id="Oval" fill="#9A9A9A" stroke="none" />
    <path d="M0.888889 1.77778C1.37981 1.77778 1.77778 1.37981 1.77778 0.888889C1.77778 0.397969 1.37981 0 0.888889 0C0.397969 0 0 0.397969 0 0.888889C0 1.37981 0.397969 1.77778 0.888889 1.77778Z" transform="matrix(-1 2.3849761E-08 -2.3849761E-08 -1 80 41.11111)" id="Oval" fill="#9A9A9A" stroke="none" />
    <path d="M0.888889 1.77778C1.37981 1.77778 1.77778 1.37981 1.77778 0.888889C1.77778 0.397969 1.37981 0 0.888889 0C0.397969 0 0 0.397969 0 0.888889C0 1.37981 0.397969 1.77778 0.888889 1.77778Z" transform="matrix(-1 2.3849761E-08 -2.3849761E-08 -1 60.444447 41.11111)" id="Oval" fill="#9A9A9A" stroke="none" />
    <path d="M0.888889 1.77778C1.37981 1.77778 1.77778 1.37981 1.77778 0.888889C1.77778 0.397969 1.37981 0 0.888889 0C0.397969 0 0 0.397969 0 0.888889C0 1.37981 0.397969 1.77778 0.888889 1.77778Z" transform="matrix(-1 2.3849761E-08 -2.3849761E-08 -1 40.88889 41.11111)" id="Oval" fill="#9A9A9A" stroke="none" />
    <path d="M0.888889 1.77778C1.37981 1.77778 1.77778 1.37981 1.77778 0.888889C1.77778 0.397969 1.37981 0 0.888889 0C0.397969 0 0 0.397969 0 0.888889C0 1.37981 0.397969 1.77778 0.888889 1.77778Z" transform="matrix(-1 2.3849761E-08 -2.3849761E-08 -1 21.333334 41.11111)" id="Oval" fill="#9A9A9A" stroke="none" />
    <path d="M0.888889 1.77778C1.37981 1.77778 1.77778 1.37981 1.77778 0.888889C1.77778 0.397969 1.37981 0 0.888889 0C0.397969 0 0 0.397969 0 0.888889C0 1.37981 0.397969 1.77778 0.888889 1.77778Z" transform="matrix(-1 2.3849761E-08 -2.3849761E-08 -1 1.7777778 41.11111)" id="Oval" fill="#9A9A9A" stroke="none" />
    <path d="M0.888889 1.77778C1.37981 1.77778 1.77778 1.37981 1.77778 0.888889C1.77778 0.397969 1.37981 0 0.888889 0C0.397969 0 0 0.397969 0 0.888889C0 1.37981 0.397969 1.77778 0.888889 1.77778Z" transform="matrix(-1 2.3849761E-08 -2.3849761E-08 -1 275.55554 21.555557)" id="Oval" fill="#9A9A9A" stroke="none" />
    <path d="M0.888889 1.77778C1.37981 1.77778 1.77778 1.37981 1.77778 0.888889C1.77778 0.397969 1.37981 0 0.888889 0C0.397969 0 0 0.397969 0 0.888889C0 1.37981 0.397969 1.77778 0.888889 1.77778Z" transform="matrix(-1 2.3849761E-08 -2.3849761E-08 -1 256 21.555557)" id="Oval" fill="#9A9A9A" stroke="none" />
    <path d="M0.888889 1.77778C1.37981 1.77778 1.77778 1.37981 1.77778 0.888889C1.77778 0.397969 1.37981 0 0.888889 0C0.397969 0 0 0.397969 0 0.888889C0 1.37981 0.397969 1.77778 0.888889 1.77778Z" transform="matrix(-1 2.3849761E-08 -2.3849761E-08 -1 236.44444 21.555557)" id="Oval" fill="#9A9A9A" stroke="none" />
    <path d="M0.888889 1.77778C1.37981 1.77778 1.77778 1.37981 1.77778 0.888889C1.77778 0.397969 1.37981 0 0.888889 0C0.397969 0 0 0.397969 0 0.888889C0 1.37981 0.397969 1.77778 0.888889 1.77778Z" transform="matrix(-1 2.3849761E-08 -2.3849761E-08 -1 216.88889 21.555557)" id="Oval" fill="#9A9A9A" stroke="none" />
    <path d="M0.888889 1.77778C1.37981 1.77778 1.77778 1.37981 1.77778 0.888889C1.77778 0.397969 1.37981 0 0.888889 0C0.397969 0 0 0.397969 0 0.888889C0 1.37981 0.397969 1.77778 0.888889 1.77778Z" transform="matrix(-1 2.3849761E-08 -2.3849761E-08 -1 197.33333 21.555557)" id="Oval" fill="#9A9A9A" stroke="none" />
    <path d="M0.888889 1.77778C1.37981 1.77778 1.77778 1.37981 1.77778 0.888889C1.77778 0.397969 1.37981 0 0.888889 0C0.397969 0 0 0.397969 0 0.888889C0 1.37981 0.397969 1.77778 0.888889 1.77778Z" transform="matrix(-1 2.3849761E-08 -2.3849761E-08 -1 177.77777 21.555557)" id="Oval" fill="#9A9A9A" stroke="none" />
    <path d="M0.888889 1.77778C1.37981 1.77778 1.77778 1.37981 1.77778 0.888889C1.77778 0.397969 1.37981 0 0.888889 0C0.397969 0 0 0.397969 0 0.888889C0 1.37981 0.397969 1.77778 0.888889 1.77778Z" transform="matrix(-1 2.3849761E-08 -2.3849761E-08 -1 158.22221 21.555557)" id="Oval" fill="#9A9A9A" stroke="none" />
    <path d="M0.888889 1.77778C1.37981 1.77778 1.77778 1.37981 1.77778 0.888889C1.77778 0.397969 1.37981 0 0.888889 0C0.397969 0 0 0.397969 0 0.888889C0 1.37981 0.397969 1.77778 0.888889 1.77778Z" transform="matrix(-1 2.3849761E-08 -2.3849761E-08 -1 138.66666 21.555557)" id="Oval" fill="#9A9A9A" stroke="none" />
    <path d="M0.888889 1.77778C1.37981 1.77778 1.77778 1.37981 1.77778 0.888889C1.77778 0.397969 1.37981 0 0.888889 0C0.397969 0 0 0.397969 0 0.888889C0 1.37981 0.397969 1.77778 0.888889 1.77778Z" transform="matrix(-1 2.3849761E-08 -2.3849761E-08 -1 119.111115 21.555557)" id="Oval" fill="#9A9A9A" stroke="none" />
    <path d="M0.888889 1.77778C1.37981 1.77778 1.77778 1.37981 1.77778 0.888889C1.77778 0.397969 1.37981 0 0.888889 0C0.397969 0 0 0.397969 0 0.888889C0 1.37981 0.397969 1.77778 0.888889 1.77778Z" transform="matrix(-1 2.3849761E-08 -2.3849761E-08 -1 99.55556 21.555557)" id="Oval" fill="#9A9A9A" stroke="none" />
    <path d="M0.888889 1.77778C1.37981 1.77778 1.77778 1.37981 1.77778 0.888889C1.77778 0.397969 1.37981 0 0.888889 0C0.397969 0 0 0.397969 0 0.888889C0 1.37981 0.397969 1.77778 0.888889 1.77778Z" transform="matrix(-1 2.3849761E-08 -2.3849761E-08 -1 80 21.555557)" id="Oval" fill="#9A9A9A" stroke="none" />
    <path d="M0.888889 1.77778C1.37981 1.77778 1.77778 1.37981 1.77778 0.888889C1.77778 0.397969 1.37981 0 0.888889 0C0.397969 0 0 0.397969 0 0.888889C0 1.37981 0.397969 1.77778 0.888889 1.77778Z" transform="matrix(-1 2.3849761E-08 -2.3849761E-08 -1 60.444447 21.555557)" id="Oval" fill="#9A9A9A" stroke="none" />
    <path d="M0.888889 1.77778C1.37981 1.77778 1.77778 1.37981 1.77778 0.888889C1.77778 0.397969 1.37981 0 0.888889 0C0.397969 0 0 0.397969 0 0.888889C0 1.37981 0.397969 1.77778 0.888889 1.77778Z" transform="matrix(-1 2.3849761E-08 -2.3849761E-08 -1 40.88889 21.555557)" id="Oval" fill="#9A9A9A" stroke="none" />
    <path d="M0.888889 1.77778C1.37981 1.77778 1.77778 1.37981 1.77778 0.888889C1.77778 0.397969 1.37981 0 0.888889 0C0.397969 0 0 0.397969 0 0.888889C0 1.37981 0.397969 1.77778 0.888889 1.77778Z" transform="matrix(-1 2.3849761E-08 -2.3849761E-08 -1 21.333334 21.555557)" id="Oval" fill="#9A9A9A" stroke="none" />
    <path d="M0.888889 1.77778C1.37981 1.77778 1.77778 1.37981 1.77778 0.888889C1.77778 0.397969 1.37981 0 0.888889 0C0.397969 0 0 0.397969 0 0.888889C0 1.37981 0.397969 1.77778 0.888889 1.77778Z" transform="matrix(-1 2.3849761E-08 -2.3849761E-08 -1 1.7777778 21.555557)" id="Oval" fill="#9A9A9A" stroke="none" />
    <path d="M0.888889 1.77778C1.37981 1.77778 1.77778 1.37981 1.77778 0.888889C1.77778 0.397969 1.37981 0 0.888889 0C0.397969 0 0 0.397969 0 0.888889C0 1.37981 0.397969 1.77778 0.888889 1.77778Z" transform="matrix(-1 2.3849761E-08 -2.3849761E-08 -1 275.55554 2)" id="Oval" fill="#9A9A9A" stroke="none" />
    <path d="M0.888889 1.77778C1.37981 1.77778 1.77778 1.37981 1.77778 0.888889C1.77778 0.397969 1.37981 0 0.888889 0C0.397969 0 0 0.397969 0 0.888889C0 1.37981 0.397969 1.77778 0.888889 1.77778Z" transform="matrix(-1 2.3849761E-08 -2.3849761E-08 -1 256 2)" id="Oval" fill="#9A9A9A" stroke="none" />
    <path d="M0.888889 1.77778C1.37981 1.77778 1.77778 1.37981 1.77778 0.888889C1.77778 0.397969 1.37981 0 0.888889 0C0.397969 0 0 0.397969 0 0.888889C0 1.37981 0.397969 1.77778 0.888889 1.77778Z" transform="matrix(-1 2.3849761E-08 -2.3849761E-08 -1 236.44444 2)" id="Oval" fill="#9A9A9A" stroke="none" />
    <path d="M0.888889 1.77778C1.37981 1.77778 1.77778 1.37981 1.77778 0.888889C1.77778 0.397969 1.37981 0 0.888889 0C0.397969 0 0 0.397969 0 0.888889C0 1.37981 0.397969 1.77778 0.888889 1.77778Z" transform="matrix(-1 2.3849761E-08 -2.3849761E-08 -1 216.88889 2)" id="Oval" fill="#9A9A9A" stroke="none" />
    <path d="M0.888889 1.77778C1.37981 1.77778 1.77778 1.37981 1.77778 0.888889C1.77778 0.397969 1.37981 0 0.888889 0C0.397969 0 0 0.397969 0 0.888889C0 1.37981 0.397969 1.77778 0.888889 1.77778Z" transform="matrix(-1 2.3849761E-08 -2.3849761E-08 -1 197.33333 2)" id="Oval" fill="#9A9A9A" stroke="none" />
    <path d="M0.888889 1.77778C1.37981 1.77778 1.77778 1.37981 1.77778 0.888889C1.77778 0.397969 1.37981 0 0.888889 0C0.397969 0 0 0.397969 0 0.888889C0 1.37981 0.397969 1.77778 0.888889 1.77778Z" transform="matrix(-1 2.3849761E-08 -2.3849761E-08 -1 177.77777 2)" id="Oval" fill="#9A9A9A" stroke="none" />
    <path d="M0.888889 1.77778C1.37981 1.77778 1.77778 1.37981 1.77778 0.888889C1.77778 0.397969 1.37981 0 0.888889 0C0.397969 0 0 0.397969 0 0.888889C0 1.37981 0.397969 1.77778 0.888889 1.77778Z" transform="matrix(-1 2.3849761E-08 -2.3849761E-08 -1 158.22221 2)" id="Oval" fill="#9A9A9A" stroke="none" />
    <path d="M0.888889 1.77778C1.37981 1.77778 1.77778 1.37981 1.77778 0.888889C1.77778 0.397969 1.37981 0 0.888889 0C0.397969 0 0 0.397969 0 0.888889C0 1.37981 0.397969 1.77778 0.888889 1.77778Z" transform="matrix(-1 2.3849761E-08 -2.3849761E-08 -1 138.66666 2)" id="Oval" fill="#9A9A9A" stroke="none" />
    <path d="M0.888889 1.77778C1.37981 1.77778 1.77778 1.37981 1.77778 0.888889C1.77778 0.397969 1.37981 0 0.888889 0C0.397969 0 0 0.397969 0 0.888889C0 1.37981 0.397969 1.77778 0.888889 1.77778Z" transform="matrix(-1 2.3849761E-08 -2.3849761E-08 -1 119.111115 2)" id="Oval" fill="#9A9A9A" stroke="none" />
    <path d="M0.888889 1.77778C1.37981 1.77778 1.77778 1.37981 1.77778 0.888889C1.77778 0.397969 1.37981 0 0.888889 0C0.397969 0 0 0.397969 0 0.888889C0 1.37981 0.397969 1.77778 0.888889 1.77778Z" transform="matrix(-1 2.3849761E-08 -2.3849761E-08 -1 99.55556 2)" id="Oval" fill="#9A9A9A" stroke="none" />
    <path d="M0.888889 1.77778C1.37981 1.77778 1.77778 1.37981 1.77778 0.888889C1.77778 0.397969 1.37981 0 0.888889 0C0.397969 0 0 0.397969 0 0.888889C0 1.37981 0.397969 1.77778 0.888889 1.77778Z" transform="matrix(-1 2.3849761E-08 -2.3849761E-08 -1 80 2)" id="Oval" fill="#9A9A9A" stroke="none" />
    <path d="M0.888889 1.77778C1.37981 1.77778 1.77778 1.37981 1.77778 0.888889C1.77778 0.397969 1.37981 0 0.888889 0C0.397969 0 0 0.397969 0 0.888889C0 1.37981 0.397969 1.77778 0.888889 1.77778Z" transform="matrix(-1 2.3849761E-08 -2.3849761E-08 -1 60.444447 2)" id="Oval" fill="#9A9A9A" stroke="none" />
    <path d="M0.888889 1.77778C1.37981 1.77778 1.77778 1.37981 1.77778 0.888889C1.77778 0.397969 1.37981 0 0.888889 0C0.397969 0 0 0.397969 0 0.888889C0 1.37981 0.397969 1.77778 0.888889 1.77778Z" transform="matrix(-1 2.3849761E-08 -2.3849761E-08 -1 40.88889 2)" id="Oval" fill="#9A9A9A" stroke="none" />
    <path d="M0.888889 1.77778C1.37981 1.77778 1.77778 1.37981 1.77778 0.888889C1.77778 0.397969 1.37981 0 0.888889 0C0.397969 0 0 0.397969 0 0.888889C0 1.37981 0.397969 1.77778 0.888889 1.77778Z" transform="matrix(-1 2.3849761E-08 -2.3849761E-08 -1 21.333334 2)" id="Oval" fill="#9A9A9A" stroke="none" />
    <path d="M0.888889 1.77778C1.37981 1.77778 1.77778 1.37981 1.77778 0.888889C1.77778 0.397969 1.37981 0 0.888889 0C0.397969 0 0 0.397969 0 0.888889C0 1.37981 0.397969 1.77778 0.888889 1.77778Z" transform="matrix(-1 2.3849761E-08 -2.3849761E-08 -1 1.7777778 2)" id="Oval" fill="#9A9A9A" stroke="none" />
    <path d="M0.888889 1.77778C1.37981 1.77778 1.77778 1.37981 1.77778 0.888889C1.77778 0.397969 1.37981 0 0.888889 0C0.397969 0 0 0.397969 0 0.888889C0 1.37981 0.397969 1.77778 0.888889 1.77778Z" transform="matrix(-1 2.3849761E-08 -2.3849761E-08 -1 275.55554 272.22223)" id="Oval" fill="#9A9A9A" stroke="none" />
    <path d="M0.888889 1.77778C1.37981 1.77778 1.77778 1.37981 1.77778 0.888889C1.77778 0.397969 1.37981 0 0.888889 0C0.397969 0 0 0.397969 0 0.888889C0 1.37981 0.397969 1.77778 0.888889 1.77778Z" transform="matrix(-1 2.3849761E-08 -2.3849761E-08 -1 256 272.22223)" id="Oval" fill="#9A9A9A" stroke="none" />
    <path d="M0.888889 1.77778C1.37981 1.77778 1.77778 1.37981 1.77778 0.888889C1.77778 0.397969 1.37981 0 0.888889 0C0.397969 0 0 0.397969 0 0.888889C0 1.37981 0.397969 1.77778 0.888889 1.77778Z" transform="matrix(-1 2.3849761E-08 -2.3849761E-08 -1 236.44444 272.22223)" id="Oval" fill="#9A9A9A" stroke="none" />
    <path d="M0.888889 1.77778C1.37981 1.77778 1.77778 1.37981 1.77778 0.888889C1.77778 0.397969 1.37981 0 0.888889 0C0.397969 0 0 0.397969 0 0.888889C0 1.37981 0.397969 1.77778 0.888889 1.77778Z" transform="matrix(-1 2.3849761E-08 -2.3849761E-08 -1 216.88889 272.22223)" id="Oval" fill="#9A9A9A" stroke="none" />
    <path d="M0.888889 1.77778C1.37981 1.77778 1.77778 1.37981 1.77778 0.888889C1.77778 0.397969 1.37981 0 0.888889 0C0.397969 0 0 0.397969 0 0.888889C0 1.37981 0.397969 1.77778 0.888889 1.77778Z" transform="matrix(-1 2.3849761E-08 -2.3849761E-08 -1 197.33333 272.22223)" id="Oval" fill="#9A9A9A" stroke="none" />
    <path d="M0.888889 1.77778C1.37981 1.77778 1.77778 1.37981 1.77778 0.888889C1.77778 0.397969 1.37981 0 0.888889 0C0.397969 0 0 0.397969 0 0.888889C0 1.37981 0.397969 1.77778 0.888889 1.77778Z" transform="matrix(-1 2.3849761E-08 -2.3849761E-08 -1 177.77777 272.22223)" id="Oval" fill="#9A9A9A" stroke="none" />
    <path d="M0.888889 1.77778C1.37981 1.77778 1.77778 1.37981 1.77778 0.888889C1.77778 0.397969 1.37981 0 0.888889 0C0.397969 0 0 0.397969 0 0.888889C0 1.37981 0.397969 1.77778 0.888889 1.77778Z" transform="matrix(-1 2.3849761E-08 -2.3849761E-08 -1 158.22221 272.22223)" id="Oval" fill="#9A9A9A" stroke="none" />
    <path d="M0.888889 1.77778C1.37981 1.77778 1.77778 1.37981 1.77778 0.888889C1.77778 0.397969 1.37981 0 0.888889 0C0.397969 0 0 0.397969 0 0.888889C0 1.37981 0.397969 1.77778 0.888889 1.77778Z" transform="matrix(-1 2.3849761E-08 -2.3849761E-08 -1 138.66666 272.22223)" id="Oval" fill="#9A9A9A" stroke="none" />
    <path d="M0.888889 1.77778C1.37981 1.77778 1.77778 1.37981 1.77778 0.888889C1.77778 0.397969 1.37981 0 0.888889 0C0.397969 0 0 0.397969 0 0.888889C0 1.37981 0.397969 1.77778 0.888889 1.77778Z" transform="matrix(-1 2.3849761E-08 -2.3849761E-08 -1 119.111115 272.22223)" id="Oval" fill="#9A9A9A" stroke="none" />
    <path d="M0.888889 1.77778C1.37981 1.77778 1.77778 1.37981 1.77778 0.888889C1.77778 0.397969 1.37981 0 0.888889 0C0.397969 0 0 0.397969 0 0.888889C0 1.37981 0.397969 1.77778 0.888889 1.77778Z" transform="matrix(-1 2.3849761E-08 -2.3849761E-08 -1 99.55556 272.22223)" id="Oval" fill="#9A9A9A" stroke="none" />
    <path d="M0.888889 1.77778C1.37981 1.77778 1.77778 1.37981 1.77778 0.888889C1.77778 0.397969 1.37981 0 0.888889 0C0.397969 0 0 0.397969 0 0.888889C0 1.37981 0.397969 1.77778 0.888889 1.77778Z" transform="matrix(-1 2.3849761E-08 -2.3849761E-08 -1 80 272.22223)" id="Oval" fill="#9A9A9A" stroke="none" />
    <path d="M0.888889 1.77778C1.37981 1.77778 1.77778 1.37981 1.77778 0.888889C1.77778 0.397969 1.37981 0 0.888889 0C0.397969 0 0 0.397969 0 0.888889C0 1.37981 0.397969 1.77778 0.888889 1.77778Z" transform="matrix(-1 2.3849761E-08 -2.3849761E-08 -1 60.444447 272.22223)" id="Oval" fill="#9A9A9A" stroke="none" />
    <path d="M0.888889 1.77778C1.37981 1.77778 1.77778 1.37981 1.77778 0.888889C1.77778 0.397969 1.37981 0 0.888889 0C0.397969 0 0 0.397969 0 0.888889C0 1.37981 0.397969 1.77778 0.888889 1.77778Z" transform="matrix(-1 2.3849761E-08 -2.3849761E-08 -1 40.88889 272.22223)" id="Oval" fill="#9A9A9A" stroke="none" />
    <path d="M0.888889 1.77778C1.37981 1.77778 1.77778 1.37981 1.77778 0.888889C1.77778 0.397969 1.37981 0 0.888889 0C0.397969 0 0 0.397969 0 0.888889C0 1.37981 0.397969 1.77778 0.888889 1.77778Z" transform="matrix(-1 2.3849761E-08 -2.3849761E-08 -1 21.333334 272.22223)" id="Oval" fill="#9A9A9A" stroke="none" />
    <path d="M0.888889 1.77778C1.37981 1.77778 1.77778 1.37981 1.77778 0.888889C1.77778 0.397969 1.37981 0 0.888889 0C0.397969 0 0 0.397969 0 0.888889C0 1.37981 0.397969 1.77778 0.888889 1.77778Z" transform="matrix(-1 2.3849761E-08 -2.3849761E-08 -1 1.7777778 272.22223)" id="Oval" fill="#9A9A9A" stroke="none" />
    <path d="M0.888889 1.77778C1.37981 1.77778 1.77778 1.37981 1.77778 0.888889C1.77778 0.397969 1.37981 0 0.888889 0C0.397969 0 0 0.397969 0 0.888889C0 1.37981 0.397969 1.77778 0.888889 1.77778Z" transform="matrix(-1 2.3849761E-08 -2.3849761E-08 -1 275.55554 252.66666)" id="Oval" fill="#9A9A9A" stroke="none" />
    <path d="M0.888889 1.77778C1.37981 1.77778 1.77778 1.37981 1.77778 0.888889C1.77778 0.397969 1.37981 0 0.888889 0C0.397969 0 0 0.397969 0 0.888889C0 1.37981 0.397969 1.77778 0.888889 1.77778Z" transform="matrix(-1 2.3849761E-08 -2.3849761E-08 -1 256 252.66666)" id="Oval" fill="#9A9A9A" stroke="none" />
    <path d="M0.888889 1.77778C1.37981 1.77778 1.77778 1.37981 1.77778 0.888889C1.77778 0.397969 1.37981 0 0.888889 0C0.397969 0 0 0.397969 0 0.888889C0 1.37981 0.397969 1.77778 0.888889 1.77778Z" transform="matrix(-1 2.3849761E-08 -2.3849761E-08 -1 236.44444 252.66666)" id="Oval" fill="#9A9A9A" stroke="none" />
    <path d="M0.888889 1.77778C1.37981 1.77778 1.77778 1.37981 1.77778 0.888889C1.77778 0.397969 1.37981 0 0.888889 0C0.397969 0 0 0.397969 0 0.888889C0 1.37981 0.397969 1.77778 0.888889 1.77778Z" transform="matrix(-1 2.3849761E-08 -2.3849761E-08 -1 216.88889 252.66666)" id="Oval" fill="#9A9A9A" stroke="none" />
    <path d="M0.888889 1.77778C1.37981 1.77778 1.77778 1.37981 1.77778 0.888889C1.77778 0.397969 1.37981 0 0.888889 0C0.397969 0 0 0.397969 0 0.888889C0 1.37981 0.397969 1.77778 0.888889 1.77778Z" transform="matrix(-1 2.3849761E-08 -2.3849761E-08 -1 197.33333 252.66666)" id="Oval" fill="#9A9A9A" stroke="none" />
    <path d="M0.888889 1.77778C1.37981 1.77778 1.77778 1.37981 1.77778 0.888889C1.77778 0.397969 1.37981 0 0.888889 0C0.397969 0 0 0.397969 0 0.888889C0 1.37981 0.397969 1.77778 0.888889 1.77778Z" transform="matrix(-1 2.3849761E-08 -2.3849761E-08 -1 177.77777 252.66666)" id="Oval" fill="#9A9A9A" stroke="none" />
    <path d="M0.888889 1.77778C1.37981 1.77778 1.77778 1.37981 1.77778 0.888889C1.77778 0.397969 1.37981 0 0.888889 0C0.397969 0 0 0.397969 0 0.888889C0 1.37981 0.397969 1.77778 0.888889 1.77778Z" transform="matrix(-1 2.3849761E-08 -2.3849761E-08 -1 158.22221 252.66666)" id="Oval" fill="#9A9A9A" stroke="none" />
    <path d="M0.888889 1.77778C1.37981 1.77778 1.77778 1.37981 1.77778 0.888889C1.77778 0.397969 1.37981 0 0.888889 0C0.397969 0 0 0.397969 0 0.888889C0 1.37981 0.397969 1.77778 0.888889 1.77778Z" transform="matrix(-1 2.3849761E-08 -2.3849761E-08 -1 138.66666 252.66666)" id="Oval" fill="#9A9A9A" stroke="none" />
    <path d="M0.888889 1.77778C1.37981 1.77778 1.77778 1.37981 1.77778 0.888889C1.77778 0.397969 1.37981 0 0.888889 0C0.397969 0 0 0.397969 0 0.888889C0 1.37981 0.397969 1.77778 0.888889 1.77778Z" transform="matrix(-1 2.3849761E-08 -2.3849761E-08 -1 119.111115 252.66666)" id="Oval" fill="#9A9A9A" stroke="none" />
    <path d="M0.888889 1.77778C1.37981 1.77778 1.77778 1.37981 1.77778 0.888889C1.77778 0.397969 1.37981 0 0.888889 0C0.397969 0 0 0.397969 0 0.888889C0 1.37981 0.397969 1.77778 0.888889 1.77778Z" transform="matrix(-1 2.3849761E-08 -2.3849761E-08 -1 99.55556 252.66666)" id="Oval" fill="#9A9A9A" stroke="none" />
    <path d="M0.888889 1.77778C1.37981 1.77778 1.77778 1.37981 1.77778 0.888889C1.77778 0.397969 1.37981 0 0.888889 0C0.397969 0 0 0.397969 0 0.888889C0 1.37981 0.397969 1.77778 0.888889 1.77778Z" transform="matrix(-1 2.3849761E-08 -2.3849761E-08 -1 80 252.66666)" id="Oval" fill="#9A9A9A" stroke="none" />
    <path d="M0.888889 1.77778C1.37981 1.77778 1.77778 1.37981 1.77778 0.888889C1.77778 0.397969 1.37981 0 0.888889 0C0.397969 0 0 0.397969 0 0.888889C0 1.37981 0.397969 1.77778 0.888889 1.77778Z" transform="matrix(-1 2.3849761E-08 -2.3849761E-08 -1 60.444447 252.66666)" id="Oval" fill="#9A9A9A" stroke="none" />
    <path d="M0.888889 1.77778C1.37981 1.77778 1.77778 1.37981 1.77778 0.888889C1.77778 0.397969 1.37981 0 0.888889 0C0.397969 0 0 0.397969 0 0.888889C0 1.37981 0.397969 1.77778 0.888889 1.77778Z" transform="matrix(-1 2.3849761E-08 -2.3849761E-08 -1 40.88889 252.66666)" id="Oval" fill="#9A9A9A" stroke="none" />
    <path d="M0.888889 1.77778C1.37981 1.77778 1.77778 1.37981 1.77778 0.888889C1.77778 0.397969 1.37981 0 0.888889 0C0.397969 0 0 0.397969 0 0.888889C0 1.37981 0.397969 1.77778 0.888889 1.77778Z" transform="matrix(-1 2.3849761E-08 -2.3849761E-08 -1 21.333334 252.66666)" id="Oval" fill="#9A9A9A" stroke="none" />
    <path d="M0.888889 1.77778C1.37981 1.77778 1.77778 1.37981 1.77778 0.888889C1.77778 0.397969 1.37981 0 0.888889 0C0.397969 0 0 0.397969 0 0.888889C0 1.37981 0.397969 1.77778 0.888889 1.77778Z" transform="matrix(-1 2.3849761E-08 -2.3849761E-08 -1 1.7777778 252.66666)" id="Oval" fill="#9A9A9A" stroke="none" />
    <path d="M0.888889 1.77778C1.37981 1.77778 1.77778 1.37981 1.77778 0.888889C1.77778 0.397969 1.37981 0 0.888889 0C0.397969 0 0 0.397969 0 0.888889C0 1.37981 0.397969 1.77778 0.888889 1.77778Z" transform="matrix(-1 2.3849761E-08 -2.3849761E-08 -1 275.55554 233.1111)" id="Oval" fill="#9A9A9A" stroke="none" />
    <path d="M0.888889 1.77778C1.37981 1.77778 1.77778 1.37981 1.77778 0.888889C1.77778 0.397969 1.37981 0 0.888889 0C0.397969 0 0 0.397969 0 0.888889C0 1.37981 0.397969 1.77778 0.888889 1.77778Z" transform="matrix(-1 2.3849761E-08 -2.3849761E-08 -1 256 233.1111)" id="Oval" fill="#9A9A9A" stroke="none" />
    <path d="M0.888889 1.77778C1.37981 1.77778 1.77778 1.37981 1.77778 0.888889C1.77778 0.397969 1.37981 0 0.888889 0C0.397969 0 0 0.397969 0 0.888889C0 1.37981 0.397969 1.77778 0.888889 1.77778Z" transform="matrix(-1 2.3849761E-08 -2.3849761E-08 -1 236.44444 233.1111)" id="Oval" fill="#9A9A9A" stroke="none" />
    <path d="M0.888889 1.77778C1.37981 1.77778 1.77778 1.37981 1.77778 0.888889C1.77778 0.397969 1.37981 0 0.888889 0C0.397969 0 0 0.397969 0 0.888889C0 1.37981 0.397969 1.77778 0.888889 1.77778Z" transform="matrix(-1 2.3849761E-08 -2.3849761E-08 -1 216.88889 233.1111)" id="Oval" fill="#9A9A9A" stroke="none" />
    <path d="M0.888889 1.77778C1.37981 1.77778 1.77778 1.37981 1.77778 0.888889C1.77778 0.397969 1.37981 0 0.888889 0C0.397969 0 0 0.397969 0 0.888889C0 1.37981 0.397969 1.77778 0.888889 1.77778Z" transform="matrix(-1 2.3849761E-08 -2.3849761E-08 -1 197.33333 233.1111)" id="Oval" fill="#9A9A9A" stroke="none" />
    <path d="M0.888889 1.77778C1.37981 1.77778 1.77778 1.37981 1.77778 0.888889C1.77778 0.397969 1.37981 0 0.888889 0C0.397969 0 0 0.397969 0 0.888889C0 1.37981 0.397969 1.77778 0.888889 1.77778Z" transform="matrix(-1 2.3849761E-08 -2.3849761E-08 -1 177.77777 233.1111)" id="Oval" fill="#9A9A9A" stroke="none" />
    <path d="M0.888889 1.77778C1.37981 1.77778 1.77778 1.37981 1.77778 0.888889C1.77778 0.397969 1.37981 0 0.888889 0C0.397969 0 0 0.397969 0 0.888889C0 1.37981 0.397969 1.77778 0.888889 1.77778Z" transform="matrix(-1 2.3849761E-08 -2.3849761E-08 -1 158.22221 233.1111)" id="Oval" fill="#9A9A9A" stroke="none" />
    <path d="M0.888889 1.77778C1.37981 1.77778 1.77778 1.37981 1.77778 0.888889C1.77778 0.397969 1.37981 0 0.888889 0C0.397969 0 0 0.397969 0 0.888889C0 1.37981 0.397969 1.77778 0.888889 1.77778Z" transform="matrix(-1 2.3849761E-08 -2.3849761E-08 -1 138.66666 233.1111)" id="Oval" fill="#9A9A9A" stroke="none" />
    <path d="M0.888889 1.77778C1.37981 1.77778 1.77778 1.37981 1.77778 0.888889C1.77778 0.397969 1.37981 0 0.888889 0C0.397969 0 0 0.397969 0 0.888889C0 1.37981 0.397969 1.77778 0.888889 1.77778Z" transform="matrix(-1 2.3849761E-08 -2.3849761E-08 -1 119.111115 233.1111)" id="Oval" fill="#9A9A9A" stroke="none" />
    <path d="M0.888889 1.77778C1.37981 1.77778 1.77778 1.37981 1.77778 0.888889C1.77778 0.397969 1.37981 0 0.888889 0C0.397969 0 0 0.397969 0 0.888889C0 1.37981 0.397969 1.77778 0.888889 1.77778Z" transform="matrix(-1 2.3849761E-08 -2.3849761E-08 -1 99.55556 233.1111)" id="Oval" fill="#9A9A9A" stroke="none" />
    <path d="M0.888889 1.77778C1.37981 1.77778 1.77778 1.37981 1.77778 0.888889C1.77778 0.397969 1.37981 0 0.888889 0C0.397969 0 0 0.397969 0 0.888889C0 1.37981 0.397969 1.77778 0.888889 1.77778Z" transform="matrix(-1 2.3849761E-08 -2.3849761E-08 -1 80 233.1111)" id="Oval" fill="#9A9A9A" stroke="none" />
    <path d="M0.888889 1.77778C1.37981 1.77778 1.77778 1.37981 1.77778 0.888889C1.77778 0.397969 1.37981 0 0.888889 0C0.397969 0 0 0.397969 0 0.888889C0 1.37981 0.397969 1.77778 0.888889 1.77778Z" transform="matrix(-1 2.3849761E-08 -2.3849761E-08 -1 60.444447 233.1111)" id="Oval" fill="#9A9A9A" stroke="none" />
    <path d="M0.888889 1.77778C1.37981 1.77778 1.77778 1.37981 1.77778 0.888889C1.77778 0.397969 1.37981 0 0.888889 0C0.397969 0 0 0.397969 0 0.888889C0 1.37981 0.397969 1.77778 0.888889 1.77778Z" transform="matrix(-1 2.3849761E-08 -2.3849761E-08 -1 40.88889 233.1111)" id="Oval" fill="#9A9A9A" stroke="none" />
    <path d="M0.888889 1.77778C1.37981 1.77778 1.77778 1.37981 1.77778 0.888889C1.77778 0.397969 1.37981 0 0.888889 0C0.397969 0 0 0.397969 0 0.888889C0 1.37981 0.397969 1.77778 0.888889 1.77778Z" transform="matrix(-1 2.3849761E-08 -2.3849761E-08 -1 21.333334 233.1111)" id="Oval" fill="#9A9A9A" stroke="none" />
    <path d="M0.888889 1.77778C1.37981 1.77778 1.77778 1.37981 1.77778 0.888889C1.77778 0.397969 1.37981 0 0.888889 0C0.397969 0 0 0.397969 0 0.888889C0 1.37981 0.397969 1.77778 0.888889 1.77778Z" transform="matrix(-1 2.3849761E-08 -2.3849761E-08 -1 1.7777778 233.1111)" id="Oval" fill="#9A9A9A" stroke="none" />
  </g>
</svg>