<?xml version="1.0" encoding="utf-8"?>
<svg width="1820px" height="53px" viewBox="0 0 1820 53" version="1.1" xmlns:xlink="http://www.w3.org/1999/xlink" xmlns="http://www.w3.org/2000/svg">
  <defs>
    <rect width="1820" height="52.000004" id="slice_1" />
    <clipPath id="clip_1">
      <use xlink:href="#slice_1" clip-rule="evenodd" />
    </clipPath>
  </defs>
  <g id="Slice" clip-path="url(#clip_1)">
    <use xlink:href="#slice_1" stroke="none" fill="none" />
    <path d="M1884.54 60.271C1901.63 59.8081 1901.72 32.6693 1884.54 32.9946C1881.03 33.0571 1877.53 33.1823 1874.03 33.2573C1869.12 30.8175 1862.67 31.0802 1857.65 33.6452C1799.36 34.9465 1741.08 36.7232 1682.8 38.3247C1639.82 39.5134 1606.95 40.7521 1565.96 23.9358C1545.66 15.5902 1530.03 9.54685 1507.83 7.05694C1372.66 -8.07022 1230.1 3.90389 1095.26 16.9665C1085.34 17.93 1080.24 29.6413 1086.7 36.7607C971.66 38.6751 856.603 39.5634 741.559 41.9658C740.385 40.3892 738.674 39.2506 736.401 39.2882C645.642 40.5769 554.564 53.1766 464.147 62.298C473.545 49.0852 472.402 48.0342 479.295 32.9946C482.595 25.7876 462.955 23.7106 454.192 23.9358C308.739 27.8396 194.736 9.98478 49.2713 7.05694C36.8172 6.8067 31.3825 23.8858 43.6043 24.7241C48.8231 25.0869 54.054 25.3497 59.285 25.6875C55.0196 200.144 43.3232 374.175 28.9259 548.031C21.9472 632.1 12.4019 715.806 4.01769 799.725C-2.86323 868.542 -3.44988 932.742 23.1205 997.154C24.8926 1001.42 30.8691 1004.56 35.2201 1004.26C536.317 969.139 1035.73 1033.13 1536.64 1035.9C1600.19 1036.25 1663.76 1035.67 1727.29 1033.79C1767.36 1032.6 1820.71 1040.03 1858.67 1023.77C1883.41 1013.18 1890.5 997.742 1896.68 972.643C1910.31 917.427 1912.92 856.08 1917.41 799.588C1937.14 552.486 1915.8 305.221 1883.29 60.296L1884.54 60.271Z" transform="matrix(-1 8.742278E-08 -8.742278E-08 -1 1846 1036)" id="Fill-111" fill="#DFF1EE" fill-rule="evenodd" stroke="none" />
  </g>
</svg>