<?xml version="1.0" encoding="utf-8"?>
<svg width="1756px" height="72px" viewBox="0 0 1756 72" version="1.1" xmlns:xlink="http://www.w3.org/1999/xlink" xmlns="http://www.w3.org/2000/svg">
  <defs>
    <rect width="1756" height="72" id="slice_1" />
    <clipPath id="clip_1">
      <use xlink:href="#slice_1" clip-rule="evenodd" />
    </clipPath>
  </defs>
  <g id="Slice" clip-path="url(#clip_1)">
    <use xlink:href="#slice_1" stroke="none" fill="none" />
    <path d="M1884.54 66.7581C1884.54 66.7581 1901.72 32.138 1884.54 32.5461C1881.03 32.6245 1877.53 32.7815 1874.03 32.8756C1869.12 29.8154 1862.67 30.1449 1857.65 33.3621C1799.36 34.9943 1741.08 37.2227 1682.8 39.2315C1639.82 40.7224 1606.95 42.2761 1565.96 21.1839C1545.66 10.7163 1471.17 6.88433 1448.1 6.88433C1297.76 6.88433 1230.02 5.15653 1095.26 12.4426C1085.2 12.9864 1080.24 28.3402 1086.7 37.2698C971.66 39.6709 856.603 40.7852 741.559 43.7984C740.385 41.821 738.674 40.3929 736.401 40.4399C645.642 42.0564 554.564 57.8598 464.147 69.3005C473.545 52.728 472.402 51.4098 479.295 32.5461C482.595 23.5065 462.955 20.9014 454.192 21.1839C308.739 26.0803 194.736 3.68553 49.2713 0.0132293C36.8172 -0.300643 31.3825 21.1211 43.6043 22.1726C48.8231 22.6277 54.054 22.9573 59.285 23.381C57.3057 124.917 53.7264 226.338 49.0197 327.676C43.5832 444.727 36.6425 561.666 28.9259 678.542C21.9472 783.987 12.4019 888.977 4.01769 994.234C-2.86323 1080.55 -3.44988 1161.07 23.1205 1241.86C24.8926 1247.21 33.8278 1258.8 38.1788 1258.42C221.812 1242.28 379.63 1238.33 562 1241.86C877.278 1247.97 1077.47 1247.97 1402.21 1250.78C1507.1 1251.68 1855.63 1278.82 1893.59 1258.42C1918.33 1245.14 1912.92 1064.92 1917.41 994.061C1937.14 684.128 1915.8 373.992 1883.29 66.7895L1884.54 66.7581Z" transform="matrix(1 -1.7484555E-07 1.7484555E-07 1 -85 0.00048828125)" id="Bg" fill="#DFF1EE" fill-rule="evenodd" stroke="none" />
  </g>
</svg>