<?xml version="1.0" encoding="utf-8"?>
<svg width="249px" height="249px" viewBox="0 0 249 249" version="1.1" xmlns:xlink="http://www.w3.org/1999/xlink" xmlns="http://www.w3.org/2000/svg">
  <defs>
    <path d="M0 0L248 0L248 248L0 248L0 0Z" id="path_1" />
    <clipPath id="mask_1">
      <use xlink:href="#path_1" />
    </clipPath>
  </defs>
  <g id="SHape" transform="translate(0.5 0.5)">
    <path d="M0 0L248 0L248 248L0 248L0 0Z" id="Mask" fill="none" fill-rule="evenodd" stroke="none" />
    <g clip-path="url(#mask_1)">
      <path d="M0.888889 1.77778C1.37981 1.77778 1.77778 1.37981 1.77778 0.888889C1.77778 0.397969 1.37981 0 0.888889 0C0.397969 0 0 0.397969 0 0.888889C0 1.37981 0.397969 1.77778 0.888889 1.77778Z" transform="matrix(6.7561146E-08 1 -1 6.7561146E-08 215.33325 -0.55566406)" id="Oval" fill="#9A9A9A" stroke="none" />
      <path d="M0.888889 1.77778C1.37981 1.77778 1.77778 1.37981 1.77778 0.888889C1.77778 0.397969 1.37981 0 0.888889 0C0.397969 0 0 0.397969 0 0.888889C0 1.37981 0.397969 1.77778 0.888889 1.77778Z" transform="matrix(6.7561146E-08 1 -1 6.7561146E-08 215.33325 19)" id="Oval" fill="#9A9A9A" stroke="none" />
      <path d="M0.888889 1.77778C1.37981 1.77778 1.77778 1.37981 1.77778 0.888889C1.77778 0.397969 1.37981 0 0.888889 0C0.397969 0 0 0.397969 0 0.888889C0 1.37981 0.397969 1.77778 0.888889 1.77778Z" transform="matrix(6.7561146E-08 1 -1 6.7561146E-08 215.33325 38.555664)" id="Oval" fill="#9A9A9A" stroke="none" />
      <path d="M0.888889 1.77778C1.37981 1.77778 1.77778 1.37981 1.77778 0.888889C1.77778 0.397969 1.37981 0 0.888889 0C0.397969 0 0 0.397969 0 0.888889C0 1.37981 0.397969 1.77778 0.888889 1.77778Z" transform="matrix(6.7561146E-08 1 -1 6.7561146E-08 215.33325 58.11133)" id="Oval" fill="#9A9A9A" stroke="none" />
      <path d="M0.888889 1.77778C1.37981 1.77778 1.77778 1.37981 1.77778 0.888889C1.77778 0.397969 1.37981 0 0.888889 0C0.397969 0 0 0.397969 0 0.888889C0 1.37981 0.397969 1.77778 0.888889 1.77778Z" transform="matrix(6.7561146E-08 1 -1 6.7561146E-08 215.33325 77.66699)" id="Oval" fill="#9A9A9A" stroke="none" />
      <path d="M0.888889 1.77778C1.37981 1.77778 1.77778 1.37981 1.77778 0.888889C1.77778 0.397969 1.37981 0 0.888889 0C0.397969 0 0 0.397969 0 0.888889C0 1.37981 0.397969 1.77778 0.888889 1.77778Z" transform="matrix(6.7561146E-08 1 -1 6.7561146E-08 215.33325 97.22266)" id="Oval" fill="#9A9A9A" stroke="none" />
      <path d="M0.888889 1.77778C1.37981 1.77778 1.77778 1.37981 1.77778 0.888889C1.77778 0.397969 1.37981 0 0.888889 0C0.397969 0 0 0.397969 0 0.888889C0 1.37981 0.397969 1.77778 0.888889 1.77778Z" transform="matrix(6.7561146E-08 1 -1 6.7561146E-08 215.33325 116.77734)" id="Oval" fill="#9A9A9A" stroke="none" />
      <path d="M0.888889 1.77778C1.37981 1.77778 1.77778 1.37981 1.77778 0.888889C1.77778 0.397969 1.37981 0 0.888889 0C0.397969 0 0 0.397969 0 0.888889C0 1.37981 0.397969 1.77778 0.888889 1.77778Z" transform="matrix(6.7561146E-08 1 -1 6.7561146E-08 215.33325 136.33301)" id="Oval" fill="#9A9A9A" stroke="none" />
      <path d="M0.888889 1.77778C1.37981 1.77778 1.77778 1.37981 1.77778 0.888889C1.77778 0.397969 1.37981 0 0.888889 0C0.397969 0 0 0.397969 0 0.888889C0 1.37981 0.397969 1.77778 0.888889 1.77778Z" transform="matrix(6.7561146E-08 1 -1 6.7561146E-08 215.33325 155.88867)" id="Oval" fill="#9A9A9A" stroke="none" />
      <path d="M0.888889 1.77778C1.37981 1.77778 1.77778 1.37981 1.77778 0.888889C1.77778 0.397969 1.37981 0 0.888889 0C0.397969 0 0 0.397969 0 0.888889C0 1.37981 0.397969 1.77778 0.888889 1.77778Z" transform="matrix(6.7561146E-08 1 -1 6.7561146E-08 215.33325 175.44434)" id="Oval" fill="#9A9A9A" stroke="none" />
      <path d="M0.888889 1.77778C1.37981 1.77778 1.77778 1.37981 1.77778 0.888889C1.77778 0.397969 1.37981 0 0.888889 0C0.397969 0 0 0.397969 0 0.888889C0 1.37981 0.397969 1.77778 0.888889 1.77778Z" transform="matrix(6.7561146E-08 1 -1 6.7561146E-08 215.33325 195)" id="Oval" fill="#9A9A9A" stroke="none" />
      <path d="M0.888889 1.77778C1.37981 1.77778 1.77778 1.37981 1.77778 0.888889C1.77778 0.397969 1.37981 0 0.888889 0C0.397969 0 0 0.397969 0 0.888889C0 1.37981 0.397969 1.77778 0.888889 1.77778Z" transform="matrix(6.7561146E-08 1 -1 6.7561146E-08 215.33325 214.55566)" id="Oval" fill="#9A9A9A" stroke="none" />
      <path d="M0.888889 1.77778C1.37981 1.77778 1.77778 1.37981 1.77778 0.888889C1.77778 0.397969 1.37981 0 0.888889 0C0.397969 0 0 0.397969 0 0.888889C0 1.37981 0.397969 1.77778 0.888889 1.77778Z" transform="matrix(6.7561146E-08 1 -1 6.7561146E-08 215.33325 234.11133)" id="Oval" fill="#9A9A9A" stroke="none" />
      <path d="M0.888889 1.77778C1.37981 1.77778 1.77778 1.37981 1.77778 0.888889C1.77778 0.397969 1.37981 0 0.888889 0C0.397969 0 0 0.397969 0 0.888889C0 1.37981 0.397969 1.77778 0.888889 1.77778Z" transform="matrix(6.7561146E-08 1 -1 6.7561146E-08 195.77783 -0.55566406)" id="Oval" fill="#9A9A9A" stroke="none" />
      <path d="M0.888889 1.77778C1.37981 1.77778 1.77778 1.37981 1.77778 0.888889C1.77778 0.397969 1.37981 0 0.888889 0C0.397969 0 0 0.397969 0 0.888889C0 1.37981 0.397969 1.77778 0.888889 1.77778Z" transform="matrix(6.7561146E-08 1 -1 6.7561146E-08 195.77783 19)" id="Oval" fill="#9A9A9A" stroke="none" />
      <path d="M0.888889 1.77778C1.37981 1.77778 1.77778 1.37981 1.77778 0.888889C1.77778 0.397969 1.37981 0 0.888889 0C0.397969 0 0 0.397969 0 0.888889C0 1.37981 0.397969 1.77778 0.888889 1.77778Z" transform="matrix(6.7561146E-08 1 -1 6.7561146E-08 195.77783 38.555664)" id="Oval" fill="#9A9A9A" stroke="none" />
      <path d="M0.888889 1.77778C1.37981 1.77778 1.77778 1.37981 1.77778 0.888889C1.77778 0.397969 1.37981 0 0.888889 0C0.397969 0 0 0.397969 0 0.888889C0 1.37981 0.397969 1.77778 0.888889 1.77778Z" transform="matrix(6.7561146E-08 1 -1 6.7561146E-08 195.77783 58.11133)" id="Oval" fill="#9A9A9A" stroke="none" />
      <path d="M0.888889 1.77778C1.37981 1.77778 1.77778 1.37981 1.77778 0.888889C1.77778 0.397969 1.37981 0 0.888889 0C0.397969 0 0 0.397969 0 0.888889C0 1.37981 0.397969 1.77778 0.888889 1.77778Z" transform="matrix(6.7561146E-08 1 -1 6.7561146E-08 195.77783 77.66699)" id="Oval" fill="#9A9A9A" stroke="none" />
      <path d="M0.888889 1.77778C1.37981 1.77778 1.77778 1.37981 1.77778 0.888889C1.77778 0.397969 1.37981 0 0.888889 0C0.397969 0 0 0.397969 0 0.888889C0 1.37981 0.397969 1.77778 0.888889 1.77778Z" transform="matrix(6.7561146E-08 1 -1 6.7561146E-08 195.77783 97.22266)" id="Oval" fill="#9A9A9A" stroke="none" />
      <path d="M0.888889 1.77778C1.37981 1.77778 1.77778 1.37981 1.77778 0.888889C1.77778 0.397969 1.37981 0 0.888889 0C0.397969 0 0 0.397969 0 0.888889C0 1.37981 0.397969 1.77778 0.888889 1.77778Z" transform="matrix(6.7561146E-08 1 -1 6.7561146E-08 195.77783 116.77734)" id="Oval" fill="#9A9A9A" stroke="none" />
      <path d="M0.888889 1.77778C1.37981 1.77778 1.77778 1.37981 1.77778 0.888889C1.77778 0.397969 1.37981 0 0.888889 0C0.397969 0 0 0.397969 0 0.888889C0 1.37981 0.397969 1.77778 0.888889 1.77778Z" transform="matrix(6.7561146E-08 1 -1 6.7561146E-08 195.77783 136.33301)" id="Oval" fill="#9A9A9A" stroke="none" />
      <path d="M0.888889 1.77778C1.37981 1.77778 1.77778 1.37981 1.77778 0.888889C1.77778 0.397969 1.37981 0 0.888889 0C0.397969 0 0 0.397969 0 0.888889C0 1.37981 0.397969 1.77778 0.888889 1.77778Z" transform="matrix(6.7561146E-08 1 -1 6.7561146E-08 195.77783 155.88867)" id="Oval" fill="#9A9A9A" stroke="none" />
      <path d="M0.888889 1.77778C1.37981 1.77778 1.77778 1.37981 1.77778 0.888889C1.77778 0.397969 1.37981 0 0.888889 0C0.397969 0 0 0.397969 0 0.888889C0 1.37981 0.397969 1.77778 0.888889 1.77778Z" transform="matrix(6.7561146E-08 1 -1 6.7561146E-08 195.77783 175.44434)" id="Oval" fill="#9A9A9A" stroke="none" />
      <path d="M0.888889 1.77778C1.37981 1.77778 1.77778 1.37981 1.77778 0.888889C1.77778 0.397969 1.37981 0 0.888889 0C0.397969 0 0 0.397969 0 0.888889C0 1.37981 0.397969 1.77778 0.888889 1.77778Z" transform="matrix(6.7561146E-08 1 -1 6.7561146E-08 195.77783 195)" id="Oval" fill="#9A9A9A" stroke="none" />
      <path d="M0.888889 1.77778C1.37981 1.77778 1.77778 1.37981 1.77778 0.888889C1.77778 0.397969 1.37981 0 0.888889 0C0.397969 0 0 0.397969 0 0.888889C0 1.37981 0.397969 1.77778 0.888889 1.77778Z" transform="matrix(6.7561146E-08 1 -1 6.7561146E-08 195.77783 214.55566)" id="Oval" fill="#9A9A9A" stroke="none" />
      <path d="M0.888889 1.77778C1.37981 1.77778 1.77778 1.37981 1.77778 0.888889C1.77778 0.397969 1.37981 0 0.888889 0C0.397969 0 0 0.397969 0 0.888889C0 1.37981 0.397969 1.77778 0.888889 1.77778Z" transform="matrix(6.7561146E-08 1 -1 6.7561146E-08 195.77783 234.11133)" id="Oval" fill="#9A9A9A" stroke="none" />
      <path d="M0.888889 1.77778C1.37981 1.77778 1.77778 1.37981 1.77778 0.888889C1.77778 0.397969 1.37981 0 0.888889 0C0.397969 0 0 0.397969 0 0.888889C0 1.37981 0.397969 1.77778 0.888889 1.77778Z" transform="matrix(6.7561146E-08 1 -1 6.7561146E-08 176.22217 -0.55566406)" id="Oval" fill="#9A9A9A" stroke="none" />
      <path d="M0.888889 1.77778C1.37981 1.77778 1.77778 1.37981 1.77778 0.888889C1.77778 0.397969 1.37981 0 0.888889 0C0.397969 0 0 0.397969 0 0.888889C0 1.37981 0.397969 1.77778 0.888889 1.77778Z" transform="matrix(6.7561146E-08 1 -1 6.7561146E-08 176.22217 19)" id="Oval" fill="#9A9A9A" stroke="none" />
      <path d="M0.888889 1.77778C1.37981 1.77778 1.77778 1.37981 1.77778 0.888889C1.77778 0.397969 1.37981 0 0.888889 0C0.397969 0 0 0.397969 0 0.888889C0 1.37981 0.397969 1.77778 0.888889 1.77778Z" transform="matrix(6.7561146E-08 1 -1 6.7561146E-08 176.22217 38.555664)" id="Oval" fill="#9A9A9A" stroke="none" />
      <path d="M0.888889 1.77778C1.37981 1.77778 1.77778 1.37981 1.77778 0.888889C1.77778 0.397969 1.37981 0 0.888889 0C0.397969 0 0 0.397969 0 0.888889C0 1.37981 0.397969 1.77778 0.888889 1.77778Z" transform="matrix(6.7561146E-08 1 -1 6.7561146E-08 176.22217 58.11133)" id="Oval" fill="#9A9A9A" stroke="none" />
      <path d="M0.888889 1.77778C1.37981 1.77778 1.77778 1.37981 1.77778 0.888889C1.77778 0.397969 1.37981 0 0.888889 0C0.397969 0 0 0.397969 0 0.888889C0 1.37981 0.397969 1.77778 0.888889 1.77778Z" transform="matrix(6.7561146E-08 1 -1 6.7561146E-08 176.22217 77.66699)" id="Oval" fill="#9A9A9A" stroke="none" />
      <path d="M0.888889 1.77778C1.37981 1.77778 1.77778 1.37981 1.77778 0.888889C1.77778 0.397969 1.37981 0 0.888889 0C0.397969 0 0 0.397969 0 0.888889C0 1.37981 0.397969 1.77778 0.888889 1.77778Z" transform="matrix(6.7561146E-08 1 -1 6.7561146E-08 176.22217 97.22266)" id="Oval" fill="#9A9A9A" stroke="none" />
      <path d="M0.888889 1.77778C1.37981 1.77778 1.77778 1.37981 1.77778 0.888889C1.77778 0.397969 1.37981 0 0.888889 0C0.397969 0 0 0.397969 0 0.888889C0 1.37981 0.397969 1.77778 0.888889 1.77778Z" transform="matrix(6.7561146E-08 1 -1 6.7561146E-08 176.22217 116.77734)" id="Oval" fill="#9A9A9A" stroke="none" />
      <path d="M0.888889 1.77778C1.37981 1.77778 1.77778 1.37981 1.77778 0.888889C1.77778 0.397969 1.37981 0 0.888889 0C0.397969 0 0 0.397969 0 0.888889C0 1.37981 0.397969 1.77778 0.888889 1.77778Z" transform="matrix(6.7561146E-08 1 -1 6.7561146E-08 176.22217 136.33301)" id="Oval" fill="#9A9A9A" stroke="none" />
      <path d="M0.888889 1.77778C1.37981 1.77778 1.77778 1.37981 1.77778 0.888889C1.77778 0.397969 1.37981 0 0.888889 0C0.397969 0 0 0.397969 0 0.888889C0 1.37981 0.397969 1.77778 0.888889 1.77778Z" transform="matrix(6.7561146E-08 1 -1 6.7561146E-08 176.22217 155.88867)" id="Oval" fill="#9A9A9A" stroke="none" />
      <path d="M0.888889 1.77778C1.37981 1.77778 1.77778 1.37981 1.77778 0.888889C1.77778 0.397969 1.37981 0 0.888889 0C0.397969 0 0 0.397969 0 0.888889C0 1.37981 0.397969 1.77778 0.888889 1.77778Z" transform="matrix(6.7561146E-08 1 -1 6.7561146E-08 176.22217 175.44434)" id="Oval" fill="#9A9A9A" stroke="none" />
      <path d="M0.888889 1.77778C1.37981 1.77778 1.77778 1.37981 1.77778 0.888889C1.77778 0.397969 1.37981 0 0.888889 0C0.397969 0 0 0.397969 0 0.888889C0 1.37981 0.397969 1.77778 0.888889 1.77778Z" transform="matrix(6.7561146E-08 1 -1 6.7561146E-08 176.22217 195)" id="Oval" fill="#9A9A9A" stroke="none" />
      <path d="M0.888889 1.77778C1.37981 1.77778 1.77778 1.37981 1.77778 0.888889C1.77778 0.397969 1.37981 0 0.888889 0C0.397969 0 0 0.397969 0 0.888889C0 1.37981 0.397969 1.77778 0.888889 1.77778Z" transform="matrix(6.7561146E-08 1 -1 6.7561146E-08 176.22217 214.55566)" id="Oval" fill="#9A9A9A" stroke="none" />
      <path d="M0.888889 1.77778C1.37981 1.77778 1.77778 1.37981 1.77778 0.888889C1.77778 0.397969 1.37981 0 0.888889 0C0.397969 0 0 0.397969 0 0.888889C0 1.37981 0.397969 1.77778 0.888889 1.77778Z" transform="matrix(6.7561146E-08 1 -1 6.7561146E-08 176.22217 234.11133)" id="Oval" fill="#9A9A9A" stroke="none" />
      <path d="M0.888889 1.77778C1.37981 1.77778 1.77778 1.37981 1.77778 0.888889C1.77778 0.397969 1.37981 0 0.888889 0C0.397969 0 0 0.397969 0 0.888889C0 1.37981 0.397969 1.77778 0.888889 1.77778Z" transform="matrix(6.7561146E-08 1 -1 6.7561146E-08 156.66675 -0.55566406)" id="Oval" fill="#9A9A9A" stroke="none" />
      <path d="M0.888889 1.77778C1.37981 1.77778 1.77778 1.37981 1.77778 0.888889C1.77778 0.397969 1.37981 0 0.888889 0C0.397969 0 0 0.397969 0 0.888889C0 1.37981 0.397969 1.77778 0.888889 1.77778Z" transform="matrix(6.7561146E-08 1 -1 6.7561146E-08 156.66675 19)" id="Oval" fill="#9A9A9A" stroke="none" />
      <path d="M0.888889 1.77778C1.37981 1.77778 1.77778 1.37981 1.77778 0.888889C1.77778 0.397969 1.37981 0 0.888889 0C0.397969 0 0 0.397969 0 0.888889C0 1.37981 0.397969 1.77778 0.888889 1.77778Z" transform="matrix(6.7561146E-08 1 -1 6.7561146E-08 156.66675 38.555664)" id="Oval" fill="#9A9A9A" stroke="none" />
      <path d="M0.888889 1.77778C1.37981 1.77778 1.77778 1.37981 1.77778 0.888889C1.77778 0.397969 1.37981 0 0.888889 0C0.397969 0 0 0.397969 0 0.888889C0 1.37981 0.397969 1.77778 0.888889 1.77778Z" transform="matrix(6.7561146E-08 1 -1 6.7561146E-08 156.66675 58.11133)" id="Oval" fill="#9A9A9A" stroke="none" />
      <path d="M0.888889 1.77778C1.37981 1.77778 1.77778 1.37981 1.77778 0.888889C1.77778 0.397969 1.37981 0 0.888889 0C0.397969 0 0 0.397969 0 0.888889C0 1.37981 0.397969 1.77778 0.888889 1.77778Z" transform="matrix(6.7561146E-08 1 -1 6.7561146E-08 156.66675 77.66699)" id="Oval" fill="#9A9A9A" stroke="none" />
      <path d="M0.888889 1.77778C1.37981 1.77778 1.77778 1.37981 1.77778 0.888889C1.77778 0.397969 1.37981 0 0.888889 0C0.397969 0 0 0.397969 0 0.888889C0 1.37981 0.397969 1.77778 0.888889 1.77778Z" transform="matrix(6.7561146E-08 1 -1 6.7561146E-08 156.66675 97.22266)" id="Oval" fill="#9A9A9A" stroke="none" />
      <path d="M0.888889 1.77778C1.37981 1.77778 1.77778 1.37981 1.77778 0.888889C1.77778 0.397969 1.37981 0 0.888889 0C0.397969 0 0 0.397969 0 0.888889C0 1.37981 0.397969 1.77778 0.888889 1.77778Z" transform="matrix(6.7561146E-08 1 -1 6.7561146E-08 156.66675 116.77734)" id="Oval" fill="#9A9A9A" stroke="none" />
      <path d="M0.888889 1.77778C1.37981 1.77778 1.77778 1.37981 1.77778 0.888889C1.77778 0.397969 1.37981 0 0.888889 0C0.397969 0 0 0.397969 0 0.888889C0 1.37981 0.397969 1.77778 0.888889 1.77778Z" transform="matrix(6.7561146E-08 1 -1 6.7561146E-08 156.66675 136.33301)" id="Oval" fill="#9A9A9A" stroke="none" />
      <path d="M0.888889 1.77778C1.37981 1.77778 1.77778 1.37981 1.77778 0.888889C1.77778 0.397969 1.37981 0 0.888889 0C0.397969 0 0 0.397969 0 0.888889C0 1.37981 0.397969 1.77778 0.888889 1.77778Z" transform="matrix(6.7561146E-08 1 -1 6.7561146E-08 156.66675 155.88867)" id="Oval" fill="#9A9A9A" stroke="none" />
      <path d="M0.888889 1.77778C1.37981 1.77778 1.77778 1.37981 1.77778 0.888889C1.77778 0.397969 1.37981 0 0.888889 0C0.397969 0 0 0.397969 0 0.888889C0 1.37981 0.397969 1.77778 0.888889 1.77778Z" transform="matrix(6.7561146E-08 1 -1 6.7561146E-08 156.66675 175.44434)" id="Oval" fill="#9A9A9A" stroke="none" />
      <path d="M0.888889 1.77778C1.37981 1.77778 1.77778 1.37981 1.77778 0.888889C1.77778 0.397969 1.37981 0 0.888889 0C0.397969 0 0 0.397969 0 0.888889C0 1.37981 0.397969 1.77778 0.888889 1.77778Z" transform="matrix(6.7561146E-08 1 -1 6.7561146E-08 156.66675 195)" id="Oval" fill="#9A9A9A" stroke="none" />
      <path d="M0.888889 1.77778C1.37981 1.77778 1.77778 1.37981 1.77778 0.888889C1.77778 0.397969 1.37981 0 0.888889 0C0.397969 0 0 0.397969 0 0.888889C0 1.37981 0.397969 1.77778 0.888889 1.77778Z" transform="matrix(6.7561146E-08 1 -1 6.7561146E-08 156.66675 214.55566)" id="Oval" fill="#9A9A9A" stroke="none" />
      <path d="M0.888889 1.77778C1.37981 1.77778 1.77778 1.37981 1.77778 0.888889C1.77778 0.397969 1.37981 0 0.888889 0C0.397969 0 0 0.397969 0 0.888889C0 1.37981 0.397969 1.77778 0.888889 1.77778Z" transform="matrix(6.7561146E-08 1 -1 6.7561146E-08 156.66675 234.11133)" id="Oval" fill="#9A9A9A" stroke="none" />
      <path d="M0.888889 1.77778C1.37981 1.77778 1.77778 1.37981 1.77778 0.888889C1.77778 0.397969 1.37981 0 0.888889 0C0.397969 0 0 0.397969 0 0.888889C0 1.37981 0.397969 1.77778 0.888889 1.77778Z" transform="matrix(6.7561146E-08 1 -1 6.7561146E-08 137.11108 -0.55566406)" id="Oval" fill="#9A9A9A" stroke="none" />
      <path d="M0.888889 1.77778C1.37981 1.77778 1.77778 1.37981 1.77778 0.888889C1.77778 0.397969 1.37981 0 0.888889 0C0.397969 0 0 0.397969 0 0.888889C0 1.37981 0.397969 1.77778 0.888889 1.77778Z" transform="matrix(6.7561146E-08 1 -1 6.7561146E-08 137.11108 19)" id="Oval" fill="#9A9A9A" stroke="none" />
      <path d="M0.888889 1.77778C1.37981 1.77778 1.77778 1.37981 1.77778 0.888889C1.77778 0.397969 1.37981 0 0.888889 0C0.397969 0 0 0.397969 0 0.888889C0 1.37981 0.397969 1.77778 0.888889 1.77778Z" transform="matrix(6.7561146E-08 1 -1 6.7561146E-08 137.11108 38.555664)" id="Oval" fill="#9A9A9A" stroke="none" />
      <path d="M0.888889 1.77778C1.37981 1.77778 1.77778 1.37981 1.77778 0.888889C1.77778 0.397969 1.37981 0 0.888889 0C0.397969 0 0 0.397969 0 0.888889C0 1.37981 0.397969 1.77778 0.888889 1.77778Z" transform="matrix(6.7561146E-08 1 -1 6.7561146E-08 137.11108 58.11133)" id="Oval" fill="#9A9A9A" stroke="none" />
      <path d="M0.888889 1.77778C1.37981 1.77778 1.77778 1.37981 1.77778 0.888889C1.77778 0.397969 1.37981 0 0.888889 0C0.397969 0 0 0.397969 0 0.888889C0 1.37981 0.397969 1.77778 0.888889 1.77778Z" transform="matrix(6.7561146E-08 1 -1 6.7561146E-08 137.11108 77.66699)" id="Oval" fill="#9A9A9A" stroke="none" />
      <path d="M0.888889 1.77778C1.37981 1.77778 1.77778 1.37981 1.77778 0.888889C1.77778 0.397969 1.37981 0 0.888889 0C0.397969 0 0 0.397969 0 0.888889C0 1.37981 0.397969 1.77778 0.888889 1.77778Z" transform="matrix(6.7561146E-08 1 -1 6.7561146E-08 137.11108 97.22266)" id="Oval" fill="#9A9A9A" stroke="none" />
      <path d="M0.888889 1.77778C1.37981 1.77778 1.77778 1.37981 1.77778 0.888889C1.77778 0.397969 1.37981 0 0.888889 0C0.397969 0 0 0.397969 0 0.888889C0 1.37981 0.397969 1.77778 0.888889 1.77778Z" transform="matrix(6.7561146E-08 1 -1 6.7561146E-08 137.11108 116.77734)" id="Oval" fill="#9A9A9A" stroke="none" />
      <path d="M0.888889 1.77778C1.37981 1.77778 1.77778 1.37981 1.77778 0.888889C1.77778 0.397969 1.37981 0 0.888889 0C0.397969 0 0 0.397969 0 0.888889C0 1.37981 0.397969 1.77778 0.888889 1.77778Z" transform="matrix(6.7561146E-08 1 -1 6.7561146E-08 137.11108 136.33301)" id="Oval" fill="#9A9A9A" stroke="none" />
      <path d="M0.888889 1.77778C1.37981 1.77778 1.77778 1.37981 1.77778 0.888889C1.77778 0.397969 1.37981 0 0.888889 0C0.397969 0 0 0.397969 0 0.888889C0 1.37981 0.397969 1.77778 0.888889 1.77778Z" transform="matrix(6.7561146E-08 1 -1 6.7561146E-08 137.11108 155.88867)" id="Oval" fill="#9A9A9A" stroke="none" />
      <path d="M0.888889 1.77778C1.37981 1.77778 1.77778 1.37981 1.77778 0.888889C1.77778 0.397969 1.37981 0 0.888889 0C0.397969 0 0 0.397969 0 0.888889C0 1.37981 0.397969 1.77778 0.888889 1.77778Z" transform="matrix(6.7561146E-08 1 -1 6.7561146E-08 137.11108 175.44434)" id="Oval" fill="#9A9A9A" stroke="none" />
      <path d="M0.888889 1.77778C1.37981 1.77778 1.77778 1.37981 1.77778 0.888889C1.77778 0.397969 1.37981 0 0.888889 0C0.397969 0 0 0.397969 0 0.888889C0 1.37981 0.397969 1.77778 0.888889 1.77778Z" transform="matrix(6.7561146E-08 1 -1 6.7561146E-08 137.11108 195)" id="Oval" fill="#9A9A9A" stroke="none" />
      <path d="M0.888889 1.77778C1.37981 1.77778 1.77778 1.37981 1.77778 0.888889C1.77778 0.397969 1.37981 0 0.888889 0C0.397969 0 0 0.397969 0 0.888889C0 1.37981 0.397969 1.77778 0.888889 1.77778Z" transform="matrix(6.7561146E-08 1 -1 6.7561146E-08 137.11108 214.55566)" id="Oval" fill="#9A9A9A" stroke="none" />
      <path d="M0.888889 1.77778C1.37981 1.77778 1.77778 1.37981 1.77778 0.888889C1.77778 0.397969 1.37981 0 0.888889 0C0.397969 0 0 0.397969 0 0.888889C0 1.37981 0.397969 1.77778 0.888889 1.77778Z" transform="matrix(6.7561146E-08 1 -1 6.7561146E-08 137.11108 234.11133)" id="Oval" fill="#9A9A9A" stroke="none" />
      <path d="M0.888889 1.77778C1.37981 1.77778 1.77778 1.37981 1.77778 0.888889C1.77778 0.397969 1.37981 0 0.888889 0C0.397969 0 0 0.397969 0 0.888889C0 1.37981 0.397969 1.77778 0.888889 1.77778Z" transform="matrix(6.7561146E-08 1 -1 6.7561146E-08 117.555664 -0.55566406)" id="Oval" fill="#9A9A9A" stroke="none" />
      <path d="M0.888889 1.77778C1.37981 1.77778 1.77778 1.37981 1.77778 0.888889C1.77778 0.397969 1.37981 0 0.888889 0C0.397969 0 0 0.397969 0 0.888889C0 1.37981 0.397969 1.77778 0.888889 1.77778Z" transform="matrix(6.7561146E-08 1 -1 6.7561146E-08 117.555664 19)" id="Oval" fill="#9A9A9A" stroke="none" />
      <path d="M0.888889 1.77778C1.37981 1.77778 1.77778 1.37981 1.77778 0.888889C1.77778 0.397969 1.37981 0 0.888889 0C0.397969 0 0 0.397969 0 0.888889C0 1.37981 0.397969 1.77778 0.888889 1.77778Z" transform="matrix(6.7561146E-08 1 -1 6.7561146E-08 117.555664 38.555664)" id="Oval" fill="#9A9A9A" stroke="none" />
      <path d="M0.888889 1.77778C1.37981 1.77778 1.77778 1.37981 1.77778 0.888889C1.77778 0.397969 1.37981 0 0.888889 0C0.397969 0 0 0.397969 0 0.888889C0 1.37981 0.397969 1.77778 0.888889 1.77778Z" transform="matrix(6.7561146E-08 1 -1 6.7561146E-08 117.555664 58.11133)" id="Oval" fill="#9A9A9A" stroke="none" />
      <path d="M0.888889 1.77778C1.37981 1.77778 1.77778 1.37981 1.77778 0.888889C1.77778 0.397969 1.37981 0 0.888889 0C0.397969 0 0 0.397969 0 0.888889C0 1.37981 0.397969 1.77778 0.888889 1.77778Z" transform="matrix(6.7561146E-08 1 -1 6.7561146E-08 117.555664 77.66699)" id="Oval" fill="#9A9A9A" stroke="none" />
      <path d="M0.888889 1.77778C1.37981 1.77778 1.77778 1.37981 1.77778 0.888889C1.77778 0.397969 1.37981 0 0.888889 0C0.397969 0 0 0.397969 0 0.888889C0 1.37981 0.397969 1.77778 0.888889 1.77778Z" transform="matrix(6.7561146E-08 1 -1 6.7561146E-08 117.555664 97.22266)" id="Oval" fill="#9A9A9A" stroke="none" />
      <path d="M0.888889 1.77778C1.37981 1.77778 1.77778 1.37981 1.77778 0.888889C1.77778 0.397969 1.37981 0 0.888889 0C0.397969 0 0 0.397969 0 0.888889C0 1.37981 0.397969 1.77778 0.888889 1.77778Z" transform="matrix(6.7561146E-08 1 -1 6.7561146E-08 117.555664 116.77734)" id="Oval" fill="#9A9A9A" stroke="none" />
      <path d="M0.888889 1.77778C1.37981 1.77778 1.77778 1.37981 1.77778 0.888889C1.77778 0.397969 1.37981 0 0.888889 0C0.397969 0 0 0.397969 0 0.888889C0 1.37981 0.397969 1.77778 0.888889 1.77778Z" transform="matrix(6.7561146E-08 1 -1 6.7561146E-08 117.555664 136.33301)" id="Oval" fill="#9A9A9A" stroke="none" />
      <path d="M0.888889 1.77778C1.37981 1.77778 1.77778 1.37981 1.77778 0.888889C1.77778 0.397969 1.37981 0 0.888889 0C0.397969 0 0 0.397969 0 0.888889C0 1.37981 0.397969 1.77778 0.888889 1.77778Z" transform="matrix(6.7561146E-08 1 -1 6.7561146E-08 117.555664 155.88867)" id="Oval" fill="#9A9A9A" stroke="none" />
      <path d="M0.888889 1.77778C1.37981 1.77778 1.77778 1.37981 1.77778 0.888889C1.77778 0.397969 1.37981 0 0.888889 0C0.397969 0 0 0.397969 0 0.888889C0 1.37981 0.397969 1.77778 0.888889 1.77778Z" transform="matrix(6.7561146E-08 1 -1 6.7561146E-08 117.555664 175.44434)" id="Oval" fill="#9A9A9A" stroke="none" />
      <path d="M0.888889 1.77778C1.37981 1.77778 1.77778 1.37981 1.77778 0.888889C1.77778 0.397969 1.37981 0 0.888889 0C0.397969 0 0 0.397969 0 0.888889C0 1.37981 0.397969 1.77778 0.888889 1.77778Z" transform="matrix(6.7561146E-08 1 -1 6.7561146E-08 117.555664 195)" id="Oval" fill="#9A9A9A" stroke="none" />
      <path d="M0.888889 1.77778C1.37981 1.77778 1.77778 1.37981 1.77778 0.888889C1.77778 0.397969 1.37981 0 0.888889 0C0.397969 0 0 0.397969 0 0.888889C0 1.37981 0.397969 1.77778 0.888889 1.77778Z" transform="matrix(6.7561146E-08 1 -1 6.7561146E-08 117.555664 214.55566)" id="Oval" fill="#9A9A9A" stroke="none" />
      <path d="M0.888889 1.77778C1.37981 1.77778 1.77778 1.37981 1.77778 0.888889C1.77778 0.397969 1.37981 0 0.888889 0C0.397969 0 0 0.397969 0 0.888889C0 1.37981 0.397969 1.77778 0.888889 1.77778Z" transform="matrix(6.7561146E-08 1 -1 6.7561146E-08 117.555664 234.11133)" id="Oval" fill="#9A9A9A" stroke="none" />
      <path d="M0.888889 1.77778C1.37981 1.77778 1.77778 1.37981 1.77778 0.888889C1.77778 0.397969 1.37981 0 0.888889 0C0.397969 0 0 0.397969 0 0.888889C0 1.37981 0.397969 1.77778 0.888889 1.77778Z" transform="matrix(6.7561146E-08 1 -1 6.7561146E-08 98 -0.55566406)" id="Oval" fill="#9A9A9A" stroke="none" />
      <path d="M0.888889 1.77778C1.37981 1.77778 1.77778 1.37981 1.77778 0.888889C1.77778 0.397969 1.37981 0 0.888889 0C0.397969 0 0 0.397969 0 0.888889C0 1.37981 0.397969 1.77778 0.888889 1.77778Z" transform="matrix(6.7561146E-08 1 -1 6.7561146E-08 98 19)" id="Oval" fill="#9A9A9A" stroke="none" />
      <path d="M0.888889 1.77778C1.37981 1.77778 1.77778 1.37981 1.77778 0.888889C1.77778 0.397969 1.37981 0 0.888889 0C0.397969 0 0 0.397969 0 0.888889C0 1.37981 0.397969 1.77778 0.888889 1.77778Z" transform="matrix(6.7561146E-08 1 -1 6.7561146E-08 98 38.555664)" id="Oval" fill="#9A9A9A" stroke="none" />
      <path d="M0.888889 1.77778C1.37981 1.77778 1.77778 1.37981 1.77778 0.888889C1.77778 0.397969 1.37981 0 0.888889 0C0.397969 0 0 0.397969 0 0.888889C0 1.37981 0.397969 1.77778 0.888889 1.77778Z" transform="matrix(6.7561146E-08 1 -1 6.7561146E-08 98 58.11133)" id="Oval" fill="#9A9A9A" stroke="none" />
      <path d="M0.888889 1.77778C1.37981 1.77778 1.77778 1.37981 1.77778 0.888889C1.77778 0.397969 1.37981 0 0.888889 0C0.397969 0 0 0.397969 0 0.888889C0 1.37981 0.397969 1.77778 0.888889 1.77778Z" transform="matrix(6.7561146E-08 1 -1 6.7561146E-08 98 77.66699)" id="Oval" fill="#9A9A9A" stroke="none" />
      <path d="M0.888889 1.77778C1.37981 1.77778 1.77778 1.37981 1.77778 0.888889C1.77778 0.397969 1.37981 0 0.888889 0C0.397969 0 0 0.397969 0 0.888889C0 1.37981 0.397969 1.77778 0.888889 1.77778Z" transform="matrix(6.7561146E-08 1 -1 6.7561146E-08 98 97.22266)" id="Oval" fill="#9A9A9A" stroke="none" />
      <path d="M0.888889 1.77778C1.37981 1.77778 1.77778 1.37981 1.77778 0.888889C1.77778 0.397969 1.37981 0 0.888889 0C0.397969 0 0 0.397969 0 0.888889C0 1.37981 0.397969 1.77778 0.888889 1.77778Z" transform="matrix(6.7561146E-08 1 -1 6.7561146E-08 98 116.77734)" id="Oval" fill="#9A9A9A" stroke="none" />
      <path d="M0.888889 1.77778C1.37981 1.77778 1.77778 1.37981 1.77778 0.888889C1.77778 0.397969 1.37981 0 0.888889 0C0.397969 0 0 0.397969 0 0.888889C0 1.37981 0.397969 1.77778 0.888889 1.77778Z" transform="matrix(6.7561146E-08 1 -1 6.7561146E-08 98 136.33301)" id="Oval" fill="#9A9A9A" stroke="none" />
      <path d="M0.888889 1.77778C1.37981 1.77778 1.77778 1.37981 1.77778 0.888889C1.77778 0.397969 1.37981 0 0.888889 0C0.397969 0 0 0.397969 0 0.888889C0 1.37981 0.397969 1.77778 0.888889 1.77778Z" transform="matrix(6.7561146E-08 1 -1 6.7561146E-08 98 155.88867)" id="Oval" fill="#9A9A9A" stroke="none" />
      <path d="M0.888889 1.77778C1.37981 1.77778 1.77778 1.37981 1.77778 0.888889C1.77778 0.397969 1.37981 0 0.888889 0C0.397969 0 0 0.397969 0 0.888889C0 1.37981 0.397969 1.77778 0.888889 1.77778Z" transform="matrix(6.7561146E-08 1 -1 6.7561146E-08 98 175.44434)" id="Oval" fill="#9A9A9A" stroke="none" />
      <path d="M0.888889 1.77778C1.37981 1.77778 1.77778 1.37981 1.77778 0.888889C1.77778 0.397969 1.37981 0 0.888889 0C0.397969 0 0 0.397969 0 0.888889C0 1.37981 0.397969 1.77778 0.888889 1.77778Z" transform="matrix(6.7561146E-08 1 -1 6.7561146E-08 98 195)" id="Oval" fill="#9A9A9A" stroke="none" />
      <path d="M0.888889 1.77778C1.37981 1.77778 1.77778 1.37981 1.77778 0.888889C1.77778 0.397969 1.37981 0 0.888889 0C0.397969 0 0 0.397969 0 0.888889C0 1.37981 0.397969 1.77778 0.888889 1.77778Z" transform="matrix(6.7561146E-08 1 -1 6.7561146E-08 98 214.55566)" id="Oval" fill="#9A9A9A" stroke="none" />
      <path d="M0.888889 1.77778C1.37981 1.77778 1.77778 1.37981 1.77778 0.888889C1.77778 0.397969 1.37981 0 0.888889 0C0.397969 0 0 0.397969 0 0.888889C0 1.37981 0.397969 1.77778 0.888889 1.77778Z" transform="matrix(6.7561146E-08 1 -1 6.7561146E-08 98 234.11133)" id="Oval" fill="#9A9A9A" stroke="none" />
      <path d="M0.888889 1.77778C1.37981 1.77778 1.77778 1.37981 1.77778 0.888889C1.77778 0.397969 1.37981 0 0.888889 0C0.397969 0 0 0.397969 0 0.888889C0 1.37981 0.397969 1.77778 0.888889 1.77778Z" transform="matrix(6.7561146E-08 1 -1 6.7561146E-08 78.444336 -0.55566406)" id="Oval" fill="#9A9A9A" stroke="none" />
      <path d="M0.888889 1.77778C1.37981 1.77778 1.77778 1.37981 1.77778 0.888889C1.77778 0.397969 1.37981 0 0.888889 0C0.397969 0 0 0.397969 0 0.888889C0 1.37981 0.397969 1.77778 0.888889 1.77778Z" transform="matrix(6.7561146E-08 1 -1 6.7561146E-08 78.444336 19)" id="Oval" fill="#9A9A9A" stroke="none" />
      <path d="M0.888889 1.77778C1.37981 1.77778 1.77778 1.37981 1.77778 0.888889C1.77778 0.397969 1.37981 0 0.888889 0C0.397969 0 0 0.397969 0 0.888889C0 1.37981 0.397969 1.77778 0.888889 1.77778Z" transform="matrix(6.7561146E-08 1 -1 6.7561146E-08 78.444336 38.555664)" id="Oval" fill="#9A9A9A" stroke="none" />
      <path d="M0.888889 1.77778C1.37981 1.77778 1.77778 1.37981 1.77778 0.888889C1.77778 0.397969 1.37981 0 0.888889 0C0.397969 0 0 0.397969 0 0.888889C0 1.37981 0.397969 1.77778 0.888889 1.77778Z" transform="matrix(6.7561146E-08 1 -1 6.7561146E-08 78.444336 58.11133)" id="Oval" fill="#9A9A9A" stroke="none" />
      <path d="M0.888889 1.77778C1.37981 1.77778 1.77778 1.37981 1.77778 0.888889C1.77778 0.397969 1.37981 0 0.888889 0C0.397969 0 0 0.397969 0 0.888889C0 1.37981 0.397969 1.77778 0.888889 1.77778Z" transform="matrix(6.7561146E-08 1 -1 6.7561146E-08 78.444336 77.66699)" id="Oval" fill="#9A9A9A" stroke="none" />
      <path d="M0.888889 1.77778C1.37981 1.77778 1.77778 1.37981 1.77778 0.888889C1.77778 0.397969 1.37981 0 0.888889 0C0.397969 0 0 0.397969 0 0.888889C0 1.37981 0.397969 1.77778 0.888889 1.77778Z" transform="matrix(6.7561146E-08 1 -1 6.7561146E-08 78.444336 97.22266)" id="Oval" fill="#9A9A9A" stroke="none" />
      <path d="M0.888889 1.77778C1.37981 1.77778 1.77778 1.37981 1.77778 0.888889C1.77778 0.397969 1.37981 0 0.888889 0C0.397969 0 0 0.397969 0 0.888889C0 1.37981 0.397969 1.77778 0.888889 1.77778Z" transform="matrix(6.7561146E-08 1 -1 6.7561146E-08 78.444336 116.77734)" id="Oval" fill="#9A9A9A" stroke="none" />
      <path d="M0.888889 1.77778C1.37981 1.77778 1.77778 1.37981 1.77778 0.888889C1.77778 0.397969 1.37981 0 0.888889 0C0.397969 0 0 0.397969 0 0.888889C0 1.37981 0.397969 1.77778 0.888889 1.77778Z" transform="matrix(6.7561146E-08 1 -1 6.7561146E-08 78.444336 136.33301)" id="Oval" fill="#9A9A9A" stroke="none" />
      <path d="M0.888889 1.77778C1.37981 1.77778 1.77778 1.37981 1.77778 0.888889C1.77778 0.397969 1.37981 0 0.888889 0C0.397969 0 0 0.397969 0 0.888889C0 1.37981 0.397969 1.77778 0.888889 1.77778Z" transform="matrix(6.7561146E-08 1 -1 6.7561146E-08 78.444336 155.88867)" id="Oval" fill="#9A9A9A" stroke="none" />
      <path d="M0.888889 1.77778C1.37981 1.77778 1.77778 1.37981 1.77778 0.888889C1.77778 0.397969 1.37981 0 0.888889 0C0.397969 0 0 0.397969 0 0.888889C0 1.37981 0.397969 1.77778 0.888889 1.77778Z" transform="matrix(6.7561146E-08 1 -1 6.7561146E-08 78.444336 175.44434)" id="Oval" fill="#9A9A9A" stroke="none" />
      <path d="M0.888889 1.77778C1.37981 1.77778 1.77778 1.37981 1.77778 0.888889C1.77778 0.397969 1.37981 0 0.888889 0C0.397969 0 0 0.397969 0 0.888889C0 1.37981 0.397969 1.77778 0.888889 1.77778Z" transform="matrix(6.7561146E-08 1 -1 6.7561146E-08 78.444336 195)" id="Oval" fill="#9A9A9A" stroke="none" />
      <path d="M0.888889 1.77778C1.37981 1.77778 1.77778 1.37981 1.77778 0.888889C1.77778 0.397969 1.37981 0 0.888889 0C0.397969 0 0 0.397969 0 0.888889C0 1.37981 0.397969 1.77778 0.888889 1.77778Z" transform="matrix(6.7561146E-08 1 -1 6.7561146E-08 78.444336 214.55566)" id="Oval" fill="#9A9A9A" stroke="none" />
      <path d="M0.888889 1.77778C1.37981 1.77778 1.77778 1.37981 1.77778 0.888889C1.77778 0.397969 1.37981 0 0.888889 0C0.397969 0 0 0.397969 0 0.888889C0 1.37981 0.397969 1.77778 0.888889 1.77778Z" transform="matrix(6.7561146E-08 1 -1 6.7561146E-08 78.444336 234.11133)" id="Oval" fill="#9A9A9A" stroke="none" />
      <path d="M0.888889 1.77778C1.37981 1.77778 1.77778 1.37981 1.77778 0.888889C1.77778 0.397969 1.37981 0 0.888889 0C0.397969 0 0 0.397969 0 0.888889C0 1.37981 0.397969 1.77778 0.888889 1.77778Z" transform="matrix(6.7561146E-08 1 -1 6.7561146E-08 60.666748 -0.55566406)" id="Oval" fill="#9A9A9A" stroke="none" />
      <path d="M0.888889 1.77778C1.37981 1.77778 1.77778 1.37981 1.77778 0.888889C1.77778 0.397969 1.37981 0 0.888889 0C0.397969 0 0 0.397969 0 0.888889C0 1.37981 0.397969 1.77778 0.888889 1.77778Z" transform="matrix(6.7561146E-08 1 -1 6.7561146E-08 60.666748 19)" id="Oval" fill="#9A9A9A" stroke="none" />
      <path d="M0.888889 1.77778C1.37981 1.77778 1.77778 1.37981 1.77778 0.888889C1.77778 0.397969 1.37981 0 0.888889 0C0.397969 0 0 0.397969 0 0.888889C0 1.37981 0.397969 1.77778 0.888889 1.77778Z" transform="matrix(6.7561146E-08 1 -1 6.7561146E-08 60.666748 38.555664)" id="Oval" fill="#9A9A9A" stroke="none" />
      <path d="M0.888889 1.77778C1.37981 1.77778 1.77778 1.37981 1.77778 0.888889C1.77778 0.397969 1.37981 0 0.888889 0C0.397969 0 0 0.397969 0 0.888889C0 1.37981 0.397969 1.77778 0.888889 1.77778Z" transform="matrix(6.7561146E-08 1 -1 6.7561146E-08 60.666748 58.11133)" id="Oval" fill="#9A9A9A" stroke="none" />
      <path d="M0.888889 1.77778C1.37981 1.77778 1.77778 1.37981 1.77778 0.888889C1.77778 0.397969 1.37981 0 0.888889 0C0.397969 0 0 0.397969 0 0.888889C0 1.37981 0.397969 1.77778 0.888889 1.77778Z" transform="matrix(6.7561146E-08 1 -1 6.7561146E-08 60.666748 77.66699)" id="Oval" fill="#9A9A9A" stroke="none" />
      <path d="M0.888889 1.77778C1.37981 1.77778 1.77778 1.37981 1.77778 0.888889C1.77778 0.397969 1.37981 0 0.888889 0C0.397969 0 0 0.397969 0 0.888889C0 1.37981 0.397969 1.77778 0.888889 1.77778Z" transform="matrix(6.7561146E-08 1 -1 6.7561146E-08 60.666748 97.22266)" id="Oval" fill="#9A9A9A" stroke="none" />
      <path d="M0.888889 1.77778C1.37981 1.77778 1.77778 1.37981 1.77778 0.888889C1.77778 0.397969 1.37981 0 0.888889 0C0.397969 0 0 0.397969 0 0.888889C0 1.37981 0.397969 1.77778 0.888889 1.77778Z" transform="matrix(6.7561146E-08 1 -1 6.7561146E-08 60.666748 116.77734)" id="Oval" fill="#9A9A9A" stroke="none" />
      <path d="M0.888889 1.77778C1.37981 1.77778 1.77778 1.37981 1.77778 0.888889C1.77778 0.397969 1.37981 0 0.888889 0C0.397969 0 0 0.397969 0 0.888889C0 1.37981 0.397969 1.77778 0.888889 1.77778Z" transform="matrix(6.7561146E-08 1 -1 6.7561146E-08 60.666748 136.33301)" id="Oval" fill="#9A9A9A" stroke="none" />
      <path d="M0.888889 1.77778C1.37981 1.77778 1.77778 1.37981 1.77778 0.888889C1.77778 0.397969 1.37981 0 0.888889 0C0.397969 0 0 0.397969 0 0.888889C0 1.37981 0.397969 1.77778 0.888889 1.77778Z" transform="matrix(6.7561146E-08 1 -1 6.7561146E-08 60.666748 155.88867)" id="Oval" fill="#9A9A9A" stroke="none" />
      <path d="M0.888889 1.77778C1.37981 1.77778 1.77778 1.37981 1.77778 0.888889C1.77778 0.397969 1.37981 0 0.888889 0C0.397969 0 0 0.397969 0 0.888889C0 1.37981 0.397969 1.77778 0.888889 1.77778Z" transform="matrix(6.7561146E-08 1 -1 6.7561146E-08 60.666748 175.44434)" id="Oval" fill="#9A9A9A" stroke="none" />
      <path d="M0.888889 1.77778C1.37981 1.77778 1.77778 1.37981 1.77778 0.888889C1.77778 0.397969 1.37981 0 0.888889 0C0.397969 0 0 0.397969 0 0.888889C0 1.37981 0.397969 1.77778 0.888889 1.77778Z" transform="matrix(6.7561146E-08 1 -1 6.7561146E-08 60.666748 195)" id="Oval" fill="#9A9A9A" stroke="none" />
      <path d="M0.888889 1.77778C1.37981 1.77778 1.77778 1.37981 1.77778 0.888889C1.77778 0.397969 1.37981 0 0.888889 0C0.397969 0 0 0.397969 0 0.888889C0 1.37981 0.397969 1.77778 0.888889 1.77778Z" transform="matrix(6.7561146E-08 1 -1 6.7561146E-08 60.666748 214.55566)" id="Oval" fill="#9A9A9A" stroke="none" />
      <path d="M0.888889 1.77778C1.37981 1.77778 1.77778 1.37981 1.77778 0.888889C1.77778 0.397969 1.37981 0 0.888889 0C0.397969 0 0 0.397969 0 0.888889C0 1.37981 0.397969 1.77778 0.888889 1.77778Z" transform="matrix(6.7561146E-08 1 -1 6.7561146E-08 60.666748 234.11133)" id="Oval" fill="#9A9A9A" stroke="none" />
      <path d="M0.888889 1.77778C1.37981 1.77778 1.77778 1.37981 1.77778 0.888889C1.77778 0.397969 1.37981 0 0.888889 0C0.397969 0 0 0.397969 0 0.888889C0 1.37981 0.397969 1.77778 0.888889 1.77778Z" transform="matrix(6.7561146E-08 1 -1 6.7561146E-08 41.111084 -0.55566406)" id="Oval" fill="#9A9A9A" stroke="none" />
      <path d="M0.888889 1.77778C1.37981 1.77778 1.77778 1.37981 1.77778 0.888889C1.77778 0.397969 1.37981 0 0.888889 0C0.397969 0 0 0.397969 0 0.888889C0 1.37981 0.397969 1.77778 0.888889 1.77778Z" transform="matrix(6.7561146E-08 1 -1 6.7561146E-08 41.111084 19)" id="Oval" fill="#9A9A9A" stroke="none" />
      <path d="M0.888889 1.77778C1.37981 1.77778 1.77778 1.37981 1.77778 0.888889C1.77778 0.397969 1.37981 0 0.888889 0C0.397969 0 0 0.397969 0 0.888889C0 1.37981 0.397969 1.77778 0.888889 1.77778Z" transform="matrix(6.7561146E-08 1 -1 6.7561146E-08 41.111084 38.555664)" id="Oval" fill="#9A9A9A" stroke="none" />
      <path d="M0.888889 1.77778C1.37981 1.77778 1.77778 1.37981 1.77778 0.888889C1.77778 0.397969 1.37981 0 0.888889 0C0.397969 0 0 0.397969 0 0.888889C0 1.37981 0.397969 1.77778 0.888889 1.77778Z" transform="matrix(6.7561146E-08 1 -1 6.7561146E-08 41.111084 58.11133)" id="Oval" fill="#9A9A9A" stroke="none" />
      <path d="M0.888889 1.77778C1.37981 1.77778 1.77778 1.37981 1.77778 0.888889C1.77778 0.397969 1.37981 0 0.888889 0C0.397969 0 0 0.397969 0 0.888889C0 1.37981 0.397969 1.77778 0.888889 1.77778Z" transform="matrix(6.7561146E-08 1 -1 6.7561146E-08 41.111084 77.66699)" id="Oval" fill="#9A9A9A" stroke="none" />
      <path d="M0.888889 1.77778C1.37981 1.77778 1.77778 1.37981 1.77778 0.888889C1.77778 0.397969 1.37981 0 0.888889 0C0.397969 0 0 0.397969 0 0.888889C0 1.37981 0.397969 1.77778 0.888889 1.77778Z" transform="matrix(6.7561146E-08 1 -1 6.7561146E-08 41.111084 97.22266)" id="Oval" fill="#9A9A9A" stroke="none" />
      <path d="M0.888889 1.77778C1.37981 1.77778 1.77778 1.37981 1.77778 0.888889C1.77778 0.397969 1.37981 0 0.888889 0C0.397969 0 0 0.397969 0 0.888889C0 1.37981 0.397969 1.77778 0.888889 1.77778Z" transform="matrix(6.7561146E-08 1 -1 6.7561146E-08 41.111084 116.77734)" id="Oval" fill="#9A9A9A" stroke="none" />
      <path d="M0.888889 1.77778C1.37981 1.77778 1.77778 1.37981 1.77778 0.888889C1.77778 0.397969 1.37981 0 0.888889 0C0.397969 0 0 0.397969 0 0.888889C0 1.37981 0.397969 1.77778 0.888889 1.77778Z" transform="matrix(6.7561146E-08 1 -1 6.7561146E-08 41.111084 136.33301)" id="Oval" fill="#9A9A9A" stroke="none" />
      <path d="M0.888889 1.77778C1.37981 1.77778 1.77778 1.37981 1.77778 0.888889C1.77778 0.397969 1.37981 0 0.888889 0C0.397969 0 0 0.397969 0 0.888889C0 1.37981 0.397969 1.77778 0.888889 1.77778Z" transform="matrix(6.7561146E-08 1 -1 6.7561146E-08 41.111084 155.88867)" id="Oval" fill="#9A9A9A" stroke="none" />
      <path d="M0.888889 1.77778C1.37981 1.77778 1.77778 1.37981 1.77778 0.888889C1.77778 0.397969 1.37981 0 0.888889 0C0.397969 0 0 0.397969 0 0.888889C0 1.37981 0.397969 1.77778 0.888889 1.77778Z" transform="matrix(6.7561146E-08 1 -1 6.7561146E-08 41.111084 175.44434)" id="Oval" fill="#9A9A9A" stroke="none" />
      <path d="M0.888889 1.77778C1.37981 1.77778 1.77778 1.37981 1.77778 0.888889C1.77778 0.397969 1.37981 0 0.888889 0C0.397969 0 0 0.397969 0 0.888889C0 1.37981 0.397969 1.77778 0.888889 1.77778Z" transform="matrix(6.7561146E-08 1 -1 6.7561146E-08 41.111084 195)" id="Oval" fill="#9A9A9A" stroke="none" />
      <path d="M0.888889 1.77778C1.37981 1.77778 1.77778 1.37981 1.77778 0.888889C1.77778 0.397969 1.37981 0 0.888889 0C0.397969 0 0 0.397969 0 0.888889C0 1.37981 0.397969 1.77778 0.888889 1.77778Z" transform="matrix(6.7561146E-08 1 -1 6.7561146E-08 41.111084 214.55566)" id="Oval" fill="#9A9A9A" stroke="none" />
      <path d="M0.888889 1.77778C1.37981 1.77778 1.77778 1.37981 1.77778 0.888889C1.77778 0.397969 1.37981 0 0.888889 0C0.397969 0 0 0.397969 0 0.888889C0 1.37981 0.397969 1.77778 0.888889 1.77778Z" transform="matrix(6.7561146E-08 1 -1 6.7561146E-08 41.111084 234.11133)" id="Oval" fill="#9A9A9A" stroke="none" />
      <path d="M0.888889 1.77778C1.37981 1.77778 1.77778 1.37981 1.77778 0.888889C1.77778 0.397969 1.37981 0 0.888889 0C0.397969 0 0 0.397969 0 0.888889C0 1.37981 0.397969 1.77778 0.888889 1.77778Z" transform="matrix(6.7561146E-08 1 -1 6.7561146E-08 21.555664 -0.55566406)" id="Oval" fill="#9A9A9A" stroke="none" />
      <path d="M0.888889 1.77778C1.37981 1.77778 1.77778 1.37981 1.77778 0.888889C1.77778 0.397969 1.37981 0 0.888889 0C0.397969 0 0 0.397969 0 0.888889C0 1.37981 0.397969 1.77778 0.888889 1.77778Z" transform="matrix(6.7561146E-08 1 -1 6.7561146E-08 21.555664 19)" id="Oval" fill="#9A9A9A" stroke="none" />
      <path d="M0.888889 1.77778C1.37981 1.77778 1.77778 1.37981 1.77778 0.888889C1.77778 0.397969 1.37981 0 0.888889 0C0.397969 0 0 0.397969 0 0.888889C0 1.37981 0.397969 1.77778 0.888889 1.77778Z" transform="matrix(6.7561146E-08 1 -1 6.7561146E-08 21.555664 38.555664)" id="Oval" fill="#9A9A9A" stroke="none" />
      <path d="M0.888889 1.77778C1.37981 1.77778 1.77778 1.37981 1.77778 0.888889C1.77778 0.397969 1.37981 0 0.888889 0C0.397969 0 0 0.397969 0 0.888889C0 1.37981 0.397969 1.77778 0.888889 1.77778Z" transform="matrix(6.7561146E-08 1 -1 6.7561146E-08 21.555664 58.11133)" id="Oval" fill="#9A9A9A" stroke="none" />
      <path d="M0.888889 1.77778C1.37981 1.77778 1.77778 1.37981 1.77778 0.888889C1.77778 0.397969 1.37981 0 0.888889 0C0.397969 0 0 0.397969 0 0.888889C0 1.37981 0.397969 1.77778 0.888889 1.77778Z" transform="matrix(6.7561146E-08 1 -1 6.7561146E-08 21.555664 77.66699)" id="Oval" fill="#9A9A9A" stroke="none" />
      <path d="M0.888889 1.77778C1.37981 1.77778 1.77778 1.37981 1.77778 0.888889C1.77778 0.397969 1.37981 0 0.888889 0C0.397969 0 0 0.397969 0 0.888889C0 1.37981 0.397969 1.77778 0.888889 1.77778Z" transform="matrix(6.7561146E-08 1 -1 6.7561146E-08 21.555664 97.22266)" id="Oval" fill="#9A9A9A" stroke="none" />
      <path d="M0.888889 1.77778C1.37981 1.77778 1.77778 1.37981 1.77778 0.888889C1.77778 0.397969 1.37981 0 0.888889 0C0.397969 0 0 0.397969 0 0.888889C0 1.37981 0.397969 1.77778 0.888889 1.77778Z" transform="matrix(6.7561146E-08 1 -1 6.7561146E-08 21.555664 116.77734)" id="Oval" fill="#9A9A9A" stroke="none" />
      <path d="M0.888889 1.77778C1.37981 1.77778 1.77778 1.37981 1.77778 0.888889C1.77778 0.397969 1.37981 0 0.888889 0C0.397969 0 0 0.397969 0 0.888889C0 1.37981 0.397969 1.77778 0.888889 1.77778Z" transform="matrix(6.7561146E-08 1 -1 6.7561146E-08 21.555664 136.33301)" id="Oval" fill="#9A9A9A" stroke="none" />
      <path d="M0.888889 1.77778C1.37981 1.77778 1.77778 1.37981 1.77778 0.888889C1.77778 0.397969 1.37981 0 0.888889 0C0.397969 0 0 0.397969 0 0.888889C0 1.37981 0.397969 1.77778 0.888889 1.77778Z" transform="matrix(6.7561146E-08 1 -1 6.7561146E-08 21.555664 155.88867)" id="Oval" fill="#9A9A9A" stroke="none" />
      <path d="M0.888889 1.77778C1.37981 1.77778 1.77778 1.37981 1.77778 0.888889C1.77778 0.397969 1.37981 0 0.888889 0C0.397969 0 0 0.397969 0 0.888889C0 1.37981 0.397969 1.77778 0.888889 1.77778Z" transform="matrix(6.7561146E-08 1 -1 6.7561146E-08 21.555664 175.44434)" id="Oval" fill="#9A9A9A" stroke="none" />
      <path d="M0.888889 1.77778C1.37981 1.77778 1.77778 1.37981 1.77778 0.888889C1.77778 0.397969 1.37981 0 0.888889 0C0.397969 0 0 0.397969 0 0.888889C0 1.37981 0.397969 1.77778 0.888889 1.77778Z" transform="matrix(6.7561146E-08 1 -1 6.7561146E-08 21.555664 195)" id="Oval" fill="#9A9A9A" stroke="none" />
      <path d="M0.888889 1.77778C1.37981 1.77778 1.77778 1.37981 1.77778 0.888889C1.77778 0.397969 1.37981 0 0.888889 0C0.397969 0 0 0.397969 0 0.888889C0 1.37981 0.397969 1.77778 0.888889 1.77778Z" transform="matrix(6.7561146E-08 1 -1 6.7561146E-08 21.555664 214.55566)" id="Oval" fill="#9A9A9A" stroke="none" />
      <path d="M0.888889 1.77778C1.37981 1.77778 1.77778 1.37981 1.77778 0.888889C1.77778 0.397969 1.37981 0 0.888889 0C0.397969 0 0 0.397969 0 0.888889C0 1.37981 0.397969 1.77778 0.888889 1.77778Z" transform="matrix(6.7561146E-08 1 -1 6.7561146E-08 21.555664 234.11133)" id="Oval" fill="#9A9A9A" stroke="none" />
      <path d="M0.888889 1.77778C1.37981 1.77778 1.77778 1.37981 1.77778 0.888889C1.77778 0.397969 1.37981 0 0.888889 0C0.397969 0 0 0.397969 0 0.888889C0 1.37981 0.397969 1.77778 0.888889 1.77778Z" transform="matrix(6.7561146E-08 1 -1 6.7561146E-08 2 -0.55566406)" id="Oval" fill="#9A9A9A" stroke="none" />
      <path d="M0.888889 1.77778C1.37981 1.77778 1.77778 1.37981 1.77778 0.888889C1.77778 0.397969 1.37981 0 0.888889 0C0.397969 0 0 0.397969 0 0.888889C0 1.37981 0.397969 1.77778 0.888889 1.77778Z" transform="matrix(6.7561146E-08 1 -1 6.7561146E-08 2 19)" id="Oval" fill="#9A9A9A" stroke="none" />
      <path d="M0.888889 1.77778C1.37981 1.77778 1.77778 1.37981 1.77778 0.888889C1.77778 0.397969 1.37981 0 0.888889 0C0.397969 0 0 0.397969 0 0.888889C0 1.37981 0.397969 1.77778 0.888889 1.77778Z" transform="matrix(6.7561146E-08 1 -1 6.7561146E-08 2 38.555664)" id="Oval" fill="#9A9A9A" stroke="none" />
      <path d="M0.888889 1.77778C1.37981 1.77778 1.77778 1.37981 1.77778 0.888889C1.77778 0.397969 1.37981 0 0.888889 0C0.397969 0 0 0.397969 0 0.888889C0 1.37981 0.397969 1.77778 0.888889 1.77778Z" transform="matrix(6.7561146E-08 1 -1 6.7561146E-08 2 58.11133)" id="Oval" fill="#9A9A9A" stroke="none" />
      <path d="M0.888889 1.77778C1.37981 1.77778 1.77778 1.37981 1.77778 0.888889C1.77778 0.397969 1.37981 0 0.888889 0C0.397969 0 0 0.397969 0 0.888889C0 1.37981 0.397969 1.77778 0.888889 1.77778Z" transform="matrix(6.7561146E-08 1 -1 6.7561146E-08 2 77.66699)" id="Oval" fill="#9A9A9A" stroke="none" />
      <path d="M0.888889 1.77778C1.37981 1.77778 1.77778 1.37981 1.77778 0.888889C1.77778 0.397969 1.37981 0 0.888889 0C0.397969 0 0 0.397969 0 0.888889C0 1.37981 0.397969 1.77778 0.888889 1.77778Z" transform="matrix(6.7561146E-08 1 -1 6.7561146E-08 2 97.22266)" id="Oval" fill="#9A9A9A" stroke="none" />
      <path d="M0.888889 1.77778C1.37981 1.77778 1.77778 1.37981 1.77778 0.888889C1.77778 0.397969 1.37981 0 0.888889 0C0.397969 0 0 0.397969 0 0.888889C0 1.37981 0.397969 1.77778 0.888889 1.77778Z" transform="matrix(6.7561146E-08 1 -1 6.7561146E-08 2 116.77734)" id="Oval" fill="#9A9A9A" stroke="none" />
      <path d="M0.888889 1.77778C1.37981 1.77778 1.77778 1.37981 1.77778 0.888889C1.77778 0.397969 1.37981 0 0.888889 0C0.397969 0 0 0.397969 0 0.888889C0 1.37981 0.397969 1.77778 0.888889 1.77778Z" transform="matrix(6.7561146E-08 1 -1 6.7561146E-08 2 136.33301)" id="Oval" fill="#9A9A9A" stroke="none" />
      <path d="M0.888889 1.77778C1.37981 1.77778 1.77778 1.37981 1.77778 0.888889C1.77778 0.397969 1.37981 0 0.888889 0C0.397969 0 0 0.397969 0 0.888889C0 1.37981 0.397969 1.77778 0.888889 1.77778Z" transform="matrix(6.7561146E-08 1 -1 6.7561146E-08 2 155.88867)" id="Oval" fill="#9A9A9A" stroke="none" />
      <path d="M0.888889 1.77778C1.37981 1.77778 1.77778 1.37981 1.77778 0.888889C1.77778 0.397969 1.37981 0 0.888889 0C0.397969 0 0 0.397969 0 0.888889C0 1.37981 0.397969 1.77778 0.888889 1.77778Z" transform="matrix(6.7561146E-08 1 -1 6.7561146E-08 2 175.44434)" id="Oval" fill="#9A9A9A" stroke="none" />
      <path d="M0.888889 1.77778C1.37981 1.77778 1.77778 1.37981 1.77778 0.888889C1.77778 0.397969 1.37981 0 0.888889 0C0.397969 0 0 0.397969 0 0.888889C0 1.37981 0.397969 1.77778 0.888889 1.77778Z" transform="matrix(6.7561146E-08 1 -1 6.7561146E-08 2 195)" id="Oval" fill="#9A9A9A" stroke="none" />
      <path d="M0.888889 1.77778C1.37981 1.77778 1.77778 1.37981 1.77778 0.888889C1.77778 0.397969 1.37981 0 0.888889 0C0.397969 0 0 0.397969 0 0.888889C0 1.37981 0.397969 1.77778 0.888889 1.77778Z" transform="matrix(6.7561146E-08 1 -1 6.7561146E-08 2 214.55566)" id="Oval" fill="#9A9A9A" stroke="none" />
      <path d="M0.888889 1.77778C1.37981 1.77778 1.77778 1.37981 1.77778 0.888889C1.77778 0.397969 1.37981 0 0.888889 0C0.397969 0 0 0.397969 0 0.888889C0 1.37981 0.397969 1.77778 0.888889 1.77778Z" transform="matrix(6.7561146E-08 1 -1 6.7561146E-08 2 234.11133)" id="Oval" fill="#9A9A9A" stroke="none" />
      <path d="M0.888889 1.77778C1.37981 1.77778 1.77778 1.37981 1.77778 0.888889C1.77778 0.397969 1.37981 0 0.888889 0C0.397969 0 0 0.397969 0 0.888889C0 1.37981 0.397969 1.77778 0.888889 1.77778Z" transform="matrix(6.7561146E-08 1 -1 6.7561146E-08 233.11108 -0.55566406)" id="Oval" fill="#9A9A9A" stroke="none" />
      <path d="M0.888889 1.77778C1.37981 1.77778 1.77778 1.37981 1.77778 0.888889C1.77778 0.397969 1.37981 0 0.888889 0C0.397969 0 0 0.397969 0 0.888889C0 1.37981 0.397969 1.77778 0.888889 1.77778Z" transform="matrix(6.7561146E-08 1 -1 6.7561146E-08 233.11108 19)" id="Oval" fill="#9A9A9A" stroke="none" />
      <path d="M0.888889 1.77778C1.37981 1.77778 1.77778 1.37981 1.77778 0.888889C1.77778 0.397969 1.37981 0 0.888889 0C0.397969 0 0 0.397969 0 0.888889C0 1.37981 0.397969 1.77778 0.888889 1.77778Z" transform="matrix(6.7561146E-08 1 -1 6.7561146E-08 233.11108 38.555664)" id="Oval" fill="#9A9A9A" stroke="none" />
      <path d="M0.888889 1.77778C1.37981 1.77778 1.77778 1.37981 1.77778 0.888889C1.77778 0.397969 1.37981 0 0.888889 0C0.397969 0 0 0.397969 0 0.888889C0 1.37981 0.397969 1.77778 0.888889 1.77778Z" transform="matrix(6.7561146E-08 1 -1 6.7561146E-08 233.11108 58.11133)" id="Oval" fill="#9A9A9A" stroke="none" />
      <path d="M0.888889 1.77778C1.37981 1.77778 1.77778 1.37981 1.77778 0.888889C1.77778 0.397969 1.37981 0 0.888889 0C0.397969 0 0 0.397969 0 0.888889C0 1.37981 0.397969 1.77778 0.888889 1.77778Z" transform="matrix(6.7561146E-08 1 -1 6.7561146E-08 233.11108 77.66699)" id="Oval" fill="#9A9A9A" stroke="none" />
      <path d="M0.888889 1.77778C1.37981 1.77778 1.77778 1.37981 1.77778 0.888889C1.77778 0.397969 1.37981 0 0.888889 0C0.397969 0 0 0.397969 0 0.888889C0 1.37981 0.397969 1.77778 0.888889 1.77778Z" transform="matrix(6.7561146E-08 1 -1 6.7561146E-08 233.11108 97.22266)" id="Oval" fill="#9A9A9A" stroke="none" />
      <path d="M0.888889 1.77778C1.37981 1.77778 1.77778 1.37981 1.77778 0.888889C1.77778 0.397969 1.37981 0 0.888889 0C0.397969 0 0 0.397969 0 0.888889C0 1.37981 0.397969 1.77778 0.888889 1.77778Z" transform="matrix(6.7561146E-08 1 -1 6.7561146E-08 233.11108 116.77734)" id="Oval" fill="#9A9A9A" stroke="none" />
      <path d="M0.888889 1.77778C1.37981 1.77778 1.77778 1.37981 1.77778 0.888889C1.77778 0.397969 1.37981 0 0.888889 0C0.397969 0 0 0.397969 0 0.888889C0 1.37981 0.397969 1.77778 0.888889 1.77778Z" transform="matrix(6.7561146E-08 1 -1 6.7561146E-08 233.11108 136.33301)" id="Oval" fill="#9A9A9A" stroke="none" />
      <path d="M0.888889 1.77778C1.37981 1.77778 1.77778 1.37981 1.77778 0.888889C1.77778 0.397969 1.37981 0 0.888889 0C0.397969 0 0 0.397969 0 0.888889C0 1.37981 0.397969 1.77778 0.888889 1.77778Z" transform="matrix(6.7561146E-08 1 -1 6.7561146E-08 233.11108 155.88867)" id="Oval" fill="#9A9A9A" stroke="none" />
      <path d="M0.888889 1.77778C1.37981 1.77778 1.77778 1.37981 1.77778 0.888889C1.77778 0.397969 1.37981 0 0.888889 0C0.397969 0 0 0.397969 0 0.888889C0 1.37981 0.397969 1.77778 0.888889 1.77778Z" transform="matrix(6.7561146E-08 1 -1 6.7561146E-08 233.11108 175.44434)" id="Oval" fill="#9A9A9A" stroke="none" />
      <path d="M0.888889 1.77778C1.37981 1.77778 1.77778 1.37981 1.77778 0.888889C1.77778 0.397969 1.37981 0 0.888889 0C0.397969 0 0 0.397969 0 0.888889C0 1.37981 0.397969 1.77778 0.888889 1.77778Z" transform="matrix(6.7561146E-08 1 -1 6.7561146E-08 233.11108 195)" id="Oval" fill="#9A9A9A" stroke="none" />
      <path d="M0.888889 1.77778C1.37981 1.77778 1.77778 1.37981 1.77778 0.888889C1.77778 0.397969 1.37981 0 0.888889 0C0.397969 0 0 0.397969 0 0.888889C0 1.37981 0.397969 1.77778 0.888889 1.77778Z" transform="matrix(6.7561146E-08 1 -1 6.7561146E-08 233.11108 214.55566)" id="Oval" fill="#9A9A9A" stroke="none" />
      <path d="M0.888889 1.77778C1.37981 1.77778 1.77778 1.37981 1.77778 0.888889C1.77778 0.397969 1.37981 0 0.888889 0C0.397969 0 0 0.397969 0 0.888889C0 1.37981 0.397969 1.77778 0.888889 1.77778Z" transform="matrix(6.7561146E-08 1 -1 6.7561146E-08 233.11108 234.11133)" id="Oval" fill="#9A9A9A" stroke="none" />
    </g>
  </g>
</svg>