<svg width="78" height="60" viewBox="0 0 78 60" fill="none" xmlns="http://www.w3.org/2000/svg">
<path fill-rule="evenodd" clip-rule="evenodd" d="M76.155 56.7956C76.1826 56.6563 76.0844 56.6437 75.9798 56.636C75.9782 56.5835 75.9764 56.5295 75.9747 56.4755C76.1202 56.5026 76.1336 56.409 76.1394 56.3086C76.196 56.3073 76.2527 56.3059 76.3093 56.3046C76.2833 56.4431 76.3807 56.4557 76.4852 56.4634C76.487 56.5174 76.4887 56.5714 76.4904 56.6239C76.3442 56.5984 76.3315 56.6919 76.3249 56.7916C76.2682 56.7929 76.2116 56.7943 76.155 56.7956ZM75.7797 55.6691C75.6987 55.4728 75.515 55.38 75.5892 55.0264C76.019 54.9825 75.7589 55.6344 76.2835 55.4966C76.3724 55.7859 75.9531 55.618 75.7797 55.6691ZM71.6994 50.2582C71.702 50.8529 71.5281 50.7332 71.7305 51.2291C71.2459 51.0525 71.5531 51.5922 71.2327 51.5645C71.1631 50.9268 71.408 50.5715 71.6994 50.2582ZM70.6661 49.7953C70.836 49.7913 71.0059 49.7873 71.1758 49.7832C71.0872 50.0188 70.9208 50.1834 70.6817 50.2823C70.6765 50.1203 70.6713 49.959 70.6661 49.7953ZM69.9985 50.1363C70.1362 49.7154 70.0662 49.5282 69.9623 49.0026C70.3266 48.9133 70.4355 49.0831 70.6454 49.1486C70.5026 49.4356 70.1312 49.6372 70.5023 49.963C70.2613 49.9546 70.3452 50.2402 69.9985 50.1363ZM67.6811 46.7083C67.906 46.3441 67.6494 46.0509 67.4775 45.6593C67.8521 45.6849 67.6666 45.2019 67.9709 45.1626C67.8469 45.6772 68.2465 45.6638 68.5005 45.798C68.2741 46.1693 68.4047 46.8628 67.8587 46.9478C67.8989 46.7659 67.6933 46.8358 67.6811 46.7083ZM67.6267 45.007C67.7328 44.6785 67.4347 44.7561 67.4413 44.5271C67.6822 44.5065 67.6158 44.7964 67.9553 44.6756C67.9588 44.7836 67.9622 44.8917 67.9657 44.9989C67.8524 45.0016 67.7391 45.0043 67.6267 45.007ZM66.0984 45.0432C66.1296 44.8622 66.2394 44.7515 66.4279 44.7118C66.4313 44.8198 66.4348 44.9279 66.4382 45.0351C66.3249 45.0378 66.2117 45.0405 66.0984 45.0432ZM64.6589 42.4869C64.6555 42.378 64.652 42.2708 64.6485 42.1619C65.0399 42.0461 64.9403 42.4246 65.3325 42.3079C65.3359 42.4152 65.3394 42.5232 65.3428 42.6313C64.9507 42.7487 65.0503 42.3702 64.6589 42.4869ZM66.0001 41.9685C65.9546 42.1365 66.1551 42.5266 65.8466 42.4587C65.8921 42.2892 65.6915 41.8982 66.0001 41.9685ZM62.4165 41.4054C62.5297 41.4027 62.643 41.4 62.7546 41.3974C62.7243 41.5791 62.6153 41.6891 62.4268 41.7288C62.4233 41.6207 62.4199 41.5135 62.4165 41.4054ZM63.4239 41.0571C63.4273 41.166 63.4308 41.2732 63.4342 41.3813C63.3209 41.384 63.2077 41.3867 63.0944 41.3893C63.0198 41.1122 63.1297 41.0014 63.4239 41.0571ZM61.1555 39.1661C61.0624 38.9246 61.3397 39.0184 61.4893 38.9968C61.3926 39.26 61.7663 39.0521 61.6696 39.3169C61.4296 39.3367 61.495 39.0468 61.1555 39.1661ZM58.3783 37.2879C58.0308 37.1833 58.1155 37.4705 57.8746 37.4621C57.8711 37.354 57.8677 37.2468 57.8642 37.1379C58.2109 37.2425 58.127 36.9554 58.368 36.9646C58.3714 37.0726 58.3749 37.1807 58.3783 37.2879ZM57.3693 37.6362C57.3783 37.4064 57.0777 37.4849 57.1846 37.154C57.525 37.0347 57.4595 37.3238 57.6979 37.3041C57.6667 37.4858 57.5577 37.5965 57.3693 37.6362ZM58.2291 37.9395C57.9053 37.9871 57.7766 37.8397 57.7082 37.6282C57.8513 37.7627 58.1887 37.7022 58.2291 37.9395ZM55.6322 36.3822C55.3912 36.3997 55.4576 36.1129 55.1164 36.2307C55.1476 36.0489 55.2574 35.939 55.4467 35.8992C55.4385 36.1306 55.7382 36.0506 55.6322 36.3822ZM54.2479 35.604C54.4309 35.3685 54.4085 35.2061 54.0624 35.1218C54.2164 34.4145 53.9033 34.2284 54.1884 33.7429C54.1706 33.6477 54.0303 33.6785 53.9305 33.6668C53.8172 33.6945 53.8672 33.8704 53.8572 33.9937C53.5168 34.1122 53.5832 33.8246 53.3423 33.8429C53.419 33.5198 53.7207 33.399 53.6536 32.9438C53.6239 32.8356 53.4381 32.8831 53.3112 32.872C53.2392 32.6238 53.6003 32.7657 53.4682 32.464C53.2522 32.2082 52.9129 32.076 52.7653 31.7504C52.9088 31.7172 52.9274 31.8092 52.9412 31.9092C53.2177 32.0014 52.9976 31.6438 53.275 31.7383C53.1783 32.0023 53.552 31.7944 53.4552 32.0576C53.7334 32.1513 53.5118 31.7954 53.7899 31.8891C53.8865 31.6227 53.513 31.8329 53.6096 31.5682C53.7221 31.5655 53.8354 31.5628 53.9486 31.5601C53.9573 31.9102 53.7774 32.0876 53.6329 32.2971C53.7239 32.523 54.0247 32.2949 54.0531 32.2064C54.325 32.1828 54.4259 32.3339 54.4886 32.5205C54.3753 32.5232 54.2629 32.5259 54.1496 32.5285C54.0549 32.957 54.4846 32.8591 54.5093 33.168C54.314 33.2275 54.1577 33.3213 54.1832 33.5793C54.1996 33.7591 54.5446 33.606 54.6947 33.6486C54.7312 33.9181 54.7237 34.1463 54.5429 34.2195C54.6883 34.3227 54.7342 34.5276 55.0595 34.4502C55.2527 35.1485 54.5104 35.0023 54.5869 35.596C54.4736 35.5987 54.3611 35.6013 54.2479 35.604ZM51.9744 33.5517C51.899 33.2745 52.0096 33.1638 52.303 33.2203C52.3064 33.3276 52.3099 33.4356 52.3134 33.5437C52.2001 33.5463 52.0876 33.549 51.9744 33.5517ZM52.9516 32.2325C52.8114 32.4733 52.7093 32.7484 52.2875 32.7341C52.3304 32.4055 52.7277 32.3977 52.9516 32.2325ZM51.7631 32.2607C51.8764 32.258 51.9888 32.2554 52.1021 32.2527C52.1055 32.3607 52.109 32.4688 52.1124 32.5768C51.9217 32.5461 51.8058 32.4407 51.7631 32.2607ZM50.3944 31.9695C50.6203 32.0222 50.7825 32.1359 50.7505 32.4453C50.5254 32.3943 50.3624 32.279 50.3944 31.9695ZM50.2054 31.3252C50.7124 31.2035 50.7221 31.5841 51.2283 31.4632C51.1287 31.8416 51.5185 31.7274 51.4189 32.1059C51.0987 31.9834 50.7858 31.8537 50.3892 31.8067C50.4961 31.4766 50.1979 31.555 50.2054 31.3252ZM52.0659 31.1197C52.0141 30.8107 52.1695 30.6879 52.3909 30.6254C52.3961 30.7875 52.4013 30.9488 52.4065 31.1117C52.2924 31.1144 52.1791 31.117 52.0659 31.1197ZM50.3581 30.8358C50.528 30.8318 50.6988 30.8277 50.8687 30.8237C50.9821 31.0827 50.5957 30.8929 50.7091 31.1519C50.5192 31.1203 50.4016 31.015 50.3581 30.8358ZM51.1973 30.4923C51.2285 30.3106 51.3375 30.1999 51.5259 30.1601C51.4263 30.5394 51.8161 30.4251 51.7165 30.8036C51.4247 30.8207 51.4892 30.4752 51.1973 30.4923ZM49.5051 30.6938C49.3917 30.434 49.7781 30.6262 49.6646 30.3649C50.3292 30.5466 50.0701 29.8937 50.497 29.8609C50.5021 30.0214 50.5073 30.1843 50.5125 30.3448C50.264 30.3569 50.2701 30.5989 50.0993 30.6797C49.715 30.6301 49.8133 30.4679 49.5051 30.6938ZM48.4615 29.9091C48.337 29.5344 48.7344 29.6316 48.6107 29.2568C49.0382 29.2702 48.9072 29.8484 49.1446 30.0536C48.7541 30.171 48.8528 29.7925 48.4615 29.9091ZM51.7528 31.9373C51.8413 31.7017 52.0061 31.5372 52.2461 31.4391C52.1575 31.6731 51.9928 31.8392 51.7528 31.9373ZM55.3691 33.4712C55.2558 33.4739 55.1434 33.4766 55.0285 33.4793C55.0596 33.2976 55.1695 33.1868 55.3588 33.1479C55.3622 33.2551 55.3657 33.3632 55.3691 33.4712ZM56.4024 33.9333C56.2891 33.936 56.1759 33.9387 56.0634 33.9414C56.0938 33.7597 56.2036 33.6497 56.392 33.6084C56.3955 33.718 56.3989 33.8245 56.4024 33.9333ZM56.7621 34.5728C56.8519 34.863 56.4316 34.6935 56.2584 34.7462C56.1686 34.456 56.5888 34.6247 56.7621 34.5728ZM48.2183 27.6457C48.5367 27.6609 48.7841 27.7436 48.9082 27.953C48.4201 27.9207 48.3302 28.0113 48.5796 28.2844C48.2844 28.2491 48.1833 28.0148 48.2183 27.6457ZM45.1117 26.0997C45.2266 26.097 45.3374 26.0944 45.4515 26.0917C45.4549 26.1997 45.4584 26.3078 45.4618 26.4151C45.2711 26.3843 45.1544 26.2797 45.1117 26.0997ZM42.5346 25.1892C42.6487 25.1865 42.7611 25.1838 42.8744 25.1812C42.844 25.3629 42.735 25.4736 42.5449 25.5134C42.5415 25.4053 42.538 25.2973 42.5346 25.1892ZM41.6875 25.2093C41.8 25.2066 41.9132 25.2039 42.0265 25.2012C42.03 25.3093 42.0334 25.4173 42.0369 25.5254C41.8461 25.4947 41.7302 25.3893 41.6875 25.2093ZM40.7974 23.9328C40.7068 23.6435 41.1278 23.8114 41.3012 23.7602C41.3909 24.0488 40.9707 23.8809 40.7974 23.9328ZM39.2234 22.5119C39.1797 22.8405 38.7824 22.8491 38.5601 23.0142C38.4315 22.6897 38.7366 22.7538 38.7129 22.524C38.8828 22.52 39.0535 22.5159 39.2234 22.5119ZM38.1782 21.7281C38.6268 21.708 38.5418 21.9772 38.8569 21.712C38.8604 21.8192 38.8638 21.9273 38.8673 22.0353C38.483 22.0899 38.2338 22.0049 38.1782 21.7281ZM35.2155 19.3677C35.2121 19.2596 35.2086 19.1516 35.2052 19.0443C35.5463 18.9234 35.4792 19.2133 35.7208 19.1927C35.809 19.4845 35.3895 19.3134 35.2155 19.3677ZM35.3492 18.2299C35.7776 18.2448 35.7967 18.8415 35.3699 18.8774C35.363 18.6613 35.3561 18.4452 35.3492 18.2299ZM32.6496 18.7805C32.5371 18.7832 32.423 18.7859 32.3106 18.7885C32.3417 18.606 32.4516 18.4961 32.6392 18.4563C32.6427 18.5636 32.6461 18.6717 32.6496 18.7805ZM30.91 17.5241C30.8354 17.247 30.9461 17.137 31.2403 17.1927C31.2437 17.3 31.2472 17.4088 31.2506 17.5161C31.1373 17.5188 31.0232 17.5215 30.91 17.5241ZM27.8153 16.3023C27.8119 16.1942 27.8084 16.0862 27.805 15.9781C27.9174 15.9755 28.0307 15.9728 28.1439 15.9701C28.1128 16.1518 28.003 16.2626 27.8153 16.3023ZM29.1366 15.1356C29.4842 15.241 29.3986 14.9539 29.6412 14.963C29.6625 15.1913 29.3582 15.128 29.486 15.4525C29.2961 15.4209 29.1802 15.3156 29.1366 15.1356ZM26.5889 15.196C26.5838 15.0355 26.5786 14.8726 26.5735 14.7121C27.1061 14.8781 26.7118 14.2073 27.2443 14.371C27.3807 14.7306 27.0036 14.6267 27.0925 14.9419C27.2844 15.1865 27.6244 14.9042 27.7687 14.8444C27.8637 15.1932 27.6879 15.2961 27.6195 15.4967C27.266 15.4087 27.1161 15.1122 26.5889 15.196ZM26.7243 14.0597C26.7495 13.8209 27.0902 13.8654 27.2237 13.7243C27.199 14.0822 27.7035 13.9072 27.748 14.1969C27.3532 14.2047 27.233 13.9388 26.7243 14.0597ZM26.2043 13.7485C26.3453 13.6135 26.2792 13.2906 26.5269 13.2542C26.5321 13.4163 26.5372 13.5784 26.5424 13.7404C26.4308 13.7431 26.3183 13.7457 26.2043 13.7485ZM28.5804 13.6921C28.4207 13.9137 28.4345 14.2927 28.0922 14.3509C28.0836 14.0816 28.075 13.8122 28.0663 13.5421C28.3064 13.5223 28.24 13.8115 28.5804 13.6921ZM29.116 14.4889C28.9252 14.4581 28.8093 14.3527 28.7658 14.1728C28.8198 13.9599 28.938 13.8051 29.2652 13.8373C29.3609 14.1869 29.1835 14.289 29.116 14.4889ZM24.9915 12.967C24.9009 12.6753 25.3212 12.8463 25.4944 12.7921C25.5842 13.0838 25.1648 12.9127 24.9915 12.967ZM22.1005 12.8725C22.0622 12.524 22.2269 12.3571 22.5955 12.375C22.4325 12.5442 22.2686 12.7103 22.1005 12.8725ZM23.1243 13.0112C23.2174 13.2527 22.9393 13.159 22.7904 13.1798C22.787 13.0725 22.7835 12.9645 22.7801 12.8564C23.0518 12.7497 22.8517 13.1188 23.1243 13.0112ZM21.8996 11.9057C21.8961 11.7976 21.8927 11.6904 21.8892 11.5823C22.2295 11.4614 22.1632 11.7513 22.4041 11.7315C22.4939 12.0225 22.072 11.853 21.8996 11.9057ZM21.5235 10.78C21.8719 10.8846 21.7871 10.5982 22.0281 10.6074C22.0806 10.7848 21.8693 10.7264 21.8659 10.8534C21.9523 10.9344 22.0394 11.0138 22.1289 11.0893C22.3538 11.1106 22.0348 10.6386 22.373 10.7599C22.4967 11.1346 22.0993 11.0375 22.223 11.4122C21.6984 11.4967 21.4649 11.286 21.5235 10.78ZM20.1771 11.1355C20.2904 11.1328 20.4028 11.1302 20.5153 11.1275C20.485 11.3108 20.3759 11.4199 20.1875 11.4605C20.1841 11.3532 20.1806 11.2451 20.1771 11.1355ZM19.8123 10.3363C19.9256 10.3336 20.0364 10.331 20.1513 10.3283C20.203 10.6358 20.0476 10.7586 19.8278 10.8202C19.8227 10.6597 19.8175 10.4968 19.8123 10.3363ZM21.6719 10.1285C21.8022 10.4545 21.4971 10.3889 21.5184 10.6195C21.3761 10.485 21.0396 10.5454 20.9992 10.3082C21.1691 10.3042 21.3382 10.3002 21.5081 10.2961C21.4741 10.1583 21.5696 10.1411 21.6719 10.1285ZM17.0637 9.42829C16.9537 9.43089 16.838 9.43364 16.7247 9.43632C16.7558 9.25458 16.8664 9.14305 17.0533 9.10336C17.0568 9.21219 17.0602 9.32024 17.0637 9.42829ZM17.5431 8.44375C17.8141 8.3386 17.6164 8.70607 17.889 8.59932C17.857 8.78107 17.7463 8.89104 17.5587 8.93075C17.5535 8.7679 17.5483 8.60739 17.5431 8.44375ZM12.79 8.55639C12.7831 8.34108 12.7762 8.12498 12.7693 7.90967C12.9801 7.97598 13.089 8.14578 13.4541 8.05642C13.4129 8.38414 13.0156 8.39355 12.79 8.55639ZM14.6883 9.48458C14.4433 9.39871 14.2674 9.2399 14.1648 9.01119C14.4106 9.09703 14.5857 9.25508 14.6883 9.48458ZM19.4501 9.69534C19.5642 9.69263 19.6775 9.68995 19.7916 9.68725C19.795 9.7953 19.7985 9.90334 19.802 10.0122C19.6104 9.98067 19.4945 9.87529 19.4501 9.69534ZM76.744 56.6179C76.8386 56.7755 76.9243 56.938 77.0148 57.0988C77.3064 56.9438 77.5903 56.7812 77.4978 56.2764C77.3702 56.2669 77.1861 56.3143 77.1554 56.2046C77.168 56.0836 77.3583 56.1254 77.4927 56.1159C77.3223 55.6177 76.9046 55.3714 76.7717 54.8362C76.6216 54.7935 76.2758 54.9459 76.2602 54.7668C76.2931 54.6391 76.5247 54.6924 76.4206 54.4394C76.1983 54.2433 75.961 54.0656 75.5581 54.0555C75.5472 54.1757 75.598 54.3531 75.4831 54.3809C75.1595 53.815 74.733 55.0193 74.3816 54.407C75.0233 54.5148 74.8936 53.9256 75.383 53.8959C75.49 53.5674 75.191 53.6443 75.1985 53.4161C75.6067 53.723 75.7222 53.3034 76.1368 53.5545C76.2534 53.3723 76.5044 53.3115 76.5448 53.059C76.3379 52.8798 75.9382 52.8916 75.5219 52.9218C75.511 53.042 75.5618 53.2194 75.4469 53.2472C75.3623 53.2492 75.277 53.2512 75.1933 53.2532C75.1542 52.9047 75.3189 52.7378 75.6866 52.7557C75.7569 52.4618 75.349 52.6509 75.1726 52.6057C75.1975 53.1528 74.6945 53.2227 74.3506 53.4362C74.3115 53.0861 74.4762 52.9207 74.8431 52.9379C74.95 52.6078 74.6511 52.6862 74.6585 52.4565C74.9932 52.3913 74.9854 52.0178 75.321 51.955C75.3244 52.063 75.3279 52.1703 75.3313 52.2783C75.5198 52.2386 75.6296 52.1279 75.6608 51.9469C75.6682 51.7156 75.3685 51.7956 75.4753 51.4639C75.1668 51.4736 75.2059 51.7971 75.0665 51.961C74.8059 51.2346 73.9658 51.9832 73.4545 51.9992C73.6484 52.489 73.2122 52.4093 73.1354 52.654C73.4821 52.7578 73.3982 52.4722 73.6391 52.4806C73.5147 52.8025 74.0069 52.5009 73.9867 52.7145C73.6827 53.0477 74.2407 53.4403 73.9409 53.9301C73.8663 53.5754 73.5922 53.5576 73.3415 53.7837C73.2729 53.4617 72.8805 53.4687 72.8119 53.1475C73.0181 52.6599 72.8422 52.5771 72.9396 51.8476C72.7961 51.9075 72.4561 52.1905 72.2635 51.9467C72.6615 51.8597 72.6537 51.4078 72.7447 51.0428C72.5946 51.0002 72.2496 51.1525 72.2324 50.9735C72.3947 50.8858 72.5662 50.8034 72.7343 50.7195C72.6533 50.5232 72.4696 50.428 72.5438 50.076C72.6938 50.1195 73.0388 49.9663 73.0553 50.1462C73.145 50.4614 72.7679 50.3559 72.9034 50.7155C73.0167 50.7128 73.13 50.7101 73.2432 50.7074C73.2871 50.5646 73.1254 50.2346 73.3131 50.22C73.382 50.3461 73.5869 50.3334 73.577 50.5373C73.3547 50.7526 73.3724 51.3054 73.6081 51.5082C73.8912 51.5015 74.1752 51.4948 74.4567 51.4881C74.4388 51.2096 74.7998 51.2747 74.781 50.9946C74.4371 50.9252 74.2418 51.3929 73.9349 51.0961C73.8029 50.7929 74.1639 50.9356 74.0927 50.6873C73.5731 50.5178 73.608 49.1685 72.8723 49.743C73.3749 49.3025 72.4176 49.1364 72.8413 48.7722C72.0999 48.6518 72.1815 49.2775 71.934 49.6046C71.8095 49.5629 71.4996 49.7098 71.5071 49.5333C71.5045 49.4518 71.5019 49.3712 71.4993 49.2913C71.9203 49.3041 72.0241 49.0305 72.1625 48.7882C71.8916 48.8957 72.0894 48.5291 71.8192 48.635C71.5766 48.6266 71.6614 48.9137 71.3139 48.8084C71.3104 48.7011 71.307 48.593 71.3035 48.485C71.1533 48.6406 70.5326 48.7799 70.2883 48.5898C70.2206 48.3203 70.4555 48.3202 70.5307 48.1797C70.6345 48.2674 70.6907 48.4071 70.9594 48.331C70.6948 48.0967 70.4389 47.8528 70.2548 47.539C70.0121 47.5291 70.0977 47.8162 69.751 47.7108C69.7476 47.6043 69.7441 47.4955 69.7406 47.3875C70.2556 47.5649 69.9492 47.0009 70.1487 46.8935C70.342 47.0041 70.4764 47.1757 70.4247 47.535C70.5379 47.5323 70.6512 47.5296 70.7636 47.527C70.6863 46.8808 70.0472 46.8004 69.8743 46.2505C69.7044 46.2545 69.5354 46.2585 69.3638 46.2626C69.871 46.4801 69.3942 46.674 69.7303 47.0641C69.6179 47.0668 69.503 47.0695 69.3897 47.0722C69.4048 46.3885 68.8725 46.2578 68.6704 45.794C68.8072 45.6019 68.8771 45.3503 68.8143 44.9788C68.6635 44.9377 68.3184 45.0885 68.3021 44.911C68.2291 44.5045 68.7516 44.6355 68.6186 44.174C68.3293 44.2451 68.2117 44.139 68.2685 43.8587C67.8779 43.8202 67.6176 43.8992 67.4258 44.0409C67.4719 43.6606 67.1154 43.6839 67.23 43.2346C66.9367 43.2337 67.024 43.5732 66.7306 43.5708C66.708 43.4271 66.8047 43.1639 66.5512 43.2506C66.4206 43.5852 66.9675 43.6568 66.6565 43.8969C66.415 43.6652 65.8131 43.8002 65.7077 43.4336C65.6616 43.9699 65.2229 44.148 64.8892 44.4246C64.6985 44.3939 64.5826 44.2885 64.5399 44.1093C65.1435 44.1302 65.4189 43.8534 65.3635 43.2788C65.8759 43.3756 65.6887 42.8393 66.201 42.9345C66.4231 42.4302 66.3195 41.707 65.8155 41.4871C65.655 41.7079 65.6671 42.0869 65.3273 42.1458C65.3239 42.0378 65.3204 41.9297 65.317 41.8225C65.1449 41.8078 64.9838 42.1916 64.8091 41.916C64.902 41.8159 65.0481 41.7622 64.966 41.5072C64.5154 41.4137 64.6222 41.8248 64.2976 41.8466C64.2458 41.5376 64.4013 41.4164 64.6227 41.3531C64.4215 41.122 64.4158 40.9435 64.602 40.7056C64.3498 40.6787 64.3962 40.3571 64.2458 40.2275C64.1015 40.2857 63.7623 40.5688 63.5705 40.325C63.5644 40.1355 63.5584 39.9476 63.5524 39.7581C63.2588 39.7737 63.3259 39.4305 63.0323 39.446C63.0715 39.8761 63.087 40.2824 62.6338 40.2657C62.5058 40.0877 62.2504 40.0397 62.194 39.7903C62.0814 39.5305 62.467 39.7219 62.3543 39.4621C62.1414 39.4813 62.1425 39.2853 62.006 39.2282C62.1868 39.1534 62.1934 38.9253 62.1578 38.6573C61.8703 38.5286 61.5837 38.4014 61.2961 38.2719C61.4355 38.162 61.4667 37.9544 61.7973 38.0187C61.8007 38.1244 61.8042 38.234 61.8076 38.342C61.9209 38.3394 62.0342 38.3367 62.1474 38.334C61.9683 38.1251 61.9617 37.7405 61.7817 37.5317C61.3195 37.6656 61.3258 37.3239 60.9287 37.3897C60.9252 37.2816 60.9218 37.1744 60.9183 37.0655C60.6926 37.0709 60.4645 37.0763 60.2404 37.0816C60.26 36.9229 60.1204 36.9246 60.0627 36.8429C60.1557 36.7436 60.3002 36.69 60.2197 36.4341C59.6926 36.5195 59.46 36.3087 59.5186 35.8027C59.2929 35.8081 59.0663 35.8134 58.8398 35.8188C58.5541 35.4393 58.3457 34.9819 57.7918 34.872C57.7185 35.2256 57.9006 35.3192 57.9824 35.5155C57.4962 35.3382 57.8043 35.8786 57.4839 35.8509C57.3544 35.5265 57.6579 35.5906 57.6358 35.3615C57.4323 35.3178 57.0243 35.4779 56.9552 35.2962C57.3068 35.1672 57.4867 34.8871 57.4373 34.3938C57.1985 34.271 56.8952 34.2155 56.744 34.006C56.8512 33.8138 57.1588 33.8026 57.0657 33.431C56.657 33.3412 56.281 33.2185 55.7029 33.3011C55.7224 33.1408 55.5837 33.1433 55.5261 33.0632C55.5277 32.9347 55.7391 32.9939 55.6874 32.8157C55.4822 32.7704 55.075 32.9313 55.0052 32.7512C54.8731 32.4471 55.2342 32.5906 55.1629 32.3408C54.7144 32.2088 54.417 31.9243 54.1211 31.6383C54.1244 31.5097 54.3358 31.5698 54.2824 31.3908C54.0828 31.26 53.8169 31.1918 53.4294 31.2488C53.1483 30.8073 52.8108 30.4235 52.5393 29.9731C52.4 30.0877 51.9079 30.2898 51.6932 30.0747C51.5612 29.7722 51.9214 29.9141 51.8502 29.6659C51.5126 29.6159 51.7711 28.9657 51.3206 29.0304C51.1238 29.2208 50.7257 29.2279 50.3064 29.2166C50.3581 29.5249 50.2035 29.6469 49.9829 29.7101C49.9778 29.5496 49.9726 29.3867 49.9674 29.2247C49.7486 29.3944 49.3479 29.3984 49.1291 29.5697C49.13 29.2892 48.7744 29.3697 48.7746 29.0907C49.0447 28.984 48.8478 29.3515 49.1187 29.2448C48.9506 28.969 48.9529 29.0411 49.1032 28.7593C48.9755 28.7483 48.7914 28.7957 48.7617 28.6875C48.8039 28.5682 48.649 28.2702 48.8349 28.2783C49.4282 28.5432 49.8034 29.0287 50.8066 28.8812C50.5435 28.5897 49.876 28.7042 49.9312 28.0917C49.4671 28.1427 49.4485 27.7419 49.0696 27.707C49.0635 27.5176 49.0575 27.3297 49.0515 27.1417C48.6752 27.2674 48.7837 26.9083 48.452 26.9922C48.2417 27.1429 48.0659 27.3226 47.6991 27.3344C47.5326 27.6518 48.0649 27.6768 47.8 27.8186C47.6719 27.6132 47.3496 27.6036 47.3567 27.2618C47.5425 27.1391 47.5915 26.8974 47.8543 26.8442C47.743 26.5248 47.344 26.5311 47.6629 26.2007C47.56 26.1953 47.4602 26.182 47.4878 26.0434C46.9993 26.2572 46.6039 26.5564 46.0664 26.7251C45.8379 26.5926 45.7623 26.3076 45.6222 26.0876C45.7921 26.0836 45.9603 26.0796 46.1311 26.0756C46.1345 26.1836 46.138 26.2917 46.1414 26.3989C46.4643 26.3764 46.3592 25.966 46.809 26.0595C46.8056 25.9523 46.8021 25.8434 46.7987 25.7362C46.6862 25.7388 46.573 25.7415 46.4597 25.7442C46.4496 25.8651 46.4996 26.0418 46.3847 26.0696C46.2017 25.8193 45.8985 25.6368 45.617 25.9256C45.6722 25.6743 45.3208 25.8339 45.4333 25.5248C45.5136 25.4399 45.5964 25.358 45.68 25.2753C45.8148 25.2791 45.7539 25.4804 45.9397 25.4329C46.0921 24.8322 45.5125 24.9705 45.5704 24.4685C45.4555 24.4712 45.3431 24.4739 45.2298 24.4765C45.3108 24.6729 45.4946 24.768 45.4204 25.1208C45.2319 25.2373 44.9716 25.2905 44.8374 25.459C44.812 25.2042 44.3394 25.4027 44.2353 25.2296C44.6114 25.1752 44.6019 24.7751 45.0702 24.8039C45.2534 24.342 44.6886 24.6328 44.7157 24.3265C44.474 24.3189 44.5587 24.6037 44.212 24.5007C44.106 24.8307 44.4041 24.7523 44.3966 24.9821C44.1193 24.8884 44.341 25.2459 44.0629 25.153C44.1536 24.4958 43.7736 24.3277 44.0241 23.9394C44.0126 23.8112 43.8053 23.8788 43.8472 23.6999C43.4302 24.0937 42.8771 23.6978 42.6476 23.4047C42.6028 23.5985 42.773 23.9886 42.5845 24.0534C42.114 23.8765 42.0293 23.6435 41.4762 23.9167C41.3805 23.4152 41.8178 23.2716 41.4452 22.9458C41.7681 22.8975 41.8969 23.0464 41.9644 23.2572C42.2525 23.0983 42.1762 23.1001 42.4724 23.2451C42.5794 22.9151 42.2812 22.9934 42.2879 22.7637C42.0469 22.7553 42.1308 23.0424 41.7841 22.9378C41.7807 22.8298 41.7772 22.7217 41.7738 22.6145C41.51 22.5596 41.6793 22.8949 41.3546 22.7858C41.2651 22.7088 41.1788 22.6301 41.0916 22.5499C41.1245 22.4206 41.3578 22.4731 41.252 22.2225C41.0185 21.9844 40.555 21.9773 40.7147 21.3436C40.4873 21.3489 40.2616 21.3543 40.0351 21.3597C39.9617 21.7116 40.1446 21.8068 40.2248 22.0032C39.8451 21.6611 39.6674 22.2945 39.2182 22.3506C39.3149 22.0858 38.9413 22.2945 39.038 22.0313C39.2062 22.0508 39.2027 21.9169 39.288 21.8624C39.4212 21.8663 39.3604 22.0691 39.5469 22.0192C39.4105 21.6589 39.7876 21.7651 39.6987 21.4483C39.1983 21.367 39.5256 20.4534 38.9862 20.4113C38.7986 20.451 38.6888 20.5618 38.656 20.7436C38.8728 21.0009 38.6524 21.325 38.768 21.5503C38.7301 21.3671 38.4248 21.4511 38.3351 21.3185C38.2233 20.981 38.4617 20.9605 38.4877 20.7475C38.36 20.7365 38.1743 20.784 38.1445 20.6758C38.2196 20.5071 38.4733 20.5011 38.4722 20.2621C38.1555 20.2743 38.2471 19.8757 37.8676 19.9528C37.6419 19.9315 37.9617 20.4051 37.6227 20.2822C37.7228 19.7917 37.4371 19.6919 37.4226 19.3154C36.9809 19.4261 37.078 18.9944 36.8982 18.8412C36.6564 18.8344 36.7411 19.1176 36.3945 19.0161C36.299 19.4454 36.7286 19.3451 36.7542 19.6556C36.6122 19.7898 36.6792 20.1111 36.4307 20.1483C36.3053 19.7736 36.7027 19.8707 36.5782 19.496C36.142 19.5714 35.9485 18.9671 36.1289 18.698C36.4605 18.6142 36.3521 18.974 36.7283 18.8452C36.8278 18.466 36.4364 18.5803 36.5368 18.2018C36.1216 18.1889 35.9972 17.9184 35.6898 18.2218C35.6972 17.9921 35.3967 18.0705 35.5036 17.7405C34.9044 17.7304 34.8624 17.1617 34.1305 17.2872C34.1331 17.3678 34.1356 17.4477 34.1382 17.5291C34.0853 17.7498 34.5369 17.4617 34.4832 17.6832C34.4317 18.0495 34.2635 17.9548 34.5013 18.25C34.2232 18.1563 34.444 18.5131 34.1667 18.4201C34.1615 18.2581 34.1563 18.096 34.1512 17.9339C33.8072 17.8645 33.6111 18.3314 33.305 18.0347C33.4453 17.8221 33.7301 17.7386 33.795 17.4558C33.6267 17.4598 33.4585 17.4638 33.2869 17.4678C33.3693 17.8851 32.9584 17.8533 32.709 17.9681C32.6393 17.842 32.4352 17.8547 32.4443 17.6508C32.33 17.391 32.7164 17.5816 32.603 17.3234C32.3103 17.339 32.3757 16.995 32.0846 17.0113C31.8064 16.9176 32.0281 17.2743 31.75 17.1806C31.8752 16.858 31.3814 17.1619 31.4016 16.9468C31.5392 16.8072 31.677 16.6699 31.813 16.5311C32.402 16.7123 32.4491 16.4142 32.9221 16.6678C32.9039 15.7875 31.8202 16.4244 31.3886 16.5412C31.3674 16.338 31.5736 16.3409 31.6336 16.2118C31.8314 16.2071 32.0292 16.2024 32.2278 16.1977C32.3338 15.8661 32.035 15.946 32.0432 15.7163C31.8362 15.7925 31.7382 15.9656 31.3679 15.8937C31.3628 15.7324 31.3576 15.5703 31.3524 15.4082C30.895 15.3352 30.9182 15.6991 30.7729 15.9078C30.7492 15.6553 30.2766 15.8522 30.1725 15.6783C30.1699 15.5985 30.1673 15.517 30.1648 15.4364C30.4911 15.4694 30.6094 15.3146 30.6633 15.0994C30.3404 15.1478 30.2108 15.0004 30.1441 14.7881C29.8659 14.6944 30.0885 15.0535 29.8103 14.959C29.7293 14.7627 29.5455 14.6667 29.6205 14.3147C29.7896 14.3107 29.9595 14.3067 30.1285 14.3027C29.8365 13.5958 28.5983 13.8422 28.3898 13.0471C28.0255 13.138 27.9166 12.9682 27.7067 12.9026C27.7653 13.3236 27.6623 13.5948 27.2185 13.5622C27.3462 12.9316 26.624 13.1579 26.8424 12.4365C26.3056 12.32 26.3177 12.6974 26.0033 12.78C25.6307 12.7387 25.6631 12.2882 25.2244 12.3127C25.0529 12.3935 25.0598 12.6355 24.8113 12.6477C24.8078 12.5396 24.8044 12.4316 24.8009 12.3227C24.9505 12.3004 25.2279 12.3941 25.1347 12.1526C24.5235 12.305 24.795 11.3152 24.9346 11.1858C24.3566 11.3233 24.2083 11.0259 23.9057 10.8865C23.6175 11.0454 23.6939 11.0436 23.396 10.8986C23.322 11.3345 23.7025 11.3137 23.9238 11.4534C23.8767 11.7256 24.0554 12.2025 23.8669 12.3449C23.7672 12.3347 23.6252 12.3647 23.6099 12.271C23.9674 12.0722 23.511 12.0814 23.5917 11.7034C23.4517 11.8188 22.9611 12.0184 22.7465 11.8049C23.3549 11.669 22.8257 11.4042 22.8871 10.9107C22.3445 11.0246 22.5943 10.5893 22.7025 10.4285C22.4193 10.4352 22.1353 10.4419 21.853 10.4486C21.8479 10.2881 21.8426 10.1244 21.8375 9.96394C21.5137 10.0108 21.3858 9.86181 21.3174 9.65109C21.0409 9.55891 21.2618 9.91489 20.9836 9.82119C21.0169 9.39885 20.7303 9.29751 20.2901 9.35182C20.2793 9.47431 20.33 9.64941 20.2151 9.67721C20.1068 9.42512 19.7192 9.45233 19.6062 9.20584C19.7786 9.1516 20.1989 9.32264 20.1099 9.03092C19.5836 9.11626 19.4354 8.82124 19.0809 8.7317C19.0844 8.83896 19.0879 8.94858 19.0913 9.05506C19.2181 9.06694 19.4031 9.02024 19.432 9.12847C19.3359 9.48727 18.5978 9.26813 18.6023 9.71543C18.7308 9.72649 18.9149 9.67903 18.9447 9.78881C18.6929 10.1591 19.0256 10.4177 18.8144 11.0072C19.1618 11.1094 19.0764 10.8255 19.3173 10.8323C19.3328 11.2652 19.4362 11.7776 19.0093 11.812C19.1063 11.3239 18.5459 11.4994 18.6437 11.0112C18.4928 10.967 18.1486 11.1209 18.1322 10.9419C18.2318 10.7953 18.6233 10.9138 18.4591 10.529C18.0867 10.5974 17.8998 10.4804 17.7734 10.3032C17.8991 9.97108 18.2507 9.84365 18.253 9.4001C18.6207 9.41803 18.7854 9.25036 18.7472 8.90259C17.8686 9.09187 18.1493 8.11047 17.4474 8.12241C17.275 8.20328 17.2828 8.44522 17.0326 8.45585C17.1338 8.07734 16.7432 8.1916 16.8428 7.81313C16.5674 8.08841 15.8531 7.96744 15.3214 8.01216C15.4283 7.68132 15.1277 7.75897 15.1368 7.52917C14.7312 8.10059 13.8677 7.73633 13.4334 7.40812C13.1409 7.40644 13.2282 7.746 12.9349 7.74355C12.9439 7.35939 13.1306 7.134 13.3342 6.92467C13.6525 7.29872 14.2192 7.4232 14.797 7.53722C14.8079 7.41708 14.757 7.23963 14.8712 7.21185C15.2199 7.27724 15.4676 7.44532 15.4869 7.84526C15.5994 7.8426 15.7118 7.83993 15.8251 7.83725C15.8216 7.7292 15.8182 7.62115 15.8147 7.5131C15.4487 7.54763 15.2745 7.39113 15.2904 7.04051C14.7608 7.07421 14.7022 6.62819 14.0923 6.74451C14.0806 6.86545 14.1323 7.04288 14.0173 7.07068C13.8753 7.07404 13.735 7.07737 13.5938 7.08071C13.5886 6.91864 13.5834 6.75657 13.5783 6.59528C13.465 6.59796 13.3509 6.60067 13.2385 6.60333C13.2613 7.08546 12.7664 7.43255 12.4037 7.10892C12.5171 7.36872 12.1315 7.17649 12.2449 7.43629C12.2329 7.59799 12.6346 7.75458 12.3466 7.91968C12.2091 7.62676 11.7448 7.79996 11.5817 7.93781C11.602 7.77905 11.4624 7.78001 11.4048 7.69832C11.6491 7.68234 11.4341 7.25335 11.7317 7.28626C11.4132 7.00938 11.8489 6.86585 11.7007 6.31538C11.0716 6.16653 11.2199 6.71856 10.6933 6.66365C10.9775 6.92254 10.925 7.66816 10.3853 7.64178C10.3905 7.80385 10.3956 7.96592 10.4008 8.12878C10.9105 8.11435 10.8345 8.69363 11.4333 8.58855C11.5402 8.25849 11.2412 8.33766 11.2479 8.1087C11.7321 8.12152 12.4001 7.94741 12.4451 8.40472C12.276 8.40873 12.1069 8.41274 11.937 8.41676C11.8301 8.74526 12.1299 8.66763 12.1224 8.89661C12.3854 8.95149 12.2169 8.61542 12.5416 8.72604C12.7975 8.91979 13.1676 9.19309 12.8211 9.52883C12.9248 9.535 13.0238 9.54832 12.9969 9.68608C13.2379 9.69447 13.1549 9.40966 13.5007 9.51273C13.4938 9.29663 13.4869 9.08132 13.48 8.86443C13.7589 8.95812 13.5365 8.60217 13.8146 8.69587C13.825 9.01924 13.8353 9.3426 13.8456 9.66597C14.0713 9.66062 14.2971 9.65527 14.5244 9.64988C14.5279 9.75793 14.5313 9.86598 14.5348 9.97403C14.8121 10.0677 14.5921 9.71174 14.8694 9.8039C14.8941 10.1136 15.3246 10.0133 15.2299 10.4449C15.6739 10.3286 15.5952 10.745 15.9182 10.7522C15.9213 10.2562 15.3055 10.0349 15.7121 9.62173C15.4864 9.62708 15.2598 9.63245 15.0333 9.63782C14.9663 9.2633 14.6861 8.97611 15.0023 8.66773C14.829 8.59113 14.6533 8.51772 14.4856 8.43629C14.6216 8.29751 14.7593 8.15869 14.8971 8.02222C15.4754 8.15426 15.9041 8.48573 15.5283 9.1395C15.9257 9.23821 15.8029 8.86423 16.2003 8.96294C16.1384 8.82416 15.8413 8.49975 16.0967 8.31818C16.2447 8.60537 16.498 8.40897 16.6885 8.30416C16.6919 8.41142 16.6954 8.51947 16.6988 8.62752C16.0943 8.49924 16.5657 9.34371 16.0415 9.29032C16.3085 9.52297 16.219 10.1151 16.252 10.5813C16.4413 10.5416 16.5503 10.4309 16.5815 10.2491C16.6782 9.98591 16.3054 10.1946 16.4012 9.92979C16.7926 9.81395 16.6938 10.1916 17.0844 10.0766C17.0477 9.72642 17.2116 9.56034 17.5793 9.57748C17.7054 9.25637 17.2116 9.55877 17.231 9.34283C17.2427 9.24696 17.2097 9.11297 17.3094 9.09729C17.5814 9.10259 17.6935 9.26762 17.9122 9.32669C17.5862 9.74108 17.8261 10.667 16.9308 10.5652C16.8624 10.7651 16.6867 10.868 16.7816 11.216C17.0622 11.1819 16.9275 10.7706 17.1913 10.722C17.5436 10.6432 17.6548 10.809 17.7941 10.9499C17.7173 11.1186 17.4645 11.1246 17.4672 11.3627C17.7072 11.3437 17.6417 11.6321 17.9821 11.5127C17.9913 11.3911 17.9413 11.2136 18.0546 11.1858C18.1442 11.2644 18.2321 11.3422 18.3176 11.4233C18.3135 11.5511 18.103 11.4926 18.1555 11.6708C18.2601 11.6785 18.3573 11.6895 18.3306 11.8281C18.6087 11.9218 18.387 11.565 18.6644 11.6587C18.6605 12.0255 19.1412 11.9037 19.3561 12.0459C19.3528 12.1745 19.1423 12.116 19.1948 12.2934C19.4205 12.288 19.647 12.2827 19.8744 12.2773C19.9191 12.1344 19.755 11.8053 19.9426 11.7899C20.0439 11.8008 20.1826 11.7709 20.2004 11.8652C20.1076 11.9662 19.9621 12.0166 20.0418 12.2733C20.4755 12.1706 20.6514 12.3294 20.5671 12.7482C20.7944 12.7429 21.0201 12.7375 21.2467 12.7321C21.2484 12.4524 20.8912 12.5321 20.8913 12.2532C21.3022 12.3892 21.1583 12.022 21.3061 11.9197C21.3898 11.9178 21.4752 11.9157 21.5598 11.9137C21.6225 12.2844 21.5525 12.5361 21.4158 12.7281C21.6434 12.8332 21.7436 13.0659 21.7754 13.3668C21.994 13.1391 22.7737 13.0674 22.8008 13.5047C23.2894 13.4743 23.1606 12.8874 23.8022 12.9952C23.758 12.6664 23.9769 12.5742 24.0368 12.3408C24.1605 12.3818 24.4712 12.2365 24.4645 12.4122C24.2787 12.5341 24.2273 12.7775 23.9677 12.8283C24.0488 13.0246 24.2309 13.1206 24.1584 13.4725C24.5227 13.3824 24.6316 13.5522 24.8423 13.6185C24.8389 13.5105 24.8354 13.4024 24.832 13.2944C24.6803 13.251 24.3369 13.4048 24.3189 13.2266C24.5068 12.9879 24.9385 13.2096 25.0044 13.371C24.9487 13.7343 25.0791 13.9091 25.1968 14.0959C25.3681 14.1107 25.5284 13.7269 25.7023 14.0017C25.5223 14.0773 25.5173 14.3054 25.5513 14.5733C25.9359 14.5791 25.8055 14.1207 25.9558 13.9158C25.9803 14.169 26.4521 13.9722 26.5553 14.1452C26.5579 14.2251 26.5605 14.3057 26.5631 14.3872C26.3956 14.3911 26.2249 14.3952 26.055 14.3992C26.0549 14.6789 26.4121 14.5984 26.4112 14.8766C25.905 14.9983 25.8936 14.6177 25.3866 14.7402C25.6227 15.0598 25.963 15.2735 26.4267 15.3636C26.4267 16.0061 26.8747 15.7847 27.2857 15.6668C27.1864 16.1558 27.5844 16.144 27.4867 16.6337C27.8734 16.5767 28.1392 16.6433 28.3397 16.7764C28.5002 16.6324 28.4519 16.3021 28.5726 16.1221C29.1771 16.0436 29.2142 16.534 29.8568 16.4161C29.8697 16.2536 29.468 16.0978 29.7559 15.9319C29.934 16.0045 29.9426 16.2472 30.1906 16.246C30.2218 16.0642 30.3316 15.9535 30.5193 15.9138C30.571 16.2229 30.4172 16.3456 30.1958 16.4081C30.1233 16.7592 30.3046 16.856 30.3856 17.0516C29.8483 16.8441 29.8123 17.0283 29.1987 17.0797C29.2039 17.241 29.2091 17.4038 29.2142 17.5643C29.5036 17.4948 29.6212 17.6001 29.5636 17.8812C29.8395 17.3889 30.0585 17.7645 30.4873 17.5342C30.6958 17.8654 30.8903 17.7581 31.0885 17.7636C30.9956 17.8638 30.851 17.9158 30.9307 18.1724C31.383 18.2659 31.277 17.8539 31.5999 17.833C31.6086 18.1031 31.6172 18.3724 31.6258 18.6426C31.5126 18.6452 31.4001 18.6479 31.2868 18.6506C31.1722 19.0992 31.5287 19.0742 31.4818 19.4562C31.6955 19.2278 32.2779 19.3339 32.4909 19.1086C32.5799 19.3769 32.9963 19.3223 33.1817 19.4966C33.1716 19.5916 33.203 19.7264 33.1042 19.7421C32.7733 19.8244 32.8826 19.4653 32.5063 19.5925C32.7408 19.9129 33.0811 20.1274 33.5464 20.2166C33.3247 19.7298 34.0105 20.0599 33.8649 19.6418C33.9194 19.4211 33.4678 19.71 33.5232 19.4885C33.5206 19.4078 33.518 19.3264 33.5154 19.245C33.9246 19.2228 34.1621 19.0463 34.2616 18.7423C34.4388 18.7867 34.8157 18.6289 34.8592 18.8088C34.6961 18.8973 34.5246 18.979 34.3565 19.0644C34.3563 19.3426 34.7127 19.2613 34.7118 19.5402C34.3863 19.508 34.2672 19.6636 34.2132 19.8757C34.3401 19.8883 34.5259 19.8408 34.5557 19.9506C34.3747 20.1986 34.3173 20.2039 34.0494 20.0433C34.0528 20.1514 34.0562 20.2586 34.0597 20.3667C34.2097 20.4094 34.5548 20.257 34.5711 20.4353C34.5383 20.5638 34.3066 20.5113 34.4108 20.7642C34.5465 20.8221 34.5462 21.018 34.7583 20.9981C35.0365 21.0918 34.8157 20.7351 35.093 20.828C34.7488 20.6489 34.3899 19.4687 35.2206 19.5282C35.3689 20.0818 34.9945 20.1635 35.0878 20.6667C35.2574 20.6791 35.4193 20.2968 35.5941 20.574C35.118 21.0452 36.1621 21.2281 35.977 21.9409C36.1469 21.9368 36.3177 21.9328 36.4876 21.9288C36.4928 22.0916 36.4979 22.2529 36.5031 22.415C36.8666 22.3264 36.9763 22.4939 37.1862 22.5602C37.0728 22.3012 37.4592 22.4926 37.3458 22.2328C36.7519 22.0526 36.3171 21.7087 35.9563 21.2933C36.4012 21.1794 36.3216 21.595 36.6455 21.6006C36.9388 21.6039 36.8515 21.2627 37.1448 21.2652C37.167 21.4958 36.8634 21.4301 36.9913 21.7562C37.3759 21.8395 37.8108 21.8762 38.0228 22.1353C37.7425 22.3088 37.9682 22.305 38.0357 22.5401C37.865 22.5441 37.6951 22.5481 37.526 22.5521C37.5329 22.7682 37.5399 22.9859 37.5468 23.2012C38.1588 23.3074 38.065 24.1253 38.7646 24.144C38.6635 23.9105 38.506 23.7356 38.405 23.5053C38.6323 23.4999 38.8572 23.4946 39.0846 23.4892C39.1293 23.3447 38.9675 23.014 39.1536 23.0002C39.3475 23.0551 39.2025 23.4535 39.2596 23.6449C39.5022 23.5514 39.6847 23.4013 39.9272 23.3054C40.0006 22.9534 39.8185 22.8582 39.7375 22.6627C40.2515 22.8386 39.9477 22.2761 40.1463 22.1664C40.763 22.6 40.1569 23.5272 40.123 24.1118C40.4491 24.0335 40.4942 24.2385 40.6397 24.3432C40.6084 24.4693 40.3751 24.4169 40.4801 24.6706C40.8532 25.0097 41.3138 25.3114 41.0278 25.8729C41.6058 25.7362 41.754 26.0312 42.0575 26.1721C42.3727 25.9061 42.2876 26.1745 42.7355 26.1561C42.781 26.0116 42.6185 25.6816 42.8053 25.6678C43.1826 25.651 43.2798 25.9144 43.2495 26.3053C43.5437 26.3077 43.4564 25.9666 43.7497 25.9698C43.8167 26.2911 44.0977 26.3972 44.2793 26.6053C43.7531 26.6922 43.6002 26.2758 43.2599 26.6294C43.2564 26.5214 43.253 26.4141 43.2495 26.3053C42.91 26.4254 42.9772 26.1354 42.7355 26.1561C42.865 26.4805 42.5598 26.4164 42.5811 26.6455C43.1851 26.7056 43.1573 27.4029 43.466 27.7584C43.7458 27.852 43.5233 27.4953 43.8015 27.5898C43.8567 27.3369 43.5052 27.4957 43.6194 27.1874C43.7496 27.1232 43.7368 26.9276 43.9507 26.9367C44.0317 27.133 44.2138 27.2282 44.1405 27.5817C44.3289 27.542 44.4387 27.4297 44.4691 27.2503C44.5649 26.984 44.193 27.1934 44.2896 26.9286C44.6395 27.0551 44.7123 26.5331 44.965 26.8319C44.6398 27.1672 45.0761 27.2751 44.8244 27.7262C45.1726 27.6207 45.3025 27.3176 45.8335 27.3786C45.8829 27.1259 45.3041 27.0848 45.5627 26.8985C45.7639 27.0018 45.7766 27.2954 46.1673 27.2101C46.0672 26.8779 46.4401 26.5705 46.6632 26.7917C46.7522 27.1077 46.3735 27.0038 46.5114 27.3626C47.2234 27.2023 47.2494 27.7337 47.2212 28.3166C47.1079 28.3193 46.9947 28.3219 46.8814 28.3246C46.8849 28.4342 46.8883 28.5415 46.8918 28.6496C47.2621 28.7231 47.36 28.5484 47.5654 28.4714C47.3317 29.1281 48.1127 29.1997 47.8569 29.5999C47.5253 29.6829 47.6337 29.3223 47.2575 29.4511C47.5986 29.7666 47.3182 29.8861 47.1082 30.1018C47.4921 30.2134 47.3609 29.86 47.6973 29.9273C47.7353 30.1121 48.0398 30.0273 48.1302 30.1591C48.2615 30.4624 47.9005 30.3205 47.9733 30.5687C48.0866 30.566 48.1998 30.5633 48.3115 30.5607C48.3578 30.3661 48.1876 29.976 48.3761 29.9112C48.4736 30.2638 48.8215 30.5596 49.1498 30.2164C49.1059 30.3593 49.2676 30.69 49.0808 30.7039C49.0038 30.531 48.7629 30.5234 48.4822 30.5567C48.467 30.6996 48.5805 30.9594 48.3218 30.8841C48.3143 31.1138 48.6141 31.0354 48.508 31.3655C49.1542 31.2036 49.2297 31.9713 49.7009 31.4994C49.6618 31.8717 49.747 32.1204 49.8958 32.305C50.4236 32.1906 50.5185 32.5135 50.7582 32.6888C50.7541 32.8167 50.5428 32.7582 50.5953 32.9364C50.6998 32.9425 50.7971 32.9551 50.7712 33.0944C51.0342 33.1493 50.8649 32.8125 51.1895 32.9223C51.3193 33.1002 51.5729 33.1475 51.6294 33.3977C51.7006 33.6452 51.3396 33.5041 51.4733 33.8073C51.665 33.9195 51.7301 34.1593 51.995 34.1984C52.1556 34.0042 52.6281 34.0894 52.7489 33.857C52.9005 34.26 53.096 33.6176 53.3449 33.9235C53.1074 34.1015 52.9969 34.3956 52.6842 34.5065C52.8337 34.6354 52.789 34.9592 53.0395 34.9847C53.0851 34.79 52.9141 34.4 53.1034 34.3359C53.3745 34.3115 53.4746 34.4627 53.5381 34.6492C53.6515 34.9075 53.2651 34.7168 53.3785 34.9766C53.5297 35.1313 53.8773 35.087 54.0651 35.204C54.0093 35.5658 54.1405 35.7398 54.2582 35.9274C54.4617 35.9727 54.8714 35.8126 54.9396 35.9927C54.5473 36.2081 55.0092 36.3719 54.9629 36.7217C55.1894 36.7163 55.416 36.7109 55.6425 36.7056C55.5339 37.0357 55.8345 36.9564 55.8271 37.1862C56.1052 37.2791 55.8836 36.9232 56.1617 37.0169C56.0606 36.7834 55.9023 36.6093 55.8012 36.3782C55.9678 36.397 55.966 36.2638 56.0513 36.2085C56.1186 36.3354 56.3236 36.3243 56.3153 36.5266C56.6243 36.3015 56.5251 36.4621 56.9095 36.5125C57.1622 36.3483 57.4013 36.1718 57.6565 36.0106C57.6616 36.1703 57.6669 36.334 57.672 36.4945C57.1579 36.3186 57.4635 36.8834 57.2648 36.9907C56.6925 36.9714 56.5762 37.3659 56.3515 37.6604C56.884 37.8468 57.3218 38.1302 57.4055 38.77C58.0446 38.8739 58.2143 38.5557 58.7587 38.5749C58.8937 38.3531 59.0152 37.7101 59.4194 37.9928C59.2497 38.4928 58.8256 38.7669 58.4352 39.0692C58.5386 39.2979 58.7129 39.4567 58.9588 39.5426C58.9662 39.3128 58.6673 39.3912 58.7742 39.0611C59.1648 39.1005 59.4259 39.0214 59.6169 38.8782C59.5289 38.5943 59.5007 37.7111 59.5703 37.4219C59.1038 37.527 58.9064 36.9267 58.957 36.7876C59.2204 36.9593 59.4726 37.1907 59.7263 36.9324C59.8807 37.3401 60.0132 37.7593 59.7652 38.1468C59.8319 38.4116 60.2529 38.3209 60.4526 38.4541C60.4493 38.6328 60.0943 38.4978 59.9463 38.5468C59.9283 39.0119 59.9596 39.4248 60.4811 39.3451C60.497 39.2013 60.3836 38.9407 60.6415 39.0169C60.5659 39.4536 60.9479 39.4312 61.1685 39.5725C61.0519 39.7555 60.8737 39.8827 60.4966 39.8305C60.3301 40.1471 60.864 40.1721 60.5975 40.3139C60.5286 40.1878 60.3252 40.1997 60.3335 39.9958C60.1053 40.0012 59.8796 40.0066 59.6531 40.0119C59.5593 40.4428 59.989 40.3432 60.0136 40.6514C60.2062 40.5113 60.4665 40.4307 60.8571 40.4708C60.8623 40.6313 60.8675 40.7941 60.8726 40.9546C61.3219 40.9534 61.2197 40.6878 61.5514 40.9385C61.5573 40.8405 61.5716 40.7477 61.7162 40.774C61.7235 40.5427 61.4239 40.6234 61.5307 40.2918C61.9398 40.2414 62.2216 40.3201 62.2224 40.6805C61.8869 40.8232 61.9633 41.337 61.5669 41.4255C61.6914 40.7973 60.6765 41.3197 60.5328 40.9627C60.468 41.5307 61.1384 41.355 61.0736 41.923C61.4131 41.803 61.3476 42.0921 61.5876 42.0731C61.667 41.9074 61.743 41.7411 61.8274 41.5816C62.1173 41.7612 62.1885 42.1638 62.7753 42.0449C62.8284 41.8313 62.9492 41.6764 63.2746 41.7087C63.2798 41.8708 63.285 42.0328 63.2902 42.1941C63.1777 42.1968 63.0644 42.1995 62.9512 42.2022C62.8434 42.5322 63.1432 42.4538 63.1358 42.6836C63.4139 42.7773 63.1923 42.4213 63.4704 42.515C63.5347 42.8802 63.9321 42.8755 64.1544 42.6594C64.134 42.8206 64.2736 42.8172 64.3312 42.8989C64.1213 43.1147 63.9054 43.1966 64.1803 43.4698C63.8336 43.3652 63.9175 43.6516 63.6765 43.6432C63.6696 43.4271 63.6627 43.211 63.6558 42.9949C63.3399 43.2625 63.4249 42.9933 62.977 43.011C62.9045 43.3645 63.0858 43.4597 63.1668 43.6552C63.6614 43.685 64.0694 43.8039 64.5321 43.8658C64.0495 43.8749 64.2333 44.4864 64.2268 44.9269C64.4702 44.831 64.651 44.681 64.8944 44.5875C64.7949 44.9667 65.1854 44.8501 65.085 45.231C65.3783 45.2326 65.2911 44.8923 65.5844 44.8947C65.5102 45.2467 65.694 45.3419 65.775 45.5382C65.5308 45.685 65.2485 45.7967 65.2868 46.1978C65.7796 46.1454 65.5497 46.302 65.467 46.5171C65.8432 46.3891 65.7348 46.7482 66.0665 46.6659C66.3029 46.2489 66.7064 46.8999 66.9945 46.4809C66.8684 46.8028 67.3606 46.4997 67.3413 46.7164C67.332 46.8114 67.3625 46.9455 67.2645 46.9619C67.0019 46.5599 66.8092 47.109 66.3305 46.984C66.3163 47.4138 66.9444 47.1998 67.1912 47.3672C67.1169 47.5358 66.8642 47.5434 66.8651 47.7792C67.186 47.8468 67.3095 48.1127 67.725 48.084C67.7362 47.6873 68.0174 47.5701 67.6992 47.2752C68.0458 47.3775 67.9619 47.0927 68.2028 47.1003C68.1476 47.3508 68.499 47.192 68.3849 47.5011C68.2421 47.7646 67.8347 47.7899 67.9001 48.2421C68.0692 48.238 68.2391 48.234 68.4082 48.23C68.4528 48.0856 68.2904 47.7572 68.4788 47.741C68.5717 47.897 68.6582 48.0611 68.748 48.222C68.9737 48.2166 69.2018 48.2112 69.4259 48.2059C69.5234 47.9411 69.1506 48.1497 69.2473 47.8857C69.5066 47.9297 69.9736 47.7643 70.0986 47.9463C69.8907 48.1518 69.6635 48.3405 69.2628 48.3712C69.1551 48.702 69.454 48.6229 69.4466 48.8526C69.0631 48.9072 68.8132 48.8237 68.7583 48.5453C68.3356 48.5303 67.9408 48.5404 67.9208 48.8888C68.3182 48.9875 68.1962 48.6143 68.5936 48.7114C68.7359 49.1547 68.38 49.1467 68.4495 49.5242C68.5628 49.5216 68.6761 49.5189 68.7893 49.5162C68.7994 49.3953 68.7494 49.2186 68.8643 49.1908C68.9889 49.2333 69.2988 49.0865 69.2913 49.2622C69.4302 49.7267 69.1091 49.7797 69.149 50.1565C69.2639 50.1537 69.3747 50.1511 69.488 50.1484C69.5855 49.8844 69.2127 50.093 69.3094 49.8275C69.4594 49.8717 69.8036 49.7178 69.8209 49.8984C69.9403 50.2161 69.5463 50.0695 69.6673 50.3871C69.982 50.57 70.1925 50.8597 70.5358 51.0137C70.4463 51.2713 70.6751 51.2087 70.7153 51.3346C70.6832 51.4623 70.4507 51.4098 70.5565 51.662C70.893 51.9361 71.4141 52.0225 71.7641 52.2829C71.732 52.4091 71.5012 52.3566 71.6054 52.6103C71.8503 52.6131 71.6639 53.0524 71.9589 53.0063C71.8734 52.6941 72.0881 52.6529 72.197 52.5148C72.2866 52.5918 72.3745 52.6697 72.46 52.7507C72.4272 52.8792 72.1955 52.8275 72.2996 53.0781C72.5348 53.3162 72.9982 53.3225 72.8378 53.9563C73.0972 54.0018 73.5658 53.8364 73.6883 54.0176C73.614 54.187 73.3595 54.1931 73.3622 54.4312C73.7089 54.535 73.625 54.2495 73.8659 54.2571C73.7884 54.5026 74.0601 54.3959 74.2117 54.4111C74.0941 54.9185 74.7634 54.6338 74.7413 55.0465C74.6264 55.0492 74.5131 55.0519 74.4023 55.0545C74.4674 55.2661 74.5962 55.4135 74.9207 55.3659C74.9941 55.0139 74.812 54.9195 74.731 54.7232C75.1601 54.7341 75.3944 54.9456 75.4296 55.3538C75.0306 55.2567 75.155 55.6291 74.7568 55.5327C74.6573 55.912 75.047 55.7962 74.9466 56.1762C75.224 56.27 75.0031 55.9124 75.2812 56.0053C75.2111 56.3823 75.519 56.3774 75.6383 56.5642C75.4575 56.6374 75.4509 56.8671 75.4865 57.135C75.8709 57.0813 76.1207 57.1639 76.1756 57.4423C76.4199 57.3488 76.6007 57.198 76.8441 57.1029C76.8586 56.9396 76.4561 56.7845 76.744 56.6179Z" fill="white"/>
<path fill-rule="evenodd" clip-rule="evenodd" d="M33.0455 37.1578C33.042 37.0498 33.0386 36.9426 33.0351 36.8338C33.3746 36.7161 33.3091 37.0028 33.5491 36.9853C33.638 37.2738 33.2188 37.1059 33.0455 37.1578ZM32.0212 37.0215C31.9459 36.7444 32.0556 36.633 32.3514 36.6902C32.3549 36.7974 32.3583 36.9054 32.3618 37.0135C32.2477 37.0162 32.1345 37.0188 32.0212 37.0215ZM33.8724 36.4904C33.9857 36.4877 34.0997 36.485 34.2122 36.4824C34.1802 36.6641 34.0704 36.774 33.8828 36.8137C33.8793 36.7065 33.8759 36.5984 33.8724 36.4904ZM31.9747 35.5641C32.0066 35.3824 32.1164 35.2717 32.3049 35.2328C32.3275 35.3748 32.2308 35.6395 32.4851 35.552C32.465 35.9527 32.1119 35.5663 31.9747 35.5641ZM30.4174 34.6297C30.5609 34.5965 30.5794 34.6885 30.5924 34.7861C30.8697 34.8798 30.6481 34.5239 30.9253 34.6176C30.9305 34.7781 30.9357 34.9417 30.9408 35.1021C30.695 35.0163 30.52 34.8583 30.4174 34.6297ZM29.6612 32.217C29.8311 32.2129 30.0001 32.2089 30.1708 32.2049C30.1806 32.3339 30.1388 32.5158 30.2648 32.5277C30.3502 32.5257 30.4355 32.5237 30.52 32.5217C30.3873 32.8906 29.487 32.702 29.6612 32.217ZM27.0677 30.8214C27.6051 30.9372 27.5931 30.5607 27.9083 30.478C27.9008 30.7061 28.1989 30.6294 28.0928 30.9577C27.6761 30.9472 27.2756 30.9552 27.078 31.1455C27.0746 31.0375 27.0711 30.9295 27.0677 30.8214ZM28.5602 29.6518C28.6734 29.6491 28.7858 29.6465 28.899 29.6438C28.9516 29.9527 28.7962 30.0755 28.5757 30.1387C28.5705 29.9759 28.5653 29.8139 28.5602 29.6518ZM28.8887 29.3205C28.919 29.1389 29.0296 29.0281 29.2181 28.9884C29.225 29.2045 29.2319 29.4205 29.2388 29.6357C29.0481 29.605 28.9306 29.4997 28.8887 29.3205ZM26.6779 29.2108C26.6256 29.4243 26.5057 29.5791 26.1787 29.5469C26.2326 29.3333 26.3516 29.177 26.6779 29.2108ZM28.2006 29.0125C28.2041 29.1213 28.2075 29.2286 28.2109 29.3366C28.0977 29.3393 27.9836 29.342 27.872 29.3446C27.7975 29.0675 27.9065 28.9569 28.2006 29.0125ZM26.6572 28.5627C26.9521 28.6184 27.0619 28.5092 26.9849 28.2314C27.178 28.2613 27.2939 28.3666 27.3366 28.5466C27.0408 28.4909 26.9318 28.6008 27.0056 28.8779C26.8166 28.8487 26.6999 28.7426 26.6572 28.5627ZM27.1357 27.58C27.026 27.7965 26.7827 27.8908 26.4667 27.9202C26.5755 27.7037 26.8197 27.6102 27.1357 27.58ZM25.45 27.9443C25.4803 27.7618 25.5901 27.6511 25.7777 27.6122C25.7812 27.7202 25.7846 27.8275 25.7881 27.9363C25.6748 27.9389 25.5624 27.9416 25.45 27.9443ZM23.3875 27.1832C23.5008 27.1805 23.614 27.1778 23.7264 27.1752C23.7299 27.2832 23.7333 27.3904 23.7367 27.4984C23.5469 27.4677 23.4302 27.3623 23.3875 27.1832ZM22.3278 25.9119C22.057 26.0186 22.2547 25.6528 21.983 25.7595C21.8415 25.3164 22.1989 25.3228 22.1261 24.9454C22.2968 24.9413 22.4667 24.9373 22.6357 24.9333C22.5029 25.2756 21.9658 25.5821 22.3278 25.9119ZM23.6488 24.7471C23.6453 24.6383 23.6419 24.5311 23.6385 24.4231C23.911 24.3172 23.7125 24.6845 23.9834 24.5779C24.0757 24.8193 23.7992 24.7256 23.6488 24.7471ZM22.2813 24.4553C22.5762 24.5117 22.686 24.4018 22.6098 24.1232C22.8013 24.1539 22.918 24.2592 22.9615 24.4391C22.5085 24.3465 22.6153 24.7583 22.2916 24.7793C22.2881 24.6705 22.2847 24.5633 22.2813 24.4553ZM23.6281 24.099C23.5978 24.2807 23.488 24.3914 23.2996 24.4311C23.3062 24.2022 23.0073 24.2798 23.1151 23.9514C23.355 23.9301 23.2895 24.2199 23.6281 24.099ZM18.9591 21.4571C19.4027 21.4897 19.5082 21.2177 19.4479 20.7977C19.7925 20.8397 19.803 21.2186 19.9782 21.433C19.6799 21.4259 19.3401 21.3815 19.4789 21.7683C19.3367 21.6338 19.0003 21.6943 18.9591 21.4571ZM16.8974 20.696C17.0098 20.6934 17.1239 20.6906 17.2363 20.688C17.2397 20.796 17.2432 20.904 17.2466 21.0113C17.056 20.9813 16.9393 20.876 16.8974 20.696ZM14.064 17.0377C14.1765 17.035 14.2897 17.0323 14.4038 17.0296C14.4072 17.1377 14.4107 17.2457 14.4141 17.3537C14.2226 17.323 14.1068 17.2176 14.064 17.0377ZM14.8858 16.2091C14.8492 15.8081 15.1297 15.6949 15.3755 15.5481C15.4095 15.8167 15.4046 16.0471 15.2229 16.1188C15.2928 16.3012 15.7007 16.1404 15.9041 16.1849C15.9093 16.3462 15.9145 16.5082 15.9196 16.6702C15.5604 16.5307 15.3994 16.1937 14.8858 16.2091ZM13.0036 15.768C13.0001 15.66 12.9967 15.552 12.9932 15.444C13.2641 15.3373 13.068 15.7038 13.3389 15.5963C13.4328 15.8377 13.1539 15.7456 13.0036 15.768ZM9.02425 13.4324C8.91183 13.4351 8.7986 13.4378 8.68536 13.4405C8.61002 13.1642 8.72062 13.0535 9.01392 13.1092C9.01737 13.2172 9.0208 13.3244 9.02425 13.4324ZM9.85199 12.7642C10.0227 12.7602 10.1909 12.7562 10.3607 12.7522C10.3084 12.9657 10.1878 13.1213 9.86237 13.0891C9.85892 12.9811 9.85546 12.873 9.85199 12.7642ZM9.33292 12.453C9.36406 12.2713 9.47221 12.1607 9.66227 12.1209C9.66572 12.229 9.66917 12.337 9.67263 12.445C9.55939 12.4477 9.44533 12.4504 9.33292 12.453ZM9.44509 10.6699C9.55833 10.6672 9.67156 10.6645 9.7848 10.6618C9.80822 10.8038 9.71152 11.067 9.9658 10.9811C9.93384 11.1628 9.82321 11.2727 9.63643 11.3124C9.73435 10.9333 9.3455 11.0482 9.44509 10.6699ZM9.12248 11.1616C9.16726 10.9953 8.96749 10.6029 9.27606 10.6739C9.22882 10.8403 9.43102 11.2319 9.12248 11.1616ZM8.07233 10.2152C8.06888 10.1072 8.06543 9.99917 8.06198 9.89115C8.33286 9.78525 8.13598 10.151 8.40686 10.0451C8.49998 10.2865 8.22274 10.1936 8.07233 10.2152ZM7.52574 9.09391C7.64225 9.09114 7.75467 9.08848 7.86709 9.08582C7.91804 9.39559 7.76263 9.51755 7.54127 9.57998C7.53607 9.41717 7.53094 9.25671 7.52574 9.09391ZM4.82935 9.64425C5.14728 9.31477 4.75001 9.32027 4.63801 9.00176C4.80868 8.99772 4.97853 8.99369 5.14593 8.98972C5.1528 9.20497 5.15971 9.42101 5.16659 9.63626C5.05417 9.63892 4.94094 9.6416 4.82935 9.64425ZM4.80346 8.83413C4.79658 8.61888 4.78967 8.40284 4.78279 8.18759C5.02276 8.16781 4.95563 8.45688 5.29591 8.33836C5.30104 8.49882 5.30627 8.66241 5.31137 8.82209C5.1407 8.82613 4.97331 8.8301 4.80346 8.83413ZM5.28035 7.85151C5.24625 7.40112 5.74242 7.43245 5.93911 7.18887C5.93421 7.47255 5.88631 7.79798 6.29351 7.66613C6.29696 7.77415 6.30041 7.88217 6.30384 7.9894C6.09611 7.81024 5.69739 7.82204 5.28035 7.85151ZM5.41481 6.71407C5.52092 6.3857 5.22036 6.46254 5.22867 6.23439C5.47366 6.32024 5.64952 6.47822 5.75288 6.70606C5.63964 6.70875 5.52804 6.71139 5.41481 6.71407ZM5.72704 5.89751C5.84109 5.8948 5.95351 5.89214 6.06675 5.88946C6.03398 6.07196 5.92581 6.18184 5.73742 6.22234C5.73394 6.11354 5.73054 6.00709 5.72704 5.89751ZM0.971683 5.84805C1.31907 5.95184 1.23522 5.66635 1.47609 5.67474C1.49737 5.90375 1.19313 5.83967 1.32172 6.16327C1.12943 6.13336 1.01357 6.02801 0.971683 5.84805ZM0.618129 5.37156C0.785518 5.36759 0.956199 5.36355 1.12687 5.3595C1.09919 5.59829 0.759446 5.55386 0.62846 5.69482C0.625008 5.58681 0.621556 5.47879 0.618129 5.37156ZM1.45023 4.8654C1.15699 4.86295 1.24346 5.20478 0.951021 5.20152C0.912758 4.85229 1.07744 4.68624 1.44502 4.70259C1.46888 5.01222 1.89845 4.91274 1.80382 5.34346C1.57878 5.29083 1.41744 5.17559 1.45023 4.8654ZM5.84598 4.27478C5.75546 3.98632 6.17552 4.15417 6.34877 4.10229C6.25207 4.36542 6.6264 4.15602 6.52977 4.42151C6.31903 4.35365 6.21022 4.18625 5.84598 4.27478ZM2.27115 4.03521C2.63538 3.94668 2.74423 4.11486 2.95497 4.18272C2.90773 4.55435 2.22296 4.30033 2.27115 4.03521ZM7.86543 3.74127C7.97885 4.00099 7.59335 3.8096 7.70679 4.0701C7.49212 4.00783 6.9815 4.24396 7.02296 3.9226C7.49463 4.03518 7.46654 3.69589 7.86543 3.74127ZM9.72784 3.53498C9.80912 3.79155 9.66215 3.8436 9.57007 3.94291C9.6391 4.12457 10.047 3.96451 10.253 4.00976C10.0908 4.22902 9.98455 4.50178 9.76406 4.66837C9.79799 4.21402 9.39216 4.20876 9.23036 3.95096C9.2268 3.65965 9.38725 3.51564 9.72784 3.53498ZM11.4334 3.81807C11.3202 3.82076 11.2086 3.8234 11.0945 3.8261C11.1265 3.64518 11.2355 3.5345 11.4231 3.49481C11.4265 3.60282 11.43 3.71084 11.4334 3.81807ZM11.7577 3.32551C12.0293 3.21881 11.8309 3.58619 12.1017 3.47872C12.1956 3.72011 11.9175 3.62644 11.768 3.64878C11.7646 3.54233 11.7611 3.43353 11.7577 3.32551ZM8.70356 3.39789C8.77105 3.19733 8.94843 3.09443 8.8535 2.74497C9.18514 2.69011 8.96702 3.18799 9.04327 3.38984C8.93003 3.39253 8.81762 3.39519 8.70356 3.39789ZM13.1002 2.80804C12.981 3.31767 13.3748 3.30834 13.4657 3.60855C13.0939 3.53668 12.9968 3.71131 12.7914 3.78589C12.9776 3.54727 12.972 3.37115 12.7708 3.13936C12.8011 2.95769 12.9117 2.84776 13.1002 2.80804ZM16.6725 3.04689C16.7874 3.04417 16.899 3.04152 17.0114 3.03886C16.9054 3.37037 17.205 3.29042 17.1984 3.52009C17.2197 3.7491 16.9154 3.68502 17.0424 4.00944C16.93 4.01211 16.8184 4.01475 16.7035 4.01747C16.7347 3.83579 16.8445 3.72509 17.0321 3.68539C17.0082 3.37733 16.5786 3.47603 16.6725 3.04689ZM17.8658 3.18076C18.0357 3.17673 18.2055 3.17271 18.3746 3.1687C18.378 3.27672 18.3815 3.38552 18.3849 3.49197C18.1424 3.58701 17.9592 3.73705 17.7183 3.83284C17.5939 3.45823 17.9895 3.55539 17.8658 3.18076ZM16.2051 4.3528C15.9375 4.15156 15.8019 3.81403 15.5033 3.64172C15.4794 3.38379 15.634 3.28692 15.8301 3.229C15.8352 3.72472 16.371 3.68461 16.2051 4.3528ZM8.08784 5.3559C7.98746 5.73506 8.37795 5.62005 8.27754 5.99843C7.96904 5.87806 8.12719 5.53356 7.76365 5.84924C7.75847 5.68722 7.75332 5.52598 7.74814 5.36395C7.85974 5.36131 7.97543 5.35856 8.08784 5.3559ZM4.78192 2.84146C4.77849 2.73423 4.77504 2.62621 4.77159 2.51819C5.04168 2.41309 4.84238 2.78049 5.11485 2.67299C5.20797 2.91439 4.92907 2.82074 4.78192 2.84146ZM19.9179 3.617C19.9214 3.72502 19.9248 3.83303 19.9283 3.94105C19.3587 3.84645 19.7191 4.59068 19.0946 4.44725C19.1433 4.07167 19.6656 4.12274 19.5791 3.62503C19.6923 3.62235 19.8031 3.61972 19.9179 3.617ZM20.2922 4.74316C20.192 5.20221 19.9261 4.61867 19.6153 4.7592C19.6118 4.65119 19.6084 4.54317 19.6049 4.43515C19.8531 4.51701 20.0449 4.65972 20.2922 4.74316ZM20.7966 4.56749C20.8001 4.67708 20.8035 4.78353 20.807 4.89311C20.6938 4.89579 20.5813 4.89846 20.4681 4.90114C20.3935 4.62248 20.5033 4.51256 20.7966 4.56749ZM23.6816 4.49912C23.556 4.85851 23.1014 4.92098 22.8539 5.16811C22.7303 4.79348 23.1259 4.89064 23.0022 4.51522C23.2552 4.69566 23.4406 4.69126 23.6816 4.49912ZM22.453 3.23341C22.6924 3.60687 22.9522 2.94977 23.1359 3.37938C22.7893 3.27557 22.8741 3.56261 22.6323 3.55267C22.7299 3.2903 22.3555 3.49814 22.453 3.23341ZM22.9557 3.06013C22.9869 2.87845 23.0959 2.76855 23.2851 2.72804C23.2885 2.83605 23.292 2.94407 23.2954 3.05208C23.1822 3.05477 23.069 3.05745 22.9557 3.06013ZM28.7871 4.86535C28.7802 4.6501 28.7733 4.43407 28.7664 4.21804C29.1138 4.32182 29.0283 4.03715 29.2708 4.04316C28.8799 4.42763 29.5236 4.34893 29.4657 4.84927C29.8123 4.95307 29.7276 4.6676 29.9685 4.67599C29.9914 4.90496 29.6879 4.83931 29.8149 5.16451C29.3992 5.15713 29.292 5.426 28.9776 5.50786C29.0999 5.37728 29.3597 4.71862 28.7871 4.86535ZM30.441 3.53133C30.5542 3.52865 30.6683 3.52595 30.7815 3.52326C30.851 3.89761 31.0653 4.12753 30.9868 4.65186C30.7103 4.55736 30.9303 4.91561 30.653 4.82113C30.7604 4.66036 31.0101 4.22518 30.4668 4.33832C30.7665 4.02886 30.4782 3.92524 30.441 3.53133ZM31.2859 3.3476C31.564 3.44205 31.3424 3.08619 31.6204 3.1783C31.6256 3.33955 31.6308 3.50314 31.6359 3.66359C31.4444 3.63288 31.3277 3.52755 31.2859 3.3476ZM32.6578 3.80231C32.771 3.79962 32.8834 3.79696 32.9991 3.79422C33.006 4.00947 33.0129 4.2255 33.0198 4.44153C32.7151 4.41194 32.8861 3.90656 32.6578 3.80231ZM32.3543 4.94296C32.2903 5.51004 32.9589 5.33518 32.8949 5.90225C32.6423 5.98892 32.739 5.72578 32.7147 5.58301C32.3199 5.53832 32.0007 5.28895 31.698 5.6071C31.6553 5.42639 31.537 5.32109 31.348 5.29032C31.3393 5.02107 31.3307 4.75102 31.3221 4.48177C31.7338 4.56758 31.712 5.09213 32.3543 4.94296ZM37.4199 4.01296C37.5315 4.01032 37.6448 4.00763 37.758 4.00495C37.7615 4.11297 37.7649 4.22098 37.7684 4.329C37.5793 4.29823 37.461 4.19372 37.4199 4.01296ZM36.5914 4.6804C36.5879 4.57239 36.5845 4.46515 36.581 4.35714C36.7509 4.35311 36.9207 4.34909 37.0898 4.34508C37.0366 4.55862 36.9176 4.7134 36.5914 4.6804ZM36.6069 5.16569C36.3819 5.11463 36.2197 4.99941 36.2525 4.68843C36.4767 4.74109 36.6388 4.85474 36.6069 5.16569ZM28.293 5.36272C28.4353 5.498 28.7725 5.43674 28.813 5.67548C28.4893 5.7231 28.3597 5.57342 28.293 5.36272ZM28.9104 3.40389C28.8722 3.05622 29.036 2.88941 29.4036 2.90733C29.4088 3.06857 29.414 3.23059 29.4191 3.39184C29.2501 3.39584 29.0794 3.39989 28.9104 3.40389ZM39.3109 4.7781C39.3144 4.88612 39.3178 4.99335 39.3213 5.10137C39.2088 5.10403 39.0948 5.10673 38.9824 5.1094C38.9078 4.83309 39.0176 4.72239 39.3109 4.7781ZM40.6897 5.39401C40.5718 5.97176 41.2022 6.34927 40.5552 6.53066C40.55 6.36864 40.5448 6.20662 40.5397 6.04537C40.3148 6.0507 40.0875 6.05609 39.8611 6.06146C39.7188 5.72252 40.3326 6.06751 40.1912 5.72934C40.3777 5.67949 40.3168 5.87989 40.4507 5.88377C40.7043 5.87776 40.3118 5.28782 40.6897 5.39401ZM42.0874 6.65572C42.1805 6.89712 41.9032 6.80343 41.7537 6.82577C41.7502 6.71776 41.7468 6.60974 41.7433 6.50251C42.015 6.3958 41.8157 6.7632 42.0874 6.65572ZM43.7325 4.99682C43.8458 4.99414 43.959 4.99146 44.0723 4.98877C44.0758 5.09836 44.0792 5.20481 44.0826 5.31361C43.8919 5.28209 43.7753 5.17754 43.7325 4.99682ZM44.2361 4.82274C44.3502 4.82004 44.4642 4.81734 44.5758 4.81469C44.5793 4.92271 44.5827 5.03073 44.5861 5.13796C44.3963 5.10799 44.2796 5.00266 44.2361 4.82274ZM38.1693 6.26291C38.3966 6.25753 38.6231 6.25216 38.8496 6.24679C38.6444 6.48195 38.2134 6.51096 38.0166 6.75219C37.888 6.42703 38.1931 6.49265 38.1693 6.26291ZM9.99953 6.76914C9.98522 6.91204 10.0978 7.17178 9.84165 7.09639C9.94685 6.7649 9.64803 6.84483 9.65542 6.61358C9.92715 6.50844 9.7295 6.8758 9.99953 6.76914ZM35.7297 41.4683C35.7245 41.3055 35.7194 41.145 35.7142 40.9822C35.8832 40.9782 36.0531 40.9742 36.2229 40.9701C36.3196 40.7062 35.9461 40.9148 36.0427 40.6501C36.248 40.574 36.3468 40.4001 36.7162 40.4728C36.7127 40.3648 36.7093 40.2568 36.7058 40.1487C36.4278 40.0566 36.6494 40.4125 36.3729 40.3188C36.3677 40.1568 36.3626 39.9955 36.3574 39.8327C36.1867 39.8368 36.0168 39.8408 35.847 39.8448C36.0181 39.3394 35.3172 39.7109 35.4882 39.2055C35.068 39.239 34.9486 38.9692 34.7934 38.7379C35.3147 38.6574 35.2624 39.1545 35.6573 39.2015C35.6955 38.8293 35.6111 38.5799 35.4624 38.3969C35.1979 38.3429 35.3671 38.6788 35.0425 38.5683C34.9737 38.4438 34.7703 38.4541 34.7778 38.251C34.891 38.2483 35.0043 38.2457 35.1175 38.243C35.0131 37.495 34.8548 37.1659 35.0606 36.4623C34.5369 36.5452 34.5661 36.0706 34.3597 35.8319C34.0516 36.0569 34.1515 35.8963 33.7664 35.8459C33.3972 35.9573 33.6689 36.6472 33.1991 36.6701C33.3366 36.2196 32.7726 36.0449 33.0826 35.6992C33.1596 35.872 33.4005 35.8797 33.6819 35.8479C33.6961 35.4434 33.6816 35.067 33.3163 35.0459C33.3021 35.1903 33.4155 35.45 33.1577 35.3739C33.0357 34.9491 33.4693 35.0281 33.4766 34.7178C33.3023 34.5033 33.2918 34.1252 32.9472 34.0833C32.8062 34.2182 32.8715 34.5394 32.6239 34.5774C32.6572 34.2077 32.557 33.9742 32.2635 33.9373C32.3152 34.2463 32.1598 34.3675 31.9384 34.4307C31.385 34.3788 31.5632 33.585 30.8943 33.6463C30.8504 33.7891 31.0129 34.1189 30.8253 34.1336C30.7505 33.8479 30.4878 33.7499 30.3812 33.4963C30.6719 33.4181 30.7427 33.1431 30.9597 32.9954C31.0592 33.257 31.5581 33.1159 31.8971 33.1369C32.0171 32.6264 31.4585 32.8002 31.3668 32.5016C31.126 32.4924 31.2123 32.7787 30.8632 32.6741C30.7361 32.1915 31.3067 32.3401 31.1771 31.8575C30.8153 31.7408 31.2104 32.3071 30.8477 32.1888C30.752 31.841 30.9286 31.7381 30.9969 31.5375C30.7451 31.6257 30.8418 31.3618 30.8167 31.2183C30.4781 31.3383 30.5436 31.0493 30.3036 31.0691C30.2969 31.1663 30.2851 31.2598 30.1398 31.2343C30.1372 31.514 30.4951 31.4335 30.4942 31.7123C30.1468 31.6078 30.2306 31.8933 29.9898 31.8857C29.862 31.5613 30.1662 31.6253 30.1449 31.3963C30.0165 31.3853 29.8316 31.4327 29.8026 31.3238C29.9328 31.258 29.9208 31.0625 30.1346 31.0731C30.189 30.8219 29.8377 30.9806 29.951 30.6716C30.1327 30.4229 30.19 30.4185 30.4579 30.5782C30.4654 30.3493 30.1657 30.4269 30.2726 30.0985C29.8137 30.024 29.84 30.3868 29.6948 30.5963C29.516 30.5527 29.14 30.7097 29.0974 30.5305C29.244 30.0069 29.5049 29.5879 29.3827 28.8216C29.1929 28.7924 29.0754 28.6863 29.0327 28.5064C28.8266 28.5841 28.7303 28.7572 28.3593 28.6853C28.3024 27.9338 27.7134 27.7222 27.2978 27.3334C27.4103 27.0236 27.0581 27.1824 27.115 26.9327C27.2291 26.93 27.3415 26.9273 27.4547 26.9247C27.4496 26.7626 27.4444 26.6014 27.4392 26.4394C27.1491 26.5081 27.0325 26.4044 27.0892 26.1234C26.8932 26.3137 26.4952 26.3207 26.0752 26.3103C25.7315 25.6519 24.9421 26.363 24.3697 26.0272C24.5051 26.3851 24.1281 26.2813 24.217 26.5964C24.5284 26.73 24.4713 27.5124 24.0764 27.4904C24.1405 27.2319 23.9928 27.1853 23.8937 27.0897C24.2456 26.667 23.6795 26.1948 24.1041 25.7092C24.8608 25.8769 25.4353 25.6346 26.2356 25.983C26.3039 25.7824 26.4804 25.678 26.3839 25.3301C26.0373 25.2263 26.1212 25.5126 25.8803 25.5042C25.8263 25.2266 25.5764 25.1425 25.1922 25.197C25.1813 25.3171 25.2313 25.4945 25.1164 25.5223C25.0919 25.2691 24.6211 25.4659 24.5162 25.2929C24.5956 25.2088 24.6775 25.1262 24.762 25.0451C24.8976 25.0497 24.8359 25.2501 25.0224 25.201C25.0283 25.103 25.0409 25.0095 25.187 25.035C25.077 24.7274 24.7801 24.6091 24.4904 24.4859C24.4928 24.3574 24.7041 24.4151 24.6508 24.2385C24.2919 24.2376 24.3659 23.8019 24.124 23.6839C24.1568 23.5546 24.3884 23.6071 24.2843 23.3566C24.272 23.2284 24.0656 23.2983 24.1058 23.1172C23.9174 23.1561 23.8093 23.2668 23.7773 23.4485C23.7636 23.6117 24.166 23.7675 23.8765 23.9334C23.5907 23.4686 23.2294 23.0823 23.0685 22.494C22.7247 22.5272 22.2582 22.8594 21.8821 22.602C21.8938 22.5061 21.8608 22.373 21.9605 22.3573C22.1455 22.6741 22.4264 22.1371 22.7288 22.502C22.7253 22.394 22.7219 22.286 22.7185 22.1788C22.3932 22.2264 22.2652 22.0775 22.1985 21.8668C22.4377 21.8462 22.3738 22.136 22.7132 22.0152C22.6016 21.7092 22.3063 21.5908 22.0149 21.4662C22.1288 21.0459 21.747 21.1247 21.8226 20.7414C21.9916 20.7374 22.1623 20.7334 22.3322 20.7294C22.2507 20.2605 21.693 20.4382 21.394 20.5895C21.1314 20.4915 21.0892 20.1729 21.113 19.7869C20.687 19.8198 20.9452 20.4724 20.2792 20.2908C20.209 20.5862 20.6184 20.3971 20.794 20.4423C20.6124 20.9033 21.1764 20.6134 21.1492 20.9188C20.6621 20.9671 20.6101 20.5728 20.1222 20.6196C20.1105 20.7421 20.1621 20.9179 20.0472 20.9449C19.7626 21.008 19.7637 20.7855 19.6144 20.7131C19.8307 20.5176 20.1514 19.8372 19.7472 19.5765C19.9854 19.4486 19.8693 19.0033 20.0653 18.8397C19.6647 18.7928 19.6928 19.1328 19.2212 19.0218C19.3289 18.6911 19.0284 18.7695 19.0366 18.5398C19.2843 18.5026 19.219 18.1814 19.36 18.0464C19.09 18.1531 19.2868 17.7858 19.0159 17.8917C18.737 17.7988 18.9587 18.1562 18.6814 18.0625C18.6408 17.7932 18.1595 17.5344 18.4003 17.2592C18.7319 17.1754 18.6235 17.5359 19.0004 17.4072C19.0321 16.985 18.7455 16.8821 18.3055 16.9372C18.3267 17.1396 18.1214 17.1389 18.0615 17.2673C17.9198 17.0489 17.5649 17.044 17.6174 16.63C17.3385 16.5363 17.5593 16.893 17.2812 16.8001C17.2698 16.7009 17.2513 16.6081 17.107 16.6421C17.2728 16.9217 17.5284 17.1083 17.6432 17.4393C17.1485 17.2458 16.3306 17.7344 16.0998 16.9895C16.5628 16.8555 16.5581 17.1964 16.9527 17.1322C16.9492 17.0234 16.9458 16.9169 16.9423 16.8081C16.5709 16.878 16.3848 16.7595 16.2568 16.5815C16.2798 16.1956 16.236 15.8794 16.0585 15.6956C16.2477 15.6559 16.3559 15.5452 16.387 15.3635C16.0591 15.3039 15.662 15.3157 15.6945 14.8935C15.3455 14.7898 15.431 15.0752 15.1893 15.0684C15.3154 14.7466 14.8233 15.0481 14.8419 14.833C14.7741 14.562 15.009 14.5635 15.0841 14.4223C15.1619 14.5951 15.4028 14.6027 15.6842 14.5694C15.614 14.2499 15.2216 14.2545 15.1531 13.935C14.8599 13.9318 14.9472 14.2736 14.6547 14.2703C14.7616 13.9404 14.4627 14.0187 14.4693 13.7891C14.8096 13.6698 14.7425 13.9581 14.9841 13.939C14.9806 13.831 14.9772 13.723 14.9737 13.615C14.6087 13.7043 14.5007 13.5369 14.2899 13.4682C14.1524 13.6603 14.0832 13.9126 14.146 14.2824C14.3358 14.3131 14.4525 14.4185 14.4952 14.5976C14.1259 14.5265 14.0279 14.6996 13.8226 14.7757C13.8951 14.4238 13.7123 14.3295 13.6313 14.1332C13.3239 14.435 13.1979 14.1654 12.7836 14.1533C12.689 14.5832 13.1185 14.483 13.1432 14.7918C12.5453 14.8937 12.611 14.3266 12.6018 13.8333C13.0032 13.8794 12.9742 13.5402 13.4467 13.6512C13.4246 13.4214 13.728 13.487 13.6002 13.1611C13.2621 13.0398 13.5818 13.5117 13.3561 13.4904C13.3308 13.238 12.8592 13.4356 12.7552 13.2626C12.8861 13.1984 12.8733 13.0028 13.0863 13.0127C13.0794 12.7966 13.0725 12.5814 13.0656 12.3646C12.7747 12.4341 12.6572 12.3288 12.7164 12.0486C12.1888 12.1903 12.1768 11.8146 11.8576 11.7454C11.9804 12.1193 11.584 12.0229 11.7076 12.3968C11.836 12.4078 12.0201 12.3604 12.0499 12.4701C12.0052 12.6388 12.1719 12.9991 11.9843 13.0388C11.899 13.0408 11.8145 13.0428 11.7283 13.0449C11.7214 12.8288 11.7145 12.6136 11.7076 12.3968C11.1489 12.5424 11.5123 11.7598 11.0117 11.8469C10.9778 11.6315 11.4893 11.9116 11.3428 11.5954C10.7605 11.5145 10.7295 10.8776 10.2935 10.6498C10.6345 10.5281 10.5683 10.8187 10.8091 10.7981C10.8021 10.5821 10.7952 10.3661 10.7884 10.1508C10.4182 10.0789 10.3202 10.252 10.1133 10.3298C10.1081 10.167 10.1029 10.0049 10.0978 9.8429C9.88792 9.77738 9.77985 9.60761 9.41402 9.69774C9.45984 10.0264 9.24101 10.117 9.18118 10.3519C9.09667 10.3539 9.01133 10.3559 8.92599 10.3579C8.82945 10.0093 9.00597 9.90559 9.07595 9.70576C8.82254 9.79323 8.9192 9.52852 8.8949 9.38497C8.54889 9.47855 8.22548 9.12276 8.4544 8.91132C8.77227 8.7855 8.62394 9.12898 8.88457 9.0617C8.92276 8.6895 8.83842 8.44006 8.68972 8.25794C8.39727 8.25468 8.4829 8.59575 8.19133 8.59404C7.96544 8.54064 7.8041 8.4254 7.83607 8.11523C7.49376 8.04188 7.14592 7.97571 6.80998 7.89594C6.8074 7.81532 6.80485 7.73548 6.80225 7.65408C7.14797 7.75712 7.06415 7.47241 7.30581 7.48C7.37994 7.12731 7.19711 7.03373 7.11612 6.83747C6.96525 6.79326 6.61952 6.94715 6.60477 6.76812C6.83955 6.3803 6.70515 6.13204 6.57112 5.71536C7.18729 5.59579 7.01747 6.26877 7.27479 6.50941C7.61024 6.44507 7.60318 6.07002 7.93783 6.00648C7.65983 6.12116 7.96369 6.76412 7.62568 6.82539C7.95851 7.11595 7.76311 7.47699 7.47921 7.63803C8.06496 7.7487 8.19186 7.32583 8.49915 7.61386C8.66465 7.34518 9.27398 7.47409 9.33127 7.10848C9.33645 7.27051 9.3416 7.43175 9.34678 7.59377C9.73725 7.6323 9.99914 7.55325 10.1901 7.41164C10.0443 6.85894 10.4178 6.77802 10.3253 6.27419C9.99093 6.11448 9.96773 6.62184 9.81836 6.36767C9.99751 6.29449 10.0041 6.06482 9.96847 5.79699C9.6862 5.80368 9.40311 5.81039 9.12084 5.81708C9.11079 5.93951 9.16078 6.11614 9.0467 6.14391C8.97778 6.01708 8.77368 6.02897 8.78113 5.82513C8.66772 5.5654 9.05489 5.75754 8.94147 5.49782C8.79063 5.45439 8.44488 5.6075 8.42928 5.42771C8.42673 5.34787 8.42416 5.26725 8.42158 5.18663C9.04602 5.19768 8.49513 5.04702 8.5759 4.69653C8.94899 4.62815 9.13509 4.74673 9.26146 4.92389C9.23525 5.31147 9.29339 5.61481 9.6244 5.643C9.63534 5.52289 9.58533 5.34548 9.69941 5.31771C10.3876 5.57634 10.6493 5.25995 11.48 5.27551C11.4835 5.38353 11.4869 5.49154 11.4903 5.59878C11.7098 5.29748 12.3184 5.35121 12.4035 4.93011C12.521 5.06284 12.7372 5.09532 12.6725 5.4094C13.1626 5.43146 13.5302 5.3452 13.6813 5.06198C13.5133 4.78867 13.0763 4.65802 12.8277 4.92006C12.8242 4.81204 12.8208 4.70403 12.8173 4.59601C13.3025 4.77173 12.9938 4.23385 13.3157 4.26069C13.2846 4.57084 13.4467 4.68528 13.6709 4.73636C13.8922 4.46557 14.6259 4.65733 14.8479 4.38496C14.8714 4.52932 14.7764 4.7932 15.0289 4.70418C15.0399 4.58407 14.9874 4.40672 15.1023 4.37893C15.4269 4.48952 15.2585 4.15433 15.5214 4.20842C15.5985 4.61783 15.2461 4.6395 15.1178 4.86579C14.7502 4.8745 14.3835 4.88319 14.0158 4.8919C13.9711 5.03474 14.1328 5.36461 13.946 5.37922C13.7474 5.38392 13.5497 5.38861 13.3519 5.39329C13.374 5.62228 13.0706 5.55819 13.1984 5.88181C13.6641 5.9632 13.7721 5.7186 13.9512 5.54046C14.4192 5.48707 14.5108 5.81154 15.06 5.67633C15.0173 5.49717 14.9006 5.39184 14.71 5.36111C14.4327 5.26742 14.6527 5.62488 14.3754 5.5304C14.4193 5.3868 14.2585 5.0577 14.4453 5.04387C14.785 5.06324 14.9282 5.27917 15.2187 5.34906C15.2212 4.60484 16.6841 4.72057 16.5802 5.47815C17.0864 5.35884 17.0976 5.7377 17.6053 5.61601C17.5452 5.25005 17.632 5.01222 17.9228 4.96146C17.9228 4.68103 17.5674 4.7623 17.5691 4.4834C17.8173 4.56525 18.0083 4.70799 18.2573 4.79139C18.3704 4.42603 18.0007 4.54915 18.0693 4.22872C18.2864 4.03244 18.5483 3.87584 18.7298 3.64516C18.735 3.80875 18.7401 3.96921 18.7453 4.13201C18.6321 4.1347 18.5189 4.13738 18.4056 4.14007C18.4874 4.33631 18.6703 4.42989 18.597 4.78334C18.0671 4.77553 18.0252 5.21126 17.9434 5.60799C18.2837 5.4887 18.2173 5.77697 18.4573 5.75718C18.3946 5.62002 18.0984 5.29413 18.3529 5.11263C18.9158 5.22775 18.9714 4.88491 19.2739 4.76729C19.2301 4.91011 19.3942 5.23992 19.2058 5.25457C18.844 5.21536 18.6692 5.34562 18.6228 5.59189C18.9631 5.4726 18.8959 5.76088 19.1359 5.7411C19.1348 5.39959 19.5913 5.47259 19.7145 5.24251C19.9854 5.65125 20.2153 5.13508 20.4733 5.06238C20.5351 5.20035 20.8329 5.52542 20.5784 5.70691C20.4738 5.62009 20.4185 5.48041 20.1499 5.5557C20.1534 5.66529 20.1568 5.77174 20.1603 5.88054C20.6224 5.7466 20.6177 6.08667 21.013 6.02091C21.1097 5.75777 20.7354 5.96639 20.8328 5.70088C21.0002 5.72276 20.9975 5.5881 21.0828 5.53359C21.2236 5.82635 21.8568 5.67505 22.015 5.5115C22.0185 5.62108 22.0219 5.72754 22.0254 5.83633C21.9121 5.83902 21.8005 5.84166 21.6865 5.84437C21.5898 6.1075 21.9625 5.89814 21.8667 6.16361C22.1955 5.8417 22.2093 6.22128 22.5512 6.30796C22.6573 5.97959 22.3584 6.05639 22.3667 5.82824C22.582 5.5999 23.3639 5.52732 23.3885 5.96461C23.2187 5.96864 23.0488 5.97266 22.8798 5.97667C23.1173 6.36896 23.8228 5.90889 23.8877 5.62849C23.7361 5.58665 23.3912 5.73895 23.3756 5.56072C23.4186 5.44221 23.2629 5.14432 23.4472 5.15405C23.7518 5.15153 23.9053 5.30456 23.8877 5.62849C24.001 5.6258 24.1126 5.62316 24.2274 5.62043C24.2206 5.40518 24.2137 5.18993 24.2068 4.9739C24.7329 4.88859 24.8199 5.24607 25.3976 5.10783C25.5387 4.9721 25.4733 4.65014 25.7218 4.61449C25.7322 4.99023 25.4533 5.10337 25.5838 5.58829C25.9532 5.66022 26.0519 5.4879 26.2556 5.41101C26.2591 5.52059 26.2625 5.62704 26.266 5.73584C26.118 5.75658 25.8391 5.66292 25.933 5.90431C26.3336 5.95121 26.3055 5.61192 26.7772 5.72372C26.8191 5.90368 26.9358 6.00901 27.1272 6.03894C27.3815 5.82455 27.1512 5.17045 27.5188 5.05756C27.5575 5.24229 27.8628 5.15751 27.9515 5.28935C27.9086 5.40865 28.0634 5.70577 27.88 5.69759C27.7028 5.62424 27.6934 5.3832 27.4454 5.38281C27.3844 5.88871 27.6186 6.09858 28.1439 6.01484C28.1548 5.89317 28.104 5.71656 28.2181 5.68958C28.396 6.03942 29.3519 5.60474 29.338 6.14713C29.6296 6.1504 29.544 5.81012 29.8356 5.81182C29.8282 6.04308 30.1278 5.96313 30.0202 6.29467C30.19 6.29065 30.3599 6.28662 30.5289 6.28262C30.4073 5.76459 30.865 6.00597 31.0333 6.10695C31.045 5.98682 30.9942 5.80943 31.1083 5.78166C31.1928 5.77966 31.2781 5.77764 31.3635 5.77561C31.3687 5.93842 31.3738 6.09888 31.379 6.26247C31.6047 6.25712 31.8303 6.25177 32.0576 6.24639C32.0493 6.47453 32.349 6.39693 32.2422 6.72767C32.896 6.68085 33.4917 6.69179 33.9434 6.84872C34.0694 6.52692 33.5774 6.82998 33.5975 6.6133C33.6397 6.49481 33.4841 6.19848 33.6684 6.20822C34.0948 6.14014 33.9596 6.63762 34.4434 6.51336C34.5495 6.18185 34.2506 6.26178 34.2572 6.03055C34.4279 6.0265 34.5969 6.0225 34.766 6.01849C34.6608 5.42644 35.1585 5.37705 35.1548 4.87659C35.2402 4.87457 35.3239 4.87259 35.4084 4.87059C35.3631 5.25157 35.7186 5.22591 35.6041 5.67512C35.3117 5.67343 35.3989 6.01367 35.1057 6.01044C35.0715 6.38019 35.1726 6.61436 35.4653 6.65129C35.7078 6.65886 35.6223 6.37262 35.9705 6.47717C35.9739 6.5844 35.9774 6.69242 35.9808 6.80044C36.5595 6.66452 36.6456 7.02124 37.1725 6.93434C37.18 6.70465 36.8811 6.78302 36.988 6.45306C36.5502 6.52845 36.3576 5.92359 36.5387 5.65297C36.6224 5.65098 36.7077 5.64896 36.7922 5.64696C36.7337 6.1528 37.0506 6.27846 37.1622 6.61107C37.7029 6.36561 37.8977 5.80641 37.789 4.97553C37.4197 4.90439 37.3209 5.07749 37.1156 5.15364C37.2769 5.01117 37.2285 4.67862 37.3501 4.50106C37.7471 4.43447 37.8609 4.65423 38.1201 4.72407C38.1101 4.81988 38.144 4.95537 38.0442 4.96948C37.9094 4.96563 37.9704 4.766 37.7839 4.81429C37.9096 5.38313 38.8755 5.10566 39.1652 5.51082C39.2972 5.81397 38.9363 5.67135 39.0082 5.91795C39.1127 5.92566 39.21 5.93824 39.1833 6.07752C39.4241 6.08435 39.3395 5.79966 39.686 5.90189C39.6152 6.23021 40.1073 6.41908 39.798 6.70997C39.396 6.30826 38.8793 6.02206 38.6539 5.44226C38.2845 5.36955 38.1857 5.54344 37.9804 5.6188C38.1144 6.2133 37.7172 6.32533 37.8511 6.91826C38.2272 6.79028 38.1188 7.14926 38.4503 7.06542C39.1991 6.93331 40.2582 7.31084 41.4199 6.99505C41.4234 7.10306 41.4268 7.21108 41.4303 7.3191C41.8534 7.19862 41.8836 7.47363 42.1986 7.46382C42.2593 7.3347 42.4647 7.3361 42.4426 7.13296C42.5392 6.86825 42.1674 7.07838 42.2624 6.81372C42.5405 6.90661 42.3197 6.54995 42.5961 6.64366C42.5765 6.80236 42.7161 6.8014 42.7737 6.88306C42.7712 7.01002 42.5599 6.9508 42.6116 7.12895C43.0007 7.07195 43.2656 7.13852 43.4661 7.27085C43.4677 7.01466 42.8777 6.92447 43.1902 6.62958C43.3171 6.64224 43.2744 6.82342 43.2867 6.95081C43.6771 6.98934 43.9374 6.9111 44.1292 6.76948C44.1358 6.53981 43.8377 6.61815 43.9438 6.28821C43.4357 6.24385 42.9101 6.21558 42.7401 5.82951C42.7712 5.64861 42.881 5.53791 43.0703 5.49818C42.9788 5.9249 43.4234 5.80862 43.5946 5.97298C43.6257 5.79129 43.7355 5.68059 43.9231 5.6409C43.9452 5.8691 43.6418 5.80579 43.7688 6.13021C44.3466 5.99354 44.494 6.29005 44.7974 6.43013C44.9182 5.91889 44.5219 5.92828 44.4319 5.62884C44.6718 5.60827 44.6064 5.89887 44.9474 5.7772C45.1593 5.26537 44.966 5.23001 44.9112 4.64538C44.1374 4.56189 43.4393 4.40297 42.6909 4.29224C42.7855 4.19208 42.9292 4.14168 42.8495 3.88429C42.3187 3.82167 42.1926 4.24452 41.8296 3.90846C41.8347 4.06892 41.8399 4.23251 41.8451 4.39453C42.106 4.43926 42.5737 4.2723 42.6962 4.45505C42.4604 4.52878 42.5485 4.89564 42.5495 5.18622C42.203 5.08321 42.2885 5.36866 42.046 5.36187C42.0218 4.9136 41.3 5.16884 41.1803 4.81526C41.2605 4.73033 41.3424 4.64692 41.4277 4.56579C41.5609 4.57047 41.4999 4.77009 41.6864 4.7218C41.6761 4.39854 41.6657 4.07292 41.6554 3.74966C41.2641 3.86703 41.3629 3.48791 40.9724 3.60526C41.369 4.01416 40.6542 4.36087 40.4983 4.74996C40.709 4.81625 40.817 4.98445 41.1828 4.8951C41.0435 5.28771 41.4267 5.15095 41.5346 5.29096C41.5254 5.38674 41.5568 5.52151 41.4587 5.53637C41.3793 5.36514 41.1393 5.35673 40.8595 5.38999C40.856 5.28119 40.8526 5.17474 40.8491 5.06516C40.4502 4.96808 40.573 5.34116 40.1757 5.24248C40.1705 5.08124 40.1653 4.91922 40.1602 4.75797C39.8104 4.63153 39.736 5.15342 39.4834 4.85548C39.7495 4.83116 39.5389 4.3826 39.7205 4.28274C39.7999 4.50802 40.1841 4.42685 40.4879 4.4267C40.5579 4.22607 40.7336 4.12321 40.6379 3.77377C40.2637 3.96124 39.7964 4.06239 39.4653 4.28878C39.5023 3.75055 38.727 4.03055 38.4322 3.82604C38.4222 3.94769 38.4722 4.12511 38.3572 4.15133C38.2153 4.15469 38.0741 4.15804 37.9338 4.16136C37.9304 4.05413 37.9269 3.94611 37.9235 3.8381C37.4597 3.97207 37.4661 3.63196 37.0691 3.69777C37.0582 3.81866 37.109 3.99527 36.9957 4.02302C36.4123 3.57312 35.8794 4.01109 35.1988 3.57916C35.1246 3.93184 35.3083 4.02619 35.3876 4.22171C35.0483 4.34333 35.1137 4.05352 34.8738 4.0733C34.8426 4.25577 34.7337 4.36567 34.5452 4.40538C34.9389 4.05609 34.3794 3.68866 34.6833 3.4308C34.2733 3.2956 34.4171 3.66035 34.271 3.76408C33.9985 3.50969 33.3027 3.68206 33.4812 2.97206C32.9965 3.04386 33.1505 3.16006 32.7164 2.99018C32.4631 3.28523 32.2588 3.62533 32.0688 3.97685C32.0016 3.85232 31.7975 3.86265 31.805 3.65959C32.0459 3.66876 31.962 3.38249 32.3078 3.48709C32.3151 3.25584 32.0163 3.33577 32.1232 3.00424C31.6984 3.12476 31.6698 2.84892 31.3541 2.8611C31.2418 3.15124 30.6324 2.99492 30.2564 3.04848C30.2126 3.19287 30.3734 3.52275 30.1883 3.53732C29.8712 3.66155 30.0187 3.31809 29.758 3.3838C29.7026 3.88488 30.22 3.80917 30.2926 4.18187C29.935 4.0141 29.7571 3.66504 29.2579 3.64005C29.6271 3.47542 29.9143 3.23754 30.0814 2.89127C29.4146 2.55692 28.5432 2.96297 28.0404 2.77749C27.9104 3.38373 28.6491 3.55343 28.337 4.06529C28.2516 4.06731 28.1663 4.06933 28.0818 4.07133C28.0952 3.66839 28.0816 3.2935 27.7171 3.27081C27.4407 3.17866 27.6606 3.53456 27.3833 3.44008C27.3832 3.72051 27.7379 3.63926 27.7378 3.91891C27.5278 3.85103 27.419 3.68363 27.0548 3.77216C27.1637 4.27717 26.7633 4.28744 27.0807 4.58228C26.9674 4.58497 26.8542 4.58765 26.741 4.59033C26.9807 4.7938 26.8711 5.34864 27.1117 5.55208C26.4939 5.67247 26.6646 5.00104 26.4064 4.76041C26.5754 4.59896 26.4517 4.17263 26.9005 4.26226C26.9155 3.78251 26.2665 3.72191 26.6996 3.29492C26.0757 3.32616 26.2105 3.48433 25.6804 3.31907C25.541 3.71012 25.9235 3.57416 26.0339 3.71646C25.8404 3.75081 25.9318 4.04239 25.7916 4.12561C25.7063 4.12763 25.6226 4.12961 25.5373 4.13164C25.6358 3.64286 25.2379 3.65464 25.3356 3.1651C25.1665 3.16911 24.9967 3.17313 24.8276 3.17714C24.821 3.40681 25.1199 3.32844 25.0122 3.65999C25.1638 3.67363 25.4354 3.56693 25.3562 3.81241C24.9609 3.87818 24.9665 3.53809 24.5043 3.67202C24.4934 3.79291 24.5434 3.96954 24.4285 3.99733C24.3288 3.98716 24.1885 4.01555 24.1731 3.92192C24.1468 3.66326 24.3039 3.56867 24.4991 3.50843C24.4992 3.23035 24.143 3.31164 24.1447 3.03196C24.3307 2.9923 24.4413 2.88158 24.4732 2.69988C24.1533 2.63148 24.1412 2.25499 23.6144 2.39515C23.5068 2.7267 23.8064 2.64831 23.7998 2.87798C23.5217 2.78431 23.7434 3.14173 23.4645 3.04808C23.4576 2.83205 23.4506 2.61523 23.4437 2.3992C23.0524 2.4633 22.7513 2.72737 22.4271 2.42329C22.4919 3.06486 22.0783 2.53261 21.7529 2.60298C21.709 2.74659 21.869 3.07571 21.6839 3.09028C21.549 3.05822 21.6027 2.83762 21.3398 2.93628C20.9551 3.10285 21.135 3.54116 21.2821 3.82907C21.1503 3.89329 21.1647 4.08721 20.951 4.07974C20.824 3.75376 21.1274 3.81942 21.1045 3.58888C20.9354 3.59289 20.7656 3.59691 20.5957 3.60094C20.6942 3.08631 20.1761 3.18946 19.8998 3.05031C20.1624 2.65791 19.7203 2.5454 20.0412 2.15632C19.8306 2.09082 19.7209 1.92187 19.3575 2.01194C19.2498 2.34114 19.5495 2.26354 19.5428 2.49164C19.2286 2.57664 19.2406 2.95391 18.7039 2.8366C18.7005 2.7278 18.6971 2.62135 18.6936 2.51177C18.2298 2.64574 18.2353 2.30565 17.84 2.37142C17.891 2.83629 17.8193 3.19048 17.5329 3.35001C17.8224 2.84966 17.3619 2.62401 17.6666 2.2126C16.993 2.13064 16.9917 2.65315 16.3181 2.56807C16.075 2.002 15.7591 2.52491 15.2911 2.26889C15.3245 2.74906 15.0864 3.39311 14.6401 3.17496C14.6375 3.09512 14.635 3.0145 14.6324 2.93309C14.9265 2.98879 15.0363 2.87887 14.9617 2.60021C14.8101 2.55915 14.4659 2.71066 14.4487 2.53247C14.4165 2.3186 14.9271 2.59633 14.7807 2.28099C14.336 2.39571 14.4163 1.981 14.0918 1.97381C14.2126 2.10724 14.4264 2.57843 14.2022 2.78192C13.7017 2.59091 13.731 1.86407 13.0691 1.83746C13.0582 1.95835 13.109 2.13496 12.9941 2.16275C12.7964 2.16743 12.5986 2.17212 12.4009 2.17681C12.3974 2.06879 12.394 1.96078 12.3905 1.85354C12.2773 1.85623 12.1633 1.85893 12.05 1.86161C12.0507 2.13967 12.4061 2.05918 12.406 2.33727C11.9344 2.22625 11.9625 2.56632 11.5628 2.52018C11.4349 2.19422 11.7384 2.26066 11.7163 2.0301C11.487 1.87104 11.0876 1.88677 10.8575 1.72694C10.6413 2.05558 10.4827 2.43533 10.0349 2.55639C10.0339 2.83527 10.391 2.75396 10.3909 3.03361C10.1308 2.98808 9.66314 3.15504 9.53905 2.97233C9.7241 2.8528 9.77458 2.60799 10.0349 2.55639C10.028 2.34114 10.0211 2.12511 10.0142 1.90986C9.84437 1.91388 9.67615 1.91787 9.50548 1.92191C9.49456 2.0428 9.54537 2.21941 9.4313 2.24718C9.30446 2.23531 9.3463 2.05415 9.33645 1.92592C8.43294 1.73897 8.90346 2.79235 7.99992 2.60462C7.90324 2.86854 8.27596 2.65996 8.1793 2.92466C7.58779 2.91596 7.63372 3.47965 7.18166 3.59532C6.96877 3.61447 6.96993 3.41939 6.83418 3.35995C6.86628 3.23385 7.09953 3.28629 6.99452 3.03264C6.85679 2.78289 6.43737 2.81476 6.29959 2.56345C6.48037 2.49023 6.4862 2.26136 6.4522 1.99427C6.10479 1.88971 6.18867 2.17598 5.94778 2.16681C5.93329 2.33008 6.33737 2.48657 6.04783 2.65088C5.93108 2.51813 5.7141 2.48646 5.77874 2.17081C5.24711 2.109 5.12102 2.53184 4.76126 2.19493C4.28743 2.47718 3.86018 3.21501 3.08685 2.96466C3.29379 2.75923 3.52097 2.57055 3.92232 2.53832C3.92981 2.3102 3.63089 2.387 3.737 2.05862C3.56715 2.06264 3.39812 2.06665 3.22908 2.07066C3.18356 2.21352 3.34435 2.54262 3.15756 2.55644C3.03313 2.51709 2.72408 2.66228 2.73161 2.48664C2.72903 2.40602 2.72643 2.32461 2.72383 2.24321C2.83706 2.24053 2.94948 2.23786 3.06354 2.23516C3.15859 1.97206 2.78749 2.17982 2.88253 1.91594C2.64333 1.90829 2.7255 2.19304 2.37981 2.09078C2.46081 2.28704 2.64363 2.38063 2.56868 2.73333C2.45709 2.73597 2.34385 2.73866 2.2298 2.74136C2.12458 3.07206 2.4226 2.99294 2.41598 3.22261C2.65849 3.23096 2.57298 2.94472 2.91875 3.04933C3.01284 3.55234 2.72895 3.71416 2.43667 3.86992C2.21249 3.81883 2.04866 3.70287 2.08145 3.39268C2.23024 3.37192 2.5091 3.46401 2.41598 3.22261C1.90907 3.3435 1.89861 2.96462 1.39334 3.08548C1.31921 3.43816 1.50204 3.53174 1.58304 3.728C1.41401 3.73201 1.24415 3.73603 1.07512 3.74004C0.965824 4.07162 1.2671 3.99164 1.25971 4.22289C1.00187 4.14597 1.11363 4.40573 1.10101 4.55016C0.986131 4.55289 0.872892 4.55557 0.759657 4.55825C0.912967 5.16717 0.420294 5.19373 0.10857 5.38363C0.342006 5.64756 0.56992 5.91868 0.481984 6.50747C0.703268 6.41684 0.854505 6.19001 0.826897 6.66222C1.09629 6.66367 1.18836 6.10142 1.49938 6.40346C1.26372 6.60957 1.07882 6.86226 1.01566 7.22409C1.15136 7.28197 1.15023 7.47783 1.36314 7.45947C1.36899 7.35985 1.38243 7.26631 1.52782 7.29342C1.62365 7.02873 1.25012 7.23733 1.34764 6.97418C1.68744 7.04602 2.03611 7.11296 2.37203 7.19194C2.37463 7.27335 2.37718 7.35319 2.37981 7.43537C1.84897 7.37275 1.72535 7.79554 1.36314 7.45947C1.3683 7.62071 1.37348 7.78273 1.37863 7.94397C1.8798 8.10599 2.11468 7.61869 2.39274 7.84004C2.35984 7.96694 2.12824 7.91446 2.23404 8.16731C2.37945 8.27197 2.42536 8.47532 2.74974 8.3987C2.78871 8.02492 2.70439 7.77626 2.55564 7.59257C2.81301 7.83478 3.42836 7.71523 3.91801 7.72243C3.90429 7.88412 4.30674 8.04064 4.01804 8.20572C3.8857 8.2018 3.94581 8.00142 3.75849 8.04972C3.8516 8.29113 3.57436 8.19822 3.4256 8.21976C3.80076 8.55004 3.23018 8.70848 3.28594 9.19438C3.43879 8.91503 3.80968 8.82948 4.11893 8.69055C4.2063 9.18902 3.61891 9.07839 3.81022 9.6684C4.10033 9.59886 4.21702 9.70419 4.16026 9.98362C4.49135 10.04 5.16132 9.75388 5.01989 10.2875C5.44413 10.2524 5.25109 9.65932 5.67697 9.62416C5.68158 10.051 5.95858 9.95666 5.69766 10.2715C5.92413 10.2661 6.14979 10.2608 6.37626 10.2554C6.31689 9.88786 6.40292 9.65082 6.69527 9.60003C6.46655 10.3057 7.32538 10.3535 6.99102 10.8886C6.63151 10.9449 6.44942 10.8231 6.38659 10.5787C6.0809 10.8804 6.06705 10.4985 5.53896 10.5987C5.70623 10.8736 5.70395 10.8024 5.55452 11.0856C6.02687 10.8856 5.75306 11.4397 6.07359 11.3968C6.36516 11.3985 6.27874 11.0583 6.57118 11.0615C6.5746 11.1687 6.57806 11.2768 6.58151 11.3848C6.46909 11.3874 6.35668 11.3901 6.24263 11.3928C6.23519 11.6225 6.53569 11.5441 6.42799 11.8741C6.81845 11.9126 7.07952 11.8336 7.27126 11.6919C7.17117 12.1831 7.45766 12.2828 7.47131 12.6585C8.08063 12.6331 8.85476 12.7542 8.98803 12.2991C8.99321 12.4611 8.99836 12.6223 9.00354 12.7844C8.73055 12.7219 8.68416 12.8632 8.58367 12.9564C8.45131 12.9518 8.51144 12.7521 8.32576 12.8004C8.37083 13.1573 7.85692 13.0074 7.83253 13.2978C8.31525 13.2425 8.41247 13.3294 8.18092 13.613C8.63148 13.6047 9.14571 13.533 9.37429 13.7477C9.47096 13.4837 9.09825 13.6923 9.19492 13.4284C9.53935 13.3881 9.63552 13.5966 9.88048 13.6558C9.96854 13.9701 9.59238 13.8655 9.72954 14.2257C10.0955 14.1904 10.2689 14.3492 10.2529 14.6982C10.6206 14.7161 10.7844 14.55 10.7478 14.2016C10.421 14.279 10.3751 14.0749 10.2297 13.971C10.2954 13.7415 10.3266 13.4823 10.5529 13.3962C10.5163 13.766 10.6181 13.997 10.9125 14.0355C11.2753 13.9016 11.8403 13.6195 11.3945 13.2133C11.7398 13.173 11.8351 13.3815 12.0809 13.4407C12.0835 13.5205 12.0861 13.6035 12.0887 13.6833C11.9196 13.6873 11.749 13.6914 11.5799 13.6954C11.5733 13.9258 11.8714 13.8475 11.7645 14.1775C11.3436 14.1632 11.2424 14.4381 11.1022 14.678C11.2031 15.1895 11.6549 15.3472 11.6524 15.9614C12.1037 16.0557 11.9978 15.6438 12.3206 15.6205C12.3111 16.0178 12.0274 16.135 12.3465 16.4306C12.0532 16.3749 11.9426 16.4856 12.0179 16.7627C12.3415 16.6093 12.5019 16.3094 12.9354 16.2553C13.2277 16.4614 13.2671 16.9234 13.7218 16.9651C13.7243 17.0457 13.7269 17.1272 13.7295 17.2086C13.5605 17.2126 13.3906 17.2166 13.2208 17.2206C13.1204 17.5998 13.5109 17.484 13.4113 17.8639C14.0631 17.6503 13.87 18.2893 14.1106 18.4944C14.3743 18.5484 14.2051 18.214 14.5297 18.3231C14.7153 18.6085 15.1604 18.6324 15.1496 19.1183C15.6855 19.1338 16.1602 19.2111 16.1878 19.7407C16.0745 19.7434 15.9621 19.7461 15.8497 19.7487C15.8161 20.0605 15.9799 20.1749 16.2033 20.2276C16.3417 19.9854 16.3263 19.6043 16.8664 19.7247C17.026 19.5023 17.0139 19.1243 17.3536 19.0661C17.3588 19.2281 17.3639 19.3894 17.3691 19.5522C17.0759 19.4964 16.966 19.6064 17.0406 19.8835C17.3501 19.9059 17.8712 19.7157 17.7312 20.1914C18.0725 20.1574 18.5398 19.8244 18.9151 20.0811C18.7783 20.2989 18.48 20.3687 18.2511 20.5026C18.1536 20.7657 18.5271 20.5579 18.4296 20.8219C18.3172 20.8245 18.204 20.8272 18.0916 20.8299C18.0881 20.7218 18.0847 20.6146 18.0812 20.5066C17.6586 20.5417 17.2639 20.5495 17.2208 20.2035C16.9799 20.1951 17.0638 20.4798 16.7172 20.3752C16.7241 20.5928 16.731 20.8081 16.7379 21.0233C17.2101 21.0505 16.9846 21.7788 17.6062 21.6521C17.7139 21.3206 17.4159 21.3989 17.4209 21.1701C17.7939 21.1001 17.9808 21.2187 18.1097 21.3966C18.2417 21.6997 17.88 21.5579 17.9519 21.8045C18.533 21.6928 18.3559 22.3432 18.8185 22.3511C18.7425 22.5182 18.4899 22.5273 18.4917 22.7638C18.5396 23.1332 19.057 23.03 19.1892 23.3136C19.1842 23.4414 18.9746 23.3829 19.0263 23.5611C19.2532 23.775 19.8325 23.7613 20.0454 23.5369C19.9878 23.8164 20.1045 23.9217 20.393 23.8522C20.4393 23.7093 20.2777 23.3802 20.4636 23.3649C21.1088 23.5094 21.5554 23.7126 22.0821 23.5693C21.8118 23.6917 21.7774 24.0278 21.6829 24.3089C21.6051 24.136 21.3642 24.1284 21.0836 24.1593C21.2096 24.8128 21.6338 25.1638 21.4846 26.0956C21.8606 25.9653 21.753 26.3242 22.0846 26.242C22.295 26.0921 22.4715 25.9116 22.8374 25.8998C22.8813 25.757 22.7189 25.4287 22.9056 25.4126C22.9127 25.7398 23.2795 25.7053 23.5134 25.8039C23.1071 26.1441 22.5935 26.3874 22.3589 26.8833C22.3973 27.2881 22.9972 27.2512 23.2133 27.0252C23.3361 27.399 22.9397 27.3035 23.065 27.6765C23.234 27.6725 23.403 27.6685 23.5729 27.6645C23.4733 28.0436 23.8622 27.9286 23.7626 28.3078C23.9027 28.194 24.3947 27.992 24.6093 28.207C24.6806 28.5868 24.4499 28.6925 24.3773 28.9402C24.2719 28.8526 24.2165 28.713 23.948 28.7898C23.9919 29.135 24.3842 29.1288 24.806 29.093C24.9102 29.3216 25.086 29.4804 25.3319 29.567C25.3232 29.2969 25.3146 29.0277 25.306 28.7576C25.1783 28.7458 24.9918 28.7941 24.9645 28.6843C24.973 28.5885 24.94 28.4553 25.0405 28.4404C25.1884 28.7275 25.4441 28.5311 25.6346 28.4263C25.7624 28.7507 25.4589 28.6859 25.481 28.9141C25.6302 28.9583 25.9759 28.8044 25.9915 28.9834C26.017 29.2429 25.8616 29.3367 25.6656 29.3969C25.659 29.6266 25.9578 29.5482 25.8501 29.8782C26.1746 29.8313 26.3025 29.9795 26.3701 30.191C26.6473 30.2831 26.4256 29.9257 26.7038 30.0201C26.5224 30.5109 27.1117 30.2212 27.2262 30.4127C27.217 30.5085 27.2467 30.6417 27.1486 30.6566C26.7416 30.2801 26.3651 30.8569 25.8708 30.5263C26.2048 30.7745 26.4098 31.1519 26.7477 31.3961C26.6548 31.4955 26.5103 31.5475 26.5908 31.8048C26.9289 31.9269 26.61 31.4535 26.8356 31.4747C27.2296 31.8015 27.9226 31.825 28.1368 32.3353C28.0058 32.3995 28.0169 32.5935 27.8057 32.586C27.9168 32.9045 28.3141 32.899 27.9962 33.2293C28.2361 33.2079 28.1707 33.4985 28.5093 33.3785C28.5864 32.9388 28.3834 32.7807 28.3118 32.4925C28.4739 32.4245 28.6395 31.956 28.8102 32.1572C28.7343 32.3259 28.4832 32.3318 28.4834 32.5699C28.7551 32.4632 28.5558 32.8291 28.8283 32.7224C29.0328 32.647 29.1323 32.4731 29.5017 32.5458C29.5086 32.7618 29.5155 32.9771 29.5224 33.1931C29.4084 33.1958 29.2959 33.1985 29.1827 33.2012C29.4053 33.409 29.4176 33.7917 29.2086 34.0097C29.7624 33.8423 29.7737 34.2212 29.7388 34.6458C30.3177 34.5655 30.6948 35.3422 30.1933 35.6063C30.0177 35.5337 30.0091 35.2919 29.7595 35.2931C29.8045 35.8027 29.9125 36.2506 30.4691 36.2476C30.4766 36.0179 30.1769 36.0963 30.2846 35.7655C30.5094 35.7602 30.7367 35.7548 30.9615 35.7495C30.9667 35.9123 30.9719 36.0735 30.9771 36.2355C30.8655 36.2382 30.7522 36.2409 30.639 36.2435C30.6206 36.5675 30.7725 36.7221 31.0788 36.7203C31.3465 36.515 31.4806 36.1907 31.8211 36.0534C31.9289 36.7276 31.5564 36.9667 31.5271 37.5173C31.7544 37.5119 31.9809 37.5066 32.2066 37.5012C32.107 37.8811 32.4975 37.7654 32.3979 38.1453C32.6886 37.9896 32.8828 37.746 33.2301 37.6399C33.2352 37.8011 33.2404 37.9632 33.2456 38.1252C33.6923 38.1765 34.1756 38.1901 34.4425 38.4211C33.9294 38.3236 33.8239 38.5948 33.4301 38.6065C33.43 38.8853 33.7855 38.8056 33.7854 39.0853C33.6686 39.0277 33.1339 38.7169 33.1076 39.1013C33.5841 39.0822 34.1528 39.2246 33.8008 39.569C33.9707 39.565 34.1422 39.5609 34.3104 39.5569C34.3837 39.205 34.2009 39.1099 34.1215 38.9144C34.5496 38.8439 34.5751 39.1794 34.8114 39.303C34.8081 39.4292 34.5968 39.3715 34.6501 39.5489C34.8799 39.7494 35.2811 39.7399 35.4986 39.5288C35.502 39.6368 35.5055 39.7456 35.5089 39.8528C35.3957 39.8555 35.2816 39.8582 35.1692 39.8609C35.1365 40.1718 35.2986 40.2863 35.5245 40.3389C35.5346 40.218 35.4846 40.0414 35.5986 40.0136C35.8689 39.9908 35.9706 40.1403 36.0324 40.3269C35.8625 40.3309 35.6935 40.3349 35.5245 40.3389C35.4278 40.6036 35.8005 40.395 35.7038 40.6582C35.3644 40.7782 35.4299 40.4892 35.1899 40.509C35.1436 40.7043 35.3154 41.0935 35.1253 41.1591C34.7823 41.1421 34.6526 40.9118 34.5148 40.6863C34.8427 40.7193 34.9618 40.5661 35.0141 40.351C34.6997 40.4336 34.5926 40.7041 34.1784 40.6943C34.2137 41.1031 34.8973 40.8598 34.7122 41.4924C35.2414 41.555 35.3675 41.1314 35.7297 41.4683Z" fill="white"/>
</svg>
