<?xml version="1.0" encoding="utf-8"?>
<svg width="156px" height="156px" viewBox="0 0 156 156" version="1.1" xmlns:xlink="http://www.w3.org/1999/xlink" xmlns="http://www.w3.org/2000/svg">
  <defs>
    <path d="M90.6547 2.03213L106.668 110.44Q106.677 110.498 106.679 110.556Q106.68 110.615 106.675 110.673Q106.67 110.731 106.658 110.789Q106.646 110.846 106.628 110.901Q106.61 110.957 106.585 111.01Q106.56 111.063 106.529 111.112Q106.498 111.162 106.462 111.208Q106.426 111.253 106.384 111.295Q106.343 111.336 106.297 111.372Q106.251 111.408 106.201 111.439Q106.151 111.469 106.098 111.493Q106.045 111.518 105.989 111.536Q105.934 111.554 105.876 111.566Q105.819 111.577 105.761 111.582Q105.703 111.587 105.644 111.584Q105.586 111.582 105.528 111.573L1.88517 95.6145Q1.85158 95.6093 1.81841 95.6019Q1.78525 95.5944 1.75267 95.5848Q1.72009 95.5751 1.68824 95.5632Q1.65639 95.5513 1.62542 95.5373Q1.59445 95.5233 1.56451 95.5072Q1.53457 95.4911 1.50579 95.4731Q1.477 95.455 1.44952 95.435Q1.42203 95.415 1.39597 95.3932Q1.36991 95.3714 1.34539 95.3478Q1.32087 95.3243 1.298 95.2991Q1.27514 95.274 1.25404 95.2473Q1.23294 95.2207 1.2137 95.1927Q1.19445 95.1647 1.17716 95.1354Q1.15987 95.1061 1.1446 95.0758Q1.12934 95.0454 1.11618 95.0141Q1.10301 94.9827 1.09201 94.9506Q1.081 94.9184 1.07221 94.8856Q1.06342 94.8527 1.05688 94.8194Q1.05034 94.786 1.04608 94.7523Q1.04182 94.7186 1.03986 94.6847Q1.03791 94.6507 1.03826 94.6168Q1.03861 94.5828 1.04128 94.5489Q1.04394 94.515 1.0489 94.4814Q1.05386 94.4477 1.06109 94.4145Q1.06833 94.3813 1.0778 94.3487Q1.08728 94.316 1.09895 94.2841Q1.11062 94.2522 1.12443 94.2211Q1.13825 94.1901 1.15414 94.16Q1.17003 94.13 1.18793 94.1011Q1.20583 94.0722 1.22565 94.0446Q1.24547 94.017 1.26712 93.9908Q1.28878 93.9646 1.31216 93.9399L88.9414 1.49087Q88.9654 1.46553 88.9911 1.44192Q89.0169 1.41831 89.0442 1.39656Q89.0715 1.37481 89.1003 1.35502Q89.1291 1.33523 89.1591 1.3175Q89.1892 1.29977 89.2205 1.28418Q89.2517 1.26859 89.284 1.25522Q89.3162 1.24185 89.3494 1.23077Q89.3825 1.21968 89.4163 1.21094Q89.4501 1.2022 89.4844 1.19583Q89.5188 1.18947 89.5535 1.18552Q89.5882 1.18158 89.6231 1.18006Q89.6579 1.17854 89.6928 1.17947Q89.7278 1.18039 89.7625 1.18375Q89.7973 1.18711 89.8317 1.19289Q89.8662 1.19867 89.9001 1.20683Q89.9341 1.215 89.9674 1.22552Q90.0007 1.23604 90.0331 1.24886Q90.0656 1.26168 90.0971 1.27674Q90.1286 1.29179 90.159 1.30901Q90.1894 1.32623 90.2185 1.34553Q90.2476 1.36483 90.2753 1.38611Q90.303 1.4074 90.3291 1.43056Q90.3553 1.45373 90.3797 1.47866Q90.4042 1.5036 90.4268 1.53018Q90.4495 1.55676 90.4702 1.58485Q90.4909 1.61295 90.5097 1.64243Q90.5284 1.6719 90.545 1.70261Q90.5616 1.73333 90.5761 1.76512Q90.5905 1.79692 90.6027 1.82965Q90.6149 1.86238 90.6247 1.89588Q90.6346 1.92938 90.6421 1.96348Q90.6496 1.99759 90.6547 2.03213L90.6547 2.03213Z" transform="matrix(-0.70710677 -0.70710677 0.70710677 -0.70710677 75.56592 154.60571)" id="path_1" />
    <clipPath id="mask_1">
      <use xlink:href="#path_1" />
    </clipPath>
  </defs>
  <g id="Bg-SHape-1" transform="translate(0.5 0.5)">
    <path d="M90.6547 2.03213L106.668 110.44Q106.677 110.498 106.679 110.556Q106.68 110.615 106.675 110.673Q106.67 110.731 106.658 110.789Q106.646 110.846 106.628 110.901Q106.61 110.957 106.585 111.01Q106.56 111.063 106.529 111.112Q106.498 111.162 106.462 111.208Q106.426 111.253 106.384 111.295Q106.343 111.336 106.297 111.372Q106.251 111.408 106.201 111.439Q106.151 111.469 106.098 111.493Q106.045 111.518 105.989 111.536Q105.934 111.554 105.876 111.566Q105.819 111.577 105.761 111.582Q105.703 111.587 105.644 111.584Q105.586 111.582 105.528 111.573L1.88517 95.6145Q1.85158 95.6093 1.81841 95.6019Q1.78525 95.5944 1.75267 95.5848Q1.72009 95.5751 1.68824 95.5632Q1.65639 95.5513 1.62542 95.5373Q1.59445 95.5233 1.56451 95.5072Q1.53457 95.4911 1.50579 95.4731Q1.477 95.455 1.44952 95.435Q1.42203 95.415 1.39597 95.3932Q1.36991 95.3714 1.34539 95.3478Q1.32087 95.3243 1.298 95.2991Q1.27514 95.274 1.25404 95.2473Q1.23294 95.2207 1.2137 95.1927Q1.19445 95.1647 1.17716 95.1354Q1.15987 95.1061 1.1446 95.0758Q1.12934 95.0454 1.11618 95.0141Q1.10301 94.9827 1.09201 94.9506Q1.081 94.9184 1.07221 94.8856Q1.06342 94.8527 1.05688 94.8194Q1.05034 94.786 1.04608 94.7523Q1.04182 94.7186 1.03986 94.6847Q1.03791 94.6507 1.03826 94.6168Q1.03861 94.5828 1.04128 94.5489Q1.04394 94.515 1.0489 94.4814Q1.05386 94.4477 1.06109 94.4145Q1.06833 94.3813 1.0778 94.3487Q1.08728 94.316 1.09895 94.2841Q1.11062 94.2522 1.12443 94.2211Q1.13825 94.1901 1.15414 94.16Q1.17003 94.13 1.18793 94.1011Q1.20583 94.0722 1.22565 94.0446Q1.24547 94.017 1.26712 93.9908Q1.28878 93.9646 1.31216 93.9399L88.9414 1.49087Q88.9654 1.46553 88.9911 1.44192Q89.0169 1.41831 89.0442 1.39656Q89.0715 1.37481 89.1003 1.35502Q89.1291 1.33523 89.1591 1.3175Q89.1892 1.29977 89.2205 1.28418Q89.2517 1.26859 89.284 1.25522Q89.3162 1.24185 89.3494 1.23077Q89.3825 1.21968 89.4163 1.21094Q89.4501 1.2022 89.4844 1.19583Q89.5188 1.18947 89.5535 1.18552Q89.5882 1.18158 89.6231 1.18006Q89.6579 1.17854 89.6928 1.17947Q89.7278 1.18039 89.7625 1.18375Q89.7973 1.18711 89.8317 1.19289Q89.8662 1.19867 89.9001 1.20683Q89.9341 1.215 89.9674 1.22552Q90.0007 1.23604 90.0331 1.24886Q90.0656 1.26168 90.0971 1.27674Q90.1286 1.29179 90.159 1.30901Q90.1894 1.32623 90.2185 1.34553Q90.2476 1.36483 90.2753 1.38611Q90.303 1.4074 90.3291 1.43056Q90.3553 1.45373 90.3797 1.47866Q90.4042 1.5036 90.4268 1.53018Q90.4495 1.55676 90.4702 1.58485Q90.4909 1.61295 90.5097 1.64243Q90.5284 1.6719 90.545 1.70261Q90.5616 1.73333 90.5761 1.76512Q90.5905 1.79692 90.6027 1.82965Q90.6149 1.86238 90.6247 1.89588Q90.6346 1.92938 90.6421 1.96348Q90.6496 1.99759 90.6547 2.03213L90.6547 2.03213Z" transform="matrix(-0.70710677 -0.70710677 0.70710677 -0.70710677 75.56592 154.60571)" id="Rectangle" fill="none" fill-rule="evenodd" stroke="none" />
    <g clip-path="url(#mask_1)">
      <g id="Bg-SHape" transform="matrix(0.81915206 -0.57357645 0.57357645 0.81915206 -48.14795 55.729248)">
        <path d="M0 0L2.45669 0L2.45669 143.717L0 143.717L0 0Z" transform="matrix(1 3.418782E-08 -3.418782E-08 1 0 1.3525391)" id="Rectangle" fill="#39D1E9" fill-rule="evenodd" stroke="none" />
        <path d="M0 0L2.45669 0L2.45669 143.717L0 143.717L0 0Z" transform="matrix(1 3.418782E-08 -3.418782E-08 1 12.8203125 1.6445312)" id="Rectangle" fill="#39D1E9" fill-rule="evenodd" stroke="none" />
        <path d="M0 0L2.45669 0L2.45669 143.717L0 143.717L0 0Z" transform="matrix(1 3.418782E-08 -3.418782E-08 1 23.305176 1.1762695)" id="Rectangle-Copy-3" fill="#39D1E9" fill-rule="evenodd" stroke="none" />
        <path d="M0 0L2.45669 0L2.45669 143.717L0 143.717L0 0Z" transform="matrix(1 3.418782E-08 -3.418782E-08 1 36.126465 1.4667969)" id="Rectangle-Copy-4" fill="#39D1E9" fill-rule="evenodd" stroke="none" />
        <path d="M0 0L2.45669 0L2.45669 143.717L0 143.717L0 0Z" transform="matrix(1 3.418782E-08 -3.418782E-08 1 48.947266 1.7587891)" id="Rectangle-Copy-5" fill="#39D1E9" fill-rule="evenodd" stroke="none" />
        <path d="M0 0L2.45669 0L2.45669 143.717L0 143.717L0 0Z" transform="matrix(1 3.418782E-08 -3.418782E-08 1 59.431152 1.2900391)" id="Rectangle-Copy-6" fill="#39D1E9" fill-rule="evenodd" stroke="none" />
        <path d="M0 0L2.45669 0L2.45669 143.717L0 143.717L0 0Z" transform="matrix(1 3.418782E-08 -3.418782E-08 1 72.25293 1.581543)" id="Rectangle-Copy-7" fill="#39D1E9" fill-rule="evenodd" stroke="none" />
        <path d="M0 0L2.45669 0L2.45669 143.717L0 143.717L0 0Z" transform="matrix(1 3.418782E-08 -3.418782E-08 1 84.447266 0)" id="Rectangle-Copy-8" fill="#39D1E9" fill-rule="evenodd" stroke="none" />
        <path d="M0 0L2.45669 0L2.45669 143.717L0 143.717L0 0Z" transform="matrix(1 3.418782E-08 -3.418782E-08 1 96.56494 2.1088867)" id="Rectangle-Copy-9" fill="#39D1E9" fill-rule="evenodd" stroke="none" />
        <path d="M0 0L2.45669 0L2.45669 143.717L0 143.717L0 0Z" transform="matrix(1 3.418782E-08 -3.418782E-08 1 108.37988 1.6953125)" id="Rectangle-Copy-10" fill="#39D1E9" fill-rule="evenodd" stroke="none" />
        <path d="M0 0L2.45669 0L2.45669 143.717L0 143.717L0 0Z" transform="matrix(1 3.418782E-08 -3.418782E-08 1 120.57373 0.11425781)" id="Rectangle-Copy-11" fill="#39D1E9" fill-rule="evenodd" stroke="none" />
        <path d="M0 0L2.45669 0L2.45669 143.717L0 143.717L0 0Z" transform="matrix(1 3.418782E-08 -3.418782E-08 1 131.68457 1.519043)" id="Rectangle-Copy-12" fill="#39D1E9" fill-rule="evenodd" stroke="none" />
        <path d="M0 0L2.45669 0L2.45669 143.717L0 143.717L0 0Z" transform="matrix(1 3.418782E-08 -3.418782E-08 1 144.88574 0.6411133)" id="Rectangle-Copy-13" fill="#39D1E9" fill-rule="evenodd" stroke="none" />
        <path d="M0 0L2.45669 0L2.45669 143.717L0 143.717L0 0Z" transform="matrix(1 3.418782E-08 -3.418782E-08 1 156.1582 1.7211914)" id="Rectangle-Copy-14" fill="#39D1E9" fill-rule="evenodd" stroke="none" />
      </g>
    </g>
  </g>
</svg>