<?xml version="1.0" encoding="utf-8"?>
<svg width="1800px" height="45px" viewBox="0 0 1800 45" version="1.1" xmlns:xlink="http://www.w3.org/1999/xlink" xmlns="http://www.w3.org/2000/svg">
  <defs>
    <rect width="1800" height="45" id="slice_1" />
    <clipPath id="clip_1">
      <use xlink:href="#slice_1" clip-rule="evenodd" />
    </clipPath>
  </defs>
  <g id="Slice" clip-path="url(#clip_1)">
    <use xlink:href="#slice_1" stroke="none" fill="none" />
    <path d="M0 8.69838C0 8.69838 275.748 -4.90509 418.506 2.76602C692.67 17.4983 740.101 34.4085 905.5 34.4085C936.582 33.8942 1087.23 20.8431 1346 20.8431C1467 20.8431 1800 20.8431 1800 20.8431L1800 107.736L1800 3676.84C1800 3676.84 1646.53 3669.77 1454.67 3669.77C1262.8 3669.77 1169.35 3659.77 895 3659.77C620.647 3659.77 507.639 3659.77 354.643 3659.77C201.648 3659.77 0 3676.84 0 3676.84L0 8.69838Z" id="Rectangle" fill="#58e2ff" fill-rule="evenodd" stroke="none" />
  </g>
</svg>