<?xml version="1.0" encoding="utf-8"?>
<svg width="1885px" height="103px" viewBox="0 0 1885 103" version="1.1" xmlns:xlink="http://www.w3.org/1999/xlink" xmlns="http://www.w3.org/2000/svg">
  <defs>
    <rect width="1885" height="103" id="slice_1" />
    <clipPath id="clip_1">
      <use xlink:href="#slice_1" clip-rule="evenodd" />
    </clipPath>
  </defs>
  <g id="Slice" clip-path="url(#clip_1)">
    <use xlink:href="#slice_1" stroke="none" fill="none" />
    <path d="M1950.13 93.0826C1967.82 92.3677 1967.91 50.4545 1950.13 50.9569C1946.5 51.0535 1942.88 51.2467 1939.25 51.3627C1934.18 47.5945 1927.5 48.0003 1922.3 51.9617C1861.99 53.9714 1801.67 56.7154 1741.37 59.1888C1696.89 61.0246 1662.88 62.9376 1620.46 36.9665C1599.46 24.0775 1583.28 14.7442 1560.31 10.8988C1420.44 -12.4637 1272.92 6.02917 1133.38 26.2032C1123.11 27.6911 1117.84 45.7781 1124.53 56.7733C1005.48 59.7299 886.417 61.1018 767.369 64.812C766.155 62.3772 764.384 60.6188 762.032 60.6767C668.113 62.6671 573.866 82.1261 480.301 96.2131C490.027 75.8072 488.844 74.184 495.977 50.9569C499.392 39.8264 479.068 36.6187 470 36.9665C319.485 42.9955 201.514 15.4205 50.9862 10.8988C38.0986 10.5123 32.4747 36.8892 45.122 38.1839C50.5224 38.7443 55.9354 39.1501 61.3484 39.6718C56.9345 309.103 44.8311 577.877 29.9326 846.38C22.711 976.216 12.8335 1105.49 4.15752 1235.1C-2.96288 1341.38 -3.56995 1440.53 23.9252 1540.01C25.759 1546.6 31.9435 1551.45 36.446 1550.98C554.984 1496.74 1071.78 1595.56 1590.12 1599.85C1655.89 1600.39 1721.67 1599.48 1787.41 1596.59C1828.88 1594.75 1884.08 1606.23 1923.37 1581.11C1948.96 1564.76 1956.3 1540.91 1962.7 1502.15C1976.8 1416.88 1979.49 1322.13 1984.15 1234.88C2004.56 853.26 1982.48 471.384 1948.84 93.1213L1950.13 93.0826Z" transform="matrix(-1 8.742278E-08 -8.742278E-08 -1 1946.0002 103)" id="Bg" fill="#FBF3EC" fill-rule="evenodd" stroke="none" />
  </g>
</svg>