<?xml version="1.0" encoding="utf-8"?>
<svg width="88px" height="107px" viewBox="0 0 88 107" version="1.1" xmlns:xlink="http://www.w3.org/1999/xlink" xmlns="http://www.w3.org/2000/svg">
  <g id="Group-18">
    <path d="M87.1074 103.011L0 107L0 3.98911L87.1074 0L87.1074 103.011" id="Fill-29" fill="#B5EFE8" fill-rule="evenodd" stroke="none" />
    <path d="M63.0778 4.84513L0 8L0 3.157L63.0778 0L63.0778 4.84513" transform="translate(12.0147705 46)" id="Fill-40" fill="#FFFFFF" fill-rule="evenodd" stroke="none" />
    <path d="M63.0778 4.84513L0 8L0 3.15487L63.0778 0L63.0778 4.84513" transform="translate(12.0147705 58)" id="Fill-41" fill="#FFFFFF" fill-rule="evenodd" stroke="none" />
    <path d="M63.0778 4.84513L0 8L0 3.157L63.0778 0L63.0778 4.84513" transform="translate(12.0147705 72)" id="Fill-42" fill="#FFFFFF" fill-rule="evenodd" stroke="none" />
    <path d="M63.0778 4.84513L0 8L0 3.15487L63.0778 0L63.0778 4.84513" transform="translate(12.0147705 85)" id="Fill-43" fill="#FFFFFF" fill-rule="evenodd" stroke="none" />
    <path d="M29.0358 0L0 1.61776L0 28L29.0358 26.3846L29.0358 0" transform="translate(12.0147705 14)" id="Fill-55" fill="#FFFFFF" fill-rule="evenodd" stroke="none" />
  </g>
</svg>