<?xml version="1.0" encoding="utf-8"?>
<svg width="717px" height="694px" viewBox="0 0 717 694" version="1.1" xmlns:xlink="http://www.w3.org/1999/xlink" xmlns="http://www.w3.org/2000/svg">
  <defs>
    <filter filterUnits="userSpaceOnUse" color-interpolation-filters="sRGB" id="filter_1">
      <feFlood flood-opacity="0" result="BackgroundImageFix" />
      <feColorMatrix in="SourceAlpha" type="matrix" values="0 0 0 0 0 0 0 0 0 0 0 0 0 0 0 0 0 0 127 0" />
      <feOffset dx="0" dy="15" />
      <feGaussianBlur stdDeviation="15" />
      <feColorMatrix type="matrix" values="0 0 0 0 0.12156863 0 0 0 0 0.14117648 0 0 0 0 0.2509804 0 0 0 0.08627451 0" />
      <feBlend mode="normal" in2="BackgroundImageFix" result="effect0_dropShadow" />
      <feBlend mode="normal" in="SourceGraphic" in2="effect0_dropShadow" result="shape" />
    </filter>
    <path d="M51.4027 102.835C79.7916 102.835 102.805 79.8144 102.805 51.4174C102.805 23.0203 79.7916 0 51.4027 0C23.0138 0 0 23.0203 0 51.4174C0 79.8144 23.0138 102.835 51.4027 102.835Z" transform="translate(0.18452744 0.5965723)" id="path_1" />
    <path d="M67.149 2.03131L78.8959 81.3905Q78.9045 81.4483 78.9063 81.5068Q78.908 81.5652 78.9029 81.6235Q78.8979 81.6817 78.886 81.739Q78.8742 81.7962 78.8558 81.8517Q78.8373 81.9072 78.8125 81.9602Q78.7878 82.0131 78.757 82.0629Q78.7262 82.1126 78.6898 82.1583Q78.6534 82.2041 78.6119 82.2453Q78.5705 82.2865 78.5245 82.3226Q78.4785 82.3587 78.4286 82.3892Q78.3787 82.4197 78.3256 82.4442Q78.2725 82.4686 78.2169 82.4867Q78.1613 82.5048 78.1039 82.5163Q78.0466 82.5278 77.9883 82.5325Q77.93 82.5372 77.8716 82.5351Q77.8132 82.533 77.7554 82.5241L1.88436 70.8183Q1.85078 70.8131 1.81762 70.8056Q1.78446 70.7982 1.75189 70.7885Q1.71931 70.7788 1.68747 70.7669Q1.65563 70.7551 1.62467 70.741Q1.59371 70.727 1.56378 70.7109Q1.53384 70.6948 1.50507 70.6768Q1.4763 70.6587 1.44882 70.6387Q1.42134 70.6187 1.39529 70.5969Q1.36923 70.575 1.34472 70.5515Q1.32021 70.528 1.29735 70.5028Q1.2745 70.4776 1.25341 70.451Q1.23231 70.4244 1.21308 70.3963Q1.19385 70.3683 1.17656 70.3391Q1.15928 70.3098 1.14402 70.2794Q1.12876 70.2491 1.1156 70.2177Q1.10245 70.1864 1.09145 70.1543Q1.08045 70.1221 1.07166 70.0893Q1.06288 70.0564 1.05634 70.0231Q1.0498 69.9897 1.04555 69.956Q1.0413 69.9223 1.03934 69.8884Q1.03739 69.8544 1.03775 69.8205Q1.0381 69.7865 1.04077 69.7526Q1.04343 69.7187 1.0484 69.6851Q1.05336 69.6515 1.06059 69.6183Q1.06783 69.5851 1.0773 69.5524Q1.08678 69.5198 1.09845 69.4879Q1.11012 69.4559 1.12393 69.4249Q1.13775 69.3938 1.15364 69.3638Q1.16953 69.3338 1.18743 69.3049Q1.20532 69.276 1.22514 69.2484Q1.24496 69.2208 1.26661 69.1946Q1.28825 69.1684 1.31163 69.1437L65.4358 1.49036Q65.4598 1.46502 65.4855 1.44141Q65.5112 1.41781 65.5386 1.39606Q65.5659 1.37431 65.5946 1.35452Q65.6234 1.33473 65.6535 1.317Q65.6836 1.29927 65.7148 1.28368Q65.746 1.26809 65.7783 1.25472Q65.8106 1.24135 65.8437 1.23027Q65.8768 1.21918 65.9106 1.21044Q65.9444 1.20169 65.9787 1.19533Q66.0131 1.18896 66.0477 1.18501Q66.0824 1.18106 66.1173 1.17954Q66.1522 1.17802 66.1871 1.17894Q66.222 1.17986 66.2568 1.18321Q66.2915 1.18657 66.326 1.19234Q66.3604 1.19811 66.3943 1.20628Q66.4283 1.21444 66.4616 1.22495Q66.4949 1.23546 66.5274 1.24828Q66.5599 1.26109 66.5914 1.27614Q66.6229 1.29119 66.6532 1.3084Q66.6836 1.32561 66.7127 1.3449Q66.7418 1.36419 66.7695 1.38547Q66.7972 1.40674 66.8233 1.4299Q66.8495 1.45306 66.8739 1.47798Q66.8984 1.50291 66.921 1.52948Q66.9437 1.55605 66.9644 1.58414Q66.9852 1.61223 67.0039 1.64169Q67.0227 1.67116 67.0393 1.70187Q67.0559 1.73257 67.0703 1.76436Q67.0848 1.79615 67.097 1.82887Q67.1092 1.86159 67.119 1.89508Q67.1289 1.92857 67.1364 1.96267Q67.1439 1.99677 67.149 2.03131L67.149 2.03131Z" transform="matrix(-0.70710677 -0.70710677 0.70710677 -0.70710677 56.42286 114.943596)" id="path_2" />
    <path d="M7.999 0L227.001 0Q227.197 0 227.394 0.00963514Q227.59 0.0192703 227.785 0.0385174Q227.98 0.0577644 228.175 0.0865771Q228.369 0.11539 228.561 0.153699Q228.754 0.192007 228.945 0.23972Q229.135 0.287433 229.323 0.344434Q229.511 0.401436 229.696 0.467589Q229.881 0.533742 230.062 0.608888Q230.243 0.684033 230.421 0.76799Q230.598 0.851946 230.772 0.944512Q230.945 1.03708 231.113 1.13803Q231.282 1.23898 231.445 1.34807Q231.608 1.45717 231.766 1.57414Q231.924 1.69112 232.075 1.81569Q232.227 1.94026 232.373 2.07213Q232.518 2.204 232.657 2.34285Q232.796 2.4817 232.928 2.6272Q233.06 2.7727 233.184 2.92449Q233.309 3.07628 233.426 3.234Q233.543 3.39172 233.652 3.55499Q233.761 3.71826 233.862 3.88669Q233.963 4.05512 234.055 4.2283Q234.148 4.40148 234.232 4.57899Q234.316 4.7565 234.391 4.93791Q234.466 5.11933 234.532 5.30422Q234.599 5.4891 234.656 5.67701Q234.713 5.86492 234.76 6.0554Q234.808 6.24588 234.846 6.43847Q234.885 6.63106 234.913 6.8253Q234.942 7.01954 234.961 7.21496Q234.981 7.41038 234.99 7.60651Q235 7.80264 235 7.999L235 281.001Q235 281.197 234.99 281.393Q234.981 281.59 234.961 281.785Q234.942 281.98 234.913 282.175Q234.885 282.369 234.846 282.561Q234.808 282.754 234.76 282.945Q234.713 283.135 234.656 283.323Q234.599 283.511 234.532 283.696Q234.466 283.881 234.391 284.062Q234.316 284.243 234.232 284.421Q234.148 284.598 234.055 284.772Q233.963 284.945 233.862 285.113Q233.761 285.282 233.652 285.445Q233.543 285.608 233.426 285.766Q233.309 285.924 233.184 286.076Q233.06 286.227 232.928 286.373Q232.796 286.518 232.657 286.657Q232.518 286.796 232.373 286.928Q232.227 287.06 232.075 287.184Q231.924 287.309 231.766 287.426Q231.608 287.543 231.445 287.652Q231.282 287.761 231.113 287.862Q230.945 287.963 230.772 288.055Q230.598 288.148 230.421 288.232Q230.243 288.316 230.062 288.391Q229.881 288.466 229.696 288.532Q229.511 288.599 229.323 288.656Q229.135 288.713 228.945 288.76Q228.754 288.808 228.561 288.846Q228.369 288.885 228.175 288.913Q227.98 288.942 227.785 288.961Q227.59 288.981 227.394 288.99Q227.197 289 227.001 289L7.999 289Q7.80264 289 7.60651 288.99Q7.41038 288.981 7.21496 288.961Q7.01954 288.942 6.8253 288.913Q6.63106 288.885 6.43847 288.846Q6.24588 288.808 6.0554 288.76Q5.86492 288.713 5.67701 288.656Q5.4891 288.599 5.30422 288.532Q5.11933 288.466 4.93791 288.391Q4.7565 288.316 4.57899 288.232Q4.40148 288.148 4.2283 288.055Q4.05512 287.963 3.88669 287.862Q3.71826 287.761 3.55499 287.652Q3.39172 287.543 3.234 287.426Q3.07628 287.309 2.92449 287.184Q2.7727 287.06 2.6272 286.928Q2.4817 286.796 2.34285 286.657Q2.204 286.518 2.07213 286.373Q1.94026 286.227 1.81569 286.076Q1.69112 285.924 1.57414 285.766Q1.45717 285.608 1.34807 285.445Q1.23898 285.282 1.13803 285.113Q1.03708 284.945 0.944512 284.772Q0.851946 284.598 0.76799 284.421Q0.684033 284.243 0.608888 284.062Q0.533742 283.881 0.467589 283.696Q0.401436 283.511 0.344434 283.323Q0.287433 283.135 0.23972 282.945Q0.192007 282.754 0.153699 282.561Q0.11539 282.369 0.0865771 282.175Q0.0577644 281.98 0.0385174 281.785Q0.0192703 281.59 0.00963514 281.393Q0 281.197 0 281.001L0 7.999Q0 7.80264 0.00963514 7.60651Q0.0192703 7.41038 0.0385174 7.21496Q0.0577644 7.01954 0.0865771 6.8253Q0.11539 6.63106 0.153699 6.43847Q0.192007 6.24588 0.23972 6.0554Q0.287433 5.86492 0.344434 5.67701Q0.401436 5.4891 0.467589 5.30422Q0.533742 5.11933 0.608888 4.93791Q0.684033 4.7565 0.76799 4.57899Q0.851946 4.40148 0.944512 4.2283Q1.03708 4.05512 1.13803 3.88669Q1.23898 3.71826 1.34807 3.55499Q1.45717 3.39172 1.57414 3.234Q1.69112 3.07628 1.81569 2.92449Q1.94026 2.7727 2.07213 2.6272Q2.204 2.4817 2.34285 2.34285Q2.4817 2.204 2.6272 2.07213Q2.7727 1.94026 2.92449 1.81569Q3.07628 1.69112 3.234 1.57414Q3.39172 1.45717 3.55499 1.34807Q3.71826 1.23898 3.88669 1.13803Q4.05512 1.03708 4.2283 0.944512Q4.40148 0.851946 4.57899 0.76799Q4.7565 0.684033 4.93791 0.608888Q5.11933 0.533742 5.30422 0.467589Q5.4891 0.401436 5.67701 0.344434Q5.86492 0.287433 6.0554 0.23972Q6.24588 0.192007 6.43847 0.153699Q6.63106 0.11539 6.8253 0.0865771Q7.01954 0.0577644 7.21496 0.0385174Q7.41038 0.0192703 7.60651 0.00963514Q7.80264 0 7.999 0L7.999 0Z" transform="translate(277 133)" id="path_3" />
    <clipPath id="clip_1">
      <use xlink:href="#path_3" />
    </clipPath>
    <clipPath id="mask_1">
      <use xlink:href="#path_1" />
    </clipPath>
    <clipPath id="mask_2">
      <use xlink:href="#path_2" />
    </clipPath>
  </defs>
  <g id="Group" transform="translate(1.5 1.5)">
    <path d="M342.061 561.135C469.268 484.624 631.766 169.48 321.967 33.4148C12.1685 -102.651 -26.3135 212.157 12.4229 344.899C51.1592 477.641 214.855 637.646 342.061 561.135Z" transform="matrix(0.9659258 -0.25881904 0.25881904 0.9659258 0 129.40942)" id="Oval" fill="#E4F1FC" fill-rule="evenodd" stroke="none" />
    <g id="Shape-Group" transform="translate(25.667969 32.806152)">
      <g id="Shape" transform="translate(86 0)">
        <g id="Group-62" transform="translate(0 534)">
          <path d="M0 0L14 0L14 14L0 14L0 0Z" id="Rectangle" fill="#F77A56" fill-opacity="0.31868052" fill-rule="evenodd" stroke="none" />
          <path d="M0 0L10 0L10 10L0 10L0 0Z" transform="translate(419 80)" id="Rectangle" fill="#F77A56" fill-rule="evenodd" stroke="none" />
        </g>
        <path d="M0 0L7 0L7 7L0 7L0 0Z" transform="translate(595 413)" id="Rectangle" fill="#F2DAD5" fill-rule="evenodd" stroke="none" />
        <path d="M0 0L6 0L6 6L0 6L0 0Z" transform="translate(289 0)" id="Rectangle" fill="#FF5B32" fill-rule="evenodd" stroke="none" />
      </g>
      <g id="Shape" transform="matrix(-0.25881904 0.9659258 -0.9659258 -0.25881904 630.3795 211.64938)">
        <path d="M16 12.0231C15.5181 12.819 15.0575 14.0466 14.7547 13.9986C9.59864 13.1883 4.63876 11.6443 1.05213 7.06495C0.229036 6.01004 -0.231555 3.87622 0.118153 2.57676C0.433743 1.42594 2.2036 -0.113281 3.17596 0.00659615C9.73085 0.86012 13.4582 5.73672 16 12.0231" transform="translate(0.3265559 72.94859)" id="Fill-305" fill="#363636" fill-rule="evenodd" stroke="none" />
        <path d="M6.92982 5.82009C6.25782 6.55533 5.66573 7.3673 4.86296 7.96189C4.64138 8.12493 3.70058 7.73173 3.25379 7.40886C1.34676 6.06943 -0.498517 4.57336 0.122629 2.16623C0.329678 1.35106 1.3286 0.619013 2.14226 0.040405C2.37111 -0.125825 3.30828 0.254586 3.76596 0.567865C5.70568 1.88811 7.36571 3.37459 6.92982 5.82009" transform="translate(0.05200681 15.628998)" id="Fill-291" fill="#363636" fill-rule="evenodd" stroke="none" />
        <path d="M10.6816 12.0669C9.4788 13.0484 8.45327 14.4941 7.09229 14.8257C5.66422 15.1882 3.02373 14.9937 2.47263 14.1625C-0.230163 10.0287 -1.064 5.53674 1.73942 1.04922C2.06529 0.523095 3.02373 -0.0649254 3.60358 0.00581389C5.17063 0.191505 7.30315 0.262244 8.11782 1.18628C10.8925 4.31207 11.458 8.12315 10.6816 12.0669" transform="translate(58.491722 0.07533006)" id="Fill-255" fill="#363636" fill-rule="evenodd" stroke="none" />
      </g>
      <g id="SHape" transform="translate(0 324)">
        <g id="Group-34" transform="matrix(0.8660254 0.5 -0.5 0.8660254 52.028976 0.3512268)">
          <path d="M51.4027 102.835C79.7916 102.835 102.805 79.8144 102.805 51.4174C102.805 23.0203 79.7916 0 51.4027 0C23.0138 0 0 23.0203 0 51.4174C0 79.8144 23.0138 102.835 51.4027 102.835Z" transform="translate(0.18452744 0.5965723)" id="Mask" fill="none" fill-rule="evenodd" stroke="none" />
          <g clip-path="url(#mask_1)">
            <g id="Group-34" transform="translate(-7.0901113 -8.438341)">
              <path d="M0 0L1.28507 0L1.28507 109.262L0 109.262L0 0Z" transform="translate(0.5772544 0.15140593)" id="Rectangle" fill="#FF7356" fill-rule="evenodd" stroke="none" />
              <path d="M0 0L1.28507 0L1.28507 109.262L0 109.262L0 0Z" transform="translate(8.287662 0.15140593)" id="Rectangle" fill="#FF7356" fill-rule="evenodd" stroke="none" />
              <path d="M0 0L1.28507 0L1.28507 109.262L0 109.262L0 0Z" transform="translate(15.355535 0.15140593)" id="Rectangle-Copy-3" fill="#FF7356" fill-rule="evenodd" stroke="none" />
              <path d="M0 0L1.28507 0L1.28507 109.262L0 109.262L0 0Z" transform="translate(23.065943 0.15140593)" id="Rectangle-Copy-4" fill="#FF7356" fill-rule="evenodd" stroke="none" />
              <path d="M0 0L1.28507 0L1.28507 109.262L0 109.262L0 0Z" transform="translate(30.77635 0.15140593)" id="Rectangle-Copy-5" fill="#FF7356" fill-rule="evenodd" stroke="none" />
              <path d="M0 0L1.28507 0L1.28507 109.262L0 109.262L0 0Z" transform="translate(37.844223 0.15140593)" id="Rectangle-Copy-6" fill="#FF7356" fill-rule="evenodd" stroke="none" />
              <path d="M0 0L1.28507 0L1.28507 109.262L0 109.262L0 0Z" transform="translate(45.55463 0.15140593)" id="Rectangle-Copy-7" fill="#FF7356" fill-rule="evenodd" stroke="none" />
              <path d="M0 0L1.28507 0L1.28507 109.262L0 109.262L0 0Z" transform="translate(53.265038 0.15140593)" id="Rectangle-Copy-8" fill="#FF7356" fill-rule="evenodd" stroke="none" />
              <path d="M0 0L1.28507 0L1.28507 109.262L0 109.262L0 0Z" transform="translate(60.33291 0.15140593)" id="Rectangle-Copy-9" fill="#FF7356" fill-rule="evenodd" stroke="none" />
              <path d="M0 0L1.28507 0L1.28507 109.262L0 109.262L0 0Z" transform="translate(68.04332 0.15140593)" id="Rectangle-Copy-10" fill="#FF7356" fill-rule="evenodd" stroke="none" />
              <path d="M0 0L1.28507 0L1.28507 109.262L0 109.262L0 0Z" transform="translate(75.75372 0.15140593)" id="Rectangle-Copy-11" fill="#FF7356" fill-rule="evenodd" stroke="none" />
              <path d="M0 0L1.28507 0L1.28507 109.262L0 109.262L0 0Z" transform="translate(82.17906 0.15140593)" id="Rectangle-Copy-12" fill="#FF7356" fill-rule="evenodd" stroke="none" />
              <path d="M0 0L1.28507 0L1.28507 109.262L0 109.262L0 0Z" transform="translate(90.532005 0.15140593)" id="Rectangle-Copy-13" fill="#FF7356" fill-rule="evenodd" stroke="none" />
              <path d="M0 0L1.28507 0L1.28507 109.262L0 109.262L0 0Z" transform="translate(97.59988 0.15140593)" id="Rectangle-Copy-14" fill="#FF7356" fill-rule="evenodd" stroke="none" />
              <path d="M0 0L1.28507 0L1.28507 109.262L0 109.262L0 0Z" transform="translate(105.31029 0.15140593)" id="Rectangle-Copy-14" fill="#FF7356" fill-rule="evenodd" stroke="none" />
            </g>
          </g>
        </g>
      </g>
      <g id="Shape" transform="translate(410 69.00001)">
        <path d="M67.149 2.03131L78.8959 81.3905Q78.9045 81.4483 78.9063 81.5068Q78.908 81.5652 78.9029 81.6235Q78.8979 81.6817 78.886 81.739Q78.8742 81.7962 78.8558 81.8517Q78.8373 81.9072 78.8125 81.9602Q78.7878 82.0131 78.757 82.0629Q78.7262 82.1126 78.6898 82.1583Q78.6534 82.2041 78.6119 82.2453Q78.5705 82.2865 78.5245 82.3226Q78.4785 82.3587 78.4286 82.3892Q78.3787 82.4197 78.3256 82.4442Q78.2725 82.4686 78.2169 82.4867Q78.1613 82.5048 78.1039 82.5163Q78.0466 82.5278 77.9883 82.5325Q77.93 82.5372 77.8716 82.5351Q77.8132 82.533 77.7554 82.5241L1.88436 70.8183Q1.85078 70.8131 1.81762 70.8056Q1.78446 70.7982 1.75189 70.7885Q1.71931 70.7788 1.68747 70.7669Q1.65563 70.7551 1.62467 70.741Q1.59371 70.727 1.56378 70.7109Q1.53384 70.6948 1.50507 70.6768Q1.4763 70.6587 1.44882 70.6387Q1.42134 70.6187 1.39529 70.5969Q1.36923 70.575 1.34472 70.5515Q1.32021 70.528 1.29735 70.5028Q1.2745 70.4776 1.25341 70.451Q1.23231 70.4244 1.21308 70.3963Q1.19385 70.3683 1.17656 70.3391Q1.15928 70.3098 1.14402 70.2794Q1.12876 70.2491 1.1156 70.2177Q1.10245 70.1864 1.09145 70.1543Q1.08045 70.1221 1.07166 70.0893Q1.06288 70.0564 1.05634 70.0231Q1.0498 69.9897 1.04555 69.956Q1.0413 69.9223 1.03934 69.8884Q1.03739 69.8544 1.03775 69.8205Q1.0381 69.7865 1.04077 69.7526Q1.04343 69.7187 1.0484 69.6851Q1.05336 69.6515 1.06059 69.6183Q1.06783 69.5851 1.0773 69.5524Q1.08678 69.5198 1.09845 69.4879Q1.11012 69.4559 1.12393 69.4249Q1.13775 69.3938 1.15364 69.3638Q1.16953 69.3338 1.18743 69.3049Q1.20532 69.276 1.22514 69.2484Q1.24496 69.2208 1.26661 69.1946Q1.28825 69.1684 1.31163 69.1437L65.4358 1.49036Q65.4598 1.46502 65.4855 1.44141Q65.5112 1.41781 65.5386 1.39606Q65.5659 1.37431 65.5946 1.35452Q65.6234 1.33473 65.6535 1.317Q65.6836 1.29927 65.7148 1.28368Q65.746 1.26809 65.7783 1.25472Q65.8106 1.24135 65.8437 1.23027Q65.8768 1.21918 65.9106 1.21044Q65.9444 1.20169 65.9787 1.19533Q66.0131 1.18896 66.0477 1.18501Q66.0824 1.18106 66.1173 1.17954Q66.1522 1.17802 66.1871 1.17894Q66.222 1.17986 66.2568 1.18321Q66.2915 1.18657 66.326 1.19234Q66.3604 1.19811 66.3943 1.20628Q66.4283 1.21444 66.4616 1.22495Q66.4949 1.23546 66.5274 1.24828Q66.5599 1.26109 66.5914 1.27614Q66.6229 1.29119 66.6532 1.3084Q66.6836 1.32561 66.7127 1.3449Q66.7418 1.36419 66.7695 1.38547Q66.7972 1.40674 66.8233 1.4299Q66.8495 1.45306 66.8739 1.47798Q66.8984 1.50291 66.921 1.52948Q66.9437 1.55605 66.9644 1.58414Q66.9852 1.61223 67.0039 1.64169Q67.0227 1.67116 67.0393 1.70187Q67.0559 1.73257 67.0703 1.76436Q67.0848 1.79615 67.097 1.82887Q67.1092 1.86159 67.119 1.89508Q67.1289 1.92857 67.1364 1.96267Q67.1439 1.99677 67.149 2.03131L67.149 2.03131Z" transform="matrix(-0.70710677 -0.70710677 0.70710677 -0.70710677 56.42286 114.943596)" id="Rectangle" fill="none" fill-rule="evenodd" stroke="none" />
        <g clip-path="url(#mask_2)">
          <g id="Group-34" transform="matrix(0.81915206 -0.57357645 0.57357645 0.81915206 -35.1717 41.709835)">
            <path d="M0 0L1.8176 0L1.8176 106.396L0 106.396L0 0Z" transform="translate(0.012313603 1.0623789)" id="Rectangle" fill="#0FD8F7" fill-rule="evenodd" stroke="none" />
            <path d="M0 0L1.8176 0L1.8176 106.396L0 106.396L0 0Z" transform="translate(9.498038 1.2779001)" id="Rectangle" fill="#0FD8F7" fill-rule="evenodd" stroke="none" />
            <path d="M0 0L1.8176 0L1.8176 106.396L0 106.396L0 0Z" transform="translate(17.25512 0.93139935)" id="Rectangle-Copy-3" fill="#0FD8F7" fill-rule="evenodd" stroke="none" />
            <path d="M0 0L1.8176 0L1.8176 106.396L0 106.396L0 0Z" transform="translate(26.740845 1.1469206)" id="Rectangle-Copy-4" fill="#0FD8F7" fill-rule="evenodd" stroke="none" />
            <path d="M0 0L1.8176 0L1.8176 106.396L0 106.396L0 0Z" transform="translate(36.22657 1.3624417)" id="Rectangle-Copy-5" fill="#0FD8F7" fill-rule="evenodd" stroke="none" />
            <path d="M0 0L1.8176 0L1.8176 106.396L0 106.396L0 0Z" transform="translate(43.98365 1.015941)" id="Rectangle-Copy-6" fill="#0FD8F7" fill-rule="evenodd" stroke="none" />
            <path d="M0 0L1.8176 0L1.8176 106.396L0 106.396L0 0Z" transform="translate(53.469376 1.2314621)" id="Rectangle-Copy-7" fill="#0FD8F7" fill-rule="evenodd" stroke="none" />
            <path d="M0 0L1.8176 0L1.8176 106.396L0 106.396L0 0Z" transform="translate(62.49149 0.06052704)" id="Rectangle-Copy-8" fill="#0FD8F7" fill-rule="evenodd" stroke="none" />
            <path d="M0 0L1.8176 0L1.8176 106.396L0 106.396L0 0Z" transform="translate(71.45663 1.6220762)" id="Rectangle-Copy-9" fill="#0FD8F7" fill-rule="evenodd" stroke="none" />
            <path d="M0 0L1.8176 0L1.8176 106.396L0 106.396L0 0Z" transform="translate(80.19791 1.3160038)" id="Rectangle-Copy-10" fill="#0FD8F7" fill-rule="evenodd" stroke="none" />
            <path d="M0 0L1.8176 0L1.8176 106.396L0 106.396L0 0Z" transform="translate(89.22002 0.14506868)" id="Rectangle-Copy-11" fill="#0FD8F7" fill-rule="evenodd" stroke="none" />
            <path d="M0 0L1.8176 0L1.8176 106.396L0 106.396L0 0Z" transform="translate(97.44071 1.1850243)" id="Rectangle-Copy-12" fill="#0FD8F7" fill-rule="evenodd" stroke="none" />
            <path d="M0 0L1.8176 0L1.8176 106.396L0 106.396L0 0Z" transform="translate(107.20727 0.5356826)" id="Rectangle-Copy-13" fill="#0FD8F7" fill-rule="evenodd" stroke="none" />
            <path d="M0 0L1.8176 0L1.8176 106.396L0 106.396L0 0Z" transform="translate(115.54784 1.3350557)" id="Rectangle-Copy-14" fill="#0FD8F7" fill-rule="evenodd" stroke="none" />
          </g>
        </g>
      </g>
    </g>
    <g id="Card-1" transform="translate(78.66797 145.80615)">
      <g id="Arrow" transform="translate(175.7514 32.124043)">
        <g id="Group-20" transform="matrix(-0.25881904 -0.9659258 0.9659258 -0.25881904 119.212975 79.27728)">
          <path d="M63.0573 0C39.2245 7.55305 17.7457 20.397 0 37.1529" transform="matrix(-1 -8.742278E-08 8.742278E-08 -1 63.05733 45.927666)" id="Oval" fill="none" fill-rule="evenodd" stroke="#F77A56" stroke-width="3" />
          <path d="M0 6.96352L12.5565 1.3354e-15L17.5793 12.0282" transform="matrix(0.9135454 0.40673664 -0.40673664 0.9135454 52.7163 0.94487643)" id="Path-35" fill="none" fill-rule="evenodd" stroke="#F77A56" stroke-width="3" stroke-linecap="round" />
        </g>
        <g id="Group-20" transform="matrix(0.29237178 0.9563047 -0.9563047 0.29237178 44.408176 267.28293)">
          <path d="M63.0573 0C39.2245 7.55305 17.7457 20.397 0 37.1529" transform="matrix(-1 -8.742278E-08 8.742278E-08 -1 63.05733 45.927666)" id="Oval" fill="none" fill-rule="evenodd" stroke="#F77A56" stroke-width="3" />
          <path d="M0 6.96352L12.5565 1.3354e-15L17.5793 12.0282" transform="matrix(0.9135454 0.40673664 -0.40673664 0.9135454 52.7163 0.94487643)" id="Path-35" fill="none" fill-rule="evenodd" stroke="#F77A56" stroke-width="3" stroke-linecap="round" />
        </g>
      </g>
      <path d="M7.999 0L227.001 0Q227.197 0 227.394 0.00963514Q227.59 0.0192703 227.785 0.0385174Q227.98 0.0577644 228.175 0.0865771Q228.369 0.11539 228.561 0.153699Q228.754 0.192007 228.945 0.23972Q229.135 0.287433 229.323 0.344434Q229.511 0.401436 229.696 0.467589Q229.881 0.533742 230.062 0.608888Q230.243 0.684033 230.421 0.76799Q230.598 0.851946 230.772 0.944512Q230.945 1.03708 231.113 1.13803Q231.282 1.23898 231.445 1.34807Q231.608 1.45717 231.766 1.57414Q231.924 1.69112 232.075 1.81569Q232.227 1.94026 232.373 2.07213Q232.518 2.204 232.657 2.34285Q232.796 2.4817 232.928 2.6272Q233.06 2.7727 233.184 2.92449Q233.309 3.07628 233.426 3.234Q233.543 3.39172 233.652 3.55499Q233.761 3.71826 233.862 3.88669Q233.963 4.05512 234.055 4.2283Q234.148 4.40148 234.232 4.57899Q234.316 4.7565 234.391 4.93791Q234.466 5.11933 234.532 5.30422Q234.599 5.4891 234.656 5.67701Q234.713 5.86492 234.76 6.0554Q234.808 6.24588 234.846 6.43847Q234.885 6.63106 234.913 6.8253Q234.942 7.01954 234.961 7.21496Q234.981 7.41038 234.99 7.60651Q235 7.80264 235 7.999L235 281.001Q235 281.197 234.99 281.393Q234.981 281.59 234.961 281.785Q234.942 281.98 234.913 282.175Q234.885 282.369 234.846 282.561Q234.808 282.754 234.76 282.945Q234.713 283.135 234.656 283.323Q234.599 283.511 234.532 283.696Q234.466 283.881 234.391 284.062Q234.316 284.243 234.232 284.421Q234.148 284.598 234.055 284.772Q233.963 284.945 233.862 285.113Q233.761 285.282 233.652 285.445Q233.543 285.608 233.426 285.766Q233.309 285.924 233.184 286.076Q233.06 286.227 232.928 286.373Q232.796 286.518 232.657 286.657Q232.518 286.796 232.373 286.928Q232.227 287.06 232.075 287.184Q231.924 287.309 231.766 287.426Q231.608 287.543 231.445 287.652Q231.282 287.761 231.113 287.862Q230.945 287.963 230.772 288.055Q230.598 288.148 230.421 288.232Q230.243 288.316 230.062 288.391Q229.881 288.466 229.696 288.532Q229.511 288.599 229.323 288.656Q229.135 288.713 228.945 288.76Q228.754 288.808 228.561 288.846Q228.369 288.885 228.175 288.913Q227.98 288.942 227.785 288.961Q227.59 288.981 227.394 288.99Q227.197 289 227.001 289L7.999 289Q7.80264 289 7.60651 288.99Q7.41038 288.981 7.21496 288.961Q7.01954 288.942 6.8253 288.913Q6.63106 288.885 6.43847 288.846Q6.24588 288.808 6.0554 288.76Q5.86492 288.713 5.67701 288.656Q5.4891 288.599 5.30422 288.532Q5.11933 288.466 4.93791 288.391Q4.7565 288.316 4.57899 288.232Q4.40148 288.148 4.2283 288.055Q4.05512 287.963 3.88669 287.862Q3.71826 287.761 3.55499 287.652Q3.39172 287.543 3.234 287.426Q3.07628 287.309 2.92449 287.184Q2.7727 287.06 2.6272 286.928Q2.4817 286.796 2.34285 286.657Q2.204 286.518 2.07213 286.373Q1.94026 286.227 1.81569 286.076Q1.69112 285.924 1.57414 285.766Q1.45717 285.608 1.34807 285.445Q1.23898 285.282 1.13803 285.113Q1.03708 284.945 0.944512 284.772Q0.851946 284.598 0.76799 284.421Q0.684033 284.243 0.608888 284.062Q0.533742 283.881 0.467589 283.696Q0.401436 283.511 0.344434 283.323Q0.287433 283.135 0.23972 282.945Q0.192007 282.754 0.153699 282.561Q0.11539 282.369 0.0865771 282.175Q0.0577644 281.98 0.0385174 281.785Q0.0192703 281.59 0.00963514 281.393Q0 281.197 0 281.001L0 7.999Q0 7.80264 0.00963514 7.60651Q0.0192703 7.41038 0.0385174 7.21496Q0.0577644 7.01954 0.0865771 6.8253Q0.11539 6.63106 0.153699 6.43847Q0.192007 6.24588 0.23972 6.0554Q0.287433 5.86492 0.344434 5.67701Q0.401436 5.4891 0.467589 5.30422Q0.533742 5.11933 0.608888 4.93791Q0.684033 4.7565 0.76799 4.57899Q0.851946 4.40148 0.944512 4.2283Q1.03708 4.05512 1.13803 3.88669Q1.23898 3.71826 1.34807 3.55499Q1.45717 3.39172 1.57414 3.234Q1.69112 3.07628 1.81569 2.92449Q1.94026 2.7727 2.07213 2.6272Q2.204 2.4817 2.34285 2.34285Q2.4817 2.204 2.6272 2.07213Q2.7727 1.94026 2.92449 1.81569Q3.07628 1.69112 3.234 1.57414Q3.39172 1.45717 3.55499 1.34807Q3.71826 1.23898 3.88669 1.13803Q4.05512 1.03708 4.2283 0.944512Q4.40148 0.851946 4.57899 0.76799Q4.7565 0.684033 4.93791 0.608888Q5.11933 0.533742 5.30422 0.467589Q5.4891 0.401436 5.67701 0.344434Q5.86492 0.287433 6.0554 0.23972Q6.24588 0.192007 6.43847 0.153699Q6.63106 0.11539 6.8253 0.0865771Q7.01954 0.0577644 7.21496 0.0385174Q7.41038 0.0192703 7.60651 0.00963514Q7.80264 0 7.999 0L7.999 0Z" id="Rectangle" fill="#FFFFFF" fill-rule="evenodd" stroke="none" />
      <g id="Rectangle">
        <g clip-path="url(#clip_1)">
          <use xlink:href="#path_3" fill="none" stroke="#000000" stroke-width="4" />
        </g>
      </g>
      <path d="M3.999 0L173.001 0Q173.197 0 173.393 0.0192563Q173.588 0.0385126 173.781 0.0768396Q173.974 0.115167 174.162 0.172196Q174.35 0.229224 174.531 0.304406Q174.713 0.379587 174.886 0.472197Q175.059 0.564807 175.223 0.673953Q175.386 0.783099 175.538 0.907731Q175.69 1.03236 175.829 1.17128Q175.968 1.3102 176.092 1.46206Q176.217 1.61393 176.326 1.77727Q176.435 1.94062 176.528 2.11388Q176.62 2.28715 176.696 2.46865Q176.771 2.65015 176.828 2.83815Q176.885 3.02615 176.923 3.21883Q176.962 3.41152 176.981 3.60703Q177 3.80254 177 3.999L177 111.001Q177 111.197 176.981 111.393Q176.962 111.588 176.923 111.781Q176.885 111.974 176.828 112.162Q176.771 112.35 176.696 112.531Q176.62 112.713 176.528 112.886Q176.435 113.059 176.326 113.223Q176.217 113.386 176.092 113.538Q175.968 113.69 175.829 113.829Q175.69 113.968 175.538 114.092Q175.386 114.217 175.223 114.326Q175.059 114.435 174.886 114.528Q174.713 114.62 174.531 114.696Q174.35 114.771 174.162 114.828Q173.974 114.885 173.781 114.923Q173.588 114.961 173.393 114.981Q173.197 115 173.001 115L3.999 115Q3.80254 115 3.60703 114.981Q3.41152 114.961 3.21883 114.923Q3.02615 114.885 2.83815 114.828Q2.65015 114.771 2.46865 114.696Q2.28715 114.62 2.11388 114.528Q1.94062 114.435 1.77727 114.326Q1.61393 114.217 1.46206 114.092Q1.3102 113.968 1.17128 113.829Q1.03236 113.69 0.907731 113.538Q0.783099 113.386 0.673953 113.223Q0.564807 113.059 0.472197 112.886Q0.379587 112.713 0.304406 112.531Q0.229224 112.35 0.172196 112.162Q0.115167 111.974 0.0768396 111.781Q0.0385126 111.588 0.0192563 111.393Q0 111.197 0 111.001L0 3.999Q0 3.80254 0.0192563 3.60703Q0.0385126 3.41152 0.0768396 3.21883Q0.115167 3.02615 0.172196 2.83815Q0.229224 2.65015 0.304406 2.46865Q0.379587 2.28715 0.472197 2.11388Q0.564807 1.94062 0.673953 1.77727Q0.783099 1.61393 0.907731 1.46206Q1.03236 1.3102 1.17128 1.17128Q1.3102 1.03236 1.46206 0.907731Q1.61393 0.783099 1.77727 0.673953Q1.94062 0.564807 2.11388 0.472197Q2.28715 0.379587 2.46865 0.304406Q2.65015 0.229224 2.83815 0.172196Q3.02615 0.115167 3.21883 0.0768396Q3.41152 0.0385126 3.60703 0.0192563Q3.80254 0 3.999 0Z" transform="translate(27 56)" id="Rectangle" fill="#F7F1E9" fill-rule="evenodd" stroke="none" />
      <path d="M3.999 0L76.001 0Q76.1975 0 76.393 0.0192563Q76.5885 0.0385126 76.7812 0.0768396Q76.9739 0.115167 77.1618 0.172196Q77.3498 0.229224 77.5313 0.304406Q77.7129 0.379587 77.8861 0.472197Q78.0594 0.564807 78.2227 0.673953Q78.3861 0.783099 78.5379 0.907731Q78.6898 1.03236 78.8287 1.17128Q78.9676 1.3102 79.0923 1.46206Q79.2169 1.61393 79.326 1.77727Q79.4352 1.94062 79.5278 2.11388Q79.6204 2.28715 79.6956 2.46865Q79.7708 2.65015 79.8278 2.83815Q79.8848 3.02615 79.9231 3.21883Q79.9615 3.41152 79.9807 3.60703Q80 3.80254 80 3.999L80 71.001Q80 71.1975 79.9807 71.393Q79.9615 71.5885 79.9231 71.7812Q79.8848 71.9738 79.8278 72.1618Q79.7708 72.3498 79.6956 72.5313Q79.6204 72.7129 79.5278 72.8861Q79.4352 73.0594 79.326 73.2227Q79.2169 73.3861 79.0923 73.5379Q78.9676 73.6898 78.8287 73.8287Q78.6898 73.9676 78.5379 74.0923Q78.3861 74.2169 78.2227 74.326Q78.0594 74.4352 77.8861 74.5278Q77.7129 74.6204 77.5313 74.6956Q77.3498 74.7708 77.1618 74.8278Q76.9739 74.8848 76.7812 74.9231Q76.5885 74.9615 76.393 74.9807Q76.1975 75 76.001 75L3.999 75Q3.80254 75 3.60703 74.9807Q3.41152 74.9615 3.21883 74.9231Q3.02615 74.8848 2.83815 74.8278Q2.65015 74.7708 2.46865 74.6956Q2.28715 74.6204 2.11388 74.5278Q1.94062 74.4352 1.77727 74.326Q1.61393 74.2169 1.46206 74.0923Q1.3102 73.9676 1.17128 73.8287Q1.03236 73.6898 0.907731 73.5379Q0.783099 73.3861 0.673953 73.2227Q0.564807 73.0594 0.472197 72.8861Q0.379587 72.7129 0.304406 72.5313Q0.229224 72.3498 0.172196 72.1618Q0.115167 71.9738 0.0768396 71.7812Q0.0385126 71.5885 0.0192563 71.393Q0 71.1975 0 71.001L0 3.999Q0 3.80254 0.0192563 3.60703Q0.0385126 3.41152 0.0768396 3.21883Q0.115167 3.02615 0.172196 2.83815Q0.229224 2.65015 0.304406 2.46865Q0.379587 2.28715 0.472197 2.11388Q0.564807 1.94062 0.673953 1.77727Q0.783099 1.61393 0.907731 1.46206Q1.03236 1.3102 1.17128 1.17128Q1.3102 1.03236 1.46206 0.907731Q1.61393 0.783099 1.77727 0.673953Q1.94062 0.564807 2.11388 0.472197Q2.28715 0.379587 2.46865 0.304406Q2.65015 0.229224 2.83815 0.172196Q3.02615 0.115167 3.21883 0.0768396Q3.41152 0.0385126 3.60703 0.0192563Q3.80254 0 3.999 0Z" transform="translate(306 190)" id="Rectangle" fill="#E2DDF3" fill-rule="evenodd" stroke="none" />
      <path d="M3.999 0L173.001 0Q173.197 0 173.393 0.0192563Q173.588 0.0385126 173.781 0.0768396Q173.974 0.115167 174.162 0.172196Q174.35 0.229224 174.531 0.304406Q174.713 0.379587 174.886 0.472197Q175.059 0.564807 175.223 0.673953Q175.386 0.783099 175.538 0.907731Q175.69 1.03236 175.829 1.17128Q175.968 1.3102 176.092 1.46206Q176.217 1.61393 176.326 1.77727Q176.435 1.94062 176.528 2.11388Q176.62 2.28715 176.696 2.46865Q176.771 2.65015 176.828 2.83815Q176.885 3.02615 176.923 3.21883Q176.962 3.41152 176.981 3.60703Q177 3.80254 177 3.999L177 79.001Q177 79.1975 176.981 79.393Q176.962 79.5885 176.923 79.7812Q176.885 79.9738 176.828 80.1618Q176.771 80.3498 176.696 80.5313Q176.62 80.7129 176.528 80.8861Q176.435 81.0594 176.326 81.2227Q176.217 81.3861 176.092 81.5379Q175.968 81.6898 175.829 81.8287Q175.69 81.9676 175.538 82.0923Q175.386 82.2169 175.223 82.326Q175.059 82.4352 174.886 82.5278Q174.713 82.6204 174.531 82.6956Q174.35 82.7708 174.162 82.8278Q173.974 82.8848 173.781 82.9232Q173.588 82.9615 173.393 82.9808Q173.197 83 173.001 83L3.999 83Q3.80254 83 3.60703 82.9808Q3.41152 82.9615 3.21883 82.9232Q3.02615 82.8848 2.83815 82.8278Q2.65015 82.7708 2.46865 82.6956Q2.28715 82.6204 2.11388 82.5278Q1.94062 82.4352 1.77727 82.326Q1.61393 82.2169 1.46206 82.0923Q1.3102 81.9676 1.17128 81.8287Q1.03236 81.6898 0.907731 81.5379Q0.783099 81.3861 0.673953 81.2227Q0.564807 81.0594 0.472197 80.8861Q0.379587 80.7129 0.304406 80.5313Q0.229224 80.3498 0.172196 80.1618Q0.115167 79.9738 0.0768396 79.7812Q0.0385126 79.5885 0.0192563 79.393Q0 79.1975 0 79.001L0 3.999Q0 3.80254 0.0192563 3.60703Q0.0385126 3.41152 0.0768396 3.21883Q0.115167 3.02615 0.172196 2.83815Q0.229224 2.65015 0.304406 2.46865Q0.379587 2.28715 0.472197 2.11388Q0.564807 1.94062 0.673953 1.77727Q0.783099 1.61393 0.907731 1.46206Q1.03236 1.3102 1.17128 1.17128Q1.3102 1.03236 1.46206 0.907731Q1.61393 0.783099 1.77727 0.673953Q1.94062 0.564807 2.11388 0.472197Q2.28715 0.379587 2.46865 0.304406Q2.65015 0.229224 2.83815 0.172196Q3.02615 0.115167 3.21883 0.0768396Q3.41152 0.0385126 3.60703 0.0192563Q3.80254 0 3.999 0Z" transform="translate(306 282)" id="Rectangle" fill="#B6EEEC" fill-rule="evenodd" stroke="none" />
      <path d="M0 0L70 0L70 2L0 2L0 0Z" transform="translate(26 226)" id="Rectangle" fill="#000000" fill-rule="evenodd" stroke="none" />
      <path d="M3.999 0L76.001 0Q76.1975 0 76.393 0.0192563Q76.5885 0.0385126 76.7812 0.0768396Q76.9739 0.115167 77.1618 0.172196Q77.3498 0.229224 77.5313 0.304406Q77.7129 0.379587 77.8861 0.472197Q78.0594 0.564807 78.2227 0.673953Q78.3861 0.783099 78.5379 0.907731Q78.6898 1.03236 78.8287 1.17128Q78.9676 1.3102 79.0923 1.46206Q79.2169 1.61393 79.326 1.77727Q79.4352 1.94062 79.5278 2.11388Q79.6204 2.28715 79.6956 2.46865Q79.7708 2.65015 79.8278 2.83815Q79.8848 3.02615 79.9231 3.21883Q79.9615 3.41152 79.9807 3.60703Q80 3.80254 80 3.999L80 71.001Q80 71.1975 79.9807 71.393Q79.9615 71.5885 79.9231 71.7812Q79.8848 71.9738 79.8278 72.1618Q79.7708 72.3498 79.6956 72.5313Q79.6204 72.7129 79.5278 72.8861Q79.4352 73.0594 79.326 73.2227Q79.2169 73.3861 79.0923 73.5379Q78.9676 73.6898 78.8287 73.8287Q78.6898 73.9676 78.5379 74.0923Q78.3861 74.2169 78.2227 74.326Q78.0594 74.4352 77.8861 74.5278Q77.7129 74.6204 77.5313 74.6956Q77.3498 74.7708 77.1618 74.8278Q76.9739 74.8848 76.7812 74.9231Q76.5885 74.9615 76.393 74.9807Q76.1975 75 76.001 75L3.999 75Q3.80254 75 3.60703 74.9807Q3.41152 74.9615 3.21883 74.9231Q3.02615 74.8848 2.83815 74.8278Q2.65015 74.7708 2.46865 74.6956Q2.28715 74.6204 2.11388 74.5278Q1.94062 74.4352 1.77727 74.326Q1.61393 74.2169 1.46206 74.0923Q1.3102 73.9676 1.17128 73.8287Q1.03236 73.6898 0.907731 73.5379Q0.783099 73.3861 0.673953 73.2227Q0.564807 73.0594 0.472197 72.8861Q0.379587 72.7129 0.304406 72.5313Q0.229224 72.3498 0.172196 72.1618Q0.115167 71.9738 0.0768396 71.7812Q0.0385126 71.5885 0.0192563 71.393Q0 71.1975 0 71.001L0 3.999Q0 3.80254 0.0192563 3.60703Q0.0385126 3.41152 0.0768396 3.21883Q0.115167 3.02615 0.172196 2.83815Q0.229224 2.65015 0.304406 2.46865Q0.379587 2.28715 0.472197 2.11388Q0.564807 1.94062 0.673953 1.77727Q0.783099 1.61393 0.907731 1.46206Q1.03236 1.3102 1.17128 1.17128Q1.3102 1.03236 1.46206 0.907731Q1.61393 0.783099 1.77727 0.673953Q1.94062 0.564807 2.11388 0.472197Q2.28715 0.379587 2.46865 0.304406Q2.65015 0.229224 2.83815 0.172196Q3.02615 0.115167 3.21883 0.0768396Q3.41152 0.0385126 3.60703 0.0192563Q3.80254 0 3.999 0Z" transform="translate(403 190)" id="Rectangle" fill="#F8F4E8" fill-rule="evenodd" stroke="none" />
      <g id="User-Details" transform="translate(29.5 19)">
        <path d="M74.568 5.124Q74.672 5.228 74.832 5.228L75.84 5.228Q76 5.228 76.112 5.124Q76.224 5.02 76.224 4.86L76.224 3.996Q76.224 3.836 76.112 3.724Q76 3.612 75.84 3.612L74.832 3.612Q74.672 3.612 74.568 3.724Q74.464 3.836 74.464 3.996L74.464 4.86Q74.464 5.02 74.568 5.124ZM61.296 14.756Q61.856 15.1 62.752 15.1L63.856 15.1Q64.016 15.1 64.12 14.996Q64.224 14.892 64.224 14.732L64.224 14.156Q64.224 13.996 64.12 13.892Q64.016 13.788 63.856 13.788L62.88 13.788Q62.224 13.788 61.968 13.356Q61.712 12.924 61.712 12.172L61.712 8.06L63.696 8.06Q63.872 8.06 63.968 7.956Q64.064 7.852 64.064 7.692L64.064 7.148Q64.064 6.988 63.968 6.884Q63.872 6.78 63.696 6.78L61.712 6.78L61.712 4.108Q61.712 3.948 61.608 3.844Q61.504 3.74 61.344 3.74L60.592 3.74Q60.432 3.74 60.328 3.844Q60.224 3.948 60.224 4.108L60.224 6.78L58.976 6.78Q58.816 6.78 58.712 6.884Q58.608 6.988 58.608 7.148L58.608 7.692Q58.608 7.852 58.712 7.956Q58.816 8.06 58.976 8.06L60.224 8.06L60.224 12.284Q60.224 13.148 60.48 13.78Q60.736 14.412 61.296 14.756ZM78.848 15.1C78.7413 15.1 78.6533 15.0653 78.584 14.996Q78.48 14.892 78.48 14.732L78.48 4.108Q78.48 3.948 78.584 3.844Q78.688 3.74 78.848 3.74L79.6 3.74Q79.776 3.74 79.872 3.844Q79.968 3.948 79.968 4.108L79.968 14.732Q79.968 14.892 79.872 14.996Q79.776 15.1 79.6 15.1L78.848 15.1ZM5.616 15.26Q4.272 15.26 3.304 14.78Q2.336 14.3 1.816 13.316Q1.296 12.332 1.296 10.78L1.296 4.284Q1.296 4.108 1.392 4.004Q1.488 3.9 1.664 3.9L2.48 3.9Q2.656 3.9 2.76 4.004Q2.864 4.108 2.864 4.284L2.864 10.812Q2.864 12.38 3.6 13.132Q4.336 13.884 5.616 13.884Q6.88 13.884 7.624 13.132Q8.368 12.38 8.368 10.812L8.368 4.284Q8.368 4.108 8.472 4.004Q8.576 3.9 8.736 3.9L9.568 3.9Q9.728 3.9 9.832 4.004Q9.936 4.108 9.936 4.284L9.936 10.78Q9.936 12.332 9.416 13.316Q8.896 14.3 7.936 14.78Q6.976 15.26 5.616 15.26ZM39.824 14.996C39.888 15.0653 39.9787 15.1 40.096 15.1L43.808 15.1Q45.424 15.1 46.408 14.628Q47.392 14.156 47.848 13.188Q48.304 12.22 48.336 10.748Q48.352 10.044 48.352 9.5Q48.352 8.956 48.336 8.236Q48.32 6.828 47.856 5.86Q47.392 4.892 46.384 4.396Q45.376 3.9 43.728 3.9L40.096 3.9Q39.92 3.9 39.824 4.004Q39.728 4.108 39.728 4.284L39.728 14.732Q39.728 14.892 39.824 14.996ZM43.728 13.74L41.296 13.74L41.296 5.26L43.648 5.26Q45.312 5.26 46.016 6.004Q46.72 6.748 46.752 8.3Q46.784 8.764 46.784 9.124L46.784 9.844Q46.784 10.204 46.752 10.684Q46.736 11.788 46.44 12.46Q46.144 13.132 45.488 13.436Q44.832 13.74 43.728 13.74ZM13.744 15.036Q13.104 14.812 12.704 14.492Q12.304 14.172 12.104 13.852Q11.904 13.532 11.888 13.34Q11.872 13.164 12 13.068Q12.128 12.972 12.256 12.972L12.976 12.972Q13.056 12.972 13.112 12.996Q13.168 13.02 13.264 13.132Q13.472 13.356 13.728 13.58Q13.984 13.804 14.36 13.948Q14.736 14.092 15.296 14.092Q16.112 14.092 16.64 13.78Q17.168 13.468 17.168 12.86Q17.168 12.46 16.952 12.22Q16.736 11.98 16.184 11.788Q15.632 11.596 14.672 11.388Q13.712 11.164 13.152 10.836Q12.592 10.508 12.352 10.052Q12.112 9.596 12.112 9.02Q12.112 8.428 12.464 7.876Q12.816 7.324 13.496 6.972Q14.176 6.62 15.2 6.62Q16.032 6.62 16.624 6.828Q17.216 7.036 17.6 7.348Q17.984 7.66 18.176 7.964Q18.368 8.268 18.384 8.476Q18.4 8.636 18.288 8.74Q18.176 8.844 18.032 8.844L17.36 8.844Q17.248 8.844 17.176 8.796Q17.104 8.748 17.04 8.684Q16.88 8.476 16.664 8.268Q16.448 8.06 16.104 7.924Q15.76 7.788 15.2 7.788Q14.4 7.788 14 8.124Q13.6 8.46 13.6 8.972Q13.6 9.276 13.776 9.516Q13.952 9.756 14.448 9.948Q14.944 10.14 15.92 10.364Q16.976 10.572 17.584 10.924Q18.192 11.276 18.448 11.74Q18.704 12.204 18.704 12.812Q18.704 13.484 18.32 14.044Q17.936 14.604 17.168 14.932Q16.4 15.26 15.28 15.26Q14.384 15.26 13.744 15.036ZM21.248 14.244Q22.224 15.26 23.888 15.26Q24.704 15.26 25.352 15.044Q26 14.828 26.44 14.492Q26.88 14.156 27.12 13.812Q27.36 13.468 27.376 13.228Q27.392 13.068 27.288 12.98Q27.184 12.892 27.04 12.892L26.256 12.892Q26.08 12.892 26 12.932Q25.92 12.972 25.776 13.164Q25.696 13.292 25.456 13.508Q25.216 13.724 24.832 13.9Q24.448 14.076 23.872 14.076Q23.216 14.076 22.728 13.724Q22.24 13.372 21.984 12.804Q21.728 12.236 21.696 11.58L21.696 11.436L27.232 11.436Q27.392 11.436 27.496 11.34Q27.6 11.244 27.6 11.068L27.6 10.796Q27.6 9.532 27.168 8.588Q26.736 7.644 25.912 7.132Q25.088 6.62 23.872 6.62Q22.784 6.62 21.976 7.084Q21.168 7.548 20.704 8.404Q20.24 9.26 20.176 10.396Q20.16 10.604 20.16 10.932Q20.16 11.26 20.176 11.468Q20.272 13.228 21.248 14.244ZM53.872 15.26Q52.208 15.26 51.232 14.244Q50.256 13.228 50.16 11.468Q50.144 11.26 50.144 10.932Q50.144 10.604 50.16 10.396Q50.224 9.26 50.688 8.404Q51.152 7.548 51.96 7.084Q52.768 6.62 53.856 6.62Q55.072 6.62 55.896 7.132Q56.72 7.644 57.152 8.588Q57.584 9.532 57.584 10.796L57.584 11.068Q57.584 11.244 57.48 11.34Q57.376 11.436 57.216 11.436L51.68 11.436L51.68 11.58Q51.712 12.236 51.968 12.804Q52.224 13.372 52.712 13.724Q53.2 14.076 53.856 14.076Q54.432 14.076 54.816 13.9Q55.2 13.724 55.44 13.508Q55.68 13.292 55.76 13.164Q55.904 12.972 55.984 12.932Q56.064 12.892 56.24 12.892L57.024 12.892Q57.168 12.892 57.272 12.98Q57.376 13.068 57.36 13.228Q57.344 13.468 57.104 13.812Q56.864 14.156 56.424 14.492Q55.984 14.828 55.336 15.044Q54.688 15.26 53.872 15.26ZM68.08 15.26Q67.28 15.26 66.624 14.94Q65.968 14.62 65.568 14.076Q65.168 13.532 65.168 12.844Q65.168 11.74 66.064 11.084Q66.96 10.428 68.4 10.22L70.784 9.884L70.784 9.42Q70.784 8.652 70.344 8.22Q69.904 7.788 68.912 7.788Q68.208 7.788 67.76 8.076Q67.312 8.364 67.136 8.812Q67.04 9.052 66.8 9.052L66.08 9.052Q65.904 9.052 65.816 8.948Q65.728 8.844 65.728 8.7Q65.728 8.46 65.912 8.108Q66.096 7.756 66.48 7.42Q66.864 7.084 67.464 6.852Q68.064 6.62 68.928 6.62Q69.888 6.62 70.544 6.868Q71.2 7.116 71.576 7.532Q71.952 7.948 72.12 8.476Q72.288 9.004 72.288 9.548L72.288 14.732Q72.288 14.892 72.184 14.996C72.1147 15.0653 72.0267 15.1 71.92 15.1L71.184 15.1Q71.008 15.1 70.912 14.996Q70.816 14.892 70.816 14.732L70.816 14.044Q70.608 14.332 70.256 14.612Q69.904 14.892 69.376 15.076Q68.848 15.26 68.08 15.26ZM82.656 14.492Q83.056 14.812 83.696 15.036Q84.336 15.26 85.232 15.26Q86.352 15.26 87.12 14.932Q87.888 14.604 88.272 14.044Q88.656 13.484 88.656 12.812Q88.656 12.204 88.4 11.74Q88.144 11.276 87.536 10.924Q86.928 10.572 85.872 10.364Q84.896 10.14 84.4 9.948Q83.904 9.756 83.728 9.516Q83.552 9.276 83.552 8.972Q83.552 8.46 83.952 8.124Q84.352 7.788 85.152 7.788Q85.712 7.788 86.056 7.924Q86.4 8.06 86.616 8.268Q86.832 8.476 86.992 8.684Q87.056 8.748 87.128 8.796Q87.2 8.844 87.312 8.844L87.984 8.844Q88.128 8.844 88.24 8.74Q88.352 8.636 88.336 8.476Q88.32 8.268 88.128 7.964Q87.936 7.66 87.552 7.348Q87.168 7.036 86.576 6.828Q85.984 6.62 85.152 6.62Q84.128 6.62 83.448 6.972Q82.768 7.324 82.416 7.876Q82.064 8.428 82.064 9.02Q82.064 9.596 82.304 10.052Q82.544 10.508 83.104 10.836Q83.664 11.164 84.624 11.388Q85.584 11.596 86.136 11.788Q86.688 11.98 86.904 12.22Q87.12 12.46 87.12 12.86Q87.12 13.468 86.592 13.78Q86.064 14.092 85.248 14.092Q84.688 14.092 84.312 13.948Q83.936 13.804 83.68 13.58Q83.424 13.356 83.216 13.132Q83.12 13.02 83.064 12.996Q83.008 12.972 82.928 12.972L82.208 12.972Q82.08 12.972 81.952 13.068Q81.824 13.164 81.84 13.34Q81.856 13.532 82.056 13.852Q82.256 14.172 82.656 14.492ZM29.888 15.1C29.7813 15.1 29.6933 15.0653 29.624 14.996Q29.52 14.892 29.52 14.732L29.52 7.164Q29.52 7.004 29.624 6.892Q29.728 6.78 29.888 6.78L30.624 6.78Q30.784 6.78 30.896 6.892Q31.008 7.004 31.008 7.164L31.008 7.868Q31.328 7.324 31.888 7.052Q32.448 6.78 33.248 6.78L33.872 6.78Q34.032 6.78 34.136 6.884Q34.24 6.988 34.24 7.148L34.24 7.804Q34.24 7.964 34.136 8.06Q34.032 8.156 33.872 8.156L32.912 8.156Q32.048 8.156 31.552 8.66Q31.056 9.164 31.056 10.028L31.056 14.732Q31.056 14.892 30.944 14.996C30.8693 15.0653 30.7787 15.1 30.672 15.1L29.888 15.1ZM74.696 14.996C74.7653 15.0653 74.8533 15.1 74.96 15.1L75.728 15.1C75.8347 15.1 75.9227 15.0653 75.992 14.996Q76.096 14.892 76.096 14.732L76.096 7.148Q76.096 6.988 75.992 6.884Q75.888 6.78 75.728 6.78L74.96 6.78Q74.8 6.78 74.696 6.884Q74.592 6.988 74.592 7.148L74.592 14.732Q74.592 14.892 74.696 14.996ZM26.08 10.332L21.696 10.332L21.696 10.284Q21.696 9.564 21.952 9.004Q22.208 8.444 22.696 8.116Q23.184 7.788 23.872 7.788Q24.56 7.788 25.056 8.116Q25.552 8.444 25.816 9.004Q26.08 9.564 26.08 10.284L26.08 10.332ZM51.68 10.332L56.064 10.332L56.064 10.284Q56.064 9.564 55.8 9.004Q55.536 8.444 55.04 8.116Q54.544 7.788 53.856 7.788Q53.168 7.788 52.68 8.116Q52.192 8.444 51.936 9.004Q51.68 9.564 51.68 10.284L51.68 10.332ZM68.416 14.06Q69.072 14.06 69.616 13.78Q70.16 13.5 70.472 12.908Q70.784 12.316 70.784 11.42L70.784 10.972L68.928 11.244Q67.792 11.404 67.216 11.78Q66.64 12.156 66.64 12.732Q66.64 13.18 66.904 13.476Q67.168 13.772 67.576 13.916Q67.984 14.06 68.416 14.06Z" />
      </g>
      <g id="Download-Data" transform="translate(307.5 151)">
        <path d="M44.304 15.1C44.1973 15.1 44.1093 15.0653 44.04 14.996Q43.936 14.892 43.936 14.732L43.936 4.108Q43.936 3.948 44.04 3.844Q44.144 3.74 44.304 3.74L45.056 3.74Q45.232 3.74 45.328 3.844Q45.424 3.948 45.424 4.108L45.424 14.732Q45.424 14.892 45.328 14.996C45.264 15.0653 45.1733 15.1 45.056 15.1L44.304 15.1ZM67.344 14.948Q67.984 15.26 68.864 15.26Q69.824 15.26 70.464 14.916Q71.104 14.572 71.504 14.06L71.504 14.732Q71.504 14.892 71.6 14.996Q71.696 15.1 71.872 15.1L72.592 15.1C72.6987 15.1 72.7867 15.0653 72.856 14.996Q72.96 14.892 72.96 14.732L72.96 4.108Q72.96 3.948 72.856 3.844Q72.752 3.74 72.592 3.74L71.824 3.74Q71.664 3.74 71.56 3.844Q71.456 3.948 71.456 4.108L71.456 7.788Q71.056 7.292 70.432 6.956Q69.808 6.62 68.864 6.62Q67.984 6.62 67.344 6.932Q66.704 7.244 66.296 7.788Q65.888 8.332 65.688 9.02Q65.488 9.708 65.456 10.46Q65.44 10.716 65.44 10.94Q65.44 11.164 65.456 11.42Q65.488 12.188 65.688 12.876Q65.888 13.564 66.296 14.1Q66.704 14.636 67.344 14.948ZM102.368 15.1Q101.472 15.1 100.912 14.756Q100.352 14.412 100.096 13.78Q99.84 13.148 99.84 12.284L99.84 8.06L98.592 8.06Q98.432 8.06 98.328 7.956Q98.224 7.852 98.224 7.692L98.224 7.148Q98.224 6.988 98.328 6.884Q98.432 6.78 98.592 6.78L99.84 6.78L99.84 4.108Q99.84 3.948 99.944 3.844Q100.048 3.74 100.208 3.74L100.96 3.74Q101.12 3.74 101.224 3.844Q101.328 3.948 101.328 4.108L101.328 6.78L103.312 6.78Q103.488 6.78 103.584 6.884Q103.68 6.988 103.68 7.148L103.68 7.692Q103.68 7.852 103.584 7.956Q103.488 8.06 103.312 8.06L101.328 8.06L101.328 12.172Q101.328 12.924 101.584 13.356Q101.84 13.788 102.496 13.788L103.472 13.788Q103.632 13.788 103.736 13.892Q103.84 13.996 103.84 14.156L103.84 14.732Q103.84 14.892 103.736 14.996C103.667 15.0653 103.579 15.1 103.472 15.1L102.368 15.1ZM1.488 14.996Q1.584 15.1 1.76 15.1L5.472 15.1Q7.088 15.1 8.072 14.628Q9.056 14.156 9.512 13.188Q9.968 12.22 10 10.748Q10.016 10.044 10.016 9.5Q10.016 8.956 10 8.236Q9.984 6.828 9.52 5.86Q9.056 4.892 8.048 4.396Q7.04 3.9 5.392 3.9L1.76 3.9Q1.584 3.9 1.488 4.004Q1.392 4.108 1.392 4.284L1.392 14.732Q1.392 14.892 1.488 14.996ZM79.84 15.1Q79.664 15.1 79.568 14.996Q79.472 14.892 79.472 14.732L79.472 4.284Q79.472 4.108 79.568 4.004Q79.664 3.9 79.84 3.9L83.472 3.9Q85.12 3.9 86.128 4.396Q87.136 4.892 87.6 5.86Q88.064 6.828 88.08 8.236Q88.096 8.956 88.096 9.5Q88.096 10.044 88.08 10.748Q88.048 12.22 87.592 13.188Q87.136 14.156 86.152 14.628Q85.168 15.1 83.552 15.1L79.84 15.1ZM5.392 13.74L2.96 13.74L2.96 5.26L5.312 5.26Q6.976 5.26 7.68 6.004Q8.384 6.748 8.416 8.3Q8.448 8.764 8.448 9.124L8.448 9.844Q8.448 10.204 8.416 10.684Q8.4 11.788 8.104 12.46Q7.808 13.132 7.152 13.436Q6.496 13.74 5.392 13.74ZM81.04 13.74L83.472 13.74Q84.576 13.74 85.232 13.436Q85.888 13.132 86.184 12.46Q86.48 11.788 86.496 10.684Q86.528 10.204 86.528 9.844L86.528 9.124Q86.528 8.764 86.496 8.3Q86.464 6.748 85.76 6.004Q85.056 5.26 83.392 5.26L81.04 5.26L81.04 13.74ZM13.584 14.796Q14.4 15.26 15.616 15.26Q16.832 15.26 17.648 14.796Q18.464 14.332 18.896 13.508Q19.328 12.684 19.376 11.628Q19.392 11.356 19.392 10.932Q19.392 10.508 19.376 10.252Q19.328 9.18 18.888 8.364Q18.448 7.548 17.632 7.084Q16.816 6.62 15.616 6.62Q14.416 6.62 13.6 7.084Q12.784 7.548 12.344 8.364Q11.904 9.18 11.856 10.252Q11.84 10.508 11.84 10.932Q11.84 11.356 11.856 11.628Q11.904 12.684 12.336 13.508Q12.768 14.332 13.584 14.796ZM34.328 14.996C34.3973 15.0653 34.4853 15.1 34.592 15.1L35.392 15.1C35.4987 15.1 35.5867 15.0653 35.656 14.996Q35.76 14.892 35.76 14.732L35.76 10.3Q35.76 9.18 36.36 8.548Q36.96 7.916 37.952 7.916Q39.008 7.916 39.552 8.548Q40.096 9.18 40.096 10.3L40.096 14.732Q40.096 14.892 40.2 14.996C40.2693 15.0653 40.3573 15.1 40.464 15.1L41.264 15.1C41.3707 15.1 41.4587 15.0653 41.528 14.996Q41.632 14.892 41.632 14.732L41.632 10.22Q41.632 9.148 41.256 8.34Q40.88 7.532 40.152 7.076Q39.424 6.62 38.384 6.62Q37.392 6.62 36.76 6.964Q36.128 7.308 35.712 7.852L35.712 7.148Q35.712 6.988 35.608 6.884Q35.504 6.78 35.344 6.78L34.592 6.78Q34.432 6.78 34.328 6.884Q34.224 6.988 34.224 7.148L34.224 14.732Q34.224 14.892 34.328 14.996ZM49.184 14.796Q50 15.26 51.216 15.26Q52.432 15.26 53.248 14.796Q54.064 14.332 54.496 13.508Q54.928 12.684 54.976 11.628Q54.992 11.356 54.992 10.932Q54.992 10.508 54.976 10.252Q54.928 9.18 54.488 8.364Q54.048 7.548 53.232 7.084Q52.416 6.62 51.216 6.62Q50.016 6.62 49.2 7.084Q48.384 7.548 47.944 8.364Q47.504 9.18 47.456 10.252Q47.44 10.508 47.44 10.932Q47.44 11.356 47.456 11.628Q47.504 12.684 47.936 13.508Q48.368 14.332 49.184 14.796ZM59.312 15.26Q58.512 15.26 57.856 14.94Q57.2 14.62 56.8 14.076Q56.4 13.532 56.4 12.844Q56.4 11.74 57.296 11.084Q58.192 10.428 59.632 10.22L62.016 9.884L62.016 9.42Q62.016 8.652 61.576 8.22Q61.136 7.788 60.144 7.788Q59.44 7.788 58.992 8.076Q58.544 8.364 58.368 8.812Q58.272 9.052 58.032 9.052L57.312 9.052Q57.136 9.052 57.048 8.948Q56.96 8.844 56.96 8.7Q56.96 8.46 57.144 8.108Q57.328 7.756 57.712 7.42Q58.096 7.084 58.696 6.852Q59.296 6.62 60.16 6.62Q61.12 6.62 61.776 6.868Q62.432 7.116 62.808 7.532Q63.184 7.948 63.352 8.476Q63.52 9.004 63.52 9.548L63.52 14.732Q63.52 14.892 63.416 14.996C63.3467 15.0653 63.2587 15.1 63.152 15.1L62.416 15.1C62.2987 15.1 62.208 15.0653 62.144 14.996Q62.048 14.892 62.048 14.732L62.048 14.044Q61.84 14.332 61.488 14.612Q61.136 14.892 60.608 15.076Q60.08 15.26 59.312 15.26ZM91.152 14.94Q91.808 15.26 92.608 15.26Q93.376 15.26 93.904 15.076Q94.432 14.892 94.784 14.612Q95.136 14.332 95.344 14.044L95.344 14.732Q95.344 14.892 95.44 14.996Q95.536 15.1 95.712 15.1L96.448 15.1C96.5547 15.1 96.6427 15.0653 96.712 14.996Q96.816 14.892 96.816 14.732L96.816 9.548Q96.816 9.004 96.648 8.476Q96.48 7.948 96.104 7.532Q95.728 7.116 95.072 6.868Q94.416 6.62 93.456 6.62Q92.592 6.62 91.992 6.852Q91.392 7.084 91.008 7.42Q90.624 7.756 90.44 8.108Q90.256 8.46 90.256 8.7Q90.256 8.844 90.344 8.948Q90.432 9.052 90.608 9.052L91.328 9.052Q91.568 9.052 91.664 8.812Q91.84 8.364 92.288 8.076Q92.736 7.788 93.44 7.788Q94.432 7.788 94.872 8.22Q95.312 8.652 95.312 9.42L95.312 9.884L92.928 10.22Q91.488 10.428 90.592 11.084Q89.696 11.74 89.696 12.844Q89.696 13.532 90.096 14.076Q90.496 14.62 91.152 14.94ZM106.24 14.94Q106.896 15.26 107.696 15.26Q108.464 15.26 108.992 15.076Q109.52 14.892 109.872 14.612Q110.224 14.332 110.432 14.044L110.432 14.732Q110.432 14.892 110.528 14.996C110.592 15.0653 110.683 15.1 110.8 15.1L111.536 15.1C111.643 15.1 111.731 15.0653 111.8 14.996Q111.904 14.892 111.904 14.732L111.904 9.548Q111.904 9.004 111.736 8.476Q111.568 7.948 111.192 7.532Q110.816 7.116 110.16 6.868Q109.504 6.62 108.544 6.62Q107.68 6.62 107.08 6.852Q106.48 7.084 106.096 7.42Q105.712 7.756 105.528 8.108Q105.344 8.46 105.344 8.7Q105.344 8.844 105.432 8.948Q105.52 9.052 105.696 9.052L106.416 9.052Q106.656 9.052 106.752 8.812Q106.928 8.364 107.376 8.076Q107.824 7.788 108.528 7.788Q109.52 7.788 109.96 8.22Q110.4 8.652 110.4 9.42L110.4 9.884L108.016 10.22Q106.576 10.428 105.68 11.084Q104.784 11.74 104.784 12.844Q104.784 13.532 105.184 14.076Q105.584 14.62 106.24 14.94ZM23.6 15.1Q23.392 15.1 23.28 14.996Q23.168 14.892 23.088 14.7L20.816 7.276Q20.784 7.196 20.784 7.116Q20.784 6.972 20.888 6.876Q20.992 6.78 21.12 6.78L21.824 6.78Q22 6.78 22.096 6.876Q22.192 6.972 22.224 7.052L24 13.084L25.904 7.116Q25.936 7.004 26.04 6.892Q26.144 6.78 26.352 6.78L26.896 6.78Q27.104 6.78 27.216 6.892Q27.328 7.004 27.344 7.116L29.248 13.084L31.024 7.052Q31.04 6.972 31.136 6.876Q31.232 6.78 31.408 6.78L32.128 6.78Q32.256 6.78 32.352 6.876Q32.448 6.972 32.448 7.116Q32.448 7.196 32.416 7.276L30.16 14.7Q30.096 14.892 29.984 14.996C29.9093 15.0653 29.792 15.1 29.632 15.1L29.008 15.1Q28.8 15.1 28.664 14.996Q28.528 14.892 28.48 14.7L26.624 8.972L24.768 14.7Q24.704 14.892 24.576 14.996C24.4907 15.0653 24.3733 15.1 24.224 15.1L23.6 15.1ZM17.2 13.396Q16.608 14.028 15.616 14.028Q14.624 14.028 14.024 13.396Q13.424 12.764 13.392 11.548Q13.376 11.308 13.376 10.94Q13.376 10.572 13.392 10.332Q13.424 9.116 14.024 8.484Q14.624 7.852 15.616 7.852Q16.608 7.852 17.2 8.484Q17.792 9.116 17.84 10.332Q17.856 10.572 17.856 10.94Q17.856 11.308 17.84 11.548Q17.792 12.764 17.2 13.396ZM52.8 13.396Q52.208 14.028 51.216 14.028Q50.224 14.028 49.624 13.396Q49.024 12.764 48.992 11.548Q48.976 11.308 48.976 10.94Q48.976 10.572 48.992 10.332Q49.024 9.116 49.624 8.484Q50.224 7.852 51.216 7.852Q52.208 7.852 52.8 8.484Q53.392 9.116 53.44 10.332Q53.456 10.572 53.456 10.94Q53.456 11.308 53.44 11.548Q53.392 12.764 52.8 13.396ZM70.48 13.596Q70 13.964 69.2 13.964Q68.384 13.964 67.904 13.604Q67.424 13.244 67.216 12.66Q67.008 12.076 66.976 11.404Q66.96 10.94 66.976 10.476Q67.008 9.804 67.216 9.22Q67.424 8.636 67.904 8.276Q68.384 7.916 69.2 7.916Q69.968 7.916 70.456 8.268Q70.944 8.62 71.192 9.164Q71.44 9.708 71.456 10.268Q71.472 10.524 71.472 10.884Q71.472 11.244 71.456 11.5Q71.44 12.092 71.2 12.66Q70.96 13.228 70.48 13.596ZM59.648 14.06Q60.304 14.06 60.848 13.78Q61.392 13.5 61.704 12.908Q62.016 12.316 62.016 11.42L62.016 10.972L60.16 11.244Q59.024 11.404 58.448 11.78Q57.872 12.156 57.872 12.732Q57.872 13.18 58.136 13.476Q58.4 13.772 58.808 13.916Q59.216 14.06 59.648 14.06ZM94.144 13.78Q93.6 14.06 92.944 14.06Q92.512 14.06 92.104 13.916Q91.696 13.772 91.432 13.476Q91.168 13.18 91.168 12.732Q91.168 12.156 91.744 11.78Q92.32 11.404 93.456 11.244L95.312 10.972L95.312 11.42Q95.312 12.316 95 12.908Q94.688 13.5 94.144 13.78ZM109.232 13.78Q108.688 14.06 108.032 14.06Q107.6 14.06 107.192 13.916Q106.784 13.772 106.52 13.476Q106.256 13.18 106.256 12.732Q106.256 12.156 106.832 11.78Q107.408 11.404 108.544 11.244L110.4 10.972L110.4 11.42Q110.4 12.316 110.088 12.908Q109.776 13.5 109.232 13.78Z" />
      </g>
      <path d="M0 0L177 0L177 2L0 2L0 0Z" transform="translate(26 205)" id="Rectangle" fill="#000000" fill-rule="evenodd" stroke="none" />
      <path d="M0 0L70 0L70 2L0 2L0 0Z" transform="translate(26 247)" id="Rectangle" fill="#000000" fill-rule="evenodd" stroke="none" />
      <path d="M13.999 0L64.001 0Q64.3447 0 64.6879 0.0168624Q65.0311 0.0337248 65.3731 0.067409Q65.7151 0.101093 66.0551 0.151518Q66.395 0.201943 66.7321 0.268987Q67.0691 0.336031 67.4025 0.419532Q67.7358 0.503034 68.0647 0.602792Q68.3935 0.70255 68.7171 0.818324Q69.0407 0.934099 69.3582 1.06561Q69.6757 1.19712 69.9863 1.34405Q70.297 1.49099 70.6001 1.65298Q70.9032 1.81498 71.1979 1.99166Q71.4927 2.16833 71.7784 2.35926Q72.0642 2.55018 72.3402 2.7549Q72.6162 2.95961 72.8819 3.17763Q73.1475 3.39564 73.4022 3.62642Q73.6568 3.85721 73.8998 4.10021Q74.1428 4.34321 74.3736 4.59785Q74.6044 4.85248 74.8224 5.11813Q75.0404 5.38378 75.2451 5.6598Q75.4498 5.93583 75.6407 6.22157Q75.8317 6.50731 76.0083 6.80207Q76.185 7.09684 76.347 7.39992Q76.509 7.70299 76.6559 8.01366Q76.8029 8.32432 76.9344 8.64181Q77.0659 8.95931 77.1817 9.28288Q77.2974 9.60644 77.3972 9.9353Q77.4969 10.2642 77.5805 10.5975Q77.664 10.9309 77.731 11.2679Q77.798 11.605 77.8485 11.9449Q77.8989 12.2849 77.9326 12.6269Q77.9663 12.9689 77.9831 13.3121Q78 13.6553 78 13.999L78 14.001Q78 14.3447 77.9831 14.6879Q77.9663 15.0311 77.9326 15.3731Q77.8989 15.7151 77.8485 16.0551Q77.798 16.395 77.731 16.7321Q77.664 17.0691 77.5805 17.4025Q77.4969 17.7358 77.3972 18.0647Q77.2974 18.3936 77.1817 18.7171Q77.0659 19.0407 76.9344 19.3582Q76.8029 19.6757 76.6559 19.9863Q76.509 20.297 76.347 20.6001Q76.185 20.9032 76.0083 21.1979Q75.8316 21.4927 75.6407 21.7784Q75.4498 22.0642 75.2451 22.3402Q75.0404 22.6162 74.8224 22.8819Q74.6044 23.1475 74.3736 23.4022Q74.1428 23.6568 73.8998 23.8998Q73.6568 24.1428 73.4022 24.3736Q73.1475 24.6044 72.8819 24.8224Q72.6162 25.0404 72.3402 25.2451Q72.0642 25.4498 71.7784 25.6407Q71.4927 25.8317 71.1979 26.0083Q70.9032 26.185 70.6001 26.347Q70.297 26.509 69.9863 26.6559Q69.6757 26.8029 69.3582 26.9344Q69.0407 27.0659 68.7171 27.1817Q68.3936 27.2974 68.0647 27.3972Q67.7358 27.497 67.4025 27.5805Q67.0691 27.664 66.7321 27.731Q66.395 27.7981 66.0551 27.8485Q65.7151 27.8989 65.3731 27.9326Q65.0311 27.9663 64.6879 27.9831Q64.3447 28 64.001 28L13.999 28Q13.6553 28 13.3121 27.9831Q12.9689 27.9663 12.6269 27.9326Q12.2849 27.8989 11.9449 27.8485Q11.605 27.7981 11.2679 27.731Q10.9309 27.664 10.5975 27.5805Q10.2642 27.497 9.9353 27.3972Q9.60644 27.2974 9.28288 27.1817Q8.95931 27.0659 8.64181 26.9344Q8.32432 26.8029 8.01366 26.6559Q7.70299 26.509 7.39992 26.347Q7.09684 26.185 6.80207 26.0083Q6.50731 25.8317 6.22157 25.6407Q5.93583 25.4498 5.6598 25.2451Q5.38378 25.0404 5.11813 24.8224Q4.85248 24.6044 4.59785 24.3736Q4.34321 24.1428 4.10021 23.8998Q3.85721 23.6568 3.62642 23.4022Q3.39564 23.1475 3.17763 22.8819Q2.95961 22.6162 2.7549 22.3402Q2.55018 22.0642 2.35926 21.7784Q2.16833 21.4927 1.99166 21.1979Q1.81498 20.9032 1.65298 20.6001Q1.49099 20.297 1.34405 19.9863Q1.19712 19.6757 1.06561 19.3582Q0.934099 19.0407 0.818324 18.7171Q0.70255 18.3936 0.602792 18.0647Q0.503034 17.7358 0.419532 17.4025Q0.336031 17.0691 0.268987 16.7321Q0.201943 16.395 0.151518 16.0551Q0.101093 15.7151 0.067409 15.3731Q0.0337248 15.0311 0.0168624 14.6879Q0 14.3447 0 14.001L0 13.999Q0 13.6553 0.0168624 13.3121Q0.0337248 12.9689 0.067409 12.6269Q0.101093 12.2849 0.151518 11.9449Q0.201943 11.605 0.268987 11.2679Q0.336031 10.9309 0.419532 10.5975Q0.503034 10.2642 0.602792 9.9353Q0.70255 9.60644 0.818324 9.28288Q0.934099 8.95931 1.06561 8.64181Q1.19712 8.32432 1.34405 8.01366Q1.49099 7.70299 1.65298 7.39992Q1.81498 7.09684 1.99166 6.80207Q2.16833 6.50731 2.35926 6.22157Q2.55018 5.93583 2.7549 5.6598Q2.95961 5.38378 3.17763 5.11813Q3.39564 4.85248 3.62642 4.59785Q3.85721 4.34321 4.10021 4.10021Q4.34321 3.85721 4.59785 3.62642Q4.85248 3.39564 5.11813 3.17763Q5.38378 2.95961 5.6598 2.7549Q5.93583 2.55018 6.22157 2.35926Q6.50731 2.16833 6.80207 1.99166Q7.09684 1.81498 7.39992 1.65298Q7.70299 1.49099 8.01366 1.34405Q8.32432 1.19712 8.64181 1.06561Q8.95931 0.934099 9.28288 0.818324Q9.60644 0.70255 9.9353 0.602792Q10.2642 0.503034 10.5975 0.419532Q10.9309 0.336031 11.2679 0.268987Q11.605 0.201943 11.9449 0.151518Q12.2849 0.101093 12.6269 0.067409Q12.9689 0.0337248 13.3121 0.0168624Q13.6553 0 13.999 0Z" transform="translate(126 241)" id="Rectangle" fill="#E8E8E8" fill-rule="evenodd" stroke="none" />
      <path d="M0 0L75 0L75 2L0 2L0 0Z" transform="translate(306 391)" id="Rectangle" fill="#000000" fill-rule="evenodd" stroke="none" />
      <path d="M0 0L75 0L75 2L0 2L0 0Z" transform="translate(403 390)" id="Rectangle" fill="#000000" fill-rule="evenodd" stroke="none" />
    </g>
    <g id="Card-2" transform="translate(506.66797 422.80615)">
      <path d="M7.999 0L134.001 0Q134.197 0 134.393 0.00963514Q134.59 0.0192703 134.785 0.0385174Q134.98 0.0577644 135.175 0.0865771Q135.369 0.11539 135.562 0.153699Q135.754 0.192007 135.945 0.23972Q136.135 0.287433 136.323 0.344434Q136.511 0.401436 136.696 0.467589Q136.881 0.533742 137.062 0.608888Q137.243 0.684033 137.421 0.76799Q137.598 0.851946 137.772 0.944512Q137.945 1.03708 138.113 1.13803Q138.282 1.23898 138.445 1.34807Q138.608 1.45717 138.766 1.57414Q138.924 1.69112 139.076 1.81569Q139.227 1.94026 139.373 2.07213Q139.518 2.204 139.657 2.34285Q139.796 2.4817 139.928 2.6272Q140.06 2.7727 140.184 2.92449Q140.309 3.07628 140.426 3.234Q140.543 3.39172 140.652 3.55499Q140.761 3.71826 140.862 3.88669Q140.963 4.05512 141.055 4.2283Q141.148 4.40148 141.232 4.57899Q141.316 4.7565 141.391 4.93791Q141.466 5.11933 141.532 5.30422Q141.599 5.4891 141.656 5.67701Q141.713 5.86492 141.76 6.0554Q141.808 6.24588 141.846 6.43847Q141.885 6.63106 141.913 6.8253Q141.942 7.01954 141.961 7.21496Q141.981 7.41038 141.99 7.60651Q142 7.80264 142 7.999L142 62.001Q142 62.1974 141.99 62.3935Q141.981 62.5896 141.961 62.785Q141.942 62.9805 141.913 63.1747Q141.885 63.3689 141.846 63.5615Q141.808 63.7541 141.76 63.9446Q141.713 64.1351 141.656 64.323Q141.599 64.5109 141.532 64.6958Q141.466 64.8807 141.391 65.0621Q141.316 65.2435 141.232 65.421Q141.148 65.5985 141.055 65.7717Q140.963 65.9449 140.862 66.1133Q140.761 66.2817 140.652 66.445Q140.543 66.6083 140.426 66.766Q140.309 66.9237 140.184 67.0755Q140.06 67.2273 139.928 67.3728Q139.796 67.5183 139.657 67.6571Q139.518 67.796 139.373 67.9279Q139.227 68.0597 139.076 68.1843Q138.924 68.3089 138.766 68.4258Q138.608 68.5428 138.445 68.6519Q138.282 68.761 138.113 68.862Q137.945 68.9629 137.772 69.0555Q137.598 69.148 137.421 69.232Q137.243 69.316 137.062 69.3911Q136.881 69.4662 136.696 69.5324Q136.511 69.5986 136.323 69.6556Q136.135 69.7126 135.945 69.7603Q135.754 69.808 135.562 69.8463Q135.369 69.8846 135.175 69.9134Q134.98 69.9422 134.785 69.9615Q134.59 69.9807 134.393 69.9904Q134.197 70 134.001 70L7.999 70Q7.80264 70 7.60651 69.9904Q7.41038 69.9807 7.21496 69.9615Q7.01954 69.9422 6.8253 69.9134Q6.63106 69.8846 6.43847 69.8463Q6.24588 69.808 6.0554 69.7603Q5.86492 69.7126 5.67701 69.6556Q5.4891 69.5986 5.30422 69.5324Q5.11933 69.4662 4.93791 69.3911Q4.7565 69.316 4.57899 69.232Q4.40148 69.148 4.2283 69.0555Q4.05512 68.9629 3.88669 68.862Q3.71826 68.761 3.55499 68.6519Q3.39172 68.5428 3.234 68.4258Q3.07628 68.3089 2.92449 68.1843Q2.7727 68.0597 2.6272 67.9279Q2.4817 67.796 2.34285 67.6571Q2.204 67.5183 2.07213 67.3728Q1.94026 67.2273 1.81569 67.0755Q1.69112 66.9237 1.57414 66.766Q1.45717 66.6083 1.34807 66.445Q1.23898 66.2817 1.13803 66.1133Q1.03708 65.9449 0.944512 65.7717Q0.851946 65.5985 0.76799 65.421Q0.684033 65.2435 0.608888 65.0621Q0.533742 64.8807 0.467589 64.6958Q0.401436 64.5109 0.344434 64.323Q0.287433 64.1351 0.23972 63.9446Q0.192007 63.7541 0.153699 63.5615Q0.11539 63.3689 0.0865771 63.1747Q0.0577644 62.9805 0.0385174 62.785Q0.0192703 62.5896 0.00963514 62.3935Q0 62.1974 0 62.001L0 7.999Q0 7.80264 0.00963514 7.60651Q0.0192703 7.41038 0.0385174 7.21496Q0.0577644 7.01954 0.0865771 6.8253Q0.11539 6.63106 0.153699 6.43847Q0.192007 6.24588 0.23972 6.0554Q0.287433 5.86492 0.344434 5.67701Q0.401436 5.4891 0.467589 5.30422Q0.533742 5.11933 0.608888 4.93791Q0.684033 4.7565 0.76799 4.57899Q0.851946 4.40148 0.944512 4.2283Q1.03708 4.05512 1.13803 3.88669Q1.23898 3.71826 1.34807 3.55499Q1.45717 3.39172 1.57414 3.234Q1.69112 3.07628 1.81569 2.92449Q1.94026 2.7727 2.07213 2.6272Q2.204 2.4817 2.34285 2.34285Q2.4817 2.204 2.6272 2.07213Q2.7727 1.94026 2.92449 1.81569Q3.07628 1.69112 3.234 1.57414Q3.39172 1.45717 3.55499 1.34807Q3.71826 1.23898 3.88669 1.13803Q4.05512 1.03708 4.2283 0.944512Q4.40148 0.851946 4.57899 0.76799Q4.7565 0.684033 4.93791 0.608888Q5.11933 0.533742 5.30422 0.467589Q5.4891 0.401436 5.67701 0.344434Q5.86492 0.287433 6.0554 0.23972Q6.24588 0.192007 6.43847 0.153699Q6.63106 0.11539 6.8253 0.0865771Q7.01954 0.0577644 7.21496 0.0385174Q7.41038 0.0192703 7.60651 0.00963514Q7.80264 0 7.999 0Z" id="Rectangle" fill="#FFFFFF" fill-rule="evenodd" stroke="none" filter="url(#filter_1)" />
      <g id="Contact-the-customer" transform="translate(30 15)">
        <g id="Contact" fill-opacity="0.7040681">
          <path d="M27.03 11.9482Q26.8323 13.6401 25.7813 14.5593Q24.7302 15.4785 22.9871 15.4785Q21.0974 15.4785 19.9585 14.1235Q18.8196 12.7686 18.8196 10.498L18.8196 9.47266Q18.8196 7.98584 19.3506 6.85791Q19.8816 5.72998 20.8557 5.12573Q21.8298 4.52148 23.1116 4.52148Q24.8108 4.52148 25.8362 5.46997Q26.8616 6.41846 27.03 8.0957L25.6165 8.0957Q25.4333 6.8174 24.8218 6.24439Q24.2102 5.67139 23.1116 5.67139Q21.7639 5.67139 20.9985 6.66834Q20.2332 7.66529 20.2332 9.50516L20.2332 10.5388Q20.2332 12.2761 20.9583 13.3024Q21.6833 14.3286 22.9871 14.3286Q24.1589 14.3286 24.7852 13.7976Q25.4114 13.2666 25.6165 11.9482L27.03 11.9482ZM47.406 5.48828L47.406 7.40723L48.8855 7.40723L48.8855 8.45459L47.406 8.45459L47.406 13.3753Q47.406 13.852 47.6038 14.0903Q47.8015 14.3286 48.2776 14.3286Q48.512 14.3286 48.9221 14.2407L48.9221 15.3329Q48.3875 15.4785 47.8821 15.4785Q46.9739 15.4785 46.5125 14.9292Q46.051 14.3799 46.051 13.3691L46.051 8.45459L44.6082 8.45459L44.6082 7.40723L46.051 7.40723L46.051 5.48828L47.406 5.48828ZM68.3167 7.40723L68.3167 5.48828L66.9617 5.48828L66.9617 7.40723L65.5188 7.40723L65.5188 8.45459L66.9617 8.45459L66.9617 13.3691Q66.9617 14.3799 67.4231 14.9292Q67.8845 15.4785 68.7927 15.4785Q69.2981 15.4785 69.8328 15.3329L69.8328 14.2407Q69.4226 14.3286 69.1882 14.3286Q68.7122 14.3286 68.5144 14.0903Q68.3167 13.852 68.3167 13.3753L68.3167 8.45459L69.7961 8.45459L69.7961 7.40723L68.3167 7.40723ZM28.3777 11.2964Q28.3777 10.1318 28.8354 9.20166Q29.2932 8.27148 30.1099 7.76611Q30.9265 7.26074 31.9739 7.26074Q33.5925 7.26074 34.5923 8.38135Q35.592 9.50195 35.592 11.3623L35.592 11.4575Q35.592 12.6147 35.1489 13.5339Q34.7058 14.4531 33.8818 14.9658Q33.0579 15.4785 31.9885 15.4785Q30.3772 15.4785 29.3774 14.3579Q28.3777 13.2373 28.3777 11.3916L28.3777 11.2964ZM38.6169 8.40332L38.573 7.40723L37.2913 7.40723L37.2913 15.332L38.6462 15.332L38.6462 9.68506Q38.9246 9.11377 39.4226 8.76221Q39.9207 8.41065 40.5798 8.41064Q41.3928 8.41065 41.7773 8.8208Q42.1619 9.23096 42.1692 10.0879L42.1692 15.332L43.5242 15.332L43.5242 10.0952Q43.5022 7.26074 40.99 7.26074Q39.5251 7.26074 38.6169 8.40332ZM55.1697 14.4971Q55.2429 15.0977 55.3601 15.332L56.781 15.332L56.781 15.2148Q56.5027 14.5703 56.5027 13.479L56.5027 9.83154Q56.4734 8.63037 55.697 7.94556Q54.9207 7.26074 53.551 7.26074Q52.6868 7.26074 51.9653 7.58301Q51.2439 7.90527 50.8228 8.45825Q50.4016 9.01123 50.4016 9.60449L51.7639 9.60449Q51.7639 9.08447 52.2546 8.71826Q52.7454 8.35205 53.4705 8.35205Q54.2981 8.35205 54.7229 8.77319Q55.1477 9.19434 55.1477 9.90479L55.1477 10.5273L53.8293 10.5273Q52.1228 10.5273 51.1816 11.2122Q50.2405 11.897 50.2405 13.1348Q50.2405 14.1528 50.9912 14.8157Q51.7419 15.4785 52.9138 15.4785Q54.2249 15.4785 55.1697 14.4971ZM61.8054 14.3726Q62.5305 14.3726 63.0725 13.9331Q63.6145 13.4937 63.6731 12.8345L64.9548 12.8345Q64.9182 13.5156 64.4861 14.1309Q64.054 14.7461 63.3325 15.1123Q62.6111 15.4785 61.8054 15.4785Q60.1868 15.4785 59.231 14.3982Q58.2751 13.3179 58.2751 11.4429L58.2751 11.2158Q58.2751 10.0586 58.7 9.15771Q59.1248 8.25684 59.9194 7.75879Q60.7141 7.26074 61.7981 7.26074Q63.1311 7.26074 64.0137 8.05908Q64.8962 8.85742 64.9548 10.1318L63.6731 10.1318Q63.6145 9.36279 63.0908 8.86841Q62.5671 8.37402 61.7981 8.37402Q60.7654 8.37402 60.1978 9.11743Q59.6301 9.86084 59.6301 11.2671L59.6301 11.5234Q59.6301 12.8931 60.1941 13.6328Q60.7581 14.3726 61.8054 14.3726ZM29.74 11.4575Q29.74 12.7759 30.3516 13.5742Q30.9631 14.3726 31.9885 14.3726Q33.0212 14.3726 33.6292 13.5632Q34.2371 12.7539 34.2371 11.2964Q34.2371 9.99268 33.6182 9.18335Q32.9993 8.37402 31.9739 8.37402Q30.9705 8.37402 30.3552 9.17236Q29.74 9.9707 29.74 11.4575ZM54.3201 13.9697Q53.7488 14.2993 53.1116 14.2993Q52.4451 14.2993 52.0203 13.9404Q51.5955 13.5815 51.5955 12.9443Q51.5955 11.4868 54.0857 11.4868L55.1477 11.4868L55.1477 13.1128Q54.8914 13.6401 54.3201 13.9697Z" />
        </g>
        <g id="the-customer" fill-opacity="0.7040681">
          <path d="M7.28027 28.3667Q8.18115 27.2607 9.62402 27.2607Q12.1362 27.2607 12.1582 30.0952L12.1582 35.332L10.8032 35.332L10.8032 30.0879Q10.7959 29.231 10.4114 28.8208Q10.0269 28.4106 9.21387 28.4106Q8.55469 28.4106 8.05664 28.7622Q7.55859 29.1138 7.28027 29.6851L7.28027 35.332L5.92529 35.332L5.92529 24.082L7.28027 24.082L7.28027 28.3667ZM2.86377 25.4883L2.86377 27.4072L4.34326 27.4072L4.34326 28.4546L2.86377 28.4546L2.86377 33.3753Q2.86377 33.852 3.06152 34.0903Q3.25928 34.3286 3.73535 34.3286Q3.96973 34.3286 4.37988 34.2407L4.37988 35.3329Q3.84521 35.4785 3.33984 35.4785Q2.43164 35.4785 1.97021 34.9292Q1.50879 34.3799 1.50879 33.3691L1.50879 28.4546L0.065918 28.4546L0.065918 27.4072L1.50879 27.4072L1.50879 25.4883L2.86377 25.4883ZM51.5405 27.4072L51.5405 25.4883L50.1855 25.4883L50.1855 27.4072L48.7427 27.4072L48.7427 28.4546L50.1855 28.4546L50.1855 33.3691Q50.1855 34.3799 50.647 34.9292Q51.1084 35.4785 52.0166 35.4785Q52.522 35.4785 53.0566 35.3329L53.0566 34.2407Q52.6465 34.3286 52.4121 34.3286Q51.936 34.3286 51.7383 34.0903Q51.5405 33.852 51.5405 33.3753L51.5405 28.4546L53.02 28.4546L53.02 27.4072L51.5405 27.4072ZM14.8535 34.4202Q15.8643 35.4785 17.4756 35.4785Q19.4678 35.4785 20.4639 33.9478L19.6362 33.3032Q19.2627 33.7866 18.7646 34.0796Q18.2666 34.3726 17.5488 34.3726Q16.5381 34.3726 15.8826 33.6511Q15.2271 32.9297 15.1978 31.7578L20.5664 31.7578L20.5664 31.1938Q20.5664 29.2969 19.7095 28.2788Q18.8525 27.2607 17.3071 27.2607Q16.3623 27.2607 15.553 27.7844Q14.7437 28.3081 14.2932 29.2346Q13.8428 30.1611 13.8428 31.3403L13.8428 31.5894Q13.8428 33.3618 14.8535 34.4202ZM29.0259 34.3726Q29.751 34.3726 30.293 33.9331Q30.835 33.4937 30.8936 32.8345L32.1753 32.8345Q32.1387 33.5156 31.7065 34.1309Q31.2744 34.7461 30.553 35.1123Q29.8315 35.4785 29.0259 35.4785Q27.4072 35.4785 26.4514 34.3982Q25.4956 33.3179 25.4956 31.4429L25.4956 31.2158Q25.4956 30.0586 25.9204 29.1577Q26.3452 28.2568 27.1399 27.7588Q27.9346 27.2607 29.0186 27.2607Q30.3516 27.2607 31.2341 28.0591Q32.1167 28.8574 32.1753 30.1318L30.8936 30.1318Q30.835 29.3628 30.3113 28.8684Q29.7876 28.374 29.0186 28.374Q27.9858 28.374 27.4182 29.1174Q26.8506 29.8608 26.8506 31.2671L26.8506 31.5234Q26.8506 32.8931 27.4146 33.6328Q27.9785 34.3726 29.0259 34.3726ZM46.582 33.23Q46.582 32.6807 46.1682 32.3767Q45.7544 32.0728 44.7253 31.853Q43.6963 31.6333 43.092 31.3257Q42.4878 31.0181 42.1985 30.5933Q41.9092 30.1685 41.9092 29.5825Q41.9092 28.6084 42.7332 27.9346Q43.5571 27.2607 44.8389 27.2607Q46.1865 27.2607 47.0251 27.9565Q47.8638 28.6523 47.8638 29.7363L46.5015 29.7363Q46.5015 29.1797 46.0291 28.7769Q45.5566 28.374 44.8389 28.374Q44.0991 28.374 43.6816 28.6963Q43.2642 29.0186 43.2642 29.5386Q43.2642 30.0293 43.6523 30.2783Q44.0405 30.5273 45.0549 30.7544Q46.0693 30.9814 46.6992 31.2964Q47.3291 31.6113 47.6331 32.0544Q47.937 32.4976 47.937 33.1348Q47.937 34.1968 47.0874 34.8376Q46.2378 35.4785 44.8828 35.4785Q43.9307 35.4785 43.1982 35.1416Q42.4658 34.8047 42.052 34.2004Q41.6382 33.5962 41.6382 32.8931L42.9932 32.8931Q43.0298 33.5742 43.5388 33.9734Q44.0479 34.3726 44.8828 34.3726Q45.6519 34.3726 46.1169 34.0613Q46.582 33.75 46.582 33.23ZM54.2432 31.2964Q54.2432 30.1318 54.7009 29.2017Q55.1587 28.2715 55.9753 27.7661Q56.792 27.2607 57.8394 27.2607Q59.458 27.2607 60.4578 28.3813Q61.4575 29.502 61.4575 31.3623L61.4575 31.4575Q61.4575 32.6147 61.0144 33.5339Q60.5713 34.4531 59.7473 34.9658Q58.9233 35.4785 57.854 35.4785Q56.2427 35.4785 55.2429 34.3579Q54.2432 33.2373 54.2432 31.3916L54.2432 31.2964ZM64.4678 28.2861L64.4312 27.4072L63.1494 27.4072L63.1494 35.332L64.5044 35.332L64.5044 29.5459Q64.9951 28.4106 66.3281 28.4106Q68.02 28.4106 68.02 30.1392L68.02 35.332L69.3823 35.332L69.3823 30.0732Q69.4629 29.3115 69.9609 28.8611Q70.459 28.4106 71.2134 28.4106Q72.1289 28.4106 72.5171 28.8318Q72.9053 29.2529 72.9053 30.1025L72.9053 35.332L74.2603 35.332L74.2603 30.022Q74.2163 27.2607 71.6089 27.2607Q70.7446 27.2607 70.1111 27.6123Q69.4775 27.9639 69.082 28.5352Q68.4814 27.2607 66.8188 27.2607Q65.3394 27.2607 64.4678 28.2861ZM79.5923 35.4785Q77.981 35.4785 76.9702 34.4202Q75.9595 33.3618 75.9595 31.5894L75.9595 31.3403Q75.9595 30.1611 76.4099 29.2346Q76.8604 28.3081 77.6697 27.7844Q78.479 27.2607 79.4238 27.2607Q80.9692 27.2607 81.8262 28.2788Q82.6831 29.2969 82.6831 31.1938L82.6831 31.7578L77.3145 31.7578Q77.3438 32.9297 77.9993 33.6511Q78.6548 34.3726 79.6655 34.3726Q80.3833 34.3726 80.8813 34.0796Q81.3794 33.7866 81.7529 33.3032L82.5806 33.9478Q81.5845 35.4785 79.5923 35.4785ZM87.4146 28.5718Q87.7734 28.5718 88.0811 28.623L88.0811 27.3633Q87.876 27.2607 87.4805 27.2607Q86.2573 27.2607 85.5908 28.3228L85.5688 27.4072L84.2505 27.4072L84.2505 35.332L85.6055 35.332L85.6055 29.707Q86.0815 28.5718 87.4146 28.5718ZM36.2695 35.4785Q37.8003 35.4785 38.5913 34.5483L38.6206 35.332L39.9097 35.332L39.9097 27.4072L38.5547 27.4072L38.5547 33.1714Q38.042 34.3286 36.4893 34.3286Q35.0244 34.3286 35.0244 32.5269L35.0244 27.4072L33.6694 27.4072L33.6694 32.5635Q33.6768 34.0063 34.3396 34.7424Q35.0024 35.4785 36.2695 35.4785ZM15.9302 28.9709Q16.4868 28.374 17.3071 28.374Q18.1567 28.374 18.6548 28.9417Q19.1528 29.5093 19.2114 30.542L19.2114 30.6445L15.2417 30.6445Q15.3735 29.5679 15.9302 28.9709ZM55.6055 31.4575Q55.6055 32.7759 56.217 33.5742Q56.8286 34.3726 57.854 34.3726Q58.8867 34.3726 59.4946 33.5632Q60.1025 32.7539 60.1025 31.2964Q60.1025 29.9927 59.4836 29.1833Q58.8647 28.374 57.8394 28.374Q56.8359 28.374 56.2207 29.1724Q55.6055 29.9707 55.6055 31.4575ZM79.4238 28.374Q78.6035 28.374 78.0469 28.9709Q77.4902 29.5679 77.3584 30.6445L81.3281 30.6445L81.3281 30.542Q81.2695 29.5093 80.7715 28.9417Q80.2734 28.374 79.4238 28.374Z" />
        </g>
      </g>
    </g>
  </g>
</svg>