<?xml version="1.0" encoding="utf-8"?>
<svg width="83px" height="102px" viewBox="0 0 83 102" version="1.1" xmlns:xlink="http://www.w3.org/1999/xlink" xmlns="http://www.w3.org/2000/svg">
  <g id="Group-15">
    <path d="M0.571879 101.403L0.601616 101.97L82.1012 97.9785L82.1012 0L0 4.02151L0 102L0.601616 101.97L0.571879 101.403L1.14376 101.403L1.14376 5.10238L80.9574 1.19442L80.9574 96.8976L0.544429 100.835L0.571879 101.403L1.14376 101.403L0.571879 101.403" id="Fill-60" fill="#150A0A" fill-rule="evenodd" stroke="none" />
    <path d="M0.0544581 5L64.079 1.32135L64.0223 0L0 3.67865" transform="translate(7.008667 35)" id="Fill-61" fill="#150A0A" fill-rule="evenodd" stroke="none" />
    <path d="M65.5061 14.9549L65.4762 14.3435L1.1506 17.7161L1.1506 4.632L64.9308 1.28639L64.9308 14.9549L65.5061 14.9549L65.4762 14.3435L65.5061 14.9549L66.0815 14.9549L66.0815 0L0 3.46789L0 19L66.0815 15.537L66.0815 14.9549L65.5061 14.9549" transform="translate(6.0074463 10)" id="Fill-62" fill="#150A0A" fill-rule="evenodd" stroke="none" />
    <path d="M0.0544581 5L64.079 1.31941L64.0223 0L0 3.68059" transform="translate(7.008667 47)" id="Fill-63" fill="#150A0A" fill-rule="evenodd" stroke="none" />
    <path d="M0.0544581 5L64.079 1.31871L64.0223 0L0 3.67865" transform="translate(7.008667 58)" id="Fill-64" fill="#150A0A" fill-rule="evenodd" stroke="none" />
    <path d="M0.0544581 5L64.079 1.32135L64.0223 0L0 3.67865" transform="translate(7.008667 66)" id="Fill-65" fill="#150A0A" fill-rule="evenodd" stroke="none" />
    <path d="M0.0544581 5L64.079 1.32135L64.0223 0L0 3.68129" transform="translate(7.008667 78)" id="Fill-66" fill="#150A0A" fill-rule="evenodd" stroke="none" />
  </g>
</svg>