<?xml version="1.0" encoding="utf-8"?>
<svg width="247px" height="232px" viewBox="0 0 247 232" version="1.1" xmlns:xlink="http://www.w3.org/1999/xlink" xmlns="http://www.w3.org/2000/svg">
  <defs>
    <path d="M0 0L241.418 0L241.418 207.818L0 207.818L0 0Z" transform="translate(0 0.18227121)" id="path_1" />
    <path d="M0 0L134.725 0L134.725 128.207L0 128.207L0 0Z" transform="translate(0.69895416 0.7932408)" id="path_2" />
    <clipPath id="mask_1">
      <use xlink:href="#path_1" />
    </clipPath>
    <clipPath id="mask_2">
      <use xlink:href="#path_2" />
    </clipPath>
  </defs>
  <g id="Icon" transform="translate(2.5 2.5)">
    <g id="Group-5" transform="translate(0 19.000002)">
      <path d="M0 0L241.418 0L241.418 207.818L0 207.818L0 0Z" transform="translate(0 0.18227121)" id="Clip-4" fill="none" fill-rule="evenodd" stroke="none" />
      <g clip-path="url(#mask_1)">
        <path d="M105.772 207.819C18.2464 207.819 4.00107 143.777 0.177057 87.319C-4.36054 20.3145 79.5598 -29.3712 109.274 19.916C148.504 84.9872 241.418 21.88 241.418 79.4325" transform="translate(-0.00041311843 0.18227121)" id="Fill-3" fill="#FFFFFF" fill-rule="evenodd" stroke="none" />
      </g>
    </g>
    <g id="Group-8" transform="translate(106.00002 98.000015)">
      <path d="M0 0L134.725 0L134.725 128.207L0 128.207L0 0Z" transform="translate(0.69895416 0.7932408)" id="Clip-7" fill="none" fill-rule="evenodd" stroke="none" />
      <g clip-path="url(#mask_2)">
        <path d="M134.725 0C134.725 57.475 57.1468 128.209 0 128.209" transform="translate(0.69895416 0.7932408)" id="Fill-6" fill="#FFFFFF" fill-rule="evenodd" stroke="none" />
      </g>
    </g>
    <path d="M132.731 20.8863L103.466 127.358C102.299 131.604 97.6727 134.54 93.1407 133.916L6.36764 121.935C1.83568 121.309 -0.89624 117.355 0.268618 113.112L29.5351 6.64004C30.7022 2.39452 35.3286 -0.542009 39.8606 0.0841298L126.634 12.0637C131.166 12.6898 133.898 16.643 132.731 20.8863" transform="translate(83.00002 14.000002)" id="Fill-9" fill="#FFFFFF" fill-rule="evenodd" stroke="none" />
    <path d="M39.1658 1.16827C35.3182 1.16827 31.6417 3.76341 30.6518 7.36741L1.42671 113.709C0.919686 115.548 1.19185 117.387 2.19053 118.893C3.2397 120.475 4.9605 121.504 7.02809 121.787L93.6849 133.754C97.9343 134.362 102.258 131.594 103.347 127.631L132.574 21.291C133.079 19.4519 132.809 17.6107 131.808 16.105C130.759 14.5253 129.04 13.4968 126.971 13.2114L40.3138 1.24671C39.9318 1.19224 39.5477 1.16827 39.1658 1.16827M94.8197 135C94.3873 135 93.9549 134.97 93.5225 134.911L6.86567 122.944C4.45787 122.613 2.44734 121.401 1.20941 119.536C0.0197773 117.749 -0.305068 115.568 0.291945 113.4L29.517 7.06018C30.755 2.55409 35.6671 -0.57054 40.4762 0.0875063L127.133 12.0522C129.543 12.3856 131.551 13.5992 132.789 15.4644C133.979 17.2512 134.304 19.4301 133.711 21.5982L104.482 127.938C103.356 132.041 99.1832 135 94.8197 135" transform="translate(82.00002 13.000002)" id="Fill-13" fill="#000000" fill-rule="evenodd" stroke="none" />
    <g id="Manage-Ticket" transform="matrix(0.99026805 0.1391731 -0.1391731 0.99026805 102.09345 74.28063)">
      <g id="Manage-">
        <path d="M21.168 13.5938L17.4492 4.3125L15.5117 4.3125L15.5117 15.6875L17.0117 15.6875L17.0117 11.2578L16.8633 6.5L20.5898 15.6875L21.7383 15.6875L25.4727 6.47656L25.332 11.2578L25.332 15.6875L26.832 15.6875L26.832 4.3125L24.8867 4.3125L21.168 13.5938ZM34.2695 14.7969Q34.3477 15.4375 34.4727 15.6875L35.9883 15.6875L35.9883 15.5625Q35.6914 14.875 35.6914 13.7109L35.6914 9.82031Q35.6602 8.53906 34.832 7.80859Q34.0039 7.07813 32.543 7.07813Q31.6211 7.07813 30.8516 7.42188Q30.082 7.76563 29.6328 8.35547Q29.1836 8.94531 29.1836 9.57813L30.6367 9.57813Q30.6367 9.02344 31.1602 8.63281Q31.6836 8.24219 32.457 8.24219Q33.3398 8.24219 33.793 8.69141Q34.2461 9.14063 34.2461 9.89844L34.2461 10.5625L32.8398 10.5625Q31.0195 10.5625 30.0156 11.293Q29.0117 12.0234 29.0117 13.3438Q29.0117 14.4297 29.8125 15.1367Q30.6133 15.8438 31.8633 15.8438Q33.2617 15.8438 34.2695 14.7969ZM39.3242 7.23438L39.3711 8.29688Q40.3398 7.07813 41.9023 7.07813Q44.582 7.07813 44.6055 10.1016L44.6055 15.6875L43.1602 15.6875L43.1602 10.0938Q43.1523 9.17969 42.7422 8.74219Q42.332 8.30469 41.4648 8.30469Q40.7617 8.30469 40.2305 8.67969Q39.6992 9.05469 39.4023 9.66406L39.4023 15.6875L37.957 15.6875L37.957 7.23438L39.3242 7.23438ZM51.8008 14.7969Q51.8789 15.4375 52.0039 15.6875L53.5195 15.6875L53.5195 15.5625Q53.2227 14.875 53.2227 13.7109L53.2227 9.82031Q53.1914 8.53906 52.3633 7.80859Q51.5352 7.07813 50.0742 7.07813Q49.1523 7.07813 48.3828 7.42188Q47.6133 7.76563 47.1641 8.35547Q46.7148 8.94531 46.7148 9.57813L48.168 9.57813Q48.168 9.02344 48.6914 8.63281Q49.2148 8.24219 49.9883 8.24219Q50.8711 8.24219 51.3242 8.69141Q51.7773 9.14063 51.7773 9.89844L51.7773 10.5625L50.3711 10.5625Q48.5508 10.5625 47.5469 11.293Q46.543 12.0234 46.543 13.3438Q46.543 14.4297 47.3438 15.1367Q48.1445 15.8438 49.3945 15.8438Q50.793 15.8438 51.8008 14.7969ZM55.1445 11.3906Q55.1445 9.41406 56.0586 8.24609Q56.9727 7.07813 58.4805 7.07813Q60.0273 7.07813 60.8945 8.17188L60.9648 7.23438L62.2852 7.23438L62.2852 15.4844Q62.2852 17.125 61.3125 18.0703Q60.3398 19.0156 58.6992 19.0156Q57.7852 19.0156 56.9102 18.625Q56.0352 18.2344 55.5742 17.5547L56.3242 16.6875Q57.2539 17.8359 58.5977 17.8359Q59.6523 17.8359 60.2422 17.2422Q60.832 16.6484 60.832 15.5703L60.832 14.8438Q59.9648 15.8438 58.4648 15.8438Q56.9805 15.8438 56.0625 14.6484Q55.1445 13.4531 55.1445 11.3906ZM65.1758 14.7148Q66.2539 15.8438 67.9727 15.8438Q70.0977 15.8438 71.1602 14.2109L70.2773 13.5234Q69.8789 14.0391 69.3477 14.3516Q68.8164 14.6641 68.0508 14.6641Q66.9727 14.6641 66.2734 13.8945Q65.5742 13.125 65.543 11.875L71.2695 11.875L71.2695 11.2734Q71.2695 9.25 70.3555 8.16406Q69.4414 7.07813 67.793 7.07813Q66.7852 7.07813 65.9219 7.63672Q65.0586 8.19531 64.5781 9.18359Q64.0977 10.1719 64.0977 11.4297L64.0977 11.6953Q64.0977 13.5859 65.1758 14.7148ZM66.3242 8.90234Q66.918 8.26563 67.793 8.26563Q68.6992 8.26563 69.2305 8.87109Q69.7617 9.47656 69.8242 10.5781L69.8242 10.6875L65.5898 10.6875Q65.7305 9.53906 66.3242 8.90234ZM56.5977 11.5547Q56.5977 12.9844 57.1836 13.8008Q57.7695 14.6172 58.8242 14.6172Q60.1914 14.6172 60.832 13.375L60.832 9.51563Q60.168 8.30469 58.8398 8.30469Q57.7852 8.30469 57.1914 9.125Q56.5977 9.94531 56.5977 11.5547ZM33.3633 14.2344Q32.7539 14.5859 32.0742 14.5859Q31.3633 14.5859 30.9102 14.2031Q30.457 13.8203 30.457 13.1406Q30.457 11.5859 33.1133 11.5859L34.2461 11.5859L34.2461 13.3203Q33.9727 13.8828 33.3633 14.2344ZM50.8945 14.2344Q50.2852 14.5859 49.6055 14.5859Q48.8945 14.5859 48.4414 14.2031Q47.9883 13.8203 47.9883 13.1406Q47.9883 11.5859 50.6445 11.5859L51.7773 11.5859L51.7773 13.3203Q51.5039 13.8828 50.8945 14.2344Z" />
      </g>
      <g id="Ticket">
        <path d="M47.543 32.7188L48.4492 31.7734L51.3945 35.6875L53.0898 35.6875L49.418 30.7656L52.707 27.2344L50.9492 27.2344L48.3164 30.0156L47.543 30.9453L47.543 23.6875L46.0977 23.6875L46.0977 35.6875L47.543 35.6875L47.543 32.7188ZM34.0547 24.3984Q33.8398 24.6406 33.8398 24.9922Q33.8398 25.3438 34.0547 25.5781Q34.2695 25.8125 34.6914 25.8125Q35.1133 25.8125 35.332 25.5781Q35.5508 25.3438 35.5508 24.9922Q35.5508 24.6406 35.332 24.3984Q35.1133 24.1563 34.6914 24.1563Q34.2695 24.1563 34.0547 24.3984ZM28.7148 25.5391L32.3711 25.5391L32.3711 24.3125L23.5742 24.3125L23.5742 25.5391L27.2227 25.5391L27.2227 35.6875L28.7148 35.6875L28.7148 25.5391ZM64.6367 27.2344L64.6367 25.1875L63.1914 25.1875L63.1914 27.2344L61.6523 27.2344L61.6523 28.3516L63.1914 28.3516L63.1914 33.5938Q63.1914 34.6719 63.6836 35.2578Q64.1758 35.8438 65.1445 35.8438Q65.6836 35.8438 66.2539 35.6885L66.2539 34.5234Q65.8164 34.6172 65.5664 34.6172Q65.0586 34.6172 64.8477 34.363Q64.6367 34.1088 64.6367 33.6003L64.6367 28.3516L66.2148 28.3516L66.2148 27.2344L64.6367 27.2344ZM41.1055 34.6641Q41.8789 34.6641 42.457 34.1953Q43.0352 33.7266 43.0977 33.0234L44.4648 33.0234Q44.4258 33.75 43.9648 34.4063Q43.5039 35.0625 42.7344 35.4531Q41.9648 35.8438 41.1055 35.8438Q39.3789 35.8438 38.3594 34.6914Q37.3398 33.5391 37.3398 31.5391L37.3398 31.2969Q37.3398 30.0625 37.793 29.1016Q38.2461 28.1406 39.0938 27.6094Q39.9414 27.0781 41.0977 27.0781Q42.5195 27.0781 43.4609 27.9297Q44.4023 28.7813 44.4648 30.1406L43.0977 30.1406Q43.0352 29.3203 42.4766 28.793Q41.918 28.2656 41.0977 28.2656Q39.9961 28.2656 39.3906 29.0586Q38.7852 29.8516 38.7852 31.3516L38.7852 31.625Q38.7852 33.0859 39.3867 33.875Q39.9883 34.6641 41.1055 34.6641ZM57.707 35.8438Q55.9883 35.8438 54.9102 34.7148Q53.832 33.5859 53.832 31.6953L53.832 31.4297Q53.832 30.1719 54.3125 29.1836Q54.793 28.1953 55.6563 27.6367Q56.5195 27.0781 57.5273 27.0781Q59.1758 27.0781 60.0898 28.1641Q61.0039 29.25 61.0039 31.2734L61.0039 31.875L55.2773 31.875Q55.3086 33.125 56.0078 33.8945Q56.707 34.6641 57.7852 34.6641Q58.5508 34.6641 59.082 34.3516Q59.6133 34.0391 60.0117 33.5234L60.8945 34.2109Q59.832 35.8438 57.707 35.8438ZM33.957 35.6875L35.4023 35.6875L35.4023 27.2344L33.957 27.2344L33.957 35.6875ZM57.5273 28.2656Q56.6523 28.2656 56.0586 28.9023Q55.4648 29.5391 55.3242 30.6875L59.5586 30.6875L59.5586 30.5781Q59.4961 29.4766 58.9648 28.8711Q58.4336 28.2656 57.5273 28.2656Z" />
      </g>
    </g>
    <path d="M25.5 51C39.5833 51 51 39.5833 51 25.5C51 11.4167 39.5833 0 25.5 0C11.4167 0 0 11.4167 0 25.5C0 39.5833 11.4167 51 25.5 51Z" transform="translate(188.00005 0)" id="Oval" fill="#E96363" fill-rule="evenodd" stroke="#FFFFFF" stroke-width="5" />
    <g id="Mr-x" transform="matrix(0.98768836 0.15643448 -0.15643448 0.98768836 142.62347 27.019054)">
      <path d="M4.07227 4.89063L8.7207 16.4922L13.3691 4.89063L15.8008 4.89063L15.8008 19.1094L13.9258 19.1094L13.9258 13.5723L14.1016 7.5957L9.43359 19.1094L7.99805 19.1094L3.33984 7.625L3.52539 13.5723L3.52539 19.1094L1.65039 19.1094L1.65039 4.89063L4.07227 4.89063ZM23.9355 10.1641Q23.5254 10.0957 23.0469 10.0957Q21.2695 10.0957 20.6348 11.6094L20.6348 19.1094L18.8281 19.1094L18.8281 8.54297L20.5859 8.54297L20.6152 9.76367Q21.5039 8.34766 23.1348 8.34766Q23.6621 8.34766 23.9355 8.48438L23.9355 10.1641ZM36.4355 8.54297L34.0918 12.4004L31.7773 8.54297L29.6875 8.54297L33.1445 13.7676L29.5801 19.1094L31.6797 19.1094L34.1211 15.1543L36.5625 19.1094L38.6523 19.1094L35.0879 13.7676L38.5449 8.54297L36.4355 8.54297Z" />
    </g>
    <path d="M6.98165 22.8848C7.89865 20.8207 8.81351 18.7566 10.4103 14.5714C12.0027 10.3862 14.2749 4.08211 16.2115 1.43016C16.9041 0.482571 17.5539 0 18.1118 0C19.1164 0 19.8261 1.55081 19.9714 4.7248C20.1959 9.66677 19.0459 18.5483 18.3426 24.8261C17.6437 31.1039 17.3914 34.7736 14.7366 36.2323C13.7705 36.7631 12.4879 37 11.1028 37C8.67457 37 5.93212 36.2718 4.0233 35.1114C1.02648 33.2864 0.0945205 30.3954 0.00688165 26.5962C-0.0807572 22.7993 0.673792 18.0964 1.97769 17.3265C2.11021 17.2453 2.25129 17.208 2.39664 17.208C3.66206 17.208 5.32079 20.0464 6.98165 22.8848" transform="translate(188.00005 80.00001)" id="Fill-31" fill="#FFFFFF" fill-rule="evenodd" stroke="none" />
    <path d="M2.9304 18.2707C2.87507 18.2707 2.82824 18.2838 2.77929 18.3123C1.91946 18.824 0.991515 22.7558 1.09155 27.0595C1.18732 31.1444 2.30468 33.5411 4.82672 35.0806C7.68717 36.8301 12.727 37.4205 14.9596 36.1872C17.1986 34.956 17.5561 31.702 18.1521 26.3094L18.5862 22.4562C19.2503 16.6743 20.0739 9.47759 19.8866 5.29205C19.7547 2.40767 19.1353 1.11527 18.5777 1.11527C18.4011 1.11527 17.9094 1.23117 17.1177 2.31801C15.4385 4.62071 13.4123 9.98711 11.9331 13.9059L11.4117 15.2879C9.81122 19.4909 8.88328 21.5815 7.98726 23.6021L7.5616 24.5665L7.02314 23.6459C5.6972 21.376 3.87963 18.2707 2.9304 18.2707M11.5969 38C9.06418 38 6.25482 37.2499 4.27124 36.0384C1.42569 34.3043 0.110396 31.5424 0.00610866 27.0857C-0.0705104 23.6371 0.567982 18.3363 2.24083 17.3457C2.45579 17.221 2.68778 17.1576 2.9304 17.1576C4.34573 17.1576 5.79085 19.4013 7.42751 22.1785C8.19796 20.4247 9.06205 18.3997 10.4029 14.8812L10.9243 13.5035C12.5078 9.30264 14.4807 4.07401 16.2493 1.64666C17.0475 0.555447 17.8307 0 18.5777 0C19.5589 0 20.7741 0.909708 20.9721 5.24176C21.1636 9.51914 20.3314 16.7662 19.6631 22.5874L19.229 26.4362C18.5947 32.1897 18.2138 35.6623 15.4725 37.1712C14.485 37.7135 13.1441 38 11.5969 38" transform="translate(187.00005 80.00001)" id="Fill-33" fill="#000000" fill-rule="evenodd" stroke="none" />
    <path d="M38.7766 161C24.1286 161 7.3322 155.503 1.96461 141.674C-1.90241 131.583 0.289558 117.024 5.48703 103.496C7.84912 97.2254 10.8982 91.1724 14.292 85.8455C14.7653 85.03 15.3236 84.2145 15.8383 83.484C24.3009 63.428 33.3217 43.9323 48.7418 30.3196C65.6669 15.4182 90.3238 7.7298 114.981 0L118.889 11.6808C109.783 15.6319 100.675 19.5415 92.3434 24.4366C85.641 28.3877 79.4555 32.9405 74.0858 38.564C66.2252 46.852 60.212 57.46 54.9273 68.9686C60.8991 71.7596 66.7836 75.9679 72.4543 80.3485C75.3748 82.6249 78.2538 84.9013 81.0891 87.1341C92.6008 96.1962 103.726 104.698 116.27 108.35C121.123 109.809 126.235 110.452 131.26 110.452C142.342 110.452 153.169 107.147 160.772 101.22C171.81 92.5461 176.063 78.2879 180.273 64.0298C180.916 60.8528 181.518 57.6758 183.538 56.1713C185.514 54.669 188.864 54.8391 192.042 54.754L192.903 54.754C195.737 54.754 198.142 55.5695 196.424 67.8958C194.45 81.2948 187.575 108.52 172.798 126.084C163.95 136.736 152.222 143.907 140.109 147.427C134.183 149.188 128.211 150.05 122.412 150.05C120.392 150.05 118.459 149.962 116.527 149.747C97.4122 147.686 81.7762 135.617 66.0965 123.465C67.8152 136.952 69.4488 150.433 57.8499 156.92C57.0342 157.435 56.1313 157.865 55.1432 158.25" transform="translate(6.0000014 57.000008)" id="Fill-35" fill="#F6C85F" fill-rule="evenodd" stroke="none" />
    <path d="M90 47.4964C84.0233 49.2601 78.0026 50.1201 72.1578 50.1201C70.1216 50.1201 68.1733 50.0328 66.2229 49.8167C46.9514 47.754 31.1872 35.6748 15.3812 23.5105C17.114 37.0084 18.7588 50.5064 7.06483 57C16.0299 35.8472 -10.1287 16.4166 4.59762 3.13256C20.9225 -11.6117 34.9122 30.517 45.0889 29.8295C54.2717 29.227 79.6056 32.3636 90 47.4964" transform="translate(56.000015 156.00002)" id="Fill-37" fill="#E1B34A" fill-rule="evenodd" stroke="none" />
    <path d="M36.9658 57.7341C39.9076 60.0125 42.8076 62.2909 45.6636 64.5256C34.9754 71.1447 15.9803 66.8454 9.92327 63.6221C2.09106 59.4974 -4.87554 43.7648 4.51432 31.8601C12.865 21.2429 31.1241 25.1537 30.0871 15.571C29.004 6.07121 45.7076 -4.20113 57 1.77197C50.2487 5.7264 44.0181 10.2832 38.6114 15.9136C30.6913 24.2088 24.6342 34.8259 19.3109 46.3444C25.3263 49.1378 31.2537 53.3498 36.9658 57.7341" transform="translate(41.00001 79.00001)" id="Fill-39" fill="#E1B34A" fill-rule="evenodd" stroke="none" />
    <path d="M0.988988 40L0 39.5075C7.62039 23.4793 15.474 12.1438 24.7096 3.83813C26.1671 2.52857 27.724 1.23668 29.3371 0L30 0.901011C28.4064 2.12002 26.8711 3.39204 25.4373 4.68172C16.1866 12.9984 8.64824 23.8922 0.988988 40" transform="translate(31.000008 83.00001)" id="Fill-41" fill="#000000" fill-rule="evenodd" stroke="none" />
    <path d="M0.712701 19L0 18.1656C9.96255 10.0471 22.0262 4.53182 32.5532 0L33 0.991934C22.5449 5.49395 10.5641 10.9709 0.712701 19" transform="translate(87.00002 71.00001)" id="Fill-43" fill="#000000" fill-rule="evenodd" stroke="none" />
    <path d="M17.1864 5.40942C15.8508 7.95503 14.5174 10.4964 12.5294 12.4947C11.1545 13.8778 9.46537 15 7.56893 15C6.72655 15 5.84053 14.7794 4.92177 14.2575C1.94508 12.5689 -1.36986 7.74077 0.587679 4.46967C2.27025 1.66101 7.83736 0 13.6336 0C14.5895 0 15.5497 0.0445482 16.5034 0.137887C23.2249 0.79126 29.438 3.81417 31.3322 6.47221C33.1348 9.00297 31.0224 11.2049 28.1591 11.2049C28.0151 11.2049 27.8711 11.1986 27.7227 11.188C24.6434 10.9504 20.916 8.17989 17.1864 5.40942" transform="translate(119.00003 54.000008)" id="Fill-45" fill="#FFFFFF" fill-rule="evenodd" stroke="none" />
    <path d="M14.1405 1.07638C8.24183 1.07638 3.09141 2.79435 1.61675 5.25524C-0.114555 8.14457 2.87608 12.6379 5.7384 14.2588C7.97648 15.5251 10.282 14.9637 12.6419 12.5957C14.5646 10.6667 15.8979 8.1298 17.1855 5.67524L17.4878 5.10117L18.0294 5.50218C21.616 8.16146 25.3244 10.9115 28.2236 11.1331C29.8179 11.2618 31.1469 10.6603 31.671 9.68738C32.056 8.97401 31.9364 8.14246 31.323 7.28347C29.5982 4.8669 23.6104 1.85727 16.944 1.20934C16.0327 1.1207 15.0888 1.07638 14.1405 1.07638M8.09828 16C7.11083 16 6.12772 15.7256 5.17942 15.1874C1.9691 13.3703 -1.47176 8.26698 0.659748 4.71495C2.61073 1.45838 8.83561 0 14.1405 0C15.1257 0 16.1067 0.0464319 17.0571 0.139296C24.1281 0.827331 30.3291 3.99947 32.2322 6.6693C33.0826 7.86176 33.2327 9.1112 32.652 10.1855C31.9125 11.5531 30.142 12.3825 28.1323 12.2031C25.059 11.9689 21.4224 9.36657 17.8728 6.73895C16.6374 9.07954 15.3215 11.4539 13.4379 13.3449C11.6827 15.1072 9.88396 16 8.09828 16" transform="translate(119.00003 53.000008)" id="Fill-47" fill="#000000" fill-rule="evenodd" stroke="none" />
    <path d="M15.9478 1.01328L7.66051 0C3.08378 6.08846 -1.49078 12.1791 0.463525 15.3023C1.65178 17.1995 5.25354 18 8.63114 18C10.8052 18 12.8858 17.6688 14.1633 17.0832C17.4255 15.5874 15.4647 12.4445 14.8923 9.49019C14.3178 6.53808 15.1339 3.77458 15.9478 1.01328" transform="translate(44.00001 110.000015)" id="Fill-49" fill="#FFFFFF" fill-rule="evenodd" stroke="none" />
    <path d="M8.35429 1.17117C4.0862 6.88772 -0.233436 12.7414 1.46778 15.4712C2.38498 16.9428 5.36641 17.892 9.06742 17.892C11.1746 17.892 13.1336 17.572 14.3021 17.0321C16.2847 16.1178 15.9625 14.6353 15.2236 12.0949C15.0346 11.4461 14.8391 10.7778 14.7102 10.1074C14.1646 7.27521 14.8391 4.62156 15.5823 2.05935L8.35429 1.17117ZM9.06742 19C7.49508 19 2.24107 18.7888 0.544142 16.0655C-1.58668 12.6456 2.90695 6.62649 7.66692 0.256874L7.85595 0L8.176 0.0326535L17 1.11457L16.8131 1.75023C16.0076 4.49966 15.2451 7.09888 15.7821 9.8962C15.9045 10.5144 16.0914 11.1566 16.274 11.7814C16.942 14.0802 17.7024 16.6816 14.7553 18.0422C13.4494 18.6408 11.325 19 9.06742 19L9.06742 19Z" transform="translate(44.00001 110.000015)" id="Fill-51" fill="#000000" fill-rule="evenodd" stroke="none" />
    <path d="M0 16.5416C4.03932 19.2708 8.08076 22 11.2919 22C12.4992 22 13.5901 21.6135 14.52 20.6937C17.9175 17.3361 19.1524 6.86407 16.7525 2.58455C15.6849 0.680145 13.8993 0 11.7134 0C8.98309 0 5.62794 1.06232 2.2749 2.12464L0 16.5416Z" transform="translate(49.00001 96.000015)" id="Fill-53" fill="#FFFFFF" fill-rule="evenodd" stroke="none" />
    <path d="M1.16709 16.756C4.95435 19.319 8.84254 21.9056 11.795 21.9056C12.9221 21.9056 13.8474 21.5315 14.6254 20.7596C17.8281 17.5838 19.0583 7.52117 16.7514 3.39076C15.8766 1.82331 14.4341 1.09442 12.2134 1.09442C9.66686 1.09442 6.45369 2.08993 3.31832 3.08329L1.16709 16.756ZM11.795 23C8.4451 23 4.29825 20.1919 0.288092 17.472L0 17.2785L2.36362 2.24044L2.68325 2.13938C5.99526 1.08582 9.41872 0 12.2134 0C14.821 0 16.6105 0.928859 17.6809 2.84678C20.219 7.38572 18.9026 18.0461 15.3698 21.5487C14.3983 22.5119 13.1955 23 11.795 23L11.795 23Z" transform="translate(49.00001 95.00001)" id="Fill-55" fill="#000000" fill-rule="evenodd" stroke="none" />
    <path d="M38.1583 13.6114C40.2191 15.5363 42.28 17.4591 44.3671 17.4591C45.2619 17.4591 46.1589 17.1071 47.0646 16.2468C50.0815 13.3833 53.1684 4.90792 51.5582 1.68594C50.95 0.469283 49.6702 0 47.9747 0C45.1809 0 41.2583 1.26663 37.3379 2.53109C35.964 2.45287 34.5923 2.37683 33.2599 2.37683C30.0877 2.37683 27.1386 2.8157 24.9465 4.74715C21.8333 7.49333 20.2429 13.242 20.9386 17.5156C21.6343 21.7891 24.6183 24.5852 20.757 27.9354C16.8956 31.2856 6.19098 35.1919 1.99708 44.6558C-2.19464 54.1175 0.122184 69.1411 9.80076 74.0729C12.4085 75.4025 15.5523 76 18.8427 76C27.7599 76 37.7645 71.6179 41.1599 65.5737C45.8066 57.296 38.0664 45.8985 34.6754 38.4595C31.2844 31.0162 32.2404 27.5313 33.8375 25.0371C35.4345 22.543 37.6704 21.0374 38.4974 19.2993C39.3243 17.559 38.7402 15.5863 38.1583 13.6114" transform="translate(23.000006 91.00001)" id="Fill-57" fill="#121212" fill-rule="evenodd" stroke="none" />
    <path d="M63.0001 36C37.137 36 8.96341 14.2998 0 0.622983L0.93875 0C11.0463 15.4216 45.8883 41.2189 73.7018 33.4615L74 34.5545C70.4261 35.5477 66.7374 36 63.0001 36" transform="translate(68.000015 172.00002)" id="Fill-59" fill="#000000" fill-rule="evenodd" stroke="none" />
    <path d="M0.0262216 53L0 51.8911C26.5821 51.2898 36.3235 33.9455 45.9315 0L47 0.302832C38.6681 29.7473 29.9167 52.3268 0.0262216 53" transform="translate(143.00003 115.000015)" id="Fill-61" fill="#000000" fill-rule="evenodd" stroke="none" />
    <path d="M38.3022 56C32.07 56 22.8211 55.0099 15.8143 50.0109C1.4455 39.7574 -5.37589 27.8142 5.00295 0L6.05783 0.389071C-4.07384 27.5388 2.53128 39.1607 16.472 49.106C27.4643 56.9508 44.8301 54.494 45 54.4743" transform="translate(6.0000014 163.00002)" id="Fill-63" fill="#000000" fill-rule="evenodd" stroke="none" />
    <path d="M10.9464 4.94872L7.05128 4.94872L7.05128 1.05361C7.05128 0.473194 6.58042 0 5.99767 0C5.41725 0 4.94639 0.473194 4.94639 1.05361L4.94639 4.94872L1.05128 4.94872C0.470863 4.94872 0 5.41958 0 6.00233C0 6.58275 0.470863 7.05362 1.05128 7.05362L4.94639 7.05362L4.94639 10.9487C4.94639 11.5291 5.41725 12 5.99767 12C6.58042 12 7.05128 11.5291 7.05128 10.9487L7.05128 7.05362L10.9464 7.05362C11.5291 7.05362 12 6.58275 12 6.00233C12 5.41958 11.5291 4.94872 10.9464 4.94872" transform="translate(18.000004 36.000004)" id="Fill-65" fill="#000000" fill-rule="evenodd" stroke="none" />
    <path d="M8.21002 3.71113L5.28887 3.71113L5.28887 0.789983C5.28887 0.354823 4.93628 0 4.49888 0C4.06372 0 3.71113 0.354823 3.71113 0.789983L3.71113 3.71113L0.789983 3.71113C0.352591 3.71113 0 4.06372 0 4.50112C0 4.93628 0.352591 5.28887 0.789983 5.28887L3.71113 5.28887L3.71113 8.21002C3.71113 8.64518 4.06372 9 4.49888 9C4.93628 9 5.28887 8.64518 5.28887 8.21002L5.28887 5.28887L8.21002 5.28887C8.64518 5.28887 9 4.93628 9 4.50112C9 4.06372 8.64518 3.71113 8.21002 3.71113" transform="translate(35.000008 66.00001)" id="Fill-67" fill="#000000" fill-rule="evenodd" stroke="none" />
    <path d="M10.9487 4.94774L7.05134 4.94774L7.05134 1.05114C7.05134 0.470895 6.58036 0 6 0C5.41741 0 4.94866 0.470895 4.94866 1.05114L4.94866 4.94774L1.05134 4.94774C0.470982 4.94774 0 5.41864 0 6.00112C0 6.58137 0.470982 7.05226 1.05134 7.05226L4.94866 7.05226L4.94866 10.9466C4.94866 11.5291 5.41741 12 6 12C6.58036 12 7.05134 11.5291 7.05134 10.9466L7.05134 7.05226L10.9487 7.05226C11.529 7.05226 12 6.58137 12 6.00112C12 5.41864 11.529 4.94774 10.9487 4.94774" transform="translate(54.00001 25.000004)" id="Fill-69" fill="#000000" fill-rule="evenodd" stroke="none" />
    <path d="M0 11.0055L7.76086 16.9938L21.8831 2.41496e-13" transform="translate(203.00005 15.948645)" id="Path-4" fill="none" fill-rule="evenodd" stroke="#FFFFFF" stroke-width="3" stroke-linecap="round" />
  </g>
</svg>