<?xml version="1.0" encoding="utf-8"?>
<svg width="660px" height="471px" viewBox="0 0 660 471" version="1.1" xmlns:xlink="http://www.w3.org/1999/xlink" xmlns="http://www.w3.org/2000/svg">
  <g id="Illsutration" transform="translate(0.5 0.5)">
    <path d="M82.9304 84.0443L14.0297 94.7031L1.29066 11.8694L69.6321 1.2946L71.8987 16.0235L73.0172 15.8509L70.5786 0L0 10.92L13.0832 96L83.1025 85.1663L82.9304 84.0443" transform="translate(536.83167 133)" id="Fill-4" fill="#150A0A" fill-rule="evenodd" stroke="none" />
    <path d="M83.455 84.6033L83.3685 84.0423L14.1034 94.7032L1.29744 11.8691L70.0003 1.29457L82.8928 84.6896L83.455 84.6033L83.3685 84.0423L83.455 84.6033L84.0172 84.517L70.9518 0L0 10.922L13.1519 96L84.1037 85.078L84.0172 84.517L83.455 84.6033" transform="translate(572.8761 144)" id="Fill-5" fill="#150A0A" fill-rule="evenodd" stroke="none" />
    <path d="M113.5 0L80.3583 0C75.5766 0 71.7028 3.7982 71.7028 8.47938L71.7028 14.3564L9.96186 14.3564C4.4602 14.3564 0 18.727 0 24.1159L0 94.2383C0 99.6294 4.4602 104 9.96186 104L112.191 104C117.693 104 122.151 99.6294 122.151 94.2383L122.151 8.47938C122.151 3.7982 118.279 0 113.5 0" transform="translate(536.83167 197)" id="Fill-6" fill="#070B1D" fill-rule="evenodd" stroke="none" />
    <path d="M0 0L0 9L29.0358 9L29.0358 0L27.8892 0L27.8892 7.99911L1.14666 7.99911L1.14666 0L0 0" transform="translate(582.88855 258)" id="Fill-7" fill="#EFE7DF" fill-rule="evenodd" stroke="none" />
    <path d="M0.50061 15L1.50183 15L1.50183 0L0.50061 0L0.50061 15Z" transform="translate(597.9071 245)" id="Fill-8" fill="#EFE7DF" fill-rule="evenodd" stroke="none" />
    <path d="M0 0.895794L7.30058 6L15.0185 0.904888L14.2334 0L7.32406 4.55854L0.816393 0.00909435L0 0.895794" transform="translate(590.8983 253)" id="Fill-9" fill="#EFE7DF" fill-rule="evenodd" stroke="none" />
    <path d="M0.17456 5L24.0296 1.17844L23.855 0L0 3.82156" transform="translate(552.85144 179)" id="Fill-10" fill="#150A0A" fill-rule="evenodd" stroke="none" />
    <path d="M0.178275 5L24.0296 1.19729L23.8513 0L0 3.80029" transform="translate(554.8539 189)" id="Fill-11" fill="#150A0A" fill-rule="evenodd" stroke="none" />
    <path d="M0.182133 5L24.0296 1.21735L23.8475 0L0 3.78265" transform="translate(555.8551 198)" id="Fill-12" fill="#150A0A" fill-rule="evenodd" stroke="none" />
    <path d="M18.8833 0.0101937L18.9822 0.029009L19.0329 0.0431204C19.279 0.10427 19.4697 0.285367 19.489 0.574651L19.4914 0.628745L19.4962 0.711061C19.2694 2.27978 19.0305 4.01784 18.7264 5.79118C19.0377 5.16087 19.3587 4.53526 19.6627 3.90024C19.7954 3.46514 20.2177 3.39223 20.5507 3.53805C20.8958 3.64389 21.154 3.95904 20.9585 4.36827C19.32 9.6483 19.5686 15.8221 16.2072 20.5023C16.0141 20.7705 15.7969 21.0174 15.5894 21.2691C14.4191 25.8482 10.8187 29.0045 5.91534 28.6305C5.73435 28.9598 5.33861 29.155 4.97182 28.8422C1.3908 25.8106 -0.667569 21.5936 0.196317 16.9016C1.30875 10.8619 7.0326 8.4065 10.1358 3.53335L10.5485 3.22054C10.9901 3.11706 11.4944 3.54981 11.3834 4.04371L11.381 4.11427C10.908 6.16043 10.2179 8.13367 9.25505 9.98698C12.3076 7.69152 14.9065 5.20555 14.6459 1.24494C14.5421 0.788674 14.8896 0.515853 15.2612 0.485279C15.6087 0.412369 15.9755 0.558188 16.0069 1.00035C16.3061 2.33858 16.3978 3.67211 16.3085 4.98212C16.9938 3.46985 17.6236 1.94111 18.1593 0.419425L18.2197 0.322997L18.2221 0.318293C18.3669 0.0548799 18.6275 -0.0321406 18.8833 0.0101937" transform="translate(533.828 222)" id="Fill-13" fill="#F4C2AE" fill-rule="evenodd" stroke="none" />
    <path d="M21.7855 8.49079C20.8406 6.8735 18.9713 9.87434 17.7251 11.8765C17.1545 10.8046 15.9585 8.79064 15.0798 7.83207C11.4804 3.91044 1.21646 -0.0253532 1.04071 0.0218669C0.360553 -0.169374 0.0775343 0.949742 0.773669 1.20237C0.867248 1.23542 4.83179 4.39681 6.64859 6.03771C7.3082 6.63504 7.87652 7.25598 8.39235 7.89818L8.39007 7.89582C6.97725 7.20168 5.30881 7.485 4.4803 8.93466L4.47345 8.95591C2.5471 8.82133 1.48122 11.2626 1.81673 12.8799C1.37166 12.9767 0.944849 13.1585 0.609335 13.515C-0.214614 14.3909 -0.0867991 15.8477 0.312622 16.896C1.54512 21.3583 4.94135 24.7912 9.28933 25.9457L9.56779 26C12.9777 25.7308 16.3534 25.1736 19.2589 23.2046L19.7017 22.9118C19.9527 22.8717 20.165 22.6899 20.1353 22.3475C19.8546 19.2334 20.2654 16.3411 21.0985 13.3474C21.4066 12.2353 22.509 9.72087 21.7855 8.49079" transform="translate(200.41687 223)" id="Fill-14" fill="#F4C2AE" fill-rule="evenodd" stroke="none" />
    <path d="M122.139 163C123.515 161.366 124.805 159.518 125.937 157.397C133.512 143.196 150.171 70.3478 149.138 49.702C148.106 29.0585 150.794 5.64607 98.5155 1.08996C46.5193 -3.44584 17.5308 7.19636 9.73043 14.2483C0.845328 22.2728 -2.12471 34.3277 1.52302 66.6808C4.67954 94.6313 10.1898 143.191 27.3756 163L122.139 163" transform="translate(303.54407 237)" id="Fill-15" fill="#456DA7" fill-rule="evenodd" stroke="none" />
    <path d="M102.915 92.5361C102.915 92.5361 84.5008 156.556 67.5655 156.864C50.6303 157.17 44.7071 156.864 44.7071 156.864C44.7071 156.864 8.72173 132.644 0 5.73677L15.9188 0.364779C15.9188 0.364779 49.3631 59.2891 59.7805 98.8506C59.7805 98.8506 65.4483 15.5178 121.149 0L102.915 92.5361" transform="translate(207.42554 244)" id="Fill-16" fill="#456DA7" fill-rule="evenodd" stroke="none" />
    <path d="M18.2327 92.5361C18.2327 92.5361 36.6477 156.556 53.5813 156.864C70.5172 157.17 76.4451 156.864 76.4451 156.864C76.4451 156.864 112.43 132.644 121.149 5.73677L105.232 0.364779C105.232 0.364779 71.7889 59.2891 61.3667 98.8506C61.3667 98.8506 55.6986 15.5178 0 0L18.2327 92.5361" transform="translate(427.69714 244)" id="Fill-17" fill="#456DA7" fill-rule="evenodd" stroke="none" />
    <path d="M22.0272 1.11624L1.4052 0L0 25.8861L20.6196 27L22.0272 1.11624" transform="translate(360.61438 192)" id="Fill-18" fill="#F4C2AE" fill-rule="evenodd" stroke="none" />
    <path d="M7.03719 0C7.03719 0 -1.23332 17.6848 0.157663 25.9501C1.11822 31.6924 8.75403 33.6749 14.2985 30.4698C16.2707 29.3322 17.9754 27.5385 19.0235 25.0296L7.03719 0" transform="translate(357.61072 190)" id="Fill-19" fill="#F4C2AE" fill-rule="evenodd" stroke="none" />
    <path d="M1.88133 1.94861C1.88133 1.94861 -3.32658 10.4586 3.58737 16.2938C10.5013 22.1243 27.7366 19.105 32.0395 1.61367C32.0395 1.61367 7.09633 -2.23102 1.88133 1.94861" transform="translate(353.60583 236)" id="Fill-20" fill="#F4C2AE" fill-rule="evenodd" stroke="none" />
    <path d="M0 31.3499C0 31.3499 5.43042 20.525 5.11192 0.701572L25.2388 0C25.2388 0 24.9112 16.2535 29.0358 31.0279C29.0358 31.0279 7.78959 35.2419 0 31.3499" transform="translate(355.60828 207)" id="Fill-21" fill="#F4C2AE" fill-rule="evenodd" stroke="none" />
    <path d="M137.169 93L6.3984 93L0 0L130.771 0L137.169 93" transform="translate(257.4873 302)" id="Fill-22" fill="#CCC8C3" fill-rule="evenodd" stroke="none" />
    <path d="M156.193 6L0 6L0 0L130.457 0L156.193 1.98559L156.193 6" transform="translate(265.4972 394)" id="Fill-23" fill="#CCC8C3" fill-rule="evenodd" stroke="none" />
    <path d="M0 0L27.0333 2.45342L27.0333 4.90373L0 5L0 0" transform="translate(394.65637 395)" id="Fill-25" fill="#AEABA7" fill-rule="evenodd" stroke="none" />
    <path d="M8.63463 18.9992C3.9369 19.0674 0.0683235 14.8678 0.000834286 9.62389C-0.0642446 4.37494 3.68623 0.0665594 8.38637 0.000821098C13.0841 -0.0674456 16.9503 4.12969 17.0202 9.37611C17.0852 14.62 13.3324 18.9284 8.63463 18.9992Z" transform="translate(314.55762 336)" id="Fill-26" fill="#FFFFFF" fill-rule="evenodd" stroke="none" />
    <path d="M0 0L1.47208 0.410485L8.00989 93L6.34678 92.8837L0 0" transform="translate(388.64905 302)" id="Fill-27" fill="#AEABA7" fill-rule="evenodd" stroke="none" />
    <path d="M0 129L0 9.27514L102.126 0L102.126 119.727L0 129Z" transform="translate(75.26257 128)" id="Fill-28" fill="#FFC0C0" fill-rule="evenodd" stroke="none" />
    <path d="M112.138 125.397L0 128L0 2.60311L112.138 0L112.138 125.397" transform="translate(55.237915 239)" id="Fill-30" fill="#FFFFFE" fill-rule="evenodd" stroke="none" />
    <path d="M123.731 0L87.5988 0C82.3894 0 78.1661 4.23434 78.1661 9.45737L78.1661 16.0123L10.8586 16.0123C4.8603 16.0123 0 20.8876 0 26.8993L0 105.113C0 111.127 4.8603 116 10.8586 116L122.306 116C128.302 116 133.164 111.127 133.164 105.113L133.164 9.45737C133.164 4.23434 128.939 0 123.731 0" transform="translate(44.224365 284)" id="Fill-31" fill="#F1C153" fill-rule="evenodd" stroke="none" />
    <path d="M0 0L0 14L34.042 14L34.042 0L32.8972 0L32.8972 12.671L1.14244 12.671L1.14244 0L0 0" transform="translate(92.28357 349)" id="Fill-32" fill="#150A0A" fill-rule="evenodd" stroke="none" />
    <path d="M0.500618 17L1.50185 17L1.50185 0L0.500618 0L0.500618 17Z" transform="translate(109.304565 342)" id="Fill-33" fill="#150A0A" fill-rule="evenodd" stroke="none" />
    <path d="M0.743062 6.99074L7.80571 1.46759L15.3052 7L16.0198 6.07639L7.78672 0L0 6.08796L0.743062 6.99074" transform="translate(102.2959 340)" id="Fill-34" fill="#150A0A" fill-rule="evenodd" stroke="none" />
    <path d="M33.0407 32.7287L0 34L0 1.27126L33.0407 0L33.0407 32.7287" transform="translate(63.247803 254)" id="Fill-36" fill="#E2E6E7" fill-rule="evenodd" stroke="none" />
    <path d="M52.0642 4.86408L0 7L0 2.13592L52.0642 0L52.0642 4.86408" transform="translate(101.29468 252)" id="Fill-37" fill="#E2E6E7" fill-rule="evenodd" stroke="none" />
    <path d="M52.0642 4.86622L0 7L0 2.13592L52.0642 0L52.0642 4.86622" transform="translate(101.29468 268)" id="Fill-38" fill="#E2E6E7" fill-rule="evenodd" stroke="none" />
    <path d="M73.0901 5.63366L0 14L0 8.36881L73.0901 0L73.0901 5.63366" transform="translate(89.27991 143)" id="Fill-39" fill="#FFFFFF" fill-rule="evenodd" stroke="none" />
    <path d="M73.0901 5.63119L0 14L0 8.36634L73.0901 0L73.0901 5.63119" transform="translate(89.27991 155)" id="Fill-44" fill="#FFFFFF" fill-rule="evenodd" stroke="none" />
    <path d="M73.0901 5.63366L0 14L0 8.36881L73.0901 0L73.0901 5.63366" transform="translate(89.27991 169)" id="Fill-45" fill="#FFFFFF" fill-rule="evenodd" stroke="none" />
    <path d="M73.0901 5.63119L0 14L0 8.36881L73.0901 0L73.0901 5.63119" transform="translate(89.27991 182)" id="Fill-46" fill="#FFFFFF" fill-rule="evenodd" stroke="none" />
    <path d="M9.4861 11.8484C9.4861 11.8484 7.20861 14.1915 4.15775 13.9758L3.76753 15.0783C3.76753 15.0783 -0.111076 13.1956 0.00244416 7.12097C0.118329 1.04394 6.92717 -0.194242 10.3328 2.2797C10.3328 2.2797 17.6075 -1.09562 24.6245 0.367908C31.6391 1.83144 32.5189 9.11515 31.859 12.4493C31.2016 15.7834 27.3206 23.3288 27.2875 24C27.2875 24 21.576 16.1202 21.1148 12.9702C21.1148 12.9702 12.4873 15.5629 9.4861 11.8484" transform="translate(354.60706 183)" id="Fill-49" fill="#070B1D" fill-rule="evenodd" stroke="none" />
    <path d="M11.2964 0C11.2964 0 6.84756 14.6981 0 20L8.70056 19.0961C8.70056 19.0961 12.6275 13.236 14.0173 1.67698C14.0173 1.67698 12.5317 1.18416 11.2964 0" transform="translate(346.59717 219)" id="Fill-50" fill="#070B1D" fill-rule="evenodd" stroke="none" />
    <path d="M9.63735 0.0476586C9.63735 0.0476586 6.6007 30.0333 21.0259 40C21.0259 40 10.524 39.5785 8.01336 39.4446C8.01336 39.4446 -1.61569 41.326 1.42325 25.579C1.42325 25.579 -3.09267 10.9188 3.96374 8.8662C3.96374 8.8662 2.73025 -0.755823 9.63735 0.0476586" transform="translate(378.6366 198)" id="Fill-51" fill="#070B1D" fill-rule="evenodd" stroke="none" />
    <path d="M1.26864 1.04479C1.26864 1.04479 4.08749 -1.3512 6.28019 1.11358C8.09484 3.14501 6.65352 8.33593 0.434565 7.98284C0.434565 7.98284 -0.968953 4.63534 1.26864 1.04479" transform="translate(378.6366 198)" id="Fill-52" fill="#F4C2AE" fill-rule="evenodd" stroke="none" />
    <path d="M0 6.50457L97.1197 0L97.1197 18.364L90.7564 19L90.7564 7.55156L0 9.80211L0 6.50457" transform="translate(76.263794 230)" id="Fill-53" fill="#EFE7DF" fill-rule="evenodd" stroke="none" />
    <path d="M0 2.87532L0 8L28.0346 5.12468L28.0346 0L0 2.87532" transform="translate(134.33545 211)" id="Fill-54" fill="#E2E6E7" fill-rule="evenodd" stroke="none" />
    <path d="M0.173594 6L29.0358 1.21277L28.8599 0L0 4.78723" transform="translate(593.9022 157)" id="Fill-67" fill="#150A0A" fill-rule="evenodd" stroke="none" />
    <path d="M0.181592 6L26.0321 1.37032L25.8505 0L0 4.62968" transform="translate(548.84656 159)" id="Fill-68" fill="#150A0A" fill-rule="evenodd" stroke="none" />
    <path d="M0.182437 6L31.0383 1.19661L30.8558 0L0 4.80339" transform="translate(595.90466 166)" id="Fill-69" fill="#150A0A" fill-rule="evenodd" stroke="none" />
    <path d="M0.187702 6L26.0321 1.39437L25.8468 0L0 4.60845" transform="translate(549.8478 168)" id="Fill-70" fill="#150A0A" fill-rule="evenodd" stroke="none" />
    <path d="M56.0075 80C56.0383 56.0752 56.0691 30.2844 56.0691 29.8844C56.0713 21.6223 52.6295 14.1421 47.0781 8.73938C41.5289 3.33665 33.8679 0 25.4119 0C14.8442 0 5.51619 5.21408 0 13.1625L0.896243 13.8239C6.20103 6.17553 15.1987 1.13419 25.4119 1.13646C33.586 1.13646 40.9761 4.36174 46.3228 9.56672C51.6694 14.774 54.9681 21.9519 54.9681 29.8844C54.9681 30.2799 54.9373 56.073 54.9064 80L56.0075 80" transform="translate(220.44165 193)" id="Fill-73" fill="#150A0A" fill-rule="evenodd" stroke="none" />
    <path d="M0 0.11871L0.497458 6L6.0074 5.62323L5.93397 4.33548L1.57055 4.63484L1.17969 0L0 0.11871" transform="translate(217.43787 199)" id="Fill-74" fill="#150A0A" fill-rule="evenodd" stroke="none" />
    <path d="M5.39048 7L6.0074 0.783235L0.164344 0L0 1.28213L4.62691 1.90251L4.13135 6.86817L5.39048 7" transform="translate(134.33545 95)" id="Fill-75" fill="#150A0A" fill-rule="evenodd" stroke="none" />
    <path d="M0 5.38131L6.21958 6L7.00867 0.164141L5.72543 0L5.10192 4.61869L0.129359 4.12626L0 5.38131" transform="translate(567.87 96)" id="Fill-76" fill="#150A0A" fill-rule="evenodd" stroke="none" />
    <path d="M0.835962 8L5.00616 4.04349L1.22992 0L0.341111 0.792242L3.33184 3.99412L0 7.15369L0.835962 8" transform="translate(274.5083 8)" id="Fill-77" fill="#150A0A" fill-rule="evenodd" stroke="none" />
    <path d="M0.835962 8L5.00616 4.04349L1.22992 0L0.343513 0.792242L3.33184 3.99412L0 7.15369L0.835962 8" transform="translate(433.70447 8)" id="Fill-78" fill="#150A0A" fill-rule="evenodd" stroke="none" />
    <path d="M81.9315 0L9.18315 0C4.11213 0 0 3.96548 0 8.85565L0 51L12.8343 37.761L81.9315 37.761C87.0025 37.761 91.1123 33.7977 91.1123 28.9076L91.1123 8.85565C91.1123 3.96548 87.0025 0 81.9315 0" transform="translate(412.6786 157)" id="Fill-79" fill="#F1C153" fill-rule="evenodd" stroke="none" />
    <path d="M4.37119 2.5L3.73621 2.5C3.73621 3.17698 3.18251 3.72972 2.50181 3.73225C1.82112 3.72972 1.26996 3.17951 1.26996 2.5C1.26996 1.81795 1.82112 1.26775 2.50181 1.26775C3.18251 1.26775 3.73621 1.81795 3.73621 2.5L5.00616 2.5C5.00616 1.11815 3.88352 0 2.50181 0C1.1201 0 0 1.11815 0 2.5C0 3.87931 1.11756 4.99746 2.50181 5C3.88352 4.99746 5.00616 3.87931 5.00616 2.5L4.37119 2.5" transform="translate(297.53662 169)" id="Fill-80" fill="#150A0A" fill-rule="evenodd" stroke="none" />
    <path d="M4.37151 2.5L3.73685 2.5C3.73431 3.17951 3.18343 3.72972 2.50308 3.73225C1.82273 3.72972 1.27185 3.17698 1.26931 2.5C1.27185 1.81795 1.82273 1.26775 2.50308 1.26775C3.18597 1.26775 3.73431 1.81795 3.73685 2.5L5.00616 2.5C5.00616 1.11815 3.88663 0 2.50308 0C1.12207 0 0 1.11815 0 2.5C0 3.87931 1.12207 4.99746 2.50308 5C3.88663 4.99746 5.00616 3.87931 5.00616 2.5L4.37151 2.5" transform="translate(310.55273 169)" id="Fill-81" fill="#150A0A" fill-rule="evenodd" stroke="none" />
    <path d="M4.37119 2.5L3.73621 2.5C3.73621 3.17698 3.18251 3.72972 2.50181 3.73225C1.82112 3.72972 1.26996 3.17951 1.26996 2.5C1.26996 1.81795 1.82112 1.26775 2.50181 1.26775C3.18251 1.26775 3.73621 1.81795 3.73621 2.5L5.00616 2.5C5.00616 1.11815 3.88352 0 2.50181 0C1.1201 0 0 1.11815 0 2.5C0 3.87931 1.11756 4.99746 2.50181 5C3.88352 4.99746 5.00616 3.87931 5.00616 2.5L4.37119 2.5" transform="translate(321.56628 169)" id="Fill-82" fill="#150A0A" fill-rule="evenodd" stroke="none" />
    <path d="M0 1.5L60.0741 1.5L60.0741 0.5L0 0.5L0 1.5Z" transform="translate(431.70203 171)" id="Fill-83" fill="#150A0A" fill-rule="evenodd" stroke="none" />
    <path d="M0 1.5L60.0741 1.5L60.0741 0.5L0 0.5L0 1.5Z" transform="translate(431.70203 180)" id="Fill-84" fill="#150A0A" fill-rule="evenodd" stroke="none" />
    <path d="M400.93 0.917026L400.93 0.834052L1.13007 0.834052L1.13007 0.165948L400.365 0.165948L400.365 0.917026L400.93 0.917026L400.93 0.834052L400.93 0.917026L401.495 0.917026L401.495 0L0 0L0 1L401.495 1L401.495 0.917026L400.93 0.917026" transform="translate(194.40955 399)" id="Fill-85" fill="none" fill-rule="evenodd" stroke="#000000" stroke-width="1" />
    <path d="M107.365 0.697714C107.365 0.697714 87.6684 -4.11403 67.5906 11.5348C51.8154 23.8322 39.9457 42.6215 0 43.6131C0 43.6131 14.7304 80.7498 48.2086 102C48.2086 102 92.2835 93.211 113.694 66.595C127.409 49.5464 149.184 52.3505 149.184 52.3505L107.365 0.697714" transform="translate(459.7367 368)" id="Fill-89" fill="#FFFFFE" fill-rule="evenodd" stroke="none" />
    <path d="M5.00616 10.6046C5.00616 10.6046 3.45468 2.87867 2.8771 0C2.8771 0 -2.62558 15.749 1.58904 26L5.00616 10.6046" transform="translate(439.7119 323)" id="Fill-104" fill="#070B1D" fill-rule="evenodd" stroke="none" />
    <path d="M1.61472 8.98555C1.61472 8.98555 2.13336 13.3094 0.319122 14C0.319122 14 1.01798 2.01515 0.775686 0C0.775686 0 1.44651 5.00211 1.61472 8.98555" transform="translate(486.7699 333)" id="Fill-105" fill="#070B1D" fill-rule="evenodd" stroke="none" />
    <path d="M2.00247 1.00084C2.00247 1.55105 1.55428 2 1.00124 2C0.448188 2 0 1.55105 0 1.00084C0 0.448945 0.448188 0 1.00124 0C1.55428 0 2.00247 0.448945 2.00247 1.00084" transform="translate(364.6194 261)" id="Fill-106" fill="#EFE7DF" fill-rule="evenodd" stroke="none" />
    <path d="M2.00247 1C2.00247 1.55236 1.55428 2 1.00124 2C0.448188 2 0 1.55236 0 1C0 0.447635 0.448188 0 1.00124 0C1.55428 0 2.00247 0.447635 2.00247 1" transform="translate(364.6194 267)" id="Fill-107" fill="#EFE7DF" fill-rule="evenodd" stroke="none" />
    <path d="M0.630916 48C0.648814 47.9866 7.10116 43.6019 14.0882 36.463C21.0708 29.3197 28.6105 19.4244 30.7314 8.31185C31.0603 6.58521 31.2102 5.17129 31.2102 4.02541C31.2057 2.75444 31.0335 1.80736 30.6598 1.11268C30.2996 0.415771 29.6262 -0.0130969 28.917 0.000305202C28.0109 0.0137073 27.1406 0.538624 26.268 1.33828C23.684 3.75737 20.9947 9.05344 20.9791 14.6645C20.9612 19.7238 23.2835 25.0578 29.935 28.3324C31.651 29.1857 33.3222 29.5475 34.895 29.5475C38.8595 29.5408 42.1416 27.2915 44.4304 25.1002C46.7214 22.9001 48.0436 20.72 48.0592 20.6954L47.1017 20.1169C47.1017 20.1169 47.0279 20.2375 46.878 20.4631C46.3455 21.2583 44.8935 23.2776 42.7971 25.0734C40.6963 26.876 37.9713 28.4329 34.895 28.4307C33.4922 28.4284 32.0045 28.1113 30.4316 27.3317C24.1426 24.1978 22.1179 19.4021 22.0977 14.6645C22.0955 11.171 23.2499 7.72216 24.7221 5.17799C25.4559 3.90702 26.268 2.86166 27.031 2.15581C27.7894 1.44103 28.5031 1.10598 28.917 1.11715C29.2302 1.13278 29.4249 1.2199 29.6754 1.6443C29.9126 2.07317 30.0938 2.86166 30.0916 4.02541C30.0916 5.07524 29.9529 6.42662 29.6329 8.10412C27.5925 18.8549 20.1983 28.625 13.2873 35.6812C9.83513 39.2127 6.50828 42.0651 4.04726 44.033C2.81675 45.0158 1.80326 45.7797 1.09851 46.2957C0.391526 46.8117 0.00223729 47.0775 0 47.0775L0.630916 48" transform="translate(110.305786 29)" id="Fill-109" fill="#150A0A" fill-rule="evenodd" stroke="none" />
    <path d="M10.5811 6.92728L16.377 6.92728L16.377 2.53636L10.5811 2.53636L10.5811 6.92728ZM1.08585 6.92728L6.88173 6.92728L6.88173 2.53636L1.08585 2.53636L1.08585 6.92728ZM24.0296 1.06341L23.8792 0C21.7287 0.297848 18.866 1.89412 17.4629 2.74346L17.4629 1.46364L9.49763 1.46364L9.49763 3.18092L7.96522 3.18092L7.96522 1.46364L0 1.46364L0 8L7.96522 8L7.96522 4.25364L9.49763 4.25364L9.49763 8L17.4629 8L17.4629 4.00931C18.3701 3.43688 21.7428 1.37987 24.0296 1.06341L24.0296 1.06341Z" transform="translate(355.60828 198)" id="Fill-110" fill="#070B1D" fill-rule="evenodd" stroke="none" />
    <path d="M2.90599 1.7671C2.90599 1.7671 9.49375 4.01167 14.9814 0C14.9814 0 16.507 15.7292 0 14.9736C0 14.9736 2.47009 5.52036 2.90599 1.7671" transform="translate(356.6095 218)" id="Fill-111" fill="#CC9A8A" fill-rule="evenodd" stroke="none" />
    <path d="M0.766557 39C0.777797 38.9887 4.91631 35.0946 9.06831 29.9915C11.1454 27.4399 13.227 24.5873 14.7984 21.755C16.3675 18.9181 17.442 16.104 17.4487 13.566C17.4487 12.6898 17.3161 11.8431 17.0194 11.0529C16.7339 10.2922 16.4012 9.71717 15.9988 9.30512C15.6009 8.89533 15.0996 8.65308 14.5871 8.65761C13.9666 8.65987 13.4181 8.97457 12.9573 9.42285C11.5905 10.7835 10.6217 13.5569 10.6082 16.5953C10.6082 19.0178 11.2623 21.6191 13.027 23.6749C14.7894 25.7306 17.6466 27.1773 21.8525 27.3494C22.1402 27.3629 22.4257 27.3675 22.7045 27.3675C28.203 27.3788 32.0448 25.0061 34.4254 21.678C36.8127 18.3521 37.7884 14.1139 37.7906 10.2764C37.7906 7.99878 37.4467 5.85928 36.8195 4.11372C36.1901 2.37496 35.2931 0.998433 34.059 0.319227C33.6746 0.108673 33.2677 0 32.8653 0C32.146 0 31.4918 0.344131 30.959 0.864855C29.3742 2.44061 28.4233 5.6759 28.4076 9.25078C28.4076 12.3797 29.1786 15.7689 31.1681 18.4201C33.1553 21.0758 36.3969 22.9277 41.0906 22.9187C41.7178 22.9187 42.372 22.887 43.0531 22.8191L42.943 21.6938C42.2955 21.7572 41.6796 21.7867 41.0906 21.7867C36.6824 21.7776 33.8634 20.1158 32.065 17.7363C30.2689 15.3568 29.5293 12.1963 29.5316 9.25078C29.5293 7.01393 29.9587 4.90613 30.6241 3.40735C30.9545 2.65569 31.3457 2.06252 31.7391 1.6799C32.1392 1.29502 32.5101 1.13201 32.8653 1.13201C33.0676 1.13201 33.2812 1.18408 33.5262 1.3154C34.3759 1.76594 35.1964 2.90247 35.7629 4.49861C36.3339 6.09021 36.6666 8.11651 36.6666 10.2764C36.6689 13.9237 35.7225 17.9491 33.515 21.0146C31.303 24.0778 27.8838 26.2264 22.7045 26.2355C22.4415 26.2355 22.1717 26.2309 21.8997 26.2196C17.9163 26.0453 15.4188 24.7231 13.8767 22.9323C12.3346 21.1414 11.7322 18.8208 11.7322 16.5953C11.7299 14.7433 12.1548 12.9706 12.7595 11.7005C13.0585 11.0665 13.4069 10.5594 13.7396 10.2379C14.0745 9.90961 14.3713 9.78736 14.5871 9.78962C14.7669 9.79188 14.9512 9.85301 15.2008 10.1021C15.4435 10.3488 15.72 10.7881 15.9673 11.4537C16.2101 12.0967 16.3248 12.803 16.3248 13.566C16.3292 15.7734 15.3424 18.4585 13.816 21.2025C11.5321 25.3231 8.07246 29.5794 5.18831 32.7921C3.74512 34.3972 2.44579 35.7443 1.50839 36.6884C0.570984 37.6348 0 38.1714 0 38.1714L0.766557 39" transform="translate(536.83167 107)" id="Fill-112" fill="#150A0A" fill-rule="evenodd" stroke="none" />
    <g id="Group-14" transform="matrix(0.81915206 -0.57357645 0.57357645 0.81915206 0 404.03235)">
      <path d="M17.8631 0.00343176C14.244 -0.0987221 11.1995 2.10123 8.08869 3.73205C6.56379 4.53286 5.03351 5.33002 3.68463 6.42635C2.2226 7.61389 1.47722 9.03675 0.428289 10.5654C-0.805638 12.364 0.809063 15.2061 2.95002 15.0511C4.58987 14.9325 6.07346 15.0602 7.65224 14.5111C9.46092 13.8854 11.1151 12.8365 12.7244 11.8204C15.6772 9.95431 19.0539 8.42565 20.8069 5.23699C22.0911 2.90387 20.4782 0.0800471 17.8631 0.00343176" transform="translate(2.9506564 18.987383)" id="Fill-68" fill="#E5735B" fill-rule="evenodd" stroke="none" />
      <path d="M23.511 5.56917C17.2195 2.72796 9.02877 -1.19976 2.09269 0.35051C-0.681736 0.969481 -0.460217 4.5262 1.37367 5.99507C4.33149 8.36685 7.9121 8.78707 11.5091 9.46472C15.0697 10.1367 18.5759 10.4869 22.1855 10.6269C24.6277 10.7216 25.9332 6.66326 23.511 5.56917" transform="translate(0.41716474 0.6669176)" id="Fill-69" fill="#E5735B" fill-rule="evenodd" stroke="none" />
      <path d="M11.5517 0.70714C8.99535 3.47748 6.66294 6.34969 4.54384 9.49111C2.45825 12.5834 0.358545 15.3647 0.0112398 19.2137C-0.198554 21.5384 2.57636 22.808 4.33581 21.7857C7.53032 19.9267 9.15402 16.5434 10.984 13.3947C12.8792 10.135 14.3795 6.76624 15.774 3.25374C16.7577 0.776262 13.193 -1.07184 11.5517 0.70714" transform="translate(14.399441 29.159697)" id="Fill-70" fill="#E5735B" fill-rule="evenodd" stroke="none" />
    </g>
  </g>
</svg>