<?xml version="1.0" encoding="utf-8"?>
<svg width="562px" height="489px" viewBox="0 0 562 489" version="1.1" xmlns:xlink="http://www.w3.org/1999/xlink" xmlns="http://www.w3.org/2000/svg">
  <g id="Group" transform="translate(0.5 0.5)">
    <g id="Illsutration">
      <path d="M25.9292 21C17.6889 21 8.96748 14.4897 0.0655716 1.58968C-0.0547245 1.46912 0.00542354 1.22799 0.12572 1.16771C0.246016 1.04715 0.42646 1.10743 0.546756 1.22799C9.68925 14.3691 18.531 20.8192 26.7713 20.3369C33.5079 19.9752 38.1393 15.2734 43.0714 10.3304C47.8832 5.44763 52.8755 0.384068 60.0933 0.0223849C68.1531 -0.399579 76.4536 5.14623 84.9344 16.479C85.0547 16.5995 84.9946 16.8406 84.8743 16.9009C84.754 17.0215 84.5735 16.9612 84.4532 16.8406C76.0927 5.74903 67.9125 0.323787 60.0933 0.68547C53.1161 1.04715 48.184 5.99015 43.4924 10.8126C38.7407 15.635 33.8086 20.578 26.8314 21C26.5307 21 26.23 21 25.9292 21Z" transform="matrix(0.8386706 -0.544639 -0.544639 -0.8386706 407.8457 63.906376)" id="Path" fill="#000000" fill-opacity="0.8662807" stroke="none" />
      <path d="M12.3148 23.9342L2.38816 16.8274Q2.26995 16.7428 2.16049 16.6471Q2.05103 16.5515 1.95133 16.4457Q1.85163 16.3399 1.76263 16.2249Q1.67364 16.11 1.59617 15.987Q1.51871 15.864 1.45351 15.734Q1.38831 15.6041 1.33598 15.4685Q1.28365 15.3329 1.24468 15.1928Q1.20572 15.0527 1.18048 14.9096Q1.15524 14.7664 1.14397 14.6215Q1.1327 14.4765 1.1355 14.3312Q1.1383 14.1859 1.15514 14.0415Q1.17198 13.8971 1.20272 13.755Q1.23345 13.6129 1.27777 13.4744Q1.3221 13.336 1.37961 13.2025Q1.43713 13.069 1.50728 12.9417Q1.57744 12.8143 1.65958 12.6944L8.62828 2.51879Q8.71247 2.39586 8.80844 2.28187Q8.9044 2.16788 9.01119 2.06397Q9.11798 1.96006 9.23455 1.86724Q9.35111 1.77443 9.4763 1.69362Q9.60149 1.61282 9.73407 1.54482Q9.86666 1.47683 10.0053 1.42231Q10.144 1.36779 10.2874 1.32728Q10.4308 1.28678 10.5775 1.26069Q10.7242 1.23459 10.8728 1.22317Q11.0213 1.21175 11.1703 1.21511Q11.3192 1.21847 11.4671 1.23658Q11.615 1.25469 11.7604 1.28737Q11.9058 1.32005 12.0472 1.36698Q12.1886 1.41391 12.3247 1.47463Q12.4608 1.53535 12.5902 1.60926Q12.7195 1.68316 12.841 1.76953L22.7676 8.83043Q22.8861 8.91474 22.9959 9.01013Q23.1057 9.10552 23.2058 9.21109Q23.3059 9.31666 23.3953 9.43142Q23.4846 9.54618 23.5625 9.66905Q23.6404 9.79193 23.7059 9.92175Q23.7716 10.0516 23.8243 10.1872Q23.877 10.3227 23.9164 10.4628Q23.9557 10.6028 23.9813 10.746Q24.007 10.8892 24.0186 11.0342Q24.0303 11.1792 24.0278 11.3246Q24.0254 11.47 24.0089 11.6146Q23.9924 11.7591 23.9619 11.9013Q23.9315 12.0436 23.8875 12.1822Q23.8435 12.3209 23.7862 12.4546Q23.7289 12.5883 23.659 12.7159Q23.5891 12.8434 23.5072 12.9636L16.5386 23.1851Q16.4543 23.3086 16.3583 23.4232Q16.2622 23.5377 16.1552 23.6421Q16.0482 23.7465 15.9314 23.8397Q15.8146 23.933 15.689 24.0142Q15.5635 24.0953 15.4305 24.1636Q15.2975 24.2319 15.1584 24.2866Q15.0193 24.3413 14.8754 24.3819Q14.7316 24.4226 14.5844 24.4487Q14.4372 24.4748 14.2881 24.4861Q14.1391 24.4975 13.9896 24.4939Q13.8402 24.4904 13.6918 24.472Q13.5435 24.4536 13.3977 24.4206Q13.2519 24.3875 13.1101 24.3401Q12.9683 24.2928 12.832 24.2315Q12.6956 24.1703 12.566 24.0958Q12.4364 24.0213 12.3148 23.9342L12.3148 23.9342Z" transform="matrix(-1 -1.7484555E-07 -1.7484555E-07 1 561 281.46387)" id="Path" fill="#7034FF" stroke="none" />
      <path d="M11.176 21.8214C11.1075 21.8214 11.0389 21.8214 10.9703 21.753L0.137129 11.7658C0.0685646 11.6974 0 11.629 0 11.4922C0 11.4238 0 11.287 0.0685646 11.2186L9.87331 0.136812C9.94187 0.0684058 10.0104 0 10.1476 0C10.2161 0 10.3533 0 10.4218 0.0684058L21.255 10.0557C21.3236 10.1241 21.3922 10.1925 21.3922 10.3293C21.3922 10.3977 21.3922 10.5345 21.3236 10.6029L11.5189 21.6846C11.3817 21.753 11.2446 21.8214 11.176 21.8214ZM0.822776 11.4238L11.176 20.9322L20.5008 10.3977L10.1476 0.82087L0.822776 11.4238Z" transform="matrix(-1 0 0 1 22.666016 285.3247)" id="Shape" fill="#000000" stroke="none" />
      <path d="M0.368535 11.4494C0.29997 11.4494 0.29997 11.4494 0.231406 11.4494C0.0257117 11.381 -0.0428529 11.1758 0.0257117 10.9706L4.00246 0.23087C4.07103 0.0256522 4.27672 -0.0427536 4.48241 0.0256522C4.68811 0.094058 4.75667 0.299275 4.68811 0.504493L0.642794 11.1758C0.642794 11.3126 0.505664 11.4494 0.368535 11.4494Z" transform="matrix(-0.5591929 -0.82903755 -0.82903755 0.5591929 302.70703 45.941345)" id="Path" fill="#000000" fill-opacity="0.8662807" stroke="none" />
      <path d="M0.342823 2.59942C0.205694 2.59942 -1.96692e-15 2.46261 0 2.3258C-8.69235e-15 2.12058 0.0685646 1.91536 0.274259 1.91536L11.3817 -4.50928e-18C11.5874 -2.36286e-15 11.7246 0.0684058 11.7931 0.273623C11.8617 0.478841 11.7246 0.684058 11.5189 0.684058L0.342823 2.59942C0.411388 2.59942 0.411388 2.59942 0.342823 2.59942Z" transform="matrix(-0.7547096 0.656059 0.656059 0.7547096 538.6992 171.90833)" id="Path" fill="#000000" fill-opacity="0.8662807" stroke="none" />
      <path d="M0.368535 4.60884C0.231406 4.60884 0.0942764 4.54043 0.0257117 4.40362C-0.0428529 4.19841 0.0257117 3.99319 0.231406 3.92478L10.7904 0.0256522C10.9961 -0.0427536 11.2017 0.0256522 11.2017 0.23087C11.2703 0.436087 11.2017 0.641304 10.9961 0.70971L0.4371 4.54043C0.4371 4.60884 0.368535 4.60884 0.368535 4.60884Z" transform="matrix(-0.7880108 -0.6156615 -0.6156615 0.7880108 66.228516 54.40857)" id="Path" fill="#000000" fill-opacity="0.8662807" stroke="none" />
      <path d="M6.21183 10.4386C6.0747 10.4386 6.00613 10.3702 5.93757 10.3018L0.0410069 0.519752C-0.0275578 0.382941 -0.0275578 0.109318 0.178136 0.0409119C0.315265 -0.0274939 0.589524 -0.0274939 0.658089 0.177723L6.55465 9.95975C6.62321 10.0966 6.62321 10.3702 6.41752 10.4386C6.34895 10.3702 6.28039 10.4386 6.21183 10.4386Z" transform="matrix(-0.88294756 0.46947163 0.46947163 0.88294756 189.16406 9.52655)" id="Path" fill="#000000" fill-opacity="0.8662807" stroke="none" />
      <path d="M11.3817 23.258C17.6677 23.258 22.7635 18.0515 22.7635 11.629C22.7635 5.20647 17.6677 0 11.3817 0C5.09578 0 0 5.20647 0 11.629C0 18.0515 5.09578 23.258 11.3817 23.258Z" transform="matrix(-1 0 0 1 22.763672 119.46387)" id="Oval" fill="#7034FF" stroke="none" />
      <path d="M4.55374 9.31073C7.0687 9.31073 9.10747 7.22645 9.10747 4.65536C9.10747 2.08428 7.0687 0 4.55374 0C2.03878 0 0 2.08428 0 4.65536C0 7.22645 2.03878 9.31073 4.55374 9.31073Z" transform="matrix(-1 0 0 1 362.10742 59.463867)" id="Oval" fill="#7034FF" stroke="none" />
      <path d="M5.69087 11.6119C4.25101 11.6119 2.81115 11.0646 1.64555 9.90174C0.548517 8.80725 0 7.37072 0 5.79739C0 4.22406 0.617082 2.78754 1.64555 1.69304L1.64555 1.69304L1.64555 1.69304C3.83962 -0.564348 7.47355 -0.564348 9.66762 1.69304C10.7647 2.78754 11.3132 4.22406 11.3132 5.79739C11.3132 7.37072 10.6961 8.80725 9.66762 9.90174C8.63915 10.9962 7.13072 11.6119 5.69087 11.6119ZM5.69087 0.735362C4.38814 0.735362 3.15397 1.2142 2.19407 2.24029L2.19407 2.24029C1.23416 3.19797 0.754211 4.49768 0.754211 5.8658C0.754211 7.23391 1.30273 8.53362 2.19407 9.4913C4.11388 11.4751 7.26785 11.4751 9.25623 9.4913C10.2161 8.53362 10.6961 7.23391 10.6961 5.8658C10.6961 4.49768 10.1476 3.19797 9.25623 2.24029C8.22776 1.2142 6.99359 0.735362 5.69087 0.735362Z" transform="matrix(-1 0 0 1 531 405.46387)" id="Shape" fill="#000000" stroke="none" />
      <path d="M126.521 165.956C113.753 165.894 88.2778 166.2 80.5802 166.2C80.2747 166.2 70.8055 166.139 68.7284 166.139C69.4615 159.834 70.1335 153.468 70.8666 147.162C69.7058 147.224 68.6062 147.224 67.4454 147.285C68.0564 133.083 69.9502 82.886 70.3167 71.9284C66.1014 66.4802 46.1244 39.1168 40.8705 31.3424C38.4879 70.2143 36.1664 109.086 33.7838 148.019C32.8674 148.081 31.4012 148.142 29.6296 148.264C30.5459 149.06 31.4623 149.733 32.3176 150.346C33.0507 150.774 34.6391 151.692 37.9991 152.733C45.1469 154.998 47.5906 153.896 51.0117 155.365C53.5776 156.467 56.8765 159.038 59.4424 166.078C46.6742 166.017 21.1989 166.323 13.5013 166.323C13.1958 166.323 3.7266 166.262 1.64948 166.262C2.2604 160.569 1.16075 56.4408 0 5.32576C8.85832 4.65239 66.7123 0.122431 68.3007 0C71.2942 4.89725 74.7765 10.5903 78.5031 16.9567C99.3965 52.2781 101.657 61.2156 102.634 68.3166C102.634 68.3166 102.757 69.0512 102.818 69.7246C104.284 84.9061 101.413 102.903 101.413 102.903C100.618 109.147 99.7019 115.514 98.8467 121.88C97.6248 130.267 96.403 138.592 95.1201 146.734C96.6473 148.264 98.1136 149.489 99.4576 150.346C100.191 150.774 101.779 151.692 105.139 152.733C112.287 154.998 114.731 153.896 118.152 155.365C120.656 156.345 124.017 158.916 126.521 165.956Z" transform="matrix(-1 0 0 1 471.66016 286.7378)" id="legs" fill="#FCF7EF" stroke="#000000" stroke-width="1" />
      <path d="M130.323 46.9524C130.262 48.4828 130.14 50.1968 130.018 52.1557C129.712 56.502 129.163 61.7666 128.185 67.7045C128.002 68.9288 127.757 70.1531 127.513 71.4386C127.085 73.5812 126.719 75.6625 126.352 77.5602C123.603 91.6398 121.404 100.026 114.378 106.515C110.652 109.943 104.726 112.514 92.7518 117.473C85.2986 120.595 79.0061 122.799 74.5464 124.207C75.7683 136.572 76.9901 148.938 78.2119 161.303C79.0061 169.139 79.7392 176.974 80.5334 184.81C80.5334 184.81 80.5334 184.81 80.5334 184.81C76.8068 184.932 58.4793 186.157 46.6274 187.259C32.7596 188.544 20.0525 189.585 12.2327 190.197C12.0494 190.197 11.2552 190.258 11.072 190.258C9.60577 175.322 7.16209 149.489 4.96278 125.431C3.19112 106.087 1.54164 87.8444 0.747443 77.499C0.564167 75.1728 0.380891 73.2751 0.3198 71.8059C0.258708 70.6428 0.136524 69.2349 0.075432 67.5821C-0.107844 63.5418 -0.0467517 58.1549 1.29727 52.0333C1.60273 50.7478 1.90819 49.401 2.33583 48.0543C3.43549 44.4425 4.8406 41.3206 8.75048 35.0153C10.5832 32.077 12.9047 28.5265 16.0204 23.8741C16.9368 22.5274 17.8532 21.1194 18.9528 19.589C19.1361 19.2829 19.3805 18.9768 19.5637 18.6708C22.4962 14.3857 25.8562 9.48842 29.705 4.10145C30.6825 2.7547 31.6599 1.40796 32.6374 0C32.8207 0.122431 33.1261 0.244863 33.3705 0.428509C36.1807 2.02012 43.0841 6.12156 47.0551 8.57019L47.0551 8.57019C47.5438 8.87627 47.9715 9.12113 48.3991 9.36599C48.8268 9.61085 49.1322 9.85572 49.3766 9.97815C49.1322 10.3454 48.9489 10.7127 48.7046 11.1412C47.4216 13.4062 45.8943 15.9161 44.367 18.5483C44.1838 18.8544 44.0005 19.1605 43.8172 19.4666C41.1903 23.9353 38.5022 28.5265 36.364 32.1382C35.8753 33.0564 35.2644 33.9747 34.7145 34.8929C31.5988 40.2187 27.9333 46.5239 24.7566 51.9109C24.0234 53.1352 23.2903 54.3595 22.6183 55.5226C23.1682 59.5016 23.718 63.4806 24.2678 67.4596C24.7566 70.7653 25.1842 74.0709 25.6729 77.3766C26.2838 81.8453 26.8948 86.314 27.5668 90.844C28.2999 90.9664 34.5313 92.3132 41.4346 93.7823C45.8943 94.7006 50.5984 95.7412 54.325 96.537C57.9905 97.3329 60.7397 97.945 61.2895 98.0674C65.7492 96.8431 70.2089 95.68 74.6686 94.5169C83.7713 92.0683 92.874 89.6197 101.916 87.2323C102.771 83.9878 103.565 80.7434 104.359 77.3766C105.153 74.1321 105.887 70.8265 106.62 67.4596C106.986 65.868 107.292 64.2764 107.658 62.6848C108.208 59.9913 108.758 57.2978 109.308 54.6656C109.491 53.7473 109.674 52.8291 109.858 51.9109C110.224 50.0132 110.591 48.1155 110.957 46.279C110.957 46.279 110.957 46.279 110.957 46.2178C111.018 46.2178 111.079 46.2178 111.14 46.2178L111.14 46.2178C113.951 46.279 116.761 46.3402 119.571 46.4627C119.999 46.4627 120.426 46.4627 120.854 46.5239C122.992 46.5851 124.397 46.6463 127.147 46.7075C127.635 46.8912 129.957 46.9524 130.323 46.9524Z" transform="matrix(-1 0 0 1 483.89258 101.621765)" id="tshirt" fill="#FFD04D" stroke="none" />
      <path d="M20.6515 22.022C20.4683 22.022 20.3461 21.9608 20.285 21.7772C20.1628 21.5323 20.2239 21.2874 20.4072 21.165L22.1177 20.0631C22.8508 19.6346 23.5228 19.2061 24.1338 18.8388C24.9891 18.2879 25.7832 17.7981 26.5164 17.3696C26.944 17.1248 27.616 16.6963 27.8604 15.9617C28.1047 15.1047 27.616 14.2476 27.616 14.2476C27.2495 13.5743 26.5774 13.3294 26.0276 13.0845C25.3556 12.8397 24.6836 12.5336 24.5003 11.7378C24.3781 11.3093 24.5003 10.942 24.6225 10.6359C24.7447 10.3298 24.8058 10.0238 24.7447 9.53404C24.6836 9.28918 24.6225 8.86067 24.317 8.49337C24.0116 8.12608 23.7061 8.00365 23.2785 7.88122C22.8508 7.75879 22.3621 7.63636 21.9345 7.08541C21.5679 6.59569 21.5068 6.16718 21.4457 5.79989C21.4457 5.49381 21.3846 5.18773 21.1403 4.75922C20.8959 4.45314 20.7737 4.33071 20.4683 4.20828C20.2239 4.08585 19.9184 3.9022 19.5519 3.53491C18.7577 2.80032 18.5133 2.12695 18.2689 1.63722C18.1468 1.26993 18.0246 1.08628 17.9024 0.963851C16.986 0.351695 13.8703 2.67789 12.0987 4.45314C8.31097 8.1873 4.70655 12.7173 1.40759 17.7981C1.22431 18.043 1.04104 18.3491 0.857762 18.6552C0.857762 18.6552 0.79667 18.7164 0.79667 18.7164C0.674486 18.9 0.369027 18.9612 0.185751 18.8388C0.00247534 18.7164 -0.0586165 18.4103 0.0635672 18.2267C0.246843 17.9206 0.430119 17.6145 0.613394 17.3696C3.91236 12.2275 7.57787 7.63636 11.4267 3.84099C12.2819 3.04518 16.4973 -0.995049 18.3911 0.229264C18.8188 0.474126 18.941 0.902636 19.1242 1.33115C19.3075 1.82087 19.4908 2.3106 20.1628 2.92275C20.4683 3.22883 20.7126 3.35126 20.8959 3.47369C21.2014 3.65734 21.5068 3.84099 21.8734 4.33071C22.301 4.94287 22.301 5.43259 22.3621 5.79989C22.3621 6.10596 22.4232 6.28961 22.6065 6.59569C22.8508 6.90177 23.1563 6.96298 23.5228 7.08541C23.9505 7.20785 24.5614 7.39149 25.0501 8.00365C25.4778 8.55459 25.6 9.16675 25.6 9.47282C25.7222 10.2074 25.5389 10.6971 25.4167 11.0644C25.3556 11.3093 25.2945 11.4317 25.3556 11.6154C25.4167 11.9214 25.7832 12.1051 26.3331 12.35C27.0051 12.5948 27.8604 12.9621 28.4102 13.8803L28.4102 13.8803C28.4102 13.8803 29.1433 15.0434 28.7768 16.329C28.4713 17.4309 27.4938 17.9818 27.0051 18.2879C26.272 18.7164 25.5389 19.2061 24.6225 19.7571C24.0116 20.1243 23.3396 20.5529 22.6065 20.9814L20.8959 22.0832C20.7737 21.9608 20.7126 22.022 20.6515 22.022Z" transform="matrix(-1 0 0 1 451.7461 83.33386)" id="Path" fill="#000000" stroke="none" />
      <path d="M0.476826 10.4093C0.29355 10.4093 0.171366 10.3481 0.0491827 10.1645C-0.073001 9.91961 0.0491827 9.67475 0.232458 9.55232C0.660101 9.36867 1.33211 9.00138 2.12631 8.57287C5.36418 6.98126 7.93004 5.9406 10.0683 5.14479C12.8174 4.04291 14.6501 3.30832 14.6501 2.57374C14.6501 2.0228 13.8559 1.34942 13.245 1.10456C12.3897 0.676052 11.3512 0.98213 10.4959 1.16578C9.88497 1.28821 9.33515 1.53307 8.78532 1.83915C8.54095 1.96158 8.29659 1.90036 8.1744 1.6555C8.05222 1.41064 8.11331 1.16578 8.35768 1.04335C8.9686 0.737268 9.57952 0.492405 10.2515 0.308758C11.229 0.0638956 12.4508 -0.242183 13.6116 0.308758C14.2836 0.614836 15.5665 1.47186 15.5665 2.63495C15.5665 4.04291 13.8559 4.71628 10.4348 6.06303C8.35768 6.92005 5.73073 7.8995 2.55395 9.4911C1.75976 9.91961 1.08774 10.2257 0.660101 10.4093C0.660101 10.3481 0.59901 10.4093 0.476826 10.4093Z" transform="matrix(-1 0 0 1 436.03125 101.25177)" id="Path" fill="#000000" stroke="none" />
      <path d="M18.2054 9.05991L18.2054 9.05991L15.3341 10.2842L0 0.857019C0.183276 0.550941 0.366551 0.306078 0.549827 0L18.2054 9.05991Z" transform="matrix(-1 0 0 1 451.2539 100.887146)" id="Path" fill="#000000" stroke="none" />
      <path d="M22.5678 22.2825C22.5678 22.2825 22.5678 22.2825 22.5678 22.2825C22.3234 22.2825 22.079 22.0988 22.079 21.854C22.079 20.8745 22.079 19.9563 22.079 19.0381C22.018 17.5689 21.9569 16.1609 21.8347 14.753C21.5903 12.3043 21.2238 9.91693 20.735 7.65195C20.735 7.52952 20.063 4.46874 19.0245 2.50984C18.5357 1.59161 18.047 1.04067 17.6193 0.97945C17.4361 0.97945 16.6419 1.04067 15.9088 1.46918C15.6644 1.59161 15.5422 1.71404 15.3589 1.83647C15.1757 2.02012 14.9313 2.20376 14.5647 2.32619C13.9538 2.50984 13.5262 2.32619 13.1596 2.20376C12.9153 2.08133 12.6709 2.02012 12.3654 2.02012C11.9378 2.08133 11.6934 2.32619 11.3269 2.63227C10.9603 2.99957 10.4716 3.48929 9.61631 3.48929C9.24975 3.48929 9.06648 3.42808 8.8832 3.36686C8.69993 3.30564 8.57774 3.24443 8.21119 3.24443C7.29481 3.18321 6.74499 3.42808 6.37844 3.61172C5.8897 3.85658 5.70643 4.22388 5.52315 4.59117C5.27878 5.01968 5.03441 5.50941 4.3624 5.8767C3.87367 6.12156 3.56821 6.12156 3.26275 6.12156C2.95729 6.12156 2.71292 6.12156 2.28528 6.36643C1.97982 6.48886 1.18563 6.85615 0.941259 7.52952C0.635799 8.32533 1.12453 9.24356 1.3689 9.7945C1.61327 10.2842 1.85764 10.8352 2.1631 11.3861L2.22419 11.5698C2.34637 11.8758 2.52965 12.1819 2.65183 12.5492C2.65183 12.5492 2.65183 12.5492 2.65183 12.6104L2.65183 12.6104C3.14057 13.7123 3.69039 14.9366 4.30131 16.3446C4.4235 16.5894 4.30131 16.8343 4.05694 16.9567C3.81258 17.0792 3.56821 16.9567 3.44603 16.7119C2.83511 15.3039 2.34637 14.0796 1.85764 12.9777C1.85764 12.9777 1.85764 12.9165 1.85764 12.9165C1.67436 12.5492 1.55218 12.2431 1.42999 11.937L1.3689 11.7534C1.12453 11.2025 0.880167 10.6515 0.635799 10.1618C0.33034 9.48842 -0.280579 8.32533 0.147064 7.10101C0.513616 6.12156 1.55218 5.63184 1.91873 5.44819C2.59074 5.14211 2.95729 5.14211 3.32384 5.14211C3.56821 5.14211 3.75148 5.14211 4.05694 4.95847C4.48459 4.7136 4.66786 4.40753 4.85114 4.04023C5.09551 3.61172 5.33987 3.06078 6.07298 2.69349C6.6839 2.32619 7.47809 2.20376 8.39447 2.20376C8.8832 2.20376 9.12757 2.32619 9.31085 2.38741C9.43303 2.44863 9.49412 2.44863 9.6774 2.44863C10.1661 2.44863 10.4105 2.14255 10.7771 1.83647C11.1436 1.46918 11.5712 1.04067 12.3654 0.97945C12.9153 0.918234 13.2818 1.10188 13.5873 1.22431C13.8927 1.34674 14.076 1.40796 14.3815 1.34674C14.5647 1.28553 14.6258 1.22431 14.8091 1.10188C14.9924 0.97945 15.1757 0.795803 15.4811 0.612156C16.3364 0.122431 17.3139 0 17.6804 0C18.4746 0 19.1466 0.673372 19.8797 2.02012C20.9794 4.10145 21.6514 7.22344 21.7125 7.40709C22.2012 9.73328 22.6289 12.1819 22.8122 14.6305C22.9343 16.0385 23.0565 17.5077 23.0565 18.9768C23.0565 19.8951 23.1176 20.8133 23.0565 21.7928C22.9954 22.0988 22.8122 22.2825 22.5678 22.2825Z" transform="matrix(-1 0 0 1 376.68555 126.72015)" id="Path" fill="#000000" stroke="none" />
      <path d="M8.39032 13.9637C8.26813 13.9637 8.14595 13.9025 8.08486 13.8413L7.10739 12.8006C6.86302 12.4946 6.55756 12.1885 6.2521 11.8212C4.60262 9.8623 2.4644 7.47489 1.18147 5.33234C0.0207276 3.37344 -0.284732 2.0267 0.265095 1.04725C0.75383 0.312659 1.7313 -0.0546343 2.52549 0.0065813C3.13641 0.0677969 3.74733 0.312659 5.70227 2.88372L6.19101 3.49587C6.43537 3.80195 6.61865 4.10803 6.80193 4.29168L6.9852 4.53654C7.04629 4.59775 7.10739 4.72018 7.10739 4.84262C7.10739 5.08748 6.92411 5.33234 6.61865 5.33234C6.49647 5.33234 6.37428 5.27113 6.31319 5.20991C6.31319 5.20991 6.2521 5.14869 6.2521 5.14869L6.06882 4.84262C5.88555 4.59775 5.70227 4.35289 5.4579 4.04681L4.96917 3.43466C3.2586 1.29211 2.70877 0.924816 2.40331 0.924816C1.91458 0.8636 1.30366 1.10846 0.998198 1.53697C0.75383 1.96548 0.692738 2.88372 1.91458 4.84262C3.13641 6.86273 5.21354 9.25014 6.86302 11.209C7.16848 11.5763 7.47394 11.8824 7.7183 12.1273L8.69577 13.1679C8.87905 13.3516 8.87905 13.6577 8.69577 13.8413C8.63468 13.9025 8.5125 13.9637 8.39032 13.9637Z" transform="matrix(-1 0 0 1 381.01953 134.61041)" id="Path" fill="#000000" stroke="none" />
      <path d="M19.1828 2.7547L10.3856 2.57106L0.427643 2.38741C0.427643 2.38741 0.427643 2.38741 0.427643 2.32619C0.488735 2.32619 0.549827 2.32619 0.610919 2.32619C0.427643 2.14255 0.244368 1.89768 0 1.65282C4.09316 1.28553 14.9064 0.367294 19.1218 0C19.1828 0.918234 19.1828 1.83647 19.1828 2.7547Z" transform="matrix(-1 0 0 1 373.30078 145.75824)" id="Path" fill="#000000" stroke="none" />
      <path d="M30.901 9.91693C30.8399 9.97815 30.7177 9.97815 30.6566 10.0394C30.5955 10.0394 30.5955 10.1006 30.5344 10.1006C30.229 10.223 29.9235 10.3454 29.618 10.4679C29.1904 10.6515 28.7628 10.8352 28.3351 11.0188C27.9686 12.3043 27.5409 13.6511 27.1744 14.9366C26.8078 16.1609 26.5024 17.3852 26.1358 18.5483C25.7693 18.5483 24.1809 18.3647 23.8754 18.3035C24.3641 16.7119 23.9365 15.059 22.7757 14.0184C21.2485 12.6716 18.9881 13.1614 17.7662 13.8959C15.9945 14.9978 15.2614 17.1404 15.5058 18.9768C15.5669 19.2829 15.628 19.589 15.6891 19.8339C16.3 21.7315 17.8884 22.711 18.1328 22.8334C18.0717 22.9559 17.9495 23.0171 17.8884 23.1395C16.7887 24.425 15.5669 25.7106 14.3451 26.9961C12.6956 28.7101 11.1072 30.363 9.51881 31.9546C8.60243 31.8321 7.68605 31.6485 6.76968 31.526C6.34203 31.4648 5.91439 31.4036 5.48675 31.3424C3.83727 31.0975 2.12669 30.7915 0.477212 30.5466L0.477212 30.5466C0.355029 30.5466 0.232845 30.4854 0.110661 30.4854C-0.0726145 26.4452 -0.0115226 22.9559 0.171753 19.9563C0.355029 16.9567 0.72158 14.4469 1.08813 12.5492C1.21031 11.6922 1.39359 10.8964 1.63796 10.1006C1.88233 9.18234 2.24888 8.32533 2.7987 7.34588C5.97548 1.89768 12.0847 0.489725 12.8178 0.306078C13.0621 0.244863 14.3451 0 16.2389 0C19.1102 0 23.2645 0.612156 26.8078 3.55051C27.8464 4.40753 29.8624 6.12156 30.6566 9.05991C30.7788 9.30478 30.8399 9.67207 30.901 9.91693Z" transform="matrix(-1 0 0 1 447.82227 159.34808)" id="hair" fill="#000000" stroke="none" />
      <path d="M2.8127 1.96138C2.75161 1.96138 2.75161 1.96138 2.69052 1.96138C2.26287 1.83895 1.83523 1.71652 1.46868 1.53287C1.04104 1.34922 0.552302 1.04315 0.185751 0.798284C0.00247534 0.675852 -0.0586165 0.369774 0.0635672 0.186127C0.185751 0.00248036 0.49121 -0.0587353 0.674486 0.063696C1.04104 0.308558 1.40759 0.553421 1.83523 0.737068C2.20178 0.920715 2.56833 1.04315 2.93489 1.10436C3.17925 1.16558 3.30144 1.41044 3.24035 1.6553C3.17925 1.83895 2.99598 1.96138 2.8127 1.96138Z" transform="matrix(-1 0 0 1 430.91406 181.75055)" id="Path" fill="#000000" stroke="none" />
      <path d="M18.3276 39.3733C18.0832 39.3733 17.8388 39.1897 17.8388 38.8836L17.8388 34.17C17.8388 33.9251 18.0221 33.7415 18.3276 33.7415C18.4497 33.7415 18.5719 33.7415 18.6941 33.7415C20.7101 33.8027 24.4978 33.4966 27.3081 30.8031C29.7517 28.4157 30.1183 25.2937 30.607 21.3759C30.6681 20.825 30.7292 20.274 30.7903 19.7231C31.0347 16.5399 30.7903 13.2342 30.0572 9.98981C30.0572 9.98981 30.0572 9.98981 30.0572 9.9286C30.0572 9.9286 30.0572 9.9286 30.0572 9.9286C30.0572 9.80617 29.9961 9.68374 29.9961 9.50009C29.935 9.31644 29.8128 9.1328 29.6907 8.88793L29.6907 8.88793C29.6907 8.88793 29.3241 8.21456 28.9576 7.66362C28.3466 6.8066 27.0026 5.27621 26.0862 4.60284C25.4753 4.11311 19.977 -0.110765 13.1958 1.35841C8.00304 2.46029 5.2539 6.19445 3.84879 9.1328C3.66551 9.43887 3.54333 9.74495 3.48224 9.98981C2.9935 11.1529 2.74913 12.0711 2.62695 12.6833C2.2604 14.5198 1.89385 16.9072 1.64948 19.7231C1.34402 22.7227 1.16075 26.2732 1.03856 30.2522C1.03856 30.2522 1.03856 30.3134 1.03856 30.3134L0.916378 34.9658C0.916378 35.2107 0.672011 35.3943 0.427643 35.3943C0.183276 35.3943 0 35.1494 0 34.9046L0.122184 30.191C0.122184 30.191 0.122184 30.1298 0.122184 30.1298C0.244368 26.1507 0.488735 22.6002 0.733103 19.6007C0.97747 16.7235 1.34402 14.3361 1.77166 12.4384C1.89385 11.8263 2.19931 10.7856 2.68804 9.56131C2.81023 9.25523 2.93241 8.94915 3.11569 8.64307C4.58189 5.52107 7.57539 1.48084 13.0737 0.317744C20.2825 -1.21265 26.0862 3.25609 26.7582 3.74582C27.6746 4.48041 29.1408 6.07201 29.8128 7.05146C30.2405 7.66362 30.607 8.33699 30.607 8.39821C30.7292 8.70429 30.8514 8.88793 30.9736 9.07158C30.9736 9.07158 30.9736 9.1328 30.9736 9.1328C31.0347 9.31644 31.0347 9.43887 31.0958 9.62252L31.0958 9.62252C31.0958 9.62252 31.0958 9.68374 31.0958 9.68374C31.8289 12.9894 32.0732 16.3562 31.8289 19.6619C31.7678 20.2128 31.7067 20.825 31.6456 21.3759C31.1569 25.4774 30.7292 28.783 28.0412 31.3541C25.1088 34.2312 21.1378 34.5985 18.9385 34.5985L18.9385 38.8224C18.7552 39.1897 18.5719 39.3733 18.3276 39.3733Z" transform="matrix(-1 0 0 1 447.77148 159.45886)" id="Path" fill="#000000" stroke="none" />
      <path d="M5.62045 1.22431C5.62045 1.46918 5.55936 1.71404 5.55936 1.9589C5.43718 3.30564 5.37609 4.59117 5.31499 5.81549L5.31499 5.81549C4.70407 5.14211 4.15425 4.52996 3.54333 3.9178C2.38258 2.63227 1.16075 1.28553 0 0C1.09965 0.489725 2.50477 0.918234 4.15425 1.10188C4.64298 1.1631 5.13172 1.22431 5.62045 1.22431Z" transform="matrix(-1 0 0 1 434.75977 192.03723)" id="Path" fill="#000000" stroke="none" />
      <path d="M20.0381 30.1661C19.3661 30.1661 18.633 29.7988 18.2054 29.2479C17.5334 28.3297 17.7777 27.1666 18.3276 25.5749C18.633 24.7791 18.9996 23.8609 19.4883 22.6978L20.0381 21.4123C20.3436 20.6777 20.6491 19.8819 20.9545 19.0861C19.305 21.1062 18.0221 22.8202 17.0446 24.2282C16.9835 24.2894 16.3726 25.1464 15.5173 26.1259C13.0737 28.8806 12.0962 29.1255 11.6075 29.0642C10.6911 28.9418 10.0802 28.2684 9.7747 27.6563C9.53033 27.1666 9.40815 26.5544 9.53033 25.8198C9.7747 24.4731 10.6911 23.0651 11.2409 22.2693C11.8518 21.3511 12.4017 20.8001 12.4627 20.7389C13.6846 19.3922 14.9064 17.923 15.8839 16.6987C15.3952 17.1272 14.9064 17.6781 14.2955 18.2903C13.1958 19.3922 12.2184 20.2492 11.6075 20.8613C6.59792 25.5137 5.49827 25.6362 4.70407 25.3301C3.7877 25.024 3.23787 24.0446 3.11569 23.1875C2.93241 21.7796 4.15425 20.5553 5.86482 18.9024C6.29246 18.4739 6.65901 18.1679 6.65901 18.1679C7.81976 17.1272 9.89688 15.2295 12.7682 12.536C7.33103 15.3519 3.36005 17.3108 2.74913 17.4945C1.89385 17.7393 1.28293 17.4333 1.22184 17.4333C1.03856 17.3721 0.916378 17.2496 0.855286 17.1884C0.610919 17.0048 0.366551 16.5763 0.183276 16.1477C0.183276 16.1477 0.183276 16.1477 0.183276 16.1477C0.122184 15.9029 0 15.5968 0 15.2295C0.0610919 13.2706 2.74913 12.0463 3.84879 11.4954C10.2023 8.49579 16.9225 5.43501 23.7647 2.25179L24.3146 2.00693C24.6811 1.82328 24.9866 1.70085 25.3531 1.51721L28.5299 0.0480304C28.7743 -0.0744009 29.0186 0.0480304 29.1408 0.292893C29.263 0.537755 29.1408 0.782618 28.8965 0.905049L25.7197 2.37422C25.3531 2.55787 25.0477 2.6803 24.6811 2.86395L24.1313 3.10881C17.289 6.23081 10.5689 9.35281 4.21534 12.2912C3.29896 12.7197 0.916378 13.8215 0.855286 15.2295C0.855286 15.4132 0.916378 15.5968 0.97747 15.7804C0.97747 15.7804 0.97747 15.7804 0.97747 15.7804L0.97747 15.7804C1.09965 16.0865 1.28293 16.3314 1.40511 16.4538C1.40511 16.4538 1.46621 16.515 1.58839 16.5763C1.58839 16.5763 1.95494 16.7599 2.50477 16.5763C3.11569 16.3926 7.75867 14.0664 15.3341 10.0874C15.5173 9.96496 15.7617 10.0262 15.945 10.2098C16.0672 10.3935 16.0672 10.6383 15.8839 10.822C11.6685 14.801 8.79723 17.4945 7.26993 18.78C7.26993 18.78 6.96447 19.0249 6.53683 19.4534C5.00953 20.9838 3.97097 22.0244 4.03206 23.0039C4.09316 23.4936 4.45971 24.167 5.00953 24.3506C5.43718 24.4731 6.47574 24.2282 10.9965 20.0655C11.4242 19.637 12.2795 18.9024 13.6846 17.5557C15.0897 16.209 16.0672 15.2295 16.7392 14.5561C18.3276 12.9645 18.4497 12.9033 18.8163 13.2094C18.9385 13.2706 18.9996 13.4543 18.9996 13.5767C19.0607 14.3113 15.5173 18.9024 13.1958 21.3511C13.1958 21.3511 12.7071 21.902 12.0962 22.759C11.6075 23.4936 10.6911 24.7791 10.5078 25.9422C10.4467 26.432 10.4467 26.8605 10.63 27.1666C10.8133 27.5338 11.302 28.0236 11.7907 28.0848C11.8518 28.0848 12.5849 28.0848 14.9064 25.4525C15.7617 24.4731 16.4337 23.616 16.4337 23.616C17.7166 21.7796 19.6716 19.2697 22.1764 16.209C22.2985 16.0253 22.5429 15.9641 22.7873 16.0865C22.9705 16.209 23.0927 16.4538 22.9705 16.6375C22.2985 18.4127 21.6265 20.0655 21.0156 21.6571L20.4658 22.9427C19.977 24.1058 19.6105 25.024 19.3661 25.8198C18.8163 27.4114 18.7552 28.146 19.1218 28.6357C19.3661 29.003 19.7938 29.1867 20.2214 29.1867C20.7712 29.1867 21.3822 28.6969 21.932 27.7175C22.1764 27.3502 22.3596 26.9217 22.5429 26.6156L22.6651 26.3095C22.8484 26.0035 22.9705 25.6974 23.1538 25.3913C23.1538 25.3913 23.1538 25.3301 23.2149 25.3301C24.0702 23.616 24.9866 21.902 25.7808 20.188C26.2084 19.2697 26.6972 18.3515 27.1248 17.4333C27.1859 17.3108 27.3081 17.1884 27.4913 17.1884C29.1408 17.066 30.7903 16.6987 32.3176 16.1477C34.578 15.3519 36.6551 14.1276 38.4879 12.4748C39.5875 11.4954 40.6261 10.3935 41.5425 9.16916C41.6647 8.98551 41.9701 8.9243 42.1534 9.10794C42.3367 9.23038 42.3978 9.53645 42.2145 9.7201C41.2981 11.0056 40.1985 12.1687 39.0377 13.1482C37.0828 14.8622 34.9446 16.1477 32.562 16.9435C31.0347 17.4945 29.3852 17.8618 27.7357 18.0454C27.3081 18.9024 26.9415 19.7595 26.5139 20.5553C25.6586 22.2693 24.8033 23.9833 23.948 25.6974L23.5204 25.5749L23.948 25.7586C23.7647 26.0647 23.6426 26.3708 23.4593 26.738L23.3371 27.0441C23.1538 27.4114 22.9095 27.8399 22.6651 28.2684C21.8098 29.4927 21.0156 30.1049 20.0381 30.1661C20.0992 30.1661 20.0992 30.1661 20.0381 30.1661Z" transform="matrix(-1 0 0 1 84.458984 251.98047)" id="Shape" fill="#000000" fill-rule="evenodd" stroke="none" />
      <path d="M1.5273 7.40709C2.50477 5.99913 4.21534 3.73415 7.26993 0C6.53683 1.89768 5.86482 3.61172 5.31499 5.01968C4.58189 6.79493 4.03206 8.14168 3.66551 9.18234C2.44368 9.18234 1.22184 9.24356 0 9.24356C0.855286 8.26411 1.5273 7.40709 1.5273 7.40709Z" transform="matrix(-1 0 0 1 69.30859 268.4956)" id="Path" fill="#000000" stroke="none" />
      <path d="M2.74913 5.14211C2.07712 5.14211 1.34402 5.14211 0.672011 5.20333C0.488735 5.20333 0.305459 5.20333 0.0610919 5.20333L0 5.20333C0 5.20333 0 5.14211 0.0610919 5.14211C0.916378 3.42808 1.77166 1.71404 2.62695 0C2.62695 1.71404 2.68804 3.42808 2.74913 5.14211Z" transform="matrix(-1 0 0 1 60.939453 272.35217)" id="Path" fill="#000000" stroke="none" />
      <path d="M128.537 17.2016C114.853 8.01925 102.451 5.0809 98.9688 4.34631C96.2808 3.79537 92.7375 2.99957 88.5221 2.50984L88.5221 0C84.429 0.122431 80.1525 0.183647 75.8761 0.183647C71.4775 0.183647 67.14 0.122431 62.9246 0L62.9246 4.7136C61.825 5.0809 60.7253 5.44819 59.5646 5.8767C55.2271 7.52952 48.3848 10.774 38.9766 19.0993C26.7582 29.9344 17.3501 43.0958 13.9289 48.0543C11.2409 42.5449 8.55286 36.913 5.86482 31.1588C3.84879 26.8124 1.89385 22.5886 0 18.3035C0.0610919 19.9563 0.97747 44.1977 1.03856 45.8505C1.09965 47.687 2.07712 72.8466 2.13822 74.6831C2.87132 75.5401 3.97097 76.642 5.55936 77.5602C5.55936 77.5602 6.72011 78.4172 8.06413 78.7845C19.0607 81.6004 33.2951 65.9904 39.3432 59.3179C41.3592 57.1142 42.9476 55.1553 43.9862 53.7473C42.8865 61.6441 41.7868 69.6022 40.6872 77.6214C39.1599 88.5178 37.5715 99.2917 35.922 109.943C56.2656 109.515 76.5481 109.147 96.8917 108.719C97.075 107.495 97.9914 106.148 98.5412 105.352C99.091 104.556 99.5798 104.005 99.7019 103.944C102.634 100.822 105.506 96.5983 105.383 96.4758C105.261 96.4146 104.223 97.5777 100.863 100.822C99.3354 102.291 98.5412 103.026 98.1747 103.393C93.2873 107.923 92.3098 107.984 91.76 107.74C91.0269 107.495 90.5382 106.638 90.4771 106.025C90.3549 104.862 91.4545 103.76 93.104 102.108C93.5317 101.679 93.8371 101.434 93.8371 101.434C95.059 100.332 97.6248 98.0062 102.451 93.4763C95.4255 97.1492 90.2327 99.7815 89.5607 99.9651C88.8276 100.149 88.3389 99.9039 88.3389 99.9039C88.2167 99.8427 88.0945 99.7815 88.0945 99.7203C87.9112 99.5366 87.6668 99.2305 87.5447 98.8632C87.5447 98.8632 87.4225 98.4959 87.4225 98.1286C87.4836 96.4758 89.9883 95.2515 91.0269 94.823C94.1426 93.3538 101.29 90.0482 110.943 85.6407C111.493 86.008 112.043 86.4365 112.592 86.8038C113.692 87.5996 114.792 88.3954 115.952 89.13C119.251 91.4561 122.55 93.6599 125.788 95.7412C128.11 97.2716 130.431 98.7408 132.692 100.149C137.884 93.966 145.215 84.1103 151.508 70.5204C155.234 62.5012 157.067 58.3997 157.067 53.4412C156.945 36.3009 138.556 23.9353 128.537 17.2016ZM123.1 66.9087C119.496 71.1938 115.891 75.234 112.348 79.0906L111.798 62.1951C111.615 55.7674 111.37 48.544 111.187 42.1164C114.853 43.9528 118.579 45.8505 122.306 47.8094C126.155 49.8295 129.942 51.7884 133.73 53.8085C130.37 58.0936 126.827 62.4399 123.1 66.9087Z" transform="matrix(-1 0 0 1 171.51562 169.08136)" id="tshirt_1_" fill="none" stroke="#000000" stroke-width="1" />
      <path d="M14.6621 36.9236C14.4177 36.9236 14.2344 36.7399 14.2344 36.5563C14.1122 35.9441 13.99 35.332 13.8679 34.7198C10.7522 34.9647 7.94194 34.3525 5.68154 32.8221C0 29.088 0 21.4972 0 18.9874C0 17.2734 0.244368 12.8658 2.32149 8.70318C2.38258 8.64196 2.38258 8.58075 2.44368 8.51953C3.90988 5.58118 6.0481 3.3162 8.79723 1.90824C9.53033 1.54095 15.8228 -1.64226 21.6265 1.11244C25.6586 3.07134 28.2244 7.234 29.9961 14.7023L30.0572 15.0084C30.1183 15.2533 29.9961 15.4981 29.7517 15.5593C29.5074 15.6205 29.263 15.4981 29.2019 15.2533L29.1408 14.886C27.4303 7.72373 25.0477 3.6835 21.26 1.90824C15.8839 -0.662812 9.89688 2.33675 9.22487 2.64283C6.65901 3.98958 4.64298 6.13212 3.23787 8.88683C3.17678 8.94804 3.17678 9.00926 3.17678 9.00926C1.22184 12.9883 0.97747 17.2734 0.97747 18.9262C0.97747 21.3136 0.97747 28.4758 6.23137 31.9651C8.43068 33.3731 11.1798 33.9852 14.2344 33.6792C14.4788 33.6792 14.6621 33.8016 14.7231 34.0464C14.8453 34.781 15.0286 35.5768 15.1508 36.3114C15.2119 36.5563 15.0286 36.8012 14.7842 36.8624C14.7231 36.9236 14.7231 36.9236 14.6621 36.9236Z" transform="matrix(-1 0 0 1 119.2207 132.70874)" id="Path" fill="#000000" stroke="none" />
      <path d="M5.33056 11.4013C5.20838 11.4013 5.14729 11.4013 5.0251 11.4013C4.78073 11.4013 4.59746 11.1565 4.59746 10.9116C4.59746 10.6667 4.84183 10.4831 5.08619 10.4831C5.69711 10.4831 6.24694 10.4219 6.79677 10.2382C8.69061 9.50364 10.7066 6.9938 9.72918 4.11667C9.30153 2.89236 8.44625 1.97412 7.2855 1.42318C6.12476 0.87224 4.84183 0.811024 3.61999 1.23953C2.94798 1.4844 2.39815 1.85169 2.33706 1.91291C1.42068 2.64749 1.05413 3.62694 0.870855 4.17788C0.809763 4.42275 0.565395 4.54518 0.321028 4.48396C0.0766602 4.42275 -0.0455236 4.17788 0.0155683 3.93302C0.198844 3.32086 0.626487 2.09655 1.78723 1.17832L1.78723 1.17832C2.21488 0.749808 3.25344 0.382515 3.31453 0.321299C4.71964 -0.168426 6.30803 -0.107211 7.65205 0.566161C8.99607 1.23953 10.0346 2.40263 10.5845 3.81059C11.7452 7.17745 9.36263 10.177 7.16332 11.034C6.5524 11.3401 5.94148 11.4013 5.33056 11.4013Z" transform="matrix(-1 0 0 1 97.12109 146.84485)" id="Path" fill="#000000" stroke="none" />
      <path d="M28.3466 16.7121C27.9801 16.4673 25.4753 15.1205 23.0316 16.0388C21.8709 16.4673 21.0767 17.3243 21.0767 17.3243C20.4047 18.0589 20.1603 18.8547 20.0381 19.2832C18.4497 16.8958 16.8614 14.5084 15.273 12.121C13.5624 11.6312 12.2795 10.9579 11.4853 10.5294C8.79723 8.99897 6.41465 6.55034 6.41465 6.55034C5.86482 7.1625 5.07063 7.77466 4.15425 8.44803C2.56586 9.4887 1.03856 9.9172 0 10.1621C0.366551 8.93775 1.83276 4.71388 6.0481 2.0816C10.6911 -0.856746 16.3726 -0.428236 20.4658 1.77553C25.7197 4.53023 28.8354 10.4681 28.3466 16.7121Z" transform="matrix(-1 0 0 1 116.77734 131.43347)" id="hair_1_" fill="#000000" stroke="none" />
      <path d="M2.07712 0L2.32149 6.42764L0 2.02012L2.07712 0Z" transform="matrix(-1 0 0 1 89.58984 155.18542)" id="Path" fill="#000000" stroke="none" />
      <path d="M2.45552 13.9078C2.21115 13.9078 2.02787 13.7242 2.02787 13.5405C1.60023 10.9695 1.23368 8.39841 0.806035 5.82735L0.622759 4.72547C0.439484 3.31751 0.195116 1.90955 0.0118405 0.50159C-0.0492514 0.256727 0.134024 0.0118645 0.378392 0.0118645C0.622759 -0.0493511 0.867127 0.134296 0.867127 0.379158C1.0504 1.78712 1.29477 3.19508 1.47805 4.60304L1.66132 5.70492C2.02787 8.27597 2.45552 10.847 2.88316 13.4181C2.94425 13.663 2.76097 13.9078 2.51661 13.969C2.45552 13.9078 2.45552 13.9078 2.45552 13.9078Z" transform="matrix(-1 0 0 1 88.50195 155.72449)" id="Path" fill="#000000" stroke="none" />
      <path d="M21.8216 158.059C21.5773 158.059 21.394 157.875 21.394 157.691C19.8667 147.407 18.2172 136.511 16.5066 125.308C16.5066 125.308 16.5066 125.308 16.5066 125.308L16.1401 122.86C16.1401 122.86 16.1401 122.86 16.1401 122.86C13.5131 105.903 10.764 88.7014 7.89269 71.6835L7.46505 69.0512C7.28177 68.0718 7.15959 67.0923 6.97631 66.1741C4.77701 53.1352 2.51661 39.9738 0.0118405 25.7718C-0.0492514 25.5269 0.134024 25.2821 0.378392 25.2208C0.622759 25.1596 0.867127 25.3433 0.928219 25.5881C3.43299 39.7289 5.69339 52.9515 7.89269 65.9904C8.07597 66.9699 8.19815 67.9493 8.38143 68.8676L8.80907 71.4999C11.6193 88.5178 14.4295 105.719 17.0565 122.676C17.0565 122.676 17.0565 122.676 17.0565 122.676L17.423 125.125C17.423 125.125 17.423 125.125 17.423 125.125C19.1336 136.144 20.7831 146.918 22.2493 157.141L31.7796 157.079C32.7571 157.079 33.6735 157.079 34.5898 157.079C38.3164 157.079 41.982 157.018 45.7086 157.018L51.3901 156.957L39.9659 0.489725C39.9659 0.244863 40.1492 0 40.3936 0C40.6379 0 40.8823 0.183647 40.8823 0.428509L52.3676 157.385C52.3676 157.508 52.3065 157.63 52.2454 157.753C52.1843 157.875 52.0621 157.875 51.9399 157.875L45.7697 157.936C42.0431 157.936 38.3775 157.998 34.6509 157.998C33.7346 157.998 32.7571 157.998 31.8407 157.998L21.8216 158.059C21.8216 158.059 21.8216 158.059 21.8216 158.059Z" transform="matrix(-1 0 0 1 100.7207 277.06567)" id="Path" fill="#000000" stroke="none" />
      <path d="M28.5299 157.336L0.488735 157.336C0.366551 157.336 0.244368 157.275 0.122184 157.152C0.0610919 157.03 0 156.908 0 156.785L30.9125 0.379158C30.9736 0.134296 31.218 -0.0493511 31.4623 0.0118645C31.7067 0.0730801 31.89 0.317943 31.8289 0.562805L0.97747 156.418L28.1023 156.418L28.2855 155.806L51.5615 82.959C51.5615 82.959 51.5615 82.959 51.5615 82.959L62.7414 47.9437C62.8025 47.6988 63.0468 47.5764 63.2912 47.6376C63.5356 47.6988 63.6577 47.9437 63.5966 48.1886L52.4168 83.2039C52.4168 83.2039 52.4168 83.2039 52.4168 83.2039L52.1725 83.9385L28.8354 156.969C28.8965 157.214 28.7743 157.336 28.5299 157.336Z" transform="matrix(-1 0 0 1 159.60156 277.60486)" id="Path" fill="#000000" stroke="none" />
      <path d="M5.8694 27.6162C5.68613 27.6162 5.44176 27.6162 5.25848 27.555C4.46429 27.3713 3.79228 26.8816 3.18136 26.0858C2.63153 25.3512 2.1428 24.3718 1.71515 23.3923L1.65406 23.2699C0.493317 20.8213 -0.05651 18.3726 0.00458189 16.1077C0.0656738 12.8632 1.4097 9.49638 3.67009 6.55803C5.62503 4.1094 8.19089 2.08929 10.94 0.987406C11.3066 0.803759 11.6731 0.681328 12.1008 0.558897C14.5444 -0.236907 17.3547 -0.0532598 22.4253 0.314034C24.6246 0.436465 26.2741 0.681328 27.3127 1.41592C27.6792 1.66078 27.9847 2.02807 28.1679 2.39537C28.4734 3.12995 28.5956 4.23183 27.9847 4.96642C29.1454 5.33372 29.9396 6.12952 30.184 7.10897C30.3672 7.96599 30.0618 8.88422 29.4509 9.55759C29.0232 10.0473 28.4123 10.2922 27.6792 10.4146C27.0072 10.4758 26.2741 10.4146 25.3577 10.3534C24.7468 10.2922 24.0748 10.231 23.2806 10.231C21.0813 10.1698 18.882 10.3534 17.1103 10.537C19.1874 10.8431 21.3256 11.2716 23.4639 11.7001C25.4188 12.1287 27.0683 12.4959 28.1068 13.1081C28.1068 13.1081 28.1679 13.1081 28.1679 13.1693C28.7178 13.5366 29.0843 13.9651 29.2676 14.5161C29.5731 15.3731 29.2676 16.475 28.5956 17.1483C28.5345 17.2095 28.4734 17.2708 28.4123 17.2708C28.4123 17.2708 28.3512 17.2708 28.3512 17.332C27.4959 17.9441 26.3963 17.7605 24.8079 17.5156C23.1584 17.2708 21.57 17.0259 20.1649 16.8423C18.8209 16.6586 17.6601 16.475 16.7438 16.3525C18.6376 17.0871 20.3482 17.5768 21.7533 17.9441C24.3192 18.6175 25.9686 19.1072 26.3963 20.454C26.4574 20.6376 26.7017 21.3722 26.3352 22.0456C25.9075 22.7802 24.9301 22.9638 24.5635 23.025C21.6922 23.4535 14.3001 21.0049 12.223 20.2703C12.0397 21.8007 11.4899 23.2087 10.6346 24.3718C10.3902 24.8615 8.31308 27.6162 5.8694 27.6162ZM16.4994 0.864975C14.8499 0.864975 13.567 0.987406 12.4062 1.3547C12.0397 1.47713 11.6731 1.59956 11.3066 1.78321C8.67963 2.88509 6.23595 4.72156 4.4032 7.10897C2.20389 9.86367 0.982052 13.0469 0.92096 16.1077C0.859868 18.2502 1.4097 20.5152 2.44826 22.8414L2.50935 22.9638C2.93699 23.9433 3.36464 24.8615 3.91446 25.5349C4.4032 26.2082 4.89193 26.5755 5.50285 26.698C7.64107 27.1265 9.84037 24.1269 10.0847 23.7596C10.94 22.5353 11.4288 21.0661 11.5509 19.5357C11.5509 19.4133 11.612 19.2909 11.7342 19.1684C11.8564 19.1072 11.9786 19.046 12.1619 19.1072C12.284 19.1684 21.5089 22.4741 24.5635 21.9844C24.8079 21.9232 25.4188 21.8619 25.6632 21.4334C25.8464 21.0661 25.6632 20.5764 25.6632 20.5764C25.3577 19.6582 23.7693 19.2297 21.6311 18.6787C20.0427 18.2502 18.0878 17.6993 15.9496 16.8423C15.3386 16.5974 14.7277 16.3525 14.3612 16.1689C14.1779 16.1077 14.0557 16.0465 13.9335 15.9852L13.8113 15.924C13.6281 15.8016 13.5059 15.6179 13.567 15.3731C13.6281 15.1894 13.8113 15.0058 14.0557 15.0058L14.7277 15.067C15.2165 15.1282 16.0717 15.1894 17.0492 15.3119C17.9656 15.4343 19.1874 15.6179 20.5315 15.8628C21.9366 16.1077 23.525 16.3525 25.1744 16.5362C26.6406 16.7198 27.4959 16.8423 28.0458 16.5362C28.0458 16.5362 28.0458 16.5362 28.1068 16.475C28.1679 16.475 28.1679 16.4137 28.229 16.4137C28.6567 15.9852 28.8399 15.3119 28.6567 14.6997C28.5345 14.3324 28.2901 14.0876 27.9236 13.8427C27.9236 13.8427 27.8625 13.8427 27.8625 13.7815C26.9461 13.2305 25.3577 12.8632 23.586 12.4959C20.8369 11.945 18.1489 11.4553 15.4608 11.088C15.0943 11.0268 14.7277 10.9656 14.3612 10.9656C14.1168 10.9656 13.9946 10.7819 13.9335 10.537C13.9335 10.2922 14.0557 10.1085 14.3001 10.0473C14.3001 10.0473 14.6666 9.9861 15.3997 9.86367C17.4158 9.49638 20.4704 9.12909 23.6471 9.25152C24.4413 9.25152 25.1133 9.31273 25.7243 9.37395C26.6406 9.43516 27.3127 9.49638 27.8625 9.43516C28.4123 9.37395 28.7789 9.1903 29.0843 8.88422C29.512 8.45571 29.6952 7.78234 29.5731 7.29262C29.3898 6.49681 28.5956 5.88466 27.4959 5.70101C27.3737 5.70101 27.2516 5.63979 27.1294 5.63979C27.0683 5.63979 27.0683 5.63979 27.0072 5.57858C26.3963 5.70101 25.4799 5.63979 23.9526 5.63979L23.2806 5.63979C21.9366 5.57858 21.2646 5.57858 20.898 5.57858C18.882 5.45615 16.7438 5.51736 14.4834 5.88466C14.239 5.94587 13.9946 5.76222 13.9946 5.51736C13.9335 5.2725 14.1168 5.02764 14.3612 5.02764C16.6827 4.72156 18.882 4.59913 20.9591 4.72156C21.2646 4.72156 21.9977 4.78277 23.2806 4.78277L23.9526 4.78277C25.9686 4.84399 26.885 4.84399 27.3127 4.59913C27.3737 4.53791 27.4348 4.53791 27.4959 4.4767C27.8014 4.1094 27.8625 3.37482 27.557 2.82387C27.4348 2.57901 27.2516 2.39537 27.0072 2.21172C26.0908 1.59956 24.3802 1.41592 22.6086 1.29348C19.9816 0.987406 18.0878 0.864975 16.4994 0.864975Z" transform="matrix(-1 0 0 1 200.66016 154.68774)" id="Shape" fill="#000000" stroke="none" />
      <path d="M60.0377 85.5026C59.8544 85.5026 59.6711 85.3802 59.6101 85.1965C55.5169 72.2188 49.7743 59.8532 42.6265 48.5283C35.3566 37.081 20.2669 13.2681 0.228748 0.841368C-0.0156192 0.718937 -0.076711 0.412859 0.106565 0.229212C0.228748 -0.0156508 0.534208 -0.0768664 0.717483 0.10678C20.9389 12.5948 36.0897 36.5301 43.3596 48.0386C50.5685 59.4247 56.3111 71.8515 60.4653 84.8904C60.5264 85.1353 60.4042 85.3802 60.1599 85.4414C60.1599 85.5026 60.0988 85.5026 60.0377 85.5026Z" transform="matrix(-1 0 0 1 180.60156 94.16907)" id="Path" fill="#000000" stroke="none" />
      <path d="M48.8872 120.708C40.0289 120.708 30.9262 118.382 23.0453 114.097C14.0037 109.2 7.28361 102.16 3.557 93.7732C-0.291784 85.1418 -0.230692 78.0408 0.196951 74.6127C1.66316 61.8798 8.19999 46.2699 17.7914 32.9249C32.0869 12.9073 50.2923 0.970296 67.7035 0.0520615C71.369 -0.131585 75.0345 0.174493 78.7 0.90908C80.5939 1.27637 82.5488 1.82731 84.5037 2.50069C86.2143 3.11284 87.9249 3.78621 89.6355 4.58202C89.8798 4.70445 89.9409 4.94931 89.8798 5.19417C89.7576 5.43904 89.5133 5.50025 89.2689 5.43904C87.6194 4.64323 85.9089 3.96986 84.1983 3.41892C82.3044 2.74555 80.4106 2.19461 78.5167 1.82731C74.9123 1.09273 71.3079 0.786649 67.7646 0.970296C50.6588 1.82731 32.6978 13.7031 18.5856 33.4146C9.11637 46.6984 2.57953 62.1247 1.11333 74.6739C0.80787 77.3674 0.502411 84.6521 4.41229 93.3447C8.0778 101.548 14.6757 108.404 23.534 113.179C31.7815 117.647 41.3729 119.973 50.5367 119.667C64.4045 119.239 74.9734 112.995 81.3881 107.792C81.5713 107.608 81.8768 107.669 82.0601 107.853C82.2433 108.036 82.1823 108.343 81.999 108.526C75.4621 113.791 64.6489 120.157 50.5977 120.586C49.9868 120.708 49.437 120.708 48.8872 120.708Z" transform="matrix(-1 0 0 1 275.9961 86.08215)" id="Path" fill="#000000" stroke="none" />
      <path d="M20.731 145.696C20.5478 145.696 20.3645 145.574 20.3034 145.39C17.9208 139.024 15.7215 132.535 13.8277 126.107L13.7666 125.985C10.2232 114.048 4.90824 96.1118 1.97583 77.0126C-2.85043 45.2416 1.18164 22.7755 13.8887 10.3487C17.4321 6.85944 22.014 3.85987 26.3515 2.0234C31.7276 -0.180358 36.7371 -0.608868 40.8914 0.860307C44.0681 1.96219 46.8784 4.22717 49.3831 7.71646C49.5053 7.9001 49.5053 8.20618 49.2609 8.32861C49.0777 8.45105 48.7722 8.45105 48.65 8.20618C46.2674 4.90054 43.6405 2.75799 40.647 1.71733C32.2774 -1.22102 21.2198 4.47203 14.5608 11.0221C2.03692 23.2652 -1.87296 45.4253 2.89221 76.8901C5.76353 95.9282 11.1396 113.864 14.6218 125.74L14.6829 125.863C16.5768 132.29 18.7761 138.718 21.1587 145.084C21.2198 145.329 21.0976 145.574 20.9143 145.696C20.8532 145.635 20.7921 145.696 20.731 145.696Z" transform="matrix(-1 0 0 1 484.99805 76.397644)" id="Path" fill="#000000" stroke="none" />
      <path d="M107.437 355.927C96.0742 355.927 86.4217 352.989 79.7016 347.357C76.2804 344.48 73.2869 340.624 71.1487 336.338C69.3159 332.666 68.1552 328.748 67.7886 324.952C67.4832 321.647 67.7276 318.525 68.5217 315.586C71.0876 306.465 79.9459 298.324 92.7752 293.304C104.933 288.529 119.533 287.121 131.691 289.509C145.681 292.202 154.356 299.181 162.787 305.914C165.963 308.424 168.957 310.812 172.134 312.893C176.715 296.671 175.188 275.796 167.735 252.534C155.089 258.35 132.851 265.145 111.164 267.471C92.4698 269.491 67.4832 268.94 54.4095 254.616C53.5542 253.636 52.6989 252.657 51.9658 251.616C43.4741 239.679 45.5512 224.62 46.5287 217.335C46.5287 217.335 46.5287 217.335 46.5287 217.335C47.8116 207.908 51.416 198.358 56.6699 190.462C62.8402 181.157 71.0265 174.423 80.4347 171.056C84.7111 169.526 89.1708 168.608 93.6916 168.424C93.5694 165.547 93.6916 162.792 94.1192 160.16C94.6691 157.038 95.5854 154.1 96.9295 151.528C104.383 137.204 122.955 135.184 142.565 133.103C152.829 132.001 163.459 130.838 172.744 127.838C141.527 111.249 128.636 93.3124 121.733 81.1917C117.517 73.7846 113.974 65.7042 111.042 56.3994C97.7848 64.6635 89.0486 75.6211 86.9104 86.4563C85.5664 93.4961 87.277 98.8218 89.1708 104.454C91.309 110.881 93.5083 117.615 90.5148 126.92C85.7497 141.612 72.4927 150.549 62.5958 153.732C48.9113 158.14 31.1946 155.446 17.3878 146.815C9.81245 142.101 4.25309 135.919 1.80941 129.491C-2.83357 117.37 1.56505 99.1891 13.7834 79.4777C22.4585 65.4593 34.4936 51.6246 48.5447 39.5651C51.8437 36.688 55.3259 33.9333 58.8081 31.301C62.046 28.8524 65.345 26.5874 68.6439 24.4448C77.5023 18.6293 86.7271 13.7321 95.952 9.93673C93.8749 7.54932 91.3701 6.08015 88.3766 5.40677C80.8012 3.69274 73.7146 8.10026 66.2613 12.8139C66.017 12.9363 65.7726 12.8751 65.6504 12.6914C65.5282 12.5078 65.5893 12.2017 65.7726 12.0793C73.4091 7.24324 80.679 2.71329 88.621 4.54976C91.9199 5.28434 94.608 6.99838 96.8684 9.63065C113.302 2.95815 129.614 -0.286279 145.314 0.0197993C151.851 0.142231 158.693 0.876818 165.597 2.22356C188.323 6.63109 211.599 17.5275 226.322 30.6276C226.505 30.8113 226.505 31.0561 226.383 31.301C226.2 31.4846 225.956 31.4846 225.711 31.3622C211.11 18.3845 187.956 7.54932 165.413 3.1418C158.571 1.79505 151.79 1.06047 145.314 0.938034C129.797 0.631956 113.73 3.81517 97.4793 10.3652C101.756 15.9971 103.894 24.8121 106.582 35.8922C107.987 41.7076 109.575 48.2577 111.653 54.9914C122.894 48.1965 135.723 44.2175 148.002 43.7278C155.517 43.4217 162.664 44.4623 169.14 46.7885C175.555 49.1147 191.133 56.2157 197.914 72.5603C197.914 72.6215 197.975 72.6827 198.037 72.8052C203.229 85.4156 202.374 100.781 195.837 111.861C191.5 119.268 184.718 124.532 175.188 128.022C183.374 132.246 191.439 135.796 199.258 139.224C215.753 146.448 229.988 152.692 237.563 162.364C240.801 166.465 242.573 170.873 243.122 175.892C243.672 180.912 242.817 186.115 240.618 191.319C240.618 191.319 240.618 191.319 240.618 191.38C235.975 202.276 225.894 212.071 217.464 219.417C236.585 246.045 243.367 290.794 223.39 308.853C217.342 314.362 205.673 320.116 195.104 320.545C189.545 320.79 184.474 319.504 184.413 319.504C180.503 318.525 176.777 316.872 172.806 314.423C171.095 320.055 168.59 325.136 165.413 329.421C155.578 342.827 136.212 353.05 116.051 355.499C113.058 355.744 110.186 355.927 107.437 355.927ZM119.595 289.264C110.675 289.264 101.389 290.916 93.2029 294.161C80.6179 299.058 72.004 306.955 69.4992 315.831C68.705 318.647 68.4607 321.647 68.7661 324.891C69.1327 328.564 70.2323 332.359 72.004 335.91C74.0811 340.134 76.9524 343.807 80.3125 346.623C88.4377 353.479 101.145 356.234 115.929 354.458C135.784 352.071 154.906 341.97 164.619 328.748C167.796 324.463 170.24 319.382 171.95 313.75C168.651 311.607 165.536 309.159 162.298 306.526C153.989 299.854 145.375 292.998 131.63 290.304C127.781 289.631 123.749 289.264 119.595 289.264ZM173.05 313.383C177.021 315.892 180.748 317.545 184.657 318.525C184.719 318.525 189.667 319.749 195.104 319.504C205.429 319.076 216.853 313.444 222.779 308.057C242.389 290.304 235.669 246.229 216.731 219.906C213.187 222.967 209.583 225.967 206.345 228.599C195.348 237.659 182.702 245.556 168.651 252.106C176.227 275.735 177.754 296.916 173.05 313.383ZM47.5061 217.397C47.5061 217.397 47.5061 217.458 47.5061 217.397C46.5287 224.559 44.5126 239.373 52.76 251.065C53.4931 252.045 54.2873 253.024 55.1426 254.003C67.9719 268.022 92.653 268.573 111.103 266.553C132.729 264.226 154.906 257.37 167.491 251.616C158.632 224.498 147.575 208.214 144.092 203.501C132.729 206.561 120.816 208.826 110.003 200.93C101.206 194.502 94.7302 181.769 93.7527 169.281C89.293 169.465 84.8944 170.383 80.7401 171.852C67.6665 176.627 51.0495 191.441 47.5061 217.397ZM145.07 203.256C148.796 208.398 159.671 224.62 168.346 251.249C182.275 244.76 194.86 236.924 205.734 227.926C208.972 225.293 212.576 222.233 216.12 219.172C210.927 212.071 204.696 204.847 194.554 200.256C179.465 193.339 164.741 197.624 150.507 201.725C148.735 202.215 146.903 202.766 145.07 203.256ZM177.387 195.604C183.191 195.604 189.056 196.644 194.982 199.338C205.245 204.051 211.599 211.275 216.853 218.498C225.161 211.214 235.119 201.603 239.701 190.89C239.701 190.89 239.701 190.89 239.701 190.829C241.9 185.687 242.695 180.79 242.145 175.831C241.595 170.995 239.884 166.71 236.769 162.792C229.377 153.365 215.203 147.121 198.831 139.959C190.767 136.408 182.458 132.735 173.966 128.328C164.436 131.572 153.439 132.735 142.748 133.898C123.382 135.98 105.116 137.939 97.8458 151.835C96.5629 154.283 95.6465 157.099 95.1578 160.16C94.7302 162.67 94.608 165.424 94.7302 168.24C96.624 168.179 98.5789 168.24 100.29 168.424C120.877 170.689 133.462 187.462 144.581 202.337C146.475 201.787 148.43 201.236 150.385 200.685C159.121 198.236 168.163 195.604 177.387 195.604ZM94.7302 169.22C95.6465 181.463 102 193.89 110.614 200.195C121 207.786 132.546 205.704 143.543 202.705C132.607 188.013 120.144 171.607 100.106 169.403C98.4568 169.281 96.624 169.159 94.7302 169.22ZM96.5629 10.7325C87.277 14.5279 78.0521 19.4252 69.1327 25.2406C65.8948 27.3832 62.5958 29.6482 59.358 32.0968C55.8757 34.7291 52.4546 37.4838 49.1556 40.2997C35.2267 52.298 23.2527 66.0715 14.5776 79.9674C2.54252 99.3728 -1.79501 117.309 2.72579 129.124C5.10838 135.368 10.4845 141.367 17.9377 145.958C31.5001 154.406 48.9723 157.099 62.3515 152.753C72.004 149.631 84.9555 140.877 89.6595 126.491C92.5919 117.431 90.4537 110.881 88.3155 104.576C86.4828 99.0667 84.5889 93.3736 85.994 86.089C88.1933 74.9477 97.1738 63.7453 110.736 55.2975C108.598 48.4414 107.01 41.8301 105.605 35.9534C102.978 24.9958 100.839 16.1807 96.5629 10.7325ZM111.897 55.8485C114.829 65.1532 118.312 73.2949 122.588 80.6408C137.067 105.862 158.816 119.39 174.027 127.348C183.802 123.981 190.644 118.717 194.982 111.31C201.397 100.475 202.191 85.4156 197.12 73.05C197.12 72.9888 197.059 72.9276 197.059 72.8664C190.4 56.8279 175.066 49.8493 168.835 47.5843C162.481 45.2581 155.455 44.2787 148.063 44.5236C135.784 45.0745 123.016 49.0535 111.897 55.8485Z" transform="matrix(-1 0 0 1 423.3125 116.59979)" id="Shape" fill="#000000" stroke="none" />
      <path d="M38.571 39.4109C36.4939 39.4109 34.4168 39.2273 32.2785 38.9212C27.6356 38.2478 16.8223 36.6562 9.61346 28.2085C5.88685 23.8009 5.03157 19.8831 3.87082 14.435C3.2599 11.7415 2.64899 8.61947 1.48824 4.94653C1.0606 3.59979 0.571862 2.13061 0.0220346 0.661439C-0.0390573 0.416576 0.0220346 0.171714 0.266402 0.0492823C0.51077 -0.0731489 0.755137 0.0492823 0.877321 0.232929C0.877321 0.232929 0.938413 0.294145 0.938413 0.35536C1.48824 1.82454 1.97697 3.29371 2.40462 4.64045C3.56536 8.37461 4.23737 11.4966 4.84829 14.1901C6.00904 19.5159 6.80323 23.3112 10.4077 27.5351C17.4332 35.738 28.0021 37.2684 32.5229 37.9418C37.8379 38.7376 42.9085 38.4927 48.0402 37.2684C49.4454 36.9623 50.9116 36.5338 52.2556 36.0441L52.5 35.9829L52.6832 36.4114L52.8054 36.8399L52.561 36.9011C51.1559 37.3908 49.6897 37.8193 48.2235 38.1866C44.9857 38.9824 41.8089 39.4109 38.571 39.4109Z" transform="matrix(-1 0 0 1 427.51172 101.87854)" id="Path" fill="#000000" stroke="none" />
      <path d="M34.4558 315.628C34.2114 315.628 34.0282 315.444 34.0282 315.26C32.0121 300.752 30.0572 286.183 28.2244 271.981C22.2985 226.804 16.8614 181.137 12.0351 136.205C10.9965 126.716 10.0191 117.105 9.0416 107.678C6.0481 78.7845 3.29896 49.4622 0.733103 20.6297C0.488735 17.1404 0.244368 13.7123 0 10.2842C0 10.0394 0.183276 9.7945 0.427643 9.7945C0.672011 9.7945 0.916378 9.97815 0.916378 10.223C1.16075 13.5899 1.40511 17.0792 1.64948 20.5072C4.21534 49.401 6.96447 78.6621 9.95798 107.556C10.9354 116.983 11.9129 126.594 12.9515 136.082C17.7777 181.015 23.2149 226.681 29.1408 271.859C30.6681 283.612 32.2565 295.61 33.906 307.67C33.906 307.547 33.906 307.425 33.906 307.364L33.906 307.241C33.906 307.058 33.6005 288.509 33.234 270.145C32.9285 254.779 29.7517 169.2 23.8258 15.9161C23.4593 10.0394 23.0927 4.34631 22.7873 0.0612156L23.2149 0L23.7036 0C24.0091 4.28509 24.3757 9.97815 24.7422 15.8548C30.6681 169.2 33.8449 254.718 34.1504 270.145C34.5169 288.509 34.8224 307.058 34.8224 307.241L34.8224 307.364C34.8835 309.996 34.8835 312.628 34.9446 315.199C34.8835 315.444 34.7002 315.628 34.4558 315.628C34.4558 315.628 34.4558 315.628 34.4558 315.628Z" transform="matrix(-1 0 0 1 195.64648 171.53003)" id="Path" fill="#000000" stroke="none" />
      <path d="M2.10824 97.3399C1.86387 97.3399 1.6806 97.1563 1.6806 96.9114C1.37514 91.5244 1.13077 87.1169 0.947497 83.0154C-0.274341 56.8764 -0.335433 36.614 0.886405 22.8405C1.86387 11.2095 3.69663 4.10851 6.44577 1.23137C7.48433 0.190708 8.4618 -0.237801 9.50036 0.129492C10.7833 0.558002 14.6932 1.78231 19.0918 30.0027C21.4133 44.9393 23.5515 65.7526 25.5675 91.7693C25.5675 92.0142 25.3842 92.259 25.1399 92.259C24.8955 92.259 24.6511 92.0754 24.6511 91.8305C22.6351 65.8139 20.4358 45.0618 18.1754 30.1252C14.6321 7.23051 11.3331 1.65988 9.25599 0.986511C8.58398 0.802864 7.85088 1.04773 7.11778 1.84353C4.55192 4.53702 2.78025 11.638 1.80278 22.9017C0.642037 36.614 0.642037 56.8152 1.86387 82.9542C2.04715 87.0557 2.29152 91.4632 2.59698 96.8502C2.59698 97.095 2.4137 97.3399 2.10824 97.3399C2.16933 97.3399 2.16933 97.3399 2.10824 97.3399Z" transform="matrix(-1 0 0 1 198.73242 64.64044)" id="Path" fill="#000000" stroke="none" />
      <path d="M6.47183 50.2581L2.86741 50.2581C2.62305 50.2581 2.43977 50.0744 2.43977 49.8908C1.09575 41.8715 0.301555 33.6686 0.0571871 25.5269C-0.0649967 20.0175 -0.00390479 13.8348 0.362646 8.93751C0.912473 0.0612396 1.88994 2.39407e-05 2.37868 2.39407e-05C2.86741 2.39407e-05 3.84488 -0.0611917 5.31109 8.57021C6.10528 13.4675 6.83839 19.6502 7.20494 25.1596L7.20494 25.1596C7.75476 33.3625 7.69367 41.6879 6.96057 49.8295C6.89948 50.0744 6.7162 50.2581 6.47183 50.2581ZM3.23396 49.3398L6.04419 49.3398C6.7162 41.3818 6.77729 33.2401 6.22747 25.2209L6.22747 25.2209C5.43327 13.5899 3.47833 2.32622 2.37868 0.979474C1.4623 2.38743 0.668106 13.5287 0.973565 25.4657C1.15684 33.485 1.88994 41.5042 3.23396 49.3398Z" transform="matrix(-1 0 0 1 192.2207 76.40088)" id="Shape" fill="#000000" stroke="none" />
      <path d="M0.733103 4.04023L0.244368 4.04023C0.183276 3.30564 0.122184 2.50984 0.0610919 1.71404L0 0.489725C0 0.244863 0.183276 0 0.427643 0C0.672011 0 0.916378 0.183647 0.916378 0.428509L0.97747 1.65282C1.03856 2.44863 1.09965 3.18321 1.16075 3.97902L0.733103 4.04023Z" transform="matrix(-1 0 0 1 173.4707 164.0617)" id="Path" fill="#000000" stroke="none" />
    </g>
    <g id="pattern_1_" transform="matrix(-0.9998477 -0.017452458 0.017452458 -0.9998477 151.27148 281.3811)">
      <path d="M0.5 98C0.222222 98 0 97.9097 0 97.8195L0 0.203085C0 0.0902602 0.222222 0 0.5 0C0.777778 0 1 0.0902602 1 0.203085L1 97.7969C0.944444 97.9097 0.722222 98 0.5 98Z" transform="translate(38 9)" id="Path" fill="#000000" stroke="none" />
      <path d="M0.495225 4C0.18571 4 0 3.92344 0 3.82775L0 0.172249C0 0.076555 0.247613 0 0.495225 0C0.742838 0 0.990451 0.076555 0.990451 0.172249L0.990451 3.82775C1.05235 3.92344 0.804741 4 0.495225 4Z" transform="translate(57 23)" id="Path" fill="#000000" stroke="none" />
      <path d="M0.495225 2C0.18571 2 0 1.92 0 1.84L0 0.18C0 0.08 0.247613 0 0.495225 0C0.742838 0 0.990451 0.08 0.990451 0.16L0.990451 1.82C1.05235 1.94 0.804741 2 0.495225 2Z" transform="translate(57 32)" id="Path" fill="#000000" stroke="none" />
      <path d="M0.495225 63C0.18571 63 0 62.9106 0 62.8213L0 0.178723C0 0.0670213 0.247613 0 0.495225 0C0.742838 0 0.990451 0.0893617 0.990451 0.178723L0.990451 62.7989C1.05235 62.9106 0.804741 63 0.495225 63Z" transform="translate(57 44)" id="Path" fill="#000000" stroke="none" />
      <path d="M0.495225 95C0.18571 95 0 94.9111 0 94.8222L0 0.2C0 0.0888889 0.247613 0 0.495225 0C0.742838 0 0.990451 0.0888889 0.990451 0.2L0.990451 94.8222C1.05235 94.9333 0.804741 95 0.495225 95Z" transform="translate(76 10)" id="Path" fill="#000000" stroke="none" />
      <path d="M66.823 1L0.199141 1C0.0885073 1 0 0.75 0 0.5C0 0.25 0.0885073 0 0.199141 0L66.823 0C66.9336 0 67 0.25 67 0.5C67 0.75 66.9336 1 66.823 1Z" transform="translate(23 96)" id="Path" fill="#000000" stroke="none" />
      <path d="M61.8225 1L0.199714 1C0.0887616 1 0 0.75 0 0.5C0 0.25 0.0887616 0 0.199714 0L61.8225 0C61.9334 0 62 0.25 62 0.5C62 0.75 61.9112 1 61.8225 1Z" transform="translate(27 77)" id="Path" fill="#000000" stroke="none" />
      <path d="M75.8211 1L0.201295 1C0.0894644 1 0 0.75 0 0.5C0 0.25 0.0894644 0 0.201295 0L75.8211 0C75.9329 0 76 0.25 76 0.5C76 0.75 75.9329 1 75.8211 1Z" transform="translate(30 57)" id="Path" fill="#000000" stroke="none" />
      <path d="M52.8008 1L0.199165 1C0.0885177 1 0 0.75 0 0.5C0 0.25 0.0885177 0 0.199165 0L52.8008 0C52.9115 0 53 0.25 53 0.5C53 0.75 52.9115 1 52.8008 1Z" transform="translate(0 38)" id="Path" fill="#000000" stroke="none" />
      <path d="M27.826 1L0.174048 1C0.0652681 1 0 0.75 0 0.5C0 0.25 0.0870241 0 0.174048 0L27.826 0C27.9347 0 28 0.25 28 0.5C28 0.75 27.9347 1 27.826 1Z" transform="translate(72 38)" id="Path" fill="#000000" stroke="none" />
      <path d="M19.8208 1L0.179171 1C0.0671893 1 0 0.777778 0 0.5C0 0.222222 0.0895857 0 0.179171 0L19.8208 0C19.9328 0 20 0.222222 20 0.5C20 0.777778 19.9328 1 19.8208 1Z" transform="translate(69.982544 17.000153)" id="Path" fill="#000000" stroke="none" />
      <path d="M25.818 1L0.204724 1C0.0909886 1 0 0.777778 0 0.5C0 0.222222 0.0909886 0 0.204724 0L25.7953 0C25.909 0 26 0.222222 26 0.5C26 0.777778 25.909 1 25.818 1Z" transform="translate(25 18)" id="Path" fill="#000000" stroke="none" />
      <path d="M19.8011 1L0.198895 1C0.0883978 1 0 0.777778 0 0.5C0 0.222222 0.0883978 0 0.198895 0L19.8011 0C19.9116 0 20 0.222222 20 0.5C20 0.777778 19.9116 1 19.8011 1Z" transform="translate(4 18)" id="Path" fill="#000000" stroke="none" />
      <path d="M18.807 1L0.193002 1C0.0857788 1 0 0.777778 0 0.5C0 0.222222 0.0857788 0 0.193002 0L18.807 0C18.9142 0 19 0.222222 19 0.5C19 0.777778 18.9142 1 18.807 1Z" transform="translate(15 0)" id="Path" fill="#000000" stroke="none" />
    </g>
  </g>
</svg>