<?xml version="1.0" encoding="utf-8"?>
<svg width="242px" height="216px" viewBox="0 0 242 216" version="1.1" xmlns:xlink="http://www.w3.org/1999/xlink" xmlns="http://www.w3.org/2000/svg">
  <defs>
    <path d="M0 0L241.284 0L241.284 203.546L0 203.546L0 0Z" transform="translate(0.00033026823 0.49525392)" id="path_1" />
    <clipPath id="mask_1">
      <use xlink:href="#path_1" />
    </clipPath>
  </defs>
  <g id="Icon">
    <g id="Group-3" transform="translate(0 11.000001)">
      <path d="M0 0L241.284 0L241.284 203.546L0 203.546L0 0Z" transform="translate(0.00033026823 0.49525392)" id="Clip-2" fill="none" fill-rule="evenodd" stroke="none" />
      <g clip-path="url(#mask_1)">
        <path d="M240.558 91.9013C232.843 150.27 186.51 223.464 121.637 198.534C67.431 177.704 -11.0865 144.907 1.30605 90.4715C14.353 33.1548 69.3796 84.3525 114.859 20.345C148.783 -27.4015 250.861 13.9379 240.558 91.9013" transform="translate(0.00033026823 0.49525392)" id="Fill-1" fill="#FFFFFF" fill-rule="evenodd" stroke="none" />
      </g>
    </g>
    <path d="M92.0526 80.4983C89.4776 94.6991 95.6651 103.558 87.6513 107.371C85.2029 108.56 81.5061 109.238 76.856 109.619C73.6189 109.875 69.922 110 65.8961 110C56.6782 110 45.8386 109.408 35.0011 108.857L43.2637 62.8205C43.2236 62.1015 43.1413 61.3802 43.0992 60.7021L43.0591 60.659C34.0457 52.5618 25.4099 44.6368 18.6847 37.431C10.5465 28.6965 5.2722 21.0686 0 13.3956L0.166601 13.2255L15.9031 0C22.6283 6.65473 28.6069 14.4118 36.705 18.0158C43.4303 21.0256 51.0707 21.9578 58.8778 22.5499C61.3684 22.0439 64.0656 21.7877 66.9337 21.7877C79.2222 21.7877 93.4655 26.4079 98.5732 34.7592C99.1532 35.7345 99.653 36.7528 99.9841 37.812C104.134 49.8513 94.3787 67.4429 92.0526 80.4983" transform="translate(72 100.000015)" id="Fill-4" fill="#58e2ff" fill-rule="evenodd" stroke="none" />
    <path d="M28.4218 43.99C25.9531 58.6245 31.8852 67.7544 24.2022 71.6837C21.8548 72.9084 18.3105 73.6073 13.8523 74C-9.0776 45.1681 0.916445 24.5942 12.0609 38.1792C23.7634 52.421 22.6898 31.1504 15.8418 18.0402C10.6901 8.1781 20.12 13.1147 26.2341 18.9742C31.2706 23.7999 32.4433 4.67256 36.026 0C40.005 12.4069 30.6519 30.5359 28.4218 43.99" transform="translate(135 138.00002)" id="Fill-6" fill="#58e2ff " fill-rule="evenodd" stroke="none" />
    <path d="M42.8196 48C33.8584 39.8061 25.2706 31.7865 18.5807 24.4924C10.4878 15.6558 5.24287 7.93464 0 0.172113L0.165675 0C4.62421 0.642702 11.3141 7.76471 16.104 13.427C21.4706 19.817 16.9282 22.6492 28.4478 23.4205C38.7322 24.1068 47.1963 38.3922 42.8196 48" transform="translate(71 114.000015)" id="Fill-8" fill="#58e2ff" fill-rule="evenodd" stroke="none" />
    <path d="M2.89881 0C14.1149 6.1 25.3309 12.2 34.9805 23.5012C44.6301 34.8024 52.7132 51.307 47.214 60.9229C41.7126 70.5411 22.629 73.2683 3.54529 76L0 62.7977C11.3507 57.2374 22.7015 51.6771 22.2228 46.3283C21.7442 40.9773 9.43409 35.84 4.24358 28.1539C-0.946931 20.4677 0.973868 10.2328 2.89881 0" transform="translate(153 125.000015)" id="Fill-10" fill="#58e2ff" fill-rule="evenodd" stroke="none" />
    <path d="M2.39641 0L2.39641 0C1.53088 0 0.808528 0.375388 0.389653 1.04446C-0.0313599 1.71133 -0.114708 2.61889 0.156707 3.56177L15.0995 55.436C15.3709 56.3811 15.9757 57.2865 16.7792 57.9556C17.5849 58.6224 18.5253 58.9978 19.3908 58.9978L50.6034 59C52.405 58.9978 53.4095 57.4035 52.841 55.436L37.9004 3.56177C37.334 1.5943 35.4128 0 33.6091 0L18.0038 0L2.39641 0L2.39641 0Z" transform="translate(80 156.00002)" id="Fill-12" fill="#F36C6C" fill-rule="evenodd" stroke="none" />
    <path d="M7.87325 4.00133C8.42231 6.21007 7.13684 8 4.99785 8C2.85886 8 0.678239 6.21007 0.126578 4.00133C-0.422481 1.7926 0.865596 0 3.00458 0C5.14097 0 7.32159 1.7926 7.87325 4.00133" transform="translate(97 164.00002)" id="Fill-14" fill="#FFFFFF" fill-rule="evenodd" stroke="none" />
    <path d="M2.95199 1.5C3.15956 2.32879 2.67456 3 1.87422 3C1.07189 3 0.253586 2.32879 0.0480124 1.5C-0.159557 0.671214 0.325437 0 1.12578 0C1.92612 0 2.74442 0.671214 2.95199 1.5" transform="translate(102 174.00002)" id="Fill-16" fill="#FFFFFF" fill-rule="evenodd" stroke="none" />
    <path d="M52.0254 60L20.2672 59.9978C19.2604 59.9978 18.1971 59.5877 17.2773 58.838C16.3662 58.0971 15.6964 57.1071 15.3855 56.0531L0.181567 4.25122C-0.140255 3.14432 -0.0315315 2.09254 0.485994 1.28771C1.00787 0.469663 1.9168 0 2.97359 0L34.734 0C36.8236 0 38.9633 1.73092 39.6113 3.94252L44.3669 20.1338L43.3384 20.4447L38.5828 4.25122C38.0827 2.53353 36.3213 1.08486 34.734 1.08486L2.97359 1.08486C2.27559 1.08486 1.71022 1.36709 1.38188 1.87865C1.03831 2.41447 0.97525 3.14652 1.21009 3.94252L16.4162 55.7422C16.6576 56.5757 17.2186 57.3959 17.9449 57.9913C18.669 58.5756 19.5148 58.913 20.2672 58.913L52.0254 58.9152C52.6821 58.9152 53.2257 58.6638 53.5606 58.2096C53.9542 57.6715 54.0368 56.8888 53.7911 56.0531L54.8174 55.7422C55.161 56.9086 55.0153 58.042 54.4173 58.8556C53.8781 59.5921 53.03 59.9978 52.0254 60" transform="translate(76 153.00002)" id="Fill-18" fill="#000000" fill-rule="evenodd" stroke="none" />
    <path d="M38.4488 1.5865L16.9258 8.63464C15.5976 5.52164 14.2737 2.40641 12.9434 1.01767C12.1991 0.239975 11.4505 0 10.7019 0C10.118 0 9.52981 0.148873 8.94163 0.293302L10.8815 6.94593C8.12033 4.83727 5.36125 2.73082 3.28018 2.73082C2.98716 2.73082 2.71125 2.77082 2.44818 2.8597C0.305079 3.5774 -0.832773 7.41255 0.717871 11.6143C2.27065 15.8139 6.51407 20.3823 14.3422 20.9422C14.9111 20.9822 15.4971 21 16.1003 21C23.8257 21 34.4128 17.8048 45 14.6051L38.4488 1.5865Z" transform="translate(114 184.00002)" id="Fill-20" fill="#FFFFFF" fill-rule="evenodd" stroke="none" />
    <path d="M50 32.8541L22.566 0C13.5866 0.103186 4.60728 0.206373 1.43506 2.08093C-1.73716 3.95548 0.893616 7.5971 4.06584 9.29322C6.0911 10.3745 8.33748 10.6626 10.6624 10.6626C11.9788 10.6626 13.318 10.5702 14.6571 10.4777L34.6783 45L50 32.8541Z" transform="translate(36 69.00001)" id="Fill-22" fill="#FFFFFF" fill-rule="evenodd" stroke="none" />
    <path d="M9.95391 0.287811C9.349 0.61546 8.8755 1.19531 8.64188 1.89803L0.162705 27.3102C-0.327481 28.7717 0.327491 30.3604 1.62283 30.8583C13.792 35.523 25.959 40.1856 38.1282 44.8502C39.4235 45.3482 40.869 44.5636 41.3571 43.1021L49.8384 17.6899C50.3265 16.2262 49.6715 14.6397 48.3783 14.1418L30.1225 7.14689L11.8709 0.147698C11.2493 -0.0894167 10.5588 -0.0398382 9.95391 0.287811Z" transform="translate(14 34.000004)" id="Fill-24" fill="#EAC97D" fill-rule="evenodd" stroke="none" />
    <path d="M11.5 15.0792C11.5 11.5951 8.4065 10.9615 5.9209 10.4525C3.30625 9.91705 1.7037 9.48771 1.7037 7.49491C1.7037 5.87363 3.51889 4.55464 5.75 4.55464C7.21859 4.55464 8.57794 5.14348 9.29743 6.09138C9.58184 6.46609 10.1163 6.53935 10.491 6.25483C10.8657 5.97042 10.9389 5.43599 10.6544 5.06128C9.75392 3.87486 8.27744 3.10021 6.60185 2.90258L6.60185 0.851852C6.60185 0.381417 6.22044 0 5.75 0C5.27956 0 4.89815 0.381417 4.89815 0.851852L4.89815 2.90226C2.13016 3.23576 0 5.16808 0 7.49502C0 10.9791 3.0935 11.6127 5.5791 12.1216C8.19375 12.6571 9.7963 13.0864 9.7963 15.0792C9.7963 16.7004 7.98111 18.0194 5.75 18.0194C4.28141 18.0194 2.92207 17.4306 2.20257 16.4827C1.91816 16.108 1.38373 16.0348 1.00902 16.3192C0.63431 16.6037 0.561051 17.1381 0.845569 17.5128C1.74608 18.6992 3.22256 19.4739 4.89815 19.6715L4.89815 21.7222C4.89815 22.1927 5.27956 22.5741 5.75 22.5741C6.22044 22.5741 6.60185 22.1927 6.60185 21.7222L6.60185 19.6718C9.36984 19.3384 11.5 17.4061 11.5 15.0792L11.5 15.0792Z" transform="matrix(0.92718387 0.37460664 -0.37460664 0.92718387 37.396893 43.917892)" id="Path" fill="#000000" stroke="none" />
    <path d="M19.0416 39L1.95348 32.3437C0.407967 31.7401 -0.385619 29.8202 0.185096 28.0665L8.65834 2.28742C8.9312 1.44335 9.48526 0.754537 10.2122 0.352184C10.9433 -0.0479834 11.7848 -0.111398 12.5471 0.183807L49 14.3777L48.6376 15.388L12.1847 1.19188C11.6973 0.995075 11.1641 1.04318 10.6871 1.30559C10.2039 1.57455 9.81435 2.06 9.62481 2.63729L1.15573 28.4142C0.764143 29.6234 1.2807 30.9333 2.31382 31.3356L19.402 37.9919L19.0416 39Z" transform="translate(12 34.000004)" id="Fill-28" fill="#000000" fill-rule="evenodd" stroke="none" />
    <path d="M9 10.7631C8.99769 7.05354 8.99537 3.34398 7.15844 1.49333C6.12662 0.452336 4.51641 0 3.0936 0C1.98312 0 0.985993 0.274706 0.467767 0.76422C-0.716752 1.8775 0.581129 4.09787 1.78184 6.64045C2.98024 9.1851 4.07916 12.052 5.2683 12.7914C5.49503 12.9339 5.72869 13 5.96236 13C6.94329 13 7.9728 11.8805 9 10.7631" transform="translate(55 60.000008)" id="Fill-36" fill="#FFFFFF" fill-rule="evenodd" stroke="none" />
    <path d="M7.24834 14.6835C7.82441 13.9536 8.40467 13.2238 8.68537 10.7772C8.96189 8.33072 8.94303 4.16536 8.92208 0L19.9428 4.61666C18.5079 6.89908 17.075 9.17934 16.7545 11.3084C16.434 13.4354 17.2237 15.4133 18.0135 17.3891C19.6516 21.9583 21.2918 26.5296 18.4681 30.8828C16.1156 34.517 10.6587 38 6.55078 38C5.73381 38 4.96921 37.8618 4.29469 37.5595C0.224505 35.7413 -0.63017 27.9612 0.396278 23.1567C1.42692 18.35 4.33658 16.5168 7.24834 14.6835" transform="translate(137 108.000015)" id="Fill-38" fill="#FFFFFF" fill-rule="evenodd" stroke="none" />
    <path d="M2.81412 0.706704C0.652426 9.30457 -1.50927 17.9046 1.43124 21.272C2.47326 22.4639 4.15386 23 6.05235 23C9.51926 23 13.7218 21.2144 16.1079 18.361C19.8013 13.9436 19.1455 6.97178 18.494 0L2.81412 0.706704Z" transform="translate(143 97.000015)" id="Fill-40" fill="#FFFFFF" fill-rule="evenodd" stroke="none" />
    <path d="M16.3783 22C15.7757 22 15.1836 21.9801 14.6125 21.9381C4.75311 21.2235 1.49964 14.3827 0.743171 12.3009C-0.211376 9.69248 -0.249305 6.9646 0.646241 5.00664C1.13721 3.9292 1.89368 3.16814 2.77448 2.87168C4.75311 2.22124 7.4545 3.90265 10.2971 6.05973L8.67244 0.442478L9.20766 0.30531C9.77449 0.163717 10.4193 0 11.0641 0C12.0502 0 12.8952 0.382743 13.639 1.17478C14.956 2.5708 16.2372 5.53097 17.4804 8.47566L38.2444 1.60398L38.5521 2.64159L16.9051 9.80752L16.7197 9.36062C15.4575 6.36504 14.1532 3.26106 12.9036 1.94027C12.0797 1.06195 11.0999 0.984513 9.98521 1.2323L12.1893 8.86504L10.9334 7.89823C7.99393 5.63053 4.89218 3.31858 3.08845 3.90929C2.4858 4.11283 1.94636 4.67035 1.58393 5.47566C0.808493 7.17035 0.856958 9.57522 1.71247 11.9093C2.41626 13.8407 5.44005 20.1836 14.6842 20.8518C22.3501 21.3805 33.7035 17.9226 44.7071 14.5642L45 15.6084C34.7086 18.75 24.0674 22 16.3783 22" transform="translate(114 183.00002)" id="Fill-42" fill="#000000" fill-rule="evenodd" stroke="none" />
    <path d="M35.1166 41L15.0541 6.74735C10.1377 7.18586 7.0133 6.87847 4.39638 5.47484C2.27025 4.35493 -0.00833121 2.16242 2.29029e-05 0L1.02758 0.00429905C1.01923 1.42728 2.67334 3.37475 4.8663 4.53334C7.35582 5.86605 10.403 6.12399 15.2776 5.66399L15.5992 5.63175L15.7684 5.91764L36 40.454L35.1166 41Z" transform="translate(36 73.00001)" id="Fill-44" fill="#000000" fill-rule="evenodd" stroke="none" />
    <path d="M35.1788 41L8.57716 11.6366L8.57716 11.4418C8.57716 7.84944 8.57716 4.13641 6.93042 2.36669C6.03642 1.3908 4.55965 1.04151 3.47359 1.04151C2.53544 1.04151 1.73635 1.26379 1.39199 1.62154C0.637054 2.40479 1.40965 4.15546 2.30366 6.18557L2.71203 7.11488C2.86435 7.4049 3.01004 7.74783 3.16235 8.1945L2.12707 8.51627C2.00786 8.1691 1.88866 7.85791 1.72973 7.54673L1.30811 6.59201C0.263999 4.22955 -0.636631 2.19099 0.595113 0.914498C1.15138 0.334469 2.20433 0 3.47359 0C5.18656 0 6.78473 0.626601 7.74496 1.67658C9.63231 3.70456 9.66321 7.52133 9.66321 11.2471L36 40.3162L35.1788 41Z" transform="translate(54 60.000008)" id="Fill-46" fill="#000000" fill-rule="evenodd" stroke="none" />
    <path d="M16.1316 14.8496C14.2271 16.5441 12.3206 18.2408 9.52762 18.2408C9.34907 18.2408 9.16628 18.2319 8.98136 18.2186C5.88447 17.9816 1.72057 15.7023 0.447387 11.8216C-0.825801 7.94088 0.793847 2.4609 3.09791 0.693304C3.73557 0.205998 4.42211 0 5.14904 0C7.05351 0 9.21304 1.40654 11.3768 2.81309C13.3174 2.05998 15.258 1.30687 16.9542 1.30687C17.577 1.30687 18.1657 1.40876 18.7099 1.6502C20.7376 2.54507 22.1383 5.36701 23.5391 8.18896C25.1141 8.74272 26.687 9.29869 27.4458 10.5701C28.2046 11.8438 28.1493 13.8351 27.4925 15.1331C26.8315 16.4333 25.5689 17.0424 24.3106 17.6516C25.6327 18.9141 26.9569 20.1789 26.5828 22.0838C26.2512 23.785 24.5614 26 22.6867 26C22.4635 26 22.2404 25.969 22.0151 25.9025C19.8874 25.2713 17.7024 21.4614 16.7119 19.0891C15.7235 16.7168 15.9276 15.7843 16.1316 14.8496" transform="translate(137 89.00001)" id="Fill-48" fill="#000000" fill-rule="evenodd" stroke="none" />
    <path d="M18.5583 28.6323C20.1719 33.0434 21.8718 37.6302 19.1105 41.8677C16.647 45.6307 11.1267 48.917 7.26096 48.917C6.41102 48.917 5.77464 48.7457 5.13611 48.4865C1.31569 46.7994 0.4226 39.1855 1.4408 34.4713C2.46116 29.7131 5.4338 27.8986 8.23818 26.1676L8.4086 26.038C8.87671 25.4756 9.34267 24.8276 9.63821 23.615C9.93806 23.6589 10.1905 23.6589 10.4903 23.6589C12.9948 23.6589 14.2697 22.9669 14.3539 22.923L13.8426 21.9718C13.8426 21.9718 12.3585 22.7494 9.38366 22.5342C8.49273 22.275 7.81321 21.8861 7.30411 21.3238C4.58386 18.2088 6.62458 9.9051 8.70629 1.77277L23.4853 1.12473C24.1239 7.65564 24.6761 14.2722 21.1491 18.4263C20.3013 19.5071 19.0674 20.4143 17.6242 21.1502L17.4128 21.2798L17.2424 22.1871C16.9015 24.4805 17.7515 26.5564 18.5583 28.6323L18.5583 28.6323ZM18.3469 21.9718C19.8332 21.1942 21.024 20.243 21.9559 19.116C25.8648 14.5336 25.1421 7.39643 24.4626 0.518431L24.4216 0L7.85635 0.735908L7.77006 1.12473C5.60422 9.64369 3.35425 18.4702 6.54045 22.0157C7.04955 22.6638 7.72692 23.0965 8.62216 23.3997C8.32231 24.3948 7.94048 24.8693 7.64279 25.2581C4.75644 27.0309 1.52709 29.0651 0.4226 34.212C-0.681892 39.2294 0.254337 47.4891 4.71329 49.4377C5.4338 49.8265 6.2859 50 7.26096 50C11.5085 50 17.3287 46.538 19.9605 42.474C23.0625 37.7598 21.1922 32.7424 19.5355 28.1996C18.7287 26.2093 18.006 24.3509 18.2606 22.3606L18.3469 21.9718Z" transform="translate(137 97.000015)" id="Fill-50" fill="#000000" fill-rule="evenodd" stroke="none" />
    <path d="M0.600346 3L0 2.39588C0.820069 1.59783 1.61073 0.798055 2.38581 0L3 0.583524C2.22318 1.38844 1.42561 2.19508 0.600346 3" transform="translate(199 158.00002)" id="Fill-52" fill="#58e2ff " fill-rule="evenodd" stroke="none" />
    <path d="M70.0652 1.38175C67.6123 1.17842 65.0707 1.07566 62.5058 1.07566L61.7537 1.07785L61.7452 0.00218627L62.5058 -2.98023e-08C65.096 -2.98023e-08 67.6694 0.104943 70.1476 0.310456L70.0652 1.38175ZM45.1854 2.59515L45.0143 1.53479C47.7715 1.05161 50.5793 0.677755 53.3491 0.424144L53.44 1.49543C50.6976 1.74686 47.9194 2.11853 45.1854 2.59515L45.1854 2.59515ZM86.3651 4.52566C83.8531 3.70361 81.1445 3.01711 78.3028 2.48365L78.4909 1.42547C81.3727 1.96768 84.1256 2.66511 86.6799 3.50028L86.3651 4.52566ZM29.0736 6.83221L28.7334 5.81558C31.349 4.88203 34.0576 4.04248 36.7915 3.32975L37.0429 4.37043C34.3428 5.07879 31.6596 5.9074 29.0736 6.83221L29.0736 6.83221ZM100.797 12.5363C98.9254 10.7676 96.6458 9.15844 94.0175 7.75046L94.4971 6.79723C97.2078 8.24457 99.5635 9.90835 101.497 11.7405L100.797 12.5363ZM13.9526 13.9486L13.4329 13.0173C15.7971 11.5896 18.3155 10.2472 20.912 9.03164L21.3409 10.0111C18.7803 11.2136 16.2936 12.5385 13.9526 13.9486L13.9526 13.9486ZM0.722561 24.2505L0 23.4809C1.95852 21.5023 4.11353 19.5981 6.40587 17.8206L7.03124 18.6842C4.77271 20.4289 2.6515 22.3047 0.722561 24.2505L0.722561 24.2505ZM101.537 28.7565L101.359 27.6961C103.345 27.3354 105.428 27.0709 107.581 26.9069C107.362 24.4582 106.753 21.9943 105.762 19.5718C105.722 19.4691 105.68 19.3685 105.636 19.2701L106.561 18.7891C106.624 18.9094 106.671 19.0318 106.721 19.1564C107.757 21.686 108.395 24.2702 108.617 26.8391C108.993 26.8151 109.367 26.7976 109.743 26.7801L109.785 27.8557C106.912 27.9804 104.138 28.2821 101.537 28.7565L101.537 28.7565ZM126.338 29.0057C123.621 28.516 120.845 28.1684 118.084 27.976L118.156 26.9025C120.951 27.0971 123.763 27.4469 126.518 27.9454L126.338 29.0057ZM142.197 33.9424C139.818 32.8121 137.204 31.8086 134.43 30.9537L134.724 29.924C137.544 30.7898 140.207 31.813 142.628 32.963L142.197 33.9424ZM86.5236 35.1974L85.8327 34.3906C87.7405 32.6503 90.2188 31.1658 93.1914 29.9787L93.5675 30.9844C90.7068 32.1256 88.3384 33.5401 86.5236 35.1974L86.5236 35.1974ZM103.743 43.8967L102.906 43.2583C104.579 40.9233 105.84 38.3981 106.65 35.7571L107.643 36.085C106.798 38.8376 105.486 41.4677 103.743 43.8967L103.743 43.8967ZM155.144 44.1481C153.673 42.023 151.719 40.0269 149.336 38.2167L149.953 37.3509C152.425 39.2267 154.457 41.3037 155.989 43.5206L155.144 44.1481ZM82.0551 50.7879C81.36 49.5242 81.0072 47.9151 81.0072 46.0087C81.0072 44.7843 81.153 43.4201 81.4403 41.9574L82.4565 42.1717C82.184 43.5644 82.0467 44.8565 82.0467 46.0087C82.0467 47.7271 82.3488 49.1569 82.9572 50.2567L82.0551 50.7879ZM89.942 53.7504L89.7476 52.6922C92.0928 52.2375 94.6302 51.0284 97.0894 49.2007L97.6979 50.0752C95.114 51.9926 92.4329 53.265 89.942 53.7504L89.942 53.7504ZM132.573 56.1947L132.313 55.1518C134.884 54.4697 137.49 54.1767 140.061 54.1395C140.287 54.1395 140.515 54.1439 140.743 54.1505L140.711 55.2261C140.449 55.2196 140.183 55.213 139.926 55.2152C137.49 55.2152 135.013 55.5453 132.573 56.1947L132.573 56.1947ZM158.792 60.423L157.785 60.1432C158.273 58.2957 158.516 56.4701 158.516 54.7189C158.516 53.7307 158.437 52.7534 158.283 51.8111L159.308 51.6297C159.473 52.6332 159.555 53.6717 159.555 54.7189C159.555 56.5642 159.299 58.4859 158.792 60.423L158.792 60.423ZM156.09 60.4886C153.779 58.8598 151.313 57.5852 148.765 56.7063L149.091 55.6831C151.736 56.5948 154.286 57.9131 156.675 59.6031L156.09 60.4886ZM118.656 64.3911L117.778 63.8183C119.018 61.7698 121.249 59.8917 124.397 58.2389L124.866 59.1965C121.885 60.7619 119.797 62.5087 118.656 64.3911L118.656 64.3911ZM166.994 73.0817C165.621 70.5543 164.021 68.2106 162.236 66.1271L163.016 65.4121C164.848 67.5569 166.495 69.9575 167.905 72.557L166.994 73.0817ZM149.659 74.9641L149.042 74.1027C151.186 72.4521 153.033 70.3663 154.527 67.9045L155.404 68.4752C153.842 71.0506 151.909 73.2348 149.659 74.9641L149.659 74.9641ZM125.252 77.6205C122.21 76.3175 119.806 74.54 118.297 72.4761L119.128 71.829C120.505 73.7114 122.821 75.4145 125.652 76.6235L125.252 77.6205ZM135.377 79.6494C134.754 79.6472 134.137 79.6275 133.528 79.5838L133.6 78.5103C136.325 78.6918 139.142 78.4425 141.721 77.732L141.99 78.7683C139.877 79.3542 137.65 79.6494 135.377 79.6494L135.377 79.6494ZM172.291 89.2079C171.849 86.3373 171.19 83.541 170.332 80.8978L171.317 80.5523C172.194 83.2546 172.868 86.1077 173.313 89.0396L172.291 89.2079ZM173.48 106.44L172.449 106.307C172.785 103.592 172.956 100.865 172.961 98.2068L172.961 97.7411L174 97.7411L174 98.2068C173.996 100.913 173.823 103.683 173.48 106.44L173.48 106.44ZM169.371 123.308L168.395 122.93C169.379 120.227 170.214 117.47 170.894 114.735L171.9 115.004C171.213 117.774 170.362 120.568 169.371 123.308L169.371 123.308ZM161.955 138.914L161.07 138.354C162.521 135.883 163.874 133.347 165.08 130.816L166.014 131.29C164.793 133.85 163.426 136.417 161.955 138.914L161.955 138.914ZM152.129 153L151.334 152.307C153.137 150.083 154.865 147.801 156.46 145.518L157.305 146.15C155.691 148.455 153.95 150.759 152.129 153L152.129 153Z" transform="translate(56 0)" id="Fill-54" fill="#58e2ff " fill-rule="evenodd" stroke="none" />
    <path d="M0.814791 6L0 5.16228C0.704843 3.39199 1.45681 1.65648 2.23233 0L3 0.935722C2.24411 2.56375 1.50785 4.26449 0.814791 6" transform="translate(47 30.000004)" id="Fill-56" fill="#58e2ff " fill-rule="evenodd" stroke="none" />
  </g>
</svg>