<?xml version="1.0" encoding="utf-8"?>
<svg width="554px" height="672px" viewBox="0 0 554 672" version="1.1" xmlns:xlink="http://www.w3.org/1999/xlink" xmlns="http://www.w3.org/2000/svg">
  <g id="Group-2" transform="translate(0.74609375 0.74798584)">
    <g id="Group">
      <path d="M26.8026 121.073C20.0357 117.805 14.0229 113.621 9.40944 107.598C2.83046 99.0054 -0.714917 89.4491 0.120744 78.6083C0.892123 68.5872 7.75542 61.5606 17.7982 60.1832C23.4624 59.4052 28.9313 60.2346 34.1579 62.5343C37.2483 63.8946 40.3635 65.2109 43.3773 66.7204C47.699 68.8832 51.5485 67.9633 55.2447 65.3185C60.6171 61.4774 64.39 56.4522 66.6596 50.3039C69.038 43.8572 71.3398 37.386 73.8245 30.9809C76.915 23.0124 81.6422 16.1645 88.5623 10.9386C99.8957 2.3854 113.837 1.96214 124.325 9.82787C128.924 13.2751 132.116 17.674 133.624 23.2277C134.195 25.3293 134.717 27.453 135.466 29.4934C138.297 37.1952 144.814 40.5446 152.851 38.443C157.868 37.1292 162.046 34.2593 166.036 31.1277C169.359 28.5246 172.297 25.5104 175.155 22.4179C180.777 16.3333 186.948 10.9313 194.281 6.86752C216.594 -5.495 242.537 -1.51443 260.37 21.6399C274.707 40.251 266.605 65.0421 254.401 76.0419C249.58 80.387 244.275 83.8635 238.259 86.271C226.503 90.9782 214.715 95.6071 202.954 100.297C201.072 101.046 199.233 101.902 197.408 102.778C188.008 107.289 183.365 114.969 182.362 125.042C181.766 131.038 181.313 137.05 180.594 143.031C179.138 155.13 173.236 164.811 163.685 172.327C154.627 179.454 144.119 179.909 134.521 173.45C129.774 170.254 125.344 166.592 120.802 163.108C117.585 160.639 114.29 158.293 110.66 156.466C105.839 154.039 103.748 154.432 99.8685 158.33C98.0884 160.116 96.4344 162.039 94.5455 163.705C86.8168 170.521 77.9361 170.313 70.4967 163.284C66.4173 159.428 63.4678 154.726 60.318 150.173C62.6544 147.171 64.8943 144.47 69.2778 143.805C72.932 143.252 75.2536 140.255 75.7925 136.372C76.1115 134.055 75.5774 132.037 73.4463 130.737C71.5821 129.6 69.9281 130.177 68.3631 131.459C67.8909 131.846 67.3618 132.426 66.1726 131.635C64.0438 128.203 64.9388 124.374 66.1824 120.523C66.489 119.576 66.892 118.448 66.0761 117.702C65.0995 116.809 64.1971 117.761 63.4505 118.346C56.6218 123.73 44.213 120.547 39.5921 114.732C38.8875 113.844 38.2892 112.762 36.6871 112.378C35.0825 114.093 33.4483 116.053 32.5632 118.358C31.4358 121.286 29.7076 122.214 26.8026 121.073" transform="translate(221 0)" id="Fill-89" fill="#101429" fill-rule="evenodd" stroke="none" />
      <path d="M67.6227 57.1954C67.5373 57.4864 67.4323 57.7873 67.2907 58.1131C65.245 62.8036 62.4426 66.9942 59.4619 71.0928C58.1705 72.8635 56.4471 72.9406 54.5552 72.8262C42.6862 72.1149 11.5003 77.069 0 79.7351C9.63528 92.2397 51.1156 111.059 66.3045 113.081C96.5725 117.107 122.864 107.01 139 100.146C130.756 95.3733 96.9265 79.9415 87.8356 77.0715C85.3236 76.2782 83.8419 75.0023 83.3805 72.3139C82.8117 68.9763 81.9036 65.696 81.3519 62.356C80.9393 59.8441 80.7123 58.3096 80.9271 57.183C85.2187 55.3874 89.1709 51.9777 92.2541 47.3967C92.3981 47.2748 92.5593 47.1704 92.7106 47.056C92.757 47.0933 92.7887 47.1455 92.8351 47.1828C96.7166 50.2343 102.824 48.7993 106.481 43.9746C110.141 39.1498 109.96 32.7632 106.078 29.7116C103.979 28.0578 101.225 27.7618 98.5572 28.5701C99.541 14.6479 93.0035 2.53623 82.6042 0.345182C70.9256 -2.11695 58.8248 8.85569 55.578 24.8545C52.6413 39.3115 57.9557 52.8905 67.6227 57.1954" transform="translate(195 98)" id="Fill-90" fill="#E46F62" fill-rule="evenodd" stroke="none" />
      <path d="M4.00964 37.4888C4.5677 39.0182 5.17879 40.5768 6.29491 41.7862C8.21909 43.8628 11.2947 44.5346 14.1759 44.6299C20.5065 44.8449 27.5164 42.2137 29.9557 36.5629C29.5214 39.5434 30.7587 42.7072 33.1323 44.6568C35.5035 46.6063 38.9276 47.2806 41.8997 46.384C39.165 50.8841 41.9149 57.5537 47.0965 59C47.3844 51.0942 53.9447 43.8188 62 42.4751C61.0581 32.7566 58.2047 23.2164 53.6392 14.5142C51.8615 11.1232 49.7782 7.80068 46.8263 5.29165C37.6145 -2.54326 25.6326 0.593634 14.6204 0.752434C11.4008 0.801295 7.95395 0.688914 5.32525 2.78262C1.49963 5.82668 0.363307 11.8317 0.0703877 16.3001C-0.399293 23.5316 1.54508 30.7264 4.00964 37.4888" transform="translate(243 80)" id="Fill-91" fill="#101429" fill-rule="evenodd" stroke="none" />
      <path d="M29.8174 1.51704C35.966 0.450403 42.0999 -0.929669 48.3443 0.873172C48.4548 1.52676 48.4351 2.23624 48.7003 2.81936C51.507 8.99567 49.518 14.0252 45.1275 18.6513C42.4756 21.4455 39.6468 23.9991 36.5259 26.249C29.0808 31.6211 21.6725 37.0272 15.2047 43.5825C12.9652 45.8567 10.3133 47.6401 7.22178 48.6047C5.23527 49.2194 3.21684 49.2777 1.6183 47.5988C-0.0293536 45.8737 -0.338748 43.8303 0.329151 41.5974C0.92093 39.6172 2.24445 38.1181 3.65883 36.6992C7.18986 33.1639 10.6349 29.534 14.328 26.1713C21.8149 19.3511 25.8984 10.4972 29.8174 1.51704" transform="translate(102 621)" id="Fill-92" fill="#EEA039" fill-rule="evenodd" stroke="none" />
      <path d="M21.9812 288C16.8724 286.782 16.4223 286.368 15.8313 282.124C12.9579 261.498 -7.94481 147.258 3.29166 106.467C5.63836 97.4638 9.94847 89.3596 15.4159 81.8788C20.861 74.4321 56.7391 37.0282 66.8677 27.4142C75.713 19.0178 83.846 9.78367 91.3683 0.123413C93.0499 0.0820154 94.7363 -0.0446127 96.4154 0.0162662C104.862 0.325531 113.31 1.03416 121.752 0.956236C142.397 0.761423 162.964 2.3808 183.567 3.07482C184.551 3.10648 185.526 3.51558 186.502 3.75179C192.731 17.4666 198.058 31.4078 198.688 46.6884C198.943 52.9151 197.657 58.9446 196.821 65.0178C195.486 74.7341 193.874 84.4211 191.156 93.8914C190.15 97.4005 190.696 98.0531 194.539 97.4809C200.209 96.6359 205.939 95.8956 211.473 94.4734C229.262 89.9002 247.507 87.0438 264.854 80.7928C266.444 80.2181 268.051 79.7481 269.455 78.7911C270.808 79.6823 271.335 81.0801 271.765 82.5168C273.518 88.3758 275.257 94.2421 277 100.104C276.691 101.333 275.806 102.013 274.75 102.648C258.157 112.637 241.832 123.091 224.935 132.55C208.204 141.913 191.928 152.243 173.669 158.744C164.912 161.861 154.549 165.877 145.256 162.818C125.32 156.256 128.512 120.398 127.068 104.229C126.416 96.911 124.366 77.1766 122.736 74.6586C120.617 75.4841 119.311 77.0548 117.835 78.3698C98.1216 95.9492 77.1175 111.943 55.5595 127.234C45.8958 134.091 45.871 133.955 45.5916 145.697C44.8399 177.334 45.097 208.967 45.6905 240.605C45.9526 254.582 46.1455 268.585 45.3888 282.562C45.1688 286.627 45.06 286.622 40.6386 287.355C34.3502 285.548 28.1731 286.931 21.9812 288" transform="translate(108 332)" id="Fill-93" fill="#E46B49" fill-rule="evenodd" stroke="none" />
      <path d="M253 57.1618C252.308 56.7798 251.564 56.4902 250.806 56.2663C249.525 55.8916 248.175 55.7407 246.858 55.4803C240.275 54.1784 233.677 52.9301 227.109 51.5601C218.289 49.7204 209.992 46.4158 201.781 42.9093C201.683 42.9798 201.589 43.0528 201.483 43.1185C176.851 58.6973 148.336 64.6957 119.45 59.7339C97.7236 56.0011 74.438 45.1261 66.69 23.9018C66.5891 23.8969 66.4905 23.8872 66.392 23.8848C64.5449 23.8045 62.7077 23.493 60.8631 23.4492C53.7185 23.2789 47.5295 20.5948 41.6435 16.7987C34.8757 12.4307 28.5882 7.44702 22.2047 2.58018C16.7767 -1.55664 14.3361 -0.829043 11.8462 5.56112C9.41295 15.8204 6.97725 26.0773 4.54401 36.3366C4.65976 38.8503 0.519816 62.1138 0.0494236 71.4387C-0.204244 76.471 0.362198 77.4785 5.49465 78.7706C17.3948 81.7686 29.3197 84.6911 41.5302 86.2339C45.4953 86.7328 45.5938 86.7814 45.9115 90.8136C46.042 92.4635 43.7861 158.966 42.2542 175.553C41.8356 180.074 42.1188 180.492 46.6676 180.743C74.1523 185.778 191.891 189.671 197.602 187.274C202.412 187.021 204.596 184.958 205.062 180.269C205.749 173.336 209.608 123.417 209.625 120.767C209.638 118.596 210.721 117.301 213.066 117.479C222.498 118.192 247.848 116.391 251.468 111.062C250.434 93.1108 251.015 75.0961 253 57.1618" transform="translate(128 145)" id="Fill-94" fill="#FDE9D8" fill-rule="evenodd" stroke="none" />
      <path d="M95.9734 74.5969C87.3897 68.0886 79.4018 60.8736 71.212 53.8942C56.4768 41.3415 11.0994 1.92891 11.5917 0C4.66722 2.73385 6.83098 4.26275 0 7.19047C2.63639 10.7685 4.97492 14.565 7.63838 18.1063C29.628 47.3516 53.641 74.6975 81.6615 98.3868C86.5405 102.51 91.7862 106.225 96.4558 110.562C101.849 115.57 107.836 119.428 114.701 122C117.133 111.654 119.568 101.31 122 90.9632C112.907 86.1703 104.168 80.8106 95.9734 74.5969" transform="translate(18 61)" id="Fill-95" fill="#E46F62" fill-rule="evenodd" stroke="none" />
      <path d="M139.596 0C138.62 2.75041 136.952 4.17174 134.073 4.98215C124 7.81485 113.73 9.58528 103.412 11.034C88.914 13.0688 74.2714 13.2857 59.6779 14.0787C47.0916 14.7619 34.4979 15.5175 21.9141 14.2757C15.0595 13.5999 8.23941 12.5826 1.40208 11.7198C0.45129 22.2726 -0.622341 32.8229 0.441462 43.438C0.755935 46.5849 46.3079 45.1611 82.2315 37.4809C101.699 33.3191 120.27 26.175 139.151 17.8016C142.055 13.1436 143.561 6.97701 139.596 0" transform="translate(383 203)" id="Fill-96" fill="#E46F62" fill-rule="evenodd" stroke="none" />
      <path d="M7.32964 33.6437C5.63597 27.5773 3.9471 21.5059 2.24382 15.442C1.8258 13.955 1.3141 12.5083 0 11.5859C0.977766 9.41591 1.74893 7.11234 2.97174 5.10869C6.82274 -1.20218 12.8215 -1.68104 17.7223 3.75528C20.2568 6.56039 22.2868 9.81412 22.9931 13.5265C24.8069 23.0483 30.7023 29.6465 36.9581 36.0153C39.9082 39.0195 42.8007 42.0364 45.0301 45.6833C46.5892 48.2338 47.3604 50.9759 46.8367 54.0154C46.1784 57.8589 43.728 59.6206 40.0908 58.804C37.9431 58.3201 36.1341 57.1305 34.7744 55.3184C33.4579 53.5693 32.1077 51.8127 31.0218 49.9048C29.0399 46.4167 26.4045 43.6216 23.1228 41.5903C18.0827 38.4726 13.4821 34.3444 7.32964 33.6437" transform="translate(378 397)" id="Fill-97" fill="#EEA039" fill-rule="evenodd" stroke="none" />
      <path d="M3.33199 3.87703C0.777773 23.8107 -0.364169 43.7119 0.10193 63.8333C0.260403 70.7097 10.2303 70.7347 10.0695 63.8333C9.62666 44.7078 10.5146 25.6825 12.9453 6.72471C13.8076 -0.0116127 4.20593 -2.92685 3.33199 3.87703" transform="translate(376 195)" id="Fill-98" fill="#F7CFB7" fill-rule="evenodd" stroke="none" />
      <path d="M15.2225 3.65183C6.64998 31.1677 1.60961 59.3286 0.0094497 87.9859C-0.365707 94.6811 10.5521 94.6616 10.9247 87.9859C12.4739 60.2315 17.4504 33.0563 25.7473 6.419C27.7532 -0.0158194 17.2207 -2.76595 15.2225 3.65183" transform="translate(122 138)" id="Fill-99" fill="#F7CFB7" fill-rule="evenodd" stroke="none" />
      <path d="M0.107947 16.4879C1.90449 14.3797 10.3661 23.0354 10.3661 23.0354C10.3661 23.0354 0.0359865 11.045 1.11788 9.20798C2.82509 6.3092 14.3562 20.1291 14.3562 20.1291C14.3562 20.1291 2.17744 4.75846 5.26679 2.81242C8.35614 0.866392 18.721 17.4761 18.721 17.4761C18.721 17.4761 9.91943 1.23888 12.84 0.0479444C15.7607 -1.14299 26.3265 20.2482 26.3265 20.2482C26.3265 20.2482 28.9245 8.425 31.3191 8.81015C35.3538 9.4639 30.8575 34.8155 30.8575 34.8155L19.5919 43C19.5919 43 -1.69107 18.5935 0.107947 16.4879" transform="translate(0 25)" id="Fill-100" fill="#E46F62" fill-rule="evenodd" stroke="none" />
    </g>
    <path d="M32.9455 17.768C31.4683 15.4795 21.9464 22.6315 21.9464 22.6315C21.9464 22.6315 33.7692 12.5238 32.9603 10.5962C31.6828 7.55646 18.4223 19.2631 18.4223 19.2631C18.4223 19.2631 32.5361 6.15027 29.7666 3.83464C26.9971 1.51654 14.4986 16.0825 14.4986 16.0825C14.4986 16.0825 25.4064 1.65493 22.6986 0.0905854C19.9907 -1.47129 6.63399 17.6815 6.63399 17.6815C6.63399 17.6815 5.71411 5.89573 3.30713 5.93032C-0.754647 5.98716 0.152902 31.0983 0.152902 31.0983L0 40C0 40 34.4227 20.0564 32.9455 17.768" transform="translate(519 183)" id="Fill-101" fill="#E46F62" fill-rule="evenodd" stroke="none" />
    <path d="M99.6387 6.23597C98.0507 5.20012 91.9581 3.11108 91.2937 3.10613C91.5407 4.48643 91.9778 6.40448 91.9778 6.40448C91.9778 6.40448 92.7484 6.6399 93.0126 6.70433C104.02 9.42281 109.908 21.9744 102.918 31.7877C97.9989 38.6991 87.7992 40.5849 80.9113 45.0331C66.4464 54.3731 57.1654 76.1853 38.9269 78.6659C17.7323 81.5504 2.18821 54.8043 3.12174 36.3127C3.59097 27.0495 8.19196 18.2275 15.764 12.8252C23.9855 6.95957 32.7355 8.10446 42.0165 9.98534C48.9884 11.3954 56.3603 12.7038 62.7444 8.69424C65.0387 7.25447 66.7477 5.38846 69.2643 4.27579C71.0548 3.4828 72.8009 3.21516 74.584 3.19038C75.1026 2.15206 75.6089 1.1063 76.1053 0.055582C72.9589 -0.135232 69.8225 0.1101 67.0095 1.66635C61.5911 4.66733 58.5558 8.57777 51.6803 8.33492C45.9828 8.13419 40.4977 6.27066 34.8742 5.50741C15.5516 2.87814 0.0420661 19.1171 8.17484e-05 38.0969C-0.0394329 56.5613 14.25 80.7649 34.4173 81.9593C44.5306 82.559 53.3152 76.4381 60.0969 69.5316C68.9383 60.5287 76.0337 50.651 87.53 44.7581C96.8949 39.9555 107.366 36.7786 108.858 24.6854C109.811 16.9438 105.88 10.02 99.6387 6.23597" transform="translate(181 158)" id="Fill-102" fill="#E58933" fill-rule="evenodd" stroke="none" />
    <path d="M9.98711 5.35608C9.79073 8.11071 7.39604 10.1835 4.64406 9.98712C1.88935 9.78803 -0.183498 7.39614 0.0128771 4.64425C0.21198 1.88962 2.60394 -0.185889 5.35592 0.0132071C8.11336 0.209576 10.1835 2.60146 9.98711 5.35608" transform="translate(286 140)" id="Fill-103" fill="#E58933" fill-rule="evenodd" stroke="none" />
    <path d="M13 1.86043C12.1894 5.74969 9.12988 8.42492 5.7693 7.94419C2.41103 7.46618 -0.00923768 4.00604 2.65047e-05 0L13 1.86043" transform="translate(256 140)" id="Fill-104" fill="#FFFFFE" fill-rule="evenodd" stroke="none" />
    <path d="M0.258994 2.23042C11.9486 19.1596 9.68459 40.6121 9.42451 59.6764C9.13433 80.765 7.40142 101.644 1.41427 122.135C0.866743 124.007 4.15735 124.805 4.70487 122.933C11.2012 100.699 12.7343 78.0082 12.8739 55.129C12.9889 36.6961 14.4836 17.0486 3.20466 0.714621C2.06582 -0.936126 -0.885327 0.57003 0.258994 2.23042" transform="translate(283 334)" id="Fill-105" fill="#D64C2F" fill-rule="evenodd" stroke="none" />
    <path d="M1.95041 27.9525C34.5485 20.5341 66.8674 12.1787 98.9072 2.89105C100.826 2.33356 100.009 -0.4867 98.0749 0.0731351C66.0351 9.36547 33.7136 17.7208 1.11811 25.1369C-0.840693 25.582 -0.010906 28.3975 1.95041 27.9525" transform="translate(287 422)" id="Fill-106" fill="#D64C2F" fill-rule="evenodd" stroke="none" />
    <path d="M12.9745 28.17C11.1755 18.6194 7.86273 9.51089 3.10152 0.751037C2.17755 -0.945248 -0.743855 0.531105 0.177405 2.22271C4.81904 10.7626 7.95241 19.6418 9.70797 28.9445C10.0531 30.7928 13.3196 30.009 12.9745 28.17" transform="translate(223 384)" id="Fill-107" fill="#D64C2F" fill-rule="evenodd" stroke="none" />
    <path d="M85.7643 0.269836C72.3742 9.41337 58.5118 17.8453 45.193 27.1041C31.402 36.6894 10.9835 47.6415 3.69436 63.4402C-2.23437 76.2868 0.707853 94.4439 0.887437 108.081C1.38683 146.228 1.88868 184.375 2.39053 222.522C2.41513 224.49 5.48282 224.495 5.45576 222.522C4.99327 187.168 4.52832 151.811 4.06337 116.456C3.89608 103.825 3.13101 91.0451 3.56152 78.4144C4.4004 54.0415 31.9481 39.8796 49.9828 27.5066C62.2732 19.0772 75.0065 11.3152 87.3117 2.91032C88.9304 1.80358 87.3978 -0.849179 85.7643 0.269836" transform="translate(142 398)" id="Fill-108" fill="#D64C2F" fill-rule="evenodd" stroke="none" />
    <path d="M0 43L47 0" transform="translate(105 626)" id="Stroke-109" fill="none" fill-rule="evenodd" stroke="#E58933" stroke-width="1.496" />
    <path d="M0.533592 2.59916C8.74897 9.26091 9.59023 21.1582 15.2519 29.8116C20.4617 37.7734 37.4042 47.4745 36.87 57.4835C36.7602 59.508 39.8731 59.503 39.9804 57.4835C40.5546 46.7575 28.3675 40.896 22.1991 33.7521C13.6318 23.8289 12.9378 8.64749 2.73285 0.372687C1.18763 -0.881913 -1.0291 1.32941 0.533592 2.59916" transform="translate(382 397)" id="Fill-110" fill="#E58933" fill-rule="evenodd" stroke="none" />
  </g>
</svg>