<?xml version="1.0" encoding="utf-8"?>
<svg width="369px" height="728px" viewBox="0 0 369 728" version="1.1" xmlns:xlink="http://www.w3.org/1999/xlink" xmlns="http://www.w3.org/2000/svg">
  <g id="Group-3">
    <path d="M0.404916 10.3123C2.79077 9.15965 6.74902 20.732 6.74902 20.732C6.74902 20.732 2.47535 5.29795 4.13311 4.08142C6.75139 2.15951 11.35 19.7915 11.35 19.7915C11.35 19.7915 6.79645 0.459957 10.2401 0.00759417C13.686 -0.442213 16.1786 19.2394 16.1786 19.2394C16.1786 19.2394 14.8956 0.569854 17.8957 0.738531C20.8981 0.907209 21.6926 25.0563 21.6926 25.0563C21.6926 25.0563 28.5798 15.3445 30.5056 16.7271C33.7547 19.0631 19.9258 40.3548 19.9258 40.3548L6.93875 43C6.93875 43 -1.97857 11.4675 0.404916 10.3123" transform="translate(51 0)" id="Fill-111" fill="#E46F62" fill-rule="evenodd" stroke="none" />
    <path d="M32.8722 15.6441C30.9723 13.6536 23.0015 22.6976 23.0015 22.6976C23.0015 22.6976 32.6545 10.2439 31.4819 8.48242C29.6314 5.69927 18.8751 20.0327 18.8751 20.0327C18.8751 20.0327 30.1955 4.12652 27.0166 2.36503C23.8377 0.603545 14.3925 17.6396 14.3925 17.6396C14.3925 17.6396 22.3039 1.0565 19.3328 0.0348365C16.3617 -0.986826 6.96848 20.8028 6.96848 20.8028C6.96848 20.8028 3.7599 9.21973 1.39737 9.73308C-2.58801 10.5987 3.21812 35.4936 3.21812 35.4936L14.865 43C14.865 43 34.7721 17.6346 32.8722 15.6441" transform="translate(336 136)" id="Fill-112" fill="#E46F62" fill-rule="evenodd" stroke="none" />
    <path d="M339.898 142.775C333.906 138.699 328.109 134.355 322.326 129.99C322.073 130.384 321.809 130.801 321.519 131.293C312.084 147.103 302.2 162.602 290.876 177.172C287.875 181.032 285.354 185.263 282.112 188.96C279.484 191.957 279.442 191.967 276.908 188.854C271.028 181.628 265.916 173.872 261.06 165.954C255.56 156.986 249.323 148.575 241.62 141.366C230.584 131.03 217.642 124.234 202.397 122.69C193.957 121.833 185.424 122.151 176.936 122.749C175.441 128.936 174.152 135.18 169.72 140.197C164.519 146.08 156.905 147.253 150.064 143.27C144.185 139.849 141.546 134.438 140.168 128.178C139.808 126.547 139.562 124.894 139.261 123.252C130.957 122.853 122.69 121.725 114.354 121.954C112.553 122.003 111.107 121.249 109.614 120.392C101.517 115.755 93.0137 111.969 84.1855 108.903C72.2598 104.765 61.9064 97.4921 50.4948 92.3323C48.7485 91.5417 48.5871 90.4063 48.915 88.6699C51.6101 74.4564 54.1463 60.2109 56.8539 45.9974C59.5615 31.7864 63.449 17.8192 65.7914 3.52443C65.846 3.19933 65.8858 2.89146 65.9156 2.60084C55.9919 1.90137 46.0733 1.2684 36.2316 0C36.0229 0.39653 35.8217 0.815225 35.628 1.25855C29.9048 14.5928 24.5567 28.0551 20.1128 41.8622C16.1383 54.2137 11.995 66.5061 7.43187 78.6606C4.64728 86.0765 1.97945 93.5342 0.498971 101.356C-0.469796 106.477 -0.0649011 111.368 2.03906 116.176C5.3279 123.698 10.2562 130.096 15.5869 136.253C30.0613 152.967 45.9242 165.769 63.5434 179.091C66.1093 181.032 68.7126 183.009 70.6625 185.564C78.8524 196.299 78.4897 221.552 79.6472 234.96C80.8743 249.154 67.1154 261.451 65.1033 275.125C63.834 283.762 65.8858 292.516 70.3421 299.998C75.0145 307.842 82.8467 316.923 90.7434 321.76C103.389 329.509 117.193 333.806 131.928 335.272C140.23 336.094 148.564 336.397 156.838 335.228C170.764 333.257 182.26 326.235 192.914 317.6C193.959 316.751 194.97 315.854 195.999 314.98C197.824 312.561 199.777 310.224 201.456 307.704C208.133 297.688 210.081 286.587 208.471 274.864C206.086 257.513 207.693 240.28 209.554 223.032C209.855 220.261 211.002 218.271 213.779 217.347C216.407 216.473 217.411 218.65 218.772 219.97C228.855 229.736 239.263 239.139 250.053 248.136C255.541 252.712 261.517 256.503 267.976 259.579C274.757 262.808 281.104 261.847 287.209 257.825C291.281 255.146 294.167 251.432 296.582 247.336C303.341 235.866 310.316 224.522 316.121 212.51C322.202 199.922 328.725 187.544 334.848 174.975C339.371 165.69 343.11 156.107 345 145.893C343.246 144.901 341.525 143.881 339.898 142.775" transform="translate(16 33)" id="Fill-113" fill="#101429" fill-rule="evenodd" stroke="none" />
    <path d="M104.555 6.74472C117.188 14.4523 130.977 18.7274 145.697 20.1852C153.99 21.0034 162.315 21.3048 170.58 20.1411C184.491 18.1811 195.975 11.1987 206.617 2.60675C207.662 1.76152 208.672 0.869733 209.699 0C214.337 8.88842 219.841 17.3285 222.369 27.2312C228.411 50.8977 224.131 72.2883 208.642 91.4077C196.424 106.497 182.97 120.371 167.568 132.354C166.126 133.473 164.967 134.951 163.679 136.261C162.434 136.384 161.516 137.085 160.573 137.837C156.63 140.987 152.754 144.238 148.65 147.176C136.037 156.202 123.637 165.536 109.962 173.028C104.945 175.779 105.066 176.044 108.367 181.044C114.382 190.153 120.776 199.019 126.384 208.388C131.461 214.045 135.736 220.305 139.957 226.574C145.684 235.083 150.997 243.866 156.754 252.357C158.759 255.314 159.588 257.897 157.337 260.922C151.997 266.859 147.444 273.361 143.19 280.081C140.878 281.867 139.525 284.427 137.823 286.693C136.622 288.291 135.543 288.408 134.099 287.129C129.565 283.104 125.009 279.103 120.463 275.093C117.31 272.312 114.265 269.402 110.716 267.089C101.257 259.521 91.8008 251.943 82.3368 244.383C73.1308 237.028 64.0018 229.578 54.6742 222.38C48.4112 217.546 42.9546 211.735 36.1258 207.604C29.8926 201.457 23.6916 195.276 17.4161 189.173C13.0439 184.922 9.14811 180.287 5.61213 175.353C-1.92883 164.835 -1.88912 156.667 5.84538 146.38C14.168 135.311 23.8007 125.379 33.7685 115.782C39.7263 110.044 45.6792 104.316 51.2673 98.2284C64.8331 83.4429 79.0638 69.2822 93.0242 54.8667C94.8877 52.941 95.8207 51.0839 95.7984 48.2787C95.6867 33.8387 99.2897 20.1092 104.555 6.74472" transform="translate(0 347)" id="Fill-114" fill="#EE9E39" fill-rule="evenodd" stroke="none" />
    <path d="M3.6205 0C10.3571 4.10973 15.74 9.89162 21.9184 14.7009C31.1201 21.8625 40.1258 29.2751 49.2075 36.5927C58.5437 44.115 67.8726 51.6543 77.2039 59.184C77.4903 65.039 79.3238 70.582 80.7167 76.2079C85.3383 94.904 89.8154 113.634 93.6342 132.511C94.3783 136.196 94.2363 136.247 90.8142 137.439C88.9293 138.1 87.0151 138.673 85.1155 139.285C77.2211 141.72 69.3266 144.16 61.4322 146.597C59.2536 147.426 57.0872 148.289 54.8939 149.081C50.7521 150.573 50.7227 150.563 49.1634 146.658C46.1378 139.08 43.215 131.462 40.116 123.916C33.6634 108.211 27.2328 92.4932 20.5868 76.8636C12.8197 58.5916 7.00348 39.6469 1.15059 20.7363C-0.996207 13.8063 -0.119864 6.56922 3.6205 0" transform="translate(33 555)" id="Fill-115" fill="#E98434" fill-rule="evenodd" stroke="none" />
    <path d="M19.4244 73C14.0751 63.5179 7.97537 54.5442 2.23783 45.325C-0.910247 40.2641 -1.02623 39.9963 3.75979 37.2117C16.8042 29.629 28.6319 20.1816 40.6632 11.0467C44.5782 8.07364 48.2754 4.78319 52.0366 1.5944C52.936 0.833152 53.8118 0.123981 55 0C51.5395 7.23801 48.1713 14.5256 44.6019 21.7016C36.9305 37.1323 29.1479 52.4985 21.4411 67.9069C20.6268 69.531 19.4599 71.0262 19.4244 73" transform="translate(107 483)" id="Fill-116" fill="#E98434" fill-rule="evenodd" stroke="none" />
    <path d="M22.5424 7.42809C30.4218 4.95206 38.3013 2.47356 46.1807 0C46.3982 2.18138 46.5936 4.36772 46.8477 6.54415C47.4585 11.729 46.2784 16.4755 42.4621 19.9989C31.6141 30.0219 21.4649 40.8372 9.75939 49.897C8.30078 51.0236 6.87149 52.2492 5.06594 52.7494C1.78956 53.6531 -0.213896 52.0759 0.0182109 48.6119C0.311399 44.2318 2.47122 40.5475 4.95843 37.1454C6.73711 34.714 8.79676 32.4385 10.9957 30.3859C17.2504 24.5399 19.7156 16.4978 23.3096 9.10684C23.6663 8.37146 23.0506 7.87378 22.5424 7.42809" transform="translate(72 692)" id="Fill-117" fill="#E46B49" fill-rule="evenodd" stroke="none" />
    <path d="M0 19.5551C4.28388 12.6958 8.87018 6.05907 14.2488 0C21.1345 4.16108 23.8538 10.2502 22.7691 18.1797C21.9843 23.9187 21.4269 29.6852 20.5871 35.4142C19.7648 41.0006 19.4774 46.5996 19.6024 52.2286C19.6524 54.4716 19.3475 56.6772 18.5901 58.7628C17.308 62.2912 14.1038 63.0439 11.342 60.4832C9.42754 58.7052 8.16787 56.4196 7.50804 53.939C6.63327 50.6532 5.83598 47.3173 5.42109 43.9489C4.39885 35.6318 2.58433 27.5121 0 19.5551" transform="translate(142 608)" id="Fill-118" fill="#E46B49" fill-rule="evenodd" stroke="none" />
    <path d="M44.8656 7.98442C41.0618 7.27848 37.258 10.1339 35.7399 14.5424C35.4594 14.3622 35.1593 14.148 34.8222 13.8851C32.8194 12.3296 31.3407 10.4698 30.4919 8.27167C30.0539 7.13973 29.7759 5.92259 29.6972 4.60078C29.6135 3.20594 29.5495 1.79163 29.4856 0C29.4733 0.00486855 29.4634 0.0121714 29.4462 0.0194742C27.5295 0.737586 26.2698 1.85492 25.1306 2.99659C24.7616 3.3666 24.1858 2.06427 23.8217 2.42454C18.6228 7.60955 13.6479 8.23759 5.63926 8.78773C4.63541 8.8559 3.70292 8.28627 2.73352 8.03798C2.06182 7.49514 1.4295 6.9742 0.839 6.43379C0.292789 8.76583 0 11.2244 0 13.7853C0 20.2069 1.86253 26.0541 4.90852 30.521C4.95527 30.5915 5.00448 30.6597 5.05368 30.7303C7.90776 34.8199 11.7657 37.7021 16.1378 38.7099C17.026 39.8101 17.3016 41.2001 17.0728 43.0867C16.9547 44.0701 17.0925 45.0877 16.9178 46.0541C15.8746 51.8355 13.9407 56.9548 7.21146 58.3837C6.47088 58.5395 6.37246 59.3452 6.05507 59.9075C6.35278 61.5312 6.59636 63.1646 6.95312 64.7761C8.31865 70.964 10.9316 76.3121 16.7554 79.6933C23.5314 83.6295 31.0725 82.4708 36.2246 76.6553C40.614 71.6967 41.891 65.5258 43.3721 59.4109C35.2405 54.1602 30.6567 46.8622 30.1819 37.1519C30.1499 36.5068 30.0121 35.8471 30.0096 35.2167C33.0802 32.7118 35.5652 29.1407 37.167 24.8978C38.2053 26.1977 39.5634 27.13 41.1824 27.4294C45.4684 28.223 49.7667 24.5132 50.7829 19.1456C51.799 13.7756 49.1516 8.78043 44.8656 7.98442" transform="translate(148 96)" id="Fill-119" fill="#E46F62" fill-rule="evenodd" stroke="none" />
    <path d="M60.7319 3.7982C55.9456 -0.533976 50.0129 -1.12195 44.0827 1.83828C38.1723 4.80106 35.2926 9.67794 35.2282 16.4511C35.2084 19.1059 35.6021 21.7149 36.1617 24.6471C32.6011 22.6286 28.7557 21.1829 24.7345 20.6204C18.3017 19.7193 11.4057 21.2643 6.44367 25.566C1.47912 29.8701 -1.19753 37.0862 0.52087 43.5208C2.40517 50.5892 8.84548 54.7661 15.2883 56.8253C24.9301 59.9103 33.3835 54.2316 41.2376 49.1206C41.2896 50.5485 41.3441 51.7728 41.4134 52.9666C41.6462 57.0391 43.5107 60.2183 46.5612 62.6796C48.7848 64.4639 49.6539 64.4868 50.9464 62.4607C51.0504 62.2647 51.1791 62.0687 51.3054 61.8524C51.922 60.8291 52.385 59.6965 52.9149 58.6274C53.7221 54.5778 54.2297 50.5078 54.0811 46.4556C64.2281 45.412 69.4155 38.3996 70.6238 30.3436C72.2754 19.5411 68.4003 10.7241 60.7319 3.7982" transform="translate(134 50)" id="Fill-120" fill="#11162B" fill-rule="evenodd" stroke="none" />
    <path d="M109.566 2.27419C127.043 34.8479 99.2923 71.3309 75.7322 93.1425C53.5376 113.686 26.9806 129.075 0.744477 144.179C-0.971604 145.166 0.587791 147.769 2.30885 146.779C33.0889 129.058 64.6697 110.765 88.6526 84.4956C108.793 62.4401 127.901 29.9365 112.245 0.755374C111.322 -0.963861 108.646 0.557372 109.566 2.27419" transform="translate(76 364)" id="Fill-121" fill="#E58933" fill-rule="evenodd" stroke="none" />
    <path d="M0.265702 2.24421C25.6948 39.8019 53.1055 75.9082 82.4437 110.491C83.7238 112 85.8851 109.816 84.6124 108.318C55.4465 73.9343 28.1958 38.0326 2.91446 0.69419C1.81409 -0.934682 -0.844512 0.600549 0.265702 2.24421" transform="translate(70 501)" id="Fill-122" fill="#E58933" fill-rule="evenodd" stroke="none" />
    <path d="M44.1334 0.650495C32.365 16.7294 16.5554 28.5324 0.652356 40.1072C-0.894543 41.2314 0.594797 43.8586 2.16088 42.7198C18.5005 30.8294 34.6242 18.6962 46.714 2.17534C47.8604 0.611646 45.2654 -0.901063 44.1334 0.650495" transform="translate(74 708)" id="Fill-123" fill="#FDE9D8" fill-rule="evenodd" stroke="none" />
    <path d="M0.499917 2.60008C3.89389 5.51246 7.22304 8.51101 10.4851 11.5932C11.8857 12.9189 13.9346 10.6934 12.527 9.36268C9.26267 6.2754 5.93583 3.27685 2.54186 0.364469C1.09722 -0.875002 -0.958613 1.34287 0.499917 2.60008" transform="translate(80 722)" id="Fill-124" fill="#FDE9D8" fill-rule="evenodd" stroke="none" />
    <path d="M0.689717 2.87205C5.22389 5.62202 9.64398 8.57533 13.9545 11.7394C15.4554 12.8404 16.8535 10.1648 15.3637 9.06878C11.0532 5.90719 6.63313 2.95388 2.09672 0.203913C0.521951 -0.753245 -0.887289 1.91737 0.689717 2.87205" transform="translate(83 717)" id="Fill-125" fill="#FDE9D8" fill-rule="evenodd" stroke="none" />
    <path d="M18.8239 0.281666C13.0205 4.59773 7.00256 8.48539 0.755829 11.9446C-0.957791 12.8946 0.546095 15.7578 2.25495 14.8105C8.50168 11.3486 14.5196 7.46358 20.323 3.14751C21.908 1.96871 20.4208 -0.905119 18.8239 0.281666" transform="translate(145 636)" id="Fill-126" fill="#FDE9D8" fill-rule="evenodd" stroke="none" />
    <path d="M20.6315 0.204089C14.161 3.52104 7.55468 6.62532 0.804863 9.52551C-1.02481 10.3139 0.589607 12.6255 2.41928 11.8392C9.16654 8.93688 15.7729 5.8326 22.2434 2.51779C23.9936 1.61981 22.392 -0.696044 20.6315 0.204089" transform="translate(142 644)" id="Fill-127" fill="#FDE9D8" fill-rule="evenodd" stroke="none" />
    <path d="M6.94144 1.44535C6.53673 9.28621 5.99712 17.115 5.22696 24.9294C4.34642 33.8409 4.48623 44.6699 0.188992 52.7345C-0.723434 54.4427 1.91573 55.9608 2.82816 54.2478C6.3307 47.6773 6.5956 40.0097 7.44425 32.7366C8.65346 22.3335 9.46042 11.9014 9.99757 1.44535C10.0981 -0.484189 7.03955 -0.479377 6.94144 1.44535" transform="translate(159 617)" id="Fill-128" fill="#FDE9D8" fill-rule="evenodd" stroke="none" />
    <path d="M47 26.5C47 41.136 36.4786 53 23.5013 53C10.5214 53 0 41.136 0 26.5C0 11.864 10.5214 0 23.5013 0C36.4786 0 47 11.864 47 26.5" transform="translate(163 43)" id="Fill-129" fill="#11162B" fill-rule="evenodd" stroke="none" />
    <path d="M15 0.822335C14.3439 5.0594 11.0315 8.20002 7.15601 7.99006C3.27785 7.77427 0.268284 4.28956 0 0L15 0.822335" transform="translate(155 117)" id="Fill-130" fill="#FFFFFE" fill-rule="evenodd" stroke="none" />
  </g>
</svg>