<?xml version="1.0" encoding="utf-8"?>
<svg width="425px" height="379px" viewBox="0 0 425 379" version="1.1" xmlns:xlink="http://www.w3.org/1999/xlink" xmlns="http://www.w3.org/2000/svg">
  <g id="3_character">
    <g id="background">
      <g id="background_1_">
        <path d="M25.9268 20.9023C17.6873 20.9023 8.96663 14.4223 0.0655654 1.58228C-0.0547193 1.46228 0.00542303 1.22228 0.125708 1.16228C0.245992 1.04228 0.426419 1.10228 0.546704 1.22228C9.68834 14.3023 18.4691 20.7223 26.7688 20.2423C33.5047 19.8823 38.1357 15.2023 43.0673 10.2823C47.8787 5.42228 52.8705 0.382281 60.0876 0.0222807C68.1467 -0.397719 76.5065 5.12228 84.9264 16.4023C85.0467 16.5223 84.9866 16.7623 84.8663 16.8223C84.746 16.9423 84.5656 16.8823 84.4453 16.7623C76.1456 5.66228 67.9663 0.202281 60.1478 0.622281C53.1713 0.982281 48.2396 5.90228 43.5485 10.7023C38.7972 15.5023 33.8656 20.4223 26.8891 20.8423C26.5282 20.8423 26.2275 20.9023 25.9268 20.9023Z" transform="translate(352.6693 60.81772)" id="Path" fill="#000000" fill-opacity="0.8662807" stroke="none" />
        <path d="M25.9268 20.9023C17.6873 20.9023 8.96663 14.4223 0.0655654 1.58228C-0.0547193 1.46228 0.00542303 1.22228 0.125708 1.16228C0.245992 1.04228 0.426419 1.10228 0.546704 1.22228C9.68834 14.3023 18.5293 20.7223 26.7688 20.2423C33.5047 19.8823 38.1357 15.2023 43.0673 10.2823C47.8787 5.42228 52.8705 0.382281 60.0876 0.0222807C68.1467 -0.397719 76.4464 5.12228 84.9264 16.4023C85.0467 16.5223 84.9866 16.7623 84.8663 16.8223C84.746 16.9423 84.5656 16.8823 84.4453 16.7623C76.0855 5.72228 67.9061 0.322281 60.0876 0.682281C53.1111 1.04228 48.1794 5.96228 43.4883 10.7623C38.7371 15.5623 33.8054 20.4823 26.8289 20.9023C26.5282 20.9023 26.2275 20.9023 25.9268 20.9023Z" transform="translate(0.054719318 9.99772)" id="Path" fill="#000000" fill-opacity="0.8662807" stroke="none" />
        <path d="M10.4957 20.7738L2.38831 14.9698Q2.2701 14.8852 2.16063 14.7895Q2.05116 14.6938 1.95146 14.588Q1.85176 14.4822 1.76276 14.3673Q1.67376 14.2523 1.59629 14.1293Q1.51882 14.0063 1.45362 13.8764Q1.38841 13.7464 1.33608 13.6108Q1.28375 13.4752 1.24478 13.3351Q1.20582 13.1951 1.18058 13.0519Q1.15534 12.9087 1.14407 12.7638Q1.13279 12.6188 1.13559 12.4735Q1.13839 12.3281 1.15524 12.1837Q1.17209 12.0393 1.20282 11.8973Q1.23355 11.7552 1.27788 11.6167Q1.32222 11.4783 1.37973 11.3447Q1.43725 11.2112 1.50741 11.0839Q1.57757 10.9566 1.65971 10.8366L7.35653 2.51863Q7.44073 2.3957 7.53669 2.28172Q7.63266 2.16774 7.73945 2.06383Q7.84623 1.95993 7.9628 1.86712Q8.07936 1.7743 8.20455 1.6935Q8.32973 1.6127 8.46231 1.54471Q8.5949 1.47672 8.73356 1.4222Q8.87223 1.36768 9.01562 1.32718Q9.15901 1.28668 9.3057 1.26059Q9.4524 1.23449 9.60096 1.22307Q9.74952 1.21165 9.89848 1.21501Q10.0474 1.21837 10.1953 1.23648Q10.3432 1.25459 10.4886 1.28726Q10.634 1.31994 10.7754 1.36687Q10.9168 1.4138 11.0529 1.47451Q11.1889 1.53522 11.3183 1.60912Q11.4477 1.68302 11.5691 1.76939L19.6764 7.53591Q19.795 7.62022 19.9048 7.71561Q20.0146 7.81101 20.1147 7.91658Q20.2148 8.02215 20.3041 8.13691Q20.3935 8.25167 20.4714 8.37455Q20.5492 8.49742 20.6149 8.62726Q20.6805 8.75709 20.7332 8.89266Q20.7859 9.02823 20.8253 9.16827Q20.8646 9.30832 20.8903 9.45151Q20.9159 9.5947 20.9275 9.7397Q20.9392 9.8847 20.9367 10.0301Q20.9343 10.1756 20.9178 10.3201Q20.9013 10.4646 20.8709 10.6069Q20.8404 10.7491 20.7964 10.8878Q20.7523 11.0264 20.6951 11.1601Q20.6378 11.2939 20.5679 11.4214Q20.498 11.549 20.416 11.6692L14.7193 20.0247Q14.6351 20.1482 14.539 20.2627Q14.443 20.3772 14.336 20.4816Q14.229 20.586 14.1122 20.6793Q13.9953 20.7725 13.8698 20.8537Q13.7443 20.9349 13.6113 21.0031Q13.4783 21.0714 13.3392 21.1261Q13.2001 21.1809 13.0562 21.2215Q12.9124 21.2621 12.7652 21.2882Q12.618 21.3143 12.4689 21.3256Q12.3199 21.337 12.1704 21.3334Q12.021 21.3299 11.8726 21.3115Q11.7243 21.2931 11.5785 21.2601Q11.4327 21.2271 11.2909 21.1797Q11.1492 21.1323 11.0128 21.0711Q10.8764 21.0098 10.7468 20.9353Q10.6172 20.8608 10.4957 20.7738Z" transform="matrix(1 -1.7484555E-07 1.7484555E-07 1 14.193592 155.28)" id="Path" fill="#7034FF" stroke="none" />
        <path d="M0.323265 10.0425C0.263123 10.0425 0.263123 10.0425 0.20298 10.0425C0.0225534 9.9825 -0.037589 9.8025 0.0225534 9.6225L3.51081 0.2025C3.57095 0.0225 3.75138 -0.0375 3.93181 0.0225C4.11223 0.0825 4.17238 0.2625 4.11223 0.4425L0.563835 9.8025C0.563835 9.9225 0.44355 10.0425 0.323265 10.0425Z" transform="translate(243.01268 0.3375)" id="Path" fill="#000000" fill-opacity="0.8662807" stroke="none" />
        <path d="M0.300712 2.28C0.180427 2.28 0 2.16 0 2.04C0 1.86 0.0601423 1.68 0.240569 1.68L9.98363 0C10.1641 0 10.2843 0.06 10.3445 0.24C10.4046 0.42 10.2843 0.6 10.1039 0.6L0.300712 2.28C0.360854 2.28 0.360854 2.28 0.300712 2.28Z" transform="translate(79.50819 209.46)" id="Path" fill="#000000" fill-opacity="0.8662807" stroke="none" />
        <path d="M5.44878 9.15588C5.3285 9.15588 5.26835 9.09588 5.20821 9.03588L0.0359697 0.455885C-0.0241726 0.335885 -0.0241726 0.0958846 0.156254 0.0358846C0.276539 -0.0241154 0.517109 -0.0241154 0.577251 0.155885L5.74949 8.73588C5.80964 8.85588 5.80964 9.09588 5.62921 9.15588C5.56907 9.09588 5.50892 9.15588 5.44878 9.15588Z" transform="translate(81.817764 66.74412)" id="Path" fill="#000000" fill-opacity="0.8662807" stroke="none" />
        <path d="M6.20009 8.70541C6.0798 8.70541 6.01966 8.64541 5.95952 8.58541L0.0655654 0.48541C-0.0547193 0.36541 0.00542303 0.12541 0.125708 0.0654102C0.245992 -0.0545898 0.426419 0.0054102 0.546704 0.12541L6.44065 8.22541C6.56094 8.34541 6.5008 8.58541 6.38051 8.64541C6.32037 8.70541 6.26023 8.70541 6.20009 8.70541Z" transform="translate(406.73727 161.2746)" id="Path" fill="#000000" fill-opacity="0.8662807" stroke="none" />
        <path d="M9.98363 20.4C15.4974 20.4 19.9673 15.8333 19.9673 10.2C19.9673 4.5667 15.4974 0 9.98363 0C4.46982 0 0 4.5667 0 10.2C0 15.8333 4.46982 20.4 9.98363 20.4Z" transform="translate(385.1516 371.76)" id="Oval" fill="#7034FF" stroke="none" />
        <path d="M4.99182 10.185C3.72883 10.185 2.46584 9.705 1.44342 8.685C0.481139 7.725 0 6.465 0 5.085C0 3.705 0.541281 2.445 1.44342 1.485L1.44342 1.485L1.44342 1.485C3.36797 -0.495 6.55552 -0.495 8.48007 1.485C9.44235 2.445 9.92349 3.705 9.92349 5.085C9.92349 6.465 9.38221 7.725 8.48007 8.685C7.57794 9.645 6.2548 10.185 4.99182 10.185ZM4.99181 0.645C3.84911 0.645 2.76655 1.065 1.92456 1.965L1.92456 1.965C1.08256 2.805 0.661566 3.945 0.661566 5.145C0.661566 6.345 1.1427 7.485 1.92456 8.325C3.60854 10.065 6.37509 10.065 8.11922 8.325C8.96121 7.485 9.38221 6.345 9.38221 5.145C9.38221 3.945 8.90107 2.805 8.11922 1.965C7.21708 1.065 6.13452 0.645 4.99181 0.645Z" transform="translate(49.316727 315.255)" id="Shape" fill="#000000" stroke="none" />
      </g>
    </g>
    <g id="general_1_" transform="translate(139 34)">
      <g id="general_3_">
        <g id="picture_2_" transform="translate(9.6072235 0)">
          <path d="M150.127 2.78064C149.586 0.73547 147.545 -0.407416 145.563 0.133951L91.943 15.4727L59.939 24.5556L2.71594 40.917C0.734447 41.4583 -0.406411 43.5636 0.133995 45.6088L20.4293 120.378C20.4293 120.378 21.8103 112.317 25.2929 112.438C28.7755 112.558 29.0758 121.16 29.0758 121.16L28.8356 121.521C35.2604 112.738 43.3665 102.693 46.1886 103.655C47.2094 103.956 47.6898 104.678 47.6898 104.678C47.8098 104.858 47.8699 105.039 47.9299 105.219L47.9299 105.219C50.5119 94.9334 55.4356 82.6624 65.5232 78.933C69.1259 77.6096 69.8464 79.2939 73.2089 77.4292C81.3751 72.8576 81.1349 58.8422 96.6866 48.1352C115.961 34.8416 129.051 52.1052 129.051 52.1052C129.051 52.1052 132.714 50.9022 137.337 50.9022C142.561 50.9022 148.926 52.4661 152.348 59.2031C156.672 67.7447 162.616 68.4064 168.2 69.1883L150.127 2.78064ZM55.8559 148.168C55.1353 148.709 54.4148 149.251 53.6943 149.792C54.4148 149.251 55.1353 148.649 55.8559 148.168ZM50.0916 193.823L50.3918 193.402L50.0916 193.402L50.0916 193.823ZM48.1701 159.176C48.1701 159.115 48.2302 158.995 48.2302 158.935C48.2302 158.875 48.2302 158.875 48.2902 158.815C48.2902 158.875 48.2902 158.875 48.2302 158.935C48.2302 158.995 48.1701 159.055 48.1701 159.176ZM47.6297 107.926C47.2094 109.25 46.4288 110.573 45.8884 111.475C46.5489 110.573 47.2694 109.49 47.6297 107.926ZM32.2581 131.566C38.1426 123.566 40.1841 120.979 42.8861 116.769C44.6875 113.941 44.6274 113.761 45.0478 112.979C43.6667 115.205 41.9855 117.791 40.2442 120.317C37.2419 124.648 34.1796 128.919 32.2581 131.566ZM50.0916 193.402L50.0916 193.823L50.3918 193.402L50.0916 193.402Z" transform="translate(0.4664564 17.550713)" id="Shape" fill="#F8BC00" stroke="none" />
          <path d="M163.143 143.763C162.722 144.244 162.122 144.605 161.521 144.786L160.501 145.086L156.778 146.109L153.355 147.071L153.175 147.132L146.63 148.996L145.549 149.297L142.127 150.259L134.321 152.485L130.898 153.448L124.654 155.252L123.093 155.673L120.691 156.335L119.67 156.636L111.804 158.861L111.023 159.102C109.042 152.786 105.019 140.996 101.837 141.959C97.5734 143.162 101.596 157.478 101.596 157.478L104.959 160.846C103.518 159.463 102.077 158.019 100.636 156.636C100.155 156.154 99.6749 155.673 99.1946 155.192C96.3124 152.365 93.3702 149.538 90.488 146.711C90.3079 146.65 90.1878 146.53 90.0077 146.41C89.8876 146.35 89.7675 146.289 89.6474 146.229C88.9269 145.808 88.0262 145.327 87.0054 144.786C87.0054 144.786 87.0054 144.786 87.0054 144.786C86.7652 144.665 86.5851 144.545 86.2849 144.425C86.2248 144.365 86.1047 144.304 86.0447 144.304C85.9847 144.304 85.9847 144.244 85.9246 144.244C85.7445 144.124 85.5043 144.004 85.2641 143.883C85.084 143.823 84.9038 143.703 84.7838 143.643C84.3634 143.402 83.9431 143.222 83.4628 142.981C83.2826 142.861 83.1025 142.801 82.9224 142.68C82.5621 142.5 82.2018 142.319 81.7815 142.139C81.6614 142.079 81.4813 142.019 81.3612 141.898C80.6406 141.537 79.9201 141.177 79.1395 140.816C78.9594 140.755 78.8393 140.695 78.6591 140.575C77.3982 139.973 76.0772 139.372 74.7562 138.77C74.516 138.65 74.2758 138.53 73.9756 138.41C73.7354 138.289 73.5553 138.229 73.3752 138.109C72.3544 137.688 71.3336 137.267 70.3729 136.906C70.1327 136.785 69.8926 136.725 69.6524 136.665C69.4122 136.605 69.172 136.485 68.9318 136.425C68.3914 136.244 67.9111 136.064 67.4307 135.883C67.2506 135.823 67.1305 135.763 66.9503 135.703C66.8302 135.643 66.7102 135.643 66.5901 135.582C66.2298 135.462 65.8095 135.342 65.4492 135.282C65.3291 135.221 65.209 135.221 65.0889 135.161C64.9688 135.161 64.8488 135.101 64.7887 135.101C64.6686 135.101 64.5485 135.041 64.4885 135.041C64.3684 135.041 64.2483 134.981 64.1282 134.981C63.9481 134.921 63.7079 134.921 63.5278 134.861C63.4077 134.861 63.2876 134.8 63.1675 134.8C63.1675 134.8 63.1074 134.8 63.1074 134.8C62.7472 134.74 62.447 134.74 62.0867 134.68C61.7264 134.68 61.3661 134.68 61.0059 134.68C60.9458 134.68 60.8858 134.68 60.7657 134.68C60.7056 134.68 60.5856 134.68 60.5255 134.74C60.4655 134.74 60.4054 134.74 60.3454 134.8C60.2853 134.8 60.2253 134.8 60.1652 134.861C60.1052 134.861 60.0451 134.921 59.9851 134.921C59.9251 134.921 59.9251 134.921 59.865 134.981C59.805 134.981 59.805 135.041 59.7449 135.041C59.6849 135.041 59.6248 135.101 59.5648 135.161C59.5047 135.161 59.5047 135.221 59.4447 135.221C59.3847 135.221 59.3847 135.282 59.3246 135.282C59.2646 135.282 59.2646 135.342 59.2646 135.342C59.2045 135.402 59.1445 135.462 59.0844 135.522C58.4239 136.364 58.7242 137.748 58.7842 137.988C58.7842 137.988 58.7842 137.988 58.7842 138.049C58.7842 138.109 58.8442 138.229 58.8442 138.289C58.8442 138.349 58.9043 138.41 58.9043 138.47C58.9043 138.47 58.9043 138.53 58.9643 138.59C58.9643 138.65 59.0244 138.71 59.0244 138.77C59.0244 138.831 59.0844 138.891 59.1445 138.951C59.2045 139.011 59.2646 139.071 59.3246 139.192C59.3246 139.252 59.3847 139.252 59.3847 139.312C59.3847 139.372 59.4447 139.372 59.4447 139.432C59.5047 139.492 59.5648 139.552 59.6248 139.673C59.6849 139.733 59.7449 139.793 59.805 139.853C59.805 139.853 59.805 139.853 59.805 139.853C59.865 139.913 59.9251 139.973 59.9851 140.034C59.9851 140.034 60.0451 140.094 60.0451 140.094C60.1052 140.154 60.2253 140.214 60.2853 140.274C60.4054 140.334 60.5255 140.455 60.6456 140.515C60.8257 140.635 60.9458 140.755 61.126 140.816C61.3061 140.936 61.4262 140.996 61.6063 141.116C61.6063 141.116 61.6063 141.116 61.6664 141.116C61.8465 141.237 61.9666 141.297 62.1467 141.357C62.3269 141.417 62.447 141.537 62.6271 141.598C62.6871 141.658 62.8072 141.658 62.9273 141.718C63.0474 141.778 63.2275 141.838 63.3476 141.898C63.5878 142.019 63.7679 142.079 63.9481 142.139C64.0081 142.139 64.0682 142.199 64.1282 142.199C64.1883 142.199 64.3083 142.259 64.3684 142.259C64.4284 142.259 64.4284 142.319 64.4885 142.319C64.4885 142.319 64.5485 142.319 64.5485 142.319C64.5485 142.319 64.6086 142.319 64.6086 142.319C64.6086 142.319 64.6086 142.319 64.6086 142.319C64.6086 142.319 64.6086 142.319 64.6086 142.319C65.2691 142.56 65.9896 142.801 66.7702 143.162C67.0704 143.282 67.4307 143.462 67.7309 143.583C70.1327 144.665 73.195 146.35 77.098 148.876C76.1973 148.575 75.3567 148.274 74.516 147.974C73.9756 147.793 73.3752 147.613 72.8348 147.492C72.6546 147.432 72.5345 147.432 72.3544 147.372C71.6939 147.192 71.0334 147.011 70.3729 146.831C70.0727 146.771 69.8325 146.711 69.5323 146.65C68.8718 146.47 68.2113 146.35 67.6108 146.169C67.4307 146.109 67.1905 146.109 67.0104 146.049C66.8903 146.049 66.7702 145.989 66.6501 145.989C66.2298 145.929 65.8095 145.808 65.3291 145.688C64.6686 145.568 64.0081 145.387 63.2275 145.267C62.1467 145.086 61.0059 144.906 59.865 144.726C59.5648 144.665 59.2646 144.665 58.9043 144.605C58.484 144.545 58.0637 144.485 57.5833 144.485C57.3431 144.485 57.0429 144.425 56.8027 144.425C56.5625 144.425 56.3824 144.425 56.1422 144.425C55.902 144.425 55.6619 144.425 55.4217 144.425C55.3616 144.425 55.2415 144.425 55.1815 144.425C55.0614 144.425 55.0014 144.425 54.8813 144.425C54.8212 144.425 54.7011 144.425 54.581 144.425C54.4009 144.425 54.1607 144.425 53.9806 144.485C53.8005 144.485 53.6804 144.485 53.5002 144.545C53.3801 144.545 53.26 144.545 53.2 144.605C53.0199 144.605 52.7797 144.665 52.5996 144.726C52.4795 144.726 52.3594 144.786 52.2393 144.786C52.1192 144.786 51.9991 144.846 51.879 144.906C51.7589 144.906 51.6989 144.966 51.6388 145.026C51.5788 145.026 51.5788 145.086 51.5187 145.086C51.4587 145.086 51.3986 145.147 51.3386 145.147C51.2786 145.147 51.2786 145.207 51.2185 145.207C51.0984 145.267 50.9783 145.327 50.8582 145.447L50.7982 145.507C50.7382 145.507 50.7382 145.568 50.6781 145.568C50.6181 145.568 50.6181 145.628 50.558 145.688C50.558 145.688 50.558 145.688 50.558 145.688C50.498 145.688 50.498 145.748 50.4379 145.808C50.4379 145.808 50.3779 145.808 50.3779 145.868C50.3178 145.929 50.2578 145.989 50.1977 146.109C50.1377 146.169 50.0777 146.289 50.0777 146.35C49.4772 147.553 50.1977 149.056 50.3178 149.237C50.3779 149.297 50.3779 149.357 50.4379 149.417C50.498 149.478 50.498 149.538 50.558 149.598C50.6181 149.658 50.6781 149.778 50.7382 149.838C50.7982 149.959 50.8582 150.019 50.9783 150.139C50.9783 150.139 50.9783 150.139 50.9783 150.139C51.0384 150.199 51.0384 150.199 51.0984 150.259C51.2185 150.38 51.3386 150.5 51.3986 150.56C51.4587 150.62 51.5187 150.681 51.5788 150.741C51.6989 150.861 51.819 150.921 51.9391 150.981C52.0591 151.041 52.1792 151.162 52.2993 151.222C52.2993 151.222 52.2993 151.222 52.3594 151.222C52.4194 151.222 52.4194 151.282 52.4795 151.282C52.4795 151.282 52.4795 151.282 52.5395 151.282C52.6596 151.342 52.7797 151.402 52.8998 151.463C53.0199 151.523 53.14 151.583 53.26 151.643C53.3201 151.643 53.3801 151.703 53.4402 151.703C53.5002 151.763 53.6203 151.763 53.6804 151.823C53.7404 151.884 53.8605 151.884 53.9205 151.944C54.1607 152.004 54.4609 152.124 54.7011 152.184C54.8212 152.184 54.9413 152.244 55.0014 152.244C55.1815 152.305 55.3016 152.305 55.4217 152.365C55.6018 152.425 55.7219 152.425 55.902 152.485C56.0221 152.485 56.1422 152.545 56.2623 152.545C56.2623 152.545 56.3223 152.545 56.3223 152.545C56.5025 152.545 56.6226 152.605 56.8027 152.605C56.9228 152.605 56.9828 152.605 57.1029 152.666C57.5233 152.726 57.9436 152.726 58.2438 152.786C58.3639 152.786 58.484 152.786 58.544 152.786C58.6641 152.786 58.8442 152.786 58.9043 152.786C60.1052 152.846 61.4862 153.087 63.1074 153.387C63.2876 153.448 63.5278 153.448 63.7079 153.508C63.888 153.568 64.1282 153.628 64.3083 153.628C64.4885 153.688 64.6686 153.688 64.8488 153.748C65.3291 153.869 65.8095 153.989 66.2898 154.109C66.4099 154.109 66.47 154.169 66.5901 154.169C66.6501 154.169 66.7702 154.23 66.8302 154.23C67.5508 154.41 68.2713 154.651 69.0519 154.951C69.172 155.011 69.2921 155.072 69.4722 155.072C69.7725 155.192 70.0727 155.312 70.3729 155.372C70.493 155.433 70.6131 155.433 70.7332 155.493C71.3937 155.733 71.9941 155.974 72.7147 156.275L72.7147 156.275C72.7147 156.275 72.7147 156.275 72.7147 156.275C73.2551 156.455 73.7354 156.696 74.2758 156.936C74.456 156.997 74.6361 157.057 74.7562 157.177C74.7562 157.177 74.7562 157.177 74.8163 157.177C75.1765 157.357 75.5368 157.478 75.8971 157.658C76.3774 157.839 76.8578 158.079 77.3382 158.32C77.5183 158.44 77.7585 158.5 77.9386 158.621C78.479 158.861 79.0194 159.102 79.5598 159.403C79.86 159.523 80.1002 159.643 80.4005 159.824C80.7007 159.944 80.9409 160.124 81.2411 160.245C81.3612 160.305 81.4212 160.365 81.5413 160.425C82.3219 160.846 83.1625 161.267 84.0032 161.688C83.7029 161.568 83.4027 161.508 83.0424 161.448C82.6822 161.327 82.3219 161.267 81.9616 161.147C81.7214 161.087 81.4813 161.027 81.2411 160.967C81.0009 160.906 80.7607 160.846 80.5205 160.786C80.2804 160.726 79.9801 160.666 79.74 160.545C79.3797 160.425 79.0795 160.365 78.7192 160.245C78.5391 160.185 78.3589 160.124 78.1788 160.064C77.3982 159.824 76.6176 159.643 75.8971 159.463C75.5368 159.342 75.1165 159.282 74.7562 159.162C74.5761 159.102 74.3959 159.042 74.2158 159.042C71.814 158.44 69.6524 157.899 67.6709 157.478C67.2506 157.357 66.8903 157.297 66.47 157.237C65.209 156.997 64.0682 156.756 63.0474 156.575C62.6871 156.515 62.3269 156.455 62.0266 156.395C61.9065 156.395 61.7865 156.335 61.7264 156.335C61.4862 156.275 61.186 156.275 60.9458 156.215C60.5255 156.154 60.1052 156.094 59.7449 156.034C59.4447 155.974 59.1445 155.974 58.8442 155.914C58.6641 155.914 58.544 155.854 58.4239 155.854C58.1237 155.793 57.8835 155.793 57.5833 155.793C57.4632 155.793 57.3431 155.793 57.163 155.733C57.0429 155.733 56.9228 155.733 56.8027 155.673C56.2623 155.613 55.7819 155.613 55.3016 155.613C55.3016 155.613 55.2415 155.613 55.2415 155.613C55.1214 155.613 55.0614 155.613 54.9413 155.613C54.7612 155.613 54.521 155.613 54.3409 155.613C54.2808 155.613 54.1607 155.613 54.1007 155.613C53.9806 155.613 53.8605 155.613 53.7404 155.613C53.5002 155.613 53.26 155.613 53.0799 155.673C52.9598 155.673 52.8998 155.673 52.7797 155.733C52.7196 155.733 52.6596 155.733 52.5395 155.733C52.4194 155.733 52.3594 155.793 52.2393 155.793C52.1792 155.793 52.1192 155.793 52.0591 155.854C51.9391 155.854 51.879 155.914 51.7589 155.914C51.7589 155.914 51.6989 155.914 51.6989 155.914C51.6388 155.914 51.6388 155.914 51.5788 155.974C51.5187 155.974 51.4587 156.034 51.3986 156.034C51.3386 156.034 51.2786 156.094 51.2185 156.094C51.1585 156.094 51.0984 156.154 51.0384 156.154C50.9783 156.154 50.9183 156.215 50.8582 156.275C50.7982 156.335 50.7382 156.335 50.6781 156.395C50.6781 156.395 50.6181 156.455 50.6181 156.455C50.6181 156.455 50.558 156.515 50.558 156.515C50.558 156.515 50.498 156.575 50.498 156.575C50.498 156.575 50.4379 156.636 50.4379 156.636C50.4379 156.636 50.3779 156.696 50.3779 156.696C50.3178 156.816 50.2578 156.876 50.1977 156.997C50.0777 157.237 49.4772 158.681 50.0176 160.064C50.0777 160.124 50.0777 160.245 50.1377 160.305C50.1377 160.305 50.1377 160.365 50.1377 160.365C50.1977 160.425 50.1977 160.485 50.2578 160.545C50.2578 160.545 50.2578 160.545 50.2578 160.545C50.2578 160.606 50.3178 160.606 50.3178 160.666C50.4379 160.786 50.498 160.906 50.6181 161.027C50.6181 161.027 50.6781 161.087 50.7382 161.087C50.7982 161.147 50.8582 161.207 50.9783 161.267C51.0384 161.327 51.0984 161.327 51.1585 161.388C51.1585 161.388 51.1585 161.388 51.1585 161.388C51.2185 161.448 51.2786 161.448 51.2786 161.508C51.4587 161.628 51.5788 161.688 51.7589 161.809C51.879 161.869 51.9991 161.929 52.1192 161.989C52.2393 162.049 52.4194 162.109 52.5395 162.17C52.6596 162.23 52.8397 162.29 52.9598 162.29C53.0799 162.35 53.2 162.35 53.3201 162.41C53.8605 162.53 54.4009 162.651 54.8813 162.771C54.8813 162.771 54.9413 162.771 55.0014 162.771C55.0014 162.771 55.0614 162.771 55.0614 162.771C55.0614 162.771 55.0614 162.771 55.1214 162.771C55.1214 162.771 55.1815 162.771 55.1815 162.771C55.1815 162.771 55.1815 162.771 55.1815 162.771C55.2415 162.771 55.3016 162.771 55.4217 162.831C55.5418 162.831 55.6619 162.891 55.7819 162.891C55.902 162.891 56.0822 162.952 56.2023 162.952C56.3223 162.952 56.5025 163.012 56.6826 163.072C56.6826 163.072 56.6826 163.072 56.6826 163.072C56.6826 163.072 56.7427 163.072 56.7427 163.072C56.8027 163.072 56.9228 163.132 56.9828 163.132C57.1029 163.132 57.163 163.192 57.2831 163.192C57.3431 163.192 57.4632 163.252 57.5233 163.252C57.7034 163.312 57.8835 163.312 58.1237 163.373C58.1237 163.373 58.1237 163.373 58.1237 163.373C58.4239 163.433 58.7842 163.493 59.1445 163.613C59.1445 163.613 59.2045 163.613 59.2045 163.613C59.4447 163.673 59.6849 163.734 59.9251 163.734C59.9251 163.734 59.9851 163.734 59.9851 163.734C60.2253 163.794 60.4655 163.854 60.7056 163.854C61.3661 163.974 62.0867 164.155 62.8673 164.335C63.828 164.515 64.8488 164.756 65.9896 164.997C66.1097 164.997 66.2298 165.057 66.3499 165.057C66.6501 165.117 66.8903 165.177 67.1905 165.237C67.4907 165.297 67.791 165.358 68.0912 165.418C68.9919 165.598 69.9526 165.839 70.9734 166.079C71.9941 166.32 73.0149 166.561 74.0357 166.801C74.0957 166.801 74.1558 166.801 74.2158 166.861C74.3959 166.922 74.516 166.922 74.6962 166.982C74.8763 167.042 74.9964 167.042 75.1765 167.102C75.5968 167.222 75.9571 167.282 76.3774 167.403C76.6176 167.463 76.7977 167.523 76.9779 167.583C77.6384 167.764 78.1788 167.884 78.6591 168.064C78.7792 168.064 78.8393 168.125 78.9594 168.125C78.419 168.125 77.8185 168.125 77.2781 168.125C76.9178 168.125 76.5576 168.125 76.2573 168.125C75.5968 168.125 74.9363 168.185 74.2758 168.185C74.0357 168.185 73.8555 168.185 73.6153 168.245C73.0749 168.245 72.5946 168.305 72.1142 168.365C71.874 168.365 71.6339 168.425 71.3336 168.425C70.7932 168.486 70.2528 168.546 69.7124 168.606C68.9919 168.666 68.3314 168.726 67.7309 168.846C67.5508 168.846 67.3106 168.907 67.1305 168.907C66.2898 169.027 65.5093 169.147 64.8488 169.267C64.8488 169.267 64.7887 169.267 64.7887 169.267C64.7287 169.267 64.7287 169.267 64.6686 169.267C64.6086 169.267 64.5485 169.267 64.4885 169.328C64.4284 169.328 64.3684 169.328 64.2483 169.388C64.1883 169.388 64.0682 169.448 63.9481 169.448C63.828 169.448 63.6479 169.508 63.5278 169.568C63.3476 169.628 63.1675 169.628 62.9874 169.689C62.3869 169.809 61.6664 169.989 60.8858 170.23C60.6456 170.29 60.3454 170.35 60.1052 170.471C60.1052 170.471 60.1052 170.471 60.1052 170.471C59.9851 170.531 59.865 170.531 59.7449 170.591C59.5047 170.651 59.2045 170.771 58.9643 170.831C58.7242 170.892 58.4239 171.012 58.1837 171.072C58.0637 171.132 57.9436 171.192 57.8235 171.192C57.6433 171.253 57.4632 171.313 57.2831 171.373C57.1029 171.433 56.9228 171.493 56.8027 171.553C56.6226 171.613 56.4424 171.674 56.3223 171.794C56.2023 171.854 56.0822 171.914 56.0221 171.914C55.902 171.974 55.7819 172.034 55.6619 172.095C55.2415 172.275 54.8813 172.516 54.581 172.756C54.4609 172.816 54.3409 172.937 54.2208 172.997C54.1007 173.057 53.9806 173.177 53.8605 173.298C53.8005 173.358 53.7404 173.418 53.6804 173.478C53.6203 173.538 53.5603 173.598 53.5002 173.659C53.4402 173.719 53.4402 173.779 53.3801 173.779C53.3201 173.839 53.26 173.899 53.26 173.959C53.2 174.019 53.2 174.08 53.14 174.14C53.0799 174.2 53.0799 174.26 53.0199 174.32C52.9598 174.441 52.8998 174.561 52.8397 174.681C52.7797 174.862 52.5996 175.343 52.6596 175.824L51.9391 176.005L44.0731 178.23L43.6528 178.35L40.6506 179.193L39.6898 179.493L32.9047 181.418L29.4822 182.381L21.6763 184.606L18.2537 185.569L18.2537 185.569C16.2722 186.11 14.2307 184.967 13.6903 182.922L12.7296 179.433L12.4293 178.29L10.4479 171.072L9.60722 167.944L9.307 166.801L7.02528 158.38L6.48488 156.395L6.18465 155.252L3.36253 144.906L3.0623 143.763L0.240181 133.357L0 132.515C2.10158 129.206 4.44334 125.717 7.02528 122.229L7.32551 121.808C10.0876 118.018 13.1499 114.168 16.4524 110.319C17.0528 109.657 17.6533 108.935 18.2537 108.273C21.0758 105.085 24.1382 101.897 27.3205 98.8296C28.0411 98.1679 28.7016 97.5062 29.4221 96.8446C32.9648 93.5964 36.6876 90.4083 40.6506 87.4007C40.7106 87.4007 40.7106 87.3406 40.7707 87.3406C44.3133 84.6939 47.9761 82.1675 51.879 79.7614C54.1007 78.3779 56.4424 77.0546 58.7842 75.8516C59.3246 75.5508 59.805 75.3102 60.3454 75.0696C64.7887 72.7838 69.4722 70.7386 74.3959 68.9341C74.5761 63.0994 74.6962 57.2646 74.8763 51.3697C72.6546 50.1667 69.4122 48.0614 66.47 44.3921C61.3061 38.016 60.3454 31.0384 60.1652 28.1511C67.5508 23.2788 71.3937 18.1057 73.5553 14.3763C76.9779 8.30096 78.479 1.6241 82.3819 0C83.5828 1.86471 84.9639 3.84972 86.6451 5.89489C92.7698 13.3537 99.5549 17.805 104.358 20.3915C104.839 20.0306 106.04 19.2486 107.721 19.2486C107.781 19.2486 109.282 19.2486 110.663 20.0306C113.185 21.4742 114.506 25.1435 114.026 28.3316C113.425 32.5422 109.702 35.9107 106.1 36.031C105.139 36.0911 104.358 35.8505 103.758 35.6701C103.398 39.9409 103.098 44.3921 102.917 48.9637C102.677 53.5352 102.617 57.9864 102.557 62.3174C116.067 60.6933 129.698 61.2346 143.028 63.4603L143.448 64.9641L145.309 71.8815L146.09 74.7087L146.33 75.6711L149.212 86.1977L149.512 87.3406L149.813 88.5436L152.274 97.6867L152.575 98.8296L153.055 100.514L155.397 109.176L155.697 110.198L156.478 113.146L158.519 120.665L158.819 121.687L161.642 132.154L161.942 133.297L163.743 139.973C164.404 141.417 164.043 142.801 163.143 143.763Z" transform="translate(43.17246 89.084984)" id="Path" fill="#F8BC00" stroke="none" />
          <path d="M0.360271 41.6487C0.300226 41.6487 0.300226 41.6487 0.360271 41.6487C0.12009 41.6487 0 41.4683 0 41.2277L4.14312 0.324357C4.14312 0.204054 4.26321 0.0837498 4.3833 0.0235979C4.50339 -0.036554 4.68352 0.0235979 4.74357 0.143902L32.5445 31.9041C32.6646 32.0244 32.6646 32.265 32.5445 32.3853C32.4244 32.5056 32.1842 32.5056 32.0641 32.3853L4.74357 1.22664L0.660497 41.348C0.660497 41.5284 0.540406 41.6487 0.360271 41.6487Z" transform="translate(60.045147 0.81852895)" id="Path" fill="#000000" stroke="none" />
          <path d="M2.04153 4.21063C3.16904 4.21063 4.08307 3.26805 4.08307 2.10532C4.08307 0.942583 3.16904 0 2.04153 0C0.914026 0 0 0.942583 0 2.10532C0 3.26805 0.914026 4.21063 2.04153 4.21063Z" transform="translate(62.807224 0)" id="Oval" fill="#000000" stroke="none" />
        </g>
        <g id="head_2_" transform="translate(40.230247 60.151917)">
          <path d="M155.757 91.8889C142.487 89.6633 128.857 89.1219 115.287 90.746C115.347 86.4752 115.467 82.024 115.647 77.3923C115.887 72.8207 116.127 68.3695 116.488 64.0987C117.088 64.3393 117.869 64.5198 118.829 64.4596C122.432 64.3393 126.155 60.9708 126.755 56.7602C127.236 53.5721 125.855 49.9029 123.393 48.4592C122.012 47.6772 120.571 47.6772 120.451 47.6772C118.769 47.6772 117.568 48.5194 117.088 48.8201C112.284 46.2336 105.499 41.8425 99.3747 34.3235C97.7535 32.3385 96.3124 30.3535 95.1115 28.4286C91.1485 30.0527 89.7075 36.7296 86.2849 42.8049C84.1233 46.5945 80.2804 51.7676 72.8948 56.5797C73.135 59.4069 74.0357 66.3845 79.1995 72.8207C82.1418 76.4298 85.3842 78.5953 87.6059 79.7984C87.4257 85.6331 87.3056 91.4678 87.1255 97.3627C82.2018 99.1673 77.5183 101.212 73.0749 103.498C72.5345 103.739 72.0542 104.04 71.5138 104.28C69.172 105.543 66.8302 106.867 64.6086 108.19C60.7056 110.536 57.0429 113.123 53.5002 115.769C53.4402 115.769 53.4402 115.829 53.3801 115.829C49.4172 118.837 45.6944 121.965 42.1517 125.273C41.4312 125.935 40.7106 126.597 40.0501 127.258C36.8077 130.326 33.8054 133.514 30.9833 136.702C30.3828 137.364 29.7824 138.086 29.1819 138.747C25.8795 142.597 22.8172 146.447 20.0551 150.236L19.7549 150.236L19.7549 150.657C17.233 154.146 14.8912 157.635 12.7296 160.943L5.76433 135.198C6.30474 134.717 6.84515 134.236 7.38555 133.755C7.56569 133.574 7.74582 133.454 7.86591 133.273C8.94673 132.191 9.8474 131.048 10.628 129.965C10.8081 129.724 10.9282 129.544 11.1084 129.303C11.2885 129.063 11.4086 128.882 11.5287 128.642C11.6488 128.401 11.8289 128.221 11.949 127.98C12.3693 127.318 12.7896 126.657 13.1499 126.055C13.3901 125.694 13.5702 125.333 13.7503 124.972C14.2307 124.19 14.591 123.408 15.0113 122.687C15.1314 122.446 15.2515 122.205 15.3716 121.965C16.0921 120.521 16.6926 119.017 17.1729 117.634C17.233 117.453 17.293 117.273 17.353 117.093C17.4131 116.912 17.4731 116.792 17.5332 116.611C17.5932 116.371 17.6533 116.19 17.7734 115.95C17.7734 115.89 17.8334 115.769 17.8334 115.709C17.8334 115.649 17.8334 115.649 17.8935 115.589C17.8935 115.529 17.9535 115.468 17.9535 115.468C18.0135 115.288 18.0736 115.047 18.1336 114.867C18.3138 114.326 18.4339 113.784 18.5539 113.243C18.614 113.062 18.674 112.882 18.674 112.701C18.674 112.641 18.7341 112.521 18.7341 112.461C18.7941 112.28 18.7941 112.16 18.8542 111.98C18.8542 111.919 18.9142 111.859 18.9142 111.739C18.9743 111.559 18.9743 111.378 19.0343 111.198C19.0944 110.957 19.1544 110.716 19.2144 110.416C19.2745 110.115 19.3345 109.754 19.3946 109.453C20.7756 108.431 22.0966 107.468 23.2975 106.566C24.0781 106.025 24.7986 105.423 25.4591 104.942C26.66 104.04 27.8009 103.137 28.8817 102.295C29.242 101.994 29.6023 101.754 29.9025 101.513C30.2027 101.273 30.5029 101.032 30.7431 100.852C32.5445 99.468 33.9856 98.265 35.0664 97.3026C36.3874 96.1597 38.9093 93.9341 38.4889 91.5881C38.3688 90.9265 38.0686 90.2046 37.6483 89.8437C37.288 89.543 36.8077 89.4227 36.2072 89.4227C36.0871 89.4227 35.907 89.4227 35.7869 89.4227C35.7869 89.4227 35.7869 89.4227 35.7269 89.4227C35.5467 89.4227 35.4266 89.4828 35.2465 89.4828C35.1865 89.4828 35.0664 89.543 35.0063 89.543C34.9463 89.543 34.8262 89.6031 34.7061 89.6031C34.4059 89.6633 34.1657 89.7836 33.8054 89.8437C33.0248 90.1445 32.1242 90.5054 31.1634 90.9866C30.9233 91.1069 30.6831 91.2272 30.4429 91.3475C30.4429 91.3475 30.4429 91.3475 30.4429 91.3475C30.2027 91.4678 29.9625 91.5881 29.7223 91.7686C29.4822 91.8889 29.242 92.0693 28.9418 92.1896C28.7016 92.31 28.4014 92.4904 28.1612 92.6107C27.981 92.731 27.7409 92.8513 27.5607 92.9716C26.4199 93.6333 25.279 94.4153 24.0781 95.1972C23.7779 95.3777 23.5377 95.5582 23.2375 95.7386C23.1174 95.7988 22.9973 95.8589 22.9372 95.9792C22.7571 96.0995 22.577 96.2198 22.4569 96.3401C22.2167 96.4604 22.0366 96.6409 21.7964 96.8214C21.6163 96.9416 21.3761 97.1221 21.1959 97.2424C20.4754 97.7236 19.8149 98.2048 19.1544 98.6861C18.9142 98.8665 18.614 99.1071 18.3738 99.2876C18.1336 99.468 17.8334 99.6485 17.5932 99.8891C15.912 101.152 14.3508 102.355 12.9698 103.438L12.8497 103.318C12.9097 103.258 13.1499 103.077 13.5102 102.776C13.6302 102.716 13.6903 102.596 13.8104 102.476C13.8704 102.415 13.9905 102.355 14.0506 102.235C15.0713 101.393 16.6325 100.009 18.4339 98.4454C18.614 98.265 18.7941 98.1447 18.9743 97.9642C21.316 95.9191 24.0181 93.513 26.6 91.1671C26.7201 91.0468 26.8402 90.9265 27.0203 90.8062C27.1404 90.6859 27.2605 90.5655 27.3806 90.4452C27.5607 90.3249 27.6808 90.1445 27.8609 90.0242C28.0411 89.8437 28.2212 89.7234 28.4014 89.543C28.9418 89.0016 29.4822 88.5204 30.0226 88.0392C30.2628 87.7986 30.5029 87.6181 30.7431 87.3775C30.9233 87.197 31.1034 87.0767 31.2235 86.8963C31.3436 86.776 31.4637 86.6557 31.5837 86.5354C31.7639 86.3549 31.944 86.1745 32.1242 85.994C32.3043 85.8135 32.4844 85.6331 32.6045 85.5128C32.9047 85.212 33.265 84.791 33.6853 84.3699C33.7454 84.3097 33.8054 84.1894 33.9255 84.1293C33.9856 84.0691 33.9856 84.009 34.0456 83.9488C34.1056 83.8285 34.2257 83.7082 34.2858 83.5879C34.2858 83.5879 34.3458 83.5278 34.3458 83.5278C34.4059 83.4676 34.4659 83.4075 34.526 83.3473C34.586 83.227 34.7061 83.1067 34.7661 82.9864C34.8262 82.9263 34.8862 82.8059 34.9463 82.7458C34.9463 82.6856 35.0063 82.6856 35.0063 82.6255C35.0664 82.5653 35.1264 82.445 35.1865 82.3849C35.1865 82.3849 35.2465 82.3247 35.2465 82.3247C35.3065 82.2044 35.3666 82.1443 35.4266 82.024C35.4867 81.9638 35.4867 81.9037 35.4867 81.8435C35.5467 81.7834 35.5467 81.7232 35.5467 81.6029C35.5467 81.5428 35.6068 81.4826 35.6068 81.4225C35.6068 81.3623 35.6668 81.3022 35.6668 81.3022C35.7269 81.0615 35.7869 80.8209 35.847 80.5803C35.847 80.5202 35.847 80.46 35.847 80.3999C35.847 80.3397 35.847 80.2796 35.847 80.2194C35.847 80.1593 35.847 80.0991 35.847 80.039C35.847 79.8585 35.847 79.678 35.7869 79.4976C35.7869 79.4976 35.7869 79.4374 35.7869 79.4374C35.7869 79.3773 35.7869 79.3171 35.7269 79.257C35.4867 78.2946 34.8862 77.6329 34.7061 77.5126C34.646 77.4524 34.586 77.3923 34.4659 77.3923C34.4059 77.3923 34.4059 77.3321 34.3458 77.3321C34.1657 77.272 34.0456 77.272 33.8054 77.272C33.7454 77.272 33.6253 77.272 33.5652 77.272C33.5052 77.272 33.4451 77.272 33.3851 77.272C33.3251 77.272 33.265 77.272 33.1449 77.3321C33.0849 77.3321 33.0248 77.3321 32.9648 77.3923C32.8447 77.3923 32.7246 77.4524 32.6045 77.4524L32.6045 77.4524C32.4844 77.5126 32.3643 77.5126 32.2442 77.5727C32.1842 77.5727 32.1242 77.6329 32.0641 77.6329C31.944 77.693 31.7639 77.7532 31.6438 77.8133C30.2628 78.4149 28.3413 79.4976 25.6993 81.3022C25.3391 81.5428 24.9788 81.8435 24.5585 82.0841C24.4384 82.2044 24.2582 82.3247 24.1381 82.3849C23.958 82.5052 23.8379 82.6255 23.6578 82.7458C23.1774 83.1067 22.6971 83.4676 22.2167 83.8285C22.0366 83.9488 21.8564 84.0691 21.7363 84.1894C21.5562 84.3097 21.3761 84.4301 21.1959 84.6105C21.0158 84.7308 20.8357 84.9113 20.5955 85.0316C20.4153 85.212 20.1752 85.3323 19.935 85.5128C19.7549 85.6331 19.5747 85.7534 19.4546 85.9338C19.3946 85.994 19.3345 86.0542 19.2745 86.0542C18.9743 86.2948 18.674 86.5354 18.3738 86.776C17.9535 87.0767 17.5932 87.4376 17.1729 87.7384C16.8727 87.979 16.6325 88.2196 16.3323 88.4602C15.3115 89.3024 14.1707 90.2046 13.0298 91.2272C12.8497 91.3475 12.6695 91.528 12.4894 91.6483C10.5679 93.2724 8.46637 95.0769 6.2447 97.0018C16.3923 87.2572 24.1381 79.4976 27.921 75.4674C29.1219 74.2042 31.5237 71.6177 30.8032 69.4522C30.8032 69.4522 30.4429 68.2492 28.9418 67.5274C24.9187 65.422 9.307 81.0615 0 90.8062C0.0600451 90.746 0.0600451 90.6859 0.12009 90.6257C0.180135 90.5655 0.240181 90.4452 0.300226 90.3851C0.420316 90.2046 0.600451 90.0242 0.780587 89.7836C0.900677 89.6031 1.02077 89.4828 1.14086 89.3024C1.32099 89.0016 1.50113 88.761 1.74131 88.5204C7.62573 80.5202 9.66727 77.9336 12.3693 73.723C14.1707 70.8959 14.1106 70.7154 14.5309 69.9334C14.8312 69.3921 15.1914 68.9109 15.4316 68.4296C16.0321 67.4672 16.8126 66.4446 17.1729 64.8807C17.4731 63.9182 17.6533 62.8957 17.4131 62.1137L17.4131 62.1137C19.995 51.8277 24.9187 39.5567 35.0063 35.8273C38.609 34.504 39.3296 36.1882 42.6921 34.3235C50.8582 29.752 50.6181 15.7366 66.1698 5.02952C85.4442 -8.26405 98.5341 8.99955 98.5341 8.99955C98.5341 8.99955 102.197 7.79651 106.82 7.79651C112.044 7.79651 118.409 9.36046 121.832 16.0975C126.155 24.639 132.099 25.3007 137.684 26.0827L155.757 91.8889Z" transform="translate(0.060045145 0.44429883)" id="hair_2_" fill="#000000" stroke="none" />
          <path d="M0 3.84972C0.0600451 3.84972 0.12009 3.90987 0.180135 3.90987C2.94221 5.11291 5.46411 4.752 6.90519 4.57155C11.8289 3.90987 16.9327 0.421063 17.5332 0C16.6325 1.56395 15.0713 3.84972 12.4293 5.77458C7.32551 9.504 1.8614 9.32355 0.12009 9.20324C0.12009 7.39869 0.0600451 5.59413 0 3.84972Z" transform="translate(86.94537 75.91172)" id="Path" fill="#000000" stroke="none" />
          <path d="M0.362704 4.05187C0.302659 4.05187 0.242614 4.05187 0.182568 3.99172C0.00243293 3.93157 -0.0576122 3.69096 0.0624781 3.51051C0.602884 2.36762 1.44352 1.46534 2.40424 0.80367C2.8846 0.502911 3.36496 0.202151 3.90537 0.0216956C4.0855 -0.0384563 4.26564 0.0216956 4.32568 0.262303C4.38573 0.442759 4.32568 0.623215 4.14555 0.743519C3.66519 0.923974 3.24487 1.16458 2.82455 1.40519C1.92388 2.00671 1.20334 2.84884 0.722975 3.87142C0.602884 3.99172 0.482794 4.05187 0.362704 4.05187Z" transform="translate(114.74384 48.099834)" id="Path" fill="#000000" stroke="none" />
        </g>
        <g id="hand_l_2_" transform="translate(23.417606 120.30383)">
          <path d="M8.58646 8.72336L8.34628 9.08427C8.34628 9.08427 8.28623 9.14442 8.28623 9.14442C7.32551 10.2873 6.66501 11.2497 6.2447 11.9716C5.94447 12.4528 5.76433 12.8738 4.9237 14.3175C4.56343 14.919 4.32325 15.4002 4.08307 15.701C3.66275 16.5431 3.18239 17.3852 2.76208 18.2274L2.16163 15.9416L0 7.94139C0 7.94139 1.38104 -0.11897 4.86366 0.00133341C8.28623 0.121637 8.58646 8.72336 8.58646 8.72336Z" transform="translate(7.085327 9.622973)" id="Path" fill="#000000" stroke="none" />
          <path d="M0.315845 36.4521C0.315845 36.4521 0.2558 36.4521 0.2558 36.4521C0.0756647 36.3919 -0.0444256 36.2115 0.0156195 36.031L6.26031 0.30076C6.32036 0.120304 6.5005 0 6.68063 0C6.86077 0.0601519 6.98086 0.240608 6.98086 0.421063L1.4567 32.1211L9.14248 10.5266C9.20253 10.3461 9.38266 10.2258 9.5628 10.286C9.74293 10.3461 9.86302 10.5266 9.74293 10.7672L0.736161 36.2115C0.616071 36.3318 0.495981 36.4521 0.315845 36.4521Z" transform="translate(0.46474165 17.2636)" id="Path" fill="#000000" stroke="none" />
          <path d="M2.12523 31.107C2.06519 31.107 2.00514 31.107 1.9451 31.0469C1.76496 30.9265 1.76496 30.6859 1.88505 30.5656C6.38844 24.4301 9.63087 19.7984 11.4923 17.0315C13.9541 13.4825 15.8756 10.4749 17.2566 8.18912C18.0972 6.74548 20.0787 3.37697 18.9379 1.69272C18.9379 1.69272 18.5176 1.0912 17.6169 0.790438C16.416 0.429526 12.6331 2.23408 0.624102 18.5353C0.504012 18.7157 0.263831 18.7157 0.143741 18.5954C-0.0363947 18.4751 -0.0363947 18.2345 0.0836955 18.1142C9.57083 5.18153 15.3352 -0.71336 17.797 0.0686147C18.9379 0.429526 19.4783 1.2115 19.4783 1.27165C20.8593 3.37697 18.6977 6.98608 17.797 8.55003C16.416 10.896 14.4945 13.8434 12.0327 17.4525C10.1112 20.2195 6.92884 24.8512 2.42546 30.9867C2.36541 31.0469 2.24532 31.107 2.12523 31.107Z" transform="translate(15.047682 0.41260064)" id="Path" fill="#000000" stroke="none" />
          <path d="M0.323876 46.7143C0.203786 46.7143 0.143741 46.6542 0.0836955 46.594C-0.0363947 46.4136 -0.0363947 46.2331 0.143741 46.1128L0.564057 45.7519C4.64713 42.3232 6.98889 38.2931 8.49002 35.6464C11.192 30.9545 13.0534 25.7815 14.0142 20.3076C14.0142 20.1873 14.0742 20.1272 14.1343 20.067C17.6769 17.4203 20.9194 15.0143 23.6814 12.9089C26.2634 10.9239 28.425 9.17953 29.8661 7.91634C30.9469 6.95391 33.5288 4.72829 33.1686 2.50267C33.0485 1.90115 32.7483 1.29963 32.448 0.99887C31.4873 0.156743 27.1641 -0.26432 8.18979 14.5331C8.0697 14.6534 7.88956 14.6534 7.76947 14.5331L7.64938 14.4127C7.52929 14.2924 7.52929 14.0518 7.64938 13.9315C7.76947 13.8112 7.88956 13.8112 8.00965 13.8714C17.797 6.23209 29.9261 -2.18918 32.9284 0.517655C33.4088 0.938718 33.769 1.72069 33.8891 2.44252C34.3094 5.0892 31.4873 7.49528 30.3464 8.51786C28.8453 9.78105 26.6837 11.5255 24.1018 13.5706C21.3997 15.6759 18.2173 18.082 14.6747 20.6685C13.7139 26.2025 11.8525 31.3756 9.09047 36.1276C7.52929 38.8344 5.18753 42.8646 0.984373 46.4136L0.564057 46.7745C0.443966 46.7143 0.383921 46.7143 0.323876 46.7143Z" transform="translate(22.072964 29.558302)" id="Path" fill="#000000" stroke="none" />
          <path d="M6.80875 26.8333C6.68866 26.8333 6.62862 26.7732 6.56857 26.713C6.44848 26.5326 6.44848 26.3521 6.62862 26.2318C8.0697 25.0288 20.499 14.3819 26.3835 8.42685C27.4643 7.34412 29.9862 4.81774 29.4458 2.47181C29.2056 1.50938 28.5451 0.907862 28.5451 0.907862C27.4643 0.00558301 22.4205 1.26877 0.564057 20.3971C0.443966 20.5174 0.203786 20.5174 0.0836955 20.3369C-0.0363947 20.2166 -0.0363947 19.976 0.143741 19.8557C23.081 -0.174873 27.5844 -0.836544 29.0255 0.366495C29.0855 0.366495 29.8661 1.08832 30.1663 2.29136C30.8268 4.99819 28.0647 7.70503 26.9239 8.90807C21.1595 14.7428 9.45074 24.7882 7.16902 26.713C6.98889 26.8333 6.92884 26.8333 6.80875 26.8333Z" transform="translate(23.09373 17.197865)" id="Path" fill="#000000" stroke="none" />
          <path d="M6.5149 30.3457C6.45485 30.3457 6.33476 30.2855 6.27472 30.2254C6.15463 30.1051 6.15463 29.8644 6.27472 29.7441C6.27472 29.7441 6.33476 29.684 6.33476 29.684C17.2029 19.2176 24.6485 11.7587 27.951 8.20976C28.9718 7.12702 31.4336 4.54049 30.7731 2.55548C30.7731 2.49533 30.4129 1.5329 29.0919 0.811074C27.4707 -0.031053 21.6463 1.89381 0.570429 24.0297C0.450339 24.15 0.210158 24.15 0.0900677 24.0297C-0.0300226 23.9094 -0.0300226 23.6688 0.0900677 23.5485C16.3623 6.4052 26.2698 -1.41455 29.4521 0.209555C31.0133 1.05168 31.4336 2.31487 31.4937 2.37502C32.2743 4.7811 29.6323 7.54809 28.4914 8.75113C25.1889 12.3001 17.7433 19.7589 6.81512 30.2855C6.69503 30.2855 6.63499 30.3457 6.5149 30.3457Z" transform="translate(16.842663 7.3695865)" id="Path" fill="#000000" stroke="none" />
          <path d="M9.06682 1.32334L0 26.8278L3.12235 8.96264L8.70655 0L9.06682 1.32334Z" transform="translate(0.7805869 26.526995)" id="Path" fill="#000000" stroke="none" />
          <path d="M0.362704 9.82845C0.302659 9.82845 0.242614 9.82845 0.182568 9.7683C0.00243293 9.648 -0.0576122 9.46754 0.0624781 9.28709C0.602884 8.20435 1.20334 7.12162 1.80379 6.03888C2.94465 3.99372 4.26564 2.00871 5.64668 0.143996C5.76677 -0.0364595 5.9469 -0.0364595 6.12704 0.0838444C6.30717 0.204148 6.30717 0.444756 6.18708 0.56506C4.86609 2.42977 3.5451 4.41478 2.40424 6.3998C1.80379 7.42238 1.20334 8.50511 0.66293 9.58785C0.602884 9.7683 0.482794 9.82845 0.362704 9.82845Z" transform="translate(9.4847 18.382793)" id="Path" fill="#000000" stroke="none" />
        </g>
        <g id="hand_r_2_" transform="translate(102.07675 223.1636)">
          <path d="M46.535 25.8718C46.4749 25.8718 46.4749 25.8718 46.4149 25.8718C45.0339 25.4507 43.6528 24.9695 42.3318 24.368C41.7314 24.0672 41.0709 23.7665 40.4104 23.4657C39.2695 22.8642 38.1287 22.1423 36.9878 21.3604C31.2835 17.3302 27.921 12.2173 26.1797 8.54802C23.5977 8.00665 20.9558 7.76604 18.3738 7.82619C16.6325 7.88635 14.8312 8.0668 13.1499 8.42771C12.9097 8.48786 6.18465 10.4729 2.40181 9.99166C1.38104 9.87136 0.660497 9.51045 0.300226 8.84878C0.12009 8.54802 0.0600451 8.24726 0 7.88635C0 7.34498 0.12009 6.80361 0.180135 6.62316C1.32099 3.13434 11.4086 1.26964 12.5494 1.08918C17.1729 0.307204 21.9165 -0.0537071 26.7201 0.00644485C26.9002 0.00644485 27.0804 0.186901 27.0804 0.367356C27.0804 0.547812 26.9002 0.728268 26.7201 0.728268L26.7201 0.728268C21.9765 0.668116 17.233 1.02903 12.6695 1.811C8.94673 2.47267 1.62122 4.33738 0.840632 6.86376C0.780587 7.04422 0.660497 7.46528 0.660497 7.88635C0.660497 8.12695 0.720542 8.36756 0.840632 8.48786C1.08081 8.90893 1.62122 9.14954 2.46185 9.26984C6.06456 9.75106 12.9097 7.70589 12.9698 7.70589C14.7711 7.34498 16.5725 7.16452 18.3738 7.10437C21.1359 7.04422 23.8379 7.28483 26.54 7.88635C26.66 7.88635 26.7201 8.00665 26.7801 8.0668C28.5214 11.6759 31.7639 16.7888 37.4682 20.7589C38.549 21.5408 39.6898 22.2025 40.8307 22.804C41.4311 23.1048 42.0916 23.4055 42.6921 23.7063C43.953 24.3078 45.3341 24.789 46.6551 25.1499C46.8352 25.2101 46.9553 25.3906 46.8953 25.571C46.8352 25.7515 46.7151 25.8718 46.535 25.8718Z" transform="translate(3.4225733 33.73878)" id="Path" fill="#000000" stroke="none" />
          <path d="M48.9535 29.4533C48.8934 29.4533 48.7733 29.3931 48.7133 29.333L47.9927 28.6112C47.3923 27.9495 46.7318 27.348 46.1313 26.6863C44.4501 25.002 42.949 23.4982 41.5679 22.1749C40.4871 21.0922 39.4063 20.0696 38.3255 18.9868C36.1639 16.8815 33.8821 14.7161 31.6004 12.6107C30.4596 12.0092 29.3187 11.3476 28.1778 10.746C28.1778 10.746 28.1778 10.746 28.1778 10.746C28.1778 10.746 28.1778 10.746 28.1778 10.746L28.1778 10.746L27.2171 10.2648C25.656 9.4227 20.8523 6.89631 16.0487 4.73085C11.3052 2.62553 7.52232 1.30219 4.94037 0.881123C2.83879 0.520211 1.5178 0.700667 0.977395 1.42249C0.436989 2.14431 0.677169 3.34735 0.737214 3.58796C0.737214 3.58796 0.737214 3.64811 0.737214 3.64811C1.15753 5.27221 3.67943 6.59555 5.12051 7.19707C5.84105 7.49783 6.32141 7.67829 6.38146 7.67829C8.06272 8.27981 9.68394 9.00163 11.3052 9.78361C13.3467 10.8062 14.9679 11.7686 16.5291 12.7311C17.3697 13.2123 18.2104 13.7536 18.9909 14.295C19.1711 14.4153 19.1711 14.5958 19.111 14.7762C18.9909 14.9567 18.8108 15.0168 18.6307 14.8965C17.79 14.3552 17.0094 13.8739 16.1688 13.3326C14.6076 12.3701 13.0465 11.4077 11.0049 10.4453C9.44376 9.6633 7.82254 9.00163 6.20132 8.40011C6.20132 8.40011 5.66092 8.21966 4.94037 7.9189C3.01893 7.07677 0.617124 5.69328 0.136763 3.88872C0.136763 3.88872 0.136763 3.82857 0.136763 3.82857C0.0166726 3.4075 -0.223508 2.02401 0.497034 1.00143C1.21758 0.0389961 2.7187 -0.201612 5.12051 0.1593C7.82254 0.580363 11.6054 1.90371 16.409 4.06917C21.2727 6.23464 26.0763 8.76102 27.6374 9.60315L28.5982 10.0844C28.5982 10.0844 28.5982 10.0844 28.5982 10.0844C28.5982 10.0844 28.5982 10.0844 28.5982 10.0844L28.5982 10.0844C29.7991 10.6859 30.9399 11.3476 32.0808 12.0092C32.0808 12.0092 32.1408 12.0694 32.1408 12.0694C34.4225 14.2348 36.7043 16.4003 38.8659 18.5056C39.9467 19.5282 41.0275 20.611 42.1083 21.6937C43.4894 23.017 44.9304 24.5208 46.6718 26.2051C47.3322 26.8668 47.9327 27.4683 48.5331 28.1299L49.2537 28.8518C49.3738 28.9721 49.3738 29.2127 49.2537 29.333C49.1336 29.3931 49.0135 29.4533 48.9535 29.4533Z" transform="translate(9.290325 0.3820673)" id="Path" fill="#000000" stroke="none" />
          <path d="M29.5395 13.2404C29.4794 13.2404 29.4794 13.2404 29.4194 13.2404C27.7982 12.7592 26.297 12.3983 24.7359 12.0374L24.5557 11.9772C20.8329 11.075 17.0501 10.2328 13.4474 9.45086C8.58371 8.36812 5.46136 7.76661 5.46136 7.76661L5.40132 7.76661C4.44059 7.58615 3.23969 7.34554 2.15888 6.80417C1.19816 6.32296 0.537659 5.66129 0.237434 4.87931C-0.363018 3.37552 0.357524 1.75141 0.417569 1.57096C0.537659 1.2702 0.77784 1.02959 1.01802 0.849135C1.31825 0.608527 1.73856 0.428072 2.21892 0.307768C4.14037 -0.233599 7.56294 -0.0531436 12.5467 0.788983L12.6668 0.788983C12.967 0.849135 13.2672 0.909287 13.6275 0.969439C16.7498 1.51081 20.4726 2.41308 24.7959 3.49582C27.6781 4.21764 30.9805 5.11992 34.5833 6.1425C34.7634 6.20266 34.8835 6.38311 34.8234 6.56357C34.7634 6.74402 34.5833 6.86433 34.4031 6.80417C30.8605 5.78159 27.558 4.87931 24.6758 4.15749C20.4126 3.07476 16.6298 2.23263 13.5675 1.63111C13.2672 1.57096 12.967 1.51081 12.6668 1.45065L12.5467 1.45065C7.68303 0.608527 4.3205 0.428072 2.51915 0.969439C2.09883 1.08974 1.79861 1.21005 1.55843 1.3905C1.37829 1.51081 1.2582 1.69126 1.13811 1.87172C1.07807 2.05217 0.417569 3.37552 0.957975 4.63871C1.19816 5.30038 1.73856 5.78159 2.57919 6.20266C3.53992 6.68387 4.68077 6.92448 5.6415 7.10493L5.70154 7.10493C5.76159 7.10493 8.88393 7.76661 13.7476 8.78919C17.4103 9.57116 21.1331 10.4133 24.8559 11.3156L25.0361 11.3757C26.5973 11.7366 28.1584 12.1577 29.7796 12.6389C29.8997 12.6991 30.0198 12.8194 30.0198 12.9998C29.8997 13.06 29.7196 13.2404 29.5395 13.2404Z" transform="translate(0.6632436 21.226618)" id="Path" fill="#000000" stroke="none" />
          <path d="M34.5928 17.8802C34.5327 17.8802 34.4727 17.8802 34.4127 17.82C30.93 15.9553 27.6876 14.3913 24.6853 13.1282C24.6853 13.1282 24.6853 13.1282 24.6253 13.1282C24.0849 12.8875 23.6045 12.7071 23.1242 12.5266C23.1242 12.5266 23.1242 12.5266 23.1242 12.5266C19.6415 11.1431 16.4592 10.1206 13.577 9.51904C12.0759 9.21828 10.6948 9.03783 9.43387 8.91752L9.19369 8.91752C7.63252 8.79722 4.45013 8.55661 2.22846 7.11296C1.44787 6.5716 0.847418 5.97008 0.487147 5.1881C0.307011 4.76704 -0.353485 3.26324 0.246966 2.00005C0.607237 1.27823 1.26773 0.797013 2.2885 0.436101C2.40859 0.37595 2.52868 0.37595 2.64877 0.315798C4.33004 -0.105266 6.91198 -0.105266 10.2745 0.315798C11.2953 0.436101 12.4361 0.616557 13.6971 0.857165C15.1382 1.09777 16.3991 1.39853 17.3598 1.57899L17.4799 1.57899C19.9418 2.12036 22.4637 2.78203 24.9255 3.564C25.8862 3.86476 26.7269 4.16552 27.5675 4.46628C31.1102 5.72947 34.5928 7.23327 38.0154 8.97767C38.1955 9.03783 38.2555 9.27843 38.1955 9.45889C38.1355 9.63935 37.8953 9.6995 37.7151 9.63935C34.3526 7.89494 30.87 6.39114 27.3874 5.1881C26.6068 4.88734 25.7061 4.58658 24.8054 4.34598C22.3436 3.564 19.8817 2.90233 17.4199 2.36096L17.2998 2.36096C16.3391 2.18051 15.0781 1.87975 13.637 1.63914C12.3761 1.39853 11.2953 1.21808 10.2745 1.09777C6.97202 0.676709 4.51017 0.676709 2.88895 1.09777C2.76886 1.09777 2.64877 1.15792 2.58873 1.21808C1.74809 1.45868 1.20769 1.87975 0.967508 2.42111C0.487147 3.38355 1.0876 4.70689 1.20769 5.00765C1.50791 5.66932 1.98828 6.21069 2.70882 6.63175C4.75035 8.01524 7.93275 8.25585 9.31378 8.316L9.55396 8.316C10.875 8.43631 12.256 8.61676 13.7571 8.91752C16.6393 9.51904 19.8817 10.5416 23.3643 11.9251C23.3643 11.9251 23.3643 11.9251 23.4244 11.9251C23.9648 12.1056 24.4452 12.3462 24.9856 12.5868C24.9856 12.5868 25.0456 12.5868 25.0456 12.5868C28.0479 13.85 31.2903 15.4139 34.7129 17.2185C34.7129 17.2185 34.7729 17.2185 34.7729 17.2185C34.9531 17.2786 35.0131 17.5192 34.9531 17.6997L34.9531 17.6997C34.893 17.7599 34.833 17.8802 34.7729 17.8802C34.7129 17.8802 34.6528 17.8802 34.5928 17.8802Z" transform="translate(0.4735757 10.150636)" id="Path" fill="#000000" stroke="none" />
          <path d="M11.1794 17.1925L10.9993 17.2526L8.53741 17.9745L5.11483 18.9369L1.69226 15.5684C1.69226 15.5684 -2.27072 1.25223 1.93244 0.0491916C5.17488 -0.853087 9.1979 10.8765 11.1794 17.1925Z" transform="translate(50.54702 7.890861)" id="Path" fill="#000000" stroke="none" />
          <path d="M4.15873 12.1062C4.03864 12.1062 3.85851 12.046 3.85851 11.8656L1.15648 4.28643C1.09643 4.10598 0.976342 3.74507 0.796206 3.08339C0.616071 2.42172 0.315845 1.51945 0.0156195 0.436711C-0.0444256 0.256255 0.0756647 0.0757992 0.2558 0.0156473C0.435936 -0.0445046 0.616071 0.0757992 0.676116 0.256255C0.976342 1.33899 1.27657 2.24127 1.4567 2.90294C1.63684 3.50446 1.75693 3.92552 1.81697 4.04583L4.51901 11.625C4.57905 11.8054 4.51901 11.9859 4.33887 12.1062C4.27882 12.1062 4.21878 12.1062 4.15873 12.1062Z" transform="translate(61.410564 24.766941)" id="Path" fill="#000000" stroke="none" />
          <path d="M19.2745 0L0 22.3164C1.50113 22.978 2.82212 23.4592 4.02303 23.76C9.24695 16.1809 14.4108 8.60172 19.6348 1.02258C19.6348 0.902279 19.6348 0.721823 19.5747 0.541367C19.5147 0.30076 19.3946 0.120304 19.2745 0Z" transform="translate(45.934536 35.429478)" id="Path" fill="#000000" stroke="none" />
        </g>
        <g id="body_2_" transform="translate(0 123.91294)">
          <path d="M23.0662 149.237C22.826 149.237 22.7059 149.237 22.6458 149.237C22.6458 149.237 22.6458 149.237 22.6458 149.237C20.0639 149.237 17.7221 148.816 15.8007 147.914C8.95555 145.868 4.21199 136.124 1.69009 118.86C1.14968 115.311 0.849458 111.943 0.609278 109.717C0.549233 108.935 0.489188 108.213 0.429142 107.552C-1.13203 91.3106 1.57 70.3777 8.47519 45.3545C12.3781 31.0384 17.7221 15.459 23.8467 0.240608C23.9068 0.120304 23.9668 0.0601519 24.0869 0C24.207 0 24.3271 0 24.3872 0.120304L45.9434 22.7374C46.0034 22.7976 46.0635 22.9179 46.0635 22.978L44.9226 93.2355C44.9226 93.4159 44.7425 93.5964 44.5623 93.5964C44.5623 93.5964 44.5623 93.5964 44.5623 93.5964C44.3822 93.5964 44.2021 93.4159 44.2021 93.2355L45.3429 23.0983L24.207 0.962431C18.1425 16.0004 12.9185 31.3993 9.07564 45.4748C2.2305 70.3777 -0.471535 91.1903 1.08964 107.371C1.14968 108.033 1.20973 108.755 1.26977 109.537C1.50995 111.702 1.81018 115.071 2.35059 118.62C4.81244 135.582 9.37587 145.147 15.9808 147.132C15.9808 147.132 16.0409 147.132 16.0409 147.132C17.9023 147.974 20.1239 148.395 22.6458 148.395C22.7059 148.395 27.5695 148.575 33.0937 146.41C35.1953 145.568 38.1975 143.883 41.7402 141.477C42.5208 140.936 43.3614 140.395 44.2021 139.733C51.8878 134.259 61.1948 126.439 70.3817 117.657C70.5018 117.537 70.742 117.537 70.8621 117.657C70.9822 117.777 70.9822 118.018 70.8621 118.138C61.6752 126.921 52.3682 134.8 44.6224 140.274C43.7217 140.936 42.8811 141.477 42.1005 142.019C38.5578 144.425 35.4955 146.109 33.3339 147.011C28.5903 149.056 24.3872 149.237 23.0662 149.237Z" transform="translate(0.11126394 49.384724)" id="Path" fill="#000000" stroke="none" />
          <path d="M0.480361 40.9033C0.300226 40.9033 0.12009 40.7228 0.12009 40.5424C0.0600452 28.2112 0.0600452 15.9403 0 3.60911L0 0.360911C0 0.180456 0.180135 0 0.360271 0C0.360271 0 0.360271 0 0.360271 0C0.540406 0 0.720542 0.180456 0.720542 0.360911L0.720542 3.60911C0.780587 15.9403 0.780587 28.2112 0.840632 40.5424C0.840632 40.7228 0.660497 40.9033 0.480361 40.9033C0.480361 40.9033 0.480361 40.9033 0.480361 40.9033Z" transform="translate(198.92957 88.784225)" id="Path" fill="#000000" stroke="none" />
          <path d="M0.360271 185.644C0.240181 185.644 0.180135 185.584 0.0600451 185.524C0 185.404 0 185.284 0 185.223L37.6483 67.0249C39.5698 60.9495 41.5512 54.814 43.4727 48.7387L49.7174 29.069C50.558 26.3622 51.4587 23.7155 52.2993 21.0087C53.5002 17.1589 54.7612 13.3092 55.9621 9.51965L58.9043 0.256255C58.9643 0.0757992 59.1445 -0.0445046 59.3246 0.0156473C59.5047 0.0757992 59.6248 0.256255 59.5648 0.436711L56.6226 9.70011C55.4217 13.5498 54.1607 17.3996 52.9598 21.1891C52.1192 23.896 51.2786 26.5426 50.3779 29.2495L44.1332 48.9192C42.2117 54.9945 40.2303 61.13 38.3088 67.2053L0.840632 184.923L166.986 176.201C166.986 159.899 166.926 143.358 166.865 127.117C166.805 107.086 166.685 91.8075 166.565 77.5515C166.565 77.371 166.745 77.1906 166.926 77.1906C166.926 77.1906 166.926 77.1906 166.926 77.1906C167.106 77.1906 167.286 77.371 167.286 77.5515C167.406 91.8075 167.466 107.146 167.586 127.117C167.646 143.538 167.706 160.14 167.706 176.562C167.706 176.742 167.586 176.922 167.406 176.922L0.360271 185.644C0.360271 185.644 0.360271 185.644 0.360271 185.644Z" transform="translate(32.544468 100.55836)" id="Path" fill="#000000" stroke="none" />
          <path d="M23.7803 36.1537C23.6602 36.1537 23.5401 36.0936 23.4801 35.9733C15.6742 24.1835 7.86835 12.3336 0.0624781 0.543805C-0.0576122 0.363349 0.00243293 0.182893 0.182568 0.0625892C0.362704 -0.0577147 0.542839 0.00243726 0.66293 0.182893C8.4688 11.9727 16.2747 23.8226 24.0805 35.6124C24.2006 35.7928 24.1406 35.9733 23.9604 36.0936C23.9604 36.1537 23.9004 36.1537 23.7803 36.1537Z" transform="translate(198.92714 88.78179)" id="Path" fill="#000000" stroke="none" />
          <path d="M13.886 61.9802C13.886 61.9802 13.826 61.9802 13.886 61.9802C13.7059 61.9802 13.5858 61.8599 13.5258 61.7396L0.0156195 14.0992C-0.0444256 13.9188 0.0756647 13.7383 0.2558 13.6782C0.435936 13.618 0.616071 13.7383 0.676116 13.9188L14.0061 60.8373L29.0775 39.6036C38.3845 26.4304 47.6915 13.2571 56.9985 0.143996C57.1186 -0.0364595 57.2987 -0.0364595 57.4788 0.0838444C57.659 0.204148 57.659 0.444756 57.5389 0.56506C48.2319 13.7383 38.9249 26.9116 29.6179 40.0247L14.1863 61.8599C14.1262 61.9802 14.0061 61.9802 13.886 61.9802Z" transform="translate(113.16948 26.202543)" id="Path" fill="#000000" stroke="none" />
          <path d="M0.362704 95.5814C0.302659 95.5814 0.242614 95.5814 0.182568 95.5212C0.00243293 95.4009 -0.0576122 95.2205 0.0624781 95.04C0.78302 93.6565 1.62365 92.2129 2.46428 90.7091C4.26564 87.521 6.18708 84.333 8.10853 81.2652C21.9189 59.5504 46.0571 30.9181 82.4444 17.5644L82.6846 0.360911C82.6846 0.180456 82.8647 0 83.0449 0C83.225 0 83.4051 0.180456 83.4051 0.360911L83.165 17.805C83.165 17.9253 83.0449 18.1057 82.9248 18.1057C46.5975 31.3391 22.5194 59.9715 8.70898 81.6261C6.78753 84.6939 4.86609 87.8218 3.06474 91.07C2.2241 92.5136 1.44352 94.0174 0.66293 95.4009C0.602884 95.4611 0.482794 95.5814 0.362704 95.5814Z" transform="translate(44.79125 16.301168)" id="Path" fill="#000000" stroke="none" />
          <path d="M49.237 178.001C27.6208 178.001 9.90745 169.46 0.180135 163.445C0.12009 163.384 0.0600452 163.324 0 163.204C0 163.084 0 163.023 0.0600452 162.903C2.16163 159.896 4.26321 156.828 6.30474 153.76L9.72731 148.767C12.8497 144.196 15.972 139.624 19.1544 135.053C19.2144 134.993 19.2745 134.933 19.3946 134.933L21.9165 134.451C22.577 134.331 23.2375 134.211 23.898 134.03C45.214 129.699 66.47 125.429 87.786 121.098C87.9661 121.037 88.1463 121.158 88.2063 121.398C88.2664 121.579 88.1463 121.759 87.9061 121.819C66.5901 126.15 45.3341 130.421 24.0181 134.752C23.3576 134.872 22.6971 134.993 22.0366 135.173L19.6948 135.654C16.5725 140.166 13.4501 144.737 10.3878 149.249L6.96524 154.241C4.9237 157.189 2.94221 160.136 0.900677 163.023C13.27 170.542 38.1287 181.971 67.1905 175.234C72.7747 173.911 87.6059 170.482 99.795 160.978C101.176 159.896 102.497 158.813 103.698 157.61C108.381 153.159 111.864 147.986 114.086 142.331C118.529 131.083 116.728 120.917 115.167 111.955C115.107 111.594 115.047 111.173 114.926 110.812L114.866 110.451C114.806 110.03 114.686 109.548 114.626 109.127C104.779 60.8254 72.4745 35.4413 47.7359 28.4637C35.0063 24.8545 21.4361 24.4936 7.4456 27.3208C7.32551 27.3208 7.26546 27.3208 7.14537 27.2606C7.08533 27.2005 7.02528 27.0802 7.02528 26.9599C7.08533 22.5688 7.20542 18.0574 7.38555 13.6061C7.56569 9.15489 7.86591 4.70365 8.22619 0.312559C8.22619 0.132103 8.40632 -0.048353 8.58646 0.0117989C8.76659 0.0117989 8.94673 0.192255 8.88668 0.37271C8.52641 4.7638 8.22619 9.21504 8.04605 13.6663C7.86591 17.9972 7.74582 22.3282 7.68578 26.5388C21.6763 23.7718 35.1865 24.1929 47.856 27.7418C65.9296 32.8547 82.0217 44.5844 94.451 61.6074C107.961 80.1341 113.305 99.2625 115.287 109.007C115.407 109.428 115.467 109.909 115.527 110.33L115.587 110.691C115.647 111.112 115.707 111.473 115.827 111.834C117.328 120.436 119.19 131.143 114.686 142.572C112.405 148.346 108.862 153.58 104.118 158.091C102.917 159.234 101.536 160.377 100.155 161.46C87.8461 171.084 72.9549 174.512 67.3106 175.836C61.0659 177.34 55.0614 178.001 49.237 178.001Z" transform="translate(148.19142 0.46941638)" id="Path" fill="#000000" stroke="none" />
          <g id="pattern_2_" transform="translate(52.83973 25.865324)">
            <g id="Group">
              <path d="M2.16163 0.721823L0.360271 0.721823C0.180135 0.721823 0 0.541367 0 0.360911C0 0.180456 0.180135 0 0.360271 0L2.16163 0C2.34176 0 2.5219 0.180456 2.5219 0.360911C2.5219 0.541367 2.34176 0.721823 2.16163 0.721823Z" transform="translate(58.72415 14.797371)" id="Path" fill="#000000" stroke="none" />
              <path d="M23.8379 0.902279L0.360271 0.902279C0.180135 0.902279 0 0.721823 0 0.541367C0 0.360911 0.180135 0.180456 0.360271 0.180456L35.0664 0.180456L39.5097 0C39.5097 0 39.5097 0 39.5097 0C39.6898 0 39.87 0.120304 39.87 0.360911C39.87 0.541367 39.7499 0.721823 39.5097 0.721823L35.0664 0.902279L23.8379 0.902279Z" transform="translate(107.00045 14.616916)" id="Path" fill="#000000" stroke="none" />
              <path d="M50.8582 0.721823L0.360271 0.721823C0.180135 0.721823 0 0.541367 0 0.360911C0 0.180456 0.180135 0 0.360271 0L50.8582 0C51.0384 0 51.2185 0.180456 51.2185 0.360911C51.2185 0.601519 51.0384 0.721823 50.8582 0.721823Z" transform="translate(98.83431 26.286386)" id="Path" fill="#000000" stroke="none" />
              <path d="M0.360271 0.721823L0.360271 0.721823C0.180135 0.721823 0 0.541367 0 0.360911C0 0.180456 0.180135 0 0.360271 0C0.540406 0 0.720542 0.180456 0.720542 0.360911C0.720542 0.601519 0.540406 0.721823 0.360271 0.721823Z" transform="translate(5.1038375 26.286386)" id="Path" fill="#000000" stroke="none" />
              <path d="M23.4176 0.721823L0.360271 0.721823C0.180135 0.721823 0 0.541367 0 0.360911C0 0.180456 0.180135 0 0.360271 0L23.4176 0C23.5977 0 23.7779 0.180456 23.7779 0.360911C23.7779 0.601519 23.5977 0.721823 23.4176 0.721823Z" transform="translate(40.770653 26.286386)" id="Path" fill="#000000" stroke="none" />
              <path d="M62.0867 0.721823L0.360271 0.721823C0.180135 0.721823 0 0.541367 0 0.360911C0 0.180456 0.180135 0 0.360271 0L62.0867 0C62.2668 0 62.447 0.180456 62.447 0.360911C62.447 0.541367 62.2668 0.721823 62.0867 0.721823Z" transform="translate(90.72822 37.835556)" id="Path" fill="#000000" stroke="none" />
              <path d="M40.1702 0.721823L0.360271 0.721823C0.180135 0.721823 0 0.541367 0 0.360911C0 0.180456 0.180135 0 0.360271 0L40.1702 0C40.3503 0 40.5305 0.180456 40.5305 0.360911C40.5305 0.541367 40.3503 0.721823 40.1702 0.721823Z" transform="translate(27.260496 37.835556)" id="Path" fill="#000000" stroke="none" />
              <path d="M59.5047 0.781975L0.360271 0.781975C0.180135 0.781975 0 0.601519 0 0.421063C0 0.240608 0.180135 0.0601519 0.360271 0.0601519L70.6731 0.0601519C71.5738 0.0601519 72.4144 0 73.3151 0C73.4953 0 73.6754 0.120304 73.6754 0.360911C73.6754 0.541367 73.5553 0.721823 73.3151 0.721823C72.4144 0.721823 71.5738 0.781975 70.6731 0.781975L69.5923 0.781975L59.5047 0.781975Z" transform="translate(82.56208 49.26442)" id="Path" fill="#000000" stroke="none" />
              <path d="M54.3409 0.721823L0.360271 0.721823C0.180135 0.721823 0 0.541367 0 0.360911C0 0.180456 0.180135 0 0.360271 0L54.3409 0C54.521 0 54.7011 0.180456 54.7011 0.360911C54.7011 0.541367 54.521 0.721823 54.3409 0.721823Z" transform="translate(16.392324 49.32457)" id="Path" fill="#000000" stroke="none" />
              <path d="M67.6108 0.842127L0.360271 0.842127C0.180135 0.842127 0 0.661671 0 0.481215C0 0.30076 0.180135 0.120304 0.360271 0.120304L78.8993 0.120304C80.7607 0.0601519 82.6822 0.0601519 84.5436 0C84.7237 0 84.9038 0.180456 84.9038 0.360911C84.9038 0.541367 84.7838 0.721823 84.5436 0.721823C82.6822 0.721823 80.7607 0.781975 78.8993 0.842127L78.7792 0.842127L67.6108 0.842127Z" transform="translate(74.45598 60.693283)" id="Path" fill="#000000" stroke="none" />
              <path d="M66.7102 0.721823L0.360271 0.721823C0.180135 0.721823 0 0.541367 0 0.360911C0 0.180456 0.180135 0 0.360271 0L66.7102 0C66.8903 0 67.0704 0.180456 67.0704 0.360911C67.0704 0.601519 66.9503 0.721823 66.7102 0.721823Z" transform="translate(7.265463 60.813587)" id="Path" fill="#000000" stroke="none" />
              <path d="M0.960722 0.721823L0.360271 0.721823C0.180135 0.721823 0 0.541367 0 0.360911C0 0.180456 0.180135 0 0.360271 0L9.8474 0L9.8474 0C10.0275 0 10.2077 0.180456 10.2077 0.360911C10.2077 0.541367 10.0275 0.721823 9.8474 0.721823L0.960722 0.721823Z" transform="translate(152.33453 72.302605)" id="Path" fill="#000000" stroke="none" />
              <path d="M146.27 0.721823L0.360271 0.721823C0.180135 0.721823 0 0.541367 0 0.360911C0 0.180456 0.180135 0 0.360271 0L146.27 0C146.45 0 146.63 0.180456 146.63 0.360911C146.63 0.541367 146.45 0.721823 146.27 0.721823Z" transform="translate(0.24018058 72.302605)" id="Path" fill="#000000" stroke="none" />
              <path d="M49.237 0.721823L0.360271 0.721823C0.180135 0.721823 0 0.541367 0 0.360911C0 0.180456 0.180135 0 0.360271 0L49.237 0C49.4172 0 49.5973 0.180456 49.5973 0.360911C49.5973 0.541367 49.4172 0.721823 49.237 0.721823Z" transform="translate(3.302483 83.85177)" id="Path" fill="#000000" stroke="none" />
              <path d="M10.628 0.781975C10.628 0.781975 10.628 0.781975 10.628 0.781975C9.307 0.781975 7.986 0.721823 6.66501 0.721823C5.70429 0.721823 4.68352 0.721823 3.7228 0.721823L0.360271 0.721823C0.180135 0.721823 0 0.541367 0 0.360911C0 0.180456 0.180135 0 0.360271 0L3.7228 0C4.68352 0 5.70429 0 6.66501 0C7.986 0 9.307 0 10.628 0.0601519C10.8081 0.0601519 10.9883 0.240608 10.9883 0.421063C10.9883 0.601519 10.8081 0.781975 10.628 0.781975Z" transform="translate(59.684875 83.85177)" id="Path" fill="#000000" stroke="none" />
              <path d="M44.3734 0.781975L0.360271 0.781975C0.180135 0.781975 0 0.601519 0 0.421063C0 0.240608 0.180135 0.0601519 0.360271 0.0601519L55.6018 0.0601519L60.1052 0C60.1052 0 60.1052 0 60.1052 0C60.2853 0 60.4655 0.180456 60.4655 0.360911C60.4655 0.541367 60.3454 0.721823 60.1052 0.721823L55.6018 0.781975L44.3734 0.781975Z" transform="translate(86.46501 83.79162)" id="Path" fill="#000000" stroke="none" />
              <path d="M10.9883 0.721823L10.9883 0.721823C7.80587 0.721823 4.62348 0.721823 1.38104 0.721823L0.360271 0.721823C0.180135 0.721823 0 0.541367 0 0.360911C0 0.180456 0.180135 0 0.360271 0L1.38104 0C4.56343 0 7.74582 0 10.9282 0C11.1084 0 11.2885 0.180456 11.2885 0.360911C11.3485 0.601519 11.1684 0.721823 10.9883 0.721823Z" transform="translate(62.026638 95.34078)" id="Path" fill="#000000" stroke="none" />
              <path d="M44.6736 0.721823L0.360271 0.721823C0.180135 0.721823 0 0.541367 0 0.360911C0 0.180456 0.180135 0 0.360271 0L44.6736 0C44.8537 0 45.0339 0.180456 45.0339 0.360911C44.9738 0.541367 44.8537 0.721823 44.6736 0.721823Z" transform="translate(6.4848757 95.34078)" id="Path" fill="#000000" stroke="none" />
              <path d="M20.6555 0.721823L0.360271 0.721823C0.180135 0.721823 0 0.541367 0 0.360911C0 0.180456 0.180135 0 0.360271 0L20.6555 0C20.8357 0 21.0158 0.180456 21.0158 0.360911C21.0158 0.541367 20.8357 0.721823 20.6555 0.721823Z" transform="translate(99.97517 95.34078)" id="Path" fill="#000000" stroke="none" />
              <path d="M42.6321 0.902279L0.360271 0.902279C0.180135 0.902279 0 0.721823 0 0.541367C0 0.360911 0.180135 0.180456 0.360271 0.180456L53.8605 0.180456L67.6709 0C67.851 0 68.0312 0.180456 68.0312 0.360911C68.0312 0.541367 67.9111 0.721823 67.6709 0.721823L53.8605 0.902279L42.6321 0.902279Z" transform="translate(9.6072235 106.649345)" id="Path" fill="#000000" stroke="none" />
              <path d="M27.3205 0.721823L0.360271 0.721823C0.180135 0.721823 0 0.541367 0 0.360911C0 0.180456 0.180135 0 0.360271 0L27.3205 0C27.5007 0 27.6808 0.180456 27.6808 0.360911C27.6808 0.541367 27.5007 0.721823 27.3205 0.721823Z" transform="translate(12.729571 118.37897)" id="Path" fill="#000000" stroke="none" />
              <path d="M0.360271 36.813C0.180135 36.813 0 36.6325 0 36.4521L0 0.360912C0 0.180456 0.180135 0 0.360271 0C0.540406 0 0.720542 0.180456 0.720542 0.360912L0.720542 36.4521C0.720542 36.6325 0.540406 36.813 0.360271 36.813Z" transform="translate(6.965237 61.23465)" id="Path" fill="#000000" stroke="none" />
              <path d="M0.360271 77.9569C0.180135 77.9569 0 77.7764 0 77.596L0 0.360911C0 0.180456 0.180135 0 0.360271 0C0.540406 0 0.720542 0.180456 0.720542 0.360911L0.720542 77.596C0.720542 77.7764 0.540406 77.9569 0.360271 77.9569Z" transform="translate(18.19368 47.279404)" id="Path" fill="#000000" stroke="none" />
              <path d="M0.360271 86.1977C0.180135 86.1977 0 86.0172 0 85.8368L0 0.360911C0 0.180456 0.180135 0 0.360271 0C0.540406 0 0.720542 0.180456 0.720542 0.360911L0.720542 85.8368C0.720542 86.0774 0.540406 86.1977 0.360271 86.1977Z" transform="translate(29.422121 35.79039)" id="Path" fill="#000000" stroke="none" />
              <path d="M0.360271 92.3933C0.180135 92.3933 0 92.2129 0 92.0324L0 0.360911C0 0.180456 0.180135 0 0.360271 0C0.540406 0 0.720542 0.180456 0.720542 0.360911L0.720542 92.0324C0.720542 92.2129 0.540406 92.3933 0.360271 92.3933Z" transform="translate(40.650566 26.40669)" id="Path" fill="#000000" stroke="none" />
              <path d="M0.480361 14.8575C0.300226 14.8575 0.12009 14.6771 0.12009 14.4966L0 6.49641L0 0.360911C0 0.180456 0.180135 0 0.360271 0C0.540406 0 0.720542 0.180456 0.720542 0.360911L0.720542 6.49641L0.840632 14.4966C0.840632 14.7372 0.720542 14.8575 0.480361 14.8575C0.540406 14.8575 0.540406 14.8575 0.480361 14.8575Z" transform="translate(51.818962 100.694305)" id="Path" fill="#000000" stroke="none" />
              <path d="M0.360271 65.9265C0.180135 65.9265 0 65.746 0 65.5656L0 0.360911C0 0.180456 0.180135 0 0.360271 0C0.540406 0 0.720542 0.180456 0.720542 0.360911L0.720542 65.5656C0.660497 65.8062 0.540406 65.9265 0.360271 65.9265Z" transform="translate(51.879005 18.707245)" id="Path" fill="#000000" stroke="none" />
              <path d="M0.360271 5.59413C0.180135 5.59413 0 5.41367 0 5.23322L0 0.360911C0 0.180456 0.180135 0 0.360271 0C0.540406 0 0.720542 0.180456 0.720542 0.360911L0.720542 5.23322C0.660497 5.41367 0.540406 5.59413 0.360271 5.59413Z" transform="translate(51.879005 89.98727)" id="Path" fill="#000000" stroke="none" />
              <path d="M0.360271 1.86471C0.180135 1.86471 0 1.68425 0 1.5038L0 0.360911C0 0.180456 0.180135 0 0.360271 0C0.540406 0 0.720542 0.180456 0.720542 0.360911L0.720542 1.5038C0.720542 1.68425 0.600451 1.86471 0.360271 1.86471Z" transform="translate(63.047405 94.37836)" id="Path" fill="#000000" stroke="none" />
              <path d="M0.360271 3.0076C0.180135 3.0076 0 2.82714 0 2.64668L0 0.360911C0 0.180456 0.180135 0 0.360271 0C0.540406 0 0.720542 0.180456 0.720542 0.360911L0.720542 2.64668C0.720542 2.82714 0.600451 3.0076 0.360271 3.0076Z" transform="translate(63.047405 103.34099)" id="Path" fill="#000000" stroke="none" />
              <path d="M0.360271 50.9487C0.180135 50.9487 0 50.7682 0 50.5878L0 0.360911C0 0.180456 0.180135 0 0.360271 0C0.540406 0 0.720542 0.180456 0.720542 0.360911L0.720542 50.5878C0.720542 50.7682 0.600451 50.9487 0.360271 50.9487Z" transform="translate(63.047405 23.699854)" id="Path" fill="#000000" stroke="none" />
              <path d="M0.360271 3.72942C0.180135 3.72942 0 3.54896 0 3.36851L0 0.360911C0 0.180456 0.180135 0 0.360271 0C0.540406 0 0.720542 0.180456 0.720542 0.360911L0.720542 3.36851C0.720542 3.54896 0.600451 3.72942 0.360271 3.72942Z" transform="translate(63.047405 92.33319)" id="Path" fill="#000000" stroke="none" />
              <path d="M0.360271 4.15048C0.180135 4.15048 0 3.97003 0 3.78957L0 0.360911C0 0.180456 0.180135 0 0.360271 0C0.540406 0 0.720542 0.180456 0.720542 0.360911L0.720542 3.78957C0.720542 3.97003 0.600451 4.15048 0.360271 4.15048Z" transform="translate(63.047405 80.96448)" id="Path" fill="#000000" stroke="none" />
              <path d="M0.360271 4.09033C0.180135 4.09033 0 3.90987 0 3.72942L0 0.360911C0 0.180456 0.180135 0 0.360271 0C0.540406 0 0.720542 0.180456 0.720542 0.360911L0.720542 3.72942C0.720542 3.90987 0.600451 4.09033 0.360271 4.09033Z" transform="translate(63.047405 105.205696)" id="Path" fill="#000000" stroke="none" />
              <path d="M0.360271 17.5042C0.180135 17.5042 0 17.3238 0 17.1433L0 0.360911C0 0.180456 0.180135 0 0.360271 0C0.540406 0 0.720542 0.180456 0.720542 0.360911L0.720542 17.1433C0.720542 17.3238 0.540406 17.5042 0.360271 17.5042Z" transform="translate(74.27585 61.054195)" id="Path" fill="#000000" stroke="none" />
              <path d="M0.360271 1.20304C0.180135 1.20304 0 1.02258 0 0.842127L0 0.360912C0 0.180456 0.180135 0 0.360271 0C0.540406 0 0.720542 0.180456 0.720542 0.360912L0.720542 0.842127C0.720542 1.08273 0.540406 1.20304 0.360271 1.20304Z" transform="translate(74.27585 86.61876)" id="Path" fill="#000000" stroke="none" />
              <path d="M0.360271 2.10532C0.180135 2.10532 0 1.92486 0 1.74441L0 1.26319C0 0.962431 0 0.661671 0 0.360912C0 0.180456 0.180135 0 0.360271 0C0.360271 0 0.360271 0 0.360271 0C0.540406 0 0.720542 0.180456 0.720542 0.360912C0.720542 0.661671 0.720542 0.962431 0.720542 1.26319L0.720542 1.74441C0.720542 1.92486 0.600451 2.10532 0.360271 2.10532Z" transform="translate(74.155754 105.80722)" id="Path" fill="#000000" stroke="none" />
              <path d="M0.360271 2.76699C0.180135 2.76699 0 2.58653 0 2.40608C0 1.74441 0 1.08273 0 0.360911C0 0.180456 0.180135 0 0.360271 0C0.360271 0 0.360271 0 0.360271 0C0.540406 0 0.720542 0.180456 0.720542 0.360911C0.720542 1.02258 0.720542 1.74441 0.720542 2.40608C0.720542 2.58653 0.540406 2.76699 0.360271 2.76699Z" transform="translate(74.215805 96.00246)" id="Path" fill="#000000" stroke="none" />
              <path d="M0.360271 38.8581C0.180135 38.8581 0 38.6777 0 38.4972L0 0.360911C0 0.180456 0.180135 0 0.360271 0C0.540406 0 0.720542 0.180456 0.720542 0.360911L0.720542 38.4972C0.720542 38.7378 0.540406 38.8581 0.360271 38.8581Z" transform="translate(85.50429 45.174088)" id="Path" fill="#000000" stroke="none" />
              <path d="M0.360271 63.5806C0.180135 63.5806 0 63.4001 0 63.2197L0 0.360911C0 0.180456 0.180135 0 0.360271 0C0.540406 0 0.720542 0.180456 0.720542 0.360911L0.720542 63.2197C0.720542 63.4603 0.540406 63.5806 0.360271 63.5806Z" transform="translate(96.732735 29.293983)" id="Path" fill="#000000" stroke="none" />
              <path d="M0.360271 84.6939C0.180135 84.6939 0 84.5134 0 84.333L0 0.360911C0 0.180456 0.180135 0 0.360271 0C0.540406 0 0.720542 0.180456 0.720542 0.360911L0.720542 84.333C0.660497 84.5134 0.540406 84.6939 0.360271 84.6939Z" transform="translate(107.961174 13.474029)" id="Path" fill="#000000" stroke="none" />
              <path d="M0.360271 96.0626C0.180135 96.0626 0 95.8822 0 95.7017L0 0.360911C0 0.180456 0.180135 0 0.360271 0C0.540406 0 0.720542 0.180456 0.720542 0.360911L0.720542 95.7017C0.720542 95.8822 0.540406 96.0626 0.360271 96.0626Z" transform="translate(119.249664 0.30075958)" id="Path" fill="#000000" stroke="none" />
              <path d="M0.360271 92.3933C0.180135 92.3933 0 92.2129 0 92.0324L0 0.360911C0 0.180456 0.180135 0 0.360271 0C0.540406 0 0.720542 0.180456 0.720542 0.360911L0.720542 91.9723C0.720542 92.2129 0.540406 92.3933 0.360271 92.3933Z" transform="translate(130.4781 0.7819749)" id="Path" fill="#000000" stroke="none" />
              <path d="M0.360271 87.7616C0.180135 87.7616 0 87.5812 0 87.4007L0 0.360911C0 0.180456 0.180135 0 0.360271 0C0.540406 0 0.720542 0.180456 0.720542 0.360911L0.720542 87.4609C0.660497 87.6413 0.540406 87.7616 0.360271 87.7616Z" transform="translate(141.70654 2.165469)" id="Path" fill="#000000" stroke="none" />
              <path d="M0.360271 34.4069C0.180135 34.4069 0 34.2264 0 34.046L0 0.360911C0 0.180456 0.180135 0 0.360271 0C0.540406 0 0.720542 0.180456 0.720542 0.360911L0.720542 34.046C0.720542 34.2264 0.600451 34.4069 0.360271 34.4069Z" transform="translate(152.87494 39.51981)" id="Path" fill="#000000" stroke="none" />
            </g>
            <path d="M0.336137 0.781975C0.276092 0.781975 0.216047 0.781975 0.156002 0.721823C-0.0241336 0.601519 -0.0241336 0.421063 0.0359116 0.240608C0.156002 0 0.156002 0 4.89957 0C7.84178 0 11.9249 0 16.128 0C19.4305 0 22.793 0 25.7953 0.0601519L27.4765 0.0601519C27.9569 0.0601519 28.4373 0.0601519 28.9176 0.0601519C29.0978 0.0601519 29.2779 0.240608 29.2779 0.421063C29.2779 0.601519 29.0978 0.781975 28.9176 0.781975C28.4373 0.781975 27.9569 0.781975 27.4765 0.781975L25.7953 0.781975C22.793 0.781975 19.4305 0.781975 16.128 0.721823C11.9249 0.721823 7.84178 0.721823 4.89957 0.721823C1.3569 0.721823 0.576318 0.781975 0.456228 0.781975C0.396182 0.781975 0.396182 0.781975 0.336137 0.781975Z" transform="translate(114.710365 3.8497226)" id="Path" fill="#000000" stroke="none" />
          </g>
          <path d="M2.04153 4.21063C3.16904 4.21063 4.08307 3.26805 4.08307 2.10532C4.08307 0.942583 3.16904 0 2.04153 0C0.914026 0 0 0.942583 0 2.10532C0 3.26805 0.914026 4.21063 2.04153 4.21063Z" transform="translate(113.365234 147.4925)" id="Oval" fill="#000000" stroke="none" />
          <path d="M2.04153 4.21063C3.16904 4.21063 4.08307 3.26805 4.08307 2.10532C4.08307 0.942583 3.16904 0 2.04153 0C0.914026 0 0 0.942583 0 2.10532C0 3.26805 0.914026 4.21063 2.04153 4.21063Z" transform="translate(108.98194 184.00471)" id="Oval" fill="#000000" stroke="none" />
          <path d="M33.4451 5.47382C33.3851 5.47382 33.3851 5.47382 33.4451 5.47382L0.300226 0.721823C0.12009 0.721823 0 0.541367 0 0.30076C0 0.120304 0.180135 0 0.360271 0L33.4451 4.752C33.6253 4.752 33.7454 4.93246 33.7454 5.17306C33.7454 5.35352 33.5652 5.47382 33.4451 5.47382Z" transform="translate(12.12912 82.16752)" id="Path" fill="#000000" stroke="none" />
          <path d="M1.44108 44.753C1.26095 44.753 1.08081 44.5726 1.08081 44.3921L0 0.360911C0 0.180456 0.12009 0 0.360271 0C0.540406 0 0.720542 0.120304 0.720542 0.360911L1.80135 44.3921C1.80135 44.5726 1.62122 44.753 1.44108 44.753C1.44108 44.753 1.44108 44.753 1.44108 44.753Z" transform="translate(181.87675 132.45451)" id="Path" fill="#000000" stroke="none" />
          <path d="M39.87 23.1585C36.2673 25.6247 33.265 27.2488 31.1634 28.0909C25.5192 30.3166 20.5955 30.076 20.5955 30.076C16.9327 30.076 14.7711 29.1737 13.8704 28.7526C5.28397 26.2262 1.68126 11.8499 0 0C13.2099 1.68425 29.1219 7.33853 39.87 23.1585Z" transform="translate(2.1015801 168.1246)" id="Path" fill="#7034FF" stroke="none" />
          <path d="M18.8171 33.4445C16.3552 39.6401 12.6324 44.6929 8.30915 48.8434C7.04821 50.0464 5.72721 51.1893 4.40622 52.2119C-1.17798 40.6627 -1.53825 27.4894 3.80577 16.4816C7.94888 7.8799 14.5538 2.82714 19.4175 0C19.5376 0.421063 19.5976 0.902279 19.6577 1.32334C19.7778 1.86471 19.8378 2.34592 19.9579 2.82714C21.5791 12.2108 23.2003 22.3164 18.8171 33.4445Z" transform="translate(243.76038 109.53664)" id="Path" fill="#7034FF" stroke="none" />
        </g>
      </g>
    </g>
  </g>
</svg>