<svg width="773" height="543" viewBox="0 0 773 543" fill="none" xmlns="http://www.w3.org/2000/svg">
<path fill-rule="evenodd" clip-rule="evenodd" d="M492.497 152.44C441.276 107.356 381.275 95.725 365.413 93.3498C376.093 66.2917 392.602 26.0587 396.713 20.0999C398.037 19.9307 400.738 19.6694 404.73 19.6694C416.382 19.6694 441.319 21.9467 477.396 37.191C529.491 59.2062 543.437 83.9737 546.177 90.0304L492.497 152.44Z" fill="white"/>
<ellipse cx="40.1306" cy="86.9409" rx="40.6451" ry="40.1306" transform="rotate(-90 40.1306 86.9409)" fill="#74ECF3"/>
<path fill-rule="evenodd" clip-rule="evenodd" d="M404.73 16.7002C398.391 16.7002 395.134 17.3281 395.134 17.3281C391.43 18.4875 361.087 95.7737 361.087 95.7737C361.087 95.7737 433.116 102.675 492.801 156.812L549.773 90.5735C549.773 90.5735 540.266 60.5034 478.692 34.483C442.61 19.2357 417.461 16.7002 404.73 16.7002ZM404.73 22.6382C416.13 22.6382 440.56 24.8813 476.099 39.8985C523.231 59.8146 538.461 82.0792 542.473 89.6115L492.161 148.107C461.881 122.222 429.247 107.921 406.678 100.395C390.671 95.0582 377.568 92.3237 369.714 90.9966C381.518 61.21 394.363 30.5461 398.674 22.8802C400.074 22.757 402.101 22.6382 404.73 22.6382Z" fill="#A0C6F4"/>
<path fill-rule="evenodd" clip-rule="evenodd" d="M371.581 102.515C371.581 102.516 371.85 102.541 372.374 102.599C380.249 103.453 444.953 111.598 485.592 146.664C485.915 146.94 486.414 146.921 486.71 146.618C487.004 146.316 486.983 145.847 486.662 145.57C442.73 107.733 371.805 101.061 371.739 101.039C371.306 100.997 370.917 101.294 370.874 101.703C370.83 102.111 371.146 102.475 371.581 102.516" fill="#2A1E17"/>
<path fill-rule="evenodd" clip-rule="evenodd" d="M432.82 98.533L459.243 50.2881L486.399 100.601L432.82 98.533Z" fill="#A0C6F4"/>
<path fill-rule="evenodd" clip-rule="evenodd" d="M437.958 97.8446L438.66 98.183L464.374 51.2312L490.223 99.1183L437.99 97.1023L437.958 97.8446L438.66 98.183L437.958 97.8446L437.925 98.5853L491.505 100.653C491.785 100.665 492.05 100.534 492.202 100.313C492.354 100.092 492.368 99.8101 492.242 99.577L465.084 49.2642C464.95 49.0148 464.679 48.8574 464.382 48.8574C464.085 48.856 463.813 49.0118 463.677 49.2597L437.255 97.5046C437.131 97.7303 437.139 97.999 437.275 98.2172C437.41 98.4369 437.656 98.575 437.925 98.5853L437.958 97.8446Z" fill="#2A1E17"/>
<path fill-rule="evenodd" clip-rule="evenodd" d="M413.084 14.5095C413.085 14.5095 413.382 14.5347 413.971 14.5971C422.795 15.516 495.304 24.665 541.326 76.0555C541.605 76.3687 542.105 76.4088 542.439 76.1446C542.772 75.8803 542.816 75.4127 542.535 75.0995C517.725 47.415 485.401 31.9093 459.292 23.3156C433.181 14.7203 413.27 13.0354 413.226 13.0309C412.791 12.9938 412.407 13.2952 412.368 13.7034C412.328 14.1116 412.649 14.4724 413.084 14.5095Z" fill="#2A1E17"/>
<path fill-rule="evenodd" clip-rule="evenodd" d="M453.728 227.566C449.368 224.556 446.507 222.535 446.507 222.535C447.716 221.023 466.826 201.904 477.888 186.498C477.888 186.498 455.513 228.797 453.728 227.566Z" fill="#2A1E17"/>
<path fill-rule="evenodd" clip-rule="evenodd" d="M182.272 88.5958C182.848 89.4909 183.366 90.1248 184.011 90.5598C184.656 90.9977 185.409 91.1565 186.171 91.1506C187.614 91.1402 189.299 90.7171 192.233 90.5093C192.508 90.4885 192.79 90.4796 193.077 90.4796C195.923 90.4751 199.341 91.4668 202.365 93.2823C205.395 95.0964 208.026 97.7195 209.412 100.929C210.864 104.269 211.377 106.248 211.368 107.341C211.365 107.946 211.237 108.249 211.069 108.476C210.9 108.703 210.63 108.893 210.227 109.109C210.151 109.155 209.806 109.278 209.352 109.394C207.729 109.817 204.588 110.359 201.805 111.034C200.408 111.375 199.096 111.747 198.057 112.183C197.537 112.403 197.083 112.636 196.705 112.918C196.336 113.2 196.004 113.549 195.891 114.049C195.804 114.451 196.083 114.842 196.511 114.923C196.938 115.004 197.355 114.742 197.441 114.341L197.499 114.254C197.595 114.135 197.866 113.933 198.266 113.737C199.677 113.028 202.51 112.361 205.105 111.825C206.407 111.555 207.659 111.309 208.684 111.083C209.196 110.969 209.653 110.86 210.037 110.752C210.426 110.642 210.731 110.544 211.011 110.399C211.475 110.148 211.977 109.842 212.359 109.333C212.745 108.827 212.954 108.156 212.949 107.341C212.941 105.856 212.35 103.788 210.876 100.371C209.337 96.8154 206.47 93.9815 203.215 92.0309C199.957 90.0817 196.304 88.9981 193.077 88.9951C192.752 88.9951 192.429 89.0055 192.113 89.0292C189.084 89.2504 187.254 89.675 186.171 89.6661C185.592 89.6601 185.282 89.58 184.927 89.3499C184.571 89.1153 184.15 88.6522 183.629 87.8327C183.404 87.4809 182.919 87.3666 182.544 87.5774C182.169 87.7882 182.048 88.2439 182.272 88.5958Z" fill="#2A1E17"/>
<path fill-rule="evenodd" clip-rule="evenodd" d="M342.256 449.635L336.747 440.89L317.203 471.481L322.332 475.186L342.256 449.635Z" fill="#F9865F"/>
<path fill-rule="evenodd" clip-rule="evenodd" d="M212.478 373.775C212.478 373.775 202.351 358.312 206.695 350.737L239.003 353.982L212.478 373.775Z" fill="#F9865F"/>
<path fill-rule="evenodd" clip-rule="evenodd" d="M212.477 373.775L214.412 377.953L208.445 399.809C207.692 402.563 208.666 405.477 210.957 407.334L240.504 366.316C243.312 362.42 242.673 357.183 239.003 353.982L232.401 348.222L212.477 373.775Z" fill="black"/>
<path fill-rule="evenodd" clip-rule="evenodd" d="M196.665 114.195C205.918 113.988 217.643 113.438 215.299 106.832C212.955 100.226 204.16 83.709 184.227 88.6643C184.227 88.6643 177.192 94.1703 185.985 104.079C194.781 113.988 196.665 114.195 196.665 114.195Z" fill="#2A1E33"/>
<path fill-rule="evenodd" clip-rule="evenodd" d="M243.498 354.347C243.498 354.347 227.704 310.557 241.068 291.33C252.098 275.462 288.135 301.272 293.072 304.75L318.857 261.021C318.857 261.021 312.905 253.184 298.29 245.512C283.677 237.839 223.306 214.86 194.934 256.896C184.449 272.431 184.289 339.095 204.399 364.645L243.498 354.347Z" fill="#7595EC"/>
<path fill-rule="evenodd" clip-rule="evenodd" d="M244.246 354.109C244.246 354.108 244.128 353.78 243.916 353.155C242.433 348.787 236.484 330.129 236.489 313.195C236.484 305.009 237.888 297.25 241.73 291.735C242.934 290.007 244.422 288.831 246.153 288.067C247.884 287.304 249.874 286.958 252.056 286.958C259.301 286.943 268.555 290.844 276.393 295.123C284.243 299.397 290.703 304.007 292.598 305.343C292.948 305.59 293.442 305.523 293.705 305.195C293.967 304.867 293.896 304.402 293.547 304.156C291.648 302.818 285.13 298.163 277.187 293.839C269.23 289.519 259.873 285.488 252.056 285.473C249.699 285.473 247.471 285.847 245.483 286.723C243.494 287.596 241.756 288.978 240.406 290.924C236.301 296.842 234.913 304.858 234.908 313.195C234.916 332.899 242.741 354.546 242.749 354.586C242.89 354.973 243.339 355.181 243.751 355.051C244.166 354.918 244.387 354.497 244.248 354.109" fill="#2A1E17"/>
<path fill-rule="evenodd" clip-rule="evenodd" d="M318.858 261.021C307.131 272.613 272.364 329.084 264.545 356.072C254.088 392.174 258.019 422.116 315.499 480.742L343.282 442.74C343.282 442.74 323.748 414.885 327.395 388.626C332.67 350.637 361.459 313.805 376.025 290.442L318.858 261.021Z" fill="#7595EC"/>
<path fill-rule="evenodd" clip-rule="evenodd" d="M323.272 265.929L369.49 299.991L383.301 280.272L323.272 265.929Z" fill="#2A1E17"/>
<path fill-rule="evenodd" clip-rule="evenodd" d="M588.727 230.115C595.934 231.565 601.426 234.144 605.201 237.851C608.975 241.556 607.259 243.489 605.887 244.617C604.513 245.745 599.195 244.457 594.562 240.588C589.929 236.723 588.727 230.115 588.727 230.115Z" fill="#FF8A66"/>
<path fill-rule="evenodd" clip-rule="evenodd" d="M446.507 222.535C447.716 221.023 466.826 201.904 477.888 186.498C477.888 186.498 511.331 221.685 514.958 222.82C516.306 223.242 524.505 223.141 534.685 223.043C551.893 222.875 574.765 222.713 579.827 225.09C587.886 228.874 592.72 230.765 594.736 236.064C596.75 241.36 597.543 244.819 592.72 245.144C587.079 245.523 583.453 238.712 583.453 238.712C583.453 238.712 578.845 241.325 566.935 245.523C566.935 245.523 524.079 261.144 495.436 253.588C487.614 251.526 446.507 222.535 446.507 222.535Z" fill="#F9865F"/>
<path fill-rule="evenodd" clip-rule="evenodd" d="M186.735 81.9973C183.058 83.3126 180.823 84.8832 182.95 88.2144C185.08 91.5456 186.025 90.2125 192.173 89.7687C198.323 89.3248 207.071 93.5438 210.144 100.65C213.219 107.755 212.274 108.865 210.618 109.755C208.962 110.642 197.14 111.974 196.666 114.195C196.193 116.415 201.457 122.97 212.335 122.526L214.937 122.082C214.937 122.082 237.811 143.062 241.123 146.171C244.433 149.281 268.762 164.758 282.165 167.904C292.352 170.296 312.99 167.212 325.393 164.939C331.415 163.836 335.495 162.923 335.495 162.923C335.495 162.923 326.19 147.18 324.296 122.977C324.296 122.977 302.031 126.335 287.236 129.384C287.236 129.384 252.709 111.307 235.92 103.315C235.92 103.315 221.259 86.4389 214.401 84.2166C207.544 81.9973 191.7 80.2204 186.735 81.9973Z" fill="#F9865F"/>
<path fill-rule="evenodd" clip-rule="evenodd" d="M325.393 164.94C331.415 163.837 335.495 162.924 335.495 162.924C335.495 162.924 324.238 149.597 322.347 125.394C322.347 125.394 317.257 130.544 318.839 144.253C320.829 161.482 325.393 164.94 325.393 164.94Z" fill="#2A1E17"/>
<path fill-rule="evenodd" clip-rule="evenodd" d="M321.802 122.685C321.802 122.685 322.113 152.262 330.552 164.601L333.577 163.464C333.577 163.464 293.811 207.15 280.949 235.696C278.845 240.367 363.516 291.155 376.025 290.443C376.025 290.443 417.277 231.318 431.386 213.792L446.55 224.826C446.55 224.826 476.292 196.542 477.889 186.498C477.889 186.498 449.163 153.672 425.659 144.06C402.158 134.45 381.156 117.985 355.91 118.432C334.056 118.818 321.802 122.685 321.802 122.685Z" fill="#FFEAA0"/>
<path fill-rule="evenodd" clip-rule="evenodd" d="M446.55 224.826L431.386 213.791L433.803 207.611L446.55 224.826Z" fill="#2A1E17"/>
<path fill-rule="evenodd" clip-rule="evenodd" d="M469.616 107.871C466.96 115.625 459.295 138.057 450.742 140.826C442.188 143.594 433.285 140.118 433.285 140.118L424.175 144.496C423.158 147.359 415.968 149.825 406.682 150.16C399.809 150.408 395.623 142.119 397.659 136.119C398.592 133.363 402.081 119.779 402.081 119.779C402.081 119.779 409.454 94.3001 416.237 89.039C423.019 83.778 429.395 78.5673 447.499 85.4391C475.219 95.9628 469.616 107.871 469.616 107.871Z" fill="#F9865F"/>
<path fill-rule="evenodd" clip-rule="evenodd" d="M414.658 108.974C413.442 113.737 408.169 123.26 404.721 121.545C401.273 119.831 400.056 115.45 402.489 107.07C404.923 98.6898 406.951 79.6437 413.849 76.2145C420.744 72.7867 423.786 76.7875 423.786 76.7875C423.786 76.7875 420.744 62.8821 429.668 60.979C429.668 60.979 432.71 59.6444 431.494 69.1675C431.494 69.1675 434.94 60.406 446.096 61.5491C457.252 62.6921 461.105 77.3575 461.105 77.3575C461.105 77.3575 461.918 73.3583 466.987 73.3583C472.059 73.3583 479.765 80.4052 477.941 88.2137C477.941 88.2137 490.917 84.4 497.817 94.119C504.713 103.832 503.902 114.498 487.27 118.689C469.88 123.07 470.03 104.022 467.394 101.546C464.757 99.0713 461.918 96.2137 452.181 99.6429C442.446 103.071 432.305 92.976 432.305 92.976C432.305 92.976 430.681 105.165 429.06 106.308C427.436 107.451 424.192 108.974 425.001 103.261C425.814 97.5468 426.829 98.1183 426.22 96.5952C425.612 95.0706 422.867 90.2638 417.092 94.4991C410.603 99.2614 414.658 108.974 414.658 108.974Z" fill="#2A1E33"/>
<path fill-rule="evenodd" clip-rule="evenodd" d="M417.929 110.538C415.437 108.577 413.496 105.604 413.504 102.405C413.505 100.886 413.927 99.3008 414.952 97.6797C417.106 94.2698 420.143 92.9234 422.208 92.9308C423.234 92.9308 423.967 93.25 424.329 93.6909C425.232 94.7686 425.834 96.3392 425.834 98.2735C425.834 99.5443 425.575 100.969 424.97 102.507C424.819 102.892 425.028 103.319 425.438 103.462C425.849 103.603 426.302 103.407 426.454 103.022C427.116 101.335 427.415 99.7343 427.415 98.2735C427.415 96.0527 426.724 94.1511 425.572 92.7734C424.807 91.8679 423.566 91.4448 422.208 91.4463C419.452 91.4537 415.995 93.1371 413.594 96.9211C412.43 98.7545 411.921 100.624 411.923 102.405C411.931 106.179 414.15 109.495 416.912 111.676C417.246 111.94 417.745 111.898 418.025 111.585C418.306 111.27 418.262 110.803 417.929 110.538Z" fill="#2A1E33"/>
<path fill-rule="evenodd" clip-rule="evenodd" d="M322.332 475.186L324.269 479.362L318.3 501.221C317.549 503.972 318.521 506.886 320.81 508.743L350.359 467.726C353.165 463.83 352.53 458.594 348.857 455.393L342.256 449.635L322.332 475.186Z" fill="black"/>
<path fill-rule="evenodd" clip-rule="evenodd" d="M424.541 76.569C424.525 76.523 423.939 74.7341 422.461 72.687C420.986 70.6443 418.591 68.3181 414.958 67.3413C414.539 67.2299 414.101 67.4571 413.981 67.8519C413.862 68.2453 414.104 68.6565 414.525 68.7694C417.675 69.6126 419.802 71.6523 421.152 73.5198C421.827 74.4521 422.299 75.3339 422.603 75.9782C422.755 76.3003 422.862 76.5616 422.932 76.7412L423.009 76.9446L423.03 77.004C423.158 77.3959 423.6 77.6171 424.018 77.4968C424.435 77.3751 424.669 76.9609 424.541 76.569Z" fill="#2A1E33"/>
<path fill-rule="evenodd" clip-rule="evenodd" d="M280.666 234.041L362.524 126.663C362.779 126.329 362.697 125.866 362.343 125.627C361.987 125.388 361.494 125.465 361.239 125.799L279.381 233.177C279.126 233.511 279.209 233.975 279.563 234.214C279.918 234.451 280.412 234.375 280.666 234.041Z" fill="#2A1E17"/>
<path fill-rule="evenodd" clip-rule="evenodd" d="M394.997 133.291C394.355 134.082 393.855 135.207 393.484 136.564C393.115 137.919 392.893 139.502 392.893 141.167C392.894 144.056 393.56 147.205 395.408 149.772C397.248 152.341 400.327 154.264 404.838 154.586C405.977 154.67 407.084 154.709 408.154 154.709C420.072 154.706 427.512 149.916 427.591 149.867C427.951 149.635 428.041 149.172 427.795 148.835C427.548 148.496 427.055 148.41 426.696 148.643L426.626 148.686C425.861 149.157 418.893 153.228 408.154 153.225C407.125 153.225 406.059 153.187 404.962 153.106C400.86 152.791 398.331 151.157 396.717 148.939C395.107 146.716 394.47 143.844 394.473 141.167C394.473 139.628 394.682 138.157 395.016 136.931C395.344 135.706 395.814 134.722 396.25 134.196C396.516 133.871 396.451 133.405 396.105 133.156C395.759 132.906 395.262 132.967 394.997 133.291Z" fill="#2A1E17"/>
<path fill-rule="evenodd" clip-rule="evenodd" d="M213.77 84.6651C213.772 84.6666 214.35 85.3866 215.248 86.5371C216.594 88.2635 218.647 90.9534 220.495 93.587C222.342 96.2101 223.992 98.8302 224.479 100.224C224.616 100.613 225.064 100.824 225.478 100.693C225.892 100.564 226.117 100.144 225.979 99.7551C225.567 98.6046 224.689 97.0904 223.591 95.3921C220.304 90.3225 215.038 83.7803 215.032 83.77C214.768 83.4434 214.273 83.378 213.924 83.6245C213.576 83.8724 213.506 84.337 213.77 84.6651Z" fill="#2A1E17"/>
<path fill-rule="evenodd" clip-rule="evenodd" d="M564.249 240.705C564.343 240.781 566.833 242.658 571.654 242.656C574.77 242.658 578.841 241.871 583.827 239.366C585.507 238.537 586.388 237.18 586.377 235.82C586.375 234.661 585.776 233.561 584.789 232.765C583.803 231.968 582.418 231.463 580.806 231.463C580.183 231.463 579.528 231.539 578.847 231.698C577.5 232.015 576.066 232.137 574.677 232.137C572.59 232.137 570.601 231.862 569.144 231.585C568.413 231.447 567.817 231.309 567.405 231.206C567.199 231.156 567.04 231.113 566.932 231.083L566.776 231.038C566.36 230.915 565.916 231.132 565.785 231.524C565.653 231.914 565.884 232.331 566.3 232.455C566.343 232.465 570.212 233.619 574.677 233.621C576.164 233.621 577.722 233.492 579.231 233.139C579.792 233.007 580.319 232.948 580.806 232.948C582.069 232.949 583.074 233.338 583.759 233.89C584.445 234.445 584.797 235.153 584.796 235.82C584.785 236.592 584.367 237.395 583.081 238.057C578.286 240.465 574.487 241.17 571.654 241.172C569.465 241.172 567.846 240.749 566.78 240.337C566.248 240.131 565.854 239.926 565.6 239.779L565.321 239.607L565.261 239.564L565.252 239.556L565.106 239.727L565.253 239.559L565.252 239.556L565.106 239.727L565.253 239.559C564.917 239.298 564.419 239.344 564.142 239.66C563.864 239.977 563.913 240.444 564.249 240.705Z" fill="#2A1E17"/>
<path fill-rule="evenodd" clip-rule="evenodd" d="M590.271 231.268C590.271 231.268 590.355 231.36 590.51 231.539C591.055 232.162 592.434 233.792 593.661 235.665C594.895 237.529 595.937 239.678 595.918 241.1L595.915 241.232C595.899 241.642 596.241 241.986 596.677 242.001C597.113 242.016 597.479 241.697 597.494 241.287L597.499 241.1C597.494 239.948 597.088 238.738 596.517 237.533C594.799 233.935 591.492 230.332 591.471 230.302C591.187 229.992 590.687 229.956 590.357 230.222C590.025 230.489 589.987 230.958 590.271 231.268Z" fill="#2A1E17"/>
<path fill-rule="evenodd" clip-rule="evenodd" d="M503.235 230.516L503.289 230.451C503.575 230.106 504.992 228.46 507.104 226.869C509.216 225.273 512.012 223.756 515.014 223.56C515.451 223.531 515.778 223.175 515.746 222.767C515.716 222.359 515.337 222.05 514.902 222.08C511.173 222.336 507.965 224.247 505.673 226.051C503.381 227.862 501.994 229.596 501.971 229.624C501.71 229.952 501.779 230.418 502.129 230.663C502.478 230.909 502.973 230.843 503.235 230.516Z" fill="#2A1E17"/>
<path fill-rule="evenodd" clip-rule="evenodd" d="M274.678 140.575L274.708 140.49C274.88 140.031 275.792 137.788 277.789 135.499C279.792 133.205 282.843 130.878 287.375 130.115C287.805 130.043 288.091 129.657 288.014 129.254C287.936 128.85 287.527 128.581 287.097 128.654C281.785 129.543 278.284 132.428 276.148 135.054C274.009 137.683 273.192 140.068 273.173 140.12C273.038 140.511 273.268 140.929 273.683 141.054C274.099 141.179 274.545 140.965 274.678 140.575Z" fill="#2A1E17"/>
<path fill-rule="evenodd" clip-rule="evenodd" d="M300.714 280.548L288.611 302.289L289.312 302.631L288.632 302.254C288.619 302.274 281.312 313.887 273.999 330.402C266.69 346.92 259.361 368.333 259.356 388.027C259.356 394.711 260.202 401.198 262.195 407.228C262.325 407.62 262.767 407.838 263.185 407.716C263.602 407.596 263.835 407.179 263.705 406.789C261.77 400.934 260.937 394.593 260.937 388.027C260.932 368.675 268.187 347.389 275.459 330.972C279.095 322.763 282.73 315.766 285.457 310.826C286.82 308.356 287.955 306.399 288.749 305.062C289.146 304.392 289.459 303.878 289.67 303.531C289.882 303.185 289.993 303.01 289.993 303.01L302.115 281.235C302.317 280.873 302.167 280.425 301.78 280.235C301.394 280.045 300.915 280.184 300.714 280.548Z" fill="#2A1E17"/>
<path fill-rule="evenodd" clip-rule="evenodd" d="M337.447 354.016L376.708 290.817L376.025 290.442L376.676 290.864C376.676 290.863 389.541 273.341 403.065 254.581C409.828 245.201 416.756 235.511 422.323 227.546C425.107 223.563 427.551 220.01 429.467 217.141C431.385 214.268 432.767 212.092 433.454 210.803L432.748 210.472L433.443 210.826L451.601 179.278C451.808 178.918 451.666 178.466 451.282 178.272C450.897 178.077 450.418 178.211 450.21 178.572L432.052 210.119L432.041 210.14C431.41 211.324 430.033 213.501 428.128 216.352C421.454 226.35 408.26 244.778 396.742 260.691C390.981 268.65 385.64 275.983 381.738 281.326C379.787 283.998 378.195 286.171 377.092 287.678C375.989 289.184 375.375 290.019 375.374 290.022L375.342 290.068L336.081 353.268C335.862 353.621 335.988 354.076 336.366 354.283C336.742 354.49 337.228 354.37 337.447 354.016Z" fill="#2A1E17"/>
<path fill-rule="evenodd" clip-rule="evenodd" d="M285.039 240.94C285.046 240.945 302.508 252.901 322.57 265.151C332.603 271.276 343.283 277.475 352.771 282.296C362.272 287.114 370.518 290.566 375.932 291.18C376.365 291.228 376.759 290.937 376.81 290.53C376.862 290.123 376.552 289.754 376.119 289.706C371.18 289.17 362.934 285.783 353.524 280.991C339.383 273.806 322.483 263.488 309.132 254.973C302.454 250.714 296.663 246.905 292.541 244.162C290.481 242.79 288.837 241.684 287.709 240.923C286.581 240.16 285.972 239.742 285.97 239.741C285.618 239.5 285.123 239.573 284.865 239.904C284.608 240.235 284.685 240.7 285.039 240.94Z" fill="#2A1E17"/>
<path fill-rule="evenodd" clip-rule="evenodd" d="M321.011 122.673V122.703C321.011 123.144 321.027 130.705 322.108 139.698C323.201 148.697 325.308 159.105 329.69 165.388C329.929 165.731 330.419 165.826 330.784 165.601C331.149 165.375 331.25 164.915 331.01 164.573C326.905 158.736 324.737 148.428 323.678 139.531C322.608 130.627 322.592 123.11 322.592 122.703V122.696C322.598 122.286 322.249 121.949 321.813 121.943C321.376 121.937 321.018 122.264 321.011 122.673Z" fill="#2A1E17"/>
<path fill-rule="evenodd" clip-rule="evenodd" d="M474.868 181.623C474.368 184.501 472.188 188.404 469.173 192.529C464.655 198.731 458.294 205.496 453.071 210.697C450.458 213.297 448.129 215.508 446.455 217.068C445.617 217.849 444.944 218.465 444.479 218.888C444.016 219.31 443.764 219.534 443.763 219.534C443.446 219.816 443.432 220.286 443.733 220.583C444.035 220.882 444.534 220.894 444.85 220.611C444.861 220.603 452.16 214.1 459.748 206.037C463.542 202.003 467.408 197.581 470.478 193.368C473.544 189.149 475.832 185.169 476.428 181.866C476.499 181.461 476.208 181.079 475.778 181.012C475.347 180.944 474.94 181.217 474.868 181.623Z" fill="#2A1E17"/>
<path fill-rule="evenodd" clip-rule="evenodd" d="M262.331 331.834C262.331 333.983 260.475 335.726 258.186 335.726C255.895 335.726 254.04 333.983 254.04 331.834C254.04 329.684 255.895 327.94 258.186 327.94C260.475 327.94 262.331 329.684 262.331 331.834Z" fill="#2A1E17"/>
<path fill-rule="evenodd" clip-rule="evenodd" d="M647.142 415.488L647.924 415.381L645.885 402.134L656.385 408.689L651.129 409.766C650.947 409.803 650.789 409.896 650.675 410.034L646.519 415.031L647.142 415.488L647.924 415.381L647.142 415.488L647.765 415.944L651.745 411.158L658.544 409.766C658.854 409.703 659.095 409.472 659.153 409.178C659.212 408.885 659.077 408.588 658.813 408.424L645.289 399.978C645.028 399.816 644.691 399.812 644.427 399.969C644.165 400.125 644.024 400.412 644.069 400.703L646.359 415.594C646.405 415.889 646.633 416.128 646.938 416.205C647.245 416.283 647.569 416.18 647.765 415.944L647.142 415.488Z" fill="#2A1E17"/>
<path fill-rule="evenodd" clip-rule="evenodd" d="M199.111 160.732C195.469 157.716 191.445 156.102 187.598 156.102C183.478 156.093 179.613 157.992 176.883 161.776C174.144 165.558 172.475 171.186 172.475 178.773C172.481 193.359 178.639 215.242 195.766 245.459C212.896 275.674 241.008 314.212 284.984 362.038C314.686 394.343 342.289 416.905 366.296 431.406C390.306 445.902 410.713 452.355 426.101 452.361C433.899 452.361 440.422 450.694 445.422 447.529C450.422 444.369 453.862 439.706 455.502 433.864C457.644 426.253 458.559 419.336 458.559 413.105C458.561 398.627 453.609 387.866 447.684 380.733C444.72 377.165 441.516 374.501 438.552 372.718C435.58 370.938 432.873 370.019 430.758 370.01C429.762 370.01 428.863 370.222 428.175 370.748C427.483 371.273 427.113 372.108 427.122 373.024C427.127 374.107 427.562 375.35 428.436 376.818C429.312 378.286 430.643 379.979 432.511 381.916C442.026 391.773 456.398 399.382 473.7 404.547C491.004 409.709 511.249 412.419 532.544 412.421C565.662 412.419 601.323 405.862 632.38 391.697C647.779 384.673 657.781 376.766 663.934 368.637C670.088 360.511 672.366 352.166 672.366 344.368C672.366 334.4 668.67 325.327 664.683 318.536C662.69 315.14 660.619 312.313 658.888 310.225C658.022 309.181 657.241 308.322 656.591 307.664C655.936 307.005 655.437 306.559 655.042 306.292C654.686 306.056 654.193 306.135 653.94 306.469C653.687 306.803 653.771 307.266 654.128 307.504C654.34 307.642 654.827 308.059 655.432 308.675C657.58 310.845 661.443 315.57 664.742 321.844C668.044 328.122 670.787 335.951 670.787 344.368C670.784 351.898 668.605 359.899 662.646 367.777C656.684 375.654 646.914 383.415 631.689 390.361C600.889 404.413 565.442 410.938 532.544 410.936C511.393 410.936 491.295 408.239 474.179 403.132C457.06 398.027 442.931 390.507 433.683 380.92C431.871 379.043 430.609 377.425 429.814 376.092C429.016 374.76 428.698 373.712 428.703 373.024C428.714 372.43 428.888 372.128 429.179 371.895C429.473 371.664 429.995 371.493 430.758 371.495C432.372 371.486 434.906 372.28 437.7 373.968C446.111 379.028 456.98 391.875 456.978 413.105C456.978 419.199 456.083 425.988 453.973 433.486C452.411 439.023 449.215 443.334 444.538 446.299C439.859 449.262 433.664 450.877 426.101 450.877C411.182 450.883 390.993 444.563 367.151 430.158C343.307 415.757 315.803 393.287 286.18 361.069C242.262 313.305 214.216 274.845 197.162 244.761C180.104 214.682 174.051 192.97 174.056 178.773C174.054 171.387 175.694 166.05 178.19 162.612C180.696 159.175 183.995 157.596 187.598 157.587C190.965 157.585 194.642 159.009 198.064 161.846C198.392 162.117 198.891 162.088 199.18 161.78C199.468 161.473 199.438 161.004 199.111 160.732Z" fill="#2A1E17"/>
<path fill-rule="evenodd" clip-rule="evenodd" d="M637.297 390.727C637.297 392.876 635.443 394.621 633.152 394.621C630.862 394.621 629.006 392.876 629.006 390.727C629.006 388.577 630.862 386.834 633.152 386.834C635.443 386.834 637.297 388.577 637.297 390.727Z" fill="#2A1E17"/>
<path fill-rule="evenodd" clip-rule="evenodd" d="M573.216 423.148L696.098 358.106C696.479 357.906 696.614 357.453 696.399 357.095C696.184 356.739 695.703 356.613 695.322 356.813L572.439 421.855C572.058 422.056 571.924 422.509 572.139 422.866C572.352 423.223 572.835 423.35 573.216 423.148Z" fill="#2A1E17"/>
<path fill-rule="evenodd" clip-rule="evenodd" d="M205.291 164.436C205.291 166.586 203.433 168.33 201.144 168.33C198.855 168.33 196.999 166.586 196.999 164.436C196.999 162.287 198.855 160.542 201.144 160.542C203.433 160.542 205.291 162.287 205.291 164.436Z" fill="#2A1E17"/>
<path fill-rule="evenodd" clip-rule="evenodd" d="M315.745 84.0623C315.745 88.6761 311.765 92.4141 306.851 92.4141C301.94 92.4141 297.958 88.6761 297.958 84.0623C297.958 79.4499 301.94 75.7104 306.851 75.7104C311.765 75.7104 315.745 79.4499 315.745 84.0623Z" fill="#FF6D66"/>
<path fill-rule="evenodd" clip-rule="evenodd" d="M145.461 20.3613C143.301 20.3613 141.551 22.0047 141.551 24.0325C141.551 26.0603 143.301 27.7037 145.461 27.7037C147.62 27.7037 149.372 26.0603 149.372 24.0325C149.372 22.0047 147.62 20.3613 145.461 20.3613Z" fill="#A0C6F4"/>
<path fill-rule="evenodd" clip-rule="evenodd" d="M673.262 472.698C673.262 474.726 671.512 476.369 669.353 476.369C667.195 476.369 665.443 474.726 665.443 472.698C665.443 470.67 667.195 469.025 669.353 469.025C671.512 469.025 673.262 470.67 673.262 472.698Z" fill="#FAD8B0"/>
<path fill-rule="evenodd" clip-rule="evenodd" d="M599.493 306.884L557.463 288.36C554.072 286.865 554.13 282.318 557.559 280.9L635.756 248.59C636.863 248.133 638.123 248.127 639.234 248.575L692.945 270.225L599.493 306.884Z" fill="#2A1E33"/>
<path fill-rule="evenodd" clip-rule="evenodd" d="M596.89 246.008C596.996 262.341 599.493 306.884 599.493 306.884L692.945 270.225L690.849 208.243C690.721 204.439 686.509 201.984 682.823 203.562L602.36 237.994C599.015 239.425 596.867 242.557 596.89 246.008Z" fill="#C6CBCB"/>
<path fill-rule="evenodd" clip-rule="evenodd" d="M599.798 307.568L693.249 270.911C693.551 270.792 693.745 270.509 693.734 270.201L691.639 208.219L691.636 208.179C691.628 208.122 691.511 206.773 690.692 205.349C690.281 204.638 689.685 203.903 688.818 203.345C687.953 202.784 686.821 202.417 685.441 202.42C684.59 202.42 683.647 202.556 682.595 202.851C682.178 202.968 681.941 203.382 682.066 203.776C682.192 204.168 682.632 204.39 683.051 204.273C683.977 204.012 684.769 203.905 685.441 203.905C686.533 203.908 687.311 204.177 687.923 204.569C688.836 205.153 689.39 206.08 689.698 206.887C689.851 207.288 689.945 207.655 689.997 207.915L690.051 208.216L690.06 208.292L690.062 208.307L690.849 208.243L690.06 208.266L692.137 269.738L599.19 306.198C598.786 306.357 598.595 306.792 598.764 307.169C598.932 307.547 599.395 307.725 599.798 307.568Z" fill="#2A1E17"/>
<path fill-rule="evenodd" clip-rule="evenodd" d="M645.453 262.623L651.762 248.618C651.932 248.241 651.744 247.804 651.343 247.646C650.94 247.485 650.476 247.662 650.306 248.039L643.997 262.044C643.826 262.421 644.014 262.857 644.417 263.016C644.819 263.176 645.282 263 645.453 262.623Z" fill="#2A1E17"/>
<path fill-rule="evenodd" clip-rule="evenodd" d="M651.762 262.623L658.071 248.618C658.242 248.241 658.054 247.804 657.652 247.646C657.251 247.485 656.786 247.662 656.617 248.039L650.306 262.044C650.137 262.421 650.325 262.857 650.727 263.016C651.128 263.176 651.593 263 651.762 262.623Z" fill="#2A1E17"/>
<path fill-rule="evenodd" clip-rule="evenodd" d="M166.227 411.422C166.227 413.451 164.477 415.095 162.316 415.095C160.157 415.095 158.408 413.451 158.408 411.422C158.408 409.396 160.157 407.752 162.316 407.752C164.477 407.752 166.227 409.396 166.227 411.422Z" fill="#FF6D66"/>
<path fill-rule="evenodd" clip-rule="evenodd" d="M497.405 429.612C497.405 432.43 494.972 434.713 491.973 434.713C488.971 434.713 486.54 432.43 486.54 429.612C486.54 426.795 488.971 424.512 491.973 424.512C494.972 424.512 497.405 426.795 497.405 429.612Z" fill="#FF6D66"/>
<path fill-rule="evenodd" clip-rule="evenodd" d="M202.836 465.86C209.199 468.725 227.708 475.953 252.206 475.802C253.545 475.793 254.584 476.908 254.415 478.156L251.003 503.58C250.883 504.486 250.156 505.208 249.199 505.378C242.28 506.596 214.389 510.192 193.526 493.576C192.874 493.059 192.611 492.224 192.832 491.45L199.727 467.213C200.087 465.946 201.578 465.296 202.836 465.86Z" fill="#FFF7DC"/>
<path fill-rule="evenodd" clip-rule="evenodd" d="M204.645 473.764C204.648 473.769 207.666 477.751 211.229 482.026C213.011 484.165 214.928 486.376 216.683 488.208C218.449 490.044 219.998 491.484 221.25 492.159C221.777 492.434 222.374 492.522 223.025 492.523C224.872 492.514 227.341 491.796 230.141 490.755C238.496 487.63 249.524 481.45 249.543 481.441C249.917 481.232 250.041 480.776 249.818 480.424C249.593 480.073 249.108 479.957 248.733 480.166C248.733 480.168 248.431 480.335 247.886 480.634C245.973 481.68 241.093 484.301 235.998 486.65C233.451 487.826 230.851 488.934 228.554 489.74C226.265 490.55 224.251 491.046 223.025 491.039C222.535 491.042 222.194 490.959 222.028 490.866C221.132 490.403 219.56 489.002 217.858 487.216C215.286 484.529 212.296 480.944 209.96 478.037C208.79 476.584 207.783 475.3 207.067 474.38C206.352 473.458 205.933 472.905 205.932 472.904C205.679 472.57 205.186 472.491 204.83 472.729C204.474 472.966 204.39 473.431 204.645 473.765" fill="#2A1E17"/>
<path fill-rule="evenodd" clip-rule="evenodd" d="M232.434 489.814L245.097 502.037C245.401 502.33 245.902 502.337 246.215 502.051C246.528 501.766 246.534 501.295 246.229 501.001L233.568 488.779C233.263 488.485 232.763 488.479 232.45 488.764C232.137 489.051 232.129 489.52 232.434 489.814Z" fill="#2A1E17"/>
<path fill-rule="evenodd" clip-rule="evenodd" d="M215.203 486.225L200.394 490.005C199.973 490.112 199.723 490.52 199.839 490.916C199.953 491.311 200.387 491.544 200.808 491.437L215.617 487.657C216.039 487.55 216.287 487.142 216.174 486.746C216.058 486.351 215.625 486.118 215.203 486.225Z" fill="#2A1E17"/>
<path fill-rule="evenodd" clip-rule="evenodd" d="M576.387 178.388H590.532V165.104H576.387V178.388Z" fill="#FFE1C0"/>
<path fill-rule="evenodd" clip-rule="evenodd" d="M578.305 344.282L586.713 357.959H569.896L578.305 344.282Z" fill="#A0C6F4"/>
<path fill-rule="evenodd" clip-rule="evenodd" d="M238.331 41.3286L239.121 41.3524L240.217 10.307V10.255L240.21 9.92249C240.214 8.71559 240.489 8.05053 240.863 7.63635C241.238 7.22218 241.809 6.96536 242.64 6.79167C248.069 5.66345 260.148 3.1398 275.391 3.13831C285.323 3.13831 296.592 4.21161 308.22 7.4404C309.771 7.87239 310.497 8.40681 310.867 8.90857C311.237 9.41182 311.324 9.98483 311.325 10.6885C311.325 10.9141 311.316 11.1502 311.308 11.3936V11.3921L310.245 40.9902C310.217 41.7369 309.839 42.39 309.193 42.8903C308.548 43.3876 307.639 43.7038 306.63 43.7023C306.409 43.7023 306.183 43.6875 305.955 43.6563C298.073 42.5741 287.701 42.1703 276.945 42.1688C275.767 42.1688 274.583 42.1748 273.4 42.1837C260.991 42.2831 249.936 43.1456 242.145 44.553C241.872 44.6034 241.627 44.6242 241.407 44.6242C240.535 44.6094 240.082 44.3332 239.7 43.83C239.328 43.3223 239.113 42.5132 239.116 41.584L239.121 41.3553V41.3524L238.331 41.3286L237.542 41.3019L237.536 41.584C237.539 42.7092 237.77 43.7929 238.391 44.6613C239.001 45.5372 240.089 46.1236 241.407 46.109C241.738 46.109 242.082 46.0761 242.444 46.0107C250.084 44.6287 261.078 43.7647 273.413 43.6682C274.592 43.6593 275.77 43.6533 276.945 43.6533C287.655 43.6533 297.981 44.0601 305.726 45.126C306.031 45.1675 306.333 45.1868 306.63 45.1868C307.986 45.1868 309.245 44.7682 310.195 44.0393C311.142 43.3149 311.784 42.252 311.825 41.0406L312.887 11.4426V11.4411C312.895 11.2036 312.906 10.9527 312.906 10.6885C312.908 9.88686 312.81 8.93826 312.168 8.06537C311.527 7.19397 310.419 6.50071 308.669 6.01676C296.863 2.73898 285.443 1.65381 275.391 1.65381C259.97 1.65381 247.746 4.21012 242.299 5.34131C241.311 5.54617 240.356 5.90988 239.66 6.6744C238.965 7.4404 238.626 8.51369 238.63 9.92249L238.637 10.3114L239.428 10.2832L238.637 10.258L237.542 41.3034V41.3019L238.331 41.3286Z" fill="#2A1E17"/>
<path fill-rule="evenodd" clip-rule="evenodd" d="M248.325 36.7889L248.926 37.2713L265.654 18.8799L284.182 36.0496L284.737 35.5211L284.982 34.8145C283.238 34.2905 280.397 34.1287 276.934 34.1227C265.697 34.1242 248.247 36.0511 248.232 36.0526L248.325 36.7889L248.926 37.2713L248.325 36.7889L248.416 37.5267C248.42 37.5267 249.503 37.4064 251.309 37.2268C256.727 36.6865 268.632 35.6072 276.934 35.6072C280.318 35.6028 283.137 35.8032 284.492 36.2263C284.841 36.3331 285.22 36.201 285.412 35.9071C285.603 35.6117 285.552 35.2346 285.291 34.9926L266.16 17.2633C266.003 17.1178 265.792 17.0406 265.572 17.0495C265.352 17.0584 265.147 17.152 265.004 17.3093L247.722 36.3064C247.512 36.5395 247.474 36.8705 247.628 37.1392C247.779 37.4079 248.094 37.5623 248.416 37.5267L248.325 36.7889Z" fill="#2A1E17"/>
<path fill-rule="evenodd" clip-rule="evenodd" d="M276.693 27.1658L290.197 17.0162L301.167 24.3675L301.568 35.5339L284.775 34.7783C284.338 34.759 283.968 35.0752 283.946 35.4849C283.926 35.8947 284.262 36.242 284.699 36.2613L302.349 37.0541C302.569 37.0645 302.785 36.9873 302.942 36.8418C303.098 36.6963 303.184 36.4944 303.177 36.2881L302.733 23.9503C302.725 23.7202 302.602 23.5065 302.403 23.3714L290.63 15.4812C290.342 15.2883 289.952 15.2987 289.677 15.5065L275.705 26.0064C275.364 26.2617 275.309 26.7293 275.582 27.05C275.855 27.3692 276.352 27.4211 276.693 27.1658Z" fill="#2A1E17"/>
<path fill-rule="evenodd" clip-rule="evenodd" d="M255.845 15.896L255.061 15.9806L255.072 16.1647C255.07 16.6294 254.857 17.0584 254.454 17.4087C254.051 17.7546 253.458 18.004 252.751 18.0396L252.574 18.0441C251.86 18.0456 251.196 17.8199 250.71 17.4666C250.222 17.1133 249.926 16.6531 249.868 16.1617L249.857 15.9791C249.857 15.5145 250.072 15.084 250.475 14.7336C250.878 14.3878 251.471 14.1398 252.176 14.1027L252.356 14.0983C253.069 14.0968 253.733 14.3224 254.218 14.6758C254.705 15.0291 255.001 15.4907 255.061 15.9806L255.845 15.896L256.631 15.8129C256.515 14.8658 255.954 14.0567 255.184 13.5C254.411 12.9418 253.418 12.6153 252.356 12.6138L252.089 12.6212C251.041 12.6746 250.1 13.0458 249.408 13.6396C248.717 14.2289 248.274 15.0632 248.276 15.9791L248.296 16.331C248.412 17.2766 248.975 18.0857 249.745 18.6424C250.518 19.202 251.51 19.5286 252.574 19.5286L252.838 19.5227C253.888 19.4677 254.829 19.0966 255.521 18.5028C256.212 17.9135 256.653 17.0792 256.653 16.1647L256.631 15.8129L255.845 15.896Z" fill="#2A1E17"/>
<path fill-rule="evenodd" clip-rule="evenodd" d="M572.517 444.667L571.821 445.021L583.414 465.124L583.442 465.17C583.915 465.866 584.06 466.36 584.059 466.7C584.056 467.146 583.842 467.493 583.31 467.967C578.361 472.273 563.389 485.323 541.486 490.4C540.985 490.516 540.577 490.562 540.25 490.562C539.566 490.553 539.261 490.393 538.973 490.154C538.69 489.911 538.454 489.52 538.195 489.064L527.153 469.893C527.015 469.653 526.952 469.402 526.95 469.136C526.941 468.344 527.584 467.403 528.716 466.976C534.765 464.678 542.419 460.786 550.009 456.534C557.859 452.134 564.548 447.722 568.954 444.097C569.419 443.719 569.771 443.619 570.057 443.616C570.337 443.618 570.622 443.719 570.936 443.956C571.248 444.194 571.561 444.566 571.821 445.021L572.517 444.667L573.211 444.314C572.874 443.731 572.457 443.207 571.935 442.807C571.42 442.409 570.773 442.132 570.057 442.132C569.319 442.13 568.576 442.43 567.912 442.981C563.622 446.513 556.987 450.896 549.198 455.259C541.651 459.489 534.033 463.357 528.125 465.6C526.46 466.234 525.379 467.637 525.37 469.136C525.37 469.634 525.496 470.137 525.762 470.599L536.806 489.77C537.063 490.212 537.357 490.764 537.896 491.241C538.432 491.722 539.243 492.056 540.25 492.047C540.734 492.047 541.265 491.98 541.866 491.84C564.211 486.658 579.395 473.389 584.385 469.055C585.056 468.479 585.645 467.704 585.64 466.7C585.638 465.968 585.344 465.21 584.777 464.371L584.109 464.77L584.803 464.417L573.211 444.314L572.517 444.667Z" fill="#2A1E17"/>
<path fill-rule="evenodd" clip-rule="evenodd" d="M567.965 451.038L567.187 450.907L563.88 468.222L545.533 463.836L545.337 464.554L545.506 465.28C546.957 464.973 548.989 463.98 551.382 462.649C558.51 458.668 568.428 451.637 568.441 451.63L567.965 451.038L567.187 450.907L567.965 451.038L567.489 450.445C567.486 450.447 566.392 451.222 564.664 452.406C562.075 454.183 558.069 456.873 554.258 459.208C552.353 460.374 550.495 461.451 548.897 462.278C547.307 463.105 545.942 463.677 545.169 463.83C544.81 463.902 544.554 464.196 544.548 464.542C544.542 464.887 544.787 465.189 545.142 465.274L564.313 469.858C564.527 469.909 564.751 469.874 564.936 469.763C565.121 469.65 565.248 469.474 565.287 469.27L568.743 451.168C568.8 450.868 568.656 450.564 568.379 450.405C568.103 450.246 567.749 450.261 567.489 450.445L567.965 451.038Z" fill="#2A1E17"/>
<path fill-rule="evenodd" clip-rule="evenodd" d="M553.561 466.985L549.055 478.008L539.437 477.188L534.938 470.498L545.704 465.213C546.091 465.023 546.24 464.574 546.039 464.211C545.837 463.847 545.359 463.706 544.972 463.896L533.446 469.555C533.25 469.65 533.106 469.821 533.049 470.02C532.991 470.22 533.026 470.434 533.144 470.609L538.309 478.291C538.44 478.486 538.661 478.613 538.906 478.634L549.508 479.537C549.858 479.566 550.19 479.373 550.317 479.063L555.036 467.517C555.192 467.134 554.988 466.705 554.582 466.558C554.174 466.411 553.717 466.602 553.561 466.985Z" fill="#2A1E17"/>
<path fill-rule="evenodd" clip-rule="evenodd" d="M571.458 466.935L572.091 466.49C571.95 466.312 571.887 466.12 571.885 465.902C571.882 465.498 572.14 464.999 572.69 464.658C573.052 464.432 573.463 464.325 573.839 464.325C574.346 464.327 574.757 464.511 574.985 464.799C575.126 464.977 575.189 465.169 575.191 465.385C575.194 465.789 574.936 466.289 574.384 466.631C574.022 466.855 573.613 466.963 573.235 466.962C572.728 466.96 572.318 466.778 572.091 466.49L570.826 467.38C571.408 468.105 572.325 468.448 573.235 468.446C573.924 468.446 574.631 468.256 575.257 467.869C576.202 467.281 576.768 466.353 576.771 465.385C576.773 464.872 576.602 464.346 576.25 463.907C575.668 463.182 574.751 462.839 573.839 462.841C573.15 462.842 572.443 463.032 571.819 463.42C570.872 464.008 570.307 464.935 570.304 465.902C570.303 466.417 570.473 466.941 570.826 467.38L571.458 466.935Z" fill="#2A1E17"/>
<path fill-rule="evenodd" clip-rule="evenodd" d="M516.081 101.48L563.183 135.334C564.215 136.076 565.695 135.879 566.469 134.896L573.58 125.845C574.32 124.901 574.136 123.575 573.161 122.842L526.723 87.9502C525.686 87.1708 524.166 87.3653 523.386 88.3748L515.61 98.4649C514.87 99.4239 515.079 100.761 516.081 101.48Z" fill="white"/>
<path fill-rule="evenodd" clip-rule="evenodd" d="M516.08 101.48L515.6 102.069L562.701 135.923C563.264 136.329 563.934 136.526 564.593 136.526C565.545 136.528 566.492 136.113 567.104 135.337L574.215 126.286C574.624 125.765 574.823 125.152 574.823 124.549C574.825 123.691 574.42 122.838 573.653 122.263L527.216 87.3713C526.643 86.9393 525.951 86.7285 525.271 86.7285C524.312 86.7285 523.355 87.1486 522.745 87.9399L514.969 98.03C514.57 98.5452 514.376 99.1494 514.376 99.7446C514.374 100.623 514.8 101.496 515.6 102.071L516.08 101.48L516.559 100.891C516.164 100.606 515.958 100.181 515.957 99.7446C515.957 99.4507 516.05 99.1583 516.249 98.9L524.026 88.8098C524.327 88.4179 524.794 88.2145 525.271 88.213C525.61 88.2145 525.942 88.3155 526.229 88.5292L572.667 123.421C573.045 123.706 573.241 124.122 573.242 124.549C573.242 124.848 573.146 125.144 572.942 125.404L565.831 134.455C565.528 134.841 565.066 135.04 564.593 135.042C564.266 135.042 563.942 134.947 563.661 134.745L516.561 100.891L516.08 101.48Z" fill="#2A1E17"/>
<path fill-rule="evenodd" clip-rule="evenodd" d="M519.566 99.9704L530.988 107.497L537.729 99.9422L526.302 90.9937L519.566 99.9704Z" fill="#FF6D66"/>
<path fill-rule="evenodd" clip-rule="evenodd" d="M535.29 110.432L546.726 118.953L552.856 111.871L541.344 103.097L535.29 110.432Z" fill="#FAD8B0"/>
<path fill-rule="evenodd" clip-rule="evenodd" d="M550.575 122.226L561.998 129.754L567.438 123.188L556.617 114.686L550.575 122.226Z" fill="#A0C6F4"/>
<path fill-rule="evenodd" clip-rule="evenodd" d="M610.062 54.1509L620.795 138.851C621.029 140.709 622.842 142.025 624.816 141.771L642.99 139.434C644.885 139.191 646.238 137.584 646.052 135.796L637.243 50.6727C637.046 48.7696 635.195 47.4083 633.182 47.6859L613.085 50.4456C611.173 50.7083 609.833 52.3517 610.062 54.1509Z" fill="white"/>
<path fill-rule="evenodd" clip-rule="evenodd" d="M610.063 54.1513L609.278 54.2389L620.01 138.939C620.276 141.02 622.155 142.545 624.329 142.545C624.525 142.545 624.724 142.533 624.923 142.506L643.098 140.169C645.272 139.889 646.861 138.146 646.861 136.124L646.84 135.725L638.032 50.6004C637.809 48.4775 635.909 46.9083 633.703 46.9083C633.493 46.9069 633.281 46.9218 633.068 46.9514L612.972 49.7111C610.811 50.0095 609.248 51.7479 609.248 53.7519C609.248 53.9123 609.257 54.0756 609.278 54.2404V54.2389L610.063 54.1513L610.847 54.0622L610.828 53.7519C610.828 52.4797 611.823 51.3678 613.2 51.1808L633.297 48.4196L633.703 48.3914C635.101 48.3914 636.32 49.392 636.459 50.7443L645.267 135.867L645.28 136.124C645.28 137.407 644.268 138.522 642.883 138.698L624.71 141.036L624.329 141.06C622.949 141.06 621.746 140.089 621.58 138.763L610.847 54.0637V54.0622L610.063 54.1513Z" fill="#2A1E17"/>
<path fill-rule="evenodd" clip-rule="evenodd" d="M615.553 56.1312L618.954 75.9418L634.98 74.8225L633.238 53.4902L615.553 56.1312Z" fill="#FF6D66"/>
<path fill-rule="evenodd" clip-rule="evenodd" d="M620.113 83.5084L622.369 104.397L637.194 103.153L635.152 81.917L620.113 83.5084Z" fill="#91BA83"/>
<path fill-rule="evenodd" clip-rule="evenodd" d="M622.65 111.86L626.052 131.671L639.535 130.268L637.918 110.037L622.65 111.86Z" fill="#FAD8B0"/>
<path fill-rule="evenodd" clip-rule="evenodd" d="M586.633 72.185L616.355 154.228C616.865 155.636 618.508 156.379 619.997 155.874L638.613 149.581C640.047 149.097 640.815 147.636 640.357 146.274L612.447 63.4205C611.958 61.9701 610.278 61.1997 608.76 61.7267L588.331 68.8315C586.891 69.3333 586.137 70.8207 586.633 72.185Z" fill="white"/>
<path fill-rule="evenodd" clip-rule="evenodd" d="M586.633 72.1852L585.884 72.4242L615.607 154.467C616.121 155.885 617.531 156.775 619.038 156.775C619.445 156.775 619.861 156.71 620.264 156.573L638.882 150.279C640.355 149.78 641.28 148.477 641.28 147.077C641.28 146.736 641.225 146.39 641.111 146.051L613.199 63.1965C612.708 61.7388 611.277 60.8169 609.744 60.8184C609.325 60.8184 608.898 60.8867 608.485 61.0306L588.056 68.1355C586.598 68.6447 585.689 69.9406 585.689 71.3272C585.689 71.6909 585.753 72.0635 585.884 72.4257V72.4242L586.633 72.1852L587.381 71.9447C587.305 71.7384 587.27 71.532 587.27 71.3272C587.272 70.5463 587.782 69.813 588.605 69.528L609.034 62.4231C609.271 62.3415 609.508 62.3029 609.744 62.3029C610.607 62.3029 611.418 62.8224 611.693 63.6434L639.603 146.498C639.668 146.691 639.699 146.885 639.699 147.077C639.698 147.865 639.178 148.603 638.346 148.882L619.73 155.176C619.499 155.254 619.267 155.291 619.038 155.291C618.189 155.289 617.392 154.789 617.104 153.989L587.381 71.9462V71.9447L586.633 72.1852Z" fill="#2A1E17"/>
<path fill-rule="evenodd" clip-rule="evenodd" d="M592.668 73.6795L600.383 92.3947L615.812 88.1683L609.381 67.6436L592.668 73.6795Z" fill="#A0C6F4"/>
<path fill-rule="evenodd" clip-rule="evenodd" d="M603.193 99.5678L610.024 119.56L624.25 115.448L617.551 95.0742L603.193 99.5678Z" fill="#F9865F"/>
<path fill-rule="evenodd" clip-rule="evenodd" d="M611.953 126.804L619.668 145.518L632.547 141.511L626.484 122.038L611.953 126.804Z" fill="#FAD8B0"/>
<path fill-rule="evenodd" clip-rule="evenodd" d="M362.627 211.158H212.535C207.748 211.158 203.867 207.516 203.867 203.019V183.955C203.867 179.458 207.748 175.814 212.535 175.814H362.627C367.415 175.814 371.296 179.458 371.296 183.955V203.019C371.296 207.516 367.415 211.158 362.627 211.158Z" fill="#7595EC"/>
<path fill-rule="evenodd" clip-rule="evenodd" d="M306.393 191.599H224.568C222.986 191.599 221.705 190.395 221.705 188.909C221.705 187.424 222.986 186.22 224.568 186.22H306.393C307.975 186.22 309.257 187.424 309.257 188.909C309.257 190.395 307.975 191.599 306.393 191.599Z" fill="white"/>
<path fill-rule="evenodd" clip-rule="evenodd" d="M222.522 199.309H361.625C362.061 199.309 362.415 198.976 362.415 198.567C362.415 198.157 362.061 197.825 361.625 197.825H222.522C222.086 197.825 221.732 198.157 221.732 198.567C221.732 198.976 222.086 199.309 222.522 199.309Z" fill="#2A1E17"/>
<path fill-rule="evenodd" clip-rule="evenodd" d="M153.725 111.763L151.356 109.326L143.515 116.051L145.884 118.486C146.883 119.513 148.58 119.586 149.674 118.647L153.553 115.321C154.647 114.383 154.724 112.789 153.725 111.763Z" fill="#91BA83"/>
<path fill-rule="evenodd" clip-rule="evenodd" d="M140.053 96.001L139.469 96.5013L150.632 107.978C150.766 108.116 150.829 108.284 150.829 108.457C150.829 108.653 150.749 108.842 150.583 108.984L142.87 115.599C142.723 115.726 142.542 115.785 142.359 115.786C142.15 115.785 141.95 115.709 141.798 115.553L130.635 104.078C130.501 103.939 130.438 103.772 130.438 103.599C130.438 103.403 130.518 103.214 130.684 103.072L138.397 96.4567C138.544 96.3305 138.723 96.2712 138.908 96.2697C139.117 96.2712 139.317 96.3469 139.469 96.5013L140.053 96.001L140.636 95.4992C140.176 95.0271 139.54 94.7837 138.908 94.7852C138.347 94.7852 137.778 94.9767 137.33 95.3597L129.617 101.976C129.115 102.408 128.855 103.005 128.857 103.599C128.855 104.126 129.061 104.66 129.469 105.08L140.631 116.555C141.09 117.027 141.727 117.271 142.359 117.271C142.919 117.271 143.489 117.079 143.935 116.696L151.65 110.08C152.152 109.648 152.412 109.05 152.41 108.457C152.412 107.93 152.208 107.395 151.798 106.976L140.637 95.5007L140.053 96.001Z" fill="#2A1E17"/>
<path fill-rule="evenodd" clip-rule="evenodd" d="M104.365 168.749H118.388V156.724H104.365V168.749Z" fill="#FF6D66"/>
<path fill-rule="evenodd" clip-rule="evenodd" d="M103.574 148.987V155.982H95.9765C95.5386 155.982 95.186 156.315 95.186 156.725C95.186 157.134 95.5386 157.467 95.9765 157.467H104.364C104.573 157.467 104.777 157.388 104.924 157.25C105.071 157.112 105.155 156.921 105.155 156.725V148.987C105.155 148.578 104.801 148.245 104.364 148.245C103.928 148.245 103.574 148.578 103.574 148.987Z" fill="#2A1E17"/>
<path fill-rule="evenodd" clip-rule="evenodd" d="M566.368 32.963H580.393V20.937H566.368V32.963Z" fill="#FAD8B0"/>
<path fill-rule="evenodd" clip-rule="evenodd" d="M565.577 13.1993V20.1942H557.981C557.543 20.1942 557.191 20.5268 557.191 20.9365C557.191 21.3477 557.543 21.6787 557.981 21.6787H566.368C566.576 21.6787 566.78 21.6 566.927 21.462C567.074 21.3239 567.158 21.1324 567.158 20.9365V13.1993C567.158 12.7896 566.804 12.457 566.368 12.457C565.931 12.457 565.577 12.7896 565.577 13.1993Z" fill="#2A1E17"/>
<path fill-rule="evenodd" clip-rule="evenodd" d="M187.127 94.5756C160.64 84.2657 135.245 79.4263 113.039 79.4263C90.259 79.4263 70.8208 84.5181 57.031 94.0828C43.2365 103.641 35.1457 117.723 35.1567 135.431C35.1631 156.611 46.6385 182.93 73.3423 213.263C100.051 243.596 142.016 277.956 203.141 315.183C224.949 328.447 258.078 333.031 258.128 333.048C258.56 333.108 258.961 332.828 259.026 332.423C259.089 332.017 258.792 331.639 258.359 331.579C258.357 331.579 257.853 331.508 256.912 331.358C250.331 330.31 222.681 325.325 204.001 313.938C142.971 276.77 101.124 242.488 74.5595 212.317C47.9901 182.145 36.7313 156.095 36.7376 135.431C36.7487 118.151 44.547 104.603 57.97 95.2763C71.3962 85.9566 90.504 80.9093 113.039 80.9093C135 80.9093 160.204 85.7027 186.522 95.9473C186.925 96.1047 187.387 95.925 187.554 95.5465C187.722 95.1679 187.53 94.733 187.127 94.5756Z" fill="#2A1E17"/>
<path fill-rule="evenodd" clip-rule="evenodd" d="M57.2584 99.0682C57.2584 101.218 55.4024 102.961 53.1134 102.961C50.8243 102.961 48.9668 101.218 48.9668 99.0682C48.9668 96.9186 50.8243 95.1743 53.1134 95.1743C55.4024 95.1743 57.2584 96.9186 57.2584 99.0682Z" fill="#2A1E17"/>
<path fill-rule="evenodd" clip-rule="evenodd" d="M26.7322 77.7015L27.2807 78.2359L31.3894 74.5321L41.0405 79.7174L45.6598 93.0958L31.5506 87.5511L27.472 77.4387L26.7322 77.7015L27.2807 78.2359L26.7322 77.7015L25.9939 77.9642L30.1927 88.3765C30.2701 88.5665 30.4266 88.7194 30.6274 88.7981L46.6367 95.0894C46.9229 95.2023 47.2485 95.1474 47.4777 94.9514C47.7054 94.7539 47.7892 94.4526 47.6943 94.1765L42.4506 78.987C42.3906 78.8119 42.2609 78.6619 42.0918 78.5714L31.6613 72.9674C31.3578 72.8041 30.9752 72.8471 30.7223 73.0758L26.1852 77.1656C25.956 77.3719 25.8817 77.6851 25.9939 77.9642L26.7322 77.7015Z" fill="#2A1E17"/>
<path fill-rule="evenodd" clip-rule="evenodd" d="M31.2688 73.6116L30.7218 73.0756L26.7997 76.6102L25.2678 74.8645L28.5165 71.94L30.6918 74.1192L31.2688 73.6116L30.7218 73.0756L31.2688 73.6116L31.8458 73.1038L29.1236 70.3768C28.9797 70.2328 28.7789 70.1482 28.5687 70.1423C28.3568 70.1378 28.1529 70.2121 27.9996 70.3486L23.6443 74.2692C23.3455 74.5364 23.3186 74.9773 23.5811 75.2772L26.1215 78.1734C26.2622 78.3322 26.4661 78.4302 26.6859 78.4421C26.9056 78.454 27.1206 78.3798 27.2803 78.2358L31.8157 74.1475C32.1272 73.8654 32.1398 73.3993 31.8458 73.1038L31.2688 73.6116Z" fill="#2A1E17"/>
<path fill-rule="evenodd" clip-rule="evenodd" d="M47.527 93.9047L37.1155 83.1643C36.8214 82.8615 36.3219 82.8392 35.9994 83.1153C35.6769 83.3899 35.6532 83.8605 35.9472 84.1634L46.3571 94.9037C46.6512 95.2066 47.1507 95.2288 47.4748 94.9527C47.7973 94.6781 47.821 94.2075 47.527 93.9047Z" fill="#2A1E17"/>
<path fill-rule="evenodd" clip-rule="evenodd" d="M72.1407 366.932L83.4422 421.61C83.6888 422.808 84.9361 423.585 86.2087 423.331L97.926 420.994C99.148 420.751 99.9463 419.643 99.7345 418.487L89.666 363.445C89.4415 362.215 88.1658 361.412 86.8695 361.683L73.9207 364.381C72.6908 364.638 71.902 365.769 72.1407 366.932Z" fill="white"/>
<path fill-rule="evenodd" clip-rule="evenodd" d="M72.1407 366.932L71.3661 367.073L82.666 421.751C82.9569 423.153 84.2595 424.121 85.7234 424.121C85.9384 424.121 86.155 424.1 86.3715 424.057L98.0904 421.72C99.5511 421.428 100.56 420.219 100.56 418.86C100.56 418.695 100.544 418.528 100.514 418.362L90.4454 363.318C90.1814 361.887 88.8614 360.887 87.3754 360.887C87.1509 360.887 86.9248 360.91 86.6972 360.958L73.75 363.657C72.3004 363.961 71.3076 365.165 71.3076 366.514C71.3076 366.699 71.3266 366.886 71.3661 367.073L72.1407 366.932L72.9169 366.791L72.8885 366.514C72.8885 365.852 73.3785 365.253 74.0931 365.106L87.0402 362.407L87.3754 362.371C88.1026 362.371 88.7602 362.866 88.8883 363.571L98.9567 418.613L98.9788 418.86C98.9788 419.526 98.4809 420.126 97.7616 420.268L86.0443 422.605L85.7234 422.636C85.0073 422.636 84.3575 422.158 84.2184 421.469L72.9169 366.789L72.1407 366.932Z" fill="#2A1E17"/>
<path fill-rule="evenodd" clip-rule="evenodd" d="M75.8174 367.973L79.0407 380.724L89.4206 379.274L87.2011 365.46L75.8174 367.973Z" fill="#FF6D66"/>
<path fill-rule="evenodd" clip-rule="evenodd" d="M80.1812 385.599L82.7137 399.102L92.3047 397.625L89.8955 383.888L80.1812 385.599Z" fill="#FAD8B0"/>
<path fill-rule="evenodd" clip-rule="evenodd" d="M83.2769 403.947L86.5002 416.698L95.2106 415.179L93.1287 402.075L83.2769 403.947Z" fill="#A0C6F4"/>
<path fill-rule="evenodd" clip-rule="evenodd" d="M395.718 503.97L395.922 504.687L442.971 492.86L444.264 496.31L397.568 507.692L396.483 503.783L395.718 503.97L395.922 504.687L395.718 503.97L394.953 504.158L396.238 508.785C396.347 509.181 396.779 509.419 397.201 509.315L445.494 497.544C445.708 497.492 445.89 497.357 445.994 497.174C446.097 496.992 446.114 496.774 446.041 496.579L444.22 491.719C444.083 491.354 443.668 491.149 443.27 491.248L395.514 503.253C395.094 503.359 394.844 503.764 394.953 504.158L395.718 503.97Z" fill="#2A1E17"/>
<path fill-rule="evenodd" clip-rule="evenodd" d="M388.338 497.924L389.716 501.995C389.849 502.386 390.293 502.602 390.709 502.477C391.125 502.354 391.356 501.935 391.223 501.545L389.844 497.474C389.712 497.084 389.267 496.867 388.852 496.992C388.436 497.116 388.205 497.534 388.338 497.924Z" fill="#2A1E17"/>
<path fill-rule="evenodd" clip-rule="evenodd" d="M388.003 501.056L392.033 499.757C392.445 499.624 392.665 499.202 392.524 498.813C392.382 498.426 391.933 498.219 391.519 498.353L387.491 499.652C387.077 499.784 386.857 500.207 386.999 500.595C387.142 500.982 387.591 501.189 388.003 501.056Z" fill="#2A1E17"/>
<path fill-rule="evenodd" clip-rule="evenodd" d="M386.021 513.473L388.62 521.152C388.751 521.544 389.196 521.759 389.613 521.636C390.029 521.511 390.258 521.094 390.127 520.704L387.528 513.023C387.397 512.632 386.951 512.416 386.535 512.54C386.119 512.664 385.89 513.081 386.021 513.473Z" fill="#2A1E17"/>
<path fill-rule="evenodd" clip-rule="evenodd" d="M384.8 518.823L391.975 516.683C392.391 516.559 392.622 516.142 392.489 515.751C392.356 515.361 391.912 515.144 391.496 515.269L384.321 517.409C383.905 517.534 383.674 517.951 383.807 518.341C383.938 518.731 384.384 518.948 384.8 518.823Z" fill="#2A1E17"/>
<path fill-rule="evenodd" clip-rule="evenodd" d="M375.107 500.793L378.496 510.964C378.626 511.355 379.07 511.572 379.486 511.45C379.903 511.327 380.135 510.912 380.004 510.52L376.616 500.349C376.485 499.957 376.043 499.741 375.625 499.862C375.209 499.984 374.977 500.401 375.107 500.793Z" fill="#2A1E17"/>
<path fill-rule="evenodd" clip-rule="evenodd" d="M372.734 507.611L382.79 504.598C383.206 504.473 383.435 504.056 383.302 503.666C383.169 503.274 382.725 503.059 382.309 503.184L372.254 506.197C371.836 506.321 371.607 506.74 371.74 507.13C371.873 507.521 372.317 507.736 372.734 507.611Z" fill="#2A1E17"/>
<path fill-rule="evenodd" clip-rule="evenodd" d="M47.5156 16.8145L47.7337 16.3602L17.9615 3.73897L18.8499 1.43354L48.238 14.1439L47.0334 16.6066L47.5156 16.8145L47.7337 16.3602L47.5156 16.8145L47.9977 17.0223L49.4221 14.1082C49.5454 13.8573 49.4284 13.5634 49.1628 13.4476L18.7693 0.302344L18.3425 0.294922L18.0484 0.585885L16.7964 3.83398C16.7031 4.07892 16.8249 4.35058 17.0778 4.45747L47.2974 17.2673C47.563 17.3801 47.876 17.2702 47.9977 17.0223L47.5156 16.8145Z" fill="#2A1E17"/>
<path fill-rule="evenodd" clip-rule="evenodd" d="M48.6126 22.8939L49.7382 20.2313C49.8457 19.976 49.7129 19.6865 49.441 19.5856C49.1691 19.4832 48.8608 19.6079 48.7533 19.8647L47.6262 22.5273C47.5187 22.7826 47.6514 23.072 47.9234 23.173C48.1953 23.2739 48.5035 23.1492 48.6126 22.8939Z" fill="#2A1E17"/>
<path fill-rule="evenodd" clip-rule="evenodd" d="M50.203 21.4035L47.5234 20.4709C47.2484 20.3759 46.9433 20.5066 46.8421 20.765C46.7409 21.0233 46.88 21.3099 47.1551 21.405L49.8346 22.3375C50.1081 22.4325 50.4132 22.3018 50.516 22.0435C50.6171 21.7851 50.4764 21.4985 50.203 21.4035Z" fill="#2A1E17"/>
<path fill-rule="evenodd" clip-rule="evenodd" d="M56.8459 15.7483L58.9706 10.7233C59.0781 10.4679 58.9453 10.1784 58.6734 10.0775C58.4015 9.97655 58.0932 10.1012 57.9857 10.3566L55.861 15.3802C55.7535 15.6355 55.8863 15.925 56.1582 16.0274C56.4301 16.1284 56.7384 16.0037 56.8459 15.7483Z" fill="#2A1E17"/>
<path fill-rule="evenodd" clip-rule="evenodd" d="M59.8995 13.4547L55.2075 11.7058C54.9356 11.6033 54.6273 11.728 54.5182 11.9834C54.4107 12.2402 54.5435 12.5297 54.8154 12.6307L59.5074 14.3811C59.7809 14.482 60.0876 14.3573 60.1967 14.102C60.3042 13.8466 60.1714 13.5571 59.8995 13.4547Z" fill="#2A1E17"/>
<path fill-rule="evenodd" clip-rule="evenodd" d="M56.7794 26.6818L59.6186 20.049C59.7277 19.7952 59.5965 19.5042 59.3246 19.4018C59.0527 19.2993 58.7444 19.4226 58.6353 19.6779L55.7945 26.3107C55.6855 26.5661 55.8182 26.8555 56.0886 26.958C56.3605 27.0604 56.6703 26.9372 56.7794 26.6818Z" fill="#2A1E17"/>
<path fill-rule="evenodd" clip-rule="evenodd" d="M61.0948 24.0883L54.5106 21.6439C54.2387 21.543 53.9304 21.6676 53.8229 21.9229C53.7154 22.1782 53.8482 22.4676 54.1217 22.5685L60.706 25.013C60.9779 25.1139 61.2861 24.9892 61.3936 24.734C61.5011 24.4787 61.3683 24.1893 61.0948 24.0883Z" fill="#2A1E17"/>
<path fill-rule="evenodd" clip-rule="evenodd" d="M160.45 256.476C139.148 242.073 118.219 219.693 127.399 196.704C127.399 196.704 142.087 187.509 165.345 199.003C188.602 210.498 188.602 210.498 188.602 210.498L160.45 256.476Z" fill="#FAD8B0"/>
<path fill-rule="evenodd" clip-rule="evenodd" d="M150.792 352.416C141.208 348.161 100.284 328.156 93.0043 293.969C86.7125 264.431 110.765 224.612 122.816 207.019C122.041 230.372 147.016 250.135 159.065 258.282C171.268 266.533 180.244 270.569 192.628 274.935L150.792 352.416Z" fill="white"/>
<path fill-rule="evenodd" clip-rule="evenodd" d="M127.399 196.704C127.399 196.704 82.1111 254.176 90.6793 294.406C99.2475 334.636 151.882 355.326 151.882 355.326L195.947 273.717C182.176 268.974 173.23 265.115 160.45 256.476C139.148 242.073 118.219 219.693 127.399 196.704ZM120.984 213.965C123.596 229.486 136.211 245.575 157.679 260.089C169.271 267.926 177.987 272.021 189.321 276.136L149.729 349.462C137.667 343.825 101.973 324.73 95.3286 293.532C89.8051 267.599 108.532 233.2 120.984 213.965Z" fill="#FAD8B0"/>
<path fill-rule="evenodd" clip-rule="evenodd" d="M114.703 230.181C114.711 230.239 115.381 236.088 119.168 243.513C122.951 250.934 129.868 259.942 142.337 266.211C142.721 266.406 143.2 266.269 143.407 265.908C143.612 265.546 143.468 265.096 143.083 264.903C130.965 258.806 124.274 250.085 120.593 242.872C118.753 239.266 117.672 236.04 117.052 233.721C116.741 232.563 116.546 231.631 116.429 230.993C116.371 230.674 116.331 230.427 116.308 230.262C116.284 230.098 116.276 230.023 116.275 230.023C116.229 229.615 115.84 229.32 115.405 229.364C114.97 229.407 114.657 229.774 114.703 230.181Z" fill="#2A1E17"/>
<path fill-rule="evenodd" clip-rule="evenodd" d="M155.508 274.457L180.094 286.825C180.478 287.019 180.957 286.883 181.164 286.522C181.369 286.16 181.224 285.71 180.84 285.517L156.254 273.149C155.87 272.955 155.391 273.091 155.184 273.452C154.979 273.814 155.124 274.264 155.508 274.457Z" fill="#2A1E17"/>
<path fill-rule="evenodd" clip-rule="evenodd" d="M118.281 263.389C118.328 263.491 126.351 280.155 152.044 290.971C152.443 291.139 152.911 290.971 153.089 290.597C153.268 290.223 153.089 289.783 152.691 289.617C140.069 284.303 131.822 277.57 126.727 272.177C124.18 269.48 122.422 267.116 121.305 265.434C120.745 264.594 120.347 263.923 120.089 263.466C119.961 263.237 119.868 263.062 119.806 262.946L119.741 262.817L119.722 262.779C119.544 262.406 119.076 262.238 118.677 262.408C118.279 262.575 118.102 263.015 118.281 263.389Z" fill="#2A1E17"/>
<path fill-rule="evenodd" clip-rule="evenodd" d="M98.0175 265.592C98.0207 265.634 98.242 270.016 100.032 275.167C101.821 280.308 105.19 286.279 111.624 289.31C112.014 289.493 112.489 289.344 112.685 288.978C112.879 288.611 112.721 288.166 112.331 287.981C106.472 285.24 103.256 279.667 101.535 274.707C100.673 272.232 100.188 269.925 99.9177 268.244C99.7833 267.402 99.7027 266.716 99.6553 266.244C99.6331 266.008 99.6173 265.825 99.6078 265.702L99.5968 265.522C99.5762 265.113 99.2063 264.796 98.77 264.816C98.3337 264.835 97.9969 265.184 98.0175 265.592Z" fill="#2A1E17"/>
<path fill-rule="evenodd" clip-rule="evenodd" d="M126.117 205.294C126.116 205.318 126.085 205.624 126.085 206.192C126.074 210.664 128 231.313 159.935 257.038C160.267 257.305 160.765 257.27 161.049 256.958C161.334 256.648 161.296 256.178 160.964 255.911C129.336 230.405 127.677 210.269 127.666 206.192C127.666 205.933 127.673 205.738 127.679 205.612L127.689 205.472L127.692 205.437C127.733 205.028 127.415 204.666 126.98 204.628C126.546 204.588 126.16 204.886 126.117 205.294Z" fill="#2A1E17"/>
<path fill-rule="evenodd" clip-rule="evenodd" d="M140.136 210.229L140.155 210.227C140.208 210.226 140.356 210.218 140.6 210.218C142.868 210.221 153.242 210.8 167.705 220.804C168.056 221.048 168.551 220.978 168.81 220.647C169.069 220.317 168.993 219.853 168.642 219.609C153.912 209.414 143.159 208.731 140.6 208.734C140.234 208.734 140.035 208.747 140.016 208.749C139.58 208.78 139.254 209.138 139.287 209.546C139.322 209.954 139.702 210.26 140.138 210.229" fill="#2A1E17"/>
<path fill-rule="evenodd" clip-rule="evenodd" d="M85.6074 280.44C85.5473 281.345 85.5015 282.441 85.5015 283.704C85.4999 290.886 86.9764 303.49 95.6047 317.25C104.23 331.011 120.002 345.899 148.462 357.668C148.862 357.833 149.328 357.664 149.504 357.288C149.681 356.913 149.499 356.475 149.099 356.31C120.89 344.639 105.419 329.973 96.9674 316.497C88.5162 303.019 87.0823 290.699 87.0823 283.704C87.0823 282.475 87.1266 281.411 87.1851 280.533C87.212 280.124 86.8816 279.772 86.4452 279.745C86.0105 279.72 85.6343 280.032 85.6074 280.44Z" fill="#2A1E17"/>
<path fill-rule="evenodd" clip-rule="evenodd" d="M480.077 258.248L453.927 307.462C453.927 307.462 471.664 313.592 457.797 332.684C457.797 332.684 490.58 345.451 512.031 312.293C533.482 279.134 480.077 258.248 480.077 258.248Z" fill="#91BA83"/>
<path fill-rule="evenodd" clip-rule="evenodd" d="M420.226 408.652C406.993 408.652 393.027 403.578 378.688 393.563L427.609 317.465L456.704 334.669L456.889 334.741C457.16 334.847 463.636 337.326 472.778 337.328H472.78C480.131 337.328 489.406 335.715 498.442 329.712L462.683 387.159C462.601 387.271 447.205 408.65 420.229 408.652H420.226Z" fill="white"/>
<path fill-rule="evenodd" clip-rule="evenodd" d="M512.03 312.293C499.91 331.026 484.176 335.099 472.778 335.099C464.002 335.099 457.796 332.684 457.796 332.684L426.827 314.371L375.554 394.129C392.723 406.557 407.699 410.878 420.229 410.878C448.874 410.878 464.73 388.283 464.73 388.283L512.03 312.293ZM428.389 320.557L455.27 336.453L455.61 336.653L455.981 336.799C456.27 336.91 463.169 339.553 472.778 339.553C478.387 339.553 485.056 338.668 491.914 335.785L460.713 385.911C459.693 387.303 445.208 406.425 420.229 406.425C408.045 406.425 395.147 401.9 381.841 392.967L428.389 320.557Z" fill="#96BD89"/>
<path fill-rule="evenodd" clip-rule="evenodd" d="M453.663 308.163L453.755 308.194C454.247 308.371 456.631 309.295 458.839 311.127C461.052 312.968 463.073 315.648 463.076 319.467C463.077 322.738 461.579 326.942 457.174 332.227C456.906 332.55 456.966 333.016 457.309 333.269C457.653 333.521 458.15 333.465 458.419 333.143C462.96 327.694 464.655 323.177 464.657 319.467C464.66 314.828 461.99 311.611 459.397 309.625C456.798 307.627 454.24 306.781 454.19 306.763C453.777 306.626 453.327 306.828 453.181 307.216C453.036 307.602 453.251 308.026 453.663 308.163Z" fill="#2A1E17"/>
<path fill-rule="evenodd" clip-rule="evenodd" d="M425.686 313.209C425.7 313.221 432.314 318.911 440.797 324.614C445.038 327.466 449.748 330.322 454.351 332.478C458.956 334.629 463.447 336.095 467.346 336.103L467.502 336.101C474.917 336.023 483.004 335.159 490.562 332.206C498.119 329.256 505.135 324.194 510.306 315.814C510.525 315.459 510.396 315.005 510.019 314.8C509.642 314.594 509.158 314.714 508.938 315.069C503.935 323.164 497.241 327.983 489.954 330.836C482.669 333.685 474.782 334.541 467.487 334.617L467.346 334.618C463.877 334.624 459.543 333.254 455.056 331.149C448.319 327.997 441.225 323.232 435.835 319.26C433.138 317.273 430.864 315.485 429.268 314.193C428.469 313.547 427.839 313.028 427.41 312.668C426.98 312.309 426.754 312.115 426.754 312.113C426.432 311.837 425.932 311.858 425.637 312.159C425.343 312.462 425.365 312.931 425.686 313.209Z" fill="#2A1E17"/>
<path fill-rule="evenodd" clip-rule="evenodd" d="M428.954 342.779C429.022 342.816 442.635 354.231 459.809 354.257C462.566 354.257 465.413 353.958 468.303 353.267C468.725 353.166 468.981 352.76 468.872 352.364C468.765 351.966 468.335 351.727 467.911 351.828C465.157 352.487 462.444 352.772 459.809 352.772C451.604 352.774 444.138 350.005 438.727 347.217C436.023 345.826 433.834 344.432 432.326 343.39C431.572 342.869 430.987 342.436 430.593 342.134C430.397 341.983 430.247 341.866 430.149 341.785L430.004 341.668C429.678 341.396 429.178 341.425 428.889 341.731C428.598 342.038 428.628 342.507 428.954 342.779Z" fill="#2A1E17"/>
<path fill-rule="evenodd" clip-rule="evenodd" d="M448.159 365.542C448.237 365.594 452.788 368.789 460.061 368.793C463.497 368.793 467.529 368.071 471.93 365.975C472.321 365.789 472.476 365.343 472.278 364.978C472.081 364.613 471.605 364.466 471.216 364.651C467.03 366.643 463.261 367.308 460.061 367.309C456.677 367.309 453.924 366.561 452.02 365.815C451.068 365.442 450.33 365.07 449.835 364.794C449.587 364.657 449.4 364.543 449.277 364.466L449.142 364.378L449.106 364.354C448.757 364.108 448.262 364.175 447.999 364.503C447.739 364.831 447.81 365.295 448.159 365.542Z" fill="#2A1E17"/>
<path fill-rule="evenodd" clip-rule="evenodd" d="M404.061 374.844C404.134 374.906 416.774 386.71 438.073 386.718C445.092 386.718 453.039 385.43 461.749 382.02C462.153 381.863 462.344 381.429 462.176 381.051C462.007 380.672 461.545 380.492 461.142 380.65C452.615 383.987 444.885 385.232 438.073 385.234C427.745 385.234 419.514 382.364 413.857 379.493C411.031 378.059 408.851 376.624 407.382 375.553C406.647 375.018 406.091 374.572 405.721 374.263C405.536 374.109 405.397 373.989 405.307 373.909L405.175 373.791C404.866 373.502 404.366 373.503 404.058 373.794C403.751 374.085 403.751 374.554 404.061 374.844Z" fill="#2A1E17"/>
<path fill-rule="evenodd" clip-rule="evenodd" d="M416.174 354.813C416.182 354.819 418.443 356.338 421.419 358.101C424.402 359.868 428.078 361.878 431.012 362.884C431.421 363.025 431.875 362.827 432.025 362.442C432.174 362.056 431.964 361.63 431.553 361.49C428.845 360.566 425.196 358.587 422.264 356.847C420.795 355.976 419.5 355.165 418.574 354.571C417.647 353.978 417.094 353.606 417.093 353.606C416.738 353.367 416.244 353.445 415.991 353.779C415.736 354.111 415.818 354.576 416.174 354.813Z" fill="#2A1E17"/>
<path fill-rule="evenodd" clip-rule="evenodd" d="M484.323 273.237L484.365 273.252C484.887 273.419 489.827 275.119 494.899 279.728C499.97 284.344 505.193 291.843 506.35 303.763C506.39 304.171 506.776 304.472 507.21 304.435C507.645 304.398 507.964 304.037 507.925 303.629C506.706 290.959 500.947 282.972 495.487 278.205C490.025 273.433 484.884 271.849 484.813 271.826C484.399 271.699 483.953 271.911 483.817 272.301C483.681 272.69 483.907 273.109 484.323 273.237Z" fill="#2A1E17"/>
<path fill-rule="evenodd" clip-rule="evenodd" d="M494.034 303.797L494.056 303.83C494.314 304.217 496.638 307.925 496.633 313.13C496.623 317.824 494.796 323.755 487.76 329.816C487.437 330.094 487.415 330.563 487.71 330.865C488.005 331.167 488.504 331.188 488.827 330.911C496.159 324.62 498.225 318.197 498.214 313.13C498.209 307.131 495.405 303.061 495.362 302.992C495.125 302.648 494.636 302.549 494.269 302.771C493.903 302.994 493.797 303.453 494.034 303.797Z" fill="#2A1E17"/>
<path fill-rule="evenodd" clip-rule="evenodd" d="M376.907 398.456C376.975 398.491 397.198 414.819 421.679 414.844C435.995 414.859 451.743 409.161 465.404 391.436C465.66 391.104 465.581 390.641 465.226 390.4C464.874 390.16 464.379 390.234 464.123 390.565C450.678 407.96 435.546 413.345 421.679 413.359C409.819 413.362 398.865 409.362 390.885 405.343C386.897 403.335 383.651 401.326 381.408 399.821C380.286 399.07 379.415 398.443 378.825 398.007C378.531 397.788 378.306 397.618 378.156 397.502C378.008 397.386 377.936 397.33 377.936 397.328C377.605 397.062 377.107 397.098 376.822 397.41C376.537 397.722 376.577 398.189 376.909 398.456" fill="#2A1E17"/>
<path fill-rule="evenodd" clip-rule="evenodd" d="M12.1093 243.627H23.9088C24.3451 243.627 24.6992 243.294 24.6992 242.885C24.6992 242.475 24.3451 242.143 23.9088 242.143H12.1093C11.673 242.143 11.3188 242.475 11.3188 242.885C11.3188 243.294 11.673 243.627 12.1093 243.627Z" fill="#FF6D66"/>
<path fill-rule="evenodd" clip-rule="evenodd" d="M669.352 110.369H681.152C681.588 110.369 681.942 110.037 681.942 109.627C681.942 109.216 681.588 108.885 681.152 108.885H669.352C668.916 108.885 668.562 109.216 668.562 109.627C668.562 110.037 668.916 110.369 669.352 110.369Z" fill="#FF6D66"/>
<path fill-rule="evenodd" clip-rule="evenodd" d="M352.952 34.3514H364.75V32.8672H352.952V34.3514Z" fill="#FAD8B0"/>
<path fill-rule="evenodd" clip-rule="evenodd" d="M691.737 167.822L703.35 169.781L703.63 168.319L692.017 166.361" fill="#FAD8B0"/>
<path fill-rule="evenodd" clip-rule="evenodd" d="M228.414 444.285H240.212C240.649 444.285 241.003 443.953 241.003 443.543C241.003 443.134 240.649 442.801 240.212 442.801H228.414C227.978 442.801 227.624 443.134 227.624 443.543C227.624 443.953 227.978 444.285 228.414 444.285Z" fill="#A0C6F4"/>
<path fill-rule="evenodd" clip-rule="evenodd" d="M721.206 305.432C721.206 307.46 719.456 309.104 717.298 309.104C715.139 309.104 713.387 307.46 713.387 305.432C713.387 303.404 715.139 301.759 717.298 301.759C719.456 301.759 721.206 303.404 721.206 305.432Z" fill="#91BA83"/>
<mask id="mask0" mask-type="alpha" maskUnits="userSpaceOnUse" x="692" y="340" width="81" height="203">
<path d="M692 340H772.179V542.92H692V340Z" fill="white"/>
</mask>
<g mask="url(#mask0)">
<path fill-rule="evenodd" clip-rule="evenodd" d="M759.694 531.579C757.511 530.932 756.3 528.743 756.992 526.692C757.682 524.644 760.012 523.508 762.195 524.155C764.377 524.806 765.587 526.994 764.897 529.042C764.206 531.093 761.876 532.23 759.694 531.579Z" fill="#2A1E17"/>
<path fill-rule="evenodd" clip-rule="evenodd" d="M998.842 395.253C998.858 395.21 1001.99 386.459 1002 375.892C1002 367.983 1000.23 359.011 993.957 351.98C987.681 344.945 976.931 339.991 959.336 340C942.026 340.003 918.037 344.755 884.831 357.005C820.008 380.923 771.83 416.059 739.845 449.187C723.851 465.751 711.906 481.813 703.948 495.735C695.995 509.665 692.009 521.426 692 529.54C692 532.288 692.46 534.632 693.431 536.505C694.395 538.377 695.908 539.771 697.89 540.506C702.502 542.225 707.499 542.92 712.578 542.92C724.036 542.917 735.937 539.391 744.998 535.882C754.058 532.369 760.272 528.861 760.294 528.848C760.669 528.637 760.789 528.181 760.565 527.83C760.34 527.479 759.855 527.365 759.48 527.576C759.48 527.576 759.389 527.628 759.205 527.729C757.83 528.483 751.393 531.919 742.685 535.159C733.98 538.401 722.996 541.438 712.578 541.435C707.652 541.437 702.856 540.76 698.474 539.127C696.867 538.523 695.685 537.451 694.852 535.855C694.022 534.261 693.579 532.133 693.581 529.54C693.571 521.869 697.452 510.226 705.342 496.437C729.001 455.03 788.544 394.121 885.408 358.387C918.501 346.174 942.326 341.482 959.336 341.485C976.631 341.493 986.812 346.302 992.756 352.934C998.684 359.572 1000.42 368.176 1000.42 375.892C1000.42 381.039 999.648 385.773 998.874 389.214C998.494 390.935 998.115 392.332 997.814 393.295C997.672 393.778 997.561 394.152 997.482 394.404C997.388 394.656 997.356 394.781 997.356 394.781C997.214 395.17 997.435 395.59 997.846 395.721C998.257 395.851 998.715 395.642 998.842 395.253Z" fill="#2A1E17"/>
</g>
</svg>
