<?xml version="1.0" encoding="utf-8"?>
<svg width="225px" height="201px" viewBox="0 0 225 201" version="1.1" xmlns:xlink="http://www.w3.org/1999/xlink" xmlns="http://www.w3.org/2000/svg">
  <g id="Icon">
    <g id="Share_Comment">
      <path d="M225 100.139C225 155.466 179.993 207.789 125.63 200.278C54.766 190.577 68.533 135.334 26.2591 100.139C-54.1688 33.2128 70.7481 0 125.63 0C180.51 0 225 44.8338 225 100.139L225 100.139Z" id="Path" fill="#FFFFFF" stroke="none" />
      <path d="M47.2966 64.056L69.6094 75.8359C70.1363 76.128 70.7908 76.0227 71.2029 75.5796C71.615 75.1364 71.6812 74.4669 71.3639 73.9494L65.1716 63.2595C64.8077 62.6276 65.0098 61.8161 65.6257 61.4359C72.7299 57.6124 78.4972 51.6533 82.1385 44.3738C87.4432 34.1031 91.8604 17.3345 75.8224 7.86027C67.566 2.95546 53.6746 0 40.2167 0C27.8322 0 15.5921 2.53625 8.49162 8.38429C-6.28729 20.5415 0.689346 47.0359 10.7828 58.69C15.3903 64.2037 22.2448 67.251 29.3596 66.9485C35.4269 66.6745 41.4442 65.7042 47.2966 64.056Z" transform="translate(93.00001 51.000008)" id="Path" fill="#F4CC6E" stroke="none" />
      <path d="M0.486232 7C0.320854 6.99893 0.167228 6.92412 0.0776502 6.80103C-0.067287 6.60096 -0.00354168 6.33488 0.220654 6.20413C6.94182 2.18863 17.5854 0 30.1901 0C37.0603 0.00147427 43.91 0.66253 50.6192 1.97158C50.8843 2.02652 51.049 2.26137 50.9869 2.49612C50.9249 2.73088 50.6596 2.87665 50.3945 2.82171C43.7348 1.5064 36.9317 0.845217 30.1084 0.850129C17.708 0.850129 7.24826 3.02067 0.670094 6.92765C0.613239 6.95977 0.551262 6.98416 0.486232 7Z" transform="translate(101.000015 52.000008)" id="Path" fill="#000000" stroke="none" />
      <path d="M12.3118 49.9999C12.011 50.0025 11.7143 49.931 11.4484 49.792L0.266973 44.0515C0.0227135 43.9148 -0.0699374 43.6128 0.0563996 43.3652C0.199723 43.143 0.484318 43.0551 0.730236 43.1572L11.9117 48.8976C12.2462 49.073 12.6581 49.0063 12.9184 48.7346C13.1787 48.463 13.2234 48.0531 13.0277 47.7329L6.71053 37.1256C6.20953 36.2561 6.49863 35.1508 7.36331 34.6297C20.0692 27.7191 28.2505 14.8072 28.9892 0.499167C28.9892 0.223485 29.2155 2.95566e-14 29.4946 0L29.4946 0C29.7737 0 30 0.223485 30 0.499167C29.2255 15.1117 20.8862 28.3002 7.93186 35.3993C7.5391 35.641 7.40908 36.1455 7.63706 36.5432L13.9543 47.1505C14.3765 47.8624 14.2644 48.7652 13.6805 49.3552C13.3417 49.7575 12.8416 49.9931 12.3118 49.9999Z" transform="translate(150.00002 77.00001)" id="Path" fill="#000000" stroke="none" />
      <path d="M53.866 0.00221587C52.9585 -0.0202054 52.1152 0.47269 51.6835 1.27789C51.2519 2.0831 51.3048 3.06442 51.8205 3.81768L54.8478 8.31374C52.4751 8.16938 50.2864 8.08688 48.3227 8.08688C46.032 8.06694 43.7425 8.20475 41.4704 8.49936L41.4704 8.49936C36.9283 9.03756 32.5282 10.4371 28.5021 12.6242L28.5021 12.6242C25.8399 14.0966 23.3377 15.8454 21.0361 17.8421L21.0361 17.8421C18.0451 20.4074 15.3671 23.3221 13.0587 26.5249L13.0587 26.5249C9.13138 31.5297 4.82906 40.3224 0.151733 52.9031C-0.287035 54.0988 0.255125 55.434 1.39947 55.9761L26.1293 67.7525C26.4538 67.9142 26.8106 67.9988 27.1725 68C27.5094 67.9913 27.842 67.9215 28.1543 67.7938C28.7893 67.5049 29.2727 66.9576 29.4839 66.2882C35.0067 48.4139 40.3317 37.1738 45.4591 32.5677L45.6636 32.3821C49.2273 28.9448 53.3874 26.1974 57.9365 24.2768L57.9365 24.2768L56.791 28.1542C56.4808 29.1456 56.8352 30.2259 57.6706 30.8353C58.0867 31.1409 58.5876 31.3069 59.1024 31.3097C59.5824 31.3059 60.0511 31.1627 60.4524 30.8972L86.9414 12.9336C87.7241 12.3929 88.124 11.443 87.9659 10.4997C87.8078 9.55649 87.1205 8.79182 86.205 8.54061L54.541 0.0847124C54.3221 0.0194353 54.094 -0.00844874 53.866 0.00221587Z" transform="translate(83.00001 70.00001)" id="Path" fill="#FFFFFF" stroke="none" />
      <path d="M27.988 69.9996C27.5573 69.9971 27.1327 69.897 26.7454 69.7067L1.68665 57.7625C0.312369 57.0853 -0.338573 55.4731 0.174837 54.0182C4.89665 41.2583 9.28711 32.1799 13.222 27.034C15.5903 23.7728 18.3289 20.8031 21.3816 18.1857C23.7776 16.1311 26.3806 14.3362 29.1477 12.8307C33.282 10.6096 37.7917 9.1906 42.4434 8.64713C46.644 8.16109 50.8807 8.07704 55.097 8.39611L52.5911 4.65179C51.8871 3.62649 51.8871 2.26746 52.5911 1.24216C53.3187 0.245189 54.5703 -0.209261 55.7597 0.0916736L87.7977 8.68896C88.9159 8.982 89.7607 9.90919 89.9571 11.0591C90.1535 12.2089 89.6652 13.3684 88.7089 14.023L61.9726 32.3054C60.9492 33.0142 59.5996 33.0142 58.5762 32.3054C57.5381 31.5521 57.0955 30.2111 57.4786 28.9794L58.3484 26.1136C54.1892 27.9497 50.388 30.5211 47.1238 33.7069L46.8752 33.9579C41.7807 38.4971 36.3961 49.9183 30.8459 67.9078C30.589 68.7243 30.0022 69.3929 29.2306 69.7485C28.8384 69.9193 28.415 70.0049 27.988 69.9996L27.988 69.9996ZM49.4433 9.21191C47.1451 9.18624 44.8479 9.31903 42.5676 9.60935C38.0274 10.1829 33.6318 11.6014 29.6033 13.793C26.9364 15.2524 24.4244 16.9837 22.1064 18.9597C19.0769 21.5185 16.3526 24.4248 13.9882 27.6197C10.0948 32.7028 5.70433 41.6975 1.06535 54.3738C0.710083 55.3325 1.14247 56.4062 2.05942 56.8422L27.1182 68.8072C27.6404 69.034 28.232 69.034 28.7542 68.8072C29.2608 68.5665 29.6493 68.1288 29.8312 67.594C35.4228 49.4163 40.9109 37.8486 46.1297 33.1839L46.2954 33.0166C49.9603 29.4655 54.2431 26.6288 58.9283 24.6494C59.096 24.5564 59.2991 24.5564 59.4668 24.6494C59.6079 24.7827 59.6638 24.9844 59.6117 25.1723L58.4106 29.1467C58.2318 29.9226 58.5048 30.7336 59.1147 31.2385C59.801 31.6892 60.6857 31.6892 61.3721 31.2385L88.1704 13.2282C88.7822 12.7754 89.1 12.0211 88.9988 11.2619C88.8738 10.4984 88.3127 9.88236 87.5698 9.69303L55.5112 1.0539C54.7309 0.887637 53.9255 1.18866 53.4402 1.82787C53.003 2.51617 53.003 3.3987 53.4402 4.08701L56.526 8.64713C56.6185 8.80893 56.6185 9.00828 56.526 9.17008C56.4335 9.34484 56.2445 9.44448 56.0497 9.42109C53.6473 9.27467 51.4314 9.21191 49.4433 9.21191Z" transform="translate(80.00001 63.000008)" id="Shape" fill="#000000" stroke="none" />
      <path d="M18.792 0C18.792 0 -4.90322 11.9927 0.92141 18.1745C2.23758 19.4409 4.03461 20.0995 5.86922 19.9878C9.38185 19.6064 12.8678 19.0146 16.3076 18.2157C21.7565 17.5357 28.4371 18.1126 32.2575 14.2387C36.8296 9.58178 18.792 0 18.792 0Z" transform="translate(186.00002 33.000004)" id="Path" fill="#EAC97D" stroke="none" />
      <path d="M15.0993 2.74846C11.4044 1.29821 7.5156 0.372638 3.55156 0C1.61594 0 0.186215 0.515336 0.0322448 1.99693C-0.583636 8.00919 7.75275 13.6994 13.9336 14L13.9336 14C17.7608 14.0214 15.0993 2.74846 15.0993 2.74846Z" transform="translate(186.00002 70.00001)" id="Path" fill="#EAC97D" stroke="none" />
      <path d="M4.59376 0.466216C4.59376 0.466216 -3.75274 16.8649 2.05529 18L2.76606 18C5.89346 18 8.28978 13.9459 10.7064 11.7365C13.4683 9.14189 17.4486 6.75 17.9766 3C18.3421 0.567568 14.3618 0 10.6455 0C8.62063 0.0326792 6.59965 0.188373 4.59376 0.466216Z" transform="translate(166.00002 20.000002)" id="Path" fill="#EAC97D" stroke="none" />
      <path d="M3.41676 19.9757C3.13425 20.0081 2.84913 20.0081 2.56663 19.9757C1.63246 19.8381 0.831039 19.2187 0.44129 18.3329C-1.68405 13.7331 4.54319 0.809765 4.81948 0.28407C4.87833 0.158923 4.98477 0.064415 5.11356 0.0229336C5.24236 -0.0185477 5.38207 -0.00331256 5.49959 0.0650303C5.75126 0.19268 5.8557 0.505809 5.73338 0.765957C3.94809 4.35821 -0.281324 14.434 1.35518 17.8729C1.59828 18.4488 2.11256 18.8546 2.7154 18.9462C5.11703 19.4719 7.24236 17.0187 9.24018 14.5654C9.96279 13.7331 10.6216 12.9446 11.3655 12.3751C12.1094 11.8055 12.747 11.1046 13.4909 10.4913L15.1486 9.02375C15.2407 8.92606 15.3672 8.87093 15.4993 8.87093C15.6314 8.87093 15.7579 8.92606 15.85 9.02375C15.946 9.12239 16 9.25638 16 9.39611C16 9.53585 15.946 9.66984 15.85 9.76848C15.3186 10.2723 14.7448 10.7542 14.1922 11.236C13.6396 11.7179 12.7682 12.4846 12.0669 13.0979C11.3655 13.7112 10.7492 14.4997 10.0478 15.2883C8.0925 17.5882 6.03092 19.9757 3.41676 19.9757Z" transform="translate(165.00002 17.000002)" id="Path" fill="#000000" stroke="none" />
      <path d="M6.53469 21.9901C4.49318 22.0985 2.50465 21.3153 1.08077 19.842C0.202665 18.9413 -0.17385 17.6621 0.0755394 16.4267C1.27326 9.57451 18.79 0.488379 19.5385 0.101735C19.7012 -0.0196634 19.9198 -0.0335714 20.0964 0.0662367C20.273 0.166045 20.3747 0.360882 20.3558 0.563538C20.3369 0.766193 20.2011 0.938724 20.0091 1.0039C19.838 1.0039 2.19294 10.2619 1.08077 16.5985C0.894956 17.5159 1.17555 18.466 1.82935 19.1332C3.07049 20.3739 4.78875 21.0093 6.53469 20.8731C8.70272 20.7626 10.8533 20.4242 12.9511 19.8635C14.4268 19.5198 15.817 19.1976 17.2286 19.0258C18.6403 18.854 19.838 18.7895 21.1426 18.6821C22.4473 18.5747 24.0514 18.4888 25.4202 18.2955C25.5542 18.2708 25.6923 18.303 25.8018 18.3844C25.9112 18.4658 25.9822 18.5892 25.9977 18.7251C26.0237 19.0071 25.8271 19.2609 25.5485 19.305C24.0942 19.4984 22.597 19.6058 21.1426 19.7132C19.6883 19.8206 18.5333 19.9065 17.2928 20.0568C16.0523 20.2072 14.6407 20.5294 13.1863 20.8516C11.0172 21.4743 8.78669 21.856 6.53469 21.9901Z" transform="translate(186.00002 28.000004)" id="Path" fill="#000000" stroke="none" />
      <path d="M9.5055 12.95C9.44172 12.9685 9.37333 12.9685 9.30955 12.95C4.49809 11.1 -0.465767 6.91738 0.0349737 2.29239C0.165602 1.24674 0.949369 0 4.0409 0C8.03178 0.339914 11.948 1.21372 15.6668 2.59402C15.9294 2.69611 16.0623 2.96794 15.9716 3.21738C15.8989 3.44396 15.6594 3.58864 15.4055 3.55923C11.8009 2.23117 8.01178 1.37824 4.14975 1.02554C1.34125 1.02554 1.2324 2.11141 1.18885 2.45326C0.753427 6.47499 5.19478 10.3358 9.89738 12.1255C10.0236 12.174 10.1229 12.2679 10.1722 12.3856C10.2215 12.5034 10.2166 12.6346 10.1586 12.7489C10.1025 12.857 10.0013 12.9394 9.87821 12.9773C9.7551 13.0152 9.6206 13.0053 9.5055 12.95L9.5055 12.95Z" transform="translate(186.00002 67.00001)" id="Path" fill="#000000" stroke="none" />
      <path d="M128 19.0689L123.424 26.0987C114.294 39.9108 105.184 52.3417 95.9093 55.537C94.2178 56.1163 92.4415 56.4089 90.6536 56.4028C81.5437 56.4028 72.269 48.9402 63.0354 41.5188C56.4813 59.0416 49.9271 76.5644 35.4172 77.9662C34.731 78.0113 34.0425 78.0113 33.3562 77.9662C25.7303 77.9662 16.4555 74.0493 9.63339 67.9267C3.45021 62.4843 -0.67191 55.2896 0.0906815 47.6414C1.73953 30.6958 27.544 11.4826 42.1981 3.93748C45.9678 1.7028 50.1969 0.356249 54.5645 0C59.7377 0 62.3347 3.46333 65.6118 8.41095C70.785 16.2653 77.6071 27.7479 84.1613 32.6749C86.4817 34.6067 89.3873 35.6965 92.4055 35.7672C96.1333 35.5175 99.7105 34.2008 102.711 31.974C108.894 27.851 114.83 21.5015 120.828 15.1108L128 19.0689Z" transform="translate(7.000001 106.000015)" id="Path" fill="#63B8C4" stroke="none" />
      <g id="Group" transform="translate(17.000002 131.00002)">
        <path d="M113.655 0C104.535 13.9908 95.4361 26.5825 86.1725 29.8192C84.483 30.406 82.7088 30.7024 80.9231 30.6963C71.8241 30.6963 62.5605 23.137 53.338 15.6196C46.7917 33.3691 40.2454 51.1187 25.7529 52.5386C25.0675 52.5843 24.3798 52.5843 23.6943 52.5386C16.0776 52.5386 6.81393 48.5711 0 42.3692C2.71734 36.8564 12.9279 42.3692 14.1013 39.8425C15.2747 37.3158 13.1544 33.3691 23.6943 27.5849C34.2343 21.8006 47.3887 30.5292 47.1417 12.9676C46.8946 -4.594 57.4346 -2.71463 62.3958 9.56387C64.1674 14.6917 68.1039 18.7491 73.1302 20.6277C78.1564 22.5063 83.7472 22.0098 88.3752 19.2739C97.4947 14.5129 102.106 3.9049 113.655 0Z" transform="translate(0.036597114 0.14617264)" id="Path" fill="#3EABBA" stroke="none" />
      </g>
      <path d="M0.83277 9.92215C0.939599 8.06544 1.39591 6.24857 2.17584 4.5745C3.12413 2.8002 4.56403 1.36344 6.30836 0.451007C6.9618 0.160637 7.66401 0.00736457 8.37462 0C9.20113 0 9.77968 0.300671 9.80034 0.880537C9.80034 1.88993 8.14733 3.75839 6.47366 5.60537L12.8997 4.72483C13.1535 6.36802 12.923 8.05255 12.2385 9.55705C11.1079 11.2243 9.71007 12.6772 8.10601 13.8523C7.67209 14.9477 7.21752 16 6.03975 16L5.52318 16C3.5629 15.264 1.81901 14.0137 0.460843 12.3705C-0.468974 11.1248 0.192229 10.5235 0.83277 9.92215Z" transform="translate(127.000015 111.000015)" id="Path" fill="#FFFFFF" stroke="none" />
      <path d="M27.0215 67.5675C24.1147 56.5965 21.2288 45.6254 24.3866 35.7366C28.0104 26.1671 35.1777 18.4144 44.3578 14.1341C46.8568 13.0218 49.5548 12.444 52.2835 12.4364C56.2648 12.6378 60.1829 13.5277 63.8689 15.0678L71 6.1339C61.6731 3.07813 52.3463 0.00114738 43.3331 0.00114738C40.0219 -0.0262879 36.7246 0.438421 33.5462 1.38049C21.6052 5.05165 10.5427 16.5532 5.02183 29.7949C-0.499011 43.0365 -0.143502 58.0183 0.128357 73L27.0215 67.5675Z" transform="translate(40.000004 42.000004)" id="Path" fill="#63B8C4" stroke="none" />
      <path d="M5.97652 8.4316C6.46745 11.0776 6.93703 13.7236 5.97652 14L5.97652 14C4.99466 14 2.94557 12.0254 1.70758 10.9196C1.04925 10.3318 0.475348 9.66819 0 8.94499L5.22946 0C8.12637 0.208587 10.9896 0.711859 13.7673 1.50071C16.0234 2.33425 18.126 3.48666 20 4.91679C16.7129 5.46968 13.4258 6.02257 11.0993 6.61495C9.32426 7.04323 7.60616 7.65252 5.97652 8.4316Z" transform="translate(103.000015 47.000004)" id="Path" fill="#FFFFFF" stroke="none" />
      <path d="M12.4474 0L20 8.91666C17.7795 9.99503 15.9121 11.687 14.6172 13.7936C13.2194 16.2635 12.5309 20.0729 10.2776 21.3916C9.59335 21.8086 8.80392 22.0193 8.00353 21.9986C5.93301 21.9299 3.96517 21.0774 2.49558 19.6125C0.409241 17.3938 -0.63393 14.0238 0.409241 12.161C1.45241 10.2981 4.35243 10.0679 6.66827 8.24686C9.13615 5.923 11.103 3.11628 12.4474 0L12.4474 0Z" transform="translate(64.00001 99.000015)" id="Path" fill="#FFFFFF" stroke="none" />
      <path d="M0 15.8624C5.89622 21.4205 11.7924 26.9994 16.0672 26.9994C16.7098 27.0106 17.3457 26.8677 17.9203 26.5831C22.1319 24.5014 24.0481 13.7599 22.4267 7.84794C20.8052 1.93596 15.7303 0.999207 10.6553 0L0 15.8624Z" transform="translate(68.00001 84.00001)" id="Path" fill="#FFFFFF" stroke="none" />
      <path d="M6.61283 17L5.96781 17C3.89157 16.2201 2.04347 14.9047 0.599559 13.1793C0.173284 12.7677 -0.0450745 12.1762 0.00778664 11.5764C0.0606478 10.9765 0.378816 10.4354 0.870053 10.1098C0.987939 8.25762 1.46183 6.4481 2.26413 4.78662C3.30032 2.91426 4.86926 1.41564 6.75848 0.493687C7.41557 0.194932 8.12161 0.0274111 8.8392 0C10.2333 0 10.7535 0.729798 10.7743 1.3952C10.7951 2.06061 9.83794 3.54167 8.21498 5.40909L13.3336 4.74369C13.4513 4.68246 13.5903 4.68246 13.7081 4.74369C13.8134 4.83615 13.8804 4.96673 13.8953 5.10859C14.157 6.81394 13.9254 8.56104 13.2295 10.1313C12.0616 11.8821 10.6119 13.4139 8.94324 14.6604C8.69355 15.7121 8.04853 17 6.61283 17ZM8.94324 0.901515C8.32718 0.919907 7.72005 1.05828 7.15382 1.30934C5.45595 2.152 4.05299 3.5168 3.13803 5.21591C2.37999 6.82741 1.9414 8.5788 1.84799 10.3674C1.83656 10.4934 1.7766 10.6094 1.68153 10.6894L1.68153 10.6894C1.0157 11.2904 0.724402 11.5694 1.39023 12.471C2.68941 14.0167 4.34126 15.2044 6.19669 15.9268C7.21624 16.1843 7.63238 15.4545 8.27741 14.1237C8.29428 14.0456 8.33879 13.9767 8.40225 13.9306C10.0162 12.7544 11.4236 11.3026 12.5637 9.63763C13.1059 8.38591 13.2725 6.99546 13.0423 5.6452L7.11221 6.43939C6.90431 6.4697 6.69914 6.36811 6.59203 6.18182C6.50959 6.01104 6.51744 5.80865 6.61283 5.6452C8.04853 4.07828 9.83794 2.10354 9.83794 1.35227C9.87956 0.987374 9.31777 0.901515 8.96404 0.901515L8.94324 0.901515Z" transform="translate(126.000015 111.000015)" id="Shape" fill="#000000" stroke="none" />
      <path d="M6.17403 16C5.62375 16 4.58433 15.6413 1.79217 12.5393C1.11118 11.8864 0.527391 11.1326 0.0598098 10.3025C-0.0199366 10.1512 -0.0199366 9.96837 0.0598098 9.81712L5.05309 0.279017C5.14045 0.0864624 5.33873 -0.0247444 5.54223 0.00469069C8.30699 0.250145 11.0393 0.794733 13.6945 1.62954C15.9012 2.55171 17.9621 3.81068 19.8087 5.3646C19.955 5.49498 20.0246 5.69516 19.9922 5.89215C19.9425 6.08419 19.7928 6.23103 19.6049 6.27198C16.5274 6.84174 13.348 7.4537 11.1469 8.06565C9.62297 8.48393 8.14703 9.07115 6.74469 9.81712C7.33573 13.4678 7.5803 15.5569 6.43898 15.9367C6.35459 15.9726 6.26509 15.994 6.17403 16L6.17403 16ZM1.07885 10.0492C1.50492 10.6941 1.98212 11.3011 2.5055 11.864C5.19575 14.8394 6.03136 14.9871 6.17403 14.9871C6.60202 14.6073 6.17403 11.4842 5.78679 9.6061C5.74906 9.3882 5.84673 9.16909 6.03136 9.05745C7.59564 8.2222 9.24243 7.56423 10.9431 7.09496C12.9812 6.52521 15.6307 5.99766 18.3821 5.49121C16.884 4.27663 15.2224 3.29554 13.4499 2.57913C10.9616 1.79354 8.39959 1.28423 5.80717 1.05979L1.07885 10.0492Z" transform="translate(102.000015 47.000004)" id="Shape" fill="#000000" stroke="none" />
      <path d="M8.3639 36.9988C6.19086 36.9072 4.13551 35.97 2.6228 34.3809C0.314094 32.0539 -0.646163 28.4595 0.457111 26.4026C1.30536 25.2288 2.50115 24.3623 3.86909 23.9302C4.89736 23.5207 5.87183 22.9833 6.77029 22.3304C7.48118 21.7562 8.13164 21.1087 8.71123 20.3982L6.21865 18.0088L4.78848 16.6168C4.63385 16.4309 4.63385 16.1586 4.78848 15.9727L15.1266 0.223939C15.2231 0.047745 15.4259 -0.0381635 15.6169 0.016172C20.6225 1.01346 25.8324 2.09385 27.426 8.20221C28.9583 13.9366 27.426 25.0521 22.7882 27.3999C21.072 28.2725 19.2741 28.0024 16.6589 26.652C16.1121 27.2342 15.6386 27.8832 15.2492 28.5842C14.7913 29.4433 14.3887 30.3316 14.0437 31.2436C13.4964 33.2162 12.3874 34.98 10.8565 36.3131C10.108 36.7813 9.2424 37.0194 8.3639 36.9988L8.3639 36.9988ZM5.70788 16.1805L6.85201 17.2816C7.79184 18.1958 8.73166 19.11 9.67149 19.9826C9.84089 20.1787 9.84089 20.4722 9.67149 20.6683C8.29232 22.5753 6.38625 24.0218 4.19598 24.8236C3.0263 25.1991 1.99431 25.9229 1.23349 26.9013C0.354956 28.5426 1.23349 31.7215 3.27659 33.6953C4.60608 35.096 6.41092 35.9282 8.32304 36.0223C9.04003 36.0629 9.75233 35.8819 10.3661 35.5028C11.7042 34.2574 12.6796 32.6618 13.1856 30.8904C13.5437 29.9436 13.9599 29.0207 14.4319 28.1271C14.9233 27.2232 15.5506 26.403 16.2911 25.6962C16.4572 25.5569 16.6971 25.5569 16.8632 25.6962C19.2128 27.0052 20.8268 27.3584 22.2978 26.5896L22.2978 26.5896C26.098 24.6782 27.9777 14.3521 26.384 8.55541C24.9334 3.11191 20.4386 2.09385 15.6578 1.13812L5.70788 16.1805Z" transform="translate(63.000008 84.00001)" id="Shape" fill="#000000" stroke="none" />
      <path d="M16.5529 15.5087C18.0423 17.2319 19.5528 18.9551 21.7135 18.9551C22.2357 18.9511 22.7535 18.8598 23.2449 18.6852C27.1737 17.0851 30.0589 13.6788 30.9649 9.571C31.3845 5.60562 27.965 1.80632 24.8183 0.51913C23.9595 0.171545 23.0399 -0.00483756 22.1121 0.000100904C19.9749 0.159086 17.8951 0.760281 16.0075 1.7648C14.404 1.51046 12.785 1.36479 11.1615 1.32882C9.43525 1.24017 7.72275 1.67473 6.25259 2.57449C3.79235 4.77143 2.23226 7.78546 1.86814 11.045C1.53964 13.033 1.84772 15.0729 2.74923 16.8789C1.19684 18.0416 -0.334567 19.1834 0.0640191 21.7578C0.673416 25.1585 2.88714 28.0667 6.02183 29.5848C6.7739 29.8601 7.56951 30.0007 8.37139 30C11.1659 29.9694 13.7774 28.6193 15.3991 26.3668C17.3291 23.564 16.9305 19.5364 16.5529 15.5087Z" transform="translate(66.00001 80.00001)" id="Path" fill="#000000" stroke="none" />
      <path d="M0.501673 36.9996C0.370701 37.0051 0.243091 36.9583 0.148442 36.87C0.0537926 36.7818 0.000329326 36.6597 0.000453295 36.5321C-0.00520242 36.4027 0.0422527 36.2764 0.132357 36.1811C0.222461 36.0857 0.347817 36.0292 0.480789 36.0239C15.0997 35.5564 22.5553 22.0197 30.011 0.332488C30.1032 0.0743032 30.3931 -0.0621969 30.6584 0.0276065C30.9237 0.11741 31.0639 0.39951 30.9716 0.657695C23.3489 22.7311 15.6218 36.5117 0.522557 36.9996L0.501673 36.9996Z" transform="translate(40.000004 147.00002)" id="Path" fill="#000000" stroke="none" />
      <path d="M0.846614 70C0.572921 70.0003 0.347791 69.7864 0.336387 69.5153C-0.428953 55.0169 -2.49112 16.4738 29.1855 0.0998083C29.3471 -0.0192909 29.5644 -0.0329355 29.74 0.064982C29.9155 0.1629 30.0165 0.354046 29.9978 0.552863C29.979 0.75168 29.844 0.920943 29.6532 0.984888C-1.44941 17.0638 0.591501 55.1433 1.35684 69.4732C1.3626 69.6073 1.31429 69.7383 1.22257 69.8371C1.13084 69.9359 1.00323 69.9945 0.867873 70L0.846614 70Z" transform="translate(40.000004 45.000004)" id="Path" fill="#000000" stroke="none" />
    </g>
  </g>
</svg>