<?xml version="1.0" encoding="utf-8"?>
<svg width="83px" height="98px" viewBox="0 0 83 98" version="1.1" xmlns:xlink="http://www.w3.org/1999/xlink" xmlns="http://www.w3.org/2000/svg">
  <g id="Group-17">
    <path d="M0 97L74.0913 97L74.0913 0L0 0L0 97Z" transform="translate(3.003662 0)" id="Fill-47" fill="#FFFFFF" fill-rule="evenodd" stroke="none" />
    <g id="Group-16">
      <path d="M81.5294 97.4322L81.5294 96.8643L1.14376 96.8643L1.14376 1.13341L80.9575 1.13341L80.9575 97.4322L81.5294 97.4322L81.5294 96.8643L81.5294 97.4322L82.1012 97.4322L82.1012 0L0 0L0 98L82.1012 98L82.1012 97.4322L81.5294 97.4322" id="Fill-48" fill="#150A0A" fill-rule="evenodd" stroke="none" />
      <path d="M15.0185 7.5C15.0185 11.643 11.6574 15 7.50926 15C3.36368 15 0 11.643 0 7.5C0 3.35953 3.36368 0 7.50926 0C11.6574 0 15.0185 3.35953 15.0185 7.5" transform="translate(9.010986 9)" id="Fill-58" fill="#E2E6E7" fill-rule="evenodd" stroke="none" />
      <path d="M15.0185 7.5C15.0185 11.643 11.6574 15 7.50926 15C3.36368 15 0 11.643 0 7.5C0 3.35953 3.36368 0 7.50926 0C11.6574 0 15.0185 3.35953 15.0185 7.5" transform="translate(9.010986 26)" id="Fill-59" fill="#E2E6E7" fill-rule="evenodd" stroke="none" />
      <path d="M0 1.5L55.0679 1.5L55.0679 0.5L0 0.5L0 1.5Z" transform="translate(13.015991 48)" id="Fill-71" fill="#150A0A" fill-rule="evenodd" stroke="none" />
      <path d="M0 1.5L32.0395 1.5L32.0395 0.5L0 0.5L0 1.5Z" transform="translate(12.0147705 63)" id="Fill-72" fill="#150A0A" fill-rule="evenodd" stroke="none" />
    </g>
  </g>
</svg>