<?xml version="1.0" encoding="utf-8"?>
<svg width="551px" height="550px" viewBox="0 0 551 550" version="1.1" xmlns:xlink="http://www.w3.org/1999/xlink" xmlns="http://www.w3.org/2000/svg">
  <g id="Bg-Elements" transform="translate(0.5 0.5)">
    <g id="background" transform="translate(0 12)">
      <g id="background_1_">
        <path d="M5.5 10.9712C2.45882 10.9712 0 8.5188 0 5.48559C0 2.45238 2.45882 0 5.5 0C8.54118 0 11 2.45238 11 5.48559C11 8.5188 8.54118 10.9712 5.5 10.9712ZM5.5 1.03258C3.04118 1.03258 0.970588 3.03321 0.970588 5.55013C0.970588 8.06704 2.97647 10.0677 5.5 10.0677C8.02353 10.0677 10.0294 8.06704 10.0294 5.55013C10.0294 3.03321 7.95882 1.03258 5.5 1.03258Z" transform="translate(12.941176 487.5075)" id="Shape" fill="#000000" stroke="none" />
        <path d="M5.34785 10.6771C4.8302 10.6771 4.31256 10.6126 3.79491 10.4189C2.43608 10.0317 1.33608 9.06368 0.62432 7.83749C-0.0874445 6.6113 -0.15215 5.12696 0.236085 3.7717C1.07726 0.996639 4.05373 -0.61677 6.90079 0.222203C8.25961 0.609421 9.35961 1.57747 10.0714 2.80366C10.7831 4.02985 10.8478 5.51418 10.4596 6.86945L10.4596 6.86945C10.0714 8.22471 9.10079 9.32183 7.87138 10.0317C7.09491 10.4835 6.25373 10.6771 5.34785 10.6771ZM5.34785 1.06118C3.47138 1.06118 1.78903 2.28737 1.20667 4.15892C0.883144 5.25604 0.94785 6.41769 1.5302 7.45027C2.04785 8.48285 3.01844 9.19275 4.11844 9.57997C5.21844 9.90265 6.38314 9.83812 7.41844 9.25729C8.45373 8.67646 9.1655 7.77295 9.55373 6.67584L9.55373 6.67584C9.87726 5.57872 9.81256 4.41706 9.2302 3.38448C8.71256 2.3519 7.74197 1.642 6.64197 1.25478C6.18903 1.12571 5.80079 1.06118 5.34785 1.06118Z" transform="translate(82.71686 156.73018)" id="Shape" fill="#000000" stroke="none" />
        <path d="M7.89412 15.7469C12.2539 15.7469 15.7882 12.2218 15.7882 7.87343C15.7882 3.52506 12.2539 0 7.89412 0C3.53432 0 0 3.52506 0 7.87343C0 12.2218 3.53432 15.7469 7.89412 15.7469Z" transform="translate(381.44116 461.0476)" id="Oval" fill="#9050A6" stroke="none" />
        <path d="M6.40588 12.7782C9.94375 12.7782 12.8118 9.9177 12.8118 6.3891C12.8118 2.8605 9.94375 0 6.40588 0C2.86801 0 0 2.8605 0 6.3891C0 9.9177 2.86801 12.7782 6.40588 12.7782Z" transform="translate(4.7235293 346.6247)" id="Oval" fill="#9048FF" stroke="none" />
        <path d="M2.73333 5.43669C2.21568 5.43669 1.63333 5.24309 1.18039 4.98494C-0.0490234 4.14597 -0.372553 2.46802 0.468624 1.1773C1.3098 -0.048895 2.99215 -0.371577 4.28627 0.467396C4.86862 0.854614 5.32156 1.49998 5.45098 2.20988C5.58039 2.91978 5.45098 3.62968 4.99804 4.27504C4.6098 4.85587 3.96274 5.30762 3.25098 5.43669C3.05686 5.43669 2.86274 5.43669 2.73333 5.43669ZM2.73333 0.91915C2.15098 0.91915 1.63333 1.1773 1.3098 1.69359C0.792153 2.46802 0.986271 3.56514 1.76274 4.14597C2.15098 4.40411 2.60392 4.53319 3.05686 4.40411C3.5098 4.33958 3.89804 4.08143 4.15686 3.69421C4.41568 3.30699 4.54509 2.85524 4.41568 2.40349C4.35098 1.95173 4.09215 1.56451 3.70392 1.30637C3.44509 1.04822 3.05686 0.91915 2.73333 0.91915Z" transform="translate(487.67255 37.67358)" id="Shape" fill="#000000" stroke="none" />
        <path d="M2.76521 5.43669C2.24756 5.43669 1.66521 5.24309 1.21227 4.98494C0.629916 4.59772 0.176975 3.95236 0.047563 3.24246C-0.0818487 2.53256 0.047563 1.82266 0.500504 1.1773C1.34168 -0.048895 3.02403 -0.371577 4.31815 0.467396C5.54756 1.30637 5.87109 2.98431 5.02992 4.27504L5.02992 4.27504C4.64168 4.85587 3.99462 5.30762 3.28286 5.43669C3.08874 5.43669 2.89462 5.43669 2.76521 5.43669ZM2.76521 0.983686C2.18286 0.983686 1.66521 1.24183 1.34168 1.75812C1.08286 2.14534 0.953445 2.5971 1.08286 3.04885C1.14756 3.5006 1.40639 3.88782 1.79462 4.14597C2.18286 4.40411 2.6358 4.53319 3.08874 4.40411C3.54168 4.33958 3.92992 4.08143 4.18874 3.69421L4.18874 3.69421C4.70639 2.91978 4.51227 1.82266 3.7358 1.24183C3.41227 1.11276 3.08874 0.983686 2.76521 0.983686Z" transform="translate(532.02893 490.26694)" id="Shape" fill="#000000" stroke="none" />
        <path d="M3.79994 7.62336C3.02347 7.62336 2.31171 7.36521 1.66465 6.97799C-0.0824101 5.81634 -0.535351 3.42849 0.694061 1.68601C1.27641 0.84704 2.11759 0.266212 3.15288 0.0726034C4.12347 -0.121006 5.15877 0.0726034 5.99994 0.65343C7.747 1.81508 8.19994 4.20293 6.97053 5.94541L6.97053 5.94541C6.38818 6.78438 5.547 7.36521 4.51171 7.55882C4.25288 7.62336 3.99406 7.62336 3.79994 7.62336ZM3.79994 1.04065C3.60583 1.04065 3.47641 1.04065 3.2823 1.10518C2.50583 1.23426 1.85877 1.68601 1.47053 2.26684C0.564649 3.55757 0.888178 5.30005 2.1823 6.20356C2.82935 6.65531 3.54112 6.78438 4.31759 6.65531C5.09406 6.52624 5.74112 6.07448 6.12935 5.49366L6.12935 5.49366C7.03524 4.20293 6.71171 2.46045 5.41759 1.55694C4.89994 1.16972 4.3823 1.04065 3.79994 1.04065Z" transform="translate(448.04123 275.43304)" id="Shape" fill="#000000" stroke="none" />
        <path d="M9.44706 18.8607C9.31765 18.8607 9.18824 18.7962 9.12353 18.7317L0.129412 9.76112C0.0647059 9.69659 0 9.56751 0 9.43844C0 9.30937 0.0647059 9.18029 0.129412 9.11576L9.12353 0.145207C9.31765 -0.0484023 9.64118 -0.0484023 9.83529 0.145207L18.7647 9.11576C18.8294 9.18029 18.8941 9.30937 18.8941 9.43844C18.8941 9.56751 18.8294 9.69659 18.7647 9.76112L9.77059 18.7317C9.70588 18.8607 9.57647 18.8607 9.44706 18.8607ZM1.16471 9.43844L9.44706 17.6991L17.7294 9.43844L9.44706 1.17779L1.16471 9.43844Z" transform="translate(0 48.902412)" id="Shape" fill="#000000" stroke="none" />
        <path d="M10.2235 11.552C10.2235 11.552 10.1588 11.552 10.2235 11.552L0.452941 10.6485C0.323529 10.6485 0.194118 10.584 0.129412 10.4549C0.0647059 10.3258 0 10.1967 0 10.1322L0.905882 0.451754C0.905882 0.193609 1.16471 0 1.42353 0L11.1294 0.903509C11.3882 0.903509 11.5824 1.16165 11.5824 1.4198L10.6765 11.1003C10.6765 11.3584 10.4824 11.552 10.2235 11.552ZM1.03529 9.74499L9.77059 10.5194L10.5471 1.80702L1.81176 1.03258L1.03529 9.74499Z" transform="translate(70.91765 429.68295)" id="Shape" fill="#000000" stroke="none" />
        <path d="M-1.71862e-12 8.58538e-13L7.57034 0.0034726L7.57382 7.55523L0.0034726 7.55176L-1.71862e-12 8.58538e-13Z" transform="matrix(0.9840502 -0.177891 0.177891 0.9840502 525.53546 87.65447)" id="Rectangle" fill="#FFCC62" stroke="none" />
        <path d="M5.78563 13.3199C5.78563 13.3199 5.72092 13.3199 5.72092 13.3199C5.59151 13.3199 5.4621 13.2554 5.39739 13.1263L0.0915079 6.09184C0.0268021 5.96276 -0.0379038 5.83369 0.0268021 5.70462C0.0268021 5.57554 0.0915079 5.44647 0.22092 5.38194L7.27386 0.0899557C7.46798 -0.039117 7.79151 -0.039117 7.92092 0.154492L13.2915 7.25349C13.4209 7.4471 13.4209 7.76978 13.2268 7.89885L6.17386 13.1908C6.04445 13.3199 5.91504 13.3199 5.78563 13.3199ZM1.19151 5.89823L5.91504 12.1583L12.1915 7.4471L7.46798 1.18707L1.19151 5.89823Z" transform="translate(337.41437 356.08612)" id="Shape" fill="#000000" stroke="none" />
        <path d="M0.505443 13.2178C0.376031 13.2178 0.311325 13.1532 0.181913 13.0887C-0.0122043 12.8951 -0.0769102 12.637 0.117207 12.3788L9.8878 0.181437C10.0819 -0.0121723 10.3407 -0.0767086 10.5996 0.1169C10.7937 0.310509 10.8584 0.568655 10.6643 0.8268L0.893678 13.0242C0.828972 13.1532 0.634855 13.2178 0.505443 13.2178Z" transform="translate(529.37103 289.90942)" id="Path" fill="#000000" stroke="none" />
        <path d="M0.505443 13.2178C0.376031 13.2178 0.311325 13.1532 0.181913 13.0887C-0.0122043 12.8951 -0.0769102 12.637 0.117207 12.3788L9.8878 0.181437C10.0819 -0.0121723 10.3407 -0.0767086 10.5996 0.1169C10.7937 0.310509 10.8584 0.568655 10.6643 0.8268L0.893678 13.0242C0.828972 13.1532 0.69956 13.2178 0.505443 13.2178Z" transform="translate(539.1416 0.334854)" id="Path" fill="#000000" stroke="none" />
        <path d="M0.47324 9.89431C0.343828 9.89431 0.149711 9.82977 0.0850047 9.7007C-0.0444071 9.50709 -0.0444071 9.18441 0.214416 9.05533L13.0909 0.0847819C13.285 -0.0442907 13.6085 -0.0442907 13.7379 0.213855C13.8674 0.407464 13.8674 0.730145 13.6085 0.859218L0.732063 9.82977C0.667358 9.82977 0.602652 9.89431 0.47324 9.89431Z" transform="translate(519.8915 413.52863)" id="Path" fill="#000000" stroke="none" />
        <path d="M0.47324 9.89431C0.343828 9.89431 0.149711 9.82977 0.0850047 9.7007C-0.0444071 9.50709 -0.0444071 9.18441 0.214416 9.05533L13.0262 0.0847819C13.2203 -0.0442907 13.5438 -0.0442907 13.6732 0.213855C13.8027 0.407464 13.8027 0.730145 13.5438 0.859218L0.732063 9.82977C0.667358 9.89431 0.602652 9.89431 0.47324 9.89431Z" transform="translate(487.66794 179.0681)" id="Path" fill="#000000" stroke="none" />
        <path d="M0.505443 13.2178C0.376031 13.2178 0.311325 13.1532 0.181913 13.0887C-0.0122043 12.8951 -0.0769102 12.637 0.117207 12.3788L9.8878 0.181437C10.0819 -0.0121723 10.3407 -0.0767086 10.5996 0.1169C10.7937 0.310509 10.8584 0.568655 10.6643 0.8268L0.893678 13.0242C0.764266 13.1532 0.634855 13.2178 0.505443 13.2178Z" transform="translate(57.018085 266.54727)" id="Path" fill="#000000" stroke="none" />
        <path d="M14.5588 7.74436C14.4941 7.74436 14.4294 7.74436 14.3647 7.67982L0.258824 0.903509C0 0.774436 -0.0647059 0.516291 0.0647059 0.258145C0.194118 0 0.452941 -0.0645363 0.711765 0.0645363L14.8176 6.90539C15.0765 7.03446 15.1412 7.29261 15.0118 7.55075C14.9471 7.67982 14.7529 7.74436 14.5588 7.74436Z" transform="translate(3.8823528 154.6936)" id="Path" fill="#000000" stroke="none" />
        <path d="M6.26253 15.5394C6.06842 15.5394 5.8743 15.4103 5.80959 15.2167L0.0507689 0.695999C-0.0786429 0.437854 0.0507689 0.179709 0.309592 0.0506358C0.568416 -0.0784368 0.827239 0.0506358 0.956651 0.308781L6.71547 14.8295C6.84489 15.0876 6.71547 15.3457 6.45665 15.4748C6.39195 15.5394 6.32724 15.5394 6.26253 15.5394Z" transform="translate(76.17276 70.74573)" id="Path" fill="#000000" stroke="none" />
        <path d="M11.5338 12.0199C11.4044 12.0199 11.275 11.9554 11.2103 11.8908L0.145588 0.855106C-0.0485294 0.661498 -0.0485294 0.338816 0.145588 0.145207C0.339706 -0.0484023 0.663235 -0.0484023 0.857353 0.145207L11.9221 11.1809C12.1162 11.3745 12.1162 11.6972 11.9221 11.8908C11.7926 11.9554 11.6632 12.0199 11.5338 12.0199Z" transform="translate(144.53676 12.632989)" id="Path" fill="#000000" stroke="none" />
        <path d="M11.8574 11.6972C11.7279 11.6972 11.5985 11.6327 11.5338 11.5681L0.145588 0.855107C-0.0485294 0.661498 -0.0485294 0.338816 0.145588 0.145207C0.339706 -0.0484023 0.663235 -0.0484023 0.857353 0.145207L12.2456 10.8582C12.4397 11.0518 12.4397 11.3745 12.2456 11.5681C12.1162 11.6972 11.9868 11.6972 11.8574 11.6972Z" transform="translate(139.23088 228.31345)" id="Path" fill="#000000" stroke="none" />
        <path d="M8.99674 14.0715C8.86733 14.0715 8.67321 14.007 8.6085 13.8779L0.0673277 0.712515C-0.0620841 0.518906 0.00262178 0.196224 0.196739 0.0671512C0.390857 -0.0619214 0.714386 0.00261491 0.843798 0.196224L9.32027 13.3616C9.44968 13.5552 9.38497 13.8779 9.19086 14.007C9.19086 14.0715 9.06145 14.0715 8.99674 14.0715Z" transform="translate(217.27972 468.46667)" id="Path" fill="#000000" stroke="none" />
        <path d="M0.517647 8.32519C0.323529 8.32519 0.194118 8.26065 0.0647059 8.06704C-0.0647059 7.8089 0 7.55075 0.258824 7.42168L14.1059 0.0645363C14.3647 -0.0645363 14.6235 0 14.7529 0.258145C14.8824 0.516291 14.8176 0.774436 14.5588 0.903509L0.711765 8.26065C0.711765 8.32519 0.647059 8.32519 0.517647 8.32519Z" transform="translate(114.59412 325.06955)" id="Path" fill="#000000" stroke="none" />
        <path d="M11.0737 12.529C10.9443 12.529 10.8148 12.4644 10.6854 12.3999L0.13837 0.847907C-0.0557481 0.654298 -0.0557481 0.331616 0.203075 0.138007C0.397193 -0.055602 0.720722 -0.055602 0.91484 0.202543L11.4619 11.7545C11.656 11.9482 11.656 12.2708 11.3972 12.4644C11.2678 12.529 11.2031 12.529 11.0737 12.529Z" transform="translate(440.76752 356.4898)" id="Path" fill="#000000" stroke="none" />
        <path d="M0.50371 15.4103C0.439004 15.4103 0.374298 15.4103 0.309592 15.3457C0.0507689 15.2167 -0.0786429 14.9585 0.0507689 14.7004L6.19783 0.308781C6.32724 0.0506358 6.58606 -0.0784368 6.84489 0.0506358C7.10371 0.179709 7.23312 0.437854 7.10371 0.695999L0.956651 15.0876C0.891945 15.2812 0.697828 15.4103 0.50371 15.4103Z" transform="translate(452.56686 499.33157)" id="Path" fill="#000000" stroke="none" />
      </g>
    </g>
    <g id="general_1_" transform="translate(128 0)">
      <g id="general">
        <g id="lines" transform="translate(36.92717 0)">
          <path d="M46.5699 96.3946C46.3107 96.3946 46.1164 96.2009 46.1164 96.0072C46.0516 95.7489 46.2459 95.4906 46.5051 95.426C59.5268 93.4243 65.0334 87.7419 66.8474 85.8693C69.6331 83.0281 70.4106 81.0264 71.7062 77.9269C72.7428 75.344 74.0385 72.1799 77.0186 67.2724C80.9704 60.7506 84.0153 57.5866 86.218 55.2619C87.708 53.7122 88.7446 52.6145 89.3276 51.2584C89.522 50.871 89.8459 49.8379 89.8459 48.8693C89.9755 45.3178 85.7645 42.6057 81.2296 39.7C76.1116 36.4068 70.864 33.049 70.2162 27.7541C70.0218 26.3335 70.3458 25.6232 70.7345 24.7837C71.0584 24.0089 71.5119 23.0403 71.771 20.9094C72.2893 16.6476 71.4471 11.8047 69.5036 7.73662C67.7544 3.99141 65.3574 1.47309 63.2843 1.15023C61.5999 0.891936 60.4337 2.3771 58.6198 4.57257C56.741 6.89717 54.0849 10.1258 49.5499 12.515C45.4685 14.6459 42.7476 14.6459 38.9901 14.6459C36.2043 14.6459 32.7708 14.6459 27.7176 15.5499C18.9717 17.1642 8.15264 19.1014 3.42337 27.1729C-1.95374 36.2776 3.22902 48.2235 3.42337 48.7401C5.30212 53.0665 7.82872 55.4557 10.2257 57.7803C13.0115 60.4277 15.6029 62.9461 16.6394 67.9181C17.4168 71.4696 16.8338 73.6005 16.3155 75.5377C15.862 77.3457 15.4085 78.96 16.1859 81.4138C16.9633 83.9967 18.7125 86.3859 21.3039 88.5168C21.4982 88.7105 21.563 88.9688 21.3687 89.2271C21.1743 89.4208 20.9152 89.4853 20.6561 89.2916C17.9351 87.0316 16.0564 84.5133 15.2142 81.6721C14.372 78.8955 14.8254 77.152 15.3437 75.2148C15.862 73.3422 16.3803 71.3405 15.6676 68.0473C14.6311 63.3335 12.2988 61.0735 9.51312 58.3614C7.18087 56.1014 4.45992 53.5185 2.51639 48.9984C2.25725 48.4818 -3.05508 36.0839 2.58117 26.5272C7.56958 18.0682 18.6477 16.0665 27.5232 14.4522C32.6412 13.4836 36.1395 13.5481 38.9901 13.5481C42.618 13.5481 45.2094 13.5481 49.0965 11.5464C53.437 9.22178 55.8988 6.25145 57.8424 3.7977C59.7211 1.47309 61.2112 -0.334941 63.4138 0.0524941C65.8756 0.439929 68.467 3.0874 70.4106 7.22004C72.4189 11.4818 73.2611 16.5185 72.8076 20.9094C72.5484 23.1694 72.0949 24.2026 71.7062 25.042C71.3823 25.8169 71.1232 26.3335 71.2528 27.5604C71.771 32.4033 76.889 35.6319 81.8126 38.796C86.5419 41.8309 91.0768 44.7366 90.8825 48.8047C90.8177 49.9024 90.4938 51.0647 90.2994 51.5167C89.6516 53.0665 88.5502 54.2288 86.9954 55.8431C84.7927 58.1031 81.8126 61.2672 77.9256 67.6599C75.0103 72.4382 73.7146 75.6023 72.678 78.1852C71.4471 81.2201 70.5401 83.4155 67.6248 86.3859C65.7461 88.323 60.045 94.1991 46.7642 96.2655C46.6346 96.3946 46.6346 96.3946 46.5699 96.3946Z" transform="translate(114.354866 101.84284)" id="Path" fill="#000000" stroke="none" />
          <path d="M83.5846 178.737C83.3902 178.737 83.1959 178.608 83.1311 178.414C83.0663 178.156 83.1959 177.897 83.455 177.833C115.523 168.018 135.866 158.59 138.781 154.716C139.688 153.489 140.336 152.52 140.854 151.487C142.474 148.452 143.834 145.159 144.612 142.06C145.778 137.604 150.766 134.698 156.597 131.341C161.715 128.37 167.545 124.948 171.886 119.847C177.652 113.067 182.316 100.927 179.142 90.4016C176.874 82.8466 170.655 77.1642 161.261 68.5115C158.799 66.2515 156.791 64.5726 155.171 63.2812C151.608 60.3754 149.665 58.7611 148.369 55.145C146.685 50.5604 147.721 47.1381 148.823 43.4574C149.665 40.6808 150.507 37.8396 150.377 34.0944C150.183 25.8291 144.482 14.077 132.238 6.39284C117.856 -2.58273 101.53 1.48533 84.2324 5.81169C73.0247 8.65287 66.2223 10.3318 59.1608 15.885C55.3385 18.8553 52.6176 21.8257 49.7023 24.9897C46.1391 28.8641 42.0577 33.255 35.1258 38.6145C28.3234 43.9094 23.7237 45.5238 19.6423 46.8798C15.82 48.1712 12.8399 49.2044 9.21196 52.885C5.13053 56.9531 2.40958 62.1834 0.984324 68.7698C0.919539 69.0281 0.660401 69.2218 0.401263 69.1573C0.142125 69.0927 -0.0522283 68.8344 0.0125562 68.5761C1.5026 61.796 4.28833 56.4365 8.49933 52.2393C12.3216 48.4295 15.5608 47.2672 19.3183 45.9758C23.335 44.6197 27.8699 43.0054 34.5427 37.8396C41.4099 32.4801 45.4265 28.1538 48.9896 24.2794C51.9049 21.1154 54.6907 18.145 58.513 15.1101C65.7688 9.42774 72.5712 7.68429 83.9733 4.8431C101.465 0.452172 117.985 -3.68046 132.756 5.48882C141.826 11.1712 151.09 22.1485 151.349 33.9653C151.414 37.8396 150.507 40.9391 149.73 43.6511C148.628 47.2672 147.721 50.4313 149.276 54.7576C150.507 58.1154 152.256 59.536 155.819 62.4417C157.439 63.7978 159.447 65.4121 161.974 67.7367C171.497 76.454 177.781 82.2009 180.178 90.0142C183.482 100.927 178.623 113.389 172.728 120.363C168.258 125.594 162.427 129.016 157.18 132.051C151.544 135.344 146.749 138.121 145.648 142.189C144.806 145.417 143.445 148.711 141.761 151.875C141.178 152.908 140.53 153.941 139.623 155.232C136.06 160.011 112.608 169.89 83.8437 178.672C83.7141 178.737 83.6494 178.737 83.5846 178.737Z" transform="translate(59.00613 59.47107)" id="Path" fill="#000000" stroke="none" />
          <path d="M145.342 308.554C136.92 308.554 127.332 307.262 117.356 303.323C112.497 301.386 107.832 298.997 103.492 296.091C103.297 295.962 103.233 295.639 103.362 295.446C103.492 295.252 103.816 295.187 104.01 295.316C108.351 298.158 112.95 300.611 117.679 302.484C141.844 312.041 164.065 305.777 171.321 303.711C174.69 302.742 204.555 293.767 220.492 270.004C226.064 261.739 228.914 255.281 228.979 255.217C231.376 250.116 232.931 245.725 234.292 241.85C236.106 236.62 237.66 232.1 240.705 227.709C242.973 224.416 245.629 222.027 247.378 220.412C247.767 220.025 248.091 219.767 248.415 219.444C258.068 210.21 265.582 206.723 271.607 203.882C276.466 201.622 280.289 199.814 283.333 195.81C287.544 190.322 286.573 185.543 284.823 176.955C283.463 170.304 281.649 161.199 281.714 147.897C281.714 133.369 283.528 124.781 285.018 117.936C286.637 110.187 287.739 105.086 285.083 96.6915C282.038 86.9411 277.179 83.1313 267.526 75.6409C262.019 71.3791 255.217 66.0842 246.406 57.8189C229.886 42.3861 219.78 29.3425 212.459 19.7857C202.871 7.25868 197.559 0.413999 187.841 0.866006C182.01 1.1243 178.577 3.51348 173.265 7.12953C167.758 10.8747 160.178 16.0405 146.12 20.8835C129.017 26.7596 118.91 25.791 109.97 24.9515C102.131 24.1767 95.3936 23.5309 85.7407 27.7927C73.8204 33.0231 69.5446 41.4821 64.2322 52.2657C58.6608 63.5013 51.664 77.5135 33.0709 92.1069C27.3051 96.627 23.0941 99.1453 19.7253 101.147C14.7369 104.117 11.7568 105.861 8.19364 111.349C-5.73503 132.594 3.85308 161.974 9.03584 177.795C9.94282 180.571 10.785 182.702 11.0442 183.541L11.1089 183.606C15.5791 195.229 21.604 206.206 29.119 216.086C29.2486 216.28 29.2486 216.603 29.0543 216.796C28.8599 216.925 28.536 216.925 28.3416 216.732C20.8266 206.723 14.6721 195.746 10.202 183.993L10.1372 183.929C9.81326 183.089 9.03584 180.959 8.06407 178.182C2.88131 162.233 -6.77158 132.529 7.35144 110.897C11.0442 105.215 14.2834 103.278 19.207 100.372C22.5758 98.3704 26.722 95.9167 32.4878 91.3966C50.8866 76.8678 57.8186 63.0493 63.39 51.8782C68.8319 40.9655 73.1725 32.3128 85.4168 26.9533C95.3288 22.6269 102.196 23.2726 110.164 24.0475C118.975 24.887 129.017 25.8555 145.926 20.044C159.854 15.2011 167.369 10.0999 172.876 6.41924C178.123 2.86775 181.881 0.284854 187.971 0.026564C198.207 -0.490016 203.584 6.54838 213.431 19.3337C220.752 28.8905 230.793 41.9341 247.313 57.3023C256.124 65.503 262.926 70.798 268.368 75.0598C277.892 82.4856 283.139 86.5537 286.249 96.627C288.97 105.28 287.804 110.768 286.184 118.388C284.759 125.233 282.945 133.756 282.945 148.156C282.945 161.393 284.759 170.433 286.054 177.02C287.739 185.608 288.775 190.774 284.37 196.65C281.196 200.847 277.244 202.655 272.255 204.98C266.295 207.756 258.845 211.243 249.322 220.348C248.998 220.606 248.674 220.929 248.285 221.316C246.601 222.866 243.944 225.255 241.807 228.419C238.891 232.746 237.336 237.201 235.522 242.367C234.162 246.306 232.607 250.697 230.21 255.863C230.21 255.927 227.23 262.449 221.659 270.843C205.592 294.929 175.338 303.969 171.969 304.938C167.304 305.842 157.587 308.554 145.342 308.554Z" transform="translate(0.03399059 0.23172587)" id="Path" fill="#000000" stroke="none" />
          <path d="M25.6712 5.81398C25.6064 5.81398 25.4768 5.81398 25.412 5.7494C21.5898 3.36022 17.5731 1.87506 12.8438 1.22933C6.81888 0.38989 3.19095 1.35848 0.59957 2.06877C0.340432 2.13335 0.0812938 2.0042 0.0165093 1.74591C-0.0482752 1.48762 0.0812938 1.22933 0.340432 1.16476C3.06138 0.454462 6.7541 -0.514125 12.9734 0.325317C17.897 1.03561 22.0432 2.52078 25.9303 4.97453C26.1247 5.10368 26.2542 5.42654 26.0599 5.62026C25.9951 5.7494 25.8655 5.81398 25.6712 5.81398Z" transform="translate(93.33797 216.89644)" id="Path" fill="#000000" stroke="none" />
        </g>
        <g id="hand" transform="translate(174.91817 163.36832)">
          <path d="M0.473815 13.288C0.344246 13.288 0.149892 13.2234 0.085108 13.0943C-0.0444611 12.9006 -0.0444611 12.5777 0.214677 12.4486C1.76951 11.3508 3.12998 10.0594 4.23132 8.57423C5.07351 7.4765 5.59179 6.70163 5.85093 5.53932C6.30442 3.66672 5.78614 1.85869 5.26787 0.696389C5.1383 0.438099 5.26787 0.179809 5.52701 0.0506642C5.78614 -0.0784807 6.04528 0.0506642 6.17485 0.308954C6.75791 1.6004 7.34097 3.60215 6.8227 5.73304C6.49877 7.15363 5.78614 8.05765 5.00873 9.09081C3.84261 10.7051 2.41735 12.0611 0.732953 13.2234C0.668169 13.288 0.603384 13.288 0.473815 13.288Z" transform="translate(20.645935 10.410074)" id="Path" fill="#000000" stroke="none" />
          <path d="M0.469688 10.9938C0.340119 10.9938 0.21055 10.9292 0.145765 10.8646C-0.0485884 10.6709 -0.0485884 10.348 0.145765 10.1543C0.664041 9.70232 1.11753 9.12117 1.50624 8.60459C2.0893 7.82972 2.9315 6.60285 3.25542 4.85939C3.57934 3.11593 3.25542 1.63077 2.86671 0.66218C2.80193 0.40389 2.9315 0.1456 3.19064 0.0164553C3.44978 -0.0481172 3.70891 0.0810277 3.83848 0.339318C4.22719 1.43705 4.6159 3.11593 4.22719 5.05311C3.83848 6.99028 2.9315 8.28173 2.28365 9.18574C1.83016 9.83147 1.37667 10.348 0.79361 10.9292C0.728826 10.9292 0.599257 10.9938 0.469688 10.9938Z" transform="translate(22.78795 17.482681)" id="Path" fill="#000000" stroke="none" />
          <path d="M0.506057 17.5224C0.376488 17.5224 0.246919 17.4579 0.11735 17.3287C-0.0770036 17.135 -0.0122191 16.8121 0.182134 16.6184C2.96787 14.2938 5.62403 11.9046 8.08584 9.3863C9.83503 7.57827 11.1307 6.15767 11.3899 4.09135C11.5194 2.99362 11.3899 1.83132 10.9364 0.669015C10.8716 0.410725 10.9364 0.152435 11.1955 0.02329C11.4546 -0.0412825 11.7138 0.02329 11.8433 0.28158C12.3616 1.57303 12.4912 2.86448 12.3616 4.15593C12.0377 6.54511 10.6772 8.09485 8.79847 10.032C6.33666 12.5503 3.61571 15.0041 0.82998 17.3287C0.70041 17.5224 0.570841 17.5224 0.506057 17.5224Z" transform="translate(14.523949 24.578817)" id="Path" fill="#000000" stroke="none" />
          <path d="M8.8958 19.0208C8.76623 19.0208 8.63666 18.9562 8.57188 18.8917C8.37752 18.698 8.37752 18.3751 8.57188 18.1814C11.3576 15.3402 14.1433 12.499 16.8643 9.65781C17.4474 9.01208 18.0952 8.36636 18.6783 7.78521L18.8078 7.65606C18.8078 7.65606 18.8726 7.59149 18.8726 7.59149C21.3992 4.94402 22.371 3.00685 21.9175 1.84454C21.7879 1.45711 21.464 1.26339 21.3344 1.13424C20.7514 0.746809 19.7148 1.06967 18.2248 2.10283C17.6417 2.49027 16.9939 2.94227 16.2164 3.588C15.3095 4.29829 14.4025 5.13774 13.3659 5.97718C12.6533 6.55833 11.9407 7.20406 11.1633 7.84978C7.92403 10.5618 4.42567 13.2093 0.732953 15.7276C0.538599 15.8568 0.214677 15.8568 0.085108 15.5985C-0.0444611 15.4048 -0.0444611 15.0819 0.214677 14.9527C3.84261 12.4344 7.34097 9.78695 10.5802 7.07491C11.3576 6.42919 12.0702 5.84803 12.7829 5.20231C13.8194 4.36287 14.7912 3.52343 15.6334 2.81313C16.4108 2.1674 17.1234 1.65082 17.7065 1.26339C19.0022 0.423947 20.6218 -0.480067 21.8527 0.294802C22.1118 0.488519 22.5653 0.811382 22.8245 1.45711C23.6667 3.52343 21.3992 6.30004 19.65 8.17264C19.65 8.17264 19.5852 8.23722 19.5852 8.23722L19.4557 8.36636C18.8726 9.01208 18.2896 9.65781 17.6417 10.3035C14.9208 13.1447 12.135 16.0505 9.34929 18.8917C9.15494 19.0208 9.02537 19.0208 8.8958 19.0208Z" transform="translate(9.308645 0.09263262)" id="Path" fill="#000000" stroke="none" />
          <path d="M0.476858 21.3254C0.412074 21.3254 0.347289 21.3254 0.282504 21.2608C0.0233665 21.1317 -0.041418 20.8734 0.0233665 20.6151C0.995134 18.5488 2.03169 16.4824 3.26259 14.6098C6.04833 10.2835 8.89884 5.7634 14.0168 3.56794C14.859 3.18051 16.1547 2.79307 18.7461 1.88906C20.8192 1.17876 22.8923 0.597607 24.9654 0.0164553C25.2245 -0.0481172 25.4837 0.0810277 25.5485 0.339318C25.6132 0.597607 25.4837 0.855897 25.2245 0.92047C23.2162 1.50162 21.1431 2.14735 19.1348 2.79307C16.5434 3.63251 15.2477 4.08452 14.4703 4.40738C9.61147 6.53827 6.82574 10.9292 4.10479 15.1264C2.93867 16.999 1.83733 18.9362 0.93035 21.0025C0.800781 21.1962 0.606427 21.3254 0.476858 21.3254Z" transform="translate(0.041418046 2.6955879)" id="Path" fill="#000000" stroke="none" />
          <path d="M0.194354 0C5.70104 5.55323 11.2725 11.0419 16.7792 16.5951C16.0018 17.2408 15.2891 17.9511 14.5117 18.5969C9.65289 12.5271 4.85884 6.52182 0 0.452007C0.0647845 0.322862 0.129569 0.193717 0.194354 0Z" transform="translate(0.51827604 23.052368)" id="Path" fill="#000000" stroke="none" />
        </g>
        <g id="match" transform="translate(196.9449 153.68245)">
          <path d="M3.7575 7.7487C3.10966 8.13613 2.46181 8.65271 1.74918 9.23386L1.74918 9.10472L0 0.452007C0.323923 0.452007 0.71263 0.387435 1.10134 0.322862C1.49004 0.25829 1.87875 0.129145 2.20267 0C2.78573 2.5829 3.30401 5.1658 3.7575 7.7487Z" transform="translate(1.3604747 3.7452025)" id="Path" fill="#000000" stroke="none" />
          <path d="M3.36879 7.36126L1.16612 7.81327L0 2.00175C0.647845 1.35602 1.29569 0.645725 1.94354 0L3.36879 7.36126Z" transform="translate(4.5349154 17.821999)" id="Path" fill="#000000" stroke="none" />
          <path d="M1.81822 4.72398C1.68865 4.72398 1.55908 4.65941 1.4943 4.59484C0.198605 3.30339 -0.319671 1.81822 0.198605 0.914208C0.26339 0.785063 0.716881 0.139338 1.42951 0.0101933C2.01257 -0.0543792 2.46606 0.203911 2.66042 0.333056C3.50261 0.914208 3.89132 2.3348 3.5674 4.01369C3.50261 4.27198 3.24348 4.46569 2.98434 4.40112C2.7252 4.33655 2.53085 4.07826 2.59563 3.81997C2.85477 2.52852 2.66042 1.49536 2.14214 1.10793C2.07736 1.04335 1.81822 0.914208 1.55908 0.914208C1.23516 0.97878 1.0408 1.30164 0.976019 1.30164C0.716881 1.75365 1.10559 2.78681 2.14214 3.81997C2.33649 4.01369 2.33649 4.33655 2.14214 4.53027C2.07736 4.65941 1.94779 4.72398 1.81822 4.72398Z" transform="translate(0.060532875 0.118951604)" id="Path" fill="#000000" stroke="none" />
        </g>
        <g id="legs" transform="translate(1.2956902 320.9251)">
          <path d="M42.2663 197.35C42.2663 197.35 42.2663 197.35 42.2663 197.35L0.415542 192.701C0.285973 192.701 0.156404 192.636 0.0916191 192.507C0.0268346 192.378 -0.0379499 192.249 0.0268346 192.12L56.4541 2.59935C56.5189 2.34106 56.7781 2.21192 57.0372 2.27649C57.2963 2.34106 57.4259 2.59935 57.3611 2.85764L1.12817 191.797L42.0072 196.317C55.3528 159.058 68.8928 121.219 82.3032 83.9606C92.28 56.1945 102.386 28.0409 112.428 0.339318C112.493 0.0810277 112.817 -0.0481172 113.076 0.0164553C113.335 0.0810277 113.465 0.40389 113.4 0.66218C103.423 28.3638 93.2517 56.5174 83.2749 84.2835C69.8645 121.671 56.2598 159.64 42.8494 197.027C42.655 197.221 42.4607 197.35 42.2663 197.35Z" transform="translate(0.49144143 1.4041388)" id="Path" fill="#000000" stroke="none" />
          <path d="M0.470001 192.055C0.405216 192.055 0.340432 192.055 0.340432 192.055C0.0812938 191.99 -0.0482752 191.668 0.0165093 191.409L65.6432 0.339318C65.708 0.0810277 66.0319 -0.0481172 66.2911 0.0164553C66.5502 0.0810277 66.6798 0.40389 66.615 0.66218L0.923492 191.732C0.858708 191.926 0.664354 192.055 0.470001 192.055Z" transform="translate(15.531773 3.0184503)" id="Path" fill="#000000" stroke="none" />
          <path d="M117.195 226.778C116.871 222.969 115.835 217.867 112.012 214.058C107.218 209.279 101.064 209.667 88.4309 207.6C83.2481 206.761 75.9922 205.34 67.3111 202.822C66.728 200.949 66.145 199.077 65.4971 197.14C69.449 196.688 72.6882 196.365 74.243 196.236C64.8493 130.824 55.3908 65.4119 45.997 0C37.1215 0.452007 28.3108 0.968587 19.4354 1.42059L0 53.918C11.7908 102.993 23.5816 152.133 35.3723 201.208C36.2793 201.014 37.6398 200.82 39.1946 200.562C41.2029 209.15 43.1465 217.738 45.1548 226.326C69.1899 226.456 93.2249 226.585 117.195 226.778Z" transform="translate(93.87275 0.4520072)" id="Path" fill="none" stroke="#000000" stroke-width="1" />
          <path d="M0.518276 24.9895C0.259138 24.9895 0 24.7958 0 24.473C0 24.1501 0.194354 23.9564 0.518276 23.9564C3.36879 23.9564 13.216 23.3107 20.3423 15.2391C25.1364 9.81501 26.3025 3.68063 26.5616 0.452007C26.5616 0.193717 26.8208 0 27.0799 0C27.3391 0 27.5334 0.25829 27.5334 0.51658C27.2095 3.80978 25.9786 10.2024 21.055 15.8203C13.7343 24.3438 3.49836 24.9895 0.518276 24.9895Z" transform="translate(73.14171 1.9371737)" id="Path" fill="#000000" stroke="none" />
        </g>
        <g id="flame" transform="translate(191.11429 139.47652)">
          <path d="M7.32612 20.6012C4.8643 20.6012 2.66163 18.6641 1.68986 17.3726C-1.22544 13.4983 -0.318457 6.71815 4.0221 0.196334C4.15167 0.00261637 4.4756 -0.0619561 4.66995 0.0671888C10.8245 4.07068 14.1285 9.75306 13.0919 14.4668C12.6384 16.4686 11.1484 19.9555 8.16831 20.5367L8.16831 20.5367C7.90918 20.6012 7.65004 20.6012 7.32612 20.6012ZM4.60517 1.10035C0.718095 7.17016 -0.124103 13.3045 2.53206 16.7269C3.50383 17.9538 5.7065 20.0201 8.03874 19.5035L8.03874 19.5035C10.5653 18.9869 11.861 15.8229 12.2497 14.144C13.0919 10.0113 10.1118 4.91012 4.60517 1.10035Z" transform="translate(0.5128104 0.44939083)" id="Shape" fill="#000000" stroke="none" />
          <path d="M4.95875 13.8211C3.27436 13.8211 1.78431 12.4651 1.13647 11.6257C-0.807067 9.04276 -0.224006 4.52269 2.62651 0.196334C2.75608 0.00261637 3.08 -0.0619561 3.27436 0.0671888C7.35578 2.71466 9.55845 6.52443 8.84583 9.68849C8.58669 11.0445 7.55013 13.3691 5.47703 13.8211L5.47703 13.8211C5.34746 13.8211 5.15311 13.8211 4.95875 13.8211ZM3.20957 1.16492C0.747761 5.03927 0.229485 8.91362 1.91388 11.1091C2.49694 11.8194 3.9222 13.1754 5.34746 12.8525C5.34746 12.8525 5.34746 12.8525 5.34746 12.8525C6.90229 12.5297 7.74449 10.5279 7.93884 9.49477C8.5219 6.78272 6.70794 3.5541 3.20957 1.16492Z" transform="translate(3.00974 7.229499)" id="Shape" fill="#000000" stroke="none" />
        </g>
        <g id="head" transform="translate(71.910805 126.56202)">
          <path d="M18.8221 12.9196C19.0812 16.0191 19.3404 19.054 19.5995 22.1535C19.4699 22.4118 16.9433 23.7032 16.6194 23.6387C16.4251 23.0575 15.9716 22.0244 14.935 21.0558C14.6111 20.7329 13.1858 19.506 10.9832 19.3123C10.9832 19.3123 8.78049 19.1186 6.6426 20.5392C6.51303 20.6038 6.44825 20.6683 6.31868 20.7329C5.8004 21.1203 5.47648 21.4432 5.34691 21.5078C5.08777 21.7661 2.17247 25.0593 3.53294 29.0627C4.31036 31.3874 6.18911 32.8725 7.8735 33.5182C8.327 33.712 8.7157 33.7765 8.97484 33.8411C9.42833 35.6491 10.0762 38.232 10.4649 40.0401C10.9832 42.1064 11.5014 44.1727 11.9549 46.239L8.327 46.239C8.26221 43.9144 8.19743 41.5898 8.13264 39.2652C6.05954 37.5217 1.71898 33.3245 0.423286 26.7381C-1.64982 16.5357 3.98643 3.36291 15.2589 0.521724C21.7374 -1.09259 27.7623 1.23202 32.4268 4.84808C27.4384 7.88298 18.8221 12.9196 18.8221 12.9196Z" transform="translate(0.22455926 1.0280149)" id="hair" fill="#000000" stroke="none" />
          <path d="M2.40958 1.43705C1.76174 1.43705 1.04911 1.37248 0.401263 1.24333C0.142125 1.17876 -0.0522283 0.92047 0.0125562 0.66218C0.0773407 0.40389 0.336479 0.210173 0.595617 0.274745C1.43782 0.468462 2.3448 0.533035 3.187 0.40389C3.77006 0.339318 4.35312 0.210173 4.93618 0.0164553C5.19532 -0.0481172 5.45445 0.0810277 5.58402 0.339318C5.64881 0.597607 5.51924 0.855897 5.2601 0.985042C4.61226 1.17876 3.96441 1.37248 3.31657 1.43705C2.99264 1.37248 2.73351 1.43705 2.40958 1.43705Z" transform="translate(8.2798605 34.594383)" id="Path" fill="#000000" stroke="none" />
          <g id="face">
            <path d="M32.8994 58.0839C32.6403 58.0839 32.4459 57.8902 32.4459 57.6965C32.4459 57.5028 32.3811 57.2445 32.3811 56.9862L32.3811 56.9216C32.0572 54.4679 31.4093 49.0438 31.0206 45.0403C30.8263 43.4906 30.6967 42.1345 30.6319 41.2951C30.6319 41.0368 30.8263 40.7785 31.0854 40.7785C31.8628 40.7139 32.6403 40.5848 33.3529 40.3911C36.009 39.7454 38.2765 38.5185 39.8961 36.9042C45.8563 30.7052 42.8762 19.405 39.5722 13.7227C37.823 10.7523 35.3612 7.91113 32.5107 5.71567C29.9193 3.64935 27.1984 2.29333 24.3478 1.51846C21.4973 0.743591 18.582 0.743591 15.7963 1.45389C4.71813 4.29508 -0.658984 17.2096 1.34934 27.0892C2.51546 32.9007 6.14339 36.9687 8.92912 39.3579C9.05869 39.4225 9.12348 39.5516 9.12348 39.7454C9.18826 41.166 9.25305 45.2986 9.31783 46.7192C9.38261 48.5918 9.4474 52.337 9.51218 54.7262L9.51218 55.5656C9.51218 55.8239 9.31783 56.0822 9.05869 56.0822C8.79955 56.0822 8.54042 55.8885 8.54042 55.6302L8.54042 54.7907C8.47563 52.4661 8.41085 48.7209 8.34606 46.7838C8.34606 45.4277 8.21649 41.618 8.15171 40.0036C5.23641 37.4853 1.67326 33.3527 0.442353 27.3474C-1.69554 17.0159 4.0055 3.52021 15.6019 0.549874C18.582 -0.224996 21.6269 -0.160423 24.6718 0.614446C27.5871 1.38932 30.4376 2.80991 33.1585 4.9408C36.0738 7.20084 38.6652 10.1066 40.4792 13.2061C43.9128 19.1467 47.0224 30.9635 40.6735 37.5499C38.9244 39.3579 36.5273 40.6494 33.6768 41.3597C33.029 41.4888 32.4459 41.618 31.7981 41.6825C31.8628 42.522 31.9924 43.6843 32.122 44.9112C32.5755 48.9146 33.1585 54.3387 33.4825 56.7925L33.4825 56.9216C33.5472 57.1799 33.5472 57.4382 33.5472 57.5674C33.612 57.8256 33.4177 58.0839 33.1585 58.1485C32.9642 58.0839 32.8994 58.0839 32.8994 58.0839Z" transform="translate(0.07592307 0.6124306)" id="Path" fill="#000000" stroke="none" />
            <path d="M13.9935 4.64922C13.2808 4.77836 12.5034 4.97208 11.6612 5.03665C11.726 5.81152 11.8556 7.16754 12.0499 8.78185C9.71768 8.07156 6.54324 6.78011 3.56315 4.13264C2.00832 2.71204 0.842199 1.29145 0 0C1.42526 1.29145 5.11798 4.26178 10.3007 4.52007C11.726 4.58464 12.9569 4.39093 14.0582 4.19721C14.0582 4.32635 14.0582 4.52007 13.9935 4.64922Z" transform="translate(19.435352 36.74173)" id="Path" fill="#000000" stroke="none" />
          </g>
        </g>
        <g id="shoe" transform="translate(0 514.6425)">
          <path d="M0.480326 33.0776C0.350757 33.0776 0.156404 33.013 0.0916191 32.8838C0.0268346 32.7547 -0.0379499 32.6255 0.0268346 32.4318L2.683 22.6814C4.69132 15.2556 6.76442 7.82972 8.77274 0.339318C8.83753 0.0810277 9.09667 -0.0481172 9.3558 0.0164553C9.61494 0.0810277 9.74451 0.339318 9.67973 0.597607C7.67141 8.02344 5.5983 15.4493 3.58998 22.9397L1.12817 32.0444L74.7882 31.5924C75.2416 28.0409 74.6586 25.1997 73.1038 23.0688C70.5772 19.5819 66.0422 19.0008 58.5272 18.0967C56.6485 17.8385 54.5754 17.5802 52.3079 17.2573C45.5056 16.2887 38.9623 14.9327 32.2895 13.1892C32.16 13.1247 32.0304 13.0601 31.9656 12.9955C31.9008 12.8664 31.9008 12.7372 31.9008 12.6081L34.4274 3.24508C34.4922 2.98679 34.7513 2.85764 35.0105 2.92222C35.2696 2.98679 35.3992 3.24508 35.3344 3.50337L32.9374 12.4144C39.4158 14.0933 45.8295 15.3847 52.3727 16.3533C54.6402 16.6761 56.7781 16.9344 58.592 17.1927C66.3662 18.1613 71.0307 18.7425 73.8164 22.5522C75.5656 25.006 76.1486 28.2346 75.5656 32.2381C75.5008 32.4964 75.3064 32.6255 75.1121 32.6255L0.480326 33.0776C0.480326 33.0776 0.480326 33.0776 0.480326 33.0776Z" transform="translate(0.6210104 0.17726211)" id="Path" fill="#000000" stroke="none" />
          <path d="M72.6234 1.05991C72.6234 1.05991 72.6234 1.05991 72.6234 1.05991C52.9289 0.995334 17.3622 0.930761 0 0.995334L0 0.0267468L0 0.0267468C17.3622 -0.0378257 52.9289 0.0267468 72.6234 0.0913192C72.8826 0.0913192 73.0769 0.285037 73.0769 0.607899C73.0769 0.930761 72.8826 1.05991 72.6234 1.05991Z" transform="translate(2.9800873 25.479374)" id="Path" fill="#000000" stroke="none" />
          <path d="M0 2.00175C8.3572 3.61606 16.7792 5.23037 25.1364 6.78011C25.5251 5.42409 25.9138 4.00349 26.3673 2.64747C17.751 1.74346 9.1994 0.839442 0.583061 0C0.388707 0.645725 0.194354 1.29145 0 2.00175Z" transform="translate(9.264185 0.96858686)" id="Path" fill="#000000" stroke="none" />
        </g>
        <g id="tshirt" transform="translate(53.77114 177.57426)">
          <path d="M125.358 59.6058C124.645 61.2201 123.933 62.7699 123.285 64.1905C105.664 102.611 97.8894 105.904 93.1601 105.969C89.4026 106.033 86.293 104.032 84.2199 102.353C86.293 115.848 88.3013 129.409 90.3744 142.904C89.3378 142.969 88.2365 143.033 87.2 143.098L84.0255 143.292C75.6683 143.744 67.3759 144.26 59.0187 144.712C48.7179 145.293 38.3524 145.875 28.0517 146.456C20.0832 146.908 12.1795 147.295 4.21099 147.747C2.78573 147.812 1.36047 147.876 0 148.006C3.04487 120.175 5.24755 98.4785 6.47845 85.8868C11.0134 39.8467 11.5316 13.6948 26.6912 3.75066C26.9504 3.55694 27.2095 3.4278 27.4686 3.23408C29.3474 2.07177 33.2992 -0.12369 38.4172 0.00545526C40.2312 0.0700277 41.9156 0.39289 43.6 1.10319C45.9322 2.07177 48.1349 3.62151 50.5967 5.94612C55.909 11.0473 62.1283 19.6355 71.3925 33.002C73.1417 35.5849 74.8909 38.0386 76.5105 40.4278C82.5355 49.2097 87.783 56.9584 91.994 63.2219C95.2332 56.8938 98.4725 50.5657 101.776 44.173" transform="translate(0.38870704 0.5111244)" id="Path" fill="#2AD15B" stroke="none" />
          <path d="M0 36.1606C2.0731 32.1571 4.08142 28.2182 6.15453 24.2147C10.3655 16.0785 14.5765 8.00698 18.7875 0C21.9619 4.00349 25.1364 8.00698 28.3756 12.075C30.9022 15.1745 33.364 18.274 35.8258 21.3089C31.4205 33.3194 27.1447 43.5864 23.5168 51.658" transform="translate(102.16517 8.523564)" id="Path" fill="#2AD15B" stroke="none" />
          <path d="M0 0C5.70104 7.94241 12.1147 16.2077 19.3706 24.6667C30.5783 37.7103 41.7212 48.9459 52.2163 58.4381C51.7628 54.7574 51.3093 51.0768 50.8558 47.4608C43.0169 41.5201 34.7245 34.6754 26.2377 26.8621C16.1313 17.6283 7.45022 8.52356 0 0Z" transform="translate(34.011868 55.080307)" id="Path" fill="#000000" stroke="none" />
        </g>
      </g>
    </g>
  </g>
</svg>