<?xml version="1.0" encoding="utf-8"?>
<svg width="1792px" height="52px" viewBox="0 0 1792 52" version="1.1" xmlns:xlink="http://www.w3.org/1999/xlink" xmlns="http://www.w3.org/2000/svg">
  <defs>
    <rect width="1800" height="9630" id="artboard_1" />
    <rect width="1792" height="52" id="slice_1" />
    <clipPath id="clip_1">
      <use xlink:href="#slice_1" clip-rule="evenodd" />
    </clipPath>
    <clipPath id="clip_2">
      <use xlink:href="#artboard_1" clip-rule="evenodd" />
    </clipPath>
  </defs>
  <g id="Slice" clip-path="url(#clip_1)">
    <use xlink:href="#slice_1" stroke="none" fill="none" />
    <g id="01_index-Event-Organiser" clip-path="url(#clip_2)" transform="translate(-6 -9013)">
      <g id="Footer" transform="translate(-70 9013)">
        <g id="Bg" transform="matrix(-1 8.742278E-08 -8.742278E-08 -1 1925 642)">
          <path d="M1884.54 37.3494C1884.54 37.3494 1901.72 20.2449 1884.54 20.4464C1881.03 20.4852 1877.53 20.5628 1874.03 20.6093C1869.12 19.0973 1862.67 19.2601 1857.65 20.8496C1799.36 21.656 1741.08 22.757 1682.8 23.7495C1639.82 24.4861 1606.95 25.2537 1565.96 14.8328C1545.66 9.66112 1530.03 5.9161 1507.83 4.37312C1372.66 -5.00104 1230.1 2.4192 1095.26 10.514C1085.34 11.111 1080.24 18.3685 1086.7 22.7803C971.66 23.9666 856.603 24.5171 741.559 26.0058C740.385 25.0289 738.674 24.3233 736.401 24.3465C645.642 25.1452 554.564 32.9531 464.147 38.6055C473.545 30.4176 472.402 29.7663 479.295 20.4464C482.595 15.9803 462.955 14.6932 454.192 14.8328C308.739 17.2519 194.736 6.18748 49.2713 4.37312C36.8172 4.21805 31.3825 14.8018 43.6043 15.3213C48.8231 15.5461 54.054 15.709 59.285 15.9183C55.0196 124.028 43.3232 231.873 28.9259 339.61C21.9472 391.707 12.4019 443.579 4.01769 495.583C-2.86323 538.228 -3.44988 578.012 23.1205 617.927C24.8926 620.571 30.8691 622.518 35.2201 622.332C536.317 600.567 1035.73 640.219 1536.64 641.941C1600.19 642.158 1663.76 641.793 1727.29 640.63C1767.36 639.894 1820.71 644.499 1858.67 634.419C1883.41 627.86 1890.5 618.292 1896.68 602.738C1910.31 568.521 1912.92 530.505 1917.41 495.497C1937.14 342.37 1915.8 189.143 1883.29 37.3649L1884.54 37.3494Z" transform="matrix(-1 8.742278E-08 -8.742278E-08 -1 1925 642)" id="Fill-111" fill="#FBF3EC" fill-rule="evenodd" stroke="none" />
        </g>
      </g>
    </g>
  </g>
</svg>