<?xml version="1.0" encoding="utf-8"?>
<svg width="1749px" height="613px" viewBox="0 0 1749 613" version="1.1" xmlns:xlink="http://www.w3.org/1999/xlink" xmlns="http://www.w3.org/2000/svg">
  <defs>
    <rect width="1749" height="612.3" id="slice_1" />
    <clipPath id="clip_1">
      <use xlink:href="#slice_1" clip-rule="evenodd" />
    </clipPath>
  </defs>
  <g id="Slice" clip-path="url(#clip_1)">
    <use xlink:href="#slice_1" stroke="none" fill="none" />
    <path d="M1860.06 39.7545C1876.94 39.4492 1877.02 21.5485 1860.06 21.7631C1856.6 21.8044 1853.15 21.8869 1849.69 21.9364C1844.85 20.3271 1838.48 20.5004 1833.52 22.1922C1775.99 23.0506 1718.46 24.2225 1660.95 25.2789C1618.52 26.0629 1586.08 26.8799 1545.62 15.788C1525.59 10.2832 1510.16 6.29707 1488.25 4.65473C1354.83 -5.32309 1214.13 2.57499 1081.04 11.1911C1071.24 11.8265 1066.21 19.5513 1072.59 24.2472C959.041 25.5099 845.479 26.0959 731.928 27.6805C730.77 26.6406 729.081 25.8896 726.837 25.9143C637.257 26.7644 547.362 35.0751 458.119 41.0915C467.395 32.3764 466.267 31.6831 473.07 21.7631C476.328 17.0094 456.942 15.6394 448.293 15.788C304.73 18.3629 192.207 6.58592 48.6314 4.65473C36.339 4.48967 30.9749 15.7549 43.038 16.3079C48.189 16.5472 53.352 16.7205 58.5151 16.9434C54.305 132.014 42.7606 246.805 28.5502 361.479C21.6621 416.931 12.2408 472.143 3.96551 527.496C-2.82604 572.887 -3.40507 615.233 22.8202 657.719C24.5694 660.533 30.4682 662.605 34.7627 662.407C529.352 639.241 1022.28 681.446 1516.68 683.278C1579.41 683.509 1642.15 683.121 1704.86 681.884C1744.41 681.099 1797.07 686.002 1834.54 675.273C1858.95 668.291 1865.95 658.107 1872.05 641.551C1885.5 605.131 1888.07 564.667 1892.51 527.405C1911.98 364.417 1890.92 201.323 1858.83 39.771L1860.06 39.7545Z" transform="matrix(-1 8.742278E-08 -8.742278E-08 -1 1846.0002 612.34155)" id="Bg" fill="#FBF3EC" fill-rule="evenodd" stroke="none" />
  </g>
</svg>