<?xml version="1.0" encoding="utf-8"?>
<svg width="232px" height="477px" viewBox="0 0 232 477" version="1.1" xmlns:xlink="http://www.w3.org/1999/xlink" xmlns="http://www.w3.org/2000/svg">
  <g id="Group" transform="translate(-247 0)">
    <g id="Round-shape-color-pink" transform="translate(0 77.94214)">
      <path d="M198.147 247.798C289.837 247.778 364.183 173.413 364.203 81.6995C364.216 22.7434 238.82 -13.9309 141.366 5.02211C87.2177 15.5529 79.7055 62.1785 35.3636 81.0541C-2.38457 97.1228 -15.6583 158.901 24.3496 201.252C67.388 246.812 150.628 247.808 198.147 247.798Z" transform="matrix(0.8660254 -0.5 0.5 0.8660254 0.41898346 182.69925)" id="Oval" fill="#F5D4C5" fill-rule="evenodd" stroke="none" />
    </g>
    <path d="M20.4952 0.318352C21.4009 0.819299 22.8862 1.16519 23.1157 1.87487C23.647 3.58644 24.4319 6.07328 23.6349 7.20041C19.1427 13.3907 12.6761 16.9271 5.2133 18.3107C3.67363 18.591 0.769407 16.9748 0.207883 15.5734C-0.395907 14.0527 0.382981 10.8979 1.67509 9.95562C6.67447 6.34761 12.0844 3.27633 17.44 0.163297C18.1767 -0.254159 19.4627 0.252752 20.4952 0.318352" transform="translate(454.82703 180.38794)" id="Fill-138" fill="#9FA2A1" fill-rule="evenodd" stroke="none" />
    <path d="M10.0929 0C10.9623 1.06811 12.6824 2.22113 12.5655 3.17752C12.0186 7.79407 9.76099 11.7269 6.12446 14.882C4.75959 16.0708 0.922077 14.6139 0.403241 12.6877C-1.36828 6.04666 2.84785 0.518413 10.0929 0" transform="translate(364 409.69873)" id="Fill-141" fill="#9FA2A1" fill-rule="evenodd" stroke="none" />
    <path d="M8.08372 0C11.249 2.88369 11.4914 6.60486 11.1758 10.5071C10.9196 13.667 7.48909 15.5592 4.39244 14.2509C-0.158772 12.3224 -1.60418 6.07068 2.12369 3.12362C3.82525 1.7791 6.33184 1.44411 8.47709 0.647358L8.08372 0" transform="translate(345.28107 0)" id="Fill-154" fill="#9FA2A1" fill-rule="evenodd" stroke="none" />
  </g>
</svg>