<?xml version="1.0" encoding="utf-8"?>
<svg width="217px" height="396px" viewBox="0 0 217 396" version="1.1" xmlns:xlink="http://www.w3.org/1999/xlink" xmlns="http://www.w3.org/2000/svg">
  <g id="Group">
    <g id="Round-shape-paste" transform="translate(71.492676 22.510498)">
      <path d="M198.138 247.821C289.82 247.809 364.153 173.444 364.164 81.7224C364.172 22.7609 238.784 -13.9282 141.34 5.01759C87.1982 15.5444 79.6909 62.1735 35.3548 81.0468C-2.38845 97.1135 -15.6553 158.896 24.3528 201.255C67.3914 246.822 150.624 247.826 198.138 247.821Z" transform="matrix(0.9659258 -0.25881904 0.25881904 0.9659258 0.12509918 94.37209)" id="Oval" fill="#ADDCE1" fill-rule="evenodd" stroke="none" />
    </g>
    <path d="M3.34397 0C10.2574 2.55266 14.5872 7.45359 16.6286 14.3636C16.805 14.9898 16.5184 15.8248 16.245 16.4771C15.4955 18.3209 14.089 18.8384 12.4444 17.686C7.44444 14.1375 2.72229 10.2454 0.0988735 4.59218C-0.333218 3.65722 0.75142 1.91776 1.41279 0.687087C1.64206 0.247873 2.6782 0.217433 3.34397 0" transform="matrix(1.1924881E-08 1 -1 1.1924881E-08 117.48303 378.3623)" id="Fill-245" fill="#9FA2A1" fill-rule="evenodd" stroke="none" />
    <path d="M24.6829 19.4185C23.9396 20.704 23.2292 22.6865 22.7555 22.6091C14.8094 21.3003 7.15262 18.7989 1.62714 11.4109C0.344438 9.70722 -0.359403 6.26104 0.186567 4.15462C0.673336 2.30375 3.39003 -0.189887 4.90296 0.0114628C15.0067 1.38219 20.7624 9.2658 24.6829 19.4185" transform="matrix(0.9659258 -0.25881904 0.25881904 0.9659258 0 183.17896)" id="Fill-247" fill="#9FA2A1" fill-rule="evenodd" stroke="none" />
    <path d="M13.5708 10.7471C13.1586 11.4167 12.8758 12.4793 12.2959 12.6783C10.882 13.1683 9.09906 13.8913 7.85771 13.4304C3.76941 11.9213 0.888902 8.86922 0.030981 4.48275C-0.203869 3.27938 0.946416 1.64416 1.79475 0.445641C2.10149 -0.00076951 3.66876 -0.165747 4.12887 0.203027C7.27777 2.7893 10.3356 5.49202 13.2832 8.3015C13.7433 8.73335 13.4941 9.91246 13.5708 10.7471" transform="translate(99.012695 0)" id="Fill-261" fill="#9FA2A1" fill-rule="evenodd" stroke="none" />
  </g>
</svg>