<?xml version="1.0" encoding="utf-8"?>
<svg width="92px" height="107px" viewBox="0 0 92 107" version="1.1" xmlns:xlink="http://www.w3.org/1999/xlink" xmlns="http://www.w3.org/2000/svg">
  <g id="Group-21" transform="matrix(0.9848077 0.17364818 -0.17364818 0.9848077 16.496582 0)">
    <path d="M18 12.0231C17.4578 12.819 16.9397 14.0466 16.599 13.9986C10.7985 13.1883 5.21861 11.6443 1.18364 7.06495C0.257665 6.01004 -0.260499 3.87622 0.132922 2.57676C0.48796 1.42594 2.47906 -0.113281 3.57296 0.00659615C10.9472 0.86012 15.1405 5.73672 18 12.0231" transform="translate(0.5653291 80.75703)" id="Fill-305" fill="#363636" fill-rule="evenodd" stroke="none" />
    <path d="M7.91979 6.5476C7.15179 7.37475 6.47512 8.28822 5.55767 8.95713C5.30443 9.14054 4.22923 8.6982 3.71862 8.33497C1.53915 6.82811 -0.569734 5.14503 0.140148 2.43701C0.376775 1.51995 1.5184 0.696389 2.4483 0.0454556C2.70984 -0.141553 3.78089 0.286409 4.30396 0.638848C6.52078 2.12413 8.41795 3.79642 7.91979 6.5476" transform="translate(1.8961873 16.378126)" id="Fill-291" fill="#363636" fill-rule="evenodd" stroke="none" />
    <path d="M10.6816 12.0669C9.4788 13.0484 8.45327 14.4941 7.09229 14.8257C5.66422 15.1882 3.02373 14.9937 2.47263 14.1625C-0.230163 10.0287 -1.064 5.53674 1.73942 1.04922C2.06529 0.523095 3.02373 -0.0649254 3.60358 0.00581389C5.17063 0.191505 7.30315 0.262244 8.11782 1.18628C10.8925 4.31207 11.458 8.12315 10.6816 12.0669" transform="translate(64.5538 0.034555428)" id="Fill-255" fill="#363636" fill-rule="evenodd" stroke="none" />
  </g>
</svg>