<?xml version="1.0" encoding="utf-8"?>
<svg width="1795px" height="78px" viewBox="0 0 1795 78" version="1.1" xmlns:xlink="http://www.w3.org/1999/xlink" xmlns="http://www.w3.org/2000/svg">
  <defs>
    <rect width="1795" height="77.80005" id="slice_1" />
    <clipPath id="clip_1">
      <use xlink:href="#slice_1" clip-rule="evenodd" />
    </clipPath>
  </defs>
  <g id="Slice-2" clip-path="url(#clip_1)">
    <use xlink:href="#slice_1" stroke="none" fill="none" />
    <path d="M1884.54 80.165C1884.54 80.165 1901.72 33.9502 1884.54 34.4949C1881.03 34.5996 1877.53 34.8091 1874.03 34.9348C1869.12 30.8496 1862.67 31.2896 1857.65 35.5843C1799.36 37.763 1741.08 40.7379 1682.8 43.4194C1639.82 45.4096 1606.95 47.4836 1565.96 19.3274C1545.66 5.354 1471.17 0.2387 1448.1 0.2387C1297.76 0.2387 1230.02 -2.06776 1095.26 7.65845C1085.2 8.38442 1080.24 28.8804 1086.7 40.8007C971.66 44.006 856.603 45.4934 741.559 49.5157C740.385 46.8761 738.674 44.9697 736.401 45.0325C645.642 47.1903 554.564 68.2866 464.147 83.5588C473.545 61.436 472.402 59.6763 479.295 34.4949C482.595 22.4279 462.955 18.9503 454.192 19.3274C308.739 25.8636 194.465 5.62118 49 0.71898C36.5459 0.299989 31.3825 19.2436 43.6043 20.6472C48.8231 21.2547 54.054 21.6947 59.285 22.2603C57.3057 157.802 53.7264 293.191 49.0197 428.468C43.5832 584.72 36.6425 740.824 28.9259 896.843C21.9472 1037.6 12.4019 1177.76 4.01769 1318.26C-2.86323 1433.49 -3.44988 1540.98 23.1205 1648.83C24.8926 1655.97 31.649 1709.22 36 1708.72C219.634 1687.17 383.63 1721 566 1725.72C881.278 1733.88 1087.26 1691.98 1412 1695.72C1516.89 1696.93 1856.04 1715.95 1894 1688.72C1918.74 1671 1912.92 1412.62 1917.41 1318.03C1937.14 904.301 1915.8 490.295 1883.29 80.2069L1884.54 80.165Z" transform="matrix(1 -1.7484555E-07 1.7484555E-07 1 -70 -1648.9995)" id="Fill-111" fill="#DFF1EE" fill-rule="evenodd" stroke="none" />
  </g>
</svg>