<?xml version="1.0" encoding="utf-8"?>
<svg width="197px" height="181px" viewBox="0 0 197 181" version="1.1" xmlns:xlink="http://www.w3.org/1999/xlink" xmlns="http://www.w3.org/2000/svg">
  <g id="Bg-Shape" transform="translate(0.5 0.5)">
    <path d="M1 2C1.55228 2 2 1.55228 2 1C2 0.447715 1.55228 0 1 0C0.447715 0 0 0.447715 0 1C0 1.55228 0.447715 2 1 2Z" transform="matrix(-3.577464E-08 -1 1 -3.577464E-08 0 180)" id="Oval" fill="#9A9A9A" stroke="none" />
    <path d="M1 2C1.55228 2 2 1.55228 2 1C2 0.447715 1.55228 0 1 0C0.447715 0 0 0.447715 0 1C0 1.55228 0.447715 2 1 2Z" transform="matrix(-3.577464E-08 -1 1 -3.577464E-08 0 162)" id="Oval" fill="#9A9A9A" stroke="none" />
    <path d="M1 2C1.55228 2 2 1.55228 2 1C2 0.447715 1.55228 0 1 0C0.447715 0 0 0.447715 0 1C0 1.55228 0.447715 2 1 2Z" transform="matrix(-3.577464E-08 -1 1 -3.577464E-08 0 145)" id="Oval" fill="#9A9A9A" stroke="none" />
    <path d="M1 2C1.55228 2 2 1.55228 2 1C2 0.447715 1.55228 0 1 0C0.447715 0 0 0.447715 0 1C0 1.55228 0.447715 2 1 2Z" transform="matrix(-3.577464E-08 -1 1 -3.577464E-08 0 127)" id="Oval" fill="#9A9A9A" stroke="none" />
    <path d="M1 2C1.55228 2 2 1.55228 2 1C2 0.447715 1.55228 0 1 0C0.447715 0 0 0.447715 0 1C0 1.55228 0.447715 2 1 2Z" transform="matrix(-3.577464E-08 -1 1 -3.577464E-08 0 109)" id="Oval" fill="#9A9A9A" stroke="none" />
    <path d="M1 2C1.55228 2 2 1.55228 2 1C2 0.447715 1.55228 0 1 0C0.447715 0 0 0.447715 0 1C0 1.55228 0.447715 2 1 2Z" transform="matrix(-3.577464E-08 -1 1 -3.577464E-08 0 91)" id="Oval" fill="#9A9A9A" stroke="none" />
    <path d="M1 2C1.55228 2 2 1.55228 2 1C2 0.447715 1.55228 0 1 0C0.447715 0 0 0.447715 0 1C0 1.55228 0.447715 2 1 2Z" transform="matrix(-3.577464E-08 -1 1 -3.577464E-08 0 73)" id="Oval" fill="#9A9A9A" stroke="none" />
    <path d="M1 2C1.55228 2 2 1.55228 2 1C2 0.447715 1.55228 0 1 0C0.447715 0 0 0.447715 0 1C0 1.55228 0.447715 2 1 2Z" transform="matrix(-3.577464E-08 -1 1 -3.577464E-08 0 55)" id="Oval" fill="#9A9A9A" stroke="none" />
    <path d="M1 2C1.55228 2 2 1.55228 2 1C2 0.447715 1.55228 0 1 0C0.447715 0 0 0.447715 0 1C0 1.55228 0.447715 2 1 2Z" transform="matrix(-3.577464E-08 -1 1 -3.577464E-08 0 38)" id="Oval" fill="#9A9A9A" stroke="none" />
    <path d="M1 2C1.55228 2 2 1.55228 2 1C2 0.447715 1.55228 0 1 0C0.447715 0 0 0.447715 0 1C0 1.55228 0.447715 2 1 2Z" transform="matrix(-3.577464E-08 -1 1 -3.577464E-08 0 20)" id="Oval" fill="#9A9A9A" stroke="none" />
    <path d="M1 2C1.55228 2 2 1.55228 2 1C2 0.447715 1.55228 0 1 0C0.447715 0 0 0.447715 0 1C0 1.55228 0.447715 2 1 2Z" transform="matrix(-3.577464E-08 -1 1 -3.577464E-08 0 2)" id="Oval" fill="#9A9A9A" stroke="none" />
    <path d="M1 2C1.55228 2 2 1.55228 2 1C2 0.447715 1.55228 0 1 0C0.447715 0 0 0.447715 0 1C0 1.55228 0.447715 2 1 2Z" transform="matrix(-3.577464E-08 -1 1 -3.577464E-08 17 180)" id="Oval" fill="#9A9A9A" stroke="none" />
    <path d="M1 2C1.55228 2 2 1.55228 2 1C2 0.447715 1.55228 0 1 0C0.447715 0 0 0.447715 0 1C0 1.55228 0.447715 2 1 2Z" transform="matrix(-3.577464E-08 -1 1 -3.577464E-08 17 162)" id="Oval" fill="#9A9A9A" stroke="none" />
    <path d="M1 2C1.55228 2 2 1.55228 2 1C2 0.447715 1.55228 0 1 0C0.447715 0 0 0.447715 0 1C0 1.55228 0.447715 2 1 2Z" transform="matrix(-3.577464E-08 -1 1 -3.577464E-08 17 145)" id="Oval" fill="#9A9A9A" stroke="none" />
    <path d="M1 2C1.55228 2 2 1.55228 2 1C2 0.447715 1.55228 0 1 0C0.447715 0 0 0.447715 0 1C0 1.55228 0.447715 2 1 2Z" transform="matrix(-3.577464E-08 -1 1 -3.577464E-08 17 127)" id="Oval" fill="#9A9A9A" stroke="none" />
    <path d="M1 2C1.55228 2 2 1.55228 2 1C2 0.447715 1.55228 0 1 0C0.447715 0 0 0.447715 0 1C0 1.55228 0.447715 2 1 2Z" transform="matrix(-3.577464E-08 -1 1 -3.577464E-08 17 109)" id="Oval" fill="#9A9A9A" stroke="none" />
    <path d="M1 2C1.55228 2 2 1.55228 2 1C2 0.447715 1.55228 0 1 0C0.447715 0 0 0.447715 0 1C0 1.55228 0.447715 2 1 2Z" transform="matrix(-3.577464E-08 -1 1 -3.577464E-08 17 91)" id="Oval" fill="#9A9A9A" stroke="none" />
    <path d="M1 2C1.55228 2 2 1.55228 2 1C2 0.447715 1.55228 0 1 0C0.447715 0 0 0.447715 0 1C0 1.55228 0.447715 2 1 2Z" transform="matrix(-3.577464E-08 -1 1 -3.577464E-08 17 73)" id="Oval" fill="#9A9A9A" stroke="none" />
    <path d="M1 2C1.55228 2 2 1.55228 2 1C2 0.447715 1.55228 0 1 0C0.447715 0 0 0.447715 0 1C0 1.55228 0.447715 2 1 2Z" transform="matrix(-3.577464E-08 -1 1 -3.577464E-08 17 55)" id="Oval" fill="#9A9A9A" stroke="none" />
    <path d="M1 2C1.55228 2 2 1.55228 2 1C2 0.447715 1.55228 0 1 0C0.447715 0 0 0.447715 0 1C0 1.55228 0.447715 2 1 2Z" transform="matrix(-3.577464E-08 -1 1 -3.577464E-08 17 38)" id="Oval" fill="#9A9A9A" stroke="none" />
    <path d="M1 2C1.55228 2 2 1.55228 2 1C2 0.447715 1.55228 0 1 0C0.447715 0 0 0.447715 0 1C0 1.55228 0.447715 2 1 2Z" transform="matrix(-3.577464E-08 -1 1 -3.577464E-08 17 20)" id="Oval" fill="#9A9A9A" stroke="none" />
    <path d="M1 2C1.55228 2 2 1.55228 2 1C2 0.447715 1.55228 0 1 0C0.447715 0 0 0.447715 0 1C0 1.55228 0.447715 2 1 2Z" transform="matrix(-3.577464E-08 -1 1 -3.577464E-08 17 2)" id="Oval" fill="#9A9A9A" stroke="none" />
    <path d="M1 2C1.55228 2 2 1.55228 2 1C2 0.447715 1.55228 0 1 0C0.447715 0 0 0.447715 0 1C0 1.55228 0.447715 2 1 2Z" transform="matrix(-3.577464E-08 -1 1 -3.577464E-08 35 180)" id="Oval" fill="#9A9A9A" stroke="none" />
    <path d="M1 2C1.55228 2 2 1.55228 2 1C2 0.447715 1.55228 0 1 0C0.447715 0 0 0.447715 0 1C0 1.55228 0.447715 2 1 2Z" transform="matrix(-3.577464E-08 -1 1 -3.577464E-08 35 162)" id="Oval" fill="#9A9A9A" stroke="none" />
    <path d="M1 2C1.55228 2 2 1.55228 2 1C2 0.447715 1.55228 0 1 0C0.447715 0 0 0.447715 0 1C0 1.55228 0.447715 2 1 2Z" transform="matrix(-3.577464E-08 -1 1 -3.577464E-08 35 145)" id="Oval" fill="#9A9A9A" stroke="none" />
    <path d="M1 2C1.55228 2 2 1.55228 2 1C2 0.447715 1.55228 0 1 0C0.447715 0 0 0.447715 0 1C0 1.55228 0.447715 2 1 2Z" transform="matrix(-3.577464E-08 -1 1 -3.577464E-08 35 127)" id="Oval" fill="#9A9A9A" stroke="none" />
    <path d="M1 2C1.55228 2 2 1.55228 2 1C2 0.447715 1.55228 0 1 0C0.447715 0 0 0.447715 0 1C0 1.55228 0.447715 2 1 2Z" transform="matrix(-3.577464E-08 -1 1 -3.577464E-08 35 109)" id="Oval" fill="#9A9A9A" stroke="none" />
    <path d="M1 2C1.55228 2 2 1.55228 2 1C2 0.447715 1.55228 0 1 0C0.447715 0 0 0.447715 0 1C0 1.55228 0.447715 2 1 2Z" transform="matrix(-3.577464E-08 -1 1 -3.577464E-08 35 91)" id="Oval" fill="#9A9A9A" stroke="none" />
    <path d="M1 2C1.55228 2 2 1.55228 2 1C2 0.447715 1.55228 0 1 0C0.447715 0 0 0.447715 0 1C0 1.55228 0.447715 2 1 2Z" transform="matrix(-3.577464E-08 -1 1 -3.577464E-08 35 73)" id="Oval" fill="#9A9A9A" stroke="none" />
    <path d="M1 2C1.55228 2 2 1.55228 2 1C2 0.447715 1.55228 0 1 0C0.447715 0 0 0.447715 0 1C0 1.55228 0.447715 2 1 2Z" transform="matrix(-3.577464E-08 -1 1 -3.577464E-08 35 55)" id="Oval" fill="#9A9A9A" stroke="none" />
    <path d="M1 2C1.55228 2 2 1.55228 2 1C2 0.447715 1.55228 0 1 0C0.447715 0 0 0.447715 0 1C0 1.55228 0.447715 2 1 2Z" transform="matrix(-3.577464E-08 -1 1 -3.577464E-08 35 38)" id="Oval" fill="#9A9A9A" stroke="none" />
    <path d="M1 2C1.55228 2 2 1.55228 2 1C2 0.447715 1.55228 0 1 0C0.447715 0 0 0.447715 0 1C0 1.55228 0.447715 2 1 2Z" transform="matrix(-3.577464E-08 -1 1 -3.577464E-08 35 20)" id="Oval" fill="#9A9A9A" stroke="none" />
    <path d="M1 2C1.55228 2 2 1.55228 2 1C2 0.447715 1.55228 0 1 0C0.447715 0 0 0.447715 0 1C0 1.55228 0.447715 2 1 2Z" transform="matrix(-3.577464E-08 -1 1 -3.577464E-08 35 2)" id="Oval" fill="#9A9A9A" stroke="none" />
    <path d="M1 2C1.55228 2 2 1.55228 2 1C2 0.447715 1.55228 0 1 0C0.447715 0 0 0.447715 0 1C0 1.55228 0.447715 2 1 2Z" transform="matrix(-3.577464E-08 -1 1 -3.577464E-08 53 180)" id="Oval" fill="#9A9A9A" stroke="none" />
    <path d="M1 2C1.55228 2 2 1.55228 2 1C2 0.447715 1.55228 0 1 0C0.447715 0 0 0.447715 0 1C0 1.55228 0.447715 2 1 2Z" transform="matrix(-3.577464E-08 -1 1 -3.577464E-08 53 162)" id="Oval" fill="#9A9A9A" stroke="none" />
    <path d="M1 2C1.55228 2 2 1.55228 2 1C2 0.447715 1.55228 0 1 0C0.447715 0 0 0.447715 0 1C0 1.55228 0.447715 2 1 2Z" transform="matrix(-3.577464E-08 -1 1 -3.577464E-08 53 145)" id="Oval" fill="#9A9A9A" stroke="none" />
    <path d="M1 2C1.55228 2 2 1.55228 2 1C2 0.447715 1.55228 0 1 0C0.447715 0 0 0.447715 0 1C0 1.55228 0.447715 2 1 2Z" transform="matrix(-3.577464E-08 -1 1 -3.577464E-08 53 127)" id="Oval" fill="#9A9A9A" stroke="none" />
    <path d="M1 2C1.55228 2 2 1.55228 2 1C2 0.447715 1.55228 0 1 0C0.447715 0 0 0.447715 0 1C0 1.55228 0.447715 2 1 2Z" transform="matrix(-3.577464E-08 -1 1 -3.577464E-08 53 109)" id="Oval" fill="#9A9A9A" stroke="none" />
    <path d="M1 2C1.55228 2 2 1.55228 2 1C2 0.447715 1.55228 0 1 0C0.447715 0 0 0.447715 0 1C0 1.55228 0.447715 2 1 2Z" transform="matrix(-3.577464E-08 -1 1 -3.577464E-08 53 91)" id="Oval" fill="#9A9A9A" stroke="none" />
    <path d="M1 2C1.55228 2 2 1.55228 2 1C2 0.447715 1.55228 0 1 0C0.447715 0 0 0.447715 0 1C0 1.55228 0.447715 2 1 2Z" transform="matrix(-3.577464E-08 -1 1 -3.577464E-08 53 73)" id="Oval" fill="#9A9A9A" stroke="none" />
    <path d="M1 2C1.55228 2 2 1.55228 2 1C2 0.447715 1.55228 0 1 0C0.447715 0 0 0.447715 0 1C0 1.55228 0.447715 2 1 2Z" transform="matrix(-3.577464E-08 -1 1 -3.577464E-08 53 55)" id="Oval" fill="#9A9A9A" stroke="none" />
    <path d="M1 2C1.55228 2 2 1.55228 2 1C2 0.447715 1.55228 0 1 0C0.447715 0 0 0.447715 0 1C0 1.55228 0.447715 2 1 2Z" transform="matrix(-3.577464E-08 -1 1 -3.577464E-08 53 38)" id="Oval" fill="#9A9A9A" stroke="none" />
    <path d="M1 2C1.55228 2 2 1.55228 2 1C2 0.447715 1.55228 0 1 0C0.447715 0 0 0.447715 0 1C0 1.55228 0.447715 2 1 2Z" transform="matrix(-3.577464E-08 -1 1 -3.577464E-08 53 20)" id="Oval" fill="#9A9A9A" stroke="none" />
    <path d="M1 2C1.55228 2 2 1.55228 2 1C2 0.447715 1.55228 0 1 0C0.447715 0 0 0.447715 0 1C0 1.55228 0.447715 2 1 2Z" transform="matrix(-3.577464E-08 -1 1 -3.577464E-08 53 2)" id="Oval" fill="#9A9A9A" stroke="none" />
    <path d="M1 2C1.55228 2 2 1.55228 2 1C2 0.447715 1.55228 0 1 0C0.447715 0 0 0.447715 0 1C0 1.55228 0.447715 2 1 2Z" transform="matrix(-3.577464E-08 -1 1 -3.577464E-08 71 180)" id="Oval" fill="#9A9A9A" stroke="none" />
    <path d="M1 2C1.55228 2 2 1.55228 2 1C2 0.447715 1.55228 0 1 0C0.447715 0 0 0.447715 0 1C0 1.55228 0.447715 2 1 2Z" transform="matrix(-3.577464E-08 -1 1 -3.577464E-08 71 162)" id="Oval" fill="#9A9A9A" stroke="none" />
    <path d="M1 2C1.55228 2 2 1.55228 2 1C2 0.447715 1.55228 0 1 0C0.447715 0 0 0.447715 0 1C0 1.55228 0.447715 2 1 2Z" transform="matrix(-3.577464E-08 -1 1 -3.577464E-08 71 145)" id="Oval" fill="#9A9A9A" stroke="none" />
    <path d="M1 2C1.55228 2 2 1.55228 2 1C2 0.447715 1.55228 0 1 0C0.447715 0 0 0.447715 0 1C0 1.55228 0.447715 2 1 2Z" transform="matrix(-3.577464E-08 -1 1 -3.577464E-08 71 127)" id="Oval" fill="#9A9A9A" stroke="none" />
    <path d="M1 2C1.55228 2 2 1.55228 2 1C2 0.447715 1.55228 0 1 0C0.447715 0 0 0.447715 0 1C0 1.55228 0.447715 2 1 2Z" transform="matrix(-3.577464E-08 -1 1 -3.577464E-08 71 109)" id="Oval" fill="#9A9A9A" stroke="none" />
    <path d="M1 2C1.55228 2 2 1.55228 2 1C2 0.447715 1.55228 0 1 0C0.447715 0 0 0.447715 0 1C0 1.55228 0.447715 2 1 2Z" transform="matrix(-3.577464E-08 -1 1 -3.577464E-08 71 91)" id="Oval" fill="#9A9A9A" stroke="none" />
    <path d="M1 2C1.55228 2 2 1.55228 2 1C2 0.447715 1.55228 0 1 0C0.447715 0 0 0.447715 0 1C0 1.55228 0.447715 2 1 2Z" transform="matrix(-3.577464E-08 -1 1 -3.577464E-08 71 73)" id="Oval" fill="#9A9A9A" stroke="none" />
    <path d="M1 2C1.55228 2 2 1.55228 2 1C2 0.447715 1.55228 0 1 0C0.447715 0 0 0.447715 0 1C0 1.55228 0.447715 2 1 2Z" transform="matrix(-3.577464E-08 -1 1 -3.577464E-08 71 55)" id="Oval" fill="#9A9A9A" stroke="none" />
    <path d="M1 2C1.55228 2 2 1.55228 2 1C2 0.447715 1.55228 0 1 0C0.447715 0 0 0.447715 0 1C0 1.55228 0.447715 2 1 2Z" transform="matrix(-3.577464E-08 -1 1 -3.577464E-08 71 38)" id="Oval" fill="#9A9A9A" stroke="none" />
    <path d="M1 2C1.55228 2 2 1.55228 2 1C2 0.447715 1.55228 0 1 0C0.447715 0 0 0.447715 0 1C0 1.55228 0.447715 2 1 2Z" transform="matrix(-3.577464E-08 -1 1 -3.577464E-08 71 20)" id="Oval" fill="#9A9A9A" stroke="none" />
    <path d="M1 2C1.55228 2 2 1.55228 2 1C2 0.447715 1.55228 0 1 0C0.447715 0 0 0.447715 0 1C0 1.55228 0.447715 2 1 2Z" transform="matrix(-3.577464E-08 -1 1 -3.577464E-08 71 2)" id="Oval" fill="#9A9A9A" stroke="none" />
    <path d="M1 2C1.55228 2 2 1.55228 2 1C2 0.447715 1.55228 0 1 0C0.447715 0 0 0.447715 0 1C0 1.55228 0.447715 2 1 2Z" transform="matrix(-3.577464E-08 -1 1 -3.577464E-08 89 180)" id="Oval" fill="#9A9A9A" stroke="none" />
    <path d="M1 2C1.55228 2 2 1.55228 2 1C2 0.447715 1.55228 0 1 0C0.447715 0 0 0.447715 0 1C0 1.55228 0.447715 2 1 2Z" transform="matrix(-3.577464E-08 -1 1 -3.577464E-08 89 162)" id="Oval" fill="#9A9A9A" stroke="none" />
    <path d="M1 2C1.55228 2 2 1.55228 2 1C2 0.447715 1.55228 0 1 0C0.447715 0 0 0.447715 0 1C0 1.55228 0.447715 2 1 2Z" transform="matrix(-3.577464E-08 -1 1 -3.577464E-08 89 145)" id="Oval" fill="#9A9A9A" stroke="none" />
    <path d="M1 2C1.55228 2 2 1.55228 2 1C2 0.447715 1.55228 0 1 0C0.447715 0 0 0.447715 0 1C0 1.55228 0.447715 2 1 2Z" transform="matrix(-3.577464E-08 -1 1 -3.577464E-08 89 127)" id="Oval" fill="#9A9A9A" stroke="none" />
    <path d="M1 2C1.55228 2 2 1.55228 2 1C2 0.447715 1.55228 0 1 0C0.447715 0 0 0.447715 0 1C0 1.55228 0.447715 2 1 2Z" transform="matrix(-3.577464E-08 -1 1 -3.577464E-08 89 109)" id="Oval" fill="#9A9A9A" stroke="none" />
    <path d="M1 2C1.55228 2 2 1.55228 2 1C2 0.447715 1.55228 0 1 0C0.447715 0 0 0.447715 0 1C0 1.55228 0.447715 2 1 2Z" transform="matrix(-3.577464E-08 -1 1 -3.577464E-08 89 91)" id="Oval" fill="#9A9A9A" stroke="none" />
    <path d="M1 2C1.55228 2 2 1.55228 2 1C2 0.447715 1.55228 0 1 0C0.447715 0 0 0.447715 0 1C0 1.55228 0.447715 2 1 2Z" transform="matrix(-3.577464E-08 -1 1 -3.577464E-08 89 73)" id="Oval" fill="#9A9A9A" stroke="none" />
    <path d="M1 2C1.55228 2 2 1.55228 2 1C2 0.447715 1.55228 0 1 0C0.447715 0 0 0.447715 0 1C0 1.55228 0.447715 2 1 2Z" transform="matrix(-3.577464E-08 -1 1 -3.577464E-08 89 55)" id="Oval" fill="#9A9A9A" stroke="none" />
    <path d="M1 2C1.55228 2 2 1.55228 2 1C2 0.447715 1.55228 0 1 0C0.447715 0 0 0.447715 0 1C0 1.55228 0.447715 2 1 2Z" transform="matrix(-3.577464E-08 -1 1 -3.577464E-08 89 38)" id="Oval" fill="#9A9A9A" stroke="none" />
    <path d="M1 2C1.55228 2 2 1.55228 2 1C2 0.447715 1.55228 0 1 0C0.447715 0 0 0.447715 0 1C0 1.55228 0.447715 2 1 2Z" transform="matrix(-3.577464E-08 -1 1 -3.577464E-08 89 20)" id="Oval" fill="#9A9A9A" stroke="none" />
    <path d="M1 2C1.55228 2 2 1.55228 2 1C2 0.447715 1.55228 0 1 0C0.447715 0 0 0.447715 0 1C0 1.55228 0.447715 2 1 2Z" transform="matrix(-3.577464E-08 -1 1 -3.577464E-08 89 2)" id="Oval" fill="#9A9A9A" stroke="none" />
    <path d="M1 2C1.55228 2 2 1.55228 2 1C2 0.447715 1.55228 0 1 0C0.447715 0 0 0.447715 0 1C0 1.55228 0.447715 2 1 2Z" transform="matrix(-3.577464E-08 -1 1 -3.577464E-08 107 180)" id="Oval" fill="#9A9A9A" stroke="none" />
    <path d="M1 2C1.55228 2 2 1.55228 2 1C2 0.447715 1.55228 0 1 0C0.447715 0 0 0.447715 0 1C0 1.55228 0.447715 2 1 2Z" transform="matrix(-3.577464E-08 -1 1 -3.577464E-08 107 162)" id="Oval" fill="#9A9A9A" stroke="none" />
    <path d="M1 2C1.55228 2 2 1.55228 2 1C2 0.447715 1.55228 0 1 0C0.447715 0 0 0.447715 0 1C0 1.55228 0.447715 2 1 2Z" transform="matrix(-3.577464E-08 -1 1 -3.577464E-08 107 145)" id="Oval" fill="#9A9A9A" stroke="none" />
    <path d="M1 2C1.55228 2 2 1.55228 2 1C2 0.447715 1.55228 0 1 0C0.447715 0 0 0.447715 0 1C0 1.55228 0.447715 2 1 2Z" transform="matrix(-3.577464E-08 -1 1 -3.577464E-08 107 127)" id="Oval" fill="#9A9A9A" stroke="none" />
    <path d="M1 2C1.55228 2 2 1.55228 2 1C2 0.447715 1.55228 0 1 0C0.447715 0 0 0.447715 0 1C0 1.55228 0.447715 2 1 2Z" transform="matrix(-3.577464E-08 -1 1 -3.577464E-08 107 109)" id="Oval" fill="#9A9A9A" stroke="none" />
    <path d="M1 2C1.55228 2 2 1.55228 2 1C2 0.447715 1.55228 0 1 0C0.447715 0 0 0.447715 0 1C0 1.55228 0.447715 2 1 2Z" transform="matrix(-3.577464E-08 -1 1 -3.577464E-08 107 91)" id="Oval" fill="#9A9A9A" stroke="none" />
    <path d="M1 2C1.55228 2 2 1.55228 2 1C2 0.447715 1.55228 0 1 0C0.447715 0 0 0.447715 0 1C0 1.55228 0.447715 2 1 2Z" transform="matrix(-3.577464E-08 -1 1 -3.577464E-08 107 73)" id="Oval" fill="#9A9A9A" stroke="none" />
    <path d="M1 2C1.55228 2 2 1.55228 2 1C2 0.447715 1.55228 0 1 0C0.447715 0 0 0.447715 0 1C0 1.55228 0.447715 2 1 2Z" transform="matrix(-3.577464E-08 -1 1 -3.577464E-08 107 55)" id="Oval" fill="#9A9A9A" stroke="none" />
    <path d="M1 2C1.55228 2 2 1.55228 2 1C2 0.447715 1.55228 0 1 0C0.447715 0 0 0.447715 0 1C0 1.55228 0.447715 2 1 2Z" transform="matrix(-3.577464E-08 -1 1 -3.577464E-08 107 38)" id="Oval" fill="#9A9A9A" stroke="none" />
    <path d="M1 2C1.55228 2 2 1.55228 2 1C2 0.447715 1.55228 0 1 0C0.447715 0 0 0.447715 0 1C0 1.55228 0.447715 2 1 2Z" transform="matrix(-3.577464E-08 -1 1 -3.577464E-08 107 20)" id="Oval" fill="#9A9A9A" stroke="none" />
    <path d="M1 2C1.55228 2 2 1.55228 2 1C2 0.447715 1.55228 0 1 0C0.447715 0 0 0.447715 0 1C0 1.55228 0.447715 2 1 2Z" transform="matrix(-3.577464E-08 -1 1 -3.577464E-08 107 2)" id="Oval" fill="#9A9A9A" stroke="none" />
    <path d="M1 2C1.55228 2 2 1.55228 2 1C2 0.447715 1.55228 0 1 0C0.447715 0 0 0.447715 0 1C0 1.55228 0.447715 2 1 2Z" transform="matrix(-3.577464E-08 -1 1 -3.577464E-08 124 180)" id="Oval" fill="#9A9A9A" stroke="none" />
    <path d="M1 2C1.55228 2 2 1.55228 2 1C2 0.447715 1.55228 0 1 0C0.447715 0 0 0.447715 0 1C0 1.55228 0.447715 2 1 2Z" transform="matrix(-3.577464E-08 -1 1 -3.577464E-08 124 162)" id="Oval" fill="#9A9A9A" stroke="none" />
    <path d="M1 2C1.55228 2 2 1.55228 2 1C2 0.447715 1.55228 0 1 0C0.447715 0 0 0.447715 0 1C0 1.55228 0.447715 2 1 2Z" transform="matrix(-3.577464E-08 -1 1 -3.577464E-08 124 145)" id="Oval" fill="#9A9A9A" stroke="none" />
    <path d="M1 2C1.55228 2 2 1.55228 2 1C2 0.447715 1.55228 0 1 0C0.447715 0 0 0.447715 0 1C0 1.55228 0.447715 2 1 2Z" transform="matrix(-3.577464E-08 -1 1 -3.577464E-08 124 127)" id="Oval" fill="#9A9A9A" stroke="none" />
    <path d="M1 2C1.55228 2 2 1.55228 2 1C2 0.447715 1.55228 0 1 0C0.447715 0 0 0.447715 0 1C0 1.55228 0.447715 2 1 2Z" transform="matrix(-3.577464E-08 -1 1 -3.577464E-08 124 109)" id="Oval" fill="#9A9A9A" stroke="none" />
    <path d="M1 2C1.55228 2 2 1.55228 2 1C2 0.447715 1.55228 0 1 0C0.447715 0 0 0.447715 0 1C0 1.55228 0.447715 2 1 2Z" transform="matrix(-3.577464E-08 -1 1 -3.577464E-08 124 91)" id="Oval" fill="#9A9A9A" stroke="none" />
    <path d="M1 2C1.55228 2 2 1.55228 2 1C2 0.447715 1.55228 0 1 0C0.447715 0 0 0.447715 0 1C0 1.55228 0.447715 2 1 2Z" transform="matrix(-3.577464E-08 -1 1 -3.577464E-08 124 73)" id="Oval" fill="#9A9A9A" stroke="none" />
    <path d="M1 2C1.55228 2 2 1.55228 2 1C2 0.447715 1.55228 0 1 0C0.447715 0 0 0.447715 0 1C0 1.55228 0.447715 2 1 2Z" transform="matrix(-3.577464E-08 -1 1 -3.577464E-08 124 55)" id="Oval" fill="#9A9A9A" stroke="none" />
    <path d="M1 2C1.55228 2 2 1.55228 2 1C2 0.447715 1.55228 0 1 0C0.447715 0 0 0.447715 0 1C0 1.55228 0.447715 2 1 2Z" transform="matrix(-3.577464E-08 -1 1 -3.577464E-08 124 38)" id="Oval" fill="#9A9A9A" stroke="none" />
    <path d="M1 2C1.55228 2 2 1.55228 2 1C2 0.447715 1.55228 0 1 0C0.447715 0 0 0.447715 0 1C0 1.55228 0.447715 2 1 2Z" transform="matrix(-3.577464E-08 -1 1 -3.577464E-08 124 20)" id="Oval" fill="#9A9A9A" stroke="none" />
    <path d="M1 2C1.55228 2 2 1.55228 2 1C2 0.447715 1.55228 0 1 0C0.447715 0 0 0.447715 0 1C0 1.55228 0.447715 2 1 2Z" transform="matrix(-3.577464E-08 -1 1 -3.577464E-08 124 2)" id="Oval" fill="#9A9A9A" stroke="none" />
    <path d="M1 2C1.55228 2 2 1.55228 2 1C2 0.447715 1.55228 0 1 0C0.447715 0 0 0.447715 0 1C0 1.55228 0.447715 2 1 2Z" transform="matrix(-3.577464E-08 -1 1 -3.577464E-08 141 180)" id="Oval" fill="#9A9A9A" stroke="none" />
    <path d="M1 2C1.55228 2 2 1.55228 2 1C2 0.447715 1.55228 0 1 0C0.447715 0 0 0.447715 0 1C0 1.55228 0.447715 2 1 2Z" transform="matrix(-3.577464E-08 -1 1 -3.577464E-08 141 162)" id="Oval" fill="#9A9A9A" stroke="none" />
    <path d="M1 2C1.55228 2 2 1.55228 2 1C2 0.447715 1.55228 0 1 0C0.447715 0 0 0.447715 0 1C0 1.55228 0.447715 2 1 2Z" transform="matrix(-3.577464E-08 -1 1 -3.577464E-08 141 145)" id="Oval" fill="#9A9A9A" stroke="none" />
    <path d="M1 2C1.55228 2 2 1.55228 2 1C2 0.447715 1.55228 0 1 0C0.447715 0 0 0.447715 0 1C0 1.55228 0.447715 2 1 2Z" transform="matrix(-3.577464E-08 -1 1 -3.577464E-08 141 127)" id="Oval" fill="#9A9A9A" stroke="none" />
    <path d="M1 2C1.55228 2 2 1.55228 2 1C2 0.447715 1.55228 0 1 0C0.447715 0 0 0.447715 0 1C0 1.55228 0.447715 2 1 2Z" transform="matrix(-3.577464E-08 -1 1 -3.577464E-08 141 109)" id="Oval" fill="#9A9A9A" stroke="none" />
    <path d="M1 2C1.55228 2 2 1.55228 2 1C2 0.447715 1.55228 0 1 0C0.447715 0 0 0.447715 0 1C0 1.55228 0.447715 2 1 2Z" transform="matrix(-3.577464E-08 -1 1 -3.577464E-08 141 91)" id="Oval" fill="#9A9A9A" stroke="none" />
    <path d="M1 2C1.55228 2 2 1.55228 2 1C2 0.447715 1.55228 0 1 0C0.447715 0 0 0.447715 0 1C0 1.55228 0.447715 2 1 2Z" transform="matrix(-3.577464E-08 -1 1 -3.577464E-08 141 73)" id="Oval" fill="#9A9A9A" stroke="none" />
    <path d="M1 2C1.55228 2 2 1.55228 2 1C2 0.447715 1.55228 0 1 0C0.447715 0 0 0.447715 0 1C0 1.55228 0.447715 2 1 2Z" transform="matrix(-3.577464E-08 -1 1 -3.577464E-08 141 55)" id="Oval" fill="#9A9A9A" stroke="none" />
    <path d="M1 2C1.55228 2 2 1.55228 2 1C2 0.447715 1.55228 0 1 0C0.447715 0 0 0.447715 0 1C0 1.55228 0.447715 2 1 2Z" transform="matrix(-3.577464E-08 -1 1 -3.577464E-08 141 38)" id="Oval" fill="#9A9A9A" stroke="none" />
    <path d="M1 2C1.55228 2 2 1.55228 2 1C2 0.447715 1.55228 0 1 0C0.447715 0 0 0.447715 0 1C0 1.55228 0.447715 2 1 2Z" transform="matrix(-3.577464E-08 -1 1 -3.577464E-08 141 20)" id="Oval" fill="#9A9A9A" stroke="none" />
    <path d="M1 2C1.55228 2 2 1.55228 2 1C2 0.447715 1.55228 0 1 0C0.447715 0 0 0.447715 0 1C0 1.55228 0.447715 2 1 2Z" transform="matrix(-3.577464E-08 -1 1 -3.577464E-08 141 2)" id="Oval" fill="#9A9A9A" stroke="none" />
    <path d="M1 2C1.55228 2 2 1.55228 2 1C2 0.447715 1.55228 0 1 0C0.447715 0 0 0.447715 0 1C0 1.55228 0.447715 2 1 2Z" transform="matrix(-3.577464E-08 -1 1 -3.577464E-08 158 180)" id="Oval" fill="#9A9A9A" stroke="none" />
    <path d="M1 2C1.55228 2 2 1.55228 2 1C2 0.447715 1.55228 0 1 0C0.447715 0 0 0.447715 0 1C0 1.55228 0.447715 2 1 2Z" transform="matrix(-3.577464E-08 -1 1 -3.577464E-08 158 162)" id="Oval" fill="#9A9A9A" stroke="none" />
    <path d="M1 2C1.55228 2 2 1.55228 2 1C2 0.447715 1.55228 0 1 0C0.447715 0 0 0.447715 0 1C0 1.55228 0.447715 2 1 2Z" transform="matrix(-3.577464E-08 -1 1 -3.577464E-08 158 145)" id="Oval" fill="#9A9A9A" stroke="none" />
    <path d="M1 2C1.55228 2 2 1.55228 2 1C2 0.447715 1.55228 0 1 0C0.447715 0 0 0.447715 0 1C0 1.55228 0.447715 2 1 2Z" transform="matrix(-3.577464E-08 -1 1 -3.577464E-08 158 127)" id="Oval" fill="#9A9A9A" stroke="none" />
    <path d="M1 2C1.55228 2 2 1.55228 2 1C2 0.447715 1.55228 0 1 0C0.447715 0 0 0.447715 0 1C0 1.55228 0.447715 2 1 2Z" transform="matrix(-3.577464E-08 -1 1 -3.577464E-08 158 109)" id="Oval" fill="#9A9A9A" stroke="none" />
    <path d="M1 2C1.55228 2 2 1.55228 2 1C2 0.447715 1.55228 0 1 0C0.447715 0 0 0.447715 0 1C0 1.55228 0.447715 2 1 2Z" transform="matrix(-3.577464E-08 -1 1 -3.577464E-08 158 91)" id="Oval" fill="#9A9A9A" stroke="none" />
    <path d="M1 2C1.55228 2 2 1.55228 2 1C2 0.447715 1.55228 0 1 0C0.447715 0 0 0.447715 0 1C0 1.55228 0.447715 2 1 2Z" transform="matrix(-3.577464E-08 -1 1 -3.577464E-08 158 73)" id="Oval" fill="#9A9A9A" stroke="none" />
    <path d="M1 2C1.55228 2 2 1.55228 2 1C2 0.447715 1.55228 0 1 0C0.447715 0 0 0.447715 0 1C0 1.55228 0.447715 2 1 2Z" transform="matrix(-3.577464E-08 -1 1 -3.577464E-08 158 55)" id="Oval" fill="#9A9A9A" stroke="none" />
    <path d="M1 2C1.55228 2 2 1.55228 2 1C2 0.447715 1.55228 0 1 0C0.447715 0 0 0.447715 0 1C0 1.55228 0.447715 2 1 2Z" transform="matrix(-3.577464E-08 -1 1 -3.577464E-08 158 38)" id="Oval" fill="#9A9A9A" stroke="none" />
    <path d="M1 2C1.55228 2 2 1.55228 2 1C2 0.447715 1.55228 0 1 0C0.447715 0 0 0.447715 0 1C0 1.55228 0.447715 2 1 2Z" transform="matrix(-3.577464E-08 -1 1 -3.577464E-08 158 20)" id="Oval" fill="#9A9A9A" stroke="none" />
    <path d="M1 2C1.55228 2 2 1.55228 2 1C2 0.447715 1.55228 0 1 0C0.447715 0 0 0.447715 0 1C0 1.55228 0.447715 2 1 2Z" transform="matrix(-3.577464E-08 -1 1 -3.577464E-08 158 2)" id="Oval" fill="#9A9A9A" stroke="none" />
    <path d="M1 2C1.55228 2 2 1.55228 2 1C2 0.447715 1.55228 0 1 0C0.447715 0 0 0.447715 0 1C0 1.55228 0.447715 2 1 2Z" transform="matrix(-3.577464E-08 -1 1 -3.577464E-08 176 180)" id="Oval" fill="#9A9A9A" stroke="none" />
    <path d="M1 2C1.55228 2 2 1.55228 2 1C2 0.447715 1.55228 0 1 0C0.447715 0 0 0.447715 0 1C0 1.55228 0.447715 2 1 2Z" transform="matrix(-3.577464E-08 -1 1 -3.577464E-08 176 162)" id="Oval" fill="#9A9A9A" stroke="none" />
    <path d="M1 2C1.55228 2 2 1.55228 2 1C2 0.447715 1.55228 0 1 0C0.447715 0 0 0.447715 0 1C0 1.55228 0.447715 2 1 2Z" transform="matrix(-3.577464E-08 -1 1 -3.577464E-08 176 145)" id="Oval" fill="#9A9A9A" stroke="none" />
    <path d="M1 2C1.55228 2 2 1.55228 2 1C2 0.447715 1.55228 0 1 0C0.447715 0 0 0.447715 0 1C0 1.55228 0.447715 2 1 2Z" transform="matrix(-3.577464E-08 -1 1 -3.577464E-08 176 127)" id="Oval" fill="#9A9A9A" stroke="none" />
    <path d="M1 2C1.55228 2 2 1.55228 2 1C2 0.447715 1.55228 0 1 0C0.447715 0 0 0.447715 0 1C0 1.55228 0.447715 2 1 2Z" transform="matrix(-3.577464E-08 -1 1 -3.577464E-08 176 109)" id="Oval" fill="#9A9A9A" stroke="none" />
    <path d="M1 2C1.55228 2 2 1.55228 2 1C2 0.447715 1.55228 0 1 0C0.447715 0 0 0.447715 0 1C0 1.55228 0.447715 2 1 2Z" transform="matrix(-3.577464E-08 -1 1 -3.577464E-08 176 91)" id="Oval" fill="#9A9A9A" stroke="none" />
    <path d="M1 2C1.55228 2 2 1.55228 2 1C2 0.447715 1.55228 0 1 0C0.447715 0 0 0.447715 0 1C0 1.55228 0.447715 2 1 2Z" transform="matrix(-3.577464E-08 -1 1 -3.577464E-08 176 73)" id="Oval" fill="#9A9A9A" stroke="none" />
    <path d="M1 2C1.55228 2 2 1.55228 2 1C2 0.447715 1.55228 0 1 0C0.447715 0 0 0.447715 0 1C0 1.55228 0.447715 2 1 2Z" transform="matrix(-3.577464E-08 -1 1 -3.577464E-08 176 55)" id="Oval" fill="#9A9A9A" stroke="none" />
    <path d="M1 2C1.55228 2 2 1.55228 2 1C2 0.447715 1.55228 0 1 0C0.447715 0 0 0.447715 0 1C0 1.55228 0.447715 2 1 2Z" transform="matrix(-3.577464E-08 -1 1 -3.577464E-08 176 38)" id="Oval" fill="#9A9A9A" stroke="none" />
    <path d="M1 2C1.55228 2 2 1.55228 2 1C2 0.447715 1.55228 0 1 0C0.447715 0 0 0.447715 0 1C0 1.55228 0.447715 2 1 2Z" transform="matrix(-3.577464E-08 -1 1 -3.577464E-08 176 20)" id="Oval" fill="#9A9A9A" stroke="none" />
    <path d="M1 2C1.55228 2 2 1.55228 2 1C2 0.447715 1.55228 0 1 0C0.447715 0 0 0.447715 0 1C0 1.55228 0.447715 2 1 2Z" transform="matrix(-3.577464E-08 -1 1 -3.577464E-08 176 2)" id="Oval" fill="#9A9A9A" stroke="none" />
    <path d="M1 2C1.55228 2 2 1.55228 2 1C2 0.447715 1.55228 0 1 0C0.447715 0 0 0.447715 0 1C0 1.55228 0.447715 2 1 2Z" transform="matrix(-3.577464E-08 -1 1 -3.577464E-08 194 180)" id="Oval" fill="#9A9A9A" stroke="none" />
    <path d="M1 2C1.55228 2 2 1.55228 2 1C2 0.447715 1.55228 0 1 0C0.447715 0 0 0.447715 0 1C0 1.55228 0.447715 2 1 2Z" transform="matrix(-3.577464E-08 -1 1 -3.577464E-08 194 162)" id="Oval" fill="#9A9A9A" stroke="none" />
    <path d="M1 2C1.55228 2 2 1.55228 2 1C2 0.447715 1.55228 0 1 0C0.447715 0 0 0.447715 0 1C0 1.55228 0.447715 2 1 2Z" transform="matrix(-3.577464E-08 -1 1 -3.577464E-08 194 145)" id="Oval" fill="#9A9A9A" stroke="none" />
    <path d="M1 2C1.55228 2 2 1.55228 2 1C2 0.447715 1.55228 0 1 0C0.447715 0 0 0.447715 0 1C0 1.55228 0.447715 2 1 2Z" transform="matrix(-3.577464E-08 -1 1 -3.577464E-08 194 127)" id="Oval" fill="#9A9A9A" stroke="none" />
    <path d="M1 2C1.55228 2 2 1.55228 2 1C2 0.447715 1.55228 0 1 0C0.447715 0 0 0.447715 0 1C0 1.55228 0.447715 2 1 2Z" transform="matrix(-3.577464E-08 -1 1 -3.577464E-08 194 109)" id="Oval" fill="#9A9A9A" stroke="none" />
    <path d="M1 2C1.55228 2 2 1.55228 2 1C2 0.447715 1.55228 0 1 0C0.447715 0 0 0.447715 0 1C0 1.55228 0.447715 2 1 2Z" transform="matrix(-3.577464E-08 -1 1 -3.577464E-08 194 91)" id="Oval" fill="#9A9A9A" stroke="none" />
    <path d="M1 2C1.55228 2 2 1.55228 2 1C2 0.447715 1.55228 0 1 0C0.447715 0 0 0.447715 0 1C0 1.55228 0.447715 2 1 2Z" transform="matrix(-3.577464E-08 -1 1 -3.577464E-08 194 73)" id="Oval" fill="#9A9A9A" stroke="none" />
    <path d="M1 2C1.55228 2 2 1.55228 2 1C2 0.447715 1.55228 0 1 0C0.447715 0 0 0.447715 0 1C0 1.55228 0.447715 2 1 2Z" transform="matrix(-3.577464E-08 -1 1 -3.577464E-08 194 55)" id="Oval" fill="#9A9A9A" stroke="none" />
    <path d="M1 2C1.55228 2 2 1.55228 2 1C2 0.447715 1.55228 0 1 0C0.447715 0 0 0.447715 0 1C0 1.55228 0.447715 2 1 2Z" transform="matrix(-3.577464E-08 -1 1 -3.577464E-08 194 38)" id="Oval" fill="#9A9A9A" stroke="none" />
    <path d="M1 2C1.55228 2 2 1.55228 2 1C2 0.447715 1.55228 0 1 0C0.447715 0 0 0.447715 0 1C0 1.55228 0.447715 2 1 2Z" transform="matrix(-3.577464E-08 -1 1 -3.577464E-08 194 20)" id="Oval" fill="#9A9A9A" stroke="none" />
    <path d="M1 2C1.55228 2 2 1.55228 2 1C2 0.447715 1.55228 0 1 0C0.447715 0 0 0.447715 0 1C0 1.55228 0.447715 2 1 2Z" transform="matrix(-3.577464E-08 -1 1 -3.577464E-08 194 2)" id="Oval" fill="#9A9A9A" stroke="none" />
  </g>
</svg>