<?xml version="1.0" encoding="utf-8"?>
<svg width="200px" height="331px" viewBox="0 0 200 331" version="1.1" xmlns:xlink="http://www.w3.org/1999/xlink" xmlns="http://www.w3.org/2000/svg">
  <g id="Group">
    <path d="M10.2263 0C11.9822 0.676855 15.3245 1.52943 15.2788 2.02406C14.4955 9.24167 10.6506 15.854 11.0683 23.358C8.92068 23.345 6.01578 24.2171 4.76243 23.1562C-3.52795 16.0883 -0.544719 3.98303 10.2263 0" transform="translate(14.89917 307.09552)" id="Fill-145" fill="#C0E3DD" fill-rule="evenodd" stroke="none" />
    <path d="M23.6829 17.0582C22.9696 18.1875 22.2878 19.9292 21.8396 19.8611C14.2077 18.7114 6.86621 16.5208 1.55734 10.0237C0.339014 8.52698 -0.342743 5.49955 0.174887 3.65588C0.642017 2.02311 3.26173 -0.160722 4.701 0.00935855C14.4034 1.22033 19.9206 8.1392 23.6829 17.0582" transform="translate(176.12793 166.65228)" id="Fill-305" fill="#C0E3DD" fill-rule="evenodd" stroke="none" />
    <path d="M14.8371 17.2081C13.1663 18.6078 11.7418 20.6696 9.85137 21.1424C7.86775 21.6594 4.20004 21.382 3.43454 20.1967C-0.319703 14.3016 -1.47793 7.89576 2.4161 1.49626C2.86874 0.745968 4.20004 -0.0925879 5.00547 0.00829099C7.18213 0.273098 10.1443 0.373977 11.2759 1.69171C15.1299 6.14929 15.9154 11.5841 14.8371 17.2081" id="Fill-255" fill="#C0E3DD" fill-rule="evenodd" stroke="none" />
  </g>
</svg>