<?xml version="1.0" encoding="utf-8"?>
<svg width="241px" height="330px" viewBox="0 0 241 330" version="1.1" xmlns:xlink="http://www.w3.org/1999/xlink" xmlns="http://www.w3.org/2000/svg">
  <g id="Group-2">
    <path d="M22.2049 0.34474C23.1862 0.887209 24.7954 1.26177 25.044 2.03027C25.6196 3.88371 26.47 6.57668 25.6066 7.79724C20.7396 14.5006 13.7336 18.3302 5.64819 19.8284C3.98009 20.132 0.833591 18.3818 0.225224 16.8642C-0.428934 15.2174 0.41493 11.8012 1.81483 10.7808C7.23126 6.87375 13.0925 3.54789 18.8949 0.176832C19.693 -0.275225 21.0863 0.273702 22.2049 0.34474" transform="translate(214.5459 0)" id="Fill-138" fill="#C0E3DD" fill-rule="evenodd" stroke="none" />
    <path d="M14.1071 0C15.3223 1.4922 17.7266 3.10303 17.5633 4.43914C16.7989 10.8887 13.6433 16.383 8.56038 20.7909C6.65265 22.4517 1.28882 20.4163 0.563624 17.7254C-1.91249 8.44748 3.98054 0.724249 14.1071 0" transform="translate(166.71887 308.19824)" id="Fill-141" fill="#C0E3DD" fill-rule="evenodd" stroke="none" />
    <path d="M10.9505 0C15.2382 3.90441 15.5666 8.94276 15.1391 14.2263C14.7921 18.5046 10.145 21.0667 5.95014 19.2953C-0.215077 16.6842 -2.17307 8.2195 2.87682 4.22927C5.18181 2.40885 8.57732 1.95527 11.4833 0.876501L10.9505 0" transform="translate(0 128.7009)" id="Fill-154" fill="#C0E3DD" fill-rule="evenodd" stroke="none" />
  </g>
</svg>