<svg width="134" height="140" viewBox="0 0 134 140" fill="none" xmlns="http://www.w3.org/2000/svg">
<path d="M89.6586 102.168C91.6046 105.954 97.2683 105.944 99.9128 102.625C102.776 99.0303 100.27 94.0511 96.6474 92.5002C92.6299 90.7832 87.7255 93.7089 86.8847 98.1257C86.0438 102.543 89.9897 106.237 94.2087 105.537C95.3413 105.351 94.8985 103.613 93.7793 103.801C90.603 104.325 87.8216 101.154 88.7181 97.9793C89.6146 94.8047 93.2838 92.8601 96.1998 94.2965C98.4805 95.4176 100.329 98.498 98.8539 101.061C97.235 103.865 92.6623 104.062 91.2037 101.242C90.6776 100.223 89.1266 101.15 89.6511 102.164L89.6586 102.168Z" fill="#10100E"/>
<path d="M53.6586 47.1682C55.6046 50.954 61.2683 50.9437 63.9128 47.6247C66.7757 44.0303 64.2702 39.0511 60.6474 37.5002C56.6299 35.7832 51.7255 38.7089 50.8847 43.1257C50.0438 47.5426 53.9897 51.2369 58.2087 50.5367C59.3413 50.3512 58.8985 48.6125 57.7793 48.8006C54.603 49.3252 51.8216 46.1539 52.7181 42.9793C53.6146 39.8047 57.2838 37.8601 60.1998 39.2965C62.4805 40.4176 64.3285 43.498 62.8539 46.0607C61.235 48.8647 56.6623 49.062 55.2037 46.2424C54.6776 45.2229 53.1266 46.1504 53.6511 47.1639L53.6586 47.1682Z" fill="#10100E"/>
<path d="M30.7416 102.636H46.8736C48.067 102.636 48.0715 101.066 46.8736 101.066H30.7416C29.5436 101.066 29.5436 102.636 30.7416 102.636Z" fill="#10100E"/>
<path d="M38.0413 109.127V93.6816C38.0413 92.4675 36.4824 92.4675 36.4824 93.6816V109.127C36.4824 110.346 38.0413 110.346 38.0413 109.127Z" fill="#10100E"/>
<path d="M106.659 45.1682C108.605 48.954 114.268 48.9437 116.913 45.6247C119.776 42.0303 117.27 37.0511 113.647 35.5002C109.63 33.7832 104.726 36.7089 103.885 41.1257C103.044 45.5426 106.99 49.2369 111.209 48.5367C112.341 48.3512 111.899 46.6125 110.779 46.8006C107.603 47.3252 104.822 44.1539 105.718 40.9793C106.615 37.8047 110.284 35.8601 113.2 37.2965C115.481 38.4176 117.329 41.498 115.854 44.0607C114.235 46.8647 109.662 47.062 108.204 44.2424C107.678 43.2229 106.127 44.1504 106.651 45.1639L106.659 45.1682Z" fill="#10100E"/>
<path d="M89.6506 93.8923C89.6506 93.8923 65.706 71.08 58.3494 48.1077" stroke="black" stroke-width="2"/>
</svg>
