<svg width="84" height="92" viewBox="0 0 84 92" fill="none" xmlns="http://www.w3.org/2000/svg">
<path d="M82.0633 39.5203C84.2042 36.1976 81.5664 31.6479 77.6696 31.0622C73.4498 30.4288 70.609 34.7554 71.0439 38.3888C71.5284 42.4167 76.1581 45.0023 80.1004 43.6278C84.0427 42.2533 85.1815 37.3649 82.6596 34.2973C81.9846 33.4726 80.792 34.6359 81.4628 35.4486C83.3595 37.7594 82.1006 41.4685 79.1314 42.2215C76.1622 42.9744 72.8949 40.9267 72.6962 37.9147C72.5388 35.5602 74.158 32.6439 76.9035 32.6399C79.9099 32.6399 82.1917 36.2255 80.6015 38.7076C80.0259 39.604 81.4918 40.4207 82.0633 39.5283V39.5203Z" fill="#10100E"/>
<path d="M30.4674 86.1419C33.2671 81.7969 29.8176 75.8472 24.7218 75.0814C19.2036 74.253 15.4888 79.9109 16.0574 84.6623C16.6909 89.9295 22.7452 93.3107 27.9006 91.5133C33.0559 89.7159 34.5451 83.3234 31.2472 79.3118C30.3645 78.2334 28.8049 79.7546 29.6822 80.8174C32.1624 83.8392 30.5161 88.6896 26.6334 89.6742C22.7506 90.6589 18.478 87.981 18.218 84.0424C18.0123 80.9633 20.1296 77.1497 23.72 77.1445C27.6515 77.1445 30.6353 81.8334 28.5558 85.0791C27.8031 86.2513 29.7201 87.3194 30.4674 86.1523V86.1419Z" fill="#10100E"/>
<path d="M20.4246 15.7298C24.3771 9.59562 19.5071 1.19609 12.3131 0.114892C4.52277 -1.05457 -0.721762 6.93307 0.0809727 13.6409C0.975449 21.0769 9.52266 25.8504 16.8008 23.3129C24.0789 20.7754 26.1813 11.7507 21.5254 6.08724C20.2793 4.56473 18.0775 6.71242 19.316 8.21286C22.8175 12.4788 20.4934 19.3264 15.0118 20.7165C9.5303 22.1067 3.49833 18.3261 3.13136 12.7657C2.84085 8.41881 5.83008 3.03487 10.8988 3.02751C16.4491 3.02751 20.6616 9.64711 17.7258 14.2293C16.6632 15.8842 19.3695 17.392 20.4246 15.7445V15.7298Z" fill="#10100E"/>
<path d="M72.3864 41.0461C72.3864 41.0461 43.5993 60.3562 29.4307 79.04" stroke="black" stroke-width="2"/>
</svg>
