<?xml version="1.0" encoding="utf-8"?>
<svg width="139px" height="256px" viewBox="0 0 139 256" version="1.1" xmlns:xlink="http://www.w3.org/1999/xlink" xmlns="http://www.w3.org/2000/svg">
  <g id="Bg-Shape-" transform="matrix(1.1924881E-08 1 -1 1.1924881E-08 339.5 0.5)">
    <path d="M1 2C1.55228 2 2 1.55228 2 1C2 0.447715 1.55228 0 1 0C0.447715 0 0 0.447715 0 1C0 1.55228 0.447715 2 1 2Z" transform="matrix(-1 2.3849761E-08 -2.3849761E-08 -1 255 337)" id="Oval" fill="#9A9A9A" stroke="none" />
    <path d="M1 2C1.55228 2 2 1.55228 2 1C2 0.447715 1.55228 0 1 0C0.447715 0 0 0.447715 0 1C0 1.55228 0.447715 2 1 2Z" transform="matrix(-1 2.3849761E-08 -2.3849761E-08 -1 237 337)" id="Oval" fill="#9A9A9A" stroke="none" />
    <path d="M1 2C1.55228 2 2 1.55228 2 1C2 0.447715 1.55228 0 1 0C0.447715 0 0 0.447715 0 1C0 1.55228 0.447715 2 1 2Z" transform="matrix(-1 2.3849761E-08 -2.3849761E-08 -1 220 337)" id="Oval" fill="#9A9A9A" stroke="none" />
    <path d="M1 2C1.55228 2 2 1.55228 2 1C2 0.447715 1.55228 0 1 0C0.447715 0 0 0.447715 0 1C0 1.55228 0.447715 2 1 2Z" transform="matrix(-1 2.3849761E-08 -2.3849761E-08 -1 202 337)" id="Oval" fill="#9A9A9A" stroke="none" />
    <path d="M1 2C1.55228 2 2 1.55228 2 1C2 0.447715 1.55228 0 1 0C0.447715 0 0 0.447715 0 1C0 1.55228 0.447715 2 1 2Z" transform="matrix(-1 2.3849761E-08 -2.3849761E-08 -1 184 337)" id="Oval" fill="#9A9A9A" stroke="none" />
    <path d="M1 2C1.55228 2 2 1.55228 2 1C2 0.447715 1.55228 0 1 0C0.447715 0 0 0.447715 0 1C0 1.55228 0.447715 2 1 2Z" transform="matrix(-1 2.3849761E-08 -2.3849761E-08 -1 166 337)" id="Oval" fill="#9A9A9A" stroke="none" />
    <path d="M1 2C1.55228 2 2 1.55228 2 1C2 0.447715 1.55228 0 1 0C0.447715 0 0 0.447715 0 1C0 1.55228 0.447715 2 1 2Z" transform="matrix(-1 2.3849761E-08 -2.3849761E-08 -1 148 337)" id="Oval" fill="#9A9A9A" stroke="none" />
    <path d="M1 2C1.55228 2 2 1.55228 2 1C2 0.447715 1.55228 0 1 0C0.447715 0 0 0.447715 0 1C0 1.55228 0.447715 2 1 2Z" transform="matrix(-1 2.3849761E-08 -2.3849761E-08 -1 131 337)" id="Oval" fill="#9A9A9A" stroke="none" />
    <path d="M1 2C1.55228 2 2 1.55228 2 1C2 0.447715 1.55228 0 1 0C0.447715 0 0 0.447715 0 1C0 1.55228 0.447715 2 1 2Z" transform="matrix(-1 2.3849761E-08 -2.3849761E-08 -1 113 337)" id="Oval" fill="#9A9A9A" stroke="none" />
    <path d="M1 2C1.55228 2 2 1.55228 2 1C2 0.447715 1.55228 0 1 0C0.447715 0 0 0.447715 0 1C0 1.55228 0.447715 2 1 2Z" transform="matrix(-1 2.3849761E-08 -2.3849761E-08 -1 95 337)" id="Oval" fill="#9A9A9A" stroke="none" />
    <path d="M1 2C1.55228 2 2 1.55228 2 1C2 0.447715 1.55228 0 1 0C0.447715 0 0 0.447715 0 1C0 1.55228 0.447715 2 1 2Z" transform="matrix(-1 2.3849761E-08 -2.3849761E-08 -1 77 337)" id="Oval" fill="#9A9A9A" stroke="none" />
    <path d="M1 2C1.55228 2 2 1.55228 2 1C2 0.447715 1.55228 0 1 0C0.447715 0 0 0.447715 0 1C0 1.55228 0.447715 2 1 2Z" transform="matrix(-1 2.3849761E-08 -2.3849761E-08 -1 251 319)" id="Oval" fill="#9A9A9A" stroke="none" />
    <path d="M1 2C1.55228 2 2 1.55228 2 1C2 0.447715 1.55228 0 1 0C0.447715 0 0 0.447715 0 1C0 1.55228 0.447715 2 1 2Z" transform="matrix(-1 2.3849761E-08 -2.3849761E-08 -1 233 319)" id="Oval" fill="#9A9A9A" stroke="none" />
    <path d="M1 2C1.55228 2 2 1.55228 2 1C2 0.447715 1.55228 0 1 0C0.447715 0 0 0.447715 0 1C0 1.55228 0.447715 2 1 2Z" transform="matrix(-1 2.3849761E-08 -2.3849761E-08 -1 216 319)" id="Oval" fill="#9A9A9A" stroke="none" />
    <path d="M1 2C1.55228 2 2 1.55228 2 1C2 0.447715 1.55228 0 1 0C0.447715 0 0 0.447715 0 1C0 1.55228 0.447715 2 1 2Z" transform="matrix(-1 2.3849761E-08 -2.3849761E-08 -1 198 319)" id="Oval" fill="#9A9A9A" stroke="none" />
    <path d="M1 2C1.55228 2 2 1.55228 2 1C2 0.447715 1.55228 0 1 0C0.447715 0 0 0.447715 0 1C0 1.55228 0.447715 2 1 2Z" transform="matrix(-1 2.3849761E-08 -2.3849761E-08 -1 180 319)" id="Oval" fill="#9A9A9A" stroke="none" />
    <path d="M1 2C1.55228 2 2 1.55228 2 1C2 0.447715 1.55228 0 1 0C0.447715 0 0 0.447715 0 1C0 1.55228 0.447715 2 1 2Z" transform="matrix(-1 2.3849761E-08 -2.3849761E-08 -1 162 319)" id="Oval" fill="#9A9A9A" stroke="none" />
    <path d="M1 2C1.55228 2 2 1.55228 2 1C2 0.447715 1.55228 0 1 0C0.447715 0 0 0.447715 0 1C0 1.55228 0.447715 2 1 2Z" transform="matrix(-1 2.3849761E-08 -2.3849761E-08 -1 144 319)" id="Oval" fill="#9A9A9A" stroke="none" />
    <path d="M1 2C1.55228 2 2 1.55228 2 1C2 0.447715 1.55228 0 1 0C0.447715 0 0 0.447715 0 1C0 1.55228 0.447715 2 1 2Z" transform="matrix(-1 2.3849761E-08 -2.3849761E-08 -1 126 319)" id="Oval" fill="#9A9A9A" stroke="none" />
    <path d="M1 2C1.55228 2 2 1.55228 2 1C2 0.447715 1.55228 0 1 0C0.447715 0 0 0.447715 0 1C0 1.55228 0.447715 2 1 2Z" transform="matrix(-1 2.3849761E-08 -2.3849761E-08 -1 109 319)" id="Oval" fill="#9A9A9A" stroke="none" />
    <path d="M1 2C1.55228 2 2 1.55228 2 1C2 0.447715 1.55228 0 1 0C0.447715 0 0 0.447715 0 1C0 1.55228 0.447715 2 1 2Z" transform="matrix(-1 2.3849761E-08 -2.3849761E-08 -1 91 319)" id="Oval" fill="#9A9A9A" stroke="none" />
    <path d="M1 2C1.55228 2 2 1.55228 2 1C2 0.447715 1.55228 0 1 0C0.447715 0 0 0.447715 0 1C0 1.55228 0.447715 2 1 2Z" transform="matrix(-1 2.3849761E-08 -2.3849761E-08 -1 73 319)" id="Oval" fill="#9A9A9A" stroke="none" />
    <path d="M1 2C1.55228 2 2 1.55228 2 1C2 0.447715 1.55228 0 1 0C0.447715 0 0 0.447715 0 1C0 1.55228 0.447715 2 1 2Z" transform="matrix(-1 2.3849761E-08 -2.3849761E-08 -1 251 302)" id="Oval" fill="#9A9A9A" stroke="none" />
    <path d="M1 2C1.55228 2 2 1.55228 2 1C2 0.447715 1.55228 0 1 0C0.447715 0 0 0.447715 0 1C0 1.55228 0.447715 2 1 2Z" transform="matrix(-1 2.3849761E-08 -2.3849761E-08 -1 233 302)" id="Oval" fill="#9A9A9A" stroke="none" />
    <path d="M1 2C1.55228 2 2 1.55228 2 1C2 0.447715 1.55228 0 1 0C0.447715 0 0 0.447715 0 1C0 1.55228 0.447715 2 1 2Z" transform="matrix(-1 2.3849761E-08 -2.3849761E-08 -1 216 302)" id="Oval" fill="#9A9A9A" stroke="none" />
    <path d="M1 2C1.55228 2 2 1.55228 2 1C2 0.447715 1.55228 0 1 0C0.447715 0 0 0.447715 0 1C0 1.55228 0.447715 2 1 2Z" transform="matrix(-1 2.3849761E-08 -2.3849761E-08 -1 198 302)" id="Oval" fill="#9A9A9A" stroke="none" />
    <path d="M1 2C1.55228 2 2 1.55228 2 1C2 0.447715 1.55228 0 1 0C0.447715 0 0 0.447715 0 1C0 1.55228 0.447715 2 1 2Z" transform="matrix(-1 2.3849761E-08 -2.3849761E-08 -1 180 302)" id="Oval" fill="#9A9A9A" stroke="none" />
    <path d="M1 2C1.55228 2 2 1.55228 2 1C2 0.447715 1.55228 0 1 0C0.447715 0 0 0.447715 0 1C0 1.55228 0.447715 2 1 2Z" transform="matrix(-1 2.3849761E-08 -2.3849761E-08 -1 162 302)" id="Oval" fill="#9A9A9A" stroke="none" />
    <path d="M1 2C1.55228 2 2 1.55228 2 1C2 0.447715 1.55228 0 1 0C0.447715 0 0 0.447715 0 1C0 1.55228 0.447715 2 1 2Z" transform="matrix(-1 2.3849761E-08 -2.3849761E-08 -1 144 302)" id="Oval" fill="#9A9A9A" stroke="none" />
    <path d="M1 2C1.55228 2 2 1.55228 2 1C2 0.447715 1.55228 0 1 0C0.447715 0 0 0.447715 0 1C0 1.55228 0.447715 2 1 2Z" transform="matrix(-1 2.3849761E-08 -2.3849761E-08 -1 126 302)" id="Oval" fill="#9A9A9A" stroke="none" />
    <path d="M1 2C1.55228 2 2 1.55228 2 1C2 0.447715 1.55228 0 1 0C0.447715 0 0 0.447715 0 1C0 1.55228 0.447715 2 1 2Z" transform="matrix(-1 2.3849761E-08 -2.3849761E-08 -1 109 302)" id="Oval" fill="#9A9A9A" stroke="none" />
    <path d="M1 2C1.55228 2 2 1.55228 2 1C2 0.447715 1.55228 0 1 0C0.447715 0 0 0.447715 0 1C0 1.55228 0.447715 2 1 2Z" transform="matrix(-1 2.3849761E-08 -2.3849761E-08 -1 91 302)" id="Oval" fill="#9A9A9A" stroke="none" />
    <path d="M1 2C1.55228 2 2 1.55228 2 1C2 0.447715 1.55228 0 1 0C0.447715 0 0 0.447715 0 1C0 1.55228 0.447715 2 1 2Z" transform="matrix(-1 2.3849761E-08 -2.3849761E-08 -1 73 302)" id="Oval" fill="#9A9A9A" stroke="none" />
    <path d="M1 2C1.55228 2 2 1.55228 2 1C2 0.447715 1.55228 0 1 0C0.447715 0 0 0.447715 0 1C0 1.55228 0.447715 2 1 2Z" transform="matrix(-1 2.3849761E-08 -2.3849761E-08 -1 251 284)" id="Oval" fill="#9A9A9A" stroke="none" />
    <path d="M1 2C1.55228 2 2 1.55228 2 1C2 0.447715 1.55228 0 1 0C0.447715 0 0 0.447715 0 1C0 1.55228 0.447715 2 1 2Z" transform="matrix(-1 2.3849761E-08 -2.3849761E-08 -1 233 284)" id="Oval" fill="#9A9A9A" stroke="none" />
    <path d="M1 2C1.55228 2 2 1.55228 2 1C2 0.447715 1.55228 0 1 0C0.447715 0 0 0.447715 0 1C0 1.55228 0.447715 2 1 2Z" transform="matrix(-1 2.3849761E-08 -2.3849761E-08 -1 216 284)" id="Oval" fill="#9A9A9A" stroke="none" />
    <path d="M1 2C1.55228 2 2 1.55228 2 1C2 0.447715 1.55228 0 1 0C0.447715 0 0 0.447715 0 1C0 1.55228 0.447715 2 1 2Z" transform="matrix(-1 2.3849761E-08 -2.3849761E-08 -1 198 284)" id="Oval" fill="#9A9A9A" stroke="none" />
    <path d="M1 2C1.55228 2 2 1.55228 2 1C2 0.447715 1.55228 0 1 0C0.447715 0 0 0.447715 0 1C0 1.55228 0.447715 2 1 2Z" transform="matrix(-1 2.3849761E-08 -2.3849761E-08 -1 180 284)" id="Oval" fill="#9A9A9A" stroke="none" />
    <path d="M1 2C1.55228 2 2 1.55228 2 1C2 0.447715 1.55228 0 1 0C0.447715 0 0 0.447715 0 1C0 1.55228 0.447715 2 1 2Z" transform="matrix(-1 2.3849761E-08 -2.3849761E-08 -1 162 284)" id="Oval" fill="#9A9A9A" stroke="none" />
    <path d="M1 2C1.55228 2 2 1.55228 2 1C2 0.447715 1.55228 0 1 0C0.447715 0 0 0.447715 0 1C0 1.55228 0.447715 2 1 2Z" transform="matrix(-1 2.3849761E-08 -2.3849761E-08 -1 144 284)" id="Oval" fill="#9A9A9A" stroke="none" />
    <path d="M1 2C1.55228 2 2 1.55228 2 1C2 0.447715 1.55228 0 1 0C0.447715 0 0 0.447715 0 1C0 1.55228 0.447715 2 1 2Z" transform="matrix(-1 2.3849761E-08 -2.3849761E-08 -1 126 284)" id="Oval" fill="#9A9A9A" stroke="none" />
    <path d="M1 2C1.55228 2 2 1.55228 2 1C2 0.447715 1.55228 0 1 0C0.447715 0 0 0.447715 0 1C0 1.55228 0.447715 2 1 2Z" transform="matrix(-1 2.3849761E-08 -2.3849761E-08 -1 109 284)" id="Oval" fill="#9A9A9A" stroke="none" />
    <path d="M1 2C1.55228 2 2 1.55228 2 1C2 0.447715 1.55228 0 1 0C0.447715 0 0 0.447715 0 1C0 1.55228 0.447715 2 1 2Z" transform="matrix(-1 2.3849761E-08 -2.3849761E-08 -1 91 284)" id="Oval" fill="#9A9A9A" stroke="none" />
    <path d="M1 2C1.55228 2 2 1.55228 2 1C2 0.447715 1.55228 0 1 0C0.447715 0 0 0.447715 0 1C0 1.55228 0.447715 2 1 2Z" transform="matrix(-1 2.3849761E-08 -2.3849761E-08 -1 73 284)" id="Oval" fill="#9A9A9A" stroke="none" />
    <path d="M1 2C1.55228 2 2 1.55228 2 1C2 0.447715 1.55228 0 1 0C0.447715 0 0 0.447715 0 1C0 1.55228 0.447715 2 1 2Z" transform="matrix(-1 2.3849761E-08 -2.3849761E-08 -1 251 266)" id="Oval" fill="#9A9A9A" stroke="none" />
    <path d="M1 2C1.55228 2 2 1.55228 2 1C2 0.447715 1.55228 0 1 0C0.447715 0 0 0.447715 0 1C0 1.55228 0.447715 2 1 2Z" transform="matrix(-1 2.3849761E-08 -2.3849761E-08 -1 233 266)" id="Oval" fill="#9A9A9A" stroke="none" />
    <path d="M1 2C1.55228 2 2 1.55228 2 1C2 0.447715 1.55228 0 1 0C0.447715 0 0 0.447715 0 1C0 1.55228 0.447715 2 1 2Z" transform="matrix(-1 2.3849761E-08 -2.3849761E-08 -1 216 266)" id="Oval" fill="#9A9A9A" stroke="none" />
    <path d="M1 2C1.55228 2 2 1.55228 2 1C2 0.447715 1.55228 0 1 0C0.447715 0 0 0.447715 0 1C0 1.55228 0.447715 2 1 2Z" transform="matrix(-1 2.3849761E-08 -2.3849761E-08 -1 198 266)" id="Oval" fill="#9A9A9A" stroke="none" />
    <path d="M1 2C1.55228 2 2 1.55228 2 1C2 0.447715 1.55228 0 1 0C0.447715 0 0 0.447715 0 1C0 1.55228 0.447715 2 1 2Z" transform="matrix(-1 2.3849761E-08 -2.3849761E-08 -1 180 266)" id="Oval" fill="#9A9A9A" stroke="none" />
    <path d="M1 2C1.55228 2 2 1.55228 2 1C2 0.447715 1.55228 0 1 0C0.447715 0 0 0.447715 0 1C0 1.55228 0.447715 2 1 2Z" transform="matrix(-1 2.3849761E-08 -2.3849761E-08 -1 162 266)" id="Oval" fill="#9A9A9A" stroke="none" />
    <path d="M1 2C1.55228 2 2 1.55228 2 1C2 0.447715 1.55228 0 1 0C0.447715 0 0 0.447715 0 1C0 1.55228 0.447715 2 1 2Z" transform="matrix(-1 2.3849761E-08 -2.3849761E-08 -1 144 266)" id="Oval" fill="#9A9A9A" stroke="none" />
    <path d="M1 2C1.55228 2 2 1.55228 2 1C2 0.447715 1.55228 0 1 0C0.447715 0 0 0.447715 0 1C0 1.55228 0.447715 2 1 2Z" transform="matrix(-1 2.3849761E-08 -2.3849761E-08 -1 126 266)" id="Oval" fill="#9A9A9A" stroke="none" />
    <path d="M1 2C1.55228 2 2 1.55228 2 1C2 0.447715 1.55228 0 1 0C0.447715 0 0 0.447715 0 1C0 1.55228 0.447715 2 1 2Z" transform="matrix(-1 2.3849761E-08 -2.3849761E-08 -1 109 266)" id="Oval" fill="#9A9A9A" stroke="none" />
    <path d="M1 2C1.55228 2 2 1.55228 2 1C2 0.447715 1.55228 0 1 0C0.447715 0 0 0.447715 0 1C0 1.55228 0.447715 2 1 2Z" transform="matrix(-1 2.3849761E-08 -2.3849761E-08 -1 91 266)" id="Oval" fill="#9A9A9A" stroke="none" />
    <path d="M1 2C1.55228 2 2 1.55228 2 1C2 0.447715 1.55228 0 1 0C0.447715 0 0 0.447715 0 1C0 1.55228 0.447715 2 1 2Z" transform="matrix(-1 2.3849761E-08 -2.3849761E-08 -1 73 266)" id="Oval" fill="#9A9A9A" stroke="none" />
    <path d="M1 2C1.55228 2 2 1.55228 2 1C2 0.447715 1.55228 0 1 0C0.447715 0 0 0.447715 0 1C0 1.55228 0.447715 2 1 2Z" transform="matrix(-1 2.3849761E-08 -2.3849761E-08 -1 251 248)" id="Oval" fill="#9A9A9A" stroke="none" />
    <path d="M1 2C1.55228 2 2 1.55228 2 1C2 0.447715 1.55228 0 1 0C0.447715 0 0 0.447715 0 1C0 1.55228 0.447715 2 1 2Z" transform="matrix(-1 2.3849761E-08 -2.3849761E-08 -1 233 248)" id="Oval" fill="#9A9A9A" stroke="none" />
    <path d="M1 2C1.55228 2 2 1.55228 2 1C2 0.447715 1.55228 0 1 0C0.447715 0 0 0.447715 0 1C0 1.55228 0.447715 2 1 2Z" transform="matrix(-1 2.3849761E-08 -2.3849761E-08 -1 216 248)" id="Oval" fill="#9A9A9A" stroke="none" />
    <path d="M1 2C1.55228 2 2 1.55228 2 1C2 0.447715 1.55228 0 1 0C0.447715 0 0 0.447715 0 1C0 1.55228 0.447715 2 1 2Z" transform="matrix(-1 2.3849761E-08 -2.3849761E-08 -1 198 248)" id="Oval" fill="#9A9A9A" stroke="none" />
    <path d="M1 2C1.55228 2 2 1.55228 2 1C2 0.447715 1.55228 0 1 0C0.447715 0 0 0.447715 0 1C0 1.55228 0.447715 2 1 2Z" transform="matrix(-1 2.3849761E-08 -2.3849761E-08 -1 180 248)" id="Oval" fill="#9A9A9A" stroke="none" />
    <path d="M1 2C1.55228 2 2 1.55228 2 1C2 0.447715 1.55228 0 1 0C0.447715 0 0 0.447715 0 1C0 1.55228 0.447715 2 1 2Z" transform="matrix(-1 2.3849761E-08 -2.3849761E-08 -1 162 248)" id="Oval" fill="#9A9A9A" stroke="none" />
    <path d="M1 2C1.55228 2 2 1.55228 2 1C2 0.447715 1.55228 0 1 0C0.447715 0 0 0.447715 0 1C0 1.55228 0.447715 2 1 2Z" transform="matrix(-1 2.3849761E-08 -2.3849761E-08 -1 144 248)" id="Oval" fill="#9A9A9A" stroke="none" />
    <path d="M1 2C1.55228 2 2 1.55228 2 1C2 0.447715 1.55228 0 1 0C0.447715 0 0 0.447715 0 1C0 1.55228 0.447715 2 1 2Z" transform="matrix(-1 2.3849761E-08 -2.3849761E-08 -1 126 248)" id="Oval" fill="#9A9A9A" stroke="none" />
    <path d="M1 2C1.55228 2 2 1.55228 2 1C2 0.447715 1.55228 0 1 0C0.447715 0 0 0.447715 0 1C0 1.55228 0.447715 2 1 2Z" transform="matrix(-1 2.3849761E-08 -2.3849761E-08 -1 109 248)" id="Oval" fill="#9A9A9A" stroke="none" />
    <path d="M1 2C1.55228 2 2 1.55228 2 1C2 0.447715 1.55228 0 1 0C0.447715 0 0 0.447715 0 1C0 1.55228 0.447715 2 1 2Z" transform="matrix(-1 2.3849761E-08 -2.3849761E-08 -1 91 248)" id="Oval" fill="#9A9A9A" stroke="none" />
    <path d="M1 2C1.55228 2 2 1.55228 2 1C2 0.447715 1.55228 0 1 0C0.447715 0 0 0.447715 0 1C0 1.55228 0.447715 2 1 2Z" transform="matrix(-1 2.3849761E-08 -2.3849761E-08 -1 73 248)" id="Oval" fill="#9A9A9A" stroke="none" />
    <path d="M1 2C1.55228 2 2 1.55228 2 1C2 0.447715 1.55228 0 1 0C0.447715 0 0 0.447715 0 1C0 1.55228 0.447715 2 1 2Z" transform="matrix(-1 2.3849761E-08 -2.3849761E-08 -1 251 230)" id="Oval" fill="#9A9A9A" stroke="none" />
    <path d="M1 2C1.55228 2 2 1.55228 2 1C2 0.447715 1.55228 0 1 0C0.447715 0 0 0.447715 0 1C0 1.55228 0.447715 2 1 2Z" transform="matrix(-1 2.3849761E-08 -2.3849761E-08 -1 233 230)" id="Oval" fill="#9A9A9A" stroke="none" />
    <path d="M1 2C1.55228 2 2 1.55228 2 1C2 0.447715 1.55228 0 1 0C0.447715 0 0 0.447715 0 1C0 1.55228 0.447715 2 1 2Z" transform="matrix(-1 2.3849761E-08 -2.3849761E-08 -1 216 230)" id="Oval" fill="#9A9A9A" stroke="none" />
    <path d="M1 2C1.55228 2 2 1.55228 2 1C2 0.447715 1.55228 0 1 0C0.447715 0 0 0.447715 0 1C0 1.55228 0.447715 2 1 2Z" transform="matrix(-1 2.3849761E-08 -2.3849761E-08 -1 198 230)" id="Oval" fill="#9A9A9A" stroke="none" />
    <path d="M1 2C1.55228 2 2 1.55228 2 1C2 0.447715 1.55228 0 1 0C0.447715 0 0 0.447715 0 1C0 1.55228 0.447715 2 1 2Z" transform="matrix(-1 2.3849761E-08 -2.3849761E-08 -1 180 230)" id="Oval" fill="#9A9A9A" stroke="none" />
    <path d="M1 2C1.55228 2 2 1.55228 2 1C2 0.447715 1.55228 0 1 0C0.447715 0 0 0.447715 0 1C0 1.55228 0.447715 2 1 2Z" transform="matrix(-1 2.3849761E-08 -2.3849761E-08 -1 162 230)" id="Oval" fill="#9A9A9A" stroke="none" />
    <path d="M1 2C1.55228 2 2 1.55228 2 1C2 0.447715 1.55228 0 1 0C0.447715 0 0 0.447715 0 1C0 1.55228 0.447715 2 1 2Z" transform="matrix(-1 2.3849761E-08 -2.3849761E-08 -1 144 230)" id="Oval" fill="#9A9A9A" stroke="none" />
    <path d="M1 2C1.55228 2 2 1.55228 2 1C2 0.447715 1.55228 0 1 0C0.447715 0 0 0.447715 0 1C0 1.55228 0.447715 2 1 2Z" transform="matrix(-1 2.3849761E-08 -2.3849761E-08 -1 126 230)" id="Oval" fill="#9A9A9A" stroke="none" />
    <path d="M1 2C1.55228 2 2 1.55228 2 1C2 0.447715 1.55228 0 1 0C0.447715 0 0 0.447715 0 1C0 1.55228 0.447715 2 1 2Z" transform="matrix(-1 2.3849761E-08 -2.3849761E-08 -1 109 230)" id="Oval" fill="#9A9A9A" stroke="none" />
    <path d="M1 2C1.55228 2 2 1.55228 2 1C2 0.447715 1.55228 0 1 0C0.447715 0 0 0.447715 0 1C0 1.55228 0.447715 2 1 2Z" transform="matrix(-1 2.3849761E-08 -2.3849761E-08 -1 91 230)" id="Oval" fill="#9A9A9A" stroke="none" />
    <path d="M1 2C1.55228 2 2 1.55228 2 1C2 0.447715 1.55228 0 1 0C0.447715 0 0 0.447715 0 1C0 1.55228 0.447715 2 1 2Z" transform="matrix(-1 2.3849761E-08 -2.3849761E-08 -1 73 230)" id="Oval" fill="#9A9A9A" stroke="none" />
    <path d="M1 2C1.55228 2 2 1.55228 2 1C2 0.447715 1.55228 0 1 0C0.447715 0 0 0.447715 0 1C0 1.55228 0.447715 2 1 2Z" transform="matrix(-1 2.3849761E-08 -2.3849761E-08 -1 55 230)" id="Oval" fill="#9A9A9A" stroke="none" />
    <path d="M1 2C1.55228 2 2 1.55228 2 1C2 0.447715 1.55228 0 1 0C0.447715 0 0 0.447715 0 1C0 1.55228 0.447715 2 1 2Z" transform="matrix(-1 2.3849761E-08 -2.3849761E-08 -1 37 230)" id="Oval" fill="#9A9A9A" stroke="none" />
    <path d="M1 2C1.55228 2 2 1.55228 2 1C2 0.447715 1.55228 0 1 0C0.447715 0 0 0.447715 0 1C0 1.55228 0.447715 2 1 2Z" transform="matrix(-1 2.3849761E-08 -2.3849761E-08 -1 20 230)" id="Oval" fill="#9A9A9A" stroke="none" />
    <path d="M1 2C1.55228 2 2 1.55228 2 1C2 0.447715 1.55228 0 1 0C0.447715 0 0 0.447715 0 1C0 1.55228 0.447715 2 1 2Z" transform="matrix(-1 2.3849761E-08 -2.3849761E-08 -1 2 230)" id="Oval" fill="#9A9A9A" stroke="none" />
    <path d="M1 2C1.55228 2 2 1.55228 2 1C2 0.447715 1.55228 0 1 0C0.447715 0 0 0.447715 0 1C0 1.55228 0.447715 2 1 2Z" transform="matrix(-1 2.3849761E-08 -2.3849761E-08 -1 251 213)" id="Oval" fill="#9A9A9A" stroke="none" />
    <path d="M1 2C1.55228 2 2 1.55228 2 1C2 0.447715 1.55228 0 1 0C0.447715 0 0 0.447715 0 1C0 1.55228 0.447715 2 1 2Z" transform="matrix(-1 2.3849761E-08 -2.3849761E-08 -1 233 213)" id="Oval" fill="#9A9A9A" stroke="none" />
    <path d="M1 2C1.55228 2 2 1.55228 2 1C2 0.447715 1.55228 0 1 0C0.447715 0 0 0.447715 0 1C0 1.55228 0.447715 2 1 2Z" transform="matrix(-1 2.3849761E-08 -2.3849761E-08 -1 216 213)" id="Oval" fill="#9A9A9A" stroke="none" />
    <path d="M1 2C1.55228 2 2 1.55228 2 1C2 0.447715 1.55228 0 1 0C0.447715 0 0 0.447715 0 1C0 1.55228 0.447715 2 1 2Z" transform="matrix(-1 2.3849761E-08 -2.3849761E-08 -1 198 213)" id="Oval" fill="#9A9A9A" stroke="none" />
    <path d="M1 2C1.55228 2 2 1.55228 2 1C2 0.447715 1.55228 0 1 0C0.447715 0 0 0.447715 0 1C0 1.55228 0.447715 2 1 2Z" transform="matrix(-1 2.3849761E-08 -2.3849761E-08 -1 180 213)" id="Oval" fill="#9A9A9A" stroke="none" />
    <path d="M1 2C1.55228 2 2 1.55228 2 1C2 0.447715 1.55228 0 1 0C0.447715 0 0 0.447715 0 1C0 1.55228 0.447715 2 1 2Z" transform="matrix(-1 2.3849761E-08 -2.3849761E-08 -1 162 213)" id="Oval" fill="#9A9A9A" stroke="none" />
    <path d="M1 2C1.55228 2 2 1.55228 2 1C2 0.447715 1.55228 0 1 0C0.447715 0 0 0.447715 0 1C0 1.55228 0.447715 2 1 2Z" transform="matrix(-1 2.3849761E-08 -2.3849761E-08 -1 144 213)" id="Oval" fill="#9A9A9A" stroke="none" />
    <path d="M1 2C1.55228 2 2 1.55228 2 1C2 0.447715 1.55228 0 1 0C0.447715 0 0 0.447715 0 1C0 1.55228 0.447715 2 1 2Z" transform="matrix(-1 2.3849761E-08 -2.3849761E-08 -1 126 213)" id="Oval" fill="#9A9A9A" stroke="none" />
    <path d="M1 2C1.55228 2 2 1.55228 2 1C2 0.447715 1.55228 0 1 0C0.447715 0 0 0.447715 0 1C0 1.55228 0.447715 2 1 2Z" transform="matrix(-1 2.3849761E-08 -2.3849761E-08 -1 109 213)" id="Oval" fill="#9A9A9A" stroke="none" />
    <path d="M1 2C1.55228 2 2 1.55228 2 1C2 0.447715 1.55228 0 1 0C0.447715 0 0 0.447715 0 1C0 1.55228 0.447715 2 1 2Z" transform="matrix(-1 2.3849761E-08 -2.3849761E-08 -1 91 213)" id="Oval" fill="#9A9A9A" stroke="none" />
    <path d="M1 2C1.55228 2 2 1.55228 2 1C2 0.447715 1.55228 0 1 0C0.447715 0 0 0.447715 0 1C0 1.55228 0.447715 2 1 2Z" transform="matrix(-1 2.3849761E-08 -2.3849761E-08 -1 73 213)" id="Oval" fill="#9A9A9A" stroke="none" />
    <path d="M1 2C1.55228 2 2 1.55228 2 1C2 0.447715 1.55228 0 1 0C0.447715 0 0 0.447715 0 1C0 1.55228 0.447715 2 1 2Z" transform="matrix(-1 2.3849761E-08 -2.3849761E-08 -1 55 213)" id="Oval" fill="#9A9A9A" stroke="none" />
    <path d="M1 2C1.55228 2 2 1.55228 2 1C2 0.447715 1.55228 0 1 0C0.447715 0 0 0.447715 0 1C0 1.55228 0.447715 2 1 2Z" transform="matrix(-1 2.3849761E-08 -2.3849761E-08 -1 37 213)" id="Oval" fill="#9A9A9A" stroke="none" />
    <path d="M1 2C1.55228 2 2 1.55228 2 1C2 0.447715 1.55228 0 1 0C0.447715 0 0 0.447715 0 1C0 1.55228 0.447715 2 1 2Z" transform="matrix(-1 2.3849761E-08 -2.3849761E-08 -1 20 213)" id="Oval" fill="#9A9A9A" stroke="none" />
    <path d="M1 2C1.55228 2 2 1.55228 2 1C2 0.447715 1.55228 0 1 0C0.447715 0 0 0.447715 0 1C0 1.55228 0.447715 2 1 2Z" transform="matrix(-1 2.3849761E-08 -2.3849761E-08 -1 2 213)" id="Oval" fill="#9A9A9A" stroke="none" />
    <path d="M1 2C1.55228 2 2 1.55228 2 1C2 0.447715 1.55228 0 1 0C0.447715 0 0 0.447715 0 1C0 1.55228 0.447715 2 1 2Z" transform="matrix(-3.577464E-08 -1 1 -3.577464E-08 57 339)" id="Oval" fill="#9A9A9A" stroke="none" />
    <path d="M1 2C1.55228 2 2 1.55228 2 1C2 0.447715 1.55228 0 1 0C0.447715 0 0 0.447715 0 1C0 1.55228 0.447715 2 1 2Z" transform="matrix(-3.577464E-08 -1 1 -3.577464E-08 39 339)" id="Oval" fill="#9A9A9A" stroke="none" />
    <path d="M1 2C1.55228 2 2 1.55228 2 1C2 0.447715 1.55228 0 1 0C0.447715 0 0 0.447715 0 1C0 1.55228 0.447715 2 1 2Z" transform="matrix(-3.577464E-08 -1 1 -3.577464E-08 22 339)" id="Oval" fill="#9A9A9A" stroke="none" />
    <path d="M1 2C1.55228 2 2 1.55228 2 1C2 0.447715 1.55228 0 1 0C0.447715 0 0 0.447715 0 1C0 1.55228 0.447715 2 1 2Z" transform="matrix(-3.577464E-08 -1 1 -3.577464E-08 4 339)" id="Oval" fill="#9A9A9A" stroke="none" />
    <path d="M1 2C1.55228 2 2 1.55228 2 1C2 0.447715 1.55228 0 1 0C0.447715 0 0 0.447715 0 1C0 1.55228 0.447715 2 1 2Z" transform="matrix(-3.577464E-08 -1 1 -3.577464E-08 53 321)" id="Oval" fill="#9A9A9A" stroke="none" />
    <path d="M1 2C1.55228 2 2 1.55228 2 1C2 0.447715 1.55228 0 1 0C0.447715 0 0 0.447715 0 1C0 1.55228 0.447715 2 1 2Z" transform="matrix(-3.577464E-08 -1 1 -3.577464E-08 35 321)" id="Oval" fill="#9A9A9A" stroke="none" />
    <path d="M1 2C1.55228 2 2 1.55228 2 1C2 0.447715 1.55228 0 1 0C0.447715 0 0 0.447715 0 1C0 1.55228 0.447715 2 1 2Z" transform="matrix(-3.577464E-08 -1 1 -3.577464E-08 18 321)" id="Oval" fill="#9A9A9A" stroke="none" />
    <path d="M1 2C1.55228 2 2 1.55228 2 1C2 0.447715 1.55228 0 1 0C0.447715 0 0 0.447715 0 1C0 1.55228 0.447715 2 1 2Z" transform="matrix(-3.577464E-08 -1 1 -3.577464E-08 0 321)" id="Oval" fill="#9A9A9A" stroke="none" />
    <path d="M1 2C1.55228 2 2 1.55228 2 1C2 0.447715 1.55228 0 1 0C0.447715 0 0 0.447715 0 1C0 1.55228 0.447715 2 1 2Z" transform="matrix(-3.577464E-08 -1 1 -3.577464E-08 53 304)" id="Oval" fill="#9A9A9A" stroke="none" />
    <path d="M1 2C1.55228 2 2 1.55228 2 1C2 0.447715 1.55228 0 1 0C0.447715 0 0 0.447715 0 1C0 1.55228 0.447715 2 1 2Z" transform="matrix(-3.577464E-08 -1 1 -3.577464E-08 35 304)" id="Oval" fill="#9A9A9A" stroke="none" />
    <path d="M1 2C1.55228 2 2 1.55228 2 1C2 0.447715 1.55228 0 1 0C0.447715 0 0 0.447715 0 1C0 1.55228 0.447715 2 1 2Z" transform="matrix(-3.577464E-08 -1 1 -3.577464E-08 18 304)" id="Oval" fill="#9A9A9A" stroke="none" />
    <path d="M1 2C1.55228 2 2 1.55228 2 1C2 0.447715 1.55228 0 1 0C0.447715 0 0 0.447715 0 1C0 1.55228 0.447715 2 1 2Z" transform="matrix(-3.577464E-08 -1 1 -3.577464E-08 0 304)" id="Oval" fill="#9A9A9A" stroke="none" />
    <path d="M1 2C1.55228 2 2 1.55228 2 1C2 0.447715 1.55228 0 1 0C0.447715 0 0 0.447715 0 1C0 1.55228 0.447715 2 1 2Z" transform="matrix(-3.577464E-08 -1 1 -3.577464E-08 53 286)" id="Oval" fill="#9A9A9A" stroke="none" />
    <path d="M1 2C1.55228 2 2 1.55228 2 1C2 0.447715 1.55228 0 1 0C0.447715 0 0 0.447715 0 1C0 1.55228 0.447715 2 1 2Z" transform="matrix(-3.577464E-08 -1 1 -3.577464E-08 35 286)" id="Oval" fill="#9A9A9A" stroke="none" />
    <path d="M1 2C1.55228 2 2 1.55228 2 1C2 0.447715 1.55228 0 1 0C0.447715 0 0 0.447715 0 1C0 1.55228 0.447715 2 1 2Z" transform="matrix(-3.577464E-08 -1 1 -3.577464E-08 18 286)" id="Oval" fill="#9A9A9A" stroke="none" />
    <path d="M1 2C1.55228 2 2 1.55228 2 1C2 0.447715 1.55228 0 1 0C0.447715 0 0 0.447715 0 1C0 1.55228 0.447715 2 1 2Z" transform="matrix(-3.577464E-08 -1 1 -3.577464E-08 0 286)" id="Oval" fill="#9A9A9A" stroke="none" />
    <path d="M1 2C1.55228 2 2 1.55228 2 1C2 0.447715 1.55228 0 1 0C0.447715 0 0 0.447715 0 1C0 1.55228 0.447715 2 1 2Z" transform="matrix(-3.577464E-08 -1 1 -3.577464E-08 53 268)" id="Oval" fill="#9A9A9A" stroke="none" />
    <path d="M1 2C1.55228 2 2 1.55228 2 1C2 0.447715 1.55228 0 1 0C0.447715 0 0 0.447715 0 1C0 1.55228 0.447715 2 1 2Z" transform="matrix(-3.577464E-08 -1 1 -3.577464E-08 35 268)" id="Oval" fill="#9A9A9A" stroke="none" />
    <path d="M1 2C1.55228 2 2 1.55228 2 1C2 0.447715 1.55228 0 1 0C0.447715 0 0 0.447715 0 1C0 1.55228 0.447715 2 1 2Z" transform="matrix(-3.577464E-08 -1 1 -3.577464E-08 18 268)" id="Oval" fill="#9A9A9A" stroke="none" />
    <path d="M1 2C1.55228 2 2 1.55228 2 1C2 0.447715 1.55228 0 1 0C0.447715 0 0 0.447715 0 1C0 1.55228 0.447715 2 1 2Z" transform="matrix(-3.577464E-08 -1 1 -3.577464E-08 0 268)" id="Oval" fill="#9A9A9A" stroke="none" />
    <path d="M1 2C1.55228 2 2 1.55228 2 1C2 0.447715 1.55228 0 1 0C0.447715 0 0 0.447715 0 1C0 1.55228 0.447715 2 1 2Z" transform="matrix(-3.577464E-08 -1 1 -3.577464E-08 53 250)" id="Oval" fill="#9A9A9A" stroke="none" />
    <path d="M1 2C1.55228 2 2 1.55228 2 1C2 0.447715 1.55228 0 1 0C0.447715 0 0 0.447715 0 1C0 1.55228 0.447715 2 1 2Z" transform="matrix(-3.577464E-08 -1 1 -3.577464E-08 35 250)" id="Oval" fill="#9A9A9A" stroke="none" />
    <path d="M1 2C1.55228 2 2 1.55228 2 1C2 0.447715 1.55228 0 1 0C0.447715 0 0 0.447715 0 1C0 1.55228 0.447715 2 1 2Z" transform="matrix(-3.577464E-08 -1 1 -3.577464E-08 18 250)" id="Oval" fill="#9A9A9A" stroke="none" />
    <path d="M1 2C1.55228 2 2 1.55228 2 1C2 0.447715 1.55228 0 1 0C0.447715 0 0 0.447715 0 1C0 1.55228 0.447715 2 1 2Z" transform="matrix(-3.577464E-08 -1 1 -3.577464E-08 0 250)" id="Oval" fill="#9A9A9A" stroke="none" />
  </g>
</svg>