<svg width="111" height="106" viewBox="0 0 111 106" fill="none" xmlns="http://www.w3.org/2000/svg">
<path d="M51.3643 93.678C54.0196 96.6059 59.0971 95.2355 60.6713 91.6231C62.3754 87.7111 58.9314 83.8473 55.3092 83.3269C51.2932 82.7524 47.5975 86.5552 47.9048 90.7189C48.2121 94.8826 52.6391 97.2478 56.255 95.6058C57.2263 95.1673 56.4113 93.7142 55.4526 94.1518C52.7298 95.3857 49.4729 93.2098 49.514 90.1469C49.5552 87.084 52.3788 84.458 55.3395 85.0456C57.6546 85.503 60.0525 87.8218 59.3457 90.4748C58.5676 93.3788 54.5136 94.6547 52.5277 92.4763C51.8108 91.6883 50.6425 92.8929 51.3566 93.6759L51.3643 93.678Z" fill="#10100E"/>
<path d="M19.6853 31.7737C23.1576 35.6026 29.7974 33.8105 31.856 29.0866C34.0844 23.9708 29.5807 18.9182 24.844 18.2376C19.5924 17.4864 14.7594 22.4592 15.1613 27.9041C15.5631 33.349 21.3524 36.442 26.0808 34.2947C27.351 33.7212 26.2852 31.821 25.0315 32.3933C21.4709 34.0069 17.2118 31.1614 17.2656 27.1561C17.3195 23.1508 21.0119 19.7168 24.8837 20.4852C27.911 21.0833 31.0467 24.1156 30.1225 27.5849C29.1049 31.3824 23.8036 33.051 21.2066 30.2023C20.2692 29.1719 18.7414 30.7471 19.6752 31.771L19.6853 31.7737Z" fill="#10100E"/>
<path d="M90.2974 40.297C95.1996 45.7025 104.573 43.1724 107.48 36.5034C110.626 29.2812 104.267 22.148 97.5804 21.1872C90.1663 20.1267 83.3433 27.1472 83.9106 34.834C84.478 42.5209 92.651 46.8875 99.3265 43.856C101.12 43.0464 99.615 40.3638 97.8451 41.1717C92.8183 43.4498 86.8055 39.4326 86.8815 33.778C86.9575 28.1235 92.1704 23.2755 97.6364 24.3602C101.91 25.2047 106.337 29.4855 105.032 34.3834C103.596 39.7446 96.1115 42.1002 92.4452 38.0786C91.1218 36.6238 88.9649 38.8477 90.2832 40.2932L90.2974 40.297Z" fill="#10100E"/>
<path d="M52.3951 83.9359C52.3951 83.9359 41.1936 51.1319 26.8135 32.6104" stroke="black" stroke-width="2"/>
</svg>
