<svg width="133" height="140" viewBox="0 0 133 140" fill="none" xmlns="http://www.w3.org/2000/svg">
<path d="M89.0484 101.92C90.9944 105.705 96.6581 105.695 99.3026 102.376C102.166 98.7818 99.66 93.8026 96.0372 92.2517C92.0197 90.5347 87.1153 93.4603 86.2745 97.8772C85.4336 102.294 89.3795 105.988 93.5985 105.288C94.7311 105.103 94.2883 103.364 93.1691 103.552C89.9928 104.077 87.2114 100.905 88.1079 97.7307C89.0044 94.5561 92.6736 92.6115 95.5896 94.048C97.8703 95.169 99.7183 98.2494 98.2437 100.812C96.6248 103.616 92.0521 103.813 90.5935 100.994C90.0674 99.9744 88.5164 100.902 89.0409 101.915L89.0484 101.92Z" fill="#10100E"/>
<path d="M53.0484 46.9196C54.9944 50.7055 60.6581 50.6952 63.3026 47.3762C66.1655 43.7818 63.66 38.8026 60.0372 37.2517C56.0197 35.5347 51.1153 38.4603 50.2745 42.8772C49.4336 47.2941 53.3795 50.9884 57.5985 50.2882C58.7311 50.1027 58.2883 48.364 57.1691 48.552C53.9928 49.0767 51.2114 45.9054 52.1079 42.7307C53.0044 39.5561 56.6736 37.6115 59.5896 39.048C61.8703 40.169 63.7183 43.2494 62.2437 45.8122C60.6248 48.6161 56.0521 48.8135 54.5935 45.9939C54.0674 44.9744 52.5164 45.9018 53.0409 46.9153L53.0484 46.9196Z" fill="#10100E"/>
<path d="M30.1314 102.388H46.2633C47.4568 102.388 47.4613 100.818 46.2633 100.818H30.1314C28.9334 100.818 28.9334 102.388 30.1314 102.388Z" fill="#10100E"/>
<path d="M37.431 108.879V93.4331C37.431 92.219 35.8722 92.219 35.8722 93.4331V108.879C35.8722 110.097 37.431 110.097 37.431 108.879Z" fill="#10100E"/>
<path d="M106.048 44.9196C107.994 48.7055 113.658 48.6952 116.303 45.3762C119.166 41.7818 116.66 36.8026 113.037 35.2517C109.02 33.5347 104.115 36.4603 103.274 40.8772C102.434 45.2941 106.38 48.9884 110.599 48.2882C111.731 48.1027 111.288 46.364 110.169 46.552C106.993 47.0767 104.211 43.9054 105.108 40.7307C106.004 37.5561 109.674 35.6115 112.59 37.048C114.87 38.169 116.718 41.2494 115.244 43.8122C113.625 46.6161 109.052 46.8135 107.594 43.9939C107.067 42.9744 105.516 43.9018 106.041 44.9153L106.048 44.9196Z" fill="#10100E"/>
<path d="M89.0404 93.6438C89.0404 93.6438 65.0958 70.8314 57.7391 47.8592" stroke="black" stroke-width="2"/>
</svg>
