<svg width="88" height="94" viewBox="0 0 88 94" fill="none" xmlns="http://www.w3.org/2000/svg">
<path d="M74.6721 34.1521C75.6943 30.9676 72.5419 27.8267 69.2287 28.2014C65.6411 28.6078 64.2668 32.7662 65.4179 35.6406C66.696 38.8266 71.0462 39.9259 73.9673 37.9392C76.8885 35.9524 76.7487 31.7076 74.0156 29.7526C73.2833 29.2264 72.5633 30.4384 73.2896 30.9558C75.3458 32.429 75.1292 35.7363 72.8673 37.0019C70.6055 38.2676 67.4866 37.3095 66.6645 34.8913C66.0202 33.0013 66.7049 30.2632 68.9481 29.6586C71.4053 29.0002 74.0554 31.4311 73.2993 33.808C73.0252 34.6667 74.4022 35.0132 74.6738 34.1586L74.6721 34.1521Z" fill="#10100E"/>
<path d="M44.3099 81.8301C45.6109 77.777 41.5988 73.7795 37.382 74.2564C32.8159 74.7737 31.0668 80.0662 32.5318 83.7246C34.1585 87.7794 39.6952 89.1786 43.413 86.65C47.1308 84.1214 46.9529 78.7189 43.4744 76.2307C42.5424 75.561 41.6261 77.1036 42.5504 77.762C45.1674 79.6371 44.8917 83.8463 42.013 85.4571C39.1343 87.068 35.1647 85.8485 34.1185 82.7709C33.2985 80.3654 34.1699 76.8805 37.0248 76.1111C40.1522 75.2731 43.5251 78.367 42.5628 81.3921C42.2139 82.485 43.9664 82.926 44.3122 81.8384L44.3099 81.8301Z" fill="#10100E"/>
<path d="M21.5857 27.1856C23.4442 21.3955 17.7125 15.6847 11.6886 16.3661C5.16563 17.105 2.6669 24.6657 4.75982 29.892C7.08363 35.6846 14.9932 37.6834 20.3043 34.0711C25.6154 30.4588 25.3613 22.741 20.3921 19.1865C19.0606 18.2297 17.7516 20.4334 19.0721 21.374C22.8106 24.0527 22.4168 30.0658 18.3043 32.3671C14.1919 34.6683 8.52109 32.9262 7.02641 28.5295C5.85503 25.0932 7.09995 20.1147 11.1783 19.0156C15.646 17.8185 20.4645 22.2383 19.0898 26.5599C18.5913 28.1212 21.095 28.7512 21.5888 27.1974L21.5857 27.1856Z" fill="#10100E"/>
<path d="M67.3812 36.571C67.3812 36.571 48.711 58.0092 41.4751 75.8506" stroke="black" stroke-width="2"/>
</svg>
