<svg width="120" height="104" viewBox="0 0 120 104" fill="none" xmlns="http://www.w3.org/2000/svg">
<path fill-rule="evenodd" clip-rule="evenodd" d="M107.952 82.4131C107.182 83.0166 106.82 83.891 106.665 84.8739C106.58 85.4161 106.085 85.4902 105.713 85.5855C105.39 85.6683 105.093 85.6791 104.832 85.945C104.725 86.0552 104.388 86.0792 104.247 85.9931C103.795 85.7176 103.311 85.5163 102.894 85.1489C101.426 83.8566 100.349 82.2582 99.3413 80.6275C98.3132 78.9637 97.2371 77.3176 96.4497 75.513C96.2049 74.9513 96.195 74.9559 96.8113 74.5197C97.3125 75.4728 97.7797 76.4404 98.3207 77.3648C98.7498 78.0984 99.2688 78.7785 99.7915 79.546C99.9145 79.237 99.9116 79.039 99.7207 78.7636C98.681 77.2617 97.694 75.7259 96.9112 73.9672C97.0362 73.8856 97.1874 73.7866 97.3378 73.6888C97.3726 73.7186 97.45 73.7857 97.5826 73.9005V73.2742C97.9541 73.2001 98.2909 73.1334 98.7291 73.0464C99.0708 73.2059 99.2332 73.8106 99.7957 73.8856C99.7774 74.4973 100.312 74.8022 100.581 75.2491C100.914 75.8033 101.366 76.2859 101.686 76.6955C102.047 76.6475 102.317 76.5969 102.59 76.5779C103.547 76.5108 103.523 76.541 104.119 77.0666C104.782 77.6506 105.235 78.4679 106.089 78.839C106.144 78.8626 106.205 78.9463 106.208 79.0047C106.235 79.6193 106.579 79.8426 107.156 79.9917C107.64 80.1172 107.778 80.6275 107.801 81.1295C107.818 81.5143 107.889 81.8966 107.952 82.4131Z" fill="white"/>
<path fill-rule="evenodd" clip-rule="evenodd" d="M22.5369 11.0213C23.222 11.3643 23.222 11.3643 23.5906 10.6465C24.0591 10.4858 24.6253 10.8093 25.049 10.3789C25.5257 10.4978 25.9963 10.6593 26.4801 10.726C27.2612 10.8333 27.6647 11.4376 28.1058 11.9462C28.4053 12.2917 28.7188 12.6384 28.9926 13.0136C29.3128 13.4527 29.6955 13.8454 30.0169 14.2832C30.3081 14.68 30.557 15.1087 30.8155 15.5287C30.8872 15.6455 30.9791 15.7875 30.9688 15.9101C30.941 16.2365 31.0541 16.4565 31.286 16.6905C31.7321 17.1403 31.6973 17.8006 31.8522 18.3622C31.996 18.8858 31.9135 19.4826 31.8672 20.0422C31.8498 20.2559 31.8216 20.712 31.3511 20.3757C31.3179 20.3516 31.1535 20.5268 31.0404 20.5931C30.9211 20.6627 30.7173 20.7957 30.6751 20.7588C30.1789 20.323 30.0579 20.6345 29.8309 21.0653C29.4971 21.6994 29.2933 21.6526 28.397 21.4928C27.8515 21.395 27.2733 21.378 26.9539 20.9046C26.0903 19.6247 25.2056 18.3535 25.0859 16.7174C25.0382 16.0617 24.8551 15.3775 24.3142 14.9061C23.8482 14.4998 23.5388 13.9191 22.9026 13.6925C22.7108 13.6242 22.5704 13.3955 22.4213 13.227C22.1044 12.8674 21.9342 12.4677 21.9259 11.962C21.9172 11.4368 22.3322 11.3191 22.5369 11.0213Z" fill="white"/>
<path fill-rule="evenodd" clip-rule="evenodd" d="M95.7508 53.8002C95.1916 53.241 94.7223 52.6934 94.1752 52.2395C92.6058 50.9372 91.8606 49.0948 90.922 47.3801C90.5004 46.6101 90.6209 45.7452 90.6392 44.9122C90.6425 44.7677 90.8421 44.6273 90.9589 44.4757C91.1184 44.7913 91.2679 45.087 91.4862 45.5186V43.9766C91.8147 43.8138 92.139 43.7251 92.3602 43.5238C92.6348 43.2741 92.945 43.3234 93.1968 43.3867C93.4901 43.4605 93.7403 43.7053 94.0352 43.8925C93.8625 44.7018 94.181 45.3795 94.5757 46.0857C94.929 45.99 95.3461 46.241 95.6999 45.8782C95.7748 45.8011 96.0209 45.7949 96.1269 45.8587C96.9934 46.3802 98.0567 46.6569 98.4949 47.7272C98.5736 47.9202 98.661 48.1695 98.8192 48.2553C99.0578 48.3845 98.8436 48.7879 99.2533 48.8037C99.5905 48.8165 99.3751 49.1603 99.4355 49.3475C99.5105 49.5795 99.6128 49.8064 99.6534 50.0442C99.6907 50.2621 99.6613 50.4915 99.6613 50.7177C98.7939 51.4616 98.2364 52.4093 97.809 53.4651C97.1152 53.5777 96.411 53.6925 95.7508 53.8002Z" fill="white"/>
<path fill-rule="evenodd" clip-rule="evenodd" d="M1.67152 1.1362C1.87737 0.855789 2.03767 0.62218 2.21536 0.401825C2.28039 0.321884 2.38063 0.265553 2.47382 0.213363C2.73933 0.0646652 2.92903 0.485079 3.22601 0.302002C3.45879 0.158689 3.73134 0.0298723 3.99684 0.0041918C4.2172 -0.0169325 4.544 0.248571 4.66246 0.163245C4.92631 -0.0268733 5.08412 -0.084033 5.31359 0.173186C5.35625 0.220405 5.5124 0.184784 5.60974 0.161174C6.32962 -0.0123762 6.32921 -0.0144473 6.71442 0.685139C6.76702 0.533541 6.81258 0.402653 6.89542 0.163659C7.00933 0.471825 7.12116 0.690937 7.16838 0.92289C7.22637 1.2062 7.24045 1.49987 7.25371 1.78981C7.26737 2.08141 7.2566 2.37425 7.42021 2.67455L7.52956 1.58851C7.56808 1.58685 7.60702 1.5852 7.64595 1.58396C7.66708 1.77614 7.70436 1.96833 7.7056 2.16094C7.71181 3.13762 7.66584 4.1168 7.72134 5.09017C7.77063 5.94881 7.62359 6.72626 7.13856 7.4362C6.95672 7.26224 6.78442 6.99839 6.57731 7.41922C6.35075 7.87898 5.98791 7.84419 5.51903 7.63336C5.44116 8.1333 5.40595 8.72271 4.57797 8.53425V7.28212C4.52288 7.27135 4.46737 7.26017 4.41229 7.24898C4.28098 7.67603 4.1501 8.10307 4.01507 8.54253C3.64518 8.29484 3.34199 8.03141 3.40205 7.51035C3.41862 7.36413 3.24797 7.20425 3.19288 7.04106C2.95471 6.33111 2.95844 6.32946 2.36903 6.31248C2.25637 6.30916 2.14371 6.31206 2.03104 6.31206H1.72163C1.43584 6.02626 1.1782 5.75165 0.902759 5.4965C0.315836 4.95431 0.129031 4.2365 0.0350071 3.49052C-0.0113834 3.12064 0.0685574 2.73419 0.0159539 2.36597C-0.0420343 1.96005 0.167137 1.66017 0.351871 1.37437C0.720096 0.804843 0.920983 0.788275 1.67152 1.1362Z" fill="white"/>
<path fill-rule="evenodd" clip-rule="evenodd" d="M67.5463 10.0764C67.0646 10.4036 66.6007 10.7316 66.1173 11.027C66.0705 11.0555 65.9024 10.8853 65.7209 10.7586C65.6099 10.9578 65.5346 11.1405 65.4169 11.2896C65.2786 11.4656 65.1009 11.6106 64.9439 11.7725C64.6258 12.1002 64.3193 12.4651 63.8492 11.9672C63.8131 11.9295 63.7038 11.9668 63.6296 11.9589C63.1015 11.9018 62.5983 12.0335 62.0669 11.6085C61.639 11.2664 61.0943 11.0299 60.6921 10.6099C60.3152 10.2155 59.925 9.84524 59.662 9.34489C59.2586 8.57655 58.8601 7.8169 59.0038 6.91518C59.0399 6.68903 59.1952 6.48152 59.3356 6.17874C59.6198 6.41152 59.812 6.56891 60.0364 6.75323C60.2204 6.14311 60.1827 5.434 60.748 4.89637C60.9696 5.06205 61.1838 5.22193 61.4509 5.42158V4.59773C62.1932 4.47098 62.8675 4.21584 63.6114 4.26057C64.038 4.28625 64.4067 4.42128 64.6767 4.68016C65.0238 5.01234 65.4488 5.2501 65.7321 5.67589C65.9881 6.0611 66.3381 6.38335 66.6069 6.78016C67.048 7.43252 67.1972 8.19507 67.5198 8.88927C67.6739 9.22021 67.5463 9.68246 67.5463 10.0764Z" fill="white"/>
<path fill-rule="evenodd" clip-rule="evenodd" d="M19.7064 31.6716V34.0955C19.9313 33.4829 19.8923 32.8641 19.9114 32.2486C19.9188 32.0009 19.8016 31.6927 20.1019 31.5448C20.4122 31.3916 20.7398 31.24 21.0745 31.1907C21.1896 31.1737 21.4087 31.4463 21.4742 31.6248C21.5446 31.8166 21.4903 32.0539 21.4903 32.2958C21.6775 32.2175 21.789 32.1268 21.8888 32.138C22.0951 32.1612 22.3784 32.3521 22.484 32.2751C23.0709 31.8431 23.7142 32.1268 24.321 32.0928C24.5956 32.0775 25.011 32.261 25.1428 32.4838C25.4658 33.0327 26.1178 33.2004 26.4595 33.8461C26.4707 34.122 26.5071 34.4629 26.7938 34.8299C27.1694 35.3108 27.49 35.908 27.3736 36.6118C27.3194 36.939 27.3641 37.2824 27.3641 37.6812C26.5941 38.1381 25.793 38.5821 25.0251 39.0775C24.2216 39.5961 23.4905 39.2477 22.8067 38.8895C22.3075 38.6277 21.6378 38.5051 21.4692 37.808C20.3533 37.306 20.1549 36.13 19.5593 35.2416C19.1588 34.6443 19.1712 33.9493 19.0577 33.3172C18.9641 32.7949 19.3328 32.1898 19.4968 31.6215C19.5668 31.638 19.6368 31.655 19.7064 31.6716Z" fill="white"/>
<path fill-rule="evenodd" clip-rule="evenodd" d="M41.5633 43.8945C41.0878 43.419 40.5838 42.9149 40.0163 42.3475C40.0163 41.9718 39.9774 41.524 40.0362 41.0895C40.0585 40.928 40.2917 40.7648 40.4653 40.67C40.5312 40.6335 40.7006 40.7868 40.824 40.8543C40.988 40.5295 41.0841 40.0901 41.6387 40.1969C41.7419 40.2172 41.8881 40.2234 41.9585 40.1667C42.2348 39.943 42.5355 39.7148 42.8888 39.813C43.5221 39.9894 44.2279 40.0926 44.7216 40.5295C45.6975 41.394 46.6253 42.3334 47.1112 43.5818C47.4007 44.3261 47.662 45.0949 47.802 45.8769C47.8629 46.219 47.7706 46.6887 47.3808 46.9613C46.7392 47.4107 46.1216 47.8961 45.4659 48.3236C45.2427 48.4689 44.9279 48.5696 44.6674 48.5468C43.0259 48.4047 41.8562 47.6323 41.3712 45.7783C41.3003 45.5082 41.1309 45.227 41.1674 44.9743C41.2204 44.6086 41.42 44.2636 41.5633 43.8945Z" fill="white"/>
<path fill-rule="evenodd" clip-rule="evenodd" d="M44.3797 84.7051C44.335 84.4786 44.2902 84.2524 44.2455 84.0259C44.2426 84.9247 43.2937 85.261 43.087 86.0252C43.0132 86.2986 42.609 86.4204 42.4416 86.2683C42.1687 86.0215 41.9827 86.2017 41.8286 86.3019C41.419 86.5686 41.0711 86.543 40.6527 86.2986C39.447 85.5936 38.2031 84.9458 37.4924 83.6535C36.6358 83.19 36.3852 82.2485 35.8529 81.5328C35.5941 81.1849 35.5116 80.7056 35.3311 80.2384C35.6458 79.7799 36.1031 79.9012 36.6561 80.1771C36.6027 79.9166 36.6171 79.6767 36.5078 79.5289C36.3566 79.3255 36.5182 79.2456 36.6039 79.2095C36.9932 79.0467 37.3958 78.9275 37.7164 78.6201C37.7947 78.5447 38.0163 78.5746 38.1538 78.616C38.3995 78.6905 38.6099 78.8475 38.8828 78.6255C38.9603 78.563 39.2121 78.688 39.3703 78.7576C40.7302 79.3549 41.9608 80.1038 42.766 81.4292C42.8745 81.6082 43.1189 81.7979 43.3015 81.9681C43.8255 82.4548 43.9237 83.1639 44.3292 83.6887C44.5984 84.0379 44.5396 84.3444 44.3797 84.7051Z" fill="white"/>
<path fill-rule="evenodd" clip-rule="evenodd" d="M112.947 32.0397C112.976 31.8314 113.006 31.6226 113.039 31.3932C113.121 31.4528 113.194 31.4764 113.213 31.5224C113.503 32.2307 113.864 32.9096 114.034 33.6671C114.141 34.1435 114.277 34.5995 113.816 34.9706C113.502 35.2233 113.821 35.949 113.114 35.9084C112.781 36.4431 112.248 36.3897 111.738 36.3532C111.622 36.7111 111.551 37.0599 111.4 37.3709C111.231 37.7213 110.69 37.8203 110.109 37.6546C109.977 37.617 109.849 37.4881 109.727 37.4989C108.787 37.5809 108.789 37.588 108.393 36.8465C108.196 36.4767 107.957 36.1233 107.804 35.7361C107.617 35.2639 107.328 34.969 106.851 34.7652C106.143 34.4624 105.683 33.8485 105.561 33.1183C105.45 32.4572 105.76 31.8509 106.35 31.3745C106.642 31.7564 106.934 32.1371 107.343 32.6706C107.343 32.1246 107.337 31.7572 107.345 31.3903C107.352 31.0254 107.392 31.0999 107.969 30.8398C108.382 30.6538 108.979 30.8791 109.217 30.3067C109.624 30.291 110.031 30.2761 110.439 30.2603C111.192 30.2305 111.859 30.3125 112.21 31.1492C112.349 31.4806 112.683 31.7307 112.947 32.0397Z" fill="white"/>
<path fill-rule="evenodd" clip-rule="evenodd" d="M1.5815 37.5282C0.690137 37.3351 0.377001 36.7031 0.295817 36.1476C0.191853 35.4373 -0.0487983 34.741 0.00877567 33.99C0.0833319 33.0179 0.0779473 32.0317 0.00504786 31.0596C-0.0301592 30.5878 0.272622 30.2386 0.26558 29.7975C0.263924 29.6828 0.423391 29.4608 0.498776 29.4653C1.08031 29.4984 1.35659 28.8689 1.96629 28.8651C2.37014 28.8631 2.77191 28.4845 3.22505 28.2476C3.67156 28.6941 4.62132 28.1419 4.98333 29.1265C4.74641 29.8182 5.33665 30.4258 5.5367 31.1345C5.56446 31.2335 5.66842 31.3218 5.66925 31.4154C5.67878 32.5316 5.67505 33.6475 5.67505 34.8599C5.49446 34.6996 5.41617 34.6304 5.22191 34.4577C5.2828 34.7199 5.2712 34.9208 5.36067 34.9887C5.45594 35.0616 5.65682 34.9808 5.79185 35.026C5.85315 35.0463 5.88588 35.2082 5.8925 35.3084C5.89582 35.3544 5.79599 35.4559 5.75954 35.4484C5.48617 35.395 5.21653 35.3205 4.9212 35.2467C4.71949 35.6833 4.5041 36.1493 4.34339 36.4976C4.03564 36.4748 3.85173 36.4608 3.66824 36.4471C3.99008 36.7718 3.6202 36.8886 3.48641 37.0883C3.35014 37.2908 3.25031 37.5178 3.14221 37.7195C2.43144 37.6425 2.16635 37.1844 1.97623 36.5776C1.84162 36.9023 1.72025 37.1935 1.5815 37.5282Z" fill="white"/>
<path fill-rule="evenodd" clip-rule="evenodd" d="M84.7326 89.4751C84.1482 89.4585 83.5952 89.3007 83.3128 89.9485C82.8356 89.3197 82.7793 88.8736 83.2651 88.3741C83.6006 88.0295 83.8218 87.5992 84.2493 87.3013C84.6233 87.0404 84.7608 86.4634 85.0831 86.096C85.3307 85.8135 85.7027 85.6396 86.0196 85.418C86.1186 85.5145 86.2254 85.6197 86.394 85.785C86.2151 85.9121 86.0394 86.0372 85.8634 86.1619C85.8829 86.207 85.9028 86.2522 85.9222 86.2973C86.1799 86.2567 86.4371 86.2161 86.7266 86.1706C86.8036 86.2861 86.8931 86.5827 87.0849 86.6825C88.2368 87.2823 88.972 88.2834 89.672 89.311C89.9019 89.6482 89.981 90.0844 90.1657 90.4576C90.6217 91.38 90.7394 91.5502 90.6006 92.3886C90.5004 92.9945 90.3898 93.6407 89.9139 94.1344C89.7258 94.3291 89.5254 94.6103 89.5154 94.8597C89.4906 95.4893 89.1447 95.5899 88.6361 95.5576C88.494 95.5485 88.3436 95.5667 88.2053 95.604C87.3181 95.8426 87.2265 95.8177 86.7842 95.1376C86.1289 94.1307 85.8158 92.9792 85.4347 91.86C85.1655 91.0693 84.96 90.2563 84.7326 89.4751Z" fill="white"/>
<path fill-rule="evenodd" clip-rule="evenodd" d="M70.3682 77.0822C69.7407 76.726 69.1053 76.4141 68.5938 75.8984C67.6407 74.9358 66.6176 74.0341 65.7383 73.0086C64.8138 71.9304 63.835 70.8676 63.2771 69.6034C63.3359 69.1043 63.9862 69.6345 63.9986 69.0455C64.0024 68.8773 64.4145 68.715 64.6431 68.5555C65.2106 68.1595 65.5275 68.0932 65.9408 68.5331C66.3488 68.9676 66.8206 69.1234 67.3545 69.2364C68.1792 69.4112 68.7483 70.0445 69.4541 70.4343C70.2092 70.851 70.7472 71.522 71.3607 72.1048C71.6783 72.4063 72.0731 72.6379 72.346 72.9717C72.6206 73.3076 72.8729 73.7115 72.9702 74.1244C73.0291 74.3758 72.8402 74.7553 72.648 74.9793C72.4107 75.2556 72.2984 75.6545 71.883 75.7883C71.6427 75.8653 71.6767 76.1337 71.6299 76.3549C71.576 76.6088 71.5052 76.9178 71.0645 76.5989C70.7563 76.3764 70.497 76.6921 70.3682 77.0822Z" fill="white"/>
<path fill-rule="evenodd" clip-rule="evenodd" d="M115.845 70.5489C114.558 70.0187 114.004 69.0329 113.454 68.0749C112.971 67.2328 112.53 66.3559 112.171 65.4542C111.812 64.5537 111.187 63.7005 111.466 62.5672C112.28 63.1347 112.213 64.2195 112.995 64.9447C112.852 63.7974 112.256 62.911 111.959 61.7024C112.37 61.9277 112.519 62.0093 112.702 62.1091C112.737 61.9124 112.774 61.7061 112.81 61.5007C113.151 61.436 113.487 61.3723 113.883 61.2969C113.989 61.465 114.126 61.7136 114.291 61.9439C114.93 62.8398 114.934 62.8356 116.095 63.2486C116.225 63.295 116.346 63.3704 116.464 63.4449C117.363 64.0132 118.182 64.6536 118.677 65.6414C118.86 66.0068 119.11 66.6778 119.099 67.0667C119.096 67.1578 119.172 67.2647 119.239 67.3417C119.408 67.5376 119.331 67.7046 119.157 67.8036C118.649 68.0898 118.429 68.6531 117.979 68.9902C117.786 69.134 117.752 69.3253 117.717 69.5627C117.669 69.8858 117.035 70.3045 116.741 70.2366C116.558 70.1943 116.44 69.8588 116.191 70.1061C116.06 70.2362 115.961 70.3977 115.845 70.5489Z" fill="white"/>
<path fill-rule="evenodd" clip-rule="evenodd" d="M79.2642 44.2238C79.067 44.2565 78.8604 44.2905 78.575 44.3377C78.6876 44.5489 78.768 44.6989 78.8521 44.8563C78.3157 45.3926 77.7573 45.951 77.1816 46.5271C77.0888 46.5271 76.9753 46.5102 76.8685 46.5296C75.6014 46.7641 74.7577 46.045 74.054 45.1781C73.5043 44.5009 73.0317 43.7549 72.6639 42.941C72.4344 42.4328 72.2294 41.9647 72.3934 41.2742C72.7778 42.1192 73.1204 42.8714 73.4629 43.624C73.5238 43.6041 73.5847 43.5847 73.646 43.5648C73.6182 43.4215 73.6141 43.2678 73.5586 43.1361C73.3295 42.5918 73.069 42.06 72.8532 41.5112C72.7575 41.268 72.5525 40.9653 73.0748 40.8522C73.2359 40.8174 73.3304 40.4699 73.4534 40.264C73.5611 40.0834 73.6654 39.9008 73.7508 39.755C74.2789 39.7065 74.2839 40.1683 74.6131 40.3589C74.5365 40.0681 74.4599 39.7773 74.3588 39.3946C74.5278 39.2608 74.7536 39.0819 74.9793 38.9025C75.1218 39.0442 75.3107 39.2699 75.4859 38.8537C75.676 38.4038 75.9568 38.2286 76.412 38.5239C76.4534 38.5509 76.5392 38.5716 76.5665 38.5492C77.0938 38.1147 77.4044 38.5476 77.6484 38.8797C78.2308 39.6738 78.505 40.6273 78.8537 41.5344C78.9357 41.7473 79.1143 42.2472 78.5137 42.2712C78.4797 42.2725 78.4536 42.4593 78.4242 42.5595C78.5493 42.5897 78.7415 42.6867 78.7891 42.6386C79.1259 42.301 79.3073 42.7418 79.2741 42.8192C79.0716 43.2951 79.5409 43.7549 79.2642 44.2238Z" fill="white"/>
<path fill-rule="evenodd" clip-rule="evenodd" d="M75.1738 20.1193C75.3064 20.2519 75.4393 20.3848 75.6411 20.5861C75.6779 20.2668 75.7086 20.0034 75.7421 19.7159C76.2069 19.6186 76.6861 19.496 77.1728 19.4239C77.4669 19.3804 77.7775 19.3816 78.0708 19.4268C78.2944 19.4616 78.1188 19.8783 78.5359 19.9147C78.8055 19.9383 79.0127 20.3964 79.2044 20.7154C79.3602 20.9743 79.127 21.5347 79.7184 21.5011C79.7387 21.8677 79.759 22.2347 79.7802 22.6012C79.7818 22.6369 79.7901 22.6721 79.7955 22.7077L81.4738 24.386C81.6536 24.386 81.8441 24.3628 82.026 24.3914C82.3064 24.4366 82.6083 24.7145 82.4646 24.8868C82.1448 25.2699 82.7181 25.5346 82.4907 25.8473C81.6171 26.1091 81.3417 26.1381 80.6309 26.0138C80.809 26.3986 80.964 26.7341 81.1586 27.1558C81.0451 27.2647 80.8956 27.5302 80.7482 27.5294C79.8174 27.5224 78.8379 27.7585 78.0082 27.0978C77.7833 26.9185 77.5116 26.778 77.3368 26.5589C76.9379 26.0594 76.5809 25.5263 76.2168 24.9995C76.0374 24.7398 75.8842 24.4614 75.7119 24.1963C75.4451 23.7859 75.5242 23.1944 75.0351 22.9007C75.1092 22.4028 74.8284 22.0263 74.649 21.5968C74.4051 21.0132 74.5563 20.4548 75.1738 20.1193Z" fill="white"/>
<path fill-rule="evenodd" clip-rule="evenodd" d="M40.3117 3.37464C40.752 3.37464 41.0532 3.37423 41.3539 3.37464C41.7569 3.37547 42.1931 3.30796 42.2854 3.89032C42.2954 3.95494 42.4461 4.05393 42.5182 4.04358C42.9954 3.97275 43.1192 4.42382 43.4112 4.62222C44.2036 5.16068 44.3204 6.04748 44.5184 6.8676C44.6315 7.33524 44.4803 7.67074 43.948 7.98926C43.3507 8.34672 42.6031 8.56873 42.1931 9.21819C41.831 9.22524 41.5349 9.79145 41.112 9.33831C41.0507 9.27287 40.9148 9.25092 40.8142 9.25257C39.3885 9.27991 38.4963 8.46145 37.7512 7.37003C37.373 6.81666 36.8996 6.3221 36.7513 5.64074C36.6904 5.36115 36.6548 5.07453 36.6349 4.78914C36.6278 4.69553 36.6829 4.53316 36.7484 4.50956C37.322 4.30453 37.7391 3.81535 38.2954 3.61612C38.9813 3.37092 39.7149 3.29719 40.3117 3.37464Z" fill="white"/>
<path fill-rule="evenodd" clip-rule="evenodd" d="M38.5009 58.1682C38.6662 58.4279 38.7876 58.6193 39.0237 58.9908C39.0767 58.5974 39.097 58.4627 39.1123 58.3277C39.162 57.88 39.1612 57.8808 39.727 57.8232C39.7978 57.8158 39.9067 57.8253 39.932 57.7851C40.1901 57.3784 40.5931 57.2645 40.9998 57.3871C41.4608 57.5258 41.9558 57.6998 42.3145 58.0021C43.7141 59.1818 44.5375 60.7628 45.177 62.4403C45.2856 62.7265 45.1924 63.0894 45.1924 63.4124C45.0246 63.3938 44.8929 63.3793 44.7608 63.3644C44.7893 63.7695 44.6978 64.0698 44.224 64.1655C44.0819 64.1945 43.8876 64.4065 43.8735 64.5494C43.8259 65.0374 43.3247 64.7996 43.1499 65.0535C42.8708 64.6091 42.3903 65.1471 42.0763 64.8294C41.7756 64.5254 41.3639 64.291 41.1651 63.9339C40.7273 63.1474 40.3081 62.3289 40.0517 61.4723C39.9208 61.0341 39.7266 60.7429 39.389 60.5441C38.841 60.2223 38.4152 59.8143 38.1476 59.2344C37.9244 58.7502 37.9148 58.7548 38.5009 58.1682Z" fill="white"/>
<path fill-rule="evenodd" clip-rule="evenodd" d="M59.6719 45.0301C59.6719 44.9178 59.645 44.7617 59.6814 44.6217C59.7059 44.5281 59.8662 44.4643 59.8803 44.3744C59.8956 44.2763 59.7804 44.1636 59.7792 44.0567C59.7784 43.9619 59.9117 43.8455 59.8857 43.7755C59.838 43.6467 59.7312 43.5274 59.6214 43.4379C59.5485 43.3783 59.4271 43.3774 59.2772 43.3368C59.3476 43.5816 59.4043 43.7788 59.4615 43.9764C59.0626 43.7332 58.6194 43.5394 58.8145 42.9533C58.9794 43.0237 59.1413 43.0937 59.3422 43.1799C59.4068 42.4745 58.7528 42.8415 58.501 42.5076C58.8696 42.5511 59.1152 42.2972 59.4859 42.3465C59.6578 42.3693 59.8815 42.0039 60.1449 41.7546C60.5107 42.0532 60.9207 42.3875 61.4004 42.7789C61.4472 42.4927 61.4807 42.2889 61.5213 42.0408C62.0635 41.936 62.6194 41.8287 63.1814 41.7202C63.4701 42.0889 63.6959 42.4252 63.9709 42.7147C64.2095 42.9649 64.5375 43.1318 64.7674 43.3882C65.4161 44.1122 65.7101 45.0264 65.9769 45.9306C66.0726 46.2541 66.1778 46.766 65.5594 46.8526C65.5623 47.4465 64.936 47.5352 64.6535 47.9117C64.2994 48.3831 63.6731 48.4642 62.9971 48.1913C61.9848 47.7825 61.3196 46.9922 60.673 46.2226C60.3496 45.837 59.9863 45.4733 59.6719 45.0301Z" fill="white"/>
<path fill-rule="evenodd" clip-rule="evenodd" d="M78.2878 59.6791C78.4701 59.7413 78.6461 59.8009 78.8478 59.8697C78.8888 58.9195 77.9068 58.6532 77.7701 57.7784C77.9689 57.8662 78.1308 57.9035 78.2481 57.9967C78.4361 58.1466 78.5943 58.333 78.8288 58.5674C78.7488 58.0911 78.6958 57.9817 78.4241 57.6558C79.0181 56.9375 79.0181 56.9375 79.7193 56.9351C80.1049 57.3696 80.4342 57.942 80.9283 58.2435C81.4739 58.577 81.6346 59.1461 82.0368 59.5541C82.4211 59.9446 82.6763 60.4765 82.931 60.9756C83.071 61.249 83.1899 61.5981 83.1443 61.8856C83.0863 62.2488 82.9314 62.7828 82.6746 62.8859C82.2521 63.0561 82.3466 63.3548 82.2136 63.6116C82.0314 63.9624 81.782 64.3037 81.3247 64.3791C81.0576 64.423 80.7395 64.6268 80.5436 64.5385C80.0668 64.3236 79.5743 64.0498 79.2218 63.6741C78.5566 62.965 77.9618 62.1851 77.3927 61.3948C77.2498 61.1968 77.3157 60.8488 77.2734 60.4574C77.4631 60.6107 77.5385 60.6712 77.6984 60.8C77.6156 60.2238 78.1192 60.0262 78.2878 59.6791Z" fill="white"/>
<path fill-rule="evenodd" clip-rule="evenodd" d="M72.349 101.108C72.0404 100.938 71.8917 100.857 71.7475 100.777C71.4936 101.695 71.4307 101.742 70.6806 101.412C70.8785 101.873 71.0372 102.242 71.2099 102.642C71.014 102.756 70.8135 102.873 70.611 102.99C70.2448 102.625 69.8733 102.253 69.4674 101.847C69.223 102.397 69.8956 102.652 69.8294 103.183C69.2259 103.267 68.8759 102.857 68.5284 102.479C68.3387 102.273 68.2359 101.985 68.0404 101.786C67.169 100.901 66.3861 99.9448 65.6563 98.9424C65.5909 98.8526 65.5001 98.7805 65.419 98.7026C64.9791 98.283 64.5181 97.8775 64.4854 97.1937C64.9244 96.9249 65.1576 97.3391 65.4562 97.5955C65.7598 97.093 65.0574 97.0259 65.0888 96.6556C65.1158 96.2091 65.9653 96.7787 65.7495 96.0488H66.9726C67.3226 96.2953 67.6776 96.5392 68.0255 96.7923C68.3747 97.0462 68.6054 97.4111 69.0329 97.6178C69.4479 97.8191 69.7229 98.2938 70.0883 98.6156C70.3264 98.8256 70.4776 99.1143 70.8583 99.2088C71.1337 99.2767 71.2807 99.6946 71.6991 99.6408C71.8155 99.6255 72.0255 99.8359 72.0847 99.9854C72.1978 100.27 72.2326 100.586 72.349 101.108Z" fill="white"/>
<path fill-rule="evenodd" clip-rule="evenodd" d="M64.5875 25.5579C64.976 25.5836 65.2444 25.3827 65.5998 25.6391C65.4192 25.7012 65.2883 25.7463 65.1455 25.7956C65.2788 26.2484 65.4271 26.6982 65.536 27.1571C65.5638 27.2747 65.5021 27.5071 65.4205 27.5415C64.9673 27.7329 64.8302 28.2204 64.4773 28.4875C64.3212 28.606 64.0872 28.6445 63.883 28.6677C63.7807 28.6789 63.6601 28.5244 63.5578 28.5352C63.4331 28.5484 63.3188 28.6573 63.1875 28.7319C62.9937 28.0468 63.0036 28.0191 62.2402 27.7589C61.7834 27.6032 61.6885 27.1542 61.3646 26.8717C61.2921 27.0262 61.2221 27.1753 61.1439 27.3427C61.0299 27.2234 60.8382 27.1149 60.8386 27.0072C60.8444 25.6614 60.8431 25.6312 60.2289 24.8247C59.8826 25.4332 60.5462 25.7853 60.5822 26.3805C60.4178 26.3548 60.1721 26.3739 60.1436 26.3039C59.8549 25.6022 59.415 24.9395 59.866 24.0978C60.006 23.8365 60.0313 23.6994 60.3457 23.694C60.5395 23.6911 60.7479 23.5772 60.9206 23.4678C61.3683 23.1849 61.7995 22.8768 62.2779 22.5508C62.3873 22.714 62.4883 22.8652 62.4639 22.8283C62.8412 23.0913 63.2347 22.383 63.2977 23.1216C63.3159 23.3311 63.7844 22.8312 63.7844 23.38C63.7844 23.5921 64.1741 23.8046 64.3701 24.0005C64.3001 24.1819 64.2338 24.355 64.1671 24.5282C64.2226 24.5667 64.2781 24.6052 64.334 24.6437C64.4322 24.4569 64.5304 24.2701 64.6542 24.0353C64.8559 24.3782 64.9731 24.5766 65.1268 24.8372C64.9599 25.06 64.7739 25.3089 64.5875 25.5579Z" fill="white"/>
<path fill-rule="evenodd" clip-rule="evenodd" d="M26.6178 59.2989C26.3576 58.9709 26.1518 58.7112 25.9232 58.4221C25.8068 58.6602 25.7326 58.8114 25.6361 59.0086C25.2016 58.8048 24.9092 58.4685 24.6603 58.1176C24.1102 57.3418 23.6848 56.4861 23.1273 55.7091C22.7843 55.2315 22.764 54.6313 22.8995 54.01C23.4143 53.9056 23.5258 54.5108 23.9549 54.6636V53.5639C24.7659 53.4496 25.5475 53.3394 26.264 53.2388C27.0158 53.9139 27.5108 54.6433 27.8616 55.4858C28.0621 55.9659 28.475 56.3262 28.6005 56.8755C28.6503 57.0925 28.3719 57.3845 28.7145 57.546C28.7203 57.5485 28.6126 57.8128 28.6092 57.8116C28.0501 57.6098 27.862 58.4208 27.324 58.2908C27.2892 58.2821 27.1939 58.49 27.1405 58.6039C27.0813 58.729 27.0547 58.8723 26.9818 58.9875C26.928 59.0736 26.8236 59.1275 26.6178 59.2989Z" fill="white"/>
<path fill-rule="evenodd" clip-rule="evenodd" d="M51.6375 72.9608C51.799 73.3344 51.9166 73.6065 52.0848 73.9946C52.1917 73.7117 52.2409 73.5821 52.2931 73.4446C52.3437 73.4756 52.4265 73.4972 52.4373 73.5378C52.5392 73.925 52.7231 74.256 53.0027 74.5501C53.17 74.7261 53.2909 74.9527 53.4048 75.1709C53.6057 75.5574 53.8907 75.8212 54.3521 75.9033C54.4246 75.7566 54.4992 75.605 54.534 75.5346C54.7477 75.6945 54.9801 75.8689 55.1532 75.9985C55.1532 76.1393 55.1681 76.1998 55.1511 76.211C54.9465 76.344 54.7373 76.4695 54.5464 76.5863C54.6019 76.8949 54.6516 77.1744 54.7266 77.5932C54.3882 77.4288 54.203 77.3385 53.9363 77.2084C53.7884 77.5058 53.6401 77.8049 53.4806 78.1263C53.3291 78.1433 53.1514 78.164 52.9339 78.1884V78.6904C52.3664 79.1154 51.9021 79.0582 51.4101 78.6096C50.8741 78.1209 50.2698 77.7079 49.723 77.126C49.9529 76.974 50.1749 76.8273 50.4185 76.6666C50.2942 76.211 50.0709 75.8043 49.7491 75.4066C49.4273 75.0086 49.2508 74.4925 49.0193 74.0443C49.3502 73.6363 49.6116 73.9383 49.9152 74.0659C49.928 73.952 49.9806 73.8306 49.9446 73.7486C49.718 73.2391 49.8162 72.9873 50.2963 72.9653C50.7469 72.9442 51.1992 72.9608 51.6375 72.9608Z" fill="white"/>
<path fill-rule="evenodd" clip-rule="evenodd" d="M19.488 77.4272C19.6773 77.7072 19.8318 77.9362 20.0248 78.2216C20.0749 78.0655 20.1437 77.9648 20.1279 77.8807C20.0509 77.4728 19.9511 77.0693 19.8467 76.6091H20.5032C20.56 76.7272 20.6295 76.8718 20.7671 77.158V76.2351C20.8955 76.19 21.0048 76.1763 21.0814 76.1196C21.2566 75.9891 21.5342 75.6929 21.5627 75.7161C21.8498 75.9522 22.2043 75.8097 22.4827 75.9166C22.8977 76.0757 23.292 76.3532 23.2866 76.8825C23.285 77.0407 23.0754 77.2168 23.1069 77.3497C23.1326 77.4578 23.4225 77.4819 23.5091 77.6041C23.5799 77.7039 23.5857 77.9715 23.5128 78.0299C23.22 78.2635 23.2846 78.5658 23.3045 78.8491C23.3297 79.2029 23.1748 79.4178 22.8608 79.5069C22.5253 79.6022 22.4471 79.8171 22.3766 80.1381C22.2768 80.5917 21.9658 80.8932 21.4397 80.8709C21.2579 80.8634 21.0694 80.8676 20.893 80.9061C20.444 81.0042 19.8782 80.8965 19.7382 80.5673C19.3965 79.7637 18.9019 79.0045 18.9939 78.0589C19.0299 77.6902 19.2519 77.5854 19.488 77.4272Z" fill="white"/>
<path fill-rule="evenodd" clip-rule="evenodd" d="M55.7132 57.105C55.994 57.1874 56.2872 57.2731 56.6476 57.3788C56.8004 57.0147 56.8456 56.6651 56.5233 56.34C56.9193 55.98 57.1827 56.5226 57.5708 56.4638C57.6069 56.2679 57.6454 56.0616 57.6827 55.8595C57.9867 55.5339 58.2609 56.1345 58.6283 55.8512C59.004 55.5613 59.0988 56.1871 59.4182 56.2588C59.5975 56.2989 59.7653 56.4858 59.8933 56.6431C60.3174 57.1634 60.3837 57.8994 60.9549 58.3538C61.0916 58.4623 61.0187 58.8355 61.0493 59.1673C60.416 58.8562 60.3775 59.8611 59.7674 59.6229C59.5797 59.9265 59.757 60.477 59.0707 60.5429C58.9982 60.4194 58.8847 60.226 58.7232 59.9501C58.5856 60.2372 58.519 60.3763 58.4506 60.5197C58.0662 60.6108 57.8902 60.2794 57.7639 60.0686C57.3443 59.3665 56.8008 58.8293 56.0979 58.4093C55.6655 58.1508 55.4282 57.7296 55.7132 57.105Z" fill="white"/>
<path fill-rule="evenodd" clip-rule="evenodd" d="M50.217 27.0933C49.6839 27.5108 49.2909 27.819 48.7835 28.217H47.8345C47.4651 27.6827 47.345 26.9798 46.8003 26.5387C46.7431 25.7948 46.2287 25.3338 45.7818 24.8152C45.6397 24.6499 45.6703 24.3359 45.6099 24.0286C45.7731 23.983 45.9346 23.9864 46.0191 23.9072C46.886 23.0966 47.7028 23.5523 48.3937 24.1052C48.9835 24.577 49.4814 25.2012 49.8993 25.8366C50.1363 26.1965 50.13 26.7164 50.217 27.0933Z" fill="white"/>
</svg>
