<svg width="83" height="93" viewBox="0 0 83 93" fill="none" xmlns="http://www.w3.org/2000/svg">
<g clip-path="url(#clip0)">
<path fill-rule="evenodd" clip-rule="evenodd" d="M2.20352 72.2772C2.33179 72.3534 2.37735 72.2653 2.42029 72.1694C2.47265 72.1866 2.52658 72.2044 2.58051 72.2223C2.50461 72.3497 2.59245 72.3961 2.68966 72.4377C2.67185 72.4916 2.65405 72.5456 2.63624 72.5995C2.50823 72.5252 2.46293 72.6125 2.42 72.7084C2.36607 72.6906 2.31214 72.6728 2.25978 72.6555C2.33437 72.5267 2.24627 72.4811 2.1501 72.439C2.16791 72.3851 2.18571 72.3311 2.20352 72.2772ZM3.44259 72.3283C3.66381 72.3225 3.81749 72.1826 4.14158 72.3797C4.03971 72.8011 3.48395 72.3212 3.44281 72.8658C3.12704 72.8456 3.43452 72.5103 3.44259 72.3283ZM10.1638 70.4243C9.57573 70.2128 9.75264 70.0918 9.19464 70.1043C9.53266 69.7106 8.89604 69.8064 9.03159 69.5139C9.68483 69.6776 9.95289 70.0366 10.1638 70.4243ZM10.9699 69.6157C10.9165 69.7775 10.8631 69.9392 10.8097 70.101C10.6069 69.9327 10.5007 69.7164 10.4838 69.4552C10.6456 69.5086 10.8066 69.5617 10.9699 69.6157ZM10.8587 68.863C11.2278 69.1444 11.4363 69.1456 11.9904 69.2367C11.9556 69.6126 11.7511 69.6543 11.6155 69.8288C11.3803 69.5908 11.3067 69.1678 10.8597 69.4007C10.9494 69.1764 10.6391 69.1528 10.8587 68.863ZM15.0264 67.9092C15.3101 68.2525 15.6863 68.1158 16.131 68.0945C15.9792 68.4388 16.5188 68.4375 16.4548 68.7388C15.9886 68.4367 15.8668 68.8186 15.6485 69.01C15.3583 68.6628 14.6295 68.5366 14.7299 67.9907C14.896 68.0941 14.8964 67.875 15.0264 67.9092ZM16.7248 68.47C17.0133 68.6883 17.0374 68.379 17.2612 68.4677C17.2002 68.7023 16.9363 68.5355 16.941 68.8993C16.8331 68.8637 16.7253 68.8281 16.6182 68.7928C16.6538 68.6849 16.6894 68.577 16.7248 68.47ZM17.2053 67.0147C17.3734 67.1092 17.4457 67.2527 17.4212 67.4448C17.3134 67.4092 17.2055 67.3736 17.0984 67.3383C17.134 67.2304 17.1697 67.1225 17.2053 67.0147ZM20.2157 66.5759C20.3243 66.6118 20.4314 66.6471 20.54 66.683C20.5222 67.094 20.1822 66.8639 20.1648 67.2759C20.0578 67.2406 19.9499 67.205 19.8421 67.1694C19.8586 66.757 20.1986 66.9872 20.2157 66.5759ZM20.2745 68.0281C20.124 67.9247 19.671 67.9736 19.8423 67.7068C19.9943 67.8108 20.4481 67.7621 20.2745 68.0281ZM22.0411 64.8487C22.0054 64.9566 21.9698 65.0644 21.9347 65.1707C21.7655 65.0767 21.6938 64.9343 21.7183 64.7421C21.8261 64.7777 21.9332 64.8131 22.0411 64.8487ZM22.0446 65.9247C21.936 65.8888 21.8289 65.8535 21.7211 65.8179C21.7567 65.71 21.7923 65.6021 21.8279 65.4943C22.1268 65.5236 22.199 65.6671 22.0446 65.9247ZM24.6781 64.4643C24.948 64.4633 24.7618 64.6913 24.7326 64.8403C24.5053 64.6543 24.5844 65.0817 24.3556 64.8952C24.4171 64.6616 24.6813 64.8277 24.6781 64.4643ZM27.4708 62.5192C27.6915 62.2288 27.3794 62.2055 27.4691 61.9812C27.5769 62.0168 27.684 62.0521 27.7926 62.088C27.5722 62.3775 27.8841 62.4016 27.7936 62.6257C27.6858 62.5901 27.5779 62.5545 27.4708 62.5192ZM27.4678 61.4416C27.6916 61.5329 27.7157 61.221 28.0063 61.4409C28.0092 61.805 27.7458 61.6392 27.6848 61.8712C27.5158 61.7765 27.4433 61.6338 27.4678 61.4416ZM26.8779 62.144C26.9402 61.8213 27.1293 61.7528 27.3612 61.7644C27.18 61.8511 27.1258 62.1911 26.8779 62.144ZM29.2929 60.2535C29.357 60.0198 29.6178 60.1857 29.6167 59.8213C29.7856 59.916 29.8571 60.0593 29.8324 60.2522C29.6067 60.1612 29.5845 60.4728 29.2929 60.2535ZM30.5289 59.2271C30.6996 59.4845 30.8675 59.5218 31.0676 59.2255C31.714 59.6253 32.0036 59.3967 32.3866 59.8405C32.4866 59.8579 32.5037 59.7144 32.549 59.6245C32.5598 59.5076 32.3693 59.4915 32.2509 59.4377C32.2489 59.0738 32.5104 59.2399 32.5738 59.006C32.8668 59.1946 32.8842 59.5228 33.3563 59.6232C33.4732 59.6341 33.4891 59.4417 33.5429 59.326C33.8123 59.3473 33.5503 59.637 33.8928 59.6209C34.2183 59.5091 34.4635 59.2364 34.8349 59.2143C34.8191 59.3617 34.722 59.3461 34.6186 59.3232C34.4342 59.5509 34.8616 59.4719 34.6746 59.6997C34.4466 59.5134 34.5256 59.9408 34.2984 59.7549C34.1119 59.9837 34.5383 59.9025 34.3518 60.1313C34.5821 60.3183 34.5008 59.8901 34.7295 60.0766C34.6942 60.1837 34.6586 60.2916 34.623 60.3994C34.2744 60.2817 34.16 60.0481 34.0019 59.8364C33.7482 59.841 33.8718 60.2069 33.9495 60.2655C33.881 60.5306 33.6977 60.5715 33.4923 60.5635C33.5279 60.4556 33.5632 60.3486 33.5988 60.2407C33.2077 59.9972 33.1593 60.4379 32.8459 60.3501C32.8531 60.1444 32.8133 59.9631 32.55 59.8944C32.3669 59.8452 32.4015 60.2259 32.3087 60.3521C32.0303 60.2897 31.8075 60.2005 31.7963 60.0035C31.6453 60.1036 31.4274 60.0733 31.394 60.4081C30.6393 60.3392 31.0343 59.6913 30.4223 59.5498C30.4579 59.442 30.4932 59.3349 30.5289 59.2271ZM33.3234 57.8199C33.6225 57.8484 33.6945 57.9927 33.5396 58.2492C33.4325 58.2139 33.3246 58.1783 33.2168 58.1427C33.2524 58.0348 33.2878 57.9277 33.3234 57.8199ZM34.2958 59.2166C34.1055 58.9977 33.8683 58.8024 34.0249 58.4095C34.3348 58.5682 34.2084 58.9459 34.2958 59.2166ZM34.6695 58.0849C34.6339 58.1928 34.5985 58.2998 34.5629 58.4077C34.4551 58.3721 34.3472 58.3365 34.2393 58.3009C34.3341 58.1319 34.4773 58.0605 34.6695 58.0849ZM35.4194 56.898C35.2911 57.0923 35.124 57.2044 34.8293 57.0629C34.9557 56.8689 35.1246 56.7565 35.4194 56.898ZM36.1194 56.9514C36.0683 57.4737 35.6892 57.3459 35.6376 57.8672C35.2976 57.637 35.2787 58.046 34.9386 57.8158C35.1677 57.5577 35.4015 57.309 35.5819 56.9517C35.8717 57.1713 35.895 56.8618 36.1194 56.9514ZM35.6938 58.7811C36.0165 58.8434 36.0852 59.0343 36.0721 59.2657C35.9103 59.2123 35.7493 59.1591 35.5867 59.1054C35.6226 58.9968 35.6582 58.889 35.6938 58.7811ZM36.5511 57.2717C36.4977 57.4334 36.444 57.596 36.3906 57.7578C36.0965 57.7716 36.4145 57.4753 36.1204 57.4892C36.2157 57.3213 36.3594 57.2483 36.5511 57.2717ZM36.6068 58.1872C36.7757 58.2819 36.8482 58.4246 36.8238 58.6168C36.4829 58.3864 36.464 58.7953 36.124 58.5651C36.2057 58.2836 36.5251 58.4687 36.6068 58.1872ZM36.9794 56.5177C37.2743 56.5041 36.9539 56.7997 37.2504 56.7866C36.8464 57.3484 37.5786 57.3387 37.4668 57.7534C37.3066 57.7005 37.144 57.6469 36.9838 57.5939C37.0557 57.3551 36.8147 57.2738 36.7926 57.0836C36.9715 56.7387 37.0984 56.8898 36.9794 56.5177ZM38.1068 55.8151C38.5188 55.8325 38.2887 56.1725 38.7005 56.1906C38.5429 56.5893 38.0162 56.2576 37.7334 56.4078C37.7494 55.9971 38.0897 56.2264 38.1068 55.8151ZM34.9923 58.1915C35.195 58.3598 35.3018 58.5745 35.3176 58.8363C35.1165 58.6685 35.0081 58.4533 34.9923 58.1915ZM32.256 61.0524C32.2917 60.9446 32.327 60.8375 32.3631 60.7281C32.5321 60.8229 32.6043 60.9663 32.5788 61.159C32.4718 61.1236 32.3639 61.088 32.256 61.0524ZM31.4507 61.8613C31.4863 61.7535 31.5219 61.6456 31.5573 61.5385C31.7265 61.6325 31.7979 61.7757 31.7751 61.9684C31.6656 61.9323 31.5593 61.8972 31.4507 61.8613ZM30.6978 61.9707C30.381 61.951 30.6903 61.6154 30.6968 61.433C31.0136 61.4526 30.7051 61.7885 30.6978 61.9707ZM40.4239 56.3999C40.3013 56.6949 40.1361 56.8986 39.8874 56.9405C40.0842 56.4915 40.025 56.374 39.6712 56.5111C39.8058 56.2452 40.0712 56.2341 40.4239 56.3999ZM42.9998 54.0243C42.9637 54.1337 42.9289 54.2393 42.893 54.3479C42.7852 54.3123 42.6773 54.2767 42.5702 54.2413C42.665 54.0724 42.8077 53.9999 42.9998 54.0243ZM44.7695 51.9199C44.7336 52.0285 44.6983 52.1356 44.6626 52.2435C44.4935 52.1495 44.4209 52.0068 44.4459 51.8131C44.5538 51.8487 44.6616 51.8843 44.7695 51.9199ZM45.0358 51.1133C45.0004 51.2204 44.9648 51.3283 44.9292 51.4361C44.8214 51.4005 44.7135 51.3649 44.6056 51.3293C44.7004 51.1603 44.8436 51.0889 45.0358 51.1133ZM46.5969 50.7325C46.9132 50.7511 46.6052 51.088 46.5971 51.27C46.2819 51.2508 46.5896 50.9147 46.5969 50.7325ZM48.5316 49.7583C48.222 49.5988 48.3476 49.2208 48.2597 48.9517C48.6235 48.947 48.4572 49.2119 48.6921 49.2721C48.6387 49.4339 48.585 49.5965 48.5316 49.7583ZM49.6587 49.0539C49.5269 49.4845 49.2898 49.3074 49.4453 49.7002C49.3382 49.6649 49.2304 49.6293 49.1225 49.5937C49.1985 49.2114 49.3665 49.0068 49.6587 49.0539ZM52.9902 47.1072C53.098 47.1428 53.2059 47.1784 53.313 47.2137C53.3171 47.5792 53.0535 47.4115 52.9922 47.647C52.6744 47.6252 52.985 47.2909 52.9902 47.1072ZM54.0685 47.6426C53.909 48.0415 53.3135 47.8449 53.4221 47.4292C53.6378 47.5004 53.8536 47.5716 54.0685 47.6426ZM54.4368 44.8969C54.4721 44.7899 54.508 44.6812 54.5434 44.5742C54.7131 44.6692 54.7845 44.8124 54.7603 45.0038C54.6533 44.9684 54.5454 44.9328 54.4368 44.8969ZM56.265 43.7072C56.5639 43.7366 56.6351 43.8806 56.4807 44.1381C56.3736 44.1028 56.265 44.0669 56.1579 44.0316C56.1935 43.9237 56.2294 43.8151 56.265 43.7072ZM58.5169 41.2264C58.6247 41.262 58.7326 41.2976 58.8404 41.3332C58.8051 41.4403 58.7695 41.5481 58.7339 41.656C58.5649 41.5612 58.4927 41.4177 58.5169 41.2264ZM59.2225 42.893C59.0011 43.183 59.3135 43.2056 59.2225 43.4312C58.9899 43.3692 59.1552 43.1048 58.7916 43.1087C58.8869 42.9408 59.0301 42.8693 59.2225 42.893ZM60.0235 40.467C60.1838 40.5199 60.3463 40.5736 60.5065 40.6265C60.1627 41.0694 60.9582 40.9386 60.6167 41.3823C60.2156 41.3816 60.4456 41.0631 60.1043 41.0337C59.7979 41.1267 59.9618 41.5492 59.9721 41.7069C59.5957 41.671 59.5535 41.4681 59.3784 41.3314C59.5847 41.0294 59.9282 40.9946 60.0235 40.467ZM61.0997 41.0035C61.327 41.1132 61.1681 41.4187 61.2623 41.5954C60.9172 41.4434 60.9196 41.9824 60.6185 41.9203C60.7442 41.5449 61.0474 41.5271 61.0997 41.0035ZM61.5828 40.6247C61.6684 40.8064 62.0095 40.8601 61.9618 41.107C61.8 41.0536 61.6383 41.0002 61.4765 40.9467C61.5116 40.8404 61.5469 40.7334 61.5828 40.6247ZM60.8357 42.8874C60.6708 42.657 60.292 42.5336 60.3501 42.1896C60.619 42.2784 60.8879 42.3672 61.1575 42.4562C61.096 42.6899 60.8329 42.5232 60.8357 42.8874ZM59.8681 43.1061C59.9629 42.9372 60.1061 42.8658 60.2985 42.8894C60.4904 43.0169 60.6033 43.1842 60.461 43.4813C60.0835 43.446 60.0426 43.2418 59.8681 43.1061ZM62.7641 39.7614C63.0827 39.7808 62.7718 40.1159 62.7669 40.2989C62.4485 40.2787 62.7591 39.9444 62.7641 39.7614ZM63.834 37.0671C64.1911 37.1564 64.3002 37.3719 64.158 37.7132C64.046 37.4986 63.9374 37.2841 63.834 37.0671ZM63.3511 37.9834C63.0812 37.9844 63.2677 37.7556 63.2975 37.6077C63.4046 37.643 63.5124 37.6786 63.6203 37.7142C63.6339 38.0091 63.337 37.6875 63.3511 37.9834ZM64.8565 37.2253C64.9644 37.2609 65.0715 37.2963 65.1793 37.3319C65.1837 37.6965 64.9199 37.5297 64.8581 37.7641C64.5405 37.7442 64.8503 37.407 64.8565 37.2253ZM66.0951 37.2754C65.8741 37.5665 66.1855 37.5896 66.095 37.8137C65.9021 37.7994 66.0312 37.621 65.9069 37.5721C65.7978 37.6245 65.6899 37.6782 65.5852 37.7355C65.4882 37.9401 66.062 37.8088 65.828 38.0843C65.4162 38.0662 65.6463 37.7262 65.2345 37.7081C65.3283 37.1826 65.6152 37.0381 66.0951 37.2754ZM66.1988 35.8769C66.1632 35.9848 66.1279 36.0918 66.0925 36.1989C65.9218 36.1044 65.8508 35.9622 65.8745 35.7698C65.9816 35.8052 66.0894 35.8408 66.1988 35.8769ZM67.1112 35.8202C67.0756 35.928 67.0408 36.0335 67.0046 36.143C66.6835 36.0811 66.6148 35.8903 66.6282 35.6607C66.7884 35.7136 66.951 35.7673 67.1112 35.8202ZM66.6883 37.6498C66.3223 37.6555 66.4902 37.3912 66.2553 37.3283C66.4362 37.2424 66.4901 36.9031 66.7381 36.9503C66.6847 37.1121 66.6315 37.2731 66.5781 37.4349C66.7257 37.4524 66.7104 37.5488 66.6883 37.6498ZM68.9363 33.5529C68.9709 33.4482 69.0073 33.338 69.0429 33.2301C69.2119 33.3249 69.2846 33.4694 69.2607 33.66C69.1521 33.6241 69.0442 33.5885 68.9363 33.5529ZM69.7465 34.3596C69.7588 34.6531 69.4628 34.3343 69.4761 34.63C69.3074 34.5344 69.2362 34.3904 69.2604 34.199C69.423 34.2527 69.5832 34.3056 69.7465 34.3596ZM71.2409 29.8335C71.4559 29.9045 71.6716 29.9757 71.8865 30.0467C71.7498 30.2217 71.5454 30.2634 71.5103 30.6401C71.2006 30.4833 71.3255 30.105 71.2409 29.8335ZM69.6832 31.2911C69.8507 31.0907 70.067 30.9818 70.3275 30.9673C70.1596 31.1684 69.9444 31.2768 69.6832 31.2911ZM67.8665 35.709C67.8306 35.8176 67.795 35.9255 67.7591 36.0341C67.6513 35.9985 67.5434 35.9629 67.4348 35.927C67.5306 35.7576 67.6738 35.6861 67.8665 35.709ZM2.18004 72.897C1.99247 72.9295 1.80305 72.9519 1.61364 72.9795C1.6682 73.3105 1.7329 73.6369 2.26258 73.7312C2.31508 73.6142 2.33041 73.4234 2.44913 73.434C2.56433 73.4893 2.45886 73.6539 2.42279 73.7841C2.97229 73.8026 3.35663 73.497 3.92995 73.564C4.02277 73.4378 3.98915 73.0566 4.17123 73.1063C4.28623 73.1833 4.15536 73.3828 4.44034 73.3755C4.70907 73.2362 4.96473 73.0762 5.11072 72.6997C4.99578 72.6461 4.80339 72.6303 4.81477 72.5118C5.48287 72.41 4.43782 71.5743 5.16108 71.463C4.83786 72.0297 5.46356 72.1193 5.32748 72.5918C5.61571 72.811 5.64086 72.5012 5.86365 72.5903C5.42274 72.8651 5.79802 73.1251 5.41002 73.4261C5.55055 73.6016 5.52577 73.8604 5.76143 73.9893C6.00832 73.8585 6.13165 73.4771 6.24242 73.0734C6.12749 73.0198 5.9351 73.004 5.94647 72.8855C5.97305 72.805 5.99989 72.7237 6.02621 72.644C6.38356 72.7325 6.49271 72.948 6.35079 73.2886C6.61728 73.4606 6.56836 73.0076 6.67257 72.8574C6.12393 72.6841 6.2248 72.1843 6.13022 71.783C6.48913 71.872 6.59672 72.0869 6.45583 72.427C6.74563 72.6466 6.76921 72.3363 6.99357 72.426C6.94482 72.7653 7.31633 72.8923 7.26498 73.2316C7.15712 73.196 7.05005 73.1606 6.9422 73.125C6.91776 73.3171 6.99 73.4606 7.15815 73.5551C7.38406 73.6453 7.40634 73.3337 7.6977 73.5539C7.79238 73.2592 7.45978 73.1797 7.34498 72.9893C8.15032 73.0047 7.69494 71.9425 7.8518 71.4543C7.30263 71.4611 7.52877 71.0781 7.31306 70.9176C7.09343 71.2074 7.40375 71.2309 7.31407 71.4553C7.0383 71.2221 7.16981 71.7951 6.96573 71.6991C6.73944 71.2924 6.16324 71.6777 5.78089 71.2186C6.15637 71.2759 6.26653 71.0236 6.12794 70.7057C6.46905 70.7568 6.59474 70.384 6.93507 70.4348C7.34684 70.8048 7.48804 70.6685 8.1754 71.0229C8.1648 70.8659 8.00015 70.4432 8.30597 70.3492C8.25741 70.7561 8.70631 70.9113 9.03592 71.1284C9.12874 71.0022 9.09486 70.6218 9.27745 70.6699C9.30921 70.8546 9.33266 71.0461 9.35871 71.235C9.57993 71.2292 9.73596 71.09 10.0585 71.2866C9.96487 71.4126 9.99953 71.7933 9.81642 71.7441C9.47485 71.7154 9.70638 71.3975 9.30555 71.396C9.26994 71.5039 9.23433 71.6117 9.19871 71.7196C9.32495 71.8124 9.70538 71.7785 9.65644 71.9609C9.50866 71.9805 9.45196 72.1785 9.25392 72.0958C9.11645 71.8086 8.56467 71.6264 8.28478 71.7758C8.19575 72.0454 8.10646 72.3159 8.01795 72.5839C8.29902 72.6672 8.11279 72.9845 8.39568 73.0675C8.58041 72.7679 8.18456 72.4153 8.58123 72.2325C8.92527 72.217 8.66244 72.5064 8.93163 72.5285C9.27449 72.0991 10.595 72.6175 10.2763 71.7165C10.5415 72.3493 11.0289 71.5056 11.2454 72.0365C11.6147 71.3801 10.9693 71.232 10.7299 70.8808C10.8131 70.7783 10.7729 70.433 10.9446 70.5036C11.0259 70.5304 11.1064 70.557 11.1861 70.5833C11.0313 70.976 11.2664 71.1723 11.4588 71.3902C11.4442 71.0958 11.7395 71.4143 11.7261 71.1213C11.8163 70.8954 11.5042 70.8721 11.7256 70.582C11.8327 70.6174 11.9406 70.653 12.0484 70.6886C11.9456 70.4908 12.0177 69.855 12.2879 69.6929C12.5769 69.7259 12.4976 69.9476 12.6109 70.0691C12.4893 70.1356 12.3324 70.1383 12.3168 70.4192C12.6375 70.2538 12.9647 70.1001 13.3368 70.0392C13.4285 69.8138 13.1161 69.7912 13.3373 69.502C13.4436 69.5371 13.5523 69.5729 13.6601 69.6085C13.311 70.0307 13.9713 69.9445 14.01 70.1713C13.8355 70.3139 13.6207 70.3791 13.2834 70.201C13.2477 70.3088 13.2121 70.4167 13.1768 70.5238C13.8409 70.6832 14.1363 70.109 14.7376 70.1437C14.791 69.982 14.8442 69.8209 14.8981 69.6576C14.512 70.058 14.4816 69.5383 13.9829 69.7151C14.0183 69.608 14.0544 69.4986 14.09 69.3908C14.7599 69.651 15.0689 69.1956 15.5951 69.1718C15.7385 69.3699 15.9633 69.5265 16.3514 69.6009C16.4429 69.4734 16.4106 69.0934 16.5913 69.1419C17.0174 69.2193 16.7115 69.6652 17.2121 69.7057C17.2397 69.4071 17.3842 69.3343 17.6418 69.4887C17.8117 69.134 17.8216 68.8599 17.7465 68.6279C18.1065 68.8083 18.2039 68.4634 18.6089 68.7332C18.7088 68.4568 18.3441 68.417 18.4456 68.141C18.5951 68.1713 18.8223 68.3573 18.8223 68.0869C18.5361 67.8433 18.2806 68.3336 18.1486 67.9537C18.4589 67.8091 18.529 67.1926 18.9266 67.2251C18.4126 66.9886 18.385 66.5106 18.2245 66.0961C18.3193 65.9272 18.4625 65.8557 18.6539 65.8799C18.4293 66.442 18.6096 66.8014 19.1957 66.9559C18.9271 67.4046 19.5198 67.4209 19.2527 67.8701C19.6757 68.2612 20.4247 68.4235 20.8122 68.0271C20.6484 67.7962 20.2701 67.6713 20.3266 67.3293C20.4345 67.365 20.5423 67.4006 20.6494 67.4359C20.7221 67.2788 20.3975 66.9887 20.7286 66.923C20.7961 67.0467 20.7997 67.2038 21.0793 67.2182C21.3239 66.8265 20.8818 66.7794 20.9699 66.4652C21.2926 66.5275 21.3598 66.7179 21.3474 66.9496C21.6436 66.8428 21.8217 66.9016 21.9938 67.163C22.1055 66.9347 22.4074 67.0941 22.5862 66.9989C22.5774 66.8417 22.4125 66.4197 22.7181 66.3265C22.9072 66.3889 23.0948 66.4509 23.2839 66.5133C23.3677 66.2307 23.684 66.4174 23.7677 66.1348C23.3299 66.0171 22.9235 65.8855 23.093 65.4639C23.312 65.407 23.4457 65.1833 23.711 65.2198C24.0056 65.207 23.6863 65.502 23.9809 65.4892C24.0339 65.2814 24.227 65.3529 24.3295 65.2446C24.3423 65.4421 24.5653 65.5305 24.8419 65.5932C25.0662 65.3682 25.2886 65.1435 25.5136 64.9187C25.575 65.0898 25.7695 65.1939 25.5943 65.4828C25.4888 65.448 25.3794 65.4118 25.2716 65.3762C25.2359 65.4841 25.2003 65.5919 25.1647 65.6998C25.4315 65.6059 25.8134 65.738 26.0805 65.6433C26.1043 65.1589 26.4397 65.2878 26.5088 64.8894C26.6167 64.925 26.7238 64.9603 26.8324 64.9962C26.9034 64.7813 26.9751 64.564 27.0456 64.3506C27.1957 64.4262 27.2411 64.2939 27.3413 64.2688C27.408 64.3923 27.4121 64.5479 27.6919 64.564C27.7857 64.0359 28.0723 63.8922 28.5522 64.1295C28.6232 63.9146 28.6944 63.6989 28.7656 63.4832C29.2368 63.3501 29.7589 63.3179 30.0545 62.8348C29.7301 62.6384 29.5762 62.7766 29.3547 62.7832C29.694 62.3882 29.0564 62.4845 29.1919 62.192C29.556 62.1866 29.3902 62.4499 29.6238 62.5115C29.7358 62.3352 29.7155 61.8925 29.9183 61.8927C29.9269 62.2709 30.1427 62.5415 30.6464 62.6723C30.8484 62.4911 31.0056 62.2249 31.2636 62.1575C31.4171 62.3278 31.3243 62.6222 31.7226 62.6679C31.9494 62.3146 32.1976 62.0039 32.3112 61.4286C32.4629 61.5047 32.5073 61.3729 32.6059 61.3474C32.7323 61.3952 32.6024 61.5733 32.7958 61.5886C32.9098 61.4113 32.8885 60.9692 33.09 60.9681C33.4348 60.9528 33.1712 61.2419 33.442 61.2646C33.7238 60.8887 34.1051 60.7104 34.4875 60.5341C34.6133 60.5835 34.4827 60.7613 34.6774 60.7754C34.874 60.634 35.0311 60.4076 35.1058 60.0214C35.6367 59.915 36.1297 59.7346 36.6661 59.6404C36.6 59.4677 36.5667 58.9306 36.8516 58.8054C37.1949 58.7896 36.9331 59.0785 37.2023 59.1006C37.3657 58.8 37.9204 59.2779 38.0086 58.8294C37.8871 58.5752 38.0146 58.1969 38.1673 57.8053C37.8455 57.7432 37.7773 57.5534 37.7894 57.3225C37.9496 57.3754 38.1121 57.4291 38.2739 57.4825C38.1802 57.215 38.3116 56.8354 38.2164 56.5673C38.4931 56.6691 38.5337 56.3046 38.8091 56.405C38.8232 56.6983 38.5269 56.3803 38.5408 56.6744C38.8698 56.6149 38.7979 56.5912 39.0253 56.8344C39.0794 56.7179 39.0947 56.5271 39.2116 56.5379C39.3152 56.6207 39.6618 56.5817 39.5909 56.7542C39.129 57.2188 38.5228 57.3983 38.3296 58.398C38.7064 58.2546 38.8187 57.5835 39.4049 57.8559C39.5113 57.3996 39.9133 57.5263 40.0757 57.1812C40.2649 57.2437 40.4525 57.3056 40.64 57.3675C40.6431 56.9672 40.961 57.1987 40.9902 56.8556C40.9125 56.6028 40.7944 56.3723 40.9066 56.0219C40.6495 55.7507 40.445 56.2439 40.3945 55.9429C40.6405 55.8959 40.7589 55.5952 41.094 55.7249C41.1524 55.9444 41.3745 56.0776 41.3383 56.3447C41.6913 56.3547 41.8198 55.9759 42.0384 56.3956C42.0784 56.3005 42.1253 56.2111 42.2528 56.287C42.2067 55.7491 42.0448 55.2683 42.0598 54.7003C42.2678 54.5324 42.5748 54.5635 42.8393 54.5105C42.7859 54.6722 42.733 54.8325 42.6793 54.995C42.5715 54.9594 42.4636 54.9238 42.3565 54.8884C42.2697 55.2013 42.7105 55.2498 42.4662 55.6406C42.5733 55.676 42.6819 55.7118 42.789 55.7472C42.8243 55.6401 42.8599 55.5322 42.8955 55.4244C42.7796 55.3714 42.5882 55.355 42.5996 55.2365C42.9086 55.1539 43.1911 54.9334 43.0011 54.5639C43.2306 54.7064 43.1917 54.3174 43.4589 54.5347C43.5156 54.641 43.5685 54.7486 43.6219 54.8573C43.5726 54.9831 43.3944 54.8532 43.3786 55.0456C43.9202 55.4056 43.9794 54.8089 44.4556 55.0441C44.4917 54.9347 44.5271 54.8276 44.5627 54.7198C44.3415 54.7256 44.1855 54.8648 43.8622 54.6679C43.8108 54.4481 43.8462 54.1833 43.7252 53.996C43.9854 54.0637 43.949 53.5464 44.1551 53.5104C44.0817 53.8849 44.48 54.0199 44.2933 54.4514C44.6876 54.7905 44.5913 54.1528 44.8845 54.2886C44.9736 54.0632 44.6638 54.0407 44.8827 53.7506C44.5926 53.5318 44.5693 53.8413 44.345 53.7516C44.5312 53.5236 44.1033 53.6042 44.289 53.3752C44.9073 53.6972 45.2016 53.3991 45.5004 53.7752C45.6309 53.8104 45.6342 53.5905 45.7966 53.6944C45.5486 53.1592 46.1264 52.7796 46.4933 52.6685C46.3171 52.5566 45.8744 52.5768 45.8741 52.3756C46.2077 51.9952 46.4664 51.9991 46.3835 51.3789C46.9111 51.469 46.9051 51.9333 47.3526 51.6989C47.2913 52.021 47.1007 52.089 46.8698 52.0769C46.9293 52.4059 46.9533 52.3333 46.7101 52.5606C46.9999 52.7803 47.0232 52.4707 47.2478 52.5596C47.3375 52.3353 47.0256 52.3112 47.246 52.0217C47.3539 52.0573 47.4618 52.0929 47.5688 52.1282C47.7121 51.899 47.3239 51.9381 47.5412 51.671C47.6475 51.6142 47.7544 51.5611 47.863 51.5077C47.9796 51.5852 47.849 51.7865 48.1321 51.7768C48.4461 51.6421 48.6097 51.2073 49.1815 51.5859C49.253 51.3694 49.324 51.1545 49.3952 50.9388C49.0724 50.7429 48.9166 50.8813 48.6957 50.8864C49.1617 50.6511 48.5963 50.2555 48.6926 49.8114C48.9214 49.9979 48.8416 49.5702 49.0688 49.7562C48.9927 49.9079 49.1261 49.9528 49.1511 50.053C49.1023 50.1773 48.9226 50.0468 48.9088 50.2408C49.3107 50.2417 49.0784 50.5594 49.4213 50.5894C49.6707 50.1465 50.4622 50.784 50.6859 50.2901C50.7101 50.0988 50.6378 49.9553 50.4694 49.859C50.142 49.971 49.8965 49.6464 49.635 49.6744C49.8287 49.7046 49.8489 49.3862 50.0101 49.3493C50.3811 49.3652 50.3208 49.5975 50.5223 49.6987C50.5764 49.5822 50.5922 49.3898 50.7091 49.4007C50.8503 49.5323 50.7706 49.7738 51.0069 49.8587C51.1018 49.5555 51.4645 49.7853 51.5165 49.3995C51.6138 49.1941 51.0382 49.3256 51.274 49.0498C51.7245 49.3208 51.9196 49.087 52.2963 49.2088C52.3361 48.7522 52.7296 48.9991 52.9416 48.8845C53.03 48.6588 52.7218 48.6368 52.9391 48.3462C52.5474 48.1016 52.5013 48.5432 52.1861 48.4556C52.1015 48.2734 51.7617 48.221 51.8089 47.9731C52.2212 47.9896 51.9911 48.3297 52.4031 48.347C52.4761 47.9082 53.1381 47.943 53.3429 48.21C53.3137 48.5531 52.9949 48.3213 52.995 48.7227C53.3359 48.9531 53.3553 48.5426 53.6951 48.7735C53.8481 48.3863 54.1572 48.3662 53.9614 47.967C54.1857 48.0566 54.2098 47.7448 54.4996 47.9644C54.712 47.4026 55.2877 47.5676 55.411 46.8317C55.3305 46.8051 55.2508 46.7788 55.1695 46.7519C54.9695 46.6226 55.1014 47.1524 54.9009 47.0221C54.5566 46.8416 54.7069 46.7171 54.3351 46.8353C54.5215 46.6065 54.0947 46.6865 54.2801 46.4583C54.4419 46.5117 54.6037 46.5651 54.7655 46.6185C54.9502 46.3189 54.5554 45.9658 54.9518 45.7838C55.1143 45.9926 55.1005 46.2914 55.3579 46.4544C55.4108 46.2942 55.4637 46.134 55.5176 45.9706C55.0778 45.8982 55.248 45.5219 55.2189 45.2453C55.3669 45.2248 55.4233 45.0277 55.6216 45.1096C55.9168 45.0952 55.598 45.3913 55.8913 45.3772C55.9748 45.0953 56.2923 45.2808 56.3746 45.0002C56.5611 44.7714 56.1339 44.8523 56.3204 44.6235C56.5967 44.8577 56.4634 44.2824 56.669 44.3789C56.7604 44.559 56.8494 44.7383 56.9404 44.9166C56.5626 45.4073 56.841 45.559 56.4308 45.9142C57.3062 46.2136 57.0434 44.9619 57.0739 44.5126C57.2817 44.5656 57.2091 44.7592 57.3164 44.8622C57.2542 45.0506 57.192 45.2389 57.1296 45.4281C57.4212 45.6474 57.4432 45.3366 57.6673 45.427C57.662 45.2043 57.5241 45.0495 57.7202 44.726C57.8812 44.7791 58.043 44.8325 58.2048 44.886C58.4314 44.4806 58.0643 44.3715 57.9073 44.1593C58.1647 44.2278 58.1299 43.711 58.3367 43.6753C58.4164 43.7016 58.4977 43.7285 58.5782 43.755C58.4354 44.0511 58.5483 44.2184 58.7425 44.3467C58.8038 44.0246 58.9931 43.9553 59.2253 43.9687C59.4118 43.7399 58.9821 43.8208 59.1693 43.5922C59.3906 43.5864 59.5474 43.4475 59.8696 43.6449C59.8165 43.8059 59.7631 43.9677 59.7099 44.1287C60.5065 44.1074 60.6815 42.8503 61.5371 42.9395C61.5703 42.5631 61.7748 42.5214 61.9104 42.3468C61.475 42.2507 61.242 42.0559 61.4241 41.6489C62.0036 41.9962 62.0241 41.2333 62.6626 41.699C62.959 41.2343 62.5823 41.1099 62.6069 40.7835C62.7736 40.4467 63.2075 40.6394 63.3315 40.2166C63.3096 40.0256 63.0683 39.9451 63.1403 39.7062C63.2481 39.7418 63.356 39.7774 63.4646 39.8133C63.4362 39.9625 63.2499 40.1905 63.5198 40.1895C63.5758 39.5579 64.4615 40.1702 64.5421 40.3485C64.6016 39.7536 64.9453 39.7206 65.1852 39.4851C65.1257 39.1561 65.1017 39.2287 65.3454 38.9998C64.94 38.7732 64.832 39.1397 64.6193 39.2983C64.3664 39.1559 63.8352 39.153 63.7583 38.9239C63.802 38.8334 63.8204 38.6887 63.918 38.7079C63.9936 39.1169 64.1387 38.6828 64.4846 38.895C64.418 38.7213 64.3866 38.1866 64.6699 38.0608C64.5986 38.6839 65.0389 38.2797 65.5054 38.5152C65.5762 37.9622 65.9217 38.3545 66.0439 38.5145C66.133 38.2448 66.2222 37.9744 66.311 37.7056C66.4712 37.7585 66.6346 37.8124 66.7948 37.8653C66.8579 37.5429 67.0482 37.4757 67.2794 37.487C67.4638 37.2593 67.0377 37.3396 67.2242 37.1108C67.63 37.2942 67.8269 37.0602 67.9219 36.6252C67.8046 36.5709 67.6146 36.5558 67.626 36.4374C67.9115 36.4259 68.0156 36.0503 68.2971 36.0323C68.2924 36.2145 67.9816 36.5496 68.2997 36.5706C68.3932 36.0432 68.7346 36.0095 68.9427 35.7072C68.8357 35.6719 68.7262 35.6357 68.6199 35.6006C68.5654 35.7161 68.549 35.9074 68.4323 35.8958C68.1105 35.676 68.5762 35.0583 68.1331 34.9016C68.0787 35.0189 68.0634 35.2097 67.9449 35.1983C67.6643 34.8275 67.2967 35.0484 66.7859 34.6371C66.5676 34.9282 66.8768 34.9497 66.7887 35.1746C66.356 35.0334 65.8152 34.9467 65.9254 34.5315C66.3746 34.7986 66.3906 34.2067 66.8396 34.4745C66.9342 34.348 66.8985 33.9679 67.0808 34.0168C67.1919 34.1635 66.9427 34.4904 67.3781 34.4738C67.4364 34.0978 67.615 33.9635 67.8327 33.9079C68.1182 34.1461 68.1252 34.5237 68.5624 34.6854C68.4205 35.026 68.5304 35.2417 68.8867 35.3307C68.9966 34.4335 69.8708 35.0515 70.0962 34.3848C70.0745 34.1931 69.833 34.1133 69.9071 33.8734C70.2466 34.1051 70.2657 33.6954 70.6058 33.9256C70.427 33.5666 70.7878 32.936 70.9232 32.4182C71.2138 32.6381 71.2387 32.3264 71.4625 32.4177C71.0353 31.8294 71.6866 31.1456 72.1574 30.8538C72.2579 30.5784 71.8931 30.5386 71.9946 30.2626C72.3709 30.4094 72.5304 30.6666 72.6683 30.9341C72.1914 31.0999 71.8771 31.5899 71.5693 32.0941C71.6843 32.1477 71.8767 32.1635 71.8655 32.2812C71.6832 32.5868 71.4335 32.76 71.0321 32.6344C70.9967 32.7415 70.9614 32.8486 70.9258 32.9564C71.0336 32.992 71.1415 33.0277 71.2493 33.0633C71.3389 32.7054 71.5523 32.5973 71.8931 32.7384C72.0387 32.2266 72.4989 32.3317 72.5901 31.7143C72.4746 31.6597 72.282 31.6447 72.2934 31.5262C72.338 31.391 72.3821 31.2574 72.4265 31.1229C72.5883 31.1763 72.7501 31.2298 72.9111 31.2829C72.9467 31.1751 72.9826 31.0664 73.0179 30.9594C72.5342 30.8074 72.3586 30.2155 72.8007 29.9897C72.5059 30.0033 72.8259 29.7085 72.5311 29.7221C72.3755 29.6525 72.0852 29.9753 72.0194 29.6442C72.3551 29.6198 72.3409 29.1193 72.2599 28.9157C72.4098 28.9921 72.456 28.86 72.5561 28.835C72.4894 29.0712 72.9856 29.0227 72.8526 29.2917C73.2336 29.0907 73.2281 29.5535 73.8217 29.6117C74.1812 29.0716 73.5861 29.013 73.8182 28.5357C73.4665 28.7108 72.748 28.393 72.9564 27.8932C72.7946 27.8398 72.6328 27.7864 72.4702 27.7327C72.3123 28.2188 71.766 27.9388 71.6675 28.5416C71.9573 28.7612 71.9801 28.4506 72.2039 28.5393C72.0277 28.9916 71.974 29.6846 71.5072 29.5626C71.5604 29.4016 71.6135 29.2406 71.667 29.0788C71.3787 28.8597 71.3541 29.1705 71.1305 29.0811C70.9875 29.3095 71.3762 29.2714 71.1573 29.5381C70.8796 29.7099 70.4847 29.9608 70.2702 29.513C70.2291 29.6086 70.1825 29.6973 70.0556 29.6224C69.9659 29.8468 70.2752 29.8709 70.0566 30.1601C70.2723 30.2314 70.4872 30.3023 70.7037 30.3738C70.517 30.6034 70.9436 30.5215 70.7571 30.7503C70.4343 30.6437 70.1115 30.5371 69.7887 30.4305C69.7178 30.6455 69.6468 30.8604 69.5753 31.0769C69.4675 31.0413 69.3596 31.0057 69.2517 30.9701C69.0655 31.1981 69.4914 31.1185 69.3067 31.3471C68.9926 31.2589 68.9462 31.7013 68.5519 31.4567C68.5168 31.9175 68.1323 31.6934 68.016 31.9957C68.5048 32.177 68.9313 31.6755 69.2019 32.2078C69.2729 31.9929 69.3441 31.7772 69.4153 31.5615C69.8078 31.633 70.186 31.4718 70.3837 31.8812C70.5179 31.7452 70.6497 31.6059 70.7867 31.4769C70.8778 31.6552 70.9684 31.835 71.0566 32.0141C70.7309 32.5124 70.2587 32.7977 69.7402 32.2079C69.5084 32.5474 69.9192 32.566 69.6875 32.9056C69.8455 32.897 70.2661 32.7334 70.3591 33.0398C70.0256 33.0761 70.1339 33.3858 70.1731 33.6033C70.066 33.5679 69.9581 33.5323 69.8503 33.4967C70.1812 32.9723 69.1881 33.1134 69.4179 32.638C69.0979 32.8062 68.5435 32.5088 68.072 32.3721C68.0473 32.5651 68.1198 32.7078 68.2887 32.8026C68.516 32.9885 68.4359 32.5616 68.6649 32.7473C68.6471 33.1584 68.3076 32.9293 68.2892 33.3392C68.6474 33.4306 68.756 33.645 68.6148 33.9859C68.8893 34.2204 68.7575 33.6456 68.9642 33.7415C69.0549 33.7871 69.1984 33.8041 69.1802 33.9039C69.083 34.1587 68.8822 34.2051 68.75 34.3902C68.451 33.9335 67.4556 33.8268 67.8586 33.0185C67.6843 32.8821 67.6421 32.6792 67.2664 32.6436C67.2053 32.9207 67.6569 32.9415 67.6158 33.2079C67.5746 33.5688 67.3733 33.6141 67.1872 33.6948C67.0465 33.5617 67.126 33.3209 66.8899 33.2378C66.8276 33.4712 66.565 33.3056 66.5679 33.6697C66.6849 33.7222 66.877 33.7389 66.8662 33.8558C66.7583 33.912 66.6518 33.967 66.5429 34.0186C66.418 33.9687 66.5469 33.7911 66.3532 33.7765C66.3103 33.8725 66.2665 33.9603 66.1388 33.8852C65.9523 34.114 66.3794 34.0331 66.1932 34.2611C65.8323 34.1255 65.7903 34.623 65.5773 34.7746C65.4514 34.7252 65.5803 34.5476 65.3874 34.5333C65.3164 34.7482 65.2452 34.964 65.1737 35.1805C65.2997 35.2741 65.6801 35.2376 65.632 35.4202C65.5869 35.5119 65.5696 35.6536 65.4704 35.6364C65.4021 35.5124 65.4014 35.3571 65.1211 35.3399C65.076 35.7861 64.8598 35.895 64.4747 35.6647C64.4032 35.8812 64.3322 36.0962 64.261 36.3119C64.5367 36.4142 64.5786 36.0483 64.854 36.1488C64.5809 36.4877 64.9921 36.4839 65.0431 36.6602C65.0168 36.74 64.9899 36.8212 64.9634 36.9017C64.5761 36.8276 64.3513 36.6711 64.2079 36.4729C64.0272 36.6499 63.7636 36.6608 63.4557 36.5825C63.6067 36.8707 63.4142 37.6323 62.9732 37.5006C62.8381 37.9726 63.4612 38.0622 63.138 38.6289C63.4776 38.7055 63.4947 38.9452 63.7049 39.0857C63.6227 39.1877 63.6611 39.5332 63.4899 39.4637C63.4323 39.2444 63.2094 39.1084 63.2469 38.8452C63.0257 38.851 62.8694 38.9884 62.5463 38.7933C62.5123 39.1695 62.3078 39.2112 62.1711 39.3862C62.279 39.4218 62.3868 39.4574 62.4947 39.4931C62.5888 39.3655 62.5529 38.9861 62.7349 39.0332C62.9072 39.2964 62.5424 39.6241 62.3608 39.6283C62.0209 39.445 61.8042 39.5052 61.58 39.549C61.5076 39.7054 61.8324 39.9947 61.5023 40.0599C61.4885 39.8629 61.2649 39.7761 60.9888 39.7118C60.8532 40.0727 61.3499 40.1145 61.5015 40.3301C61.2431 40.2621 61.2782 40.7781 61.0724 40.8133C60.9927 40.787 60.9122 40.7604 60.8309 40.7336C60.8835 40.5741 60.9372 40.4116 60.9906 40.2498C60.7145 40.1491 60.6733 40.5151 60.399 40.4142C60.4498 39.8927 60.8294 40.0189 60.8797 39.4963C60.4844 39.6042 60.1584 39.8485 59.9128 40.2536C59.2784 40.0225 59.3457 40.5249 59.3232 40.9552C58.874 40.6855 58.7512 41.0654 58.3007 40.797C58.2263 41.1824 58.0707 41.4093 57.8715 41.5507C57.9595 41.754 58.302 41.8272 58.4389 42.0059C58.3123 42.6046 57.8156 42.4631 57.7148 43.112C57.871 43.1826 58.1605 42.8596 58.227 43.191C58.0952 43.3329 57.8527 43.2537 57.7701 43.4882C57.939 43.583 58.0112 43.7265 57.987 43.9178C57.6644 43.8555 57.5951 43.6662 57.6083 43.4348C57.286 43.24 57.1292 43.3763 56.9088 43.3824C57.2951 42.95 57.1254 42.8498 57.2819 42.2522C57.1209 42.1991 56.9583 42.1454 56.7981 42.0925C56.769 42.3906 56.6253 42.4636 56.3672 42.3082C56.7601 42.7456 56.3153 42.8172 56.3979 43.3047C56.0004 43.3824 56.0406 43.6045 55.9682 43.7895C55.9007 43.6658 55.8982 43.5107 55.6178 43.4935C55.3727 43.8867 55.8153 43.9349 55.7269 44.2473C55.4573 44.1582 55.1884 44.0695 54.9188 43.9804C54.9544 43.8726 54.9898 43.7655 55.0254 43.6576C54.6212 43.3881 54.5254 43.7335 54.1641 43.5518C54.3174 43.8356 54.0159 44.3471 54.1664 44.6291C53.8714 44.6167 53.7846 45.0292 53.5499 45.1415C53.4595 45.0978 53.3158 45.0789 53.3337 44.98C53.3642 44.6381 53.6819 44.8705 53.6834 44.4696C53.2878 44.5756 52.961 44.8197 52.7157 45.2267C53.2713 45.1925 52.7137 45.7209 53.1758 45.7339C53.3753 45.8648 53.2426 45.3347 53.4426 45.4666C53.5231 45.4932 53.6044 45.5201 53.6856 45.5469C53.5694 45.941 53.6634 46.2286 53.93 46.4319C53.8263 46.5832 53.8548 46.9956 53.6624 46.972C53.6301 46.7862 53.6074 46.595 53.5798 46.4056C53.3052 46.3054 53.2651 46.6709 52.99 46.5697C53.1318 46.2741 53.0183 46.1058 52.8272 45.9785C52.7718 46.0937 52.756 46.2861 52.6375 46.2748C52.4538 46.0147 52.4679 45.9587 52.717 45.7636C52.6091 45.728 52.5021 45.6926 52.3942 45.657C52.3014 45.7833 52.3353 46.1637 52.1537 46.115C52.0379 46.0378 52.168 45.838 51.883 45.8454C51.78 45.9526 51.5867 45.8819 51.5347 46.0892C51.3482 46.318 51.7751 46.2379 51.5896 46.4662C51.8828 46.2058 53.1693 46.2917 52.83 47.0543C52.2332 46.9951 52.279 46.6123 51.7506 46.5193C51.6811 46.6749 52.0039 46.9653 51.6711 47.0305C51.3667 46.4116 50.8334 47.3311 50.1921 46.9001C50.1387 47.0619 50.085 47.2245 50.0316 47.3863C49.8691 47.3326 49.7081 47.2794 49.5463 47.226C49.5109 47.6009 49.3085 47.6442 49.1721 47.8184C49.4662 47.8046 49.1466 48.1004 49.4415 48.0868C49.8201 47.5912 50.3065 47.3045 50.8385 47.1135C50.8008 47.5743 50.4173 47.3498 50.3023 47.6533C50.2 47.929 50.5663 47.9693 50.4648 48.2452C50.2296 48.1832 50.397 47.9203 50.0319 47.9237C49.8196 48.2567 49.6365 48.6539 49.3091 48.7608C49.2324 48.4338 49.1599 48.6482 48.905 48.6273C48.9587 48.4648 49.0121 48.303 49.0653 48.142C48.8496 48.0708 48.6323 47.999 48.4174 47.9281C48.1058 48.4675 47.3299 48.0847 47.0751 48.7382C47.3397 48.7268 47.5657 48.641 47.8272 48.6286C47.7557 48.8451 47.685 49.0592 47.6136 49.2757C47.7411 49.3698 48.1223 49.3362 48.0731 49.5167C47.9533 49.68 47.609 49.3999 47.4007 49.3849C47.4111 49.6475 47.4976 49.8736 47.5103 50.137C47.8331 50.3329 47.9886 50.1953 48.2091 50.1892C47.8618 50.611 48.5198 50.5266 48.561 50.7535C47.9245 51.1795 47.2137 50.274 46.648 50.0317C46.6151 50.3676 46.3974 50.3364 46.2449 50.436C46.131 50.3611 46.2616 50.1598 45.9756 50.1677C45.5147 50.3978 45.0612 50.7239 44.6034 50.252C44.5431 50.8466 44.2017 50.8804 43.9601 51.1161C44.1163 51.5092 43.88 51.3324 43.7469 51.7617C43.8742 51.8566 44.2549 51.8219 44.2054 52.0032C44.0945 52.3653 43.8017 52.3623 43.4259 52.1931C43.3242 52.4698 43.6905 52.5101 43.5882 52.7858C43.2484 52.7334 43.0486 52.9604 42.7818 53.057C42.8738 52.5291 43.3366 52.5346 43.1023 52.0863C43.2102 52.1219 43.3173 52.1572 43.4259 52.1931C43.422 51.8295 43.6856 51.9972 43.7469 51.7617C43.3828 51.7672 43.5491 51.5022 43.3158 51.4399C43.0524 51.9883 42.3733 51.7112 41.918 51.8746C41.731 52.105 42.1584 52.0234 41.9711 52.2519C42.2021 52.3949 42.1641 52.0062 42.4299 52.2248C42.4493 52.3708 42.6468 52.429 42.5656 52.6276C42.3444 52.6334 42.1889 52.7711 41.8646 52.5747C41.8401 52.7668 41.9139 52.9108 42.0808 53.004C42.3114 53.1903 42.2303 52.7639 42.4591 52.9504C42.216 53.235 42.7068 53.4916 42.3264 53.6225C42.1053 53.195 41.8512 53.5679 41.4909 53.1681C41.4774 53.5346 41.7329 53.7663 41.4932 54.2454C41.726 54.383 41.9621 53.8516 42.0588 54.1626C41.8888 54.3153 41.5946 54.2217 41.5468 54.6211C41.9087 54.6461 42.0862 55.1086 41.7925 55.2396C41.4504 55.2099 41.6809 54.8899 41.2801 54.891C41.1978 55.6205 40.6643 55.4539 40.0983 55.2176C40.1339 55.1098 40.1695 55.0019 40.2051 54.894C40.0957 54.8579 39.9886 54.8226 39.8808 54.787C39.6831 55.11 39.8225 55.2652 39.8291 55.4867C39.2597 55.03 38.9251 55.7412 38.6164 55.3559C38.6464 55.013 38.9659 55.245 38.9658 54.8437C38.539 55.0521 38.5157 54.7445 38.3736 54.4688C38.1338 54.7909 38.5271 54.7942 38.347 55.0875C38.1517 55.0568 38.1326 55.3747 37.9718 55.4126C37.6281 55.4274 37.8901 55.1377 37.6204 55.1172C37.5848 55.225 37.5492 55.3329 37.5141 55.4392C37.6906 55.5529 38.1333 55.5327 38.1336 55.7339C37.7525 55.699 37.3429 55.9209 37.5708 56.3541C37.4446 56.2613 37.0634 56.2949 37.1128 56.1136C37.3096 56.1032 37.3985 55.8786 37.4604 55.6017C37.3244 55.536 37.0295 55.5496 37.1913 55.3326C36.9669 55.2429 36.9431 55.554 36.6531 55.3352C36.5946 56.0032 35.8111 55.7982 36.1179 56.4127C35.7634 56.2419 35.489 56.2328 35.2566 56.3068C35.1912 56.8461 34.8403 56.8195 34.5862 56.9826C34.4614 56.9327 34.5905 56.7543 34.3968 56.7398C34.3554 56.8362 34.3101 56.9235 34.1813 56.8489C34.0383 57.0773 34.4281 57.0388 34.21 57.3056C33.9905 57.364 33.8581 57.5864 33.592 57.5497C33.3236 57.5278 33.5848 57.2379 33.2403 57.255C33.0647 57.3956 32.806 57.3708 32.6778 57.6067C32.8153 57.8281 32.5716 58.2434 32.7603 58.4409C32.3111 58.4391 32.8794 58.8547 32.4932 58.9794C32.3977 58.6913 32.1446 58.4812 32.1408 58.1462C31.963 58.241 31.6583 58.0823 31.5486 58.3095C31.7254 58.4225 32.1683 58.4015 32.1676 58.6032C32.1002 58.8678 31.9171 58.9079 31.7114 58.9007C31.4181 58.9148 31.7369 58.6187 31.442 58.6323C31.2382 58.7193 31.1645 59.0634 30.9856 59.1984C30.6472 59.0156 30.4311 59.0769 30.2061 59.1205C30.0926 59.2962 30.1123 59.7405 29.9114 59.74C29.8312 59.2923 29.5135 59.6693 29.1837 59.4997C29.1125 59.7155 29.0413 59.9312 28.9701 60.1469C28.6808 59.9257 28.6575 60.2378 28.4331 60.1482C28.2474 60.3772 28.6738 60.2961 28.4873 60.5249C28.752 60.5135 28.9774 60.4267 29.2397 60.4145C29.1649 60.5649 29.297 60.6111 29.3228 60.7115C29.1747 60.7293 29.1165 60.9268 28.9195 60.8461C29.0374 61.2188 28.9123 61.0674 28.7326 61.412C28.8095 61.7095 28.903 61.9987 28.9759 62.2975C28.8165 62.2449 28.6531 62.191 28.4929 62.1381C28.8402 61.7162 28.1794 61.8014 28.1405 61.5753C28.3529 61.0422 28.0026 60.7904 27.7878 60.4725C27.4238 60.9079 26.996 61.2191 26.3361 61.0679C26.0175 61.6337 26.2744 61.9083 26.0716 62.4151C26.245 62.6223 26.8389 62.9684 26.4232 63.248C25.9868 62.9081 25.8594 62.4092 25.6928 61.9321C25.432 61.9474 25.2163 62.0547 25.0485 62.2559C25.2728 62.3456 25.2964 62.0352 25.5862 62.2549C25.4154 62.6093 25.4053 62.8842 25.4822 63.1159C25.7922 63.1351 26.6739 63.4261 26.9359 63.5959C26.9897 63.1179 27.6491 63.1475 27.7694 63.2453C27.5109 63.4321 27.1972 63.5868 27.3666 63.9192C26.9118 63.9182 26.4532 63.8924 26.1543 63.519C25.8703 63.4867 25.8176 63.9166 25.6187 64.0572C25.4433 63.9898 25.6965 63.7033 25.6982 63.546C25.245 63.3618 24.8267 63.2427 24.7292 63.7635C24.8658 63.8303 25.1614 63.817 24.9991 64.0329C24.5935 63.8045 24.4865 64.1731 24.2725 64.3304C24.1312 64.1546 24.0658 63.9406 24.2447 63.6035C23.9883 63.3325 23.7833 63.8274 23.7333 63.5248C23.881 63.5051 23.938 63.309 24.1366 63.3901C24.2083 63.1729 24.2793 62.9579 24.3505 62.7422C23.9568 62.4987 23.9099 62.94 23.5973 62.8524C23.6706 63.0846 23.6623 63.3592 23.4907 63.7134C23.3305 63.6605 23.1679 63.6069 23.0077 63.5539C22.8571 63.9784 23.1539 63.9775 22.7943 64.2003C22.8891 64.2412 22.9759 64.288 22.9011 64.415C23.127 64.5052 23.1485 64.1933 23.4398 64.4135C23.3515 64.8177 23.1785 65.0553 22.8224 64.9264C22.7948 64.5584 22.2617 64.4457 22.3081 64.0398C22.8864 64.3833 22.7135 63.2375 23.1145 63.2304C22.5755 62.9649 22.5226 63.6607 21.9836 63.3952C21.9875 63.7588 21.7241 63.593 21.6618 63.8264C21.7986 63.9608 21.9371 64.0924 22.0661 64.2294C21.7908 64.4384 21.3692 64.3608 21.2884 64.9573C21.4813 65.0843 21.5935 65.2539 21.4517 65.5495C21.2899 65.4961 21.1281 65.4427 20.9671 65.3895C21.0025 65.2824 21.0381 65.1746 21.0737 65.0667C20.7842 64.8463 20.7603 65.1574 20.536 65.0677C20.3495 65.2965 20.7758 65.2154 20.5894 65.4442C20.2071 65.3734 20.0775 65.7502 20.2157 66.0376C20.0635 65.9605 20.0196 66.0934 19.9195 66.1184C19.7774 65.8426 19.7694 65.6095 19.4068 65.7706C19.6272 65.481 19.3161 65.4572 19.4058 65.2328C19.6215 65.3041 19.8372 65.3753 20.0529 65.4465C19.8954 65.0521 20.1325 65.2292 20.2663 64.8001C19.9417 64.6046 19.7865 64.7414 19.566 64.7475C19.3695 65.2035 19.1144 65.5457 18.8969 65.9602C19.051 65.5014 18.3851 65.4549 17.9523 65.2903C17.9648 65.5545 18.0518 65.7791 18.0619 66.0425C17.7211 65.812 17.7043 66.2226 17.3622 65.9908C17.2614 66.267 17.627 66.3071 17.5255 66.583C17.203 66.3864 17.0469 66.5256 16.8257 66.5314C16.7632 66.2481 16.7483 65.9416 16.3394 65.8334C16.2246 66.3173 16.1476 66.044 15.9631 65.8886C15.9625 66.2897 15.6445 66.0582 15.6137 66.4008C15.9456 66.7739 15.1665 66.9205 15.4829 67.3431C15.2076 67.1083 15.3407 67.6819 15.1333 67.5856C15.0426 67.5427 14.8999 67.5233 14.9168 67.4249C15.4024 67.3217 14.9253 66.9423 15.2104 66.5355C14.7909 66.3675 14.79 67.0372 14.5414 67.2099C14.3999 67.0791 14.4778 66.8379 14.2446 66.754C14.0695 67.0325 13.7653 67.0534 13.6532 67.4558C14.0412 67.6091 14.0619 67.9166 14.4606 67.7224C14.2425 68.0127 14.552 68.036 14.4631 68.2606C14.2345 68.1184 14.2725 68.5071 14.0059 68.2882C13.7939 68.0587 13.9065 67.6651 13.438 67.5642C13.3849 67.7252 13.3314 67.887 13.2783 68.048C13.4058 68.1421 13.7849 68.1069 13.7373 68.2905C13.5518 68.322 13.3606 68.3447 13.1714 68.3715C13.1005 68.5865 13.0287 68.8037 12.9583 69.0171C13.1868 69.2044 13.1067 68.7775 13.3348 68.9637C13.2037 69.1926 13.2093 69.6929 12.9874 69.7453C12.8547 69.4752 12.7451 69.1929 12.8502 68.8037C12.5599 68.5831 12.5371 68.8936 12.3127 68.804C12.3884 68.4224 12.5552 68.2166 12.8487 68.265C13.0063 67.8715 13.1296 67.4953 12.7924 67.351C12.5607 67.6906 12.9704 67.7097 12.7403 68.0498C12.2545 68.0246 12.3827 67.6916 11.9863 67.6214C11.9507 67.7293 11.9151 67.8371 11.8795 67.945C11.9955 67.998 12.1868 68.0144 12.1755 68.1328C12.0914 68.2351 12.1317 68.5804 11.9608 68.5101C11.4552 68.474 11.5113 68.1519 11.1258 68.0541C11.0897 68.1635 11.0548 68.269 11.0192 68.3769C11.247 68.5639 11.1669 68.137 11.3965 68.3237C11.3021 68.4495 11.3378 68.8296 11.1536 68.781C10.7996 68.7794 11.0775 68.4603 10.723 68.4602C10.4361 68.6914 10.079 68.7858 9.81085 69.0544C9.58677 68.8773 9.57131 69.1157 9.43334 69.1083C9.31808 69.0321 9.44844 68.8316 9.16372 68.8408C8.77939 69.0597 8.51808 69.5204 8.14265 69.757C8.02896 69.6813 8.15879 69.4823 7.87302 69.4894C7.78753 69.7195 7.41672 69.3855 7.36264 69.6806C7.69979 69.7122 7.66788 69.9296 7.76748 70.0821C7.66118 70.1389 7.55463 70.1938 7.44572 70.2454C7.32994 70.1682 7.45924 69.9682 7.17661 69.9763C6.86206 70.1125 6.69932 70.5476 6.12771 70.1682C5.9951 70.3966 6.00017 70.8984 5.77986 70.9487C5.63763 70.8177 5.71763 70.5754 5.48158 70.4923C5.26195 70.7821 5.57227 70.8056 5.48337 71.0303C5.26714 70.8687 5.28074 71.1636 5.21449 71.3012C4.75323 71.0076 4.80816 71.7417 4.40815 71.5724C4.44428 71.4629 4.47989 71.3551 4.51473 71.2496C4.28382 71.2349 4.09479 71.3033 4.0322 71.6268C4.35498 71.8226 4.50971 71.6848 4.73093 71.6789C4.57512 72.0799 4.28716 72.225 3.87221 72.1113C4.10289 71.7697 3.69316 71.7532 3.9228 71.4121C3.58196 71.1817 3.56464 71.5911 3.22328 71.3597C3.03705 71.5877 3.46472 71.5079 3.27901 71.7369C2.93045 71.5352 2.83133 71.8275 2.60658 71.8729C2.59535 71.6759 2.37074 71.587 2.09414 71.5243C2.01741 71.9063 1.85141 72.1124 1.55794 72.064C1.5678 72.3282 1.65564 72.5531 1.66732 72.817C1.82369 72.8894 2.11272 72.5653 2.18004 72.897Z" fill="white"/>
<path fill-rule="evenodd" clip-rule="evenodd" d="M36.2294 38.7068C36.3372 38.7424 36.4443 38.7777 36.5529 38.8136C36.5545 39.1764 36.2935 39.0114 36.2296 39.2443C35.9146 39.2243 36.2221 38.889 36.2294 38.7068ZM36.7101 37.789C37.0092 37.8175 37.0822 37.9613 36.9258 38.2199C36.8187 38.1846 36.7108 38.1489 36.603 38.1133C36.6389 38.0047 36.6745 37.8968 36.7101 37.789ZM36.6091 39.7276C36.5735 39.8354 36.5377 39.944 36.5023 40.0511C36.3336 39.9556 36.2622 39.8123 36.2863 39.621C36.3934 39.6563 36.5013 39.6919 36.6091 39.7276ZM38.1654 38.2695C38.334 38.365 38.4063 38.5085 38.381 38.7004C38.2331 38.6706 38.0043 38.4841 38.0048 38.7556C37.6158 38.5925 38.1168 38.3982 38.1654 38.2695ZM39.6145 37.1358C39.5988 37.2831 39.5016 37.2675 39.4008 37.2446C39.2146 37.4727 39.641 37.3915 39.4547 37.6195C39.2945 37.5666 39.1312 37.5127 38.971 37.4598C39.1388 37.2587 39.354 37.1503 39.6145 37.1358ZM42.2531 37.2901C42.1997 37.4519 42.1465 37.6129 42.0928 37.7755C41.9621 37.7384 41.7965 37.6335 41.7422 37.7481C41.7153 37.8294 41.6885 37.9107 41.6619 37.9912C41.3423 37.7331 41.8328 36.9512 42.2531 37.2901ZM44.5078 35.3441C44.2119 35.8098 44.5878 35.934 44.563 36.2612C44.3402 36.1721 44.3153 36.4811 44.0268 36.2627C44.178 35.8732 44.3055 35.4923 44.1842 35.2373C44.2921 35.2729 44.4 35.3085 44.5078 35.3441ZM45.1588 37.1739C45.1231 37.2817 45.0878 37.3888 45.0522 37.4967C44.7293 37.4351 44.6605 37.2443 44.6726 37.0134C44.8352 37.067 44.997 37.1205 45.1588 37.1739ZM45.375 37.6032C45.5442 37.6972 45.6161 37.8415 45.5917 38.0336C45.376 37.9624 45.1603 37.8912 44.9453 37.8202C45.0401 37.6513 45.1839 37.5783 45.375 37.6032ZM46.2304 35.5558C46.0372 35.4296 45.9248 35.2607 46.0671 34.9636C46.2598 35.0914 46.374 35.26 46.2304 35.5558ZM45.9117 37.0645C45.8031 37.0286 45.696 36.9933 45.5881 36.9577C45.6237 36.8498 45.6596 36.7412 45.6947 36.6349C45.9936 36.6642 46.0661 36.8069 45.9117 37.0645ZM46.8775 35.7695C46.7229 36.0279 46.7936 36.1708 47.094 36.1981C46.9992 36.3696 46.856 36.4411 46.6639 36.4166C46.8188 36.1575 46.7471 36.015 46.4484 35.9849C46.5411 35.817 46.6854 35.745 46.8775 35.7695ZM47.6864 36.5748C47.5097 36.3934 47.4988 36.1298 47.5765 35.8208C47.7535 36.0015 47.7634 36.2657 47.6864 36.5748ZM47.8963 34.8525C48.0662 34.9467 48.1385 35.0902 48.1135 35.2813C48.0057 35.2457 47.8986 35.2104 47.7899 35.1745C47.8256 35.0666 47.8609 34.9596 47.8963 34.8525ZM49.3449 33.1795C49.3093 33.2873 49.2737 33.3952 49.2383 33.5023C49.1305 33.4666 49.0234 33.4313 48.9155 33.3957C49.0101 33.2275 49.1535 33.1553 49.3449 33.1795ZM50.9586 32.6366C50.9448 32.3426 51.2393 32.6608 51.2257 32.366C51.7112 32.3919 51.5841 32.727 51.9815 32.794C51.9278 32.9566 51.8744 33.1184 51.8212 33.2794C51.5279 33.0309 51.4067 32.4136 50.9586 32.6366ZM51.6627 34.3027C51.7714 34.3386 51.8785 34.374 51.9863 34.4096C51.9989 34.705 51.7031 34.3854 51.7169 34.6795C51.4473 34.6797 51.6332 34.4525 51.6627 34.3027ZM52.4131 33.1169C52.2577 33.375 52.3292 33.5182 52.6301 33.5465C52.5351 33.7162 52.3916 33.7884 52.1992 33.7648C52.4438 33.3706 52.0009 33.3231 52.0896 33.01C52.1982 33.0459 52.3053 33.0813 52.4131 33.1169ZM52.3099 34.5164C52.1407 34.4224 52.0684 34.2789 52.0929 34.0868C52.3167 34.1754 52.3411 33.8654 52.6291 34.0853C52.5691 34.3194 52.3049 34.1533 52.3099 34.5164ZM56.497 31.0597C56.3149 31.4668 56.5479 31.6642 56.9831 31.7585C56.8252 32.0687 56.4475 31.9422 56.1765 32.0304C56.2843 31.7514 56.4429 31.4467 56.014 31.4385C56.1949 31.3526 56.2488 31.0133 56.497 31.0597ZM57.9454 29.3875C57.91 29.4946 57.8742 29.6032 57.8388 29.7103C57.731 29.6747 57.6231 29.6391 57.516 29.6037C57.61 29.4345 57.7535 29.3623 57.9454 29.3875ZM62.5162 28.0294C62.4808 28.1365 62.4452 28.2443 62.4093 28.353C62.3015 28.3173 62.1936 28.2817 62.0858 28.2461C62.1808 28.0764 62.324 28.005 62.5162 28.0294ZM63.057 29.1033C63.4654 29.213 63.4824 29.5186 63.5444 29.8034C63.2675 29.7388 63.0416 29.6513 63.0322 29.454C62.8284 29.4543 62.8494 29.8972 62.7367 30.0732C62.5757 30.0201 62.4139 29.9667 62.2521 29.9133C62.5113 29.6244 62.8985 29.5936 63.057 29.1033ZM64.1286 27.4853C64.2365 27.5209 64.3443 27.5565 64.4522 27.5921C64.466 27.8862 64.1702 27.5692 64.1849 27.8635C63.9147 27.8653 64.0999 27.6353 64.1286 27.4853ZM67.7801 24.5694C67.8154 24.4623 67.851 24.3545 67.8867 24.2466C68.185 24.2749 68.257 24.4192 68.1029 24.676C67.995 24.6404 67.8879 24.605 67.7801 24.5694ZM68.1604 25.5912C68.1067 25.7538 68.0538 25.914 68.0004 26.0758C67.8072 25.9496 67.6943 25.7797 67.836 25.4841C67.9439 25.5197 68.0518 25.5553 68.1604 25.5912ZM68.6432 25.2132C68.8121 25.308 68.8849 25.4499 68.8599 25.6436C68.752 25.608 68.6442 25.5724 68.5363 25.5368C68.5719 25.4289 68.6078 25.3203 68.6432 25.2132ZM70.3665 25.9608C70.3309 26.0686 70.2953 26.1765 70.2597 26.2843C70.1115 26.2554 69.8843 26.0694 69.8832 26.3403C69.7145 26.2448 69.6433 26.1008 69.6673 25.9102C70.0086 26.139 70.0265 25.7306 70.3665 25.9608ZM69.9898 25.4793C70.139 25.5814 70.5941 25.5341 70.4197 25.7998C70.2713 25.6953 69.8162 25.7453 69.9898 25.4793ZM71.2795 24.8286C71.3873 24.8642 71.4952 24.8998 71.603 24.9354C71.6161 25.2292 71.3214 24.9117 71.3344 25.2056C71.0645 25.2066 71.25 24.9783 71.2795 24.8286ZM72.5717 24.7161C72.535 24.8271 72.4997 24.9342 72.4643 25.0412C72.1412 24.9779 72.0732 24.7873 72.0863 24.5559C72.2489 24.6095 72.4091 24.6624 72.5717 24.7161ZM72.9392 21.9728C73.1572 22.3915 73.286 22.0145 73.6385 22.0234C73.5848 22.1859 73.5314 22.3477 73.4787 22.5072C73.2638 22.4362 73.0481 22.365 72.8332 22.294C72.8685 22.1869 72.9041 22.0791 72.9392 21.9728ZM73.7481 22.2399C73.9631 22.3108 74.1788 22.3821 74.3937 22.453C74.3322 22.6867 74.0693 22.5193 74.0714 22.8831C73.9112 22.8302 73.7478 22.7763 73.5884 22.7237C73.6421 22.5611 73.6947 22.4017 73.7481 22.2399ZM74.5575 23.0436C75.0139 23.1735 74.8153 23.6306 74.9894 23.9039C74.7109 23.7972 74.4057 23.6349 74.3983 24.0667C74.2904 24.0311 74.1826 23.9955 74.0755 23.9602C74.3227 23.8285 74.4457 23.4479 74.5575 23.0436ZM75.6356 23.5799C75.9241 23.7982 75.9497 23.4868 76.1723 23.5768C76.0047 23.7772 75.7892 23.8863 75.5293 23.9019C75.5649 23.794 75.6 23.6877 75.6356 23.5799ZM76.3366 24.1685C76.3007 24.2771 76.2654 24.3842 76.2298 24.492C76.0606 24.3954 75.9886 24.2538 76.0123 24.0614C76.1209 24.0972 76.2272 24.1323 76.3366 24.1685ZM77.9923 19.6974C77.7724 19.988 78.0827 20.0115 77.993 20.2359C77.7596 20.1736 77.9257 19.9094 77.5627 19.9144C77.6572 19.7436 77.8004 19.6722 77.9923 19.6974ZM78.5824 19.5351C78.5297 19.6946 78.4761 19.8571 78.4224 20.0197C78.1959 19.9076 78.3546 19.6029 78.2596 19.4285C78.3675 19.4642 78.4753 19.4998 78.5824 19.5351ZM78.8012 20.5027C78.9027 20.2268 78.5358 20.1854 78.6379 19.9105C78.9957 20.0001 79.1041 20.2153 78.9637 20.5564C78.6498 20.4675 78.6029 20.9088 78.2095 20.6645C78.3375 20.471 78.5059 20.3602 78.8012 20.5027ZM77.8992 24.8647C78.2147 24.883 77.907 25.2192 77.8997 25.4014C77.6725 25.2154 77.7528 25.6441 77.5232 25.4574C77.6615 25.2828 77.8636 25.2404 77.8992 24.8647ZM79.3438 21.5764C79.3081 21.9521 79.1052 21.9943 78.967 22.1688C78.6159 21.9905 79.0982 21.4355 79.3438 21.5764ZM77.7438 26.963C77.4489 26.9765 77.7682 26.6815 77.4726 26.6949C77.6067 26.5146 77.546 25.9477 77.8494 26.1024C77.5788 26.5072 77.9234 26.6027 77.7438 26.963ZM77.3183 28.7952C77.0374 28.7796 77.0356 28.6222 76.9686 28.4995C76.7659 28.4993 76.7861 28.942 76.6719 29.1201C76.5101 28.8881 76.2766 28.6896 76.1865 28.4216C76.6238 28.6171 76.7662 28.2359 77.0755 28.1759C77.3644 28.2774 77.4524 28.4807 77.3183 28.7952ZM76.4623 30.3034C76.4979 30.1955 76.533 30.0892 76.5689 29.9806C76.7368 30.0759 76.8093 30.2186 76.7851 30.4099C76.6773 30.3743 76.5694 30.3387 76.4623 30.3034ZM76.8393 30.7867C76.8529 31.0815 76.5571 30.762 76.5717 31.0563C76.3015 31.0581 76.488 30.8293 76.5165 30.6801C76.6228 30.7152 76.7314 30.7511 76.8393 30.7867ZM77.7998 27.8777C77.9751 28.0136 78.0168 28.218 78.394 28.2542C78.3361 28.587 77.9181 28.2019 77.6929 28.2012C77.7285 28.0934 77.7639 27.9863 77.7998 27.8777ZM76.8968 32.2402C76.4337 31.9442 76.3098 32.3194 75.9826 32.2971C76.1792 31.972 76.0395 31.8176 76.0352 31.5968C76.208 31.8585 76.3839 31.9165 76.6808 31.81C76.85 31.904 76.9212 32.048 76.8968 32.2402ZM75.4538 35.5264C75.4176 35.6358 75.3825 35.7421 75.3472 35.8491C75.0556 35.6298 75.0333 35.9414 74.8087 35.8525C74.5753 35.7902 74.7414 35.526 74.378 35.5291C74.4134 35.4221 74.4485 35.3158 74.4846 35.2064C74.6535 35.3011 74.7258 35.4446 74.7016 35.636C75.0139 35.7244 75.0616 35.2833 75.4538 35.5264ZM74.9183 36.6046C74.8649 36.7664 74.8115 36.9282 74.7583 37.0892C74.6505 37.0536 74.5418 37.0177 74.4355 36.9826C74.4236 36.7195 74.3373 36.4926 74.3241 36.2308C74.7361 36.2481 74.5065 36.5866 74.9183 36.6046ZM74.3218 34.6152C74.611 34.4351 74.9902 34.4285 75.2613 34.2086C75.5241 34.2789 75.5676 34.4597 75.5585 34.6656C75.0672 34.4921 74.9258 35.0122 74.3218 34.6152ZM76.0738 26.5919C75.7333 26.3607 75.7149 26.7707 75.3751 26.5397C75.5982 26.2918 75.8851 26.5651 75.6961 26.1083C75.8579 26.1617 76.0189 26.2149 76.1807 26.2683C76.1456 26.3746 76.1092 26.4848 76.0738 26.5919ZM79.6745 24.376C79.7815 24.4114 79.8894 24.447 79.9973 24.4826C80.0098 24.7754 79.7143 24.455 79.7284 24.7509C79.4585 24.752 79.6452 24.5224 79.6745 24.376ZM73.794 38.3848C73.6862 38.3491 73.5783 38.3135 73.4705 38.2779C73.7564 37.7743 72.8995 37.8467 73.2522 37.3087C73.6067 37.4899 73.3798 37.9645 73.9006 38.062C73.865 38.1698 73.8302 38.2753 73.794 38.3848ZM72.5552 38.3328C72.1357 38.073 72.8019 38.032 72.7681 37.688C72.876 37.7237 72.9838 37.7593 73.0917 37.7949C72.927 37.9997 72.7212 38.1293 72.5552 38.3328ZM72.5583 38.8721C72.4489 38.836 72.3426 38.8009 72.2332 38.7648C72.2688 38.6569 72.3041 38.5498 72.3398 38.442C72.6402 38.4718 72.7117 38.6151 72.5583 38.8721ZM71.651 41.6201C71.3385 41.3722 71.4304 40.9206 71.2699 40.598C71.6817 40.6161 71.4521 40.9546 71.8647 40.973C71.601 41.1468 71.5426 41.3234 71.651 41.6201ZM73.3163 40.9157C72.8666 41.0073 73.4278 41.4891 72.9414 41.5079C73.161 41.2181 72.8489 41.1948 72.9404 40.9702C73.1666 41.1567 73.0878 40.7285 73.3163 40.9157ZM73.3176 41.4527C73.4865 41.5475 73.5582 41.6899 73.5343 41.8831C73.4265 41.8475 73.3186 41.8119 73.2108 41.7763C73.2464 41.6684 73.282 41.5606 73.3176 41.4527ZM69.5641 46.3077C69.7791 46.3786 69.9948 46.4498 70.2105 46.5211C69.9906 46.8116 70.3006 46.8334 70.2128 47.0601C69.9651 46.5527 69.8254 47.1887 69.3507 46.954C69.1311 47.2438 69.4417 47.2666 69.352 47.491C69.1181 47.4302 69.2855 47.1674 68.9214 47.1702C69.0691 46.7804 68.8398 46.5825 68.8651 46.2563C68.9528 46.4187 69.5156 46.901 69.5641 46.3077ZM70.3229 48.3489C70.2873 48.4568 70.2514 48.5654 70.2158 48.6733C69.8226 48.6041 69.5231 48.7237 69.0317 48.4609C69.2185 48.2339 68.7903 48.3127 68.9773 48.0849C69.0998 48.2441 69.4453 48.6364 69.5171 48.0829C69.7215 48.4771 69.9213 48.2423 70.3229 48.3489ZM70.2189 49.2126C70.0316 49.4411 70.458 49.36 70.2731 49.5893C70.1121 49.5361 69.9487 49.4822 69.7885 49.4293C69.8836 49.2596 70.027 49.1873 70.2189 49.2126ZM69.3062 50.344C69.2706 50.4518 69.2353 50.5589 69.1989 50.6691C68.9839 50.5982 68.7682 50.5269 68.5525 50.4557C68.6847 50.1787 69.1261 50.522 69.3062 50.344ZM68.2821 49.647C67.7436 49.3825 67.6904 50.0766 67.1519 49.8121C67.1517 49.5425 67.3789 49.7284 67.5282 49.7569C67.7057 49.4003 68.0598 49.1888 67.8479 48.7886C68.0408 48.8132 68.1848 48.7394 68.2791 48.5721C68.5479 48.6608 68.8176 48.7499 69.0864 48.8386C68.8626 49.1964 68.3518 48.987 68.2821 49.647ZM67.489 54.7635C67.4539 54.8698 67.4183 54.9776 67.3827 55.0855C67.2749 55.0499 67.167 55.0142 67.0591 54.9786C67.1534 54.8113 67.2966 54.7372 67.489 54.7635ZM67.1098 53.7411C67.2176 53.7767 67.3247 53.8121 67.4325 53.8477C67.3791 54.0095 67.3257 54.1713 67.2726 54.3323C67.0796 54.2053 66.9669 54.0372 67.1098 53.7411ZM66.6252 53.5811C66.7517 53.3871 66.9203 53.2755 67.2163 53.4183C67.0886 53.611 66.9215 53.7232 66.6252 53.5811ZM69.2398 45.6623C69.0581 45.7479 69.0047 46.0883 68.7552 46.0406C68.8175 45.7179 69.0092 45.6494 69.2398 45.6623ZM70.966 46.9499C71.3223 47.039 71.4317 47.2537 71.2898 47.5942C71.1288 47.5411 70.967 47.4877 70.806 47.4345C70.8592 47.2735 70.9128 47.1109 70.966 46.9499ZM66.0943 56.2731C65.9865 56.2375 65.8794 56.2022 65.7715 56.1666C65.8069 56.0595 65.8428 55.9508 65.8781 55.8438C66.1762 55.8729 66.2485 56.0163 66.0943 56.2731ZM65.0201 57.353C64.4893 57.0338 63.9034 57.493 63.9429 56.817C64.1046 56.8704 64.2664 56.9238 64.4274 56.977C64.4981 56.7628 64.5696 56.5463 64.6408 56.3306C65.0237 56.3183 64.4755 56.7736 64.8573 56.7618C64.8436 56.9557 64.6662 56.8261 64.6171 56.9512C64.5374 57.1927 65.2527 57.0345 65.0201 57.353ZM63.3016 58.2183C63.0317 58.2193 63.2179 57.9913 63.2464 57.8421C63.3543 57.8777 63.4621 57.9133 63.5692 57.9487C63.5828 58.2435 63.2872 57.9232 63.3016 58.2183ZM64.3842 60.3683C64.3486 60.4761 64.313 60.584 64.2774 60.6918C64.168 60.6557 64.0617 60.6206 63.953 60.5847C64.0486 60.4161 64.1913 60.3436 64.3842 60.3683ZM64.386 60.9062C64.3502 61.0149 64.3143 61.1235 64.2792 61.2298C64.1713 61.1942 64.0635 61.1586 63.9564 61.1232C64.0501 60.9548 64.1936 60.8826 64.386 60.9062ZM65.0135 54.6612C64.942 54.8777 64.8708 55.0934 64.7996 55.3091C64.6366 55.0308 64.7536 54.6135 64.5818 54.341C64.9465 54.3365 64.7786 54.6009 65.0135 54.6612ZM74.032 27.8879C73.8957 27.8229 73.6011 27.8357 73.7621 27.6211C74.054 27.8396 74.076 27.5288 74.3019 27.619C74.314 27.9134 74.0179 27.5946 74.032 27.8879ZM31.0649 39.6894C31.2274 39.7431 31.3876 39.796 31.5502 39.8497C31.497 40.0107 31.4436 40.1725 31.3902 40.3343C31.6182 40.5205 31.5384 40.0928 31.7672 40.2793C31.773 40.5005 31.9114 40.6563 31.7148 40.9788C31.8226 41.0144 31.9305 41.05 32.0384 41.0857C32.2233 40.8563 31.7969 40.9375 31.9829 40.7102C32.1447 40.7637 32.3057 40.8168 32.4682 40.8705C32.5219 40.7079 32.5753 40.5461 32.6288 40.3844C33.0701 40.7277 32.9401 39.9324 33.3814 40.2758C33.4904 39.8671 33.7972 39.8514 34.0781 39.7881C33.9815 40.3092 33.5082 40.081 33.3283 40.4368C33.683 40.6068 33.9579 40.6169 34.1888 40.5423C34.3315 40.3121 33.9425 40.3509 34.1615 40.0843C34.3077 40.0641 34.3662 39.8685 34.5642 39.9486C34.5286 40.0565 34.493 40.1643 34.4574 40.2722C35.2314 40.4428 35.6101 40.4118 36.2355 40.8593C36.3305 40.3351 36.7895 40.5334 37.095 40.4245C36.9768 40.0526 37.1016 40.2048 37.2815 39.8594C37.2963 39.4708 36.5231 39.479 36.6592 39.0273C37.0577 39.3192 37.4208 38.8497 37.6575 39.2667C37.4608 39.2772 37.3719 39.5018 37.3081 39.7789C37.7029 39.9379 38.0796 40.0597 38.2239 39.7224C38.086 39.657 37.7912 39.6706 37.9535 39.4546C38.4143 39.4923 38.1897 39.8732 38.4938 39.9918C38.7645 39.9044 39.1415 40.0306 39.2993 39.7204C39.2137 39.5387 38.8744 39.4848 38.9206 39.2374C39.2745 39.4019 39.5389 39.3913 39.6745 39.1275C39.3519 39.0652 39.2847 38.8748 39.2971 38.6431C39.5353 38.1394 40.2592 38.5933 40.4247 37.9398C40.2984 37.847 39.9177 37.8816 39.9667 37.6993C40.2742 37.7315 40.4597 37.5188 40.7462 37.5094C40.7252 37.8119 40.9729 37.9778 41.0455 38.2358C40.7535 38.2356 40.7242 38.7573 40.589 39.0697C41.0526 39.3667 41.0697 38.7768 41.3956 38.7978C41.4861 38.5737 41.1742 38.5522 41.3954 38.2603C41.915 38.314 41.5755 38.7991 42.0959 38.8504C42.3335 38.551 41.6406 38.72 41.8799 38.4203C42.2559 38.4551 42.2978 38.6588 42.4729 38.7955C42.4708 38.5261 42.6988 38.7123 42.8491 38.7403C42.8449 38.3775 43.1083 38.5433 43.1698 38.3097C43.076 38.2683 42.9876 38.2235 43.062 38.0955C42.7866 37.9924 42.7452 38.3593 42.4701 38.258C42.6907 37.9677 42.3804 37.9441 42.4693 37.7195C42.8329 37.7156 42.6668 37.9798 42.9002 38.0421C42.9545 37.9248 42.9701 37.7332 43.0875 37.7451C43.1085 37.8916 43.3057 37.9506 43.223 38.1487C43.4527 38.2904 43.4146 37.9016 43.6815 38.1198C43.8657 38.3808 43.8508 38.4366 43.6025 38.6319C43.8261 38.7214 43.8507 38.4105 44.139 38.6296C44.3676 38.2232 44.0003 38.1175 43.8425 37.9051C43.9459 37.752 43.918 37.3406 44.1093 37.3648C44.5769 37.6917 44.9026 38.0887 45.7008 38.2491C45.7938 38.0804 45.9383 38.0077 46.1305 38.0321C46.1233 37.8096 45.9849 37.6564 46.1813 37.3321C46.9427 37.5488 47.3508 37.069 47.8753 36.8166C48.1432 37.0342 48.1054 36.6447 48.3328 36.7882C48.2969 36.8969 48.2616 37.0039 48.226 37.1118C48.3877 37.1652 48.5487 37.2184 48.7105 37.2718C48.7406 36.9732 48.8826 36.9004 49.1409 37.0551C49.0192 36.8016 49.1467 36.4234 49.2989 36.0307C50.0654 35.9431 49.6297 34.942 50.1548 34.5225C49.7555 34.5216 49.9855 34.2031 49.6442 34.1737C49.407 34.4195 48.6536 34.0841 48.8087 33.7192C49.0423 33.8727 49.1383 33.7501 49.2662 33.6909C49.5648 34.1752 50.2225 33.8107 50.5586 34.3863C50.1373 35.0403 50.1825 35.6698 49.568 36.2998C49.743 36.4365 49.7865 36.6407 50.1627 36.6748C50.3824 36.385 50.0713 36.3611 50.1609 36.1368C50.4534 36.1856 50.6209 35.9801 50.6969 35.5978C50.582 35.5442 50.3898 35.5276 50.4012 35.4091C50.6596 35.4771 50.6243 34.9619 50.8306 34.9251C50.8868 35.0303 50.9408 35.1374 50.9923 35.2463C50.9419 35.3727 50.7649 35.2423 50.7503 35.436C50.8452 35.4768 50.9333 35.5224 50.8587 35.6512C51.1997 35.658 51.4168 35.4203 51.6364 35.1911C51.7625 35.2397 51.6342 35.4184 51.8265 35.4316C51.9487 35.0932 52.3541 35.3198 52.5524 35.1339C52.669 35.2114 52.5389 35.4111 52.8215 35.403C52.9523 35.4375 52.9529 35.2176 53.1182 35.3207C53.1435 35.1288 53.0707 34.9869 52.902 34.8914C52.7454 34.8197 52.4556 35.1435 52.3896 34.8106C52.9452 34.708 53.4488 34.5059 54.0843 34.5658C54.1677 34.2293 53.9972 33.6694 54.3785 33.407C54.4692 33.4525 54.6119 33.4693 54.5937 33.569C54.2183 33.6297 54.6538 34.0881 54.1912 34.2422C54.299 34.2778 54.4069 34.3134 54.5139 34.3488C54.5768 34.0246 54.7671 33.9574 54.9978 33.9703C54.9373 34.2034 54.6726 34.0389 54.6773 34.4027C55.0172 34.4075 55.2339 34.1713 55.4555 33.9411C55.8321 34.1998 55.8833 33.8111 56.2363 34.0204C56.1832 34.1814 56.1295 34.3439 56.0761 34.5057C56.5667 34.5975 56.5796 34.0071 56.5313 33.6705C56.7167 33.4578 57.0457 33.5326 57.4189 33.694C57.5304 33.2801 56.7985 33.2889 57.2029 32.7256C56.9349 32.553 56.9833 33.0076 56.8793 33.157C56.4854 32.8198 56.5811 33.4564 56.2887 33.3208C56.4055 32.8437 56.8126 32.9365 56.9312 32.4591C56.8142 32.404 56.6231 32.3894 56.6353 32.2712C56.6691 31.9798 56.8885 32.061 57.0105 31.9461C57.1305 32.2206 57.6942 32.7682 58.0882 32.4805C58.134 32.7513 58.6131 32.802 58.7085 33.0459C58.8902 32.6846 58.5448 32.5888 58.8138 32.1835C59.1041 32.4042 59.1282 32.0923 59.3523 32.1828C59.3054 32.4299 59.6447 32.4839 59.7303 32.6656C59.7162 32.3723 60.0125 32.6903 59.9995 32.3965C60.1854 32.1666 59.7575 32.2472 59.9437 32.0192C60.2234 32.0778 60.6417 31.7166 60.8321 32.043C60.8029 32.3861 60.4834 32.1541 60.4833 32.5562C60.8896 32.738 61.088 32.5045 61.1823 32.0693C60.9752 32.0165 61.0452 31.823 60.9387 31.7202C61.2022 31.665 61.327 31.3318 61.7182 31.5303C61.905 31.3007 61.4781 31.3808 61.6638 31.1518C61.7656 31.1767 61.8635 31.1926 61.8787 31.0442C61.5465 31.1 61.2758 31.2742 60.9101 31.2635C61.2684 30.8661 61.0622 29.9182 61.8759 29.9685C61.8518 30.4537 61.5167 30.3266 61.4468 30.7221C61.5554 30.758 61.6617 30.7931 61.7704 30.829C61.8268 30.4532 62.0068 30.3202 62.2258 30.2634C62.5992 30.424 62.9264 30.4964 63.1679 30.395C63.1432 30.588 63.2159 30.7299 63.3849 30.8246C63.5545 30.5366 63.6771 30.1575 64.0831 30.3401C64.3035 30.048 63.9927 30.026 64.0811 29.8003C64.3563 30.0351 64.2248 29.4621 64.431 29.557C64.7215 29.5905 64.6407 29.8117 64.7548 29.9335C64.5578 29.9447 64.4689 30.1693 64.4067 30.4469C64.746 30.4957 64.874 30.1237 65.2128 30.174C65.315 29.8983 64.9479 29.8577 65.05 29.5828C65.3398 29.8024 65.3633 29.4921 65.588 29.581C65.5908 29.9451 65.3288 29.778 65.2659 30.013C65.3738 30.0486 65.4816 30.0842 65.5895 30.1198C65.6246 29.7431 65.8265 29.7014 65.9655 29.5271C65.8223 29.3282 65.5964 29.1721 65.21 29.0982C65.1154 29.2664 64.972 29.3386 64.7806 29.3145C64.9757 28.9914 64.8378 28.8367 64.832 28.6155C65.155 28.8105 65.31 28.6719 65.5312 28.6661C65.337 28.2673 65.6458 28.2454 65.7978 27.8587C65.4051 27.6146 65.359 28.0562 65.0456 27.9683C65.147 27.3673 65.685 27.6334 66.1753 27.8022C65.9941 28.1645 66.339 28.2593 66.0697 28.6653C66.3042 28.7271 66.1368 28.9899 66.5019 28.9866C66.7359 28.711 66.1619 28.8431 66.2591 28.6377C66.517 28.7046 66.4812 28.1883 66.6872 28.1524C66.7064 28.2991 66.9038 28.3574 66.8221 28.5549C67.0379 28.6261 67.2528 28.6971 67.4693 28.7686C67.4989 28.4689 67.6426 28.3959 67.8994 28.5526C67.9377 28.0036 68.3128 28.1274 68.489 27.851C68.0783 27.8324 68.3074 27.4929 67.8964 27.4751C67.842 27.5923 67.8267 27.7832 67.7082 27.7718C67.5567 27.6689 67.1445 27.6966 67.1687 27.5052C67.1955 27.424 67.2221 27.3435 67.2492 27.2614C67.4649 27.3326 67.6799 27.4036 67.8964 27.4751C67.9413 26.8953 68.5914 27.5199 68.6746 27.0161C68.8988 27.0615 68.4494 27.4436 68.8111 27.4191C69.0878 26.8985 69.7274 27.0984 70.0997 26.7689C70.1046 27.1346 69.84 26.9675 69.7789 27.2022C69.9947 27.2734 70.2104 27.3446 70.4253 27.4156C70.6214 27.092 70.4835 26.9373 70.4767 26.714C70.6392 26.7676 70.801 26.8211 70.9628 26.8745C71.0984 26.7 71.3026 26.659 71.3372 26.2813C70.9971 26.2063 70.9816 25.9671 70.7698 25.8261C70.7964 25.7456 70.8232 25.6643 70.8501 25.583C71.2271 25.6174 71.2698 25.8213 71.4435 25.9593C71.4428 25.6886 71.6716 25.8751 71.8216 25.9038C71.846 25.5435 72.3068 25.3663 72.4382 25.6584C72.4551 26.0038 72.166 25.7402 72.1443 26.0104C72.4991 26.1804 72.774 26.1905 73.0041 26.1157C73.1061 25.8408 72.7403 25.7989 72.8405 25.5243C72.9696 25.3303 73.1379 25.2194 73.4335 25.3612C73.6216 25.0645 73.8045 24.76 73.9968 24.4716C74.0773 24.4981 74.157 24.5245 74.2383 24.5513C74.0197 24.8406 74.3292 24.8639 74.2401 25.0893C74.5634 25.2862 74.7176 25.1473 74.9388 25.1414C75.0335 25.0149 74.9983 24.6332 75.1801 24.6837C75.4838 25.0449 75.7745 25.0074 76.2313 25.0308C76.1412 25.6555 75.5339 25.253 75.2092 25.4093C75.1594 25.7491 75.5323 25.8774 75.482 26.2161C75.4626 25.9125 74.7249 25.9679 74.7786 25.6268C74.3791 25.8364 74.0885 25.522 74.0254 25.1961C73.7182 25.7092 74.093 25.9812 73.7046 26.1676C73.9141 26.4205 73.5809 26.9493 73.9226 27.1349C73.7609 27.0815 73.5998 27.0284 73.4381 26.9749C73.2681 27.3297 73.2577 27.6053 73.333 27.8365C73.9282 27.8978 73.8819 28.2795 74.4108 28.3735C74.6815 28.1153 74.1882 27.9108 74.4898 27.8613C74.5015 28.0567 74.7261 28.1456 75.0027 28.2084C75.0915 27.9395 75.1805 27.6699 75.2693 27.401C75.1518 27.3475 74.9604 27.3311 74.9715 27.2134C75.1201 27.194 75.1773 26.9971 75.3761 27.0774C75.671 27.0639 75.3504 27.3602 75.6452 27.3466C75.7391 27.2198 75.7047 26.8384 75.8876 26.8883C75.9673 26.9147 76.0478 26.9412 76.1283 26.9678C75.9064 27.5533 76.2413 27.0875 76.5602 27.2898C76.5017 27.6666 76.3217 27.7996 76.104 27.8552C75.73 27.691 75.4108 27.6367 75.2711 27.939C75.386 27.9925 75.5781 28.0092 75.567 28.1269C75.079 28.6834 75.3031 29.0443 75.007 29.8229C74.8992 29.7872 74.7913 29.7516 74.6843 29.7163C74.9077 30.0319 74.649 30.587 75.0362 30.8189C74.8653 30.8821 74.7602 31.0745 74.4719 30.9004C74.2844 31.3551 74.2454 31.7331 74.4741 31.9777C74.8009 31.9174 75.0776 31.5519 74.9028 31.2229C75.0106 31.2585 75.1185 31.2942 75.2263 31.3298C74.8888 31.7245 75.5244 31.6267 75.3891 31.9209C75.0933 31.7799 74.9255 31.8918 74.7993 32.085C74.992 32.3913 74.5546 33.0149 74.7486 33.3225C74.5981 33.2927 74.3696 33.1081 74.3722 33.3785C74.4871 33.432 74.68 33.4463 74.6686 33.5648C74.4497 33.8314 74.8377 33.7931 74.6955 34.0218C74.265 33.9472 74.3627 33.6068 74.1825 33.4043C74.2981 33.0541 74.4135 32.7048 74.5291 32.3546C74.4031 32.261 74.0227 32.2949 74.0714 32.1134C74.1338 31.9242 74.196 31.7359 74.2582 31.5475C74.0245 31.486 74.1904 31.2226 73.8276 31.2268C73.5898 31.6371 73.7949 31.8271 73.9103 32.0602C73.8049 32.5212 73.4535 32.491 73.4015 33.058C73.5929 33.0822 73.7363 33.0099 73.8311 32.841C74.0173 32.613 73.5899 32.692 73.7769 32.4643C73.904 32.5573 74.2833 32.524 74.2339 32.7053C74.1 33.019 73.8383 33.0765 73.6711 33.3256C74.4053 33.5957 73.7967 34.935 73.0835 34.5643C73.0304 35.085 72.6523 34.9594 72.601 35.4824C72.9828 35.5573 73.1883 35.7249 73.1402 36.0176C73.4172 36.1185 73.457 35.7538 73.7319 35.8558C73.5672 36.0606 73.3617 36.1895 73.1952 36.3946C73.5178 36.6328 73.5211 36.2395 73.8145 36.4196C73.935 36.6952 74.0012 36.9987 74.1677 37.253C74.0043 37.1991 73.8441 37.1462 73.6816 37.0925C73.7172 36.9847 73.7528 36.8768 73.7884 36.769C73.5669 36.7756 73.4127 36.9145 73.0884 36.7181C73.2751 36.2207 72.8589 36.0244 72.4947 35.8044C72.4975 36.1685 72.2352 36.0022 72.1737 36.2358C72.3303 36.226 72.7523 36.0637 72.8456 36.3693C72.5417 36.8592 72.8615 37.035 72.8755 37.3629C72.7492 37.2701 72.368 37.3063 72.4172 37.1232C72.5782 36.7958 72.5086 36.5839 72.281 36.4515C72.2839 36.8157 72.0218 36.6485 71.9603 36.8822C72.2979 37.0041 72.0716 37.4087 72.2572 37.6078C71.762 37.7164 72.1941 38.1191 72.1788 38.3888C72.0216 38.3976 71.5999 38.5617 71.5066 38.2562C71.6277 38.1887 71.7844 38.1867 71.8008 37.906C71.6913 37.8699 71.585 37.8348 71.4764 37.7989C71.4525 38.2834 71.1182 38.1565 71.0496 38.5534C71.2768 38.7394 71.1973 38.3109 71.4266 38.4985C71.3484 38.6486 71.4823 38.6945 71.5074 38.7947C71.1706 38.8222 71.1061 39.4744 71.2142 39.6825C71.1048 39.6464 70.9985 39.6113 70.8898 39.5754C70.9255 39.4676 70.9606 39.3613 70.9964 39.2527C70.7692 39.0667 70.8501 39.4938 70.6202 39.3079C70.8271 39.7341 70.4475 39.6105 70.2463 39.9021C70.5348 40.1204 70.56 39.8106 70.7825 39.9006C70.9353 40.1859 70.7428 40.9501 70.3025 40.816C70.356 40.6543 70.4094 40.4925 70.4625 40.3315C69.9948 40.4145 70.2108 41.246 70.4659 41.4082C70.5584 41.2802 70.5245 40.8997 70.7058 40.9492C70.8084 41.0325 71.1552 40.9927 71.0833 41.1631C70.9829 41.4515 70.7799 41.5414 70.4659 41.4082C70.4302 41.5161 70.3952 41.6224 70.359 41.7318C70.574 41.8028 70.7889 41.8737 71.0046 41.945C70.9111 42.4723 70.5286 42.4257 70.4699 43.0209C70.5563 43.2028 70.8964 43.2571 70.8477 43.5045C70.473 43.379 70.4555 43.0751 69.9325 43.0237C69.7366 43.3465 69.8734 43.5018 69.8806 43.7217C69.7711 43.6855 69.6649 43.6505 69.5562 43.6146C69.5857 43.4674 69.7725 43.2379 69.5023 43.2397C69.3206 43.6009 69.6652 43.6965 69.3954 44.1015C69.2035 44.0763 69.0601 44.1485 68.9658 44.3185C69.0917 44.6357 69.8155 44.6537 69.8028 45.0412C69.6073 45.0113 69.5879 45.33 69.4277 45.3664C69.3244 45.2828 68.9786 45.3221 69.0486 45.1519C69.181 45.011 69.4222 45.0889 69.5064 44.8549C69.0273 44.6153 68.7409 44.7608 68.6461 45.2869C68.7626 45.3409 68.9542 45.3565 68.9423 45.4739C68.5366 45.5159 68.643 46.5747 68.1119 46.3664C68.0102 46.6405 68.3752 46.6822 68.275 46.9568C68.0491 46.8666 68.0268 47.1782 67.7357 46.9573C67.6823 47.1191 67.6289 47.2809 67.5757 47.4419C68.1285 47.5134 67.7354 47.8586 67.5788 47.9812C67.6935 48.0355 67.8859 48.0513 67.8748 48.169C67.8482 48.2495 67.8213 48.3308 67.7945 48.4121C67.6319 48.3584 67.4717 48.3055 67.3084 48.2516C67.2374 48.4665 67.1664 48.6814 67.095 48.8979C66.8724 48.808 66.8478 49.1188 66.5572 48.8989C66.3826 49.5329 66.1705 50.0913 65.8628 50.4613C66.1381 50.696 66.005 50.1225 66.2122 50.2195C66.315 50.302 66.6603 50.2617 66.5884 50.4321C66.5115 50.8592 66.0658 50.5526 66.0251 51.054C66.3167 51.2733 66.3387 50.9625 66.5649 51.0519C66.5112 51.2145 66.4581 51.3755 66.4049 51.5365C67.0252 51.6503 66.9058 52.1379 67.4014 52.3145C67.3745 52.3958 67.3482 52.4755 67.3216 52.556C66.9606 52.3761 66.8658 52.721 66.4609 52.4512C66.5613 52.1758 66.1958 52.1357 66.2981 51.8601C65.9444 51.6948 65.679 51.7059 65.5436 51.9689C65.4542 52.1951 65.7658 52.2174 65.5449 52.5085C65.4378 52.4731 65.3299 52.4375 65.2221 52.4019C65.1608 52.9971 64.7793 52.95 64.6871 53.4786C64.9115 53.5683 64.9351 53.258 65.2249 53.4776C65.2983 53.0373 65.9608 53.0731 66.1669 53.3414C66.1406 53.4211 66.1138 53.5024 66.0872 53.5829C65.6074 53.3456 65.3762 53.5995 65.0099 53.5852C65.0697 54.1839 65.5562 54.5691 66.4136 54.7655C66.6086 54.4424 66.471 54.2869 66.4652 54.0657C66.5514 54.2693 66.8962 54.3432 67.0305 54.5219C66.9622 54.9206 66.7066 54.9489 66.5501 55.1685C66.4588 55.1245 66.3136 55.1078 66.3333 55.0085C66.3827 54.8827 66.5592 55.0121 66.5746 54.8186C65.9702 54.7326 65.9179 55.7442 65.4198 55.8719C65.0758 55.8874 65.3386 55.598 65.0708 55.5772C65.0278 55.6731 64.9825 55.7604 64.854 55.685C64.7659 55.9099 65.0757 55.9325 64.8576 56.2228C64.5572 56.0378 64.2044 56.4344 64.0216 56.0377C64.5542 55.8028 65.0115 55.4181 65.6603 55.4139C65.857 55.0914 65.7186 54.9356 65.7135 54.7146C65.0811 54.6272 65.1046 54.2119 64.4737 54.125C64.473 54.5261 64.1551 54.2945 64.1259 54.6377C64.0034 55.392 63.2726 56.2559 63.192 57.4662C63.0841 57.4306 62.9763 57.3949 62.8684 57.3593C62.8444 57.8021 62.5626 57.7316 62.4659 58.0325C62.5729 58.1363 62.5021 58.3296 62.7102 58.3819C62.939 58.5684 62.8571 58.1418 63.0864 58.3267C62.9007 58.5557 63.3276 58.4757 63.1416 58.7029C62.9915 58.6273 62.9453 58.7594 62.8451 58.7844C62.7206 58.7364 62.8505 58.5582 62.657 58.5429C62.5819 58.9307 62.4266 59.1568 62.2282 59.2984C62.4807 59.3922 62.7691 58.8677 62.9548 59.2687C62.8994 59.3839 62.7349 59.2785 62.6049 59.2442C62.4349 59.5989 62.4242 59.8728 62.4993 60.1047C62.7239 60.1936 62.7473 59.8841 63.0373 60.103C63.2528 59.6393 63.4584 59.1533 63.8971 59.1318C64.0653 59.2263 64.1375 59.3697 64.1128 59.5627C63.7222 59.3228 63.6869 59.7844 63.4667 59.8867C63.6356 59.9815 63.7079 60.125 63.6837 60.3164C63.4508 60.2551 63.6159 59.9915 63.2525 59.9946C63.1923 60.5892 62.8496 60.6217 62.6087 60.8577C63.0729 61.1557 63.1975 60.7782 63.5237 60.8009C63.4629 61.0348 63.198 60.8685 63.203 61.2342C63.6369 61.6184 63.7371 61.4487 64.3331 61.6073C64.677 60.907 65.0699 60.3051 65.4321 59.6386C65.4991 59.7638 65.5003 59.9177 65.7815 59.9351C66.0227 59.4565 65.6476 59.1853 66.1022 58.9636C65.942 58.9107 65.7787 58.8568 65.6169 58.8033C65.4845 59.0335 65.4914 59.5351 65.2696 59.5849C65.2764 59.3358 64.8843 59.2869 64.5969 59.1834C64.8157 58.8933 64.5049 58.8713 64.5935 58.6449C65.0445 58.7834 65.0363 58.0101 65.426 58.0244C65.4827 58.1306 65.5375 58.238 65.5888 58.3477C65.5392 58.4717 65.3626 58.3423 65.3473 58.5358C65.67 58.6423 65.9952 58.7497 66.318 58.8563C66.3342 58.4447 66.6753 58.6744 66.6913 58.2636C66.1535 58.4908 66.0525 57.6912 65.7209 57.4041C65.5843 57.5791 65.3816 57.6205 65.3462 57.998C65.0056 57.7252 65.0111 58.1362 64.8364 58.1877C64.7449 58.1445 64.6012 58.1256 64.6196 58.0277C64.8156 58.0144 64.905 57.7908 64.9667 57.5147C65.0753 57.5506 65.1816 57.5857 65.291 57.6218C65.5217 57.2802 65.1117 57.2619 65.3435 56.9223C65.5045 56.9755 65.6662 57.0289 65.8272 57.082C66.0703 56.7974 65.58 56.5393 65.9596 56.4081C65.8937 56.668 66.4079 56.6306 66.4452 56.838C66.1959 56.8319 66.1462 57.2238 66.0437 57.5106C66.2182 57.6489 66.2604 57.8518 66.6379 57.8871C66.5792 57.4664 66.6372 56.9889 66.5255 56.5949C67.0446 56.8235 67.03 55.9909 67.3316 55.7863C67.2148 55.733 67.0227 55.7164 67.0357 55.5984C67.0803 55.4632 67.1247 55.3288 67.1688 55.1951C67.2759 55.2305 67.3837 55.2661 67.4916 55.3017C67.516 54.8157 67.8498 54.9441 67.9189 54.5457C67.8032 54.4919 67.6116 54.4763 67.6224 54.3594C68.264 53.9705 68.0114 53.3099 68.668 52.8229C68.3447 52.626 68.1895 52.7654 67.9696 52.7699C67.9641 52.4058 68.2282 52.5719 68.2898 52.3383C68.1201 52.2432 68.0483 52.1008 68.0728 51.9086C68.2848 52.4059 68.8367 52.0101 68.9888 52.3896C69.2608 52.0513 68.852 52.0558 68.7989 51.8805C69.1422 51.7148 69.2071 50.996 69.848 51.42C69.9409 50.9367 69.7741 51.0402 70.0886 50.6916C69.8827 50.3463 69.6158 50.031 69.3328 49.7252C69.4785 49.7066 69.5373 49.5102 69.7354 49.5903C69.6449 49.8144 69.956 49.8382 69.7358 50.127C69.9618 50.2172 69.9838 49.9064 70.2751 50.1265C70.2996 49.6821 70.5817 49.7545 70.6764 49.452C70.4277 49.2416 70.7881 48.7227 70.8622 48.3484C70.7344 48.2551 70.3542 48.2882 70.4024 48.1082C70.3868 47.7642 70.6762 48.027 70.6994 47.7573C70.2232 47.5247 70.1232 48.0403 69.7305 47.9748C70.0171 47.6975 70.4219 47.6553 70.6153 47.193C70.6532 47.6007 70.7911 47.9574 71.0766 48.2398C71.6322 47.7307 71.5256 46.762 71.8786 46.3542C71.3238 46.0132 70.9066 46.6495 70.5065 46.1707C70.5333 46.0894 70.5601 46.0081 70.5867 45.9276C70.9802 46.0853 71.3551 46.2073 71.5007 45.8714C71.6851 45.6436 71.2592 45.7232 71.4462 45.4954C71.1693 45.3945 71.1297 45.7584 70.8535 45.6577C70.9915 45.484 71.1936 45.4415 71.2292 45.0658C70.6936 44.9869 70.8188 44.6053 70.4203 44.7987C70.4559 44.6909 70.4915 44.583 70.5272 44.4752C70.2452 44.6282 69.7342 44.3252 69.452 44.479C69.5418 43.8525 70.1473 44.2553 70.4722 44.0982C70.5746 44.3157 71.0375 44.3524 70.7973 44.7438C71.2661 44.9306 71.5452 44.3398 71.8206 44.9022C72.0006 44.3021 71.7988 44.3724 72.1412 43.9315C71.802 43.6592 71.8071 44.0691 71.6292 44.1222C71.6607 43.9272 71.3418 43.9086 71.307 43.7463C71.3338 43.665 71.3601 43.5853 71.387 43.504C71.8364 43.7729 71.9592 43.393 72.4098 43.6614C72.4629 43.5004 72.5163 43.3386 72.5695 43.1776C72.3449 43.0887 72.3213 43.399 72.0302 43.1781C71.9655 43.3162 71.9791 43.6111 71.7634 43.448C71.832 43.0511 72.1661 43.1787 72.1899 42.6943C72.0742 42.6405 71.8829 42.6241 71.8943 42.5057C71.938 42.4152 71.9574 42.2725 72.055 42.2918C72.3194 42.36 72.3597 42.5423 72.3533 42.7482C72.6279 42.8484 72.668 42.4829 72.9437 42.5852C72.92 42.775 72.992 42.9192 73.1607 43.0148C73.3363 42.7374 73.7123 42.8615 73.7518 42.3138C73.4607 42.0928 73.4369 42.4039 73.2123 42.315C73.3988 42.0862 72.9708 42.1668 73.1576 41.9373C73.3733 42.0085 73.5898 42.08 73.8055 42.1512C73.8744 41.7588 73.7153 41.3795 74.1252 41.1828C73.4696 41.0132 74.1351 40.8143 74.1756 40.4818C74.0485 40.3887 73.6694 40.4213 73.7176 40.2413C73.7948 40.1255 73.9945 40.2556 73.9859 39.9719C73.9514 39.5488 73.4577 39.5609 73.1236 39.5962C73.1047 39.4486 72.9083 39.3925 72.9879 39.1934C73.3528 39.1908 73.1854 39.4536 73.4209 39.5149C73.474 39.3539 73.5275 39.1921 73.5809 39.0303C74.0559 39.3085 74.1291 38.7823 74.3599 38.5716C74.6587 38.9606 74.9192 38.5838 75.1951 39.0268C75.331 38.8515 75.5349 38.8087 75.5687 38.4333C75.28 38.2132 75.2554 38.524 75.0323 38.4356C75.0545 38.1084 74.6778 37.984 74.975 37.5196C75.0837 37.5555 75.19 37.5906 75.2994 37.6267C75.3238 37.1407 75.6578 37.2683 75.7264 36.8715C75.2501 36.7523 74.9244 36.5573 74.8636 36.2295C75.26 36.6828 75.6385 36.3293 75.9419 36.7649C76.2504 36.1586 75.7348 35.9693 76.0465 35.3641C76.6877 35.3383 76.278 34.852 76.689 34.5023C76.2034 34.361 75.6477 33.9045 76.014 33.5617C76.0937 33.5881 76.1742 33.6146 76.2555 33.6415C76.1011 33.8991 76.1726 34.0423 76.473 34.0721C76.5648 33.9438 76.5315 33.5644 76.7133 33.6123C76.9354 33.6588 76.4886 34.0409 76.8495 34.0162C76.8864 33.5551 77.2689 33.7802 77.3857 33.4764C77.2131 33.5425 76.6754 33.5747 76.5502 33.2898C76.908 32.8861 77.616 33.1754 77.8659 32.5601C77.7502 32.5063 77.5586 32.4907 77.57 32.3723C77.6321 32.1839 77.6943 31.9956 77.7565 31.8072C77.8644 31.8428 77.9722 31.8784 78.0793 31.9138C78.1149 31.8059 78.1508 31.6973 78.1864 31.5894C77.9115 31.49 77.8709 31.8545 77.5963 31.7543C77.8653 31.3491 77.5199 31.2532 77.7006 30.8925C78.0657 30.8891 77.8976 31.1517 78.1328 31.2137C78.3673 31.0546 78.4868 30.6719 78.7224 30.5122C78.4708 30.1899 78.1493 29.9035 78.1811 29.4372C77.9059 29.336 77.8656 29.7023 77.5894 29.6016C77.7223 29.3724 77.7154 28.8709 77.9378 28.8195C77.9933 29.0372 78.2181 29.1729 78.1811 29.4372C78.396 29.5082 78.6117 29.5794 78.8266 29.6504C78.8801 29.4886 78.933 29.3284 78.9866 29.1658C78.8709 29.112 78.6793 29.0964 78.6904 28.9787C78.745 28.8633 78.9098 28.9679 79.0398 29.0048C79.5298 28.2192 78.3303 28.2843 78.8211 27.4989C78.593 27.3127 78.6731 27.7396 78.4443 27.5531C78.6528 26.9979 78.0805 26.8384 78.119 26.37C78.172 26.1622 78.3643 26.2335 78.4689 26.1267C78.5826 26.2024 78.452 26.4037 78.738 26.3959C79.0312 26.3557 79.1415 25.9483 79.4363 25.9087C79.4475 26.1057 79.6716 26.1936 79.9469 26.2576C80.1675 25.9673 79.8564 25.9434 79.9469 25.7193C79.7905 25.6469 79.4994 25.972 79.435 25.6396C79.6055 25.5772 79.7101 25.3837 80.0001 25.5583C80.2408 25.0787 79.8657 24.8076 80.32 24.5892C80.2014 24.0403 79.617 23.3715 80.1255 22.7316C80.2585 23.0009 80.3681 23.2832 80.2644 23.6737C80.4871 23.7629 80.5123 23.4531 80.8008 23.6714C80.8542 23.5096 80.9074 23.3486 80.9605 23.1876C80.8348 23.0932 80.4554 23.1266 80.5049 22.9453C80.5858 22.842 80.5468 22.498 80.7177 22.5683C80.7982 22.5949 80.8795 22.6217 80.9608 22.6486C80.9252 22.7564 80.8898 22.8635 80.854 22.9721C81.0817 23.1565 81.0019 22.7315 81.2304 22.9161C81.3188 22.6931 81.0098 22.6682 81.2276 22.3787C81.0064 22.3845 80.8522 22.5234 80.5291 22.3257C80.5642 22.2195 80.5998 22.1116 80.6357 22.003C80.3446 21.7846 80.3221 22.0944 80.0975 22.0055C80.0073 22.2314 80.3189 22.2537 80.0987 22.5425C79.5701 22.4503 79.5062 22.1241 79.4511 21.7921C79.5773 21.5989 79.7472 21.486 80.0425 21.6285C80.0127 21.7765 79.8276 22.0066 80.0975 22.0055C80.1493 21.4835 80.5271 21.61 80.5784 21.0895C80.2551 20.8927 80.1009 21.0316 79.8797 21.0374C79.9329 20.8764 79.9863 20.7146 80.0395 20.5536C79.7489 20.3311 79.7261 20.6443 79.5002 20.5541C79.6633 20.3384 79.3689 20.3504 79.2305 20.2865C79.2667 20.1771 79.3023 20.0692 79.3379 19.9614C78.6846 19.887 78.8249 19.4124 78.7426 19.0498C78.4031 19.1751 78.0583 19.2927 77.5064 18.9978C77.5212 19.2393 77.6941 19.4637 77.237 19.2677C77.1446 19.5215 77.6688 19.8107 77.2654 19.9957C77.1414 19.699 76.9543 19.4336 76.6183 19.2437C76.5153 19.351 76.3222 19.2794 76.2684 19.487C76.3648 19.5284 76.4526 19.5748 76.3767 19.7022C76.6058 19.8879 76.526 19.4603 76.753 19.647C76.5672 19.9419 76.3832 20.247 76.1917 20.5357C76.1104 20.5088 76.0307 20.4825 75.9487 20.4554C76.1899 19.9768 75.814 19.708 76.2684 19.487C76.1074 19.4339 75.9456 19.3805 75.7846 19.3273C75.4552 19.7421 75.8572 20.1392 75.5446 20.322C75.4304 20.2453 75.5605 20.0455 75.275 20.0544C75.1225 20.154 74.9061 20.1242 74.8721 20.4579C75.2282 20.6292 75.5023 20.6391 75.734 20.5648C75.4078 20.7206 75.3179 21.3445 75.1454 21.8041C74.9903 21.733 74.6997 22.0565 74.6342 21.7246C74.6828 21.6011 74.8604 21.7299 74.876 21.5357C74.6061 21.5368 74.7915 21.3085 74.8205 21.1603C74.3675 21.3956 74.4038 20.8 73.9051 20.6778C74.1293 20.9226 74.0885 21.3035 74.1212 21.6454C73.5994 21.5485 73.9071 21.0338 73.2597 21.0021C73.2304 21.301 73.0869 21.3732 72.8301 21.2191C72.6625 21.5113 72.7188 22.2467 72.2394 21.9212C72.1308 22.3343 72.7818 22.3655 72.6726 22.7801C72.2495 22.6309 72.2491 22.9263 72.0263 22.5667C71.9551 22.7824 71.8841 22.9974 71.8129 23.2131C72.196 23.2893 72.401 23.4558 72.3524 23.7501C71.7326 23.2802 71.3952 24.0737 70.9797 23.5655C71.0456 23.2059 71.2274 23.0778 71.4901 23.1065C71.2953 22.7094 71.6772 22.8337 71.7567 22.2991C71.4286 22.3581 71.4997 22.3816 71.2705 22.1386C71.3084 22.6565 70.8537 22.1986 70.7877 22.5166C70.6875 22.7912 71.0528 22.8321 70.9508 23.107C70.8437 23.0716 70.7359 23.036 70.628 23.0004C70.6634 22.8933 70.6987 22.7863 70.7346 22.6776C70.5102 22.588 70.4861 22.8998 70.1966 22.6794C70.0266 23.0341 70.0165 23.309 70.0915 23.541C69.6402 23.2698 69.4449 23.5043 69.0692 23.382C68.8885 23.9663 68.5073 24.6535 68.9118 24.9431C68.75 24.8896 68.589 24.8365 68.4272 24.7831C68.5812 24.5479 68.4573 24.4532 68.3991 24.3248C68.4485 24.2016 68.6253 24.3301 68.6404 24.1375C68.2726 24.0516 68.5944 23.6205 68.3158 23.4929C68.2073 23.9685 68.0885 24.029 67.8867 23.7084C67.7427 24.1367 67.6398 24.6479 67.3505 24.7864C67.5785 24.9726 67.4984 24.5457 67.7264 24.732C67.6498 25.0716 67.4114 25.0874 67.2702 25.2973C66.9299 25.2673 67.1604 24.9499 66.7583 24.9497C66.6695 25.3078 66.454 25.4144 66.1147 25.2738C65.9728 25.6143 66.0814 25.8288 66.438 25.9196C66.4719 25.5833 66.6891 25.6133 66.8408 25.5135C67.0453 25.6581 67.2908 25.7808 67.2993 26.0255C66.9464 25.8578 66.6838 25.8708 66.5464 26.1348C66.5561 26.5255 66.6438 27.1603 67.1956 26.8857C67.1187 27.2261 66.8806 27.2411 66.7391 27.4518C66.6594 27.4255 66.5765 27.3981 66.4968 27.3718C66.55 27.2108 66.6036 27.0482 66.6568 26.8872C66.4314 26.7981 66.4081 27.1076 66.1183 26.888C66.2746 26.4958 66.0372 26.3013 65.8477 26.0827C65.3084 25.9939 65 26.3636 64.3942 26.1402C64.1485 26.5323 64.5912 26.5805 64.5051 26.8936C64.1158 26.7417 64.0959 26.4317 63.6962 26.6265C63.8503 26.3697 63.7783 26.2255 63.4792 26.1969C63.5213 26.5575 63.7634 26.8169 63.6704 27.2455C63.368 27.4473 62.8983 27.3183 62.7035 27.7324C62.623 27.7058 62.5417 27.679 62.4604 27.6522C62.5136 27.4912 62.567 27.3294 62.6204 27.1676C62.2799 26.9364 62.2623 27.3466 61.9207 27.116C61.9114 27.8081 61.3455 27.3958 61.0617 27.5492C60.9192 27.7786 61.3066 27.7392 61.0893 28.0064C60.7446 28.0789 60.5706 28.4904 60.0943 28.3054C59.8979 28.8057 59.6612 29.2259 59.1287 29.0614C59.1643 28.9535 59.1997 28.8465 59.2351 28.7394C58.9384 28.5955 58.7701 28.709 58.6426 28.9009C58.835 29.1187 59.2167 29.2413 58.9153 29.7078C59.081 29.9384 59.4585 30.063 59.4012 30.4047C59.2394 30.3513 59.0784 30.2981 58.9158 30.2444C59.0699 29.9876 58.9985 29.8444 58.6996 29.8151C58.5729 30.0991 58.5846 30.6595 58.1621 30.3562C58.0803 30.6906 58.2513 31.2515 57.871 31.5134C57.702 31.3059 57.734 30.9992 57.6791 30.7349C57.4521 30.5482 57.5311 30.9756 57.3034 30.7886C57.3387 30.6815 57.3743 30.5736 57.4097 30.4666C57.5175 30.5022 57.6246 30.5375 57.7325 30.5731C57.8406 30.1616 57.9663 29.7862 58.3226 29.87C58.4123 29.6457 58.1028 29.6223 58.3232 29.3328C58.1059 29.2611 57.891 29.1901 57.676 29.1191C57.4896 29.5551 56.8464 29.0801 56.7615 29.7126C57.0526 29.9335 57.076 29.624 57.3003 29.711C57.2433 30.0883 57.0631 30.2221 56.8438 30.2797C56.4998 30.2953 56.7621 30.0049 56.4942 29.984C56.4082 30.5727 55.8256 30.1715 55.6615 30.6053C55.5222 30.4735 55.5985 30.2317 55.3643 30.1483C54.9833 30.0607 54.9103 30.5861 54.5856 30.6089C54.461 30.5582 54.5896 30.3814 54.3962 30.3661C54.1082 30.5033 53.926 31.0551 54.0757 31.3368C53.8191 31.1819 53.6756 31.2541 53.6468 31.5514C53.7723 31.6466 54.1519 31.6125 54.1043 31.7935C53.7436 32.3505 53.3919 32.6989 53.3554 33.2477C53.326 32.9485 53.0056 32.795 52.7599 32.6047C52.9569 32.5935 53.0458 32.3689 53.1101 32.0928C52.4221 31.9766 51.932 32.2507 51.0621 31.7746C51.0638 32.1764 50.7456 31.9457 50.7148 32.2883C50.7918 32.5408 50.9104 32.7724 50.7984 33.122C50.9246 33.2148 51.3037 33.1796 51.2566 33.3617C50.931 33.2507 50.8412 33.6094 50.6647 33.7947C50.466 33.2887 50.3993 32.7163 49.9887 32.3164C49.5759 32.2069 49.4096 32.7865 49.5598 33.0719C49.1491 33.0533 49.3774 32.7135 48.9666 32.6975C48.9135 32.8585 48.8603 33.0195 48.8069 33.1813C48.4661 32.9508 48.4482 33.3593 48.1074 33.1288C48.1724 33.302 48.2057 33.8391 47.9208 33.9643C47.5216 33.8949 47.4951 33.6392 47.275 33.4815C47.3971 33.4135 47.5538 33.4115 47.5686 33.1304C47.2129 33.0476 47.0864 33.4201 46.9793 33.8312C46.7183 33.8473 46.502 33.9561 46.3334 34.157C46.603 34.2461 46.8719 34.3348 47.1415 34.4239C47.1964 34.3076 47.2117 34.1142 47.3294 34.1279C47.4211 34.1703 47.5638 34.1871 47.5446 34.2874C47.211 34.3237 47.3186 34.6358 47.3578 34.8532C46.9942 34.8571 47.1608 34.594 46.9279 34.5328C46.8338 34.6577 46.869 35.0394 46.6869 34.9897C46.422 34.9204 46.3819 34.7399 46.3886 34.5332C46.164 34.4444 46.1404 34.7547 45.8509 34.5343C45.7875 34.8574 45.598 34.9249 45.3663 34.9125C45.1816 35.141 45.6095 35.0604 45.4223 35.289C44.9988 34.9411 45.0858 35.6017 44.8579 35.6409C44.7665 35.5977 44.6248 35.5778 44.6433 35.4799C45.1527 35.2312 44.7102 34.6682 45.2037 34.3206C44.8457 34.5465 44.4037 34.6042 44.0483 34.8353C43.9816 34.7119 43.979 34.5568 43.6976 34.5401C43.4629 34.8154 44.0382 34.6846 43.9409 34.89C43.4851 35.1443 43.2277 35.79 42.6513 35.8086C42.6321 35.6618 42.4367 35.6025 42.5156 35.4058C42.1634 35.3961 42.0346 35.7731 41.8158 35.3541C41.7558 35.5883 41.4909 35.422 41.495 35.7848C41.9033 36.0158 42.1281 35.8811 42.4368 35.9172C42.4493 36.0947 42.856 36.4196 42.5996 36.5083C42.4587 36.376 42.5377 36.1368 42.3024 36.0513C42.316 36.3462 42.022 36.0264 42.0353 36.322C42.0407 36.5422 42.1788 36.6987 41.9822 37.0213C41.7664 36.95 41.5515 36.8791 41.3358 36.8079C41.3717 36.6992 41.407 36.5921 41.4426 36.4843C41.1622 36.6197 40.78 36.4935 40.6353 36.2177C40.6135 36.8008 40.2355 36.6751 39.8279 36.4894C39.7116 37.0647 38.817 37.1411 38.7256 36.5727C38.8566 36.4331 39.0984 36.512 39.1815 36.276C38.6629 36.1351 38.1841 36.0758 37.999 36.6024C38.2233 36.692 38.2472 36.3809 38.5375 36.6016C38.4668 36.8158 38.3953 37.0322 38.3246 37.2464C38.162 37.1927 38.001 37.1396 37.8392 37.0861C37.8743 36.9799 37.91 36.872 37.9456 36.7641C37.6318 36.6302 37.4277 36.718 37.326 37.0077C37.4383 37.3343 37.7134 37.5776 37.7339 37.9485C37.0316 37.8076 36.9213 37.3699 36.3873 37.1441C36.3158 37.3606 36.2446 37.5764 36.1737 37.7913C35.832 37.5606 35.8145 37.9709 35.4728 37.7402C35.5284 38.0706 35.7033 38.3415 35.6908 38.7075C35.5298 38.6544 35.3681 38.601 35.2063 38.5475C35.0047 38.9508 34.8279 39.4021 34.5096 39.5708C34.7792 39.1216 34.547 38.9245 34.6685 38.5485C34.3931 38.4481 34.3518 38.8123 34.0756 38.7116C34.1719 38.6221 34.6596 38.2292 34.2887 38.066C34.1466 38.5227 33.8138 39.0083 33.5926 38.5521C33.5391 38.7139 33.4852 38.8773 33.4323 39.0375C33.7551 39.2333 33.9109 39.0949 34.1308 39.0904C34.0557 39.5198 33.7158 39.4232 33.5138 39.6018C33.3903 39.5532 33.5186 39.3746 33.3255 39.361C33.0497 39.5058 32.9235 39.8879 33.0586 40.1692C32.9508 40.1336 32.8422 40.0977 32.7351 40.0624C32.7707 39.9545 32.8066 39.8459 32.8419 39.7388C32.5458 39.5959 32.378 39.7078 32.2497 39.9021C32.3657 39.9551 32.557 39.9715 32.5459 40.0892C32.4772 40.3525 32.2951 40.3947 32.09 40.3859C32.1434 40.2241 32.1966 40.0631 32.2497 39.9021C32.0209 39.7156 32.101 40.1425 31.8738 39.9565C31.8699 39.5929 32.1332 39.7588 32.1948 39.5251C32.0175 39.4111 31.5751 39.4332 31.5745 39.2302C31.7071 38.9125 31.9785 38.873 32.2477 38.824C32.1044 39.1217 32.2154 39.2892 32.4102 39.416C32.4348 39.0895 32.2039 38.8911 32.3535 38.5036C31.9378 38.3897 31.9471 39.1226 31.3848 38.7203C31.1441 39.1973 31.52 39.4687 31.0649 39.6894Z" fill="white"/>
</g>
<defs>
<clipPath id="clip0">
<rect width="61.73" height="77.3682" fill="white" transform="translate(58.6174 92.8213) rotate(-161.728)"/>
</clipPath>
</defs>
</svg>
