<?xml version="1.0" encoding="utf-8"?>
<svg width="216px" height="281px" viewBox="0 0 216 281" version="1.1" xmlns:xlink="http://www.w3.org/1999/xlink" xmlns="http://www.w3.org/2000/svg">
  <g id="Shape" transform="matrix(-4.371139E-08 -1 1 -4.371139E-08 -155 280.5)">
    <path d="M0.888889 1.77778C1.37981 1.77778 1.77778 1.37981 1.77778 0.888889C1.77778 0.397969 1.37981 0 0.888889 0C0.397969 0 0 0.397969 0 0.888889C0 1.37981 0.397969 1.77778 0.888889 1.77778Z" transform="matrix(-1 2.3849761E-08 -2.3849761E-08 -1 275.55554 215.33333)" id="Oval" fill="#9A9A9A" stroke="none" />
    <path d="M0.888889 1.77778C1.37981 1.77778 1.77778 1.37981 1.77778 0.888889C1.77778 0.397969 1.37981 0 0.888889 0C0.397969 0 0 0.397969 0 0.888889C0 1.37981 0.397969 1.77778 0.888889 1.77778Z" transform="matrix(-1 2.3849761E-08 -2.3849761E-08 -1 256 215.33333)" id="Oval" fill="#9A9A9A" stroke="none" />
    <path d="M0.888889 1.77778C1.37981 1.77778 1.77778 1.37981 1.77778 0.888889C1.77778 0.397969 1.37981 0 0.888889 0C0.397969 0 0 0.397969 0 0.888889C0 1.37981 0.397969 1.77778 0.888889 1.77778Z" transform="matrix(-1 2.3849761E-08 -2.3849761E-08 -1 236.44444 215.33333)" id="Oval" fill="#9A9A9A" stroke="none" />
    <path d="M0.888889 1.77778C1.37981 1.77778 1.77778 1.37981 1.77778 0.888889C1.77778 0.397969 1.37981 0 0.888889 0C0.397969 0 0 0.397969 0 0.888889C0 1.37981 0.397969 1.77778 0.888889 1.77778Z" transform="matrix(-1 2.3849761E-08 -2.3849761E-08 -1 216.88889 215.33333)" id="Oval" fill="#9A9A9A" stroke="none" />
    <path d="M0.888889 1.77778C1.37981 1.77778 1.77778 1.37981 1.77778 0.888889C1.77778 0.397969 1.37981 0 0.888889 0C0.397969 0 0 0.397969 0 0.888889C0 1.37981 0.397969 1.77778 0.888889 1.77778Z" transform="matrix(-1 2.3849761E-08 -2.3849761E-08 -1 197.33333 215.33333)" id="Oval" fill="#9A9A9A" stroke="none" />
    <path d="M0.888889 1.77778C1.37981 1.77778 1.77778 1.37981 1.77778 0.888889C1.77778 0.397969 1.37981 0 0.888889 0C0.397969 0 0 0.397969 0 0.888889C0 1.37981 0.397969 1.77778 0.888889 1.77778Z" transform="matrix(-1 2.3849761E-08 -2.3849761E-08 -1 177.77777 215.33333)" id="Oval" fill="#9A9A9A" stroke="none" />
    <path d="M0.888889 1.77778C1.37981 1.77778 1.77778 1.37981 1.77778 0.888889C1.77778 0.397969 1.37981 0 0.888889 0C0.397969 0 0 0.397969 0 0.888889C0 1.37981 0.397969 1.77778 0.888889 1.77778Z" transform="matrix(-1 2.3849761E-08 -2.3849761E-08 -1 158.22221 215.33333)" id="Oval" fill="#9A9A9A" stroke="none" />
    <path d="M0.888889 1.77778C1.37981 1.77778 1.77778 1.37981 1.77778 0.888889C1.77778 0.397969 1.37981 0 0.888889 0C0.397969 0 0 0.397969 0 0.888889C0 1.37981 0.397969 1.77778 0.888889 1.77778Z" transform="matrix(-1 2.3849761E-08 -2.3849761E-08 -1 138.66666 215.33333)" id="Oval" fill="#9A9A9A" stroke="none" />
    <path d="M0.888889 1.77778C1.37981 1.77778 1.77778 1.37981 1.77778 0.888889C1.77778 0.397969 1.37981 0 0.888889 0C0.397969 0 0 0.397969 0 0.888889C0 1.37981 0.397969 1.77778 0.888889 1.77778Z" transform="matrix(-1 2.3849761E-08 -2.3849761E-08 -1 119.111115 215.33333)" id="Oval" fill="#9A9A9A" stroke="none" />
    <path d="M0.888889 1.77778C1.37981 1.77778 1.77778 1.37981 1.77778 0.888889C1.77778 0.397969 1.37981 0 0.888889 0C0.397969 0 0 0.397969 0 0.888889C0 1.37981 0.397969 1.77778 0.888889 1.77778Z" transform="matrix(-1 2.3849761E-08 -2.3849761E-08 -1 99.55556 215.33333)" id="Oval" fill="#9A9A9A" stroke="none" />
    <path d="M0.888889 1.77778C1.37981 1.77778 1.77778 1.37981 1.77778 0.888889C1.77778 0.397969 1.37981 0 0.888889 0C0.397969 0 0 0.397969 0 0.888889C0 1.37981 0.397969 1.77778 0.888889 1.77778Z" transform="matrix(-1 2.3849761E-08 -2.3849761E-08 -1 80 215.33333)" id="Oval" fill="#9A9A9A" stroke="none" />
    <path d="M0.888889 1.77778C1.37981 1.77778 1.77778 1.37981 1.77778 0.888889C1.77778 0.397969 1.37981 0 0.888889 0C0.397969 0 0 0.397969 0 0.888889C0 1.37981 0.397969 1.77778 0.888889 1.77778Z" transform="matrix(-1 2.3849761E-08 -2.3849761E-08 -1 60.444447 215.33333)" id="Oval" fill="#9A9A9A" stroke="none" />
    <path d="M0.888889 1.77778C1.37981 1.77778 1.77778 1.37981 1.77778 0.888889C1.77778 0.397969 1.37981 0 0.888889 0C0.397969 0 0 0.397969 0 0.888889C0 1.37981 0.397969 1.77778 0.888889 1.77778Z" transform="matrix(-1 2.3849761E-08 -2.3849761E-08 -1 40.88889 215.33333)" id="Oval" fill="#9A9A9A" stroke="none" />
    <path d="M0.888889 1.77778C1.37981 1.77778 1.77778 1.37981 1.77778 0.888889C1.77778 0.397969 1.37981 0 0.888889 0C0.397969 0 0 0.397969 0 0.888889C0 1.37981 0.397969 1.77778 0.888889 1.77778Z" transform="matrix(-1 2.3849761E-08 -2.3849761E-08 -1 21.333334 215.33333)" id="Oval" fill="#9A9A9A" stroke="none" />
    <path d="M0.888889 1.77778C1.37981 1.77778 1.77778 1.37981 1.77778 0.888889C1.77778 0.397969 1.37981 0 0.888889 0C0.397969 0 0 0.397969 0 0.888889C0 1.37981 0.397969 1.77778 0.888889 1.77778Z" transform="matrix(-1 2.3849761E-08 -2.3849761E-08 -1 1.7777778 215.33333)" id="Oval" fill="#9A9A9A" stroke="none" />
    <path d="M0.888889 1.77778C1.37981 1.77778 1.77778 1.37981 1.77778 0.888889C1.77778 0.397969 1.37981 0 0.888889 0C0.397969 0 0 0.397969 0 0.888889C0 1.37981 0.397969 1.77778 0.888889 1.77778Z" transform="matrix(-1 2.3849761E-08 -2.3849761E-08 -1 275.55554 195.77777)" id="Oval" fill="#9A9A9A" stroke="none" />
    <path d="M0.888889 1.77778C1.37981 1.77778 1.77778 1.37981 1.77778 0.888889C1.77778 0.397969 1.37981 0 0.888889 0C0.397969 0 0 0.397969 0 0.888889C0 1.37981 0.397969 1.77778 0.888889 1.77778Z" transform="matrix(-1 2.3849761E-08 -2.3849761E-08 -1 256 195.77777)" id="Oval" fill="#9A9A9A" stroke="none" />
    <path d="M0.888889 1.77778C1.37981 1.77778 1.77778 1.37981 1.77778 0.888889C1.77778 0.397969 1.37981 0 0.888889 0C0.397969 0 0 0.397969 0 0.888889C0 1.37981 0.397969 1.77778 0.888889 1.77778Z" transform="matrix(-1 2.3849761E-08 -2.3849761E-08 -1 236.44444 195.77777)" id="Oval" fill="#9A9A9A" stroke="none" />
    <path d="M0.888889 1.77778C1.37981 1.77778 1.77778 1.37981 1.77778 0.888889C1.77778 0.397969 1.37981 0 0.888889 0C0.397969 0 0 0.397969 0 0.888889C0 1.37981 0.397969 1.77778 0.888889 1.77778Z" transform="matrix(-1 2.3849761E-08 -2.3849761E-08 -1 216.88889 195.77777)" id="Oval" fill="#9A9A9A" stroke="none" />
    <path d="M0.888889 1.77778C1.37981 1.77778 1.77778 1.37981 1.77778 0.888889C1.77778 0.397969 1.37981 0 0.888889 0C0.397969 0 0 0.397969 0 0.888889C0 1.37981 0.397969 1.77778 0.888889 1.77778Z" transform="matrix(-1 2.3849761E-08 -2.3849761E-08 -1 197.33333 195.77777)" id="Oval" fill="#9A9A9A" stroke="none" />
    <path d="M0.888889 1.77778C1.37981 1.77778 1.77778 1.37981 1.77778 0.888889C1.77778 0.397969 1.37981 0 0.888889 0C0.397969 0 0 0.397969 0 0.888889C0 1.37981 0.397969 1.77778 0.888889 1.77778Z" transform="matrix(-1 2.3849761E-08 -2.3849761E-08 -1 177.77777 195.77777)" id="Oval" fill="#9A9A9A" stroke="none" />
    <path d="M0.888889 1.77778C1.37981 1.77778 1.77778 1.37981 1.77778 0.888889C1.77778 0.397969 1.37981 0 0.888889 0C0.397969 0 0 0.397969 0 0.888889C0 1.37981 0.397969 1.77778 0.888889 1.77778Z" transform="matrix(-1 2.3849761E-08 -2.3849761E-08 -1 158.22221 195.77777)" id="Oval" fill="#9A9A9A" stroke="none" />
    <path d="M0.888889 1.77778C1.37981 1.77778 1.77778 1.37981 1.77778 0.888889C1.77778 0.397969 1.37981 0 0.888889 0C0.397969 0 0 0.397969 0 0.888889C0 1.37981 0.397969 1.77778 0.888889 1.77778Z" transform="matrix(-1 2.3849761E-08 -2.3849761E-08 -1 138.66666 195.77777)" id="Oval" fill="#9A9A9A" stroke="none" />
    <path d="M0.888889 1.77778C1.37981 1.77778 1.77778 1.37981 1.77778 0.888889C1.77778 0.397969 1.37981 0 0.888889 0C0.397969 0 0 0.397969 0 0.888889C0 1.37981 0.397969 1.77778 0.888889 1.77778Z" transform="matrix(-1 2.3849761E-08 -2.3849761E-08 -1 119.111115 195.77777)" id="Oval" fill="#9A9A9A" stroke="none" />
    <path d="M0.888889 1.77778C1.37981 1.77778 1.77778 1.37981 1.77778 0.888889C1.77778 0.397969 1.37981 0 0.888889 0C0.397969 0 0 0.397969 0 0.888889C0 1.37981 0.397969 1.77778 0.888889 1.77778Z" transform="matrix(-1 2.3849761E-08 -2.3849761E-08 -1 99.55556 195.77777)" id="Oval" fill="#9A9A9A" stroke="none" />
    <path d="M0.888889 1.77778C1.37981 1.77778 1.77778 1.37981 1.77778 0.888889C1.77778 0.397969 1.37981 0 0.888889 0C0.397969 0 0 0.397969 0 0.888889C0 1.37981 0.397969 1.77778 0.888889 1.77778Z" transform="matrix(-1 2.3849761E-08 -2.3849761E-08 -1 80 195.77777)" id="Oval" fill="#9A9A9A" stroke="none" />
    <path d="M0.888889 1.77778C1.37981 1.77778 1.77778 1.37981 1.77778 0.888889C1.77778 0.397969 1.37981 0 0.888889 0C0.397969 0 0 0.397969 0 0.888889C0 1.37981 0.397969 1.77778 0.888889 1.77778Z" transform="matrix(-1 2.3849761E-08 -2.3849761E-08 -1 60.444447 195.77777)" id="Oval" fill="#9A9A9A" stroke="none" />
    <path d="M0.888889 1.77778C1.37981 1.77778 1.77778 1.37981 1.77778 0.888889C1.77778 0.397969 1.37981 0 0.888889 0C0.397969 0 0 0.397969 0 0.888889C0 1.37981 0.397969 1.77778 0.888889 1.77778Z" transform="matrix(-1 2.3849761E-08 -2.3849761E-08 -1 40.88889 195.77777)" id="Oval" fill="#9A9A9A" stroke="none" />
    <path d="M0.888889 1.77778C1.37981 1.77778 1.77778 1.37981 1.77778 0.888889C1.77778 0.397969 1.37981 0 0.888889 0C0.397969 0 0 0.397969 0 0.888889C0 1.37981 0.397969 1.77778 0.888889 1.77778Z" transform="matrix(-1 2.3849761E-08 -2.3849761E-08 -1 21.333334 195.77777)" id="Oval" fill="#9A9A9A" stroke="none" />
    <path d="M0.888889 1.77778C1.37981 1.77778 1.77778 1.37981 1.77778 0.888889C1.77778 0.397969 1.37981 0 0.888889 0C0.397969 0 0 0.397969 0 0.888889C0 1.37981 0.397969 1.77778 0.888889 1.77778Z" transform="matrix(-1 2.3849761E-08 -2.3849761E-08 -1 1.7777778 195.77777)" id="Oval" fill="#9A9A9A" stroke="none" />
    <path d="M0.888889 1.77778C1.37981 1.77778 1.77778 1.37981 1.77778 0.888889C1.77778 0.397969 1.37981 0 0.888889 0C0.397969 0 0 0.397969 0 0.888889C0 1.37981 0.397969 1.77778 0.888889 1.77778Z" transform="matrix(-1 2.3849761E-08 -2.3849761E-08 -1 275.55554 176.22221)" id="Oval" fill="#9A9A9A" stroke="none" />
    <path d="M0.888889 1.77778C1.37981 1.77778 1.77778 1.37981 1.77778 0.888889C1.77778 0.397969 1.37981 0 0.888889 0C0.397969 0 0 0.397969 0 0.888889C0 1.37981 0.397969 1.77778 0.888889 1.77778Z" transform="matrix(-1 2.3849761E-08 -2.3849761E-08 -1 256 176.22221)" id="Oval" fill="#9A9A9A" stroke="none" />
    <path d="M0.888889 1.77778C1.37981 1.77778 1.77778 1.37981 1.77778 0.888889C1.77778 0.397969 1.37981 0 0.888889 0C0.397969 0 0 0.397969 0 0.888889C0 1.37981 0.397969 1.77778 0.888889 1.77778Z" transform="matrix(-1 2.3849761E-08 -2.3849761E-08 -1 236.44444 176.22221)" id="Oval" fill="#9A9A9A" stroke="none" />
    <path d="M0.888889 1.77778C1.37981 1.77778 1.77778 1.37981 1.77778 0.888889C1.77778 0.397969 1.37981 0 0.888889 0C0.397969 0 0 0.397969 0 0.888889C0 1.37981 0.397969 1.77778 0.888889 1.77778Z" transform="matrix(-1 2.3849761E-08 -2.3849761E-08 -1 216.88889 176.22221)" id="Oval" fill="#9A9A9A" stroke="none" />
    <path d="M0.888889 1.77778C1.37981 1.77778 1.77778 1.37981 1.77778 0.888889C1.77778 0.397969 1.37981 0 0.888889 0C0.397969 0 0 0.397969 0 0.888889C0 1.37981 0.397969 1.77778 0.888889 1.77778Z" transform="matrix(-1 2.3849761E-08 -2.3849761E-08 -1 197.33333 176.22221)" id="Oval" fill="#9A9A9A" stroke="none" />
    <path d="M0.888889 1.77778C1.37981 1.77778 1.77778 1.37981 1.77778 0.888889C1.77778 0.397969 1.37981 0 0.888889 0C0.397969 0 0 0.397969 0 0.888889C0 1.37981 0.397969 1.77778 0.888889 1.77778Z" transform="matrix(-1 2.3849761E-08 -2.3849761E-08 -1 177.77777 176.22221)" id="Oval" fill="#9A9A9A" stroke="none" />
    <path d="M0.888889 1.77778C1.37981 1.77778 1.77778 1.37981 1.77778 0.888889C1.77778 0.397969 1.37981 0 0.888889 0C0.397969 0 0 0.397969 0 0.888889C0 1.37981 0.397969 1.77778 0.888889 1.77778Z" transform="matrix(-1 2.3849761E-08 -2.3849761E-08 -1 158.22221 176.22221)" id="Oval" fill="#9A9A9A" stroke="none" />
    <path d="M0.888889 1.77778C1.37981 1.77778 1.77778 1.37981 1.77778 0.888889C1.77778 0.397969 1.37981 0 0.888889 0C0.397969 0 0 0.397969 0 0.888889C0 1.37981 0.397969 1.77778 0.888889 1.77778Z" transform="matrix(-1 2.3849761E-08 -2.3849761E-08 -1 138.66666 176.22221)" id="Oval" fill="#9A9A9A" stroke="none" />
    <path d="M0.888889 1.77778C1.37981 1.77778 1.77778 1.37981 1.77778 0.888889C1.77778 0.397969 1.37981 0 0.888889 0C0.397969 0 0 0.397969 0 0.888889C0 1.37981 0.397969 1.77778 0.888889 1.77778Z" transform="matrix(-1 2.3849761E-08 -2.3849761E-08 -1 119.111115 176.22221)" id="Oval" fill="#9A9A9A" stroke="none" />
    <path d="M0.888889 1.77778C1.37981 1.77778 1.77778 1.37981 1.77778 0.888889C1.77778 0.397969 1.37981 0 0.888889 0C0.397969 0 0 0.397969 0 0.888889C0 1.37981 0.397969 1.77778 0.888889 1.77778Z" transform="matrix(-1 2.3849761E-08 -2.3849761E-08 -1 99.55556 176.22221)" id="Oval" fill="#9A9A9A" stroke="none" />
    <path d="M0.888889 1.77778C1.37981 1.77778 1.77778 1.37981 1.77778 0.888889C1.77778 0.397969 1.37981 0 0.888889 0C0.397969 0 0 0.397969 0 0.888889C0 1.37981 0.397969 1.77778 0.888889 1.77778Z" transform="matrix(-1 2.3849761E-08 -2.3849761E-08 -1 80 176.22221)" id="Oval" fill="#9A9A9A" stroke="none" />
    <path d="M0.888889 1.77778C1.37981 1.77778 1.77778 1.37981 1.77778 0.888889C1.77778 0.397969 1.37981 0 0.888889 0C0.397969 0 0 0.397969 0 0.888889C0 1.37981 0.397969 1.77778 0.888889 1.77778Z" transform="matrix(-1 2.3849761E-08 -2.3849761E-08 -1 60.444447 176.22221)" id="Oval" fill="#9A9A9A" stroke="none" />
    <path d="M0.888889 1.77778C1.37981 1.77778 1.77778 1.37981 1.77778 0.888889C1.77778 0.397969 1.37981 0 0.888889 0C0.397969 0 0 0.397969 0 0.888889C0 1.37981 0.397969 1.77778 0.888889 1.77778Z" transform="matrix(-1 2.3849761E-08 -2.3849761E-08 -1 40.88889 176.22221)" id="Oval" fill="#9A9A9A" stroke="none" />
    <path d="M0.888889 1.77778C1.37981 1.77778 1.77778 1.37981 1.77778 0.888889C1.77778 0.397969 1.37981 0 0.888889 0C0.397969 0 0 0.397969 0 0.888889C0 1.37981 0.397969 1.77778 0.888889 1.77778Z" transform="matrix(-1 2.3849761E-08 -2.3849761E-08 -1 21.333334 176.22221)" id="Oval" fill="#9A9A9A" stroke="none" />
    <path d="M0.888889 1.77778C1.37981 1.77778 1.77778 1.37981 1.77778 0.888889C1.77778 0.397969 1.37981 0 0.888889 0C0.397969 0 0 0.397969 0 0.888889C0 1.37981 0.397969 1.77778 0.888889 1.77778Z" transform="matrix(-1 2.3849761E-08 -2.3849761E-08 -1 1.7777778 176.22221)" id="Oval" fill="#9A9A9A" stroke="none" />
    <path d="M0.888889 1.77778C1.37981 1.77778 1.77778 1.37981 1.77778 0.888889C1.77778 0.397969 1.37981 0 0.888889 0C0.397969 0 0 0.397969 0 0.888889C0 1.37981 0.397969 1.77778 0.888889 1.77778Z" transform="matrix(-1 2.3849761E-08 -2.3849761E-08 -1 275.55554 156.66666)" id="Oval" fill="#9A9A9A" stroke="none" />
    <path d="M0.888889 1.77778C1.37981 1.77778 1.77778 1.37981 1.77778 0.888889C1.77778 0.397969 1.37981 0 0.888889 0C0.397969 0 0 0.397969 0 0.888889C0 1.37981 0.397969 1.77778 0.888889 1.77778Z" transform="matrix(-1 2.3849761E-08 -2.3849761E-08 -1 256 156.66666)" id="Oval" fill="#9A9A9A" stroke="none" />
    <path d="M0.888889 1.77778C1.37981 1.77778 1.77778 1.37981 1.77778 0.888889C1.77778 0.397969 1.37981 0 0.888889 0C0.397969 0 0 0.397969 0 0.888889C0 1.37981 0.397969 1.77778 0.888889 1.77778Z" transform="matrix(-1 2.3849761E-08 -2.3849761E-08 -1 236.44444 156.66666)" id="Oval" fill="#9A9A9A" stroke="none" />
    <path d="M0.888889 1.77778C1.37981 1.77778 1.77778 1.37981 1.77778 0.888889C1.77778 0.397969 1.37981 0 0.888889 0C0.397969 0 0 0.397969 0 0.888889C0 1.37981 0.397969 1.77778 0.888889 1.77778Z" transform="matrix(-1 2.3849761E-08 -2.3849761E-08 -1 216.88889 156.66666)" id="Oval" fill="#9A9A9A" stroke="none" />
    <path d="M0.888889 1.77778C1.37981 1.77778 1.77778 1.37981 1.77778 0.888889C1.77778 0.397969 1.37981 0 0.888889 0C0.397969 0 0 0.397969 0 0.888889C0 1.37981 0.397969 1.77778 0.888889 1.77778Z" transform="matrix(-1 2.3849761E-08 -2.3849761E-08 -1 197.33333 156.66666)" id="Oval" fill="#9A9A9A" stroke="none" />
    <path d="M0.888889 1.77778C1.37981 1.77778 1.77778 1.37981 1.77778 0.888889C1.77778 0.397969 1.37981 0 0.888889 0C0.397969 0 0 0.397969 0 0.888889C0 1.37981 0.397969 1.77778 0.888889 1.77778Z" transform="matrix(-1 2.3849761E-08 -2.3849761E-08 -1 177.77777 156.66666)" id="Oval" fill="#9A9A9A" stroke="none" />
    <path d="M0.888889 1.77778C1.37981 1.77778 1.77778 1.37981 1.77778 0.888889C1.77778 0.397969 1.37981 0 0.888889 0C0.397969 0 0 0.397969 0 0.888889C0 1.37981 0.397969 1.77778 0.888889 1.77778Z" transform="matrix(-1 2.3849761E-08 -2.3849761E-08 -1 158.22221 156.66666)" id="Oval" fill="#9A9A9A" stroke="none" />
    <path d="M0.888889 1.77778C1.37981 1.77778 1.77778 1.37981 1.77778 0.888889C1.77778 0.397969 1.37981 0 0.888889 0C0.397969 0 0 0.397969 0 0.888889C0 1.37981 0.397969 1.77778 0.888889 1.77778Z" transform="matrix(-1 2.3849761E-08 -2.3849761E-08 -1 138.66666 156.66666)" id="Oval" fill="#9A9A9A" stroke="none" />
    <path d="M0.888889 1.77778C1.37981 1.77778 1.77778 1.37981 1.77778 0.888889C1.77778 0.397969 1.37981 0 0.888889 0C0.397969 0 0 0.397969 0 0.888889C0 1.37981 0.397969 1.77778 0.888889 1.77778Z" transform="matrix(-1 2.3849761E-08 -2.3849761E-08 -1 119.111115 156.66666)" id="Oval" fill="#9A9A9A" stroke="none" />
    <path d="M0.888889 1.77778C1.37981 1.77778 1.77778 1.37981 1.77778 0.888889C1.77778 0.397969 1.37981 0 0.888889 0C0.397969 0 0 0.397969 0 0.888889C0 1.37981 0.397969 1.77778 0.888889 1.77778Z" transform="matrix(-1 2.3849761E-08 -2.3849761E-08 -1 99.55556 156.66666)" id="Oval" fill="#9A9A9A" stroke="none" />
    <path d="M0.888889 1.77778C1.37981 1.77778 1.77778 1.37981 1.77778 0.888889C1.77778 0.397969 1.37981 0 0.888889 0C0.397969 0 0 0.397969 0 0.888889C0 1.37981 0.397969 1.77778 0.888889 1.77778Z" transform="matrix(-1 2.3849761E-08 -2.3849761E-08 -1 80 156.66666)" id="Oval" fill="#9A9A9A" stroke="none" />
    <path d="M0.888889 1.77778C1.37981 1.77778 1.77778 1.37981 1.77778 0.888889C1.77778 0.397969 1.37981 0 0.888889 0C0.397969 0 0 0.397969 0 0.888889C0 1.37981 0.397969 1.77778 0.888889 1.77778Z" transform="matrix(-1 2.3849761E-08 -2.3849761E-08 -1 60.444447 156.66666)" id="Oval" fill="#9A9A9A" stroke="none" />
    <path d="M0.888889 1.77778C1.37981 1.77778 1.77778 1.37981 1.77778 0.888889C1.77778 0.397969 1.37981 0 0.888889 0C0.397969 0 0 0.397969 0 0.888889C0 1.37981 0.397969 1.77778 0.888889 1.77778Z" transform="matrix(-1 2.3849761E-08 -2.3849761E-08 -1 40.88889 156.66666)" id="Oval" fill="#9A9A9A" stroke="none" />
    <path d="M0.888889 1.77778C1.37981 1.77778 1.77778 1.37981 1.77778 0.888889C1.77778 0.397969 1.37981 0 0.888889 0C0.397969 0 0 0.397969 0 0.888889C0 1.37981 0.397969 1.77778 0.888889 1.77778Z" transform="matrix(-1 2.3849761E-08 -2.3849761E-08 -1 21.333334 156.66666)" id="Oval" fill="#9A9A9A" stroke="none" />
    <path d="M0.888889 1.77778C1.37981 1.77778 1.77778 1.37981 1.77778 0.888889C1.77778 0.397969 1.37981 0 0.888889 0C0.397969 0 0 0.397969 0 0.888889C0 1.37981 0.397969 1.77778 0.888889 1.77778Z" transform="matrix(-1 2.3849761E-08 -2.3849761E-08 -1 1.7777778 156.66666)" id="Oval" fill="#9A9A9A" stroke="none" />
    <path d="M0.888889 1.77778C1.37981 1.77778 1.77778 1.37981 1.77778 0.888889C1.77778 0.397969 1.37981 0 0.888889 0C0.397969 0 0 0.397969 0 0.888889C0 1.37981 0.397969 1.77778 0.888889 1.77778Z" transform="matrix(-1 2.3849761E-08 -2.3849761E-08 -1 280 370)" id="Oval" fill="#9A9A9A" stroke="none" />
    <path d="M0.888889 1.77778C1.37981 1.77778 1.77778 1.37981 1.77778 0.888889C1.77778 0.397969 1.37981 0 0.888889 0C0.397969 0 0 0.397969 0 0.888889C0 1.37981 0.397969 1.77778 0.888889 1.77778Z" transform="matrix(-1 2.3849761E-08 -2.3849761E-08 -1 260.44443 370)" id="Oval" fill="#9A9A9A" stroke="none" />
    <path d="M0.888889 1.77778C1.37981 1.77778 1.77778 1.37981 1.77778 0.888889C1.77778 0.397969 1.37981 0 0.888889 0C0.397969 0 0 0.397969 0 0.888889C0 1.37981 0.397969 1.77778 0.888889 1.77778Z" transform="matrix(-1 2.3849761E-08 -2.3849761E-08 -1 240.88889 370)" id="Oval" fill="#9A9A9A" stroke="none" />
    <path d="M0.888889 1.77778C1.37981 1.77778 1.77778 1.37981 1.77778 0.888889C1.77778 0.397969 1.37981 0 0.888889 0C0.397969 0 0 0.397969 0 0.888889C0 1.37981 0.397969 1.77778 0.888889 1.77778Z" transform="matrix(-1 2.3849761E-08 -2.3849761E-08 -1 221.33333 370)" id="Oval" fill="#9A9A9A" stroke="none" />
    <path d="M0.888889 1.77778C1.37981 1.77778 1.77778 1.37981 1.77778 0.888889C1.77778 0.397969 1.37981 0 0.888889 0C0.397969 0 0 0.397969 0 0.888889C0 1.37981 0.397969 1.77778 0.888889 1.77778Z" transform="matrix(-1 2.3849761E-08 -2.3849761E-08 -1 201.77777 370)" id="Oval" fill="#9A9A9A" stroke="none" />
    <path d="M0.888889 1.77778C1.37981 1.77778 1.77778 1.37981 1.77778 0.888889C1.77778 0.397969 1.37981 0 0.888889 0C0.397969 0 0 0.397969 0 0.888889C0 1.37981 0.397969 1.77778 0.888889 1.77778Z" transform="matrix(-1 2.3849761E-08 -2.3849761E-08 -1 182.22221 370)" id="Oval" fill="#9A9A9A" stroke="none" />
    <path d="M0.888889 1.77778C1.37981 1.77778 1.77778 1.37981 1.77778 0.888889C1.77778 0.397969 1.37981 0 0.888889 0C0.397969 0 0 0.397969 0 0.888889C0 1.37981 0.397969 1.77778 0.888889 1.77778Z" transform="matrix(-1 2.3849761E-08 -2.3849761E-08 -1 162.66666 370)" id="Oval" fill="#9A9A9A" stroke="none" />
    <path d="M0.888889 1.77778C1.37981 1.77778 1.77778 1.37981 1.77778 0.888889C1.77778 0.397969 1.37981 0 0.888889 0C0.397969 0 0 0.397969 0 0.888889C0 1.37981 0.397969 1.77778 0.888889 1.77778Z" transform="matrix(-1 2.3849761E-08 -2.3849761E-08 -1 143.1111 370)" id="Oval" fill="#9A9A9A" stroke="none" />
    <path d="M0.888889 1.77778C1.37981 1.77778 1.77778 1.37981 1.77778 0.888889C1.77778 0.397969 1.37981 0 0.888889 0C0.397969 0 0 0.397969 0 0.888889C0 1.37981 0.397969 1.77778 0.888889 1.77778Z" transform="matrix(-1 2.3849761E-08 -2.3849761E-08 -1 123.55556 370)" id="Oval" fill="#9A9A9A" stroke="none" />
    <path d="M0.888889 1.77778C1.37981 1.77778 1.77778 1.37981 1.77778 0.888889C1.77778 0.397969 1.37981 0 0.888889 0C0.397969 0 0 0.397969 0 0.888889C0 1.37981 0.397969 1.77778 0.888889 1.77778Z" transform="matrix(-1 2.3849761E-08 -2.3849761E-08 -1 104 370)" id="Oval" fill="#9A9A9A" stroke="none" />
    <path d="M0.888889 1.77778C1.37981 1.77778 1.77778 1.37981 1.77778 0.888889C1.77778 0.397969 1.37981 0 0.888889 0C0.397969 0 0 0.397969 0 0.888889C0 1.37981 0.397969 1.77778 0.888889 1.77778Z" transform="matrix(-1 2.3849761E-08 -2.3849761E-08 -1 84.44444 370)" id="Oval" fill="#9A9A9A" stroke="none" />
    <path d="M0.888889 1.77778C1.37981 1.77778 1.77778 1.37981 1.77778 0.888889C1.77778 0.397969 1.37981 0 0.888889 0C0.397969 0 0 0.397969 0 0.888889C0 1.37981 0.397969 1.77778 0.888889 1.77778Z" transform="matrix(-1 2.3849761E-08 -2.3849761E-08 -1 64.888885 370)" id="Oval" fill="#9A9A9A" stroke="none" />
    <path d="M0.888889 1.77778C1.37981 1.77778 1.77778 1.37981 1.77778 0.888889C1.77778 0.397969 1.37981 0 0.888889 0C0.397969 0 0 0.397969 0 0.888889C0 1.37981 0.397969 1.77778 0.888889 1.77778Z" transform="matrix(-1 2.3849761E-08 -2.3849761E-08 -1 45.333336 370)" id="Oval" fill="#9A9A9A" stroke="none" />
    <path d="M0.888889 1.77778C1.37981 1.77778 1.77778 1.37981 1.77778 0.888889C1.77778 0.397969 1.37981 0 0.888889 0C0.397969 0 0 0.397969 0 0.888889C0 1.37981 0.397969 1.77778 0.888889 1.77778Z" transform="matrix(-1 2.3849761E-08 -2.3849761E-08 -1 25.777779 370)" id="Oval" fill="#9A9A9A" stroke="none" />
    <path d="M0.888889 1.77778C1.37981 1.77778 1.77778 1.37981 1.77778 0.888889C1.77778 0.397969 1.37981 0 0.888889 0C0.397969 0 0 0.397969 0 0.888889C0 1.37981 0.397969 1.77778 0.888889 1.77778Z" transform="matrix(-1 2.3849761E-08 -2.3849761E-08 -1 6.2222223 370)" id="Oval" fill="#9A9A9A" stroke="none" />
    <path d="M0.888889 1.77778C1.37981 1.77778 1.77778 1.37981 1.77778 0.888889C1.77778 0.397969 1.37981 0 0.888889 0C0.397969 0 0 0.397969 0 0.888889C0 1.37981 0.397969 1.77778 0.888889 1.77778Z" transform="matrix(-1 2.3849761E-08 -2.3849761E-08 -1 275.55554 350.44443)" id="Oval" fill="#9A9A9A" stroke="none" />
    <path d="M0.888889 1.77778C1.37981 1.77778 1.77778 1.37981 1.77778 0.888889C1.77778 0.397969 1.37981 0 0.888889 0C0.397969 0 0 0.397969 0 0.888889C0 1.37981 0.397969 1.77778 0.888889 1.77778Z" transform="matrix(-1 2.3849761E-08 -2.3849761E-08 -1 256 350.44443)" id="Oval" fill="#9A9A9A" stroke="none" />
    <path d="M0.888889 1.77778C1.37981 1.77778 1.77778 1.37981 1.77778 0.888889C1.77778 0.397969 1.37981 0 0.888889 0C0.397969 0 0 0.397969 0 0.888889C0 1.37981 0.397969 1.77778 0.888889 1.77778Z" transform="matrix(-1 2.3849761E-08 -2.3849761E-08 -1 236.44444 350.44443)" id="Oval" fill="#9A9A9A" stroke="none" />
    <path d="M0.888889 1.77778C1.37981 1.77778 1.77778 1.37981 1.77778 0.888889C1.77778 0.397969 1.37981 0 0.888889 0C0.397969 0 0 0.397969 0 0.888889C0 1.37981 0.397969 1.77778 0.888889 1.77778Z" transform="matrix(-1 2.3849761E-08 -2.3849761E-08 -1 216.88889 350.44443)" id="Oval" fill="#9A9A9A" stroke="none" />
    <path d="M0.888889 1.77778C1.37981 1.77778 1.77778 1.37981 1.77778 0.888889C1.77778 0.397969 1.37981 0 0.888889 0C0.397969 0 0 0.397969 0 0.888889C0 1.37981 0.397969 1.77778 0.888889 1.77778Z" transform="matrix(-1 2.3849761E-08 -2.3849761E-08 -1 197.33333 350.44443)" id="Oval" fill="#9A9A9A" stroke="none" />
    <path d="M0.888889 1.77778C1.37981 1.77778 1.77778 1.37981 1.77778 0.888889C1.77778 0.397969 1.37981 0 0.888889 0C0.397969 0 0 0.397969 0 0.888889C0 1.37981 0.397969 1.77778 0.888889 1.77778Z" transform="matrix(-1 2.3849761E-08 -2.3849761E-08 -1 177.77777 350.44443)" id="Oval" fill="#9A9A9A" stroke="none" />
    <path d="M0.888889 1.77778C1.37981 1.77778 1.77778 1.37981 1.77778 0.888889C1.77778 0.397969 1.37981 0 0.888889 0C0.397969 0 0 0.397969 0 0.888889C0 1.37981 0.397969 1.77778 0.888889 1.77778Z" transform="matrix(-1 2.3849761E-08 -2.3849761E-08 -1 158.22221 350.44443)" id="Oval" fill="#9A9A9A" stroke="none" />
    <path d="M0.888889 1.77778C1.37981 1.77778 1.77778 1.37981 1.77778 0.888889C1.77778 0.397969 1.37981 0 0.888889 0C0.397969 0 0 0.397969 0 0.888889C0 1.37981 0.397969 1.77778 0.888889 1.77778Z" transform="matrix(-1 2.3849761E-08 -2.3849761E-08 -1 138.66666 350.44443)" id="Oval" fill="#9A9A9A" stroke="none" />
    <path d="M0.888889 1.77778C1.37981 1.77778 1.77778 1.37981 1.77778 0.888889C1.77778 0.397969 1.37981 0 0.888889 0C0.397969 0 0 0.397969 0 0.888889C0 1.37981 0.397969 1.77778 0.888889 1.77778Z" transform="matrix(-1 2.3849761E-08 -2.3849761E-08 -1 119.111115 350.44443)" id="Oval" fill="#9A9A9A" stroke="none" />
    <path d="M0.888889 1.77778C1.37981 1.77778 1.77778 1.37981 1.77778 0.888889C1.77778 0.397969 1.37981 0 0.888889 0C0.397969 0 0 0.397969 0 0.888889C0 1.37981 0.397969 1.77778 0.888889 1.77778Z" transform="matrix(-1 2.3849761E-08 -2.3849761E-08 -1 99.55556 350.44443)" id="Oval" fill="#9A9A9A" stroke="none" />
    <path d="M0.888889 1.77778C1.37981 1.77778 1.77778 1.37981 1.77778 0.888889C1.77778 0.397969 1.37981 0 0.888889 0C0.397969 0 0 0.397969 0 0.888889C0 1.37981 0.397969 1.77778 0.888889 1.77778Z" transform="matrix(-1 2.3849761E-08 -2.3849761E-08 -1 80 350.44443)" id="Oval" fill="#9A9A9A" stroke="none" />
    <path d="M0.888889 1.77778C1.37981 1.77778 1.77778 1.37981 1.77778 0.888889C1.77778 0.397969 1.37981 0 0.888889 0C0.397969 0 0 0.397969 0 0.888889C0 1.37981 0.397969 1.77778 0.888889 1.77778Z" transform="matrix(-1 2.3849761E-08 -2.3849761E-08 -1 60.444447 350.44443)" id="Oval" fill="#9A9A9A" stroke="none" />
    <path d="M0.888889 1.77778C1.37981 1.77778 1.77778 1.37981 1.77778 0.888889C1.77778 0.397969 1.37981 0 0.888889 0C0.397969 0 0 0.397969 0 0.888889C0 1.37981 0.397969 1.77778 0.888889 1.77778Z" transform="matrix(-1 2.3849761E-08 -2.3849761E-08 -1 40.88889 350.44443)" id="Oval" fill="#9A9A9A" stroke="none" />
    <path d="M0.888889 1.77778C1.37981 1.77778 1.77778 1.37981 1.77778 0.888889C1.77778 0.397969 1.37981 0 0.888889 0C0.397969 0 0 0.397969 0 0.888889C0 1.37981 0.397969 1.77778 0.888889 1.77778Z" transform="matrix(-1 2.3849761E-08 -2.3849761E-08 -1 21.333334 350.44443)" id="Oval" fill="#9A9A9A" stroke="none" />
    <path d="M0.888889 1.77778C1.37981 1.77778 1.77778 1.37981 1.77778 0.888889C1.77778 0.397969 1.37981 0 0.888889 0C0.397969 0 0 0.397969 0 0.888889C0 1.37981 0.397969 1.77778 0.888889 1.77778Z" transform="matrix(-1 2.3849761E-08 -2.3849761E-08 -1 1.7777778 350.44443)" id="Oval" fill="#9A9A9A" stroke="none" />
    <path d="M0.888889 1.77778C1.37981 1.77778 1.77778 1.37981 1.77778 0.888889C1.77778 0.397969 1.37981 0 0.888889 0C0.397969 0 0 0.397969 0 0.888889C0 1.37981 0.397969 1.77778 0.888889 1.77778Z" transform="matrix(-1 2.3849761E-08 -2.3849761E-08 -1 275.55554 330.8889)" id="Oval" fill="#9A9A9A" stroke="none" />
    <path d="M0.888889 1.77778C1.37981 1.77778 1.77778 1.37981 1.77778 0.888889C1.77778 0.397969 1.37981 0 0.888889 0C0.397969 0 0 0.397969 0 0.888889C0 1.37981 0.397969 1.77778 0.888889 1.77778Z" transform="matrix(-1 2.3849761E-08 -2.3849761E-08 -1 256 330.8889)" id="Oval" fill="#9A9A9A" stroke="none" />
    <path d="M0.888889 1.77778C1.37981 1.77778 1.77778 1.37981 1.77778 0.888889C1.77778 0.397969 1.37981 0 0.888889 0C0.397969 0 0 0.397969 0 0.888889C0 1.37981 0.397969 1.77778 0.888889 1.77778Z" transform="matrix(-1 2.3849761E-08 -2.3849761E-08 -1 236.44444 330.8889)" id="Oval" fill="#9A9A9A" stroke="none" />
    <path d="M0.888889 1.77778C1.37981 1.77778 1.77778 1.37981 1.77778 0.888889C1.77778 0.397969 1.37981 0 0.888889 0C0.397969 0 0 0.397969 0 0.888889C0 1.37981 0.397969 1.77778 0.888889 1.77778Z" transform="matrix(-1 2.3849761E-08 -2.3849761E-08 -1 216.88889 330.8889)" id="Oval" fill="#9A9A9A" stroke="none" />
    <path d="M0.888889 1.77778C1.37981 1.77778 1.77778 1.37981 1.77778 0.888889C1.77778 0.397969 1.37981 0 0.888889 0C0.397969 0 0 0.397969 0 0.888889C0 1.37981 0.397969 1.77778 0.888889 1.77778Z" transform="matrix(-1 2.3849761E-08 -2.3849761E-08 -1 197.33333 330.8889)" id="Oval" fill="#9A9A9A" stroke="none" />
    <path d="M0.888889 1.77778C1.37981 1.77778 1.77778 1.37981 1.77778 0.888889C1.77778 0.397969 1.37981 0 0.888889 0C0.397969 0 0 0.397969 0 0.888889C0 1.37981 0.397969 1.77778 0.888889 1.77778Z" transform="matrix(-1 2.3849761E-08 -2.3849761E-08 -1 177.77777 330.8889)" id="Oval" fill="#9A9A9A" stroke="none" />
    <path d="M0.888889 1.77778C1.37981 1.77778 1.77778 1.37981 1.77778 0.888889C1.77778 0.397969 1.37981 0 0.888889 0C0.397969 0 0 0.397969 0 0.888889C0 1.37981 0.397969 1.77778 0.888889 1.77778Z" transform="matrix(-1 2.3849761E-08 -2.3849761E-08 -1 158.22221 330.8889)" id="Oval" fill="#9A9A9A" stroke="none" />
    <path d="M0.888889 1.77778C1.37981 1.77778 1.77778 1.37981 1.77778 0.888889C1.77778 0.397969 1.37981 0 0.888889 0C0.397969 0 0 0.397969 0 0.888889C0 1.37981 0.397969 1.77778 0.888889 1.77778Z" transform="matrix(-1 2.3849761E-08 -2.3849761E-08 -1 138.66666 330.8889)" id="Oval" fill="#9A9A9A" stroke="none" />
    <path d="M0.888889 1.77778C1.37981 1.77778 1.77778 1.37981 1.77778 0.888889C1.77778 0.397969 1.37981 0 0.888889 0C0.397969 0 0 0.397969 0 0.888889C0 1.37981 0.397969 1.77778 0.888889 1.77778Z" transform="matrix(-1 2.3849761E-08 -2.3849761E-08 -1 119.111115 330.8889)" id="Oval" fill="#9A9A9A" stroke="none" />
    <path d="M0.888889 1.77778C1.37981 1.77778 1.77778 1.37981 1.77778 0.888889C1.77778 0.397969 1.37981 0 0.888889 0C0.397969 0 0 0.397969 0 0.888889C0 1.37981 0.397969 1.77778 0.888889 1.77778Z" transform="matrix(-1 2.3849761E-08 -2.3849761E-08 -1 99.55556 330.8889)" id="Oval" fill="#9A9A9A" stroke="none" />
    <path d="M0.888889 1.77778C1.37981 1.77778 1.77778 1.37981 1.77778 0.888889C1.77778 0.397969 1.37981 0 0.888889 0C0.397969 0 0 0.397969 0 0.888889C0 1.37981 0.397969 1.77778 0.888889 1.77778Z" transform="matrix(-1 2.3849761E-08 -2.3849761E-08 -1 80 330.8889)" id="Oval" fill="#9A9A9A" stroke="none" />
    <path d="M0.888889 1.77778C1.37981 1.77778 1.77778 1.37981 1.77778 0.888889C1.77778 0.397969 1.37981 0 0.888889 0C0.397969 0 0 0.397969 0 0.888889C0 1.37981 0.397969 1.77778 0.888889 1.77778Z" transform="matrix(-1 2.3849761E-08 -2.3849761E-08 -1 60.444447 330.8889)" id="Oval" fill="#9A9A9A" stroke="none" />
    <path d="M0.888889 1.77778C1.37981 1.77778 1.77778 1.37981 1.77778 0.888889C1.77778 0.397969 1.37981 0 0.888889 0C0.397969 0 0 0.397969 0 0.888889C0 1.37981 0.397969 1.77778 0.888889 1.77778Z" transform="matrix(-1 2.3849761E-08 -2.3849761E-08 -1 40.88889 330.8889)" id="Oval" fill="#9A9A9A" stroke="none" />
    <path d="M0.888889 1.77778C1.37981 1.77778 1.77778 1.37981 1.77778 0.888889C1.77778 0.397969 1.37981 0 0.888889 0C0.397969 0 0 0.397969 0 0.888889C0 1.37981 0.397969 1.77778 0.888889 1.77778Z" transform="matrix(-1 2.3849761E-08 -2.3849761E-08 -1 21.333334 330.8889)" id="Oval" fill="#9A9A9A" stroke="none" />
    <path d="M0.888889 1.77778C1.37981 1.77778 1.77778 1.37981 1.77778 0.888889C1.77778 0.397969 1.37981 0 0.888889 0C0.397969 0 0 0.397969 0 0.888889C0 1.37981 0.397969 1.77778 0.888889 1.77778Z" transform="matrix(-1 2.3849761E-08 -2.3849761E-08 -1 1.7777778 330.8889)" id="Oval" fill="#9A9A9A" stroke="none" />
    <path d="M0.888889 1.77778C1.37981 1.77778 1.77778 1.37981 1.77778 0.888889C1.77778 0.397969 1.37981 0 0.888889 0C0.397969 0 0 0.397969 0 0.888889C0 1.37981 0.397969 1.77778 0.888889 1.77778Z" transform="matrix(-1 2.3849761E-08 -2.3849761E-08 -1 275.55554 311.3333)" id="Oval" fill="#9A9A9A" stroke="none" />
    <path d="M0.888889 1.77778C1.37981 1.77778 1.77778 1.37981 1.77778 0.888889C1.77778 0.397969 1.37981 0 0.888889 0C0.397969 0 0 0.397969 0 0.888889C0 1.37981 0.397969 1.77778 0.888889 1.77778Z" transform="matrix(-1 2.3849761E-08 -2.3849761E-08 -1 256 311.3333)" id="Oval" fill="#9A9A9A" stroke="none" />
    <path d="M0.888889 1.77778C1.37981 1.77778 1.77778 1.37981 1.77778 0.888889C1.77778 0.397969 1.37981 0 0.888889 0C0.397969 0 0 0.397969 0 0.888889C0 1.37981 0.397969 1.77778 0.888889 1.77778Z" transform="matrix(-1 2.3849761E-08 -2.3849761E-08 -1 236.44444 311.3333)" id="Oval" fill="#9A9A9A" stroke="none" />
    <path d="M0.888889 1.77778C1.37981 1.77778 1.77778 1.37981 1.77778 0.888889C1.77778 0.397969 1.37981 0 0.888889 0C0.397969 0 0 0.397969 0 0.888889C0 1.37981 0.397969 1.77778 0.888889 1.77778Z" transform="matrix(-1 2.3849761E-08 -2.3849761E-08 -1 216.88889 311.3333)" id="Oval" fill="#9A9A9A" stroke="none" />
    <path d="M0.888889 1.77778C1.37981 1.77778 1.77778 1.37981 1.77778 0.888889C1.77778 0.397969 1.37981 0 0.888889 0C0.397969 0 0 0.397969 0 0.888889C0 1.37981 0.397969 1.77778 0.888889 1.77778Z" transform="matrix(-1 2.3849761E-08 -2.3849761E-08 -1 197.33333 311.3333)" id="Oval" fill="#9A9A9A" stroke="none" />
    <path d="M0.888889 1.77778C1.37981 1.77778 1.77778 1.37981 1.77778 0.888889C1.77778 0.397969 1.37981 0 0.888889 0C0.397969 0 0 0.397969 0 0.888889C0 1.37981 0.397969 1.77778 0.888889 1.77778Z" transform="matrix(-1 2.3849761E-08 -2.3849761E-08 -1 177.77777 311.3333)" id="Oval" fill="#9A9A9A" stroke="none" />
    <path d="M0.888889 1.77778C1.37981 1.77778 1.77778 1.37981 1.77778 0.888889C1.77778 0.397969 1.37981 0 0.888889 0C0.397969 0 0 0.397969 0 0.888889C0 1.37981 0.397969 1.77778 0.888889 1.77778Z" transform="matrix(-1 2.3849761E-08 -2.3849761E-08 -1 158.22221 311.3333)" id="Oval" fill="#9A9A9A" stroke="none" />
    <path d="M0.888889 1.77778C1.37981 1.77778 1.77778 1.37981 1.77778 0.888889C1.77778 0.397969 1.37981 0 0.888889 0C0.397969 0 0 0.397969 0 0.888889C0 1.37981 0.397969 1.77778 0.888889 1.77778Z" transform="matrix(-1 2.3849761E-08 -2.3849761E-08 -1 138.66666 311.3333)" id="Oval" fill="#9A9A9A" stroke="none" />
    <path d="M0.888889 1.77778C1.37981 1.77778 1.77778 1.37981 1.77778 0.888889C1.77778 0.397969 1.37981 0 0.888889 0C0.397969 0 0 0.397969 0 0.888889C0 1.37981 0.397969 1.77778 0.888889 1.77778Z" transform="matrix(-1 2.3849761E-08 -2.3849761E-08 -1 119.111115 311.3333)" id="Oval" fill="#9A9A9A" stroke="none" />
    <path d="M0.888889 1.77778C1.37981 1.77778 1.77778 1.37981 1.77778 0.888889C1.77778 0.397969 1.37981 0 0.888889 0C0.397969 0 0 0.397969 0 0.888889C0 1.37981 0.397969 1.77778 0.888889 1.77778Z" transform="matrix(-1 2.3849761E-08 -2.3849761E-08 -1 99.55556 311.3333)" id="Oval" fill="#9A9A9A" stroke="none" />
    <path d="M0.888889 1.77778C1.37981 1.77778 1.77778 1.37981 1.77778 0.888889C1.77778 0.397969 1.37981 0 0.888889 0C0.397969 0 0 0.397969 0 0.888889C0 1.37981 0.397969 1.77778 0.888889 1.77778Z" transform="matrix(-1 2.3849761E-08 -2.3849761E-08 -1 80 311.3333)" id="Oval" fill="#9A9A9A" stroke="none" />
    <path d="M0.888889 1.77778C1.37981 1.77778 1.77778 1.37981 1.77778 0.888889C1.77778 0.397969 1.37981 0 0.888889 0C0.397969 0 0 0.397969 0 0.888889C0 1.37981 0.397969 1.77778 0.888889 1.77778Z" transform="matrix(-1 2.3849761E-08 -2.3849761E-08 -1 60.444447 311.3333)" id="Oval" fill="#9A9A9A" stroke="none" />
    <path d="M0.888889 1.77778C1.37981 1.77778 1.77778 1.37981 1.77778 0.888889C1.77778 0.397969 1.37981 0 0.888889 0C0.397969 0 0 0.397969 0 0.888889C0 1.37981 0.397969 1.77778 0.888889 1.77778Z" transform="matrix(-1 2.3849761E-08 -2.3849761E-08 -1 40.88889 311.3333)" id="Oval" fill="#9A9A9A" stroke="none" />
    <path d="M0.888889 1.77778C1.37981 1.77778 1.77778 1.37981 1.77778 0.888889C1.77778 0.397969 1.37981 0 0.888889 0C0.397969 0 0 0.397969 0 0.888889C0 1.37981 0.397969 1.77778 0.888889 1.77778Z" transform="matrix(-1 2.3849761E-08 -2.3849761E-08 -1 21.333334 311.3333)" id="Oval" fill="#9A9A9A" stroke="none" />
    <path d="M0.888889 1.77778C1.37981 1.77778 1.77778 1.37981 1.77778 0.888889C1.77778 0.397969 1.37981 0 0.888889 0C0.397969 0 0 0.397969 0 0.888889C0 1.37981 0.397969 1.77778 0.888889 1.77778Z" transform="matrix(-1 2.3849761E-08 -2.3849761E-08 -1 1.7777778 311.3333)" id="Oval" fill="#9A9A9A" stroke="none" />
    <path d="M0.888889 1.77778C1.37981 1.77778 1.77778 1.37981 1.77778 0.888889C1.77778 0.397969 1.37981 0 0.888889 0C0.397969 0 0 0.397969 0 0.888889C0 1.37981 0.397969 1.77778 0.888889 1.77778Z" transform="matrix(-1 2.3849761E-08 -2.3849761E-08 -1 275.55554 291.77777)" id="Oval" fill="#9A9A9A" stroke="none" />
    <path d="M0.888889 1.77778C1.37981 1.77778 1.77778 1.37981 1.77778 0.888889C1.77778 0.397969 1.37981 0 0.888889 0C0.397969 0 0 0.397969 0 0.888889C0 1.37981 0.397969 1.77778 0.888889 1.77778Z" transform="matrix(-1 2.3849761E-08 -2.3849761E-08 -1 256 291.77777)" id="Oval" fill="#9A9A9A" stroke="none" />
    <path d="M0.888889 1.77778C1.37981 1.77778 1.77778 1.37981 1.77778 0.888889C1.77778 0.397969 1.37981 0 0.888889 0C0.397969 0 0 0.397969 0 0.888889C0 1.37981 0.397969 1.77778 0.888889 1.77778Z" transform="matrix(-1 2.3849761E-08 -2.3849761E-08 -1 236.44444 291.77777)" id="Oval" fill="#9A9A9A" stroke="none" />
    <path d="M0.888889 1.77778C1.37981 1.77778 1.77778 1.37981 1.77778 0.888889C1.77778 0.397969 1.37981 0 0.888889 0C0.397969 0 0 0.397969 0 0.888889C0 1.37981 0.397969 1.77778 0.888889 1.77778Z" transform="matrix(-1 2.3849761E-08 -2.3849761E-08 -1 216.88889 291.77777)" id="Oval" fill="#9A9A9A" stroke="none" />
    <path d="M0.888889 1.77778C1.37981 1.77778 1.77778 1.37981 1.77778 0.888889C1.77778 0.397969 1.37981 0 0.888889 0C0.397969 0 0 0.397969 0 0.888889C0 1.37981 0.397969 1.77778 0.888889 1.77778Z" transform="matrix(-1 2.3849761E-08 -2.3849761E-08 -1 197.33333 291.77777)" id="Oval" fill="#9A9A9A" stroke="none" />
    <path d="M0.888889 1.77778C1.37981 1.77778 1.77778 1.37981 1.77778 0.888889C1.77778 0.397969 1.37981 0 0.888889 0C0.397969 0 0 0.397969 0 0.888889C0 1.37981 0.397969 1.77778 0.888889 1.77778Z" transform="matrix(-1 2.3849761E-08 -2.3849761E-08 -1 177.77777 291.77777)" id="Oval" fill="#9A9A9A" stroke="none" />
    <path d="M0.888889 1.77778C1.37981 1.77778 1.77778 1.37981 1.77778 0.888889C1.77778 0.397969 1.37981 0 0.888889 0C0.397969 0 0 0.397969 0 0.888889C0 1.37981 0.397969 1.77778 0.888889 1.77778Z" transform="matrix(-1 2.3849761E-08 -2.3849761E-08 -1 158.22221 291.77777)" id="Oval" fill="#9A9A9A" stroke="none" />
    <path d="M0.888889 1.77778C1.37981 1.77778 1.77778 1.37981 1.77778 0.888889C1.77778 0.397969 1.37981 0 0.888889 0C0.397969 0 0 0.397969 0 0.888889C0 1.37981 0.397969 1.77778 0.888889 1.77778Z" transform="matrix(-1 2.3849761E-08 -2.3849761E-08 -1 138.66666 291.77777)" id="Oval" fill="#9A9A9A" stroke="none" />
    <path d="M0.888889 1.77778C1.37981 1.77778 1.77778 1.37981 1.77778 0.888889C1.77778 0.397969 1.37981 0 0.888889 0C0.397969 0 0 0.397969 0 0.888889C0 1.37981 0.397969 1.77778 0.888889 1.77778Z" transform="matrix(-1 2.3849761E-08 -2.3849761E-08 -1 119.111115 291.77777)" id="Oval" fill="#9A9A9A" stroke="none" />
    <path d="M0.888889 1.77778C1.37981 1.77778 1.77778 1.37981 1.77778 0.888889C1.77778 0.397969 1.37981 0 0.888889 0C0.397969 0 0 0.397969 0 0.888889C0 1.37981 0.397969 1.77778 0.888889 1.77778Z" transform="matrix(-1 2.3849761E-08 -2.3849761E-08 -1 99.55556 291.77777)" id="Oval" fill="#9A9A9A" stroke="none" />
    <path d="M0.888889 1.77778C1.37981 1.77778 1.77778 1.37981 1.77778 0.888889C1.77778 0.397969 1.37981 0 0.888889 0C0.397969 0 0 0.397969 0 0.888889C0 1.37981 0.397969 1.77778 0.888889 1.77778Z" transform="matrix(-1 2.3849761E-08 -2.3849761E-08 -1 80 291.77777)" id="Oval" fill="#9A9A9A" stroke="none" />
    <path d="M0.888889 1.77778C1.37981 1.77778 1.77778 1.37981 1.77778 0.888889C1.77778 0.397969 1.37981 0 0.888889 0C0.397969 0 0 0.397969 0 0.888889C0 1.37981 0.397969 1.77778 0.888889 1.77778Z" transform="matrix(-1 2.3849761E-08 -2.3849761E-08 -1 60.444447 291.77777)" id="Oval" fill="#9A9A9A" stroke="none" />
    <path d="M0.888889 1.77778C1.37981 1.77778 1.77778 1.37981 1.77778 0.888889C1.77778 0.397969 1.37981 0 0.888889 0C0.397969 0 0 0.397969 0 0.888889C0 1.37981 0.397969 1.77778 0.888889 1.77778Z" transform="matrix(-1 2.3849761E-08 -2.3849761E-08 -1 40.88889 291.77777)" id="Oval" fill="#9A9A9A" stroke="none" />
    <path d="M0.888889 1.77778C1.37981 1.77778 1.77778 1.37981 1.77778 0.888889C1.77778 0.397969 1.37981 0 0.888889 0C0.397969 0 0 0.397969 0 0.888889C0 1.37981 0.397969 1.77778 0.888889 1.77778Z" transform="matrix(-1 2.3849761E-08 -2.3849761E-08 -1 21.333334 291.77777)" id="Oval" fill="#9A9A9A" stroke="none" />
    <path d="M0.888889 1.77778C1.37981 1.77778 1.77778 1.37981 1.77778 0.888889C1.77778 0.397969 1.37981 0 0.888889 0C0.397969 0 0 0.397969 0 0.888889C0 1.37981 0.397969 1.77778 0.888889 1.77778Z" transform="matrix(-1 2.3849761E-08 -2.3849761E-08 -1 1.7777778 291.77777)" id="Oval" fill="#9A9A9A" stroke="none" />
    <path d="M0.888889 1.77778C1.37981 1.77778 1.77778 1.37981 1.77778 0.888889C1.77778 0.397969 1.37981 0 0.888889 0C0.397969 0 0 0.397969 0 0.888889C0 1.37981 0.397969 1.77778 0.888889 1.77778Z" transform="matrix(-1 2.3849761E-08 -2.3849761E-08 -1 275.55554 272.22223)" id="Oval" fill="#9A9A9A" stroke="none" />
    <path d="M0.888889 1.77778C1.37981 1.77778 1.77778 1.37981 1.77778 0.888889C1.77778 0.397969 1.37981 0 0.888889 0C0.397969 0 0 0.397969 0 0.888889C0 1.37981 0.397969 1.77778 0.888889 1.77778Z" transform="matrix(-1 2.3849761E-08 -2.3849761E-08 -1 256 272.22223)" id="Oval" fill="#9A9A9A" stroke="none" />
    <path d="M0.888889 1.77778C1.37981 1.77778 1.77778 1.37981 1.77778 0.888889C1.77778 0.397969 1.37981 0 0.888889 0C0.397969 0 0 0.397969 0 0.888889C0 1.37981 0.397969 1.77778 0.888889 1.77778Z" transform="matrix(-1 2.3849761E-08 -2.3849761E-08 -1 236.44444 272.22223)" id="Oval" fill="#9A9A9A" stroke="none" />
    <path d="M0.888889 1.77778C1.37981 1.77778 1.77778 1.37981 1.77778 0.888889C1.77778 0.397969 1.37981 0 0.888889 0C0.397969 0 0 0.397969 0 0.888889C0 1.37981 0.397969 1.77778 0.888889 1.77778Z" transform="matrix(-1 2.3849761E-08 -2.3849761E-08 -1 216.88889 272.22223)" id="Oval" fill="#9A9A9A" stroke="none" />
    <path d="M0.888889 1.77778C1.37981 1.77778 1.77778 1.37981 1.77778 0.888889C1.77778 0.397969 1.37981 0 0.888889 0C0.397969 0 0 0.397969 0 0.888889C0 1.37981 0.397969 1.77778 0.888889 1.77778Z" transform="matrix(-1 2.3849761E-08 -2.3849761E-08 -1 197.33333 272.22223)" id="Oval" fill="#9A9A9A" stroke="none" />
    <path d="M0.888889 1.77778C1.37981 1.77778 1.77778 1.37981 1.77778 0.888889C1.77778 0.397969 1.37981 0 0.888889 0C0.397969 0 0 0.397969 0 0.888889C0 1.37981 0.397969 1.77778 0.888889 1.77778Z" transform="matrix(-1 2.3849761E-08 -2.3849761E-08 -1 177.77777 272.22223)" id="Oval" fill="#9A9A9A" stroke="none" />
    <path d="M0.888889 1.77778C1.37981 1.77778 1.77778 1.37981 1.77778 0.888889C1.77778 0.397969 1.37981 0 0.888889 0C0.397969 0 0 0.397969 0 0.888889C0 1.37981 0.397969 1.77778 0.888889 1.77778Z" transform="matrix(-1 2.3849761E-08 -2.3849761E-08 -1 158.22221 272.22223)" id="Oval" fill="#9A9A9A" stroke="none" />
    <path d="M0.888889 1.77778C1.37981 1.77778 1.77778 1.37981 1.77778 0.888889C1.77778 0.397969 1.37981 0 0.888889 0C0.397969 0 0 0.397969 0 0.888889C0 1.37981 0.397969 1.77778 0.888889 1.77778Z" transform="matrix(-1 2.3849761E-08 -2.3849761E-08 -1 138.66666 272.22223)" id="Oval" fill="#9A9A9A" stroke="none" />
    <path d="M0.888889 1.77778C1.37981 1.77778 1.77778 1.37981 1.77778 0.888889C1.77778 0.397969 1.37981 0 0.888889 0C0.397969 0 0 0.397969 0 0.888889C0 1.37981 0.397969 1.77778 0.888889 1.77778Z" transform="matrix(-1 2.3849761E-08 -2.3849761E-08 -1 119.111115 272.22223)" id="Oval" fill="#9A9A9A" stroke="none" />
    <path d="M0.888889 1.77778C1.37981 1.77778 1.77778 1.37981 1.77778 0.888889C1.77778 0.397969 1.37981 0 0.888889 0C0.397969 0 0 0.397969 0 0.888889C0 1.37981 0.397969 1.77778 0.888889 1.77778Z" transform="matrix(-1 2.3849761E-08 -2.3849761E-08 -1 99.55556 272.22223)" id="Oval" fill="#9A9A9A" stroke="none" />
    <path d="M0.888889 1.77778C1.37981 1.77778 1.77778 1.37981 1.77778 0.888889C1.77778 0.397969 1.37981 0 0.888889 0C0.397969 0 0 0.397969 0 0.888889C0 1.37981 0.397969 1.77778 0.888889 1.77778Z" transform="matrix(-1 2.3849761E-08 -2.3849761E-08 -1 80 272.22223)" id="Oval" fill="#9A9A9A" stroke="none" />
    <path d="M0.888889 1.77778C1.37981 1.77778 1.77778 1.37981 1.77778 0.888889C1.77778 0.397969 1.37981 0 0.888889 0C0.397969 0 0 0.397969 0 0.888889C0 1.37981 0.397969 1.77778 0.888889 1.77778Z" transform="matrix(-1 2.3849761E-08 -2.3849761E-08 -1 60.444447 272.22223)" id="Oval" fill="#9A9A9A" stroke="none" />
    <path d="M0.888889 1.77778C1.37981 1.77778 1.77778 1.37981 1.77778 0.888889C1.77778 0.397969 1.37981 0 0.888889 0C0.397969 0 0 0.397969 0 0.888889C0 1.37981 0.397969 1.77778 0.888889 1.77778Z" transform="matrix(-1 2.3849761E-08 -2.3849761E-08 -1 40.88889 272.22223)" id="Oval" fill="#9A9A9A" stroke="none" />
    <path d="M0.888889 1.77778C1.37981 1.77778 1.77778 1.37981 1.77778 0.888889C1.77778 0.397969 1.37981 0 0.888889 0C0.397969 0 0 0.397969 0 0.888889C0 1.37981 0.397969 1.77778 0.888889 1.77778Z" transform="matrix(-1 2.3849761E-08 -2.3849761E-08 -1 21.333334 272.22223)" id="Oval" fill="#9A9A9A" stroke="none" />
    <path d="M0.888889 1.77778C1.37981 1.77778 1.77778 1.37981 1.77778 0.888889C1.77778 0.397969 1.37981 0 0.888889 0C0.397969 0 0 0.397969 0 0.888889C0 1.37981 0.397969 1.77778 0.888889 1.77778Z" transform="matrix(-1 2.3849761E-08 -2.3849761E-08 -1 1.7777778 272.22223)" id="Oval" fill="#9A9A9A" stroke="none" />
    <path d="M0.888889 1.77778C1.37981 1.77778 1.77778 1.37981 1.77778 0.888889C1.77778 0.397969 1.37981 0 0.888889 0C0.397969 0 0 0.397969 0 0.888889C0 1.37981 0.397969 1.77778 0.888889 1.77778Z" transform="matrix(-1 2.3849761E-08 -2.3849761E-08 -1 275.55554 252.66666)" id="Oval" fill="#9A9A9A" stroke="none" />
    <path d="M0.888889 1.77778C1.37981 1.77778 1.77778 1.37981 1.77778 0.888889C1.77778 0.397969 1.37981 0 0.888889 0C0.397969 0 0 0.397969 0 0.888889C0 1.37981 0.397969 1.77778 0.888889 1.77778Z" transform="matrix(-1 2.3849761E-08 -2.3849761E-08 -1 256 252.66666)" id="Oval" fill="#9A9A9A" stroke="none" />
    <path d="M0.888889 1.77778C1.37981 1.77778 1.77778 1.37981 1.77778 0.888889C1.77778 0.397969 1.37981 0 0.888889 0C0.397969 0 0 0.397969 0 0.888889C0 1.37981 0.397969 1.77778 0.888889 1.77778Z" transform="matrix(-1 2.3849761E-08 -2.3849761E-08 -1 236.44444 252.66666)" id="Oval" fill="#9A9A9A" stroke="none" />
    <path d="M0.888889 1.77778C1.37981 1.77778 1.77778 1.37981 1.77778 0.888889C1.77778 0.397969 1.37981 0 0.888889 0C0.397969 0 0 0.397969 0 0.888889C0 1.37981 0.397969 1.77778 0.888889 1.77778Z" transform="matrix(-1 2.3849761E-08 -2.3849761E-08 -1 216.88889 252.66666)" id="Oval" fill="#9A9A9A" stroke="none" />
    <path d="M0.888889 1.77778C1.37981 1.77778 1.77778 1.37981 1.77778 0.888889C1.77778 0.397969 1.37981 0 0.888889 0C0.397969 0 0 0.397969 0 0.888889C0 1.37981 0.397969 1.77778 0.888889 1.77778Z" transform="matrix(-1 2.3849761E-08 -2.3849761E-08 -1 197.33333 252.66666)" id="Oval" fill="#9A9A9A" stroke="none" />
    <path d="M0.888889 1.77778C1.37981 1.77778 1.77778 1.37981 1.77778 0.888889C1.77778 0.397969 1.37981 0 0.888889 0C0.397969 0 0 0.397969 0 0.888889C0 1.37981 0.397969 1.77778 0.888889 1.77778Z" transform="matrix(-1 2.3849761E-08 -2.3849761E-08 -1 177.77777 252.66666)" id="Oval" fill="#9A9A9A" stroke="none" />
    <path d="M0.888889 1.77778C1.37981 1.77778 1.77778 1.37981 1.77778 0.888889C1.77778 0.397969 1.37981 0 0.888889 0C0.397969 0 0 0.397969 0 0.888889C0 1.37981 0.397969 1.77778 0.888889 1.77778Z" transform="matrix(-1 2.3849761E-08 -2.3849761E-08 -1 158.22221 252.66666)" id="Oval" fill="#9A9A9A" stroke="none" />
    <path d="M0.888889 1.77778C1.37981 1.77778 1.77778 1.37981 1.77778 0.888889C1.77778 0.397969 1.37981 0 0.888889 0C0.397969 0 0 0.397969 0 0.888889C0 1.37981 0.397969 1.77778 0.888889 1.77778Z" transform="matrix(-1 2.3849761E-08 -2.3849761E-08 -1 138.66666 252.66666)" id="Oval" fill="#9A9A9A" stroke="none" />
    <path d="M0.888889 1.77778C1.37981 1.77778 1.77778 1.37981 1.77778 0.888889C1.77778 0.397969 1.37981 0 0.888889 0C0.397969 0 0 0.397969 0 0.888889C0 1.37981 0.397969 1.77778 0.888889 1.77778Z" transform="matrix(-1 2.3849761E-08 -2.3849761E-08 -1 119.111115 252.66666)" id="Oval" fill="#9A9A9A" stroke="none" />
    <path d="M0.888889 1.77778C1.37981 1.77778 1.77778 1.37981 1.77778 0.888889C1.77778 0.397969 1.37981 0 0.888889 0C0.397969 0 0 0.397969 0 0.888889C0 1.37981 0.397969 1.77778 0.888889 1.77778Z" transform="matrix(-1 2.3849761E-08 -2.3849761E-08 -1 99.55556 252.66666)" id="Oval" fill="#9A9A9A" stroke="none" />
    <path d="M0.888889 1.77778C1.37981 1.77778 1.77778 1.37981 1.77778 0.888889C1.77778 0.397969 1.37981 0 0.888889 0C0.397969 0 0 0.397969 0 0.888889C0 1.37981 0.397969 1.77778 0.888889 1.77778Z" transform="matrix(-1 2.3849761E-08 -2.3849761E-08 -1 80 252.66666)" id="Oval" fill="#9A9A9A" stroke="none" />
    <path d="M0.888889 1.77778C1.37981 1.77778 1.77778 1.37981 1.77778 0.888889C1.77778 0.397969 1.37981 0 0.888889 0C0.397969 0 0 0.397969 0 0.888889C0 1.37981 0.397969 1.77778 0.888889 1.77778Z" transform="matrix(-1 2.3849761E-08 -2.3849761E-08 -1 60.444447 252.66666)" id="Oval" fill="#9A9A9A" stroke="none" />
    <path d="M0.888889 1.77778C1.37981 1.77778 1.77778 1.37981 1.77778 0.888889C1.77778 0.397969 1.37981 0 0.888889 0C0.397969 0 0 0.397969 0 0.888889C0 1.37981 0.397969 1.77778 0.888889 1.77778Z" transform="matrix(-1 2.3849761E-08 -2.3849761E-08 -1 40.88889 252.66666)" id="Oval" fill="#9A9A9A" stroke="none" />
    <path d="M0.888889 1.77778C1.37981 1.77778 1.77778 1.37981 1.77778 0.888889C1.77778 0.397969 1.37981 0 0.888889 0C0.397969 0 0 0.397969 0 0.888889C0 1.37981 0.397969 1.77778 0.888889 1.77778Z" transform="matrix(-1 2.3849761E-08 -2.3849761E-08 -1 21.333334 252.66666)" id="Oval" fill="#9A9A9A" stroke="none" />
    <path d="M0.888889 1.77778C1.37981 1.77778 1.77778 1.37981 1.77778 0.888889C1.77778 0.397969 1.37981 0 0.888889 0C0.397969 0 0 0.397969 0 0.888889C0 1.37981 0.397969 1.77778 0.888889 1.77778Z" transform="matrix(-1 2.3849761E-08 -2.3849761E-08 -1 1.7777778 252.66666)" id="Oval" fill="#9A9A9A" stroke="none" />
    <path d="M0.888889 1.77778C1.37981 1.77778 1.77778 1.37981 1.77778 0.888889C1.77778 0.397969 1.37981 0 0.888889 0C0.397969 0 0 0.397969 0 0.888889C0 1.37981 0.397969 1.77778 0.888889 1.77778Z" transform="matrix(-1 2.3849761E-08 -2.3849761E-08 -1 275.55554 233.1111)" id="Oval" fill="#9A9A9A" stroke="none" />
    <path d="M0.888889 1.77778C1.37981 1.77778 1.77778 1.37981 1.77778 0.888889C1.77778 0.397969 1.37981 0 0.888889 0C0.397969 0 0 0.397969 0 0.888889C0 1.37981 0.397969 1.77778 0.888889 1.77778Z" transform="matrix(-1 2.3849761E-08 -2.3849761E-08 -1 256 233.1111)" id="Oval" fill="#9A9A9A" stroke="none" />
    <path d="M0.888889 1.77778C1.37981 1.77778 1.77778 1.37981 1.77778 0.888889C1.77778 0.397969 1.37981 0 0.888889 0C0.397969 0 0 0.397969 0 0.888889C0 1.37981 0.397969 1.77778 0.888889 1.77778Z" transform="matrix(-1 2.3849761E-08 -2.3849761E-08 -1 236.44444 233.1111)" id="Oval" fill="#9A9A9A" stroke="none" />
    <path d="M0.888889 1.77778C1.37981 1.77778 1.77778 1.37981 1.77778 0.888889C1.77778 0.397969 1.37981 0 0.888889 0C0.397969 0 0 0.397969 0 0.888889C0 1.37981 0.397969 1.77778 0.888889 1.77778Z" transform="matrix(-1 2.3849761E-08 -2.3849761E-08 -1 216.88889 233.1111)" id="Oval" fill="#9A9A9A" stroke="none" />
    <path d="M0.888889 1.77778C1.37981 1.77778 1.77778 1.37981 1.77778 0.888889C1.77778 0.397969 1.37981 0 0.888889 0C0.397969 0 0 0.397969 0 0.888889C0 1.37981 0.397969 1.77778 0.888889 1.77778Z" transform="matrix(-1 2.3849761E-08 -2.3849761E-08 -1 197.33333 233.1111)" id="Oval" fill="#9A9A9A" stroke="none" />
    <path d="M0.888889 1.77778C1.37981 1.77778 1.77778 1.37981 1.77778 0.888889C1.77778 0.397969 1.37981 0 0.888889 0C0.397969 0 0 0.397969 0 0.888889C0 1.37981 0.397969 1.77778 0.888889 1.77778Z" transform="matrix(-1 2.3849761E-08 -2.3849761E-08 -1 177.77777 233.1111)" id="Oval" fill="#9A9A9A" stroke="none" />
    <path d="M0.888889 1.77778C1.37981 1.77778 1.77778 1.37981 1.77778 0.888889C1.77778 0.397969 1.37981 0 0.888889 0C0.397969 0 0 0.397969 0 0.888889C0 1.37981 0.397969 1.77778 0.888889 1.77778Z" transform="matrix(-1 2.3849761E-08 -2.3849761E-08 -1 158.22221 233.1111)" id="Oval" fill="#9A9A9A" stroke="none" />
    <path d="M0.888889 1.77778C1.37981 1.77778 1.77778 1.37981 1.77778 0.888889C1.77778 0.397969 1.37981 0 0.888889 0C0.397969 0 0 0.397969 0 0.888889C0 1.37981 0.397969 1.77778 0.888889 1.77778Z" transform="matrix(-1 2.3849761E-08 -2.3849761E-08 -1 138.66666 233.1111)" id="Oval" fill="#9A9A9A" stroke="none" />
    <path d="M0.888889 1.77778C1.37981 1.77778 1.77778 1.37981 1.77778 0.888889C1.77778 0.397969 1.37981 0 0.888889 0C0.397969 0 0 0.397969 0 0.888889C0 1.37981 0.397969 1.77778 0.888889 1.77778Z" transform="matrix(-1 2.3849761E-08 -2.3849761E-08 -1 119.111115 233.1111)" id="Oval" fill="#9A9A9A" stroke="none" />
    <path d="M0.888889 1.77778C1.37981 1.77778 1.77778 1.37981 1.77778 0.888889C1.77778 0.397969 1.37981 0 0.888889 0C0.397969 0 0 0.397969 0 0.888889C0 1.37981 0.397969 1.77778 0.888889 1.77778Z" transform="matrix(-1 2.3849761E-08 -2.3849761E-08 -1 99.55556 233.1111)" id="Oval" fill="#9A9A9A" stroke="none" />
    <path d="M0.888889 1.77778C1.37981 1.77778 1.77778 1.37981 1.77778 0.888889C1.77778 0.397969 1.37981 0 0.888889 0C0.397969 0 0 0.397969 0 0.888889C0 1.37981 0.397969 1.77778 0.888889 1.77778Z" transform="matrix(-1 2.3849761E-08 -2.3849761E-08 -1 80 233.1111)" id="Oval" fill="#9A9A9A" stroke="none" />
    <path d="M0.888889 1.77778C1.37981 1.77778 1.77778 1.37981 1.77778 0.888889C1.77778 0.397969 1.37981 0 0.888889 0C0.397969 0 0 0.397969 0 0.888889C0 1.37981 0.397969 1.77778 0.888889 1.77778Z" transform="matrix(-1 2.3849761E-08 -2.3849761E-08 -1 60.444447 233.1111)" id="Oval" fill="#9A9A9A" stroke="none" />
    <path d="M0.888889 1.77778C1.37981 1.77778 1.77778 1.37981 1.77778 0.888889C1.77778 0.397969 1.37981 0 0.888889 0C0.397969 0 0 0.397969 0 0.888889C0 1.37981 0.397969 1.77778 0.888889 1.77778Z" transform="matrix(-1 2.3849761E-08 -2.3849761E-08 -1 40.88889 233.1111)" id="Oval" fill="#9A9A9A" stroke="none" />
    <path d="M0.888889 1.77778C1.37981 1.77778 1.77778 1.37981 1.77778 0.888889C1.77778 0.397969 1.37981 0 0.888889 0C0.397969 0 0 0.397969 0 0.888889C0 1.37981 0.397969 1.77778 0.888889 1.77778Z" transform="matrix(-1 2.3849761E-08 -2.3849761E-08 -1 21.333334 233.1111)" id="Oval" fill="#9A9A9A" stroke="none" />
    <path d="M0.888889 1.77778C1.37981 1.77778 1.77778 1.37981 1.77778 0.888889C1.77778 0.397969 1.37981 0 0.888889 0C0.397969 0 0 0.397969 0 0.888889C0 1.37981 0.397969 1.77778 0.888889 1.77778Z" transform="matrix(-1 2.3849761E-08 -2.3849761E-08 -1 1.7777778 233.1111)" id="Oval" fill="#9A9A9A" stroke="none" />
  </g>
</svg>