<svg width="99" height="86" viewBox="0 0 99 86" fill="none" xmlns="http://www.w3.org/2000/svg">
<path fill-rule="evenodd" clip-rule="evenodd" d="M89.1222 68.0381C88.4861 68.5363 88.1876 69.2582 88.0597 70.0696C87.9893 70.5173 87.5806 70.5785 87.2732 70.6571C87.0072 70.7255 86.7617 70.7344 86.5466 70.9539C86.4577 71.0449 86.18 71.0647 86.0634 70.9936C85.6903 70.7662 85.2909 70.6 84.9466 70.2967C83.734 69.2298 82.8453 67.9102 82.0133 66.5639C81.1646 65.1903 80.2762 63.8314 79.6261 62.3415C79.424 61.8778 79.4158 61.8816 79.9247 61.5215C80.3384 62.3083 80.7241 63.1071 81.1707 63.8704C81.525 64.476 81.9535 65.0375 82.385 65.6711C82.4866 65.416 82.4842 65.2525 82.3265 65.0251C81.4682 63.7852 80.6534 62.5173 80.0071 61.0653C80.1103 60.998 80.2351 60.9162 80.3593 60.8355C80.388 60.8602 80.4519 60.9156 80.5614 61.0103V60.4932C80.8681 60.432 81.1461 60.377 81.5079 60.3052C81.79 60.4368 81.9241 60.9361 82.3884 60.998C82.3734 61.503 82.8148 61.7547 83.0368 62.1237C83.312 62.5812 83.6851 62.9796 83.9491 63.3178C84.2473 63.2781 84.4702 63.2364 84.6952 63.2207C85.4851 63.1653 85.466 63.1902 85.9581 63.6242C86.5049 64.1063 86.8789 64.781 87.5841 65.0874C87.6295 65.1069 87.6801 65.176 87.6825 65.2242C87.7044 65.7316 87.9886 65.9159 88.4649 66.039C88.8647 66.1427 88.9782 66.5639 88.997 66.9784C89.0114 67.2961 89.0698 67.6117 89.1222 68.0381Z" fill="white"/>
<path fill-rule="evenodd" clip-rule="evenodd" d="M18.6058 9.09873C19.1714 9.38186 19.1714 9.38186 19.4757 8.78926C19.8625 8.65658 20.3299 8.92365 20.6798 8.56836C21.0733 8.6665 21.4618 8.79986 21.8612 8.85492C22.5061 8.94348 22.8392 9.44239 23.2034 9.86231C23.4506 10.1475 23.7095 10.4337 23.9355 10.7435C24.1998 11.106 24.5158 11.4302 24.7811 11.7916C25.0215 12.1192 25.227 12.4731 25.4404 12.8199C25.4996 12.9163 25.5755 13.0336 25.5669 13.1348C25.544 13.4043 25.6374 13.5858 25.8289 13.779C26.1972 14.1504 26.1684 14.6955 26.2963 15.1592C26.415 15.5914 26.3469 16.0841 26.3086 16.5461C26.2943 16.7226 26.271 17.0991 25.8826 16.8214C25.8552 16.8016 25.7195 16.9462 25.6261 17.0009C25.5276 17.0584 25.3594 17.1681 25.3245 17.1377C24.9148 16.778 24.815 17.0351 24.6276 17.3907C24.352 17.9143 24.1837 17.8756 23.4438 17.7436C22.9934 17.6629 22.516 17.6489 22.2524 17.2581C21.5394 16.2014 20.809 15.152 20.7102 13.8013C20.6709 13.26 20.5197 12.695 20.0731 12.3059C19.6884 11.9704 19.433 11.491 18.9078 11.304C18.7494 11.2476 18.6335 11.0588 18.5104 10.9196C18.2488 10.6228 18.1083 10.2928 18.1014 9.8753C18.0942 9.44171 18.4369 9.34459 18.6058 9.09873Z" fill="white"/>
<path fill-rule="evenodd" clip-rule="evenodd" d="M79.0491 44.416C78.5874 43.9544 78.2 43.5023 77.7483 43.1275C76.4526 42.0524 75.8374 40.5314 75.0626 39.1157C74.7145 38.48 74.814 37.766 74.829 37.0784C74.8318 36.959 74.9966 36.8431 75.093 36.718C75.2247 36.9785 75.3481 37.2227 75.5283 37.579V36.3059C75.7995 36.1715 76.0672 36.0983 76.2498 35.9321C76.4766 35.7259 76.7327 35.7666 76.9406 35.819C77.1827 35.8798 77.3892 36.0819 77.6327 36.2365C77.4901 36.9047 77.7531 37.4641 78.0789 38.0471C78.3706 37.9681 78.715 38.1754 79.007 37.8758C79.0689 37.8122 79.272 37.8071 79.3596 37.8597C80.0749 38.2902 80.9527 38.5187 81.3145 39.4023C81.3795 39.5616 81.4516 39.7675 81.5822 39.8383C81.7792 39.945 81.6024 40.278 81.9406 40.291C82.219 40.3016 82.0411 40.5854 82.0911 40.74C82.153 40.9315 82.2374 41.1189 82.2709 41.3152C82.3017 41.495 82.2774 41.6845 82.2774 41.8712C81.5614 42.4853 81.1011 43.2677 80.7482 44.1394C80.1755 44.2324 79.5941 44.3271 79.0491 44.416Z" fill="white"/>
<path fill-rule="evenodd" clip-rule="evenodd" d="M1.38004 0.938017C1.54999 0.706515 1.68233 0.513654 1.82903 0.331735C1.88271 0.265738 1.96547 0.219233 2.04241 0.176147C2.2616 0.0533857 2.41821 0.400468 2.66339 0.249325C2.85557 0.131009 3.08057 0.0246617 3.29977 0.00346063C3.48169 -0.013979 3.75149 0.205213 3.84928 0.13477C4.06711 -0.0221858 4.19739 -0.0693753 4.38683 0.142977C4.42206 0.18196 4.55097 0.152552 4.63133 0.133061C5.22564 -0.0102175 5.2253 -0.0119273 5.54332 0.565631C5.58675 0.440476 5.62436 0.332419 5.69275 0.135112C5.78679 0.389525 5.87912 0.570418 5.9181 0.761912C5.96597 0.995807 5.9776 1.23825 5.98854 1.47762C5.99983 1.71835 5.99093 1.96011 6.12601 2.20803L6.21628 1.31143C6.24808 1.31006 6.28023 1.30869 6.31237 1.30767C6.32981 1.46633 6.36059 1.625 6.36161 1.78401C6.36674 2.59033 6.32878 3.39871 6.37461 4.2023C6.4153 4.91117 6.2939 5.55301 5.89348 6.13912C5.74336 5.9955 5.60111 5.77767 5.43013 6.1251C5.24308 6.50467 4.94353 6.47594 4.55644 6.30189C4.49216 6.71462 4.46309 7.20122 3.77953 7.04564V6.01191C3.73405 6.00302 3.68823 5.99379 3.64275 5.98456C3.53435 6.33711 3.42629 6.68966 3.31481 7.05247C3.00945 6.84799 2.75914 6.6305 2.80872 6.20033C2.8224 6.07962 2.68152 5.94763 2.63604 5.8129C2.43941 5.22679 2.44249 5.22542 1.95589 5.2114C1.86288 5.20866 1.76987 5.21106 1.67686 5.21106H1.42142C1.18547 4.97511 0.972778 4.7484 0.74538 4.53775C0.260833 4.09014 0.106612 3.49753 0.0289889 2.88168C-0.00930976 2.57631 0.0566871 2.25727 0.0132591 1.95328C-0.0346143 1.61816 0.138072 1.37059 0.290583 1.13464C0.594579 0.664455 0.760426 0.650777 1.38004 0.938017Z" fill="white"/>
<path fill-rule="evenodd" clip-rule="evenodd" d="M55.7644 8.31908C55.3667 8.58922 54.9838 8.86005 54.5847 9.10386C54.5461 9.12745 54.4072 8.98691 54.2574 8.88227C54.1658 9.04675 54.1036 9.19755 54.0065 9.32066C53.8922 9.46599 53.7455 9.58567 53.6159 9.71937C53.3533 9.98986 53.1003 10.2911 52.7122 9.88009C52.6824 9.84897 52.5921 9.87975 52.5309 9.87325C52.0949 9.82606 51.6795 9.9348 51.2407 9.58396C50.8875 9.30151 50.4378 9.10625 50.1058 8.75951C49.7946 8.43397 49.4725 8.12827 49.2554 7.71519C48.9223 7.08087 48.5933 6.45373 48.712 5.70929C48.7417 5.52259 48.87 5.35127 48.9859 5.1013C49.2205 5.29348 49.3791 5.42342 49.5645 5.57559C49.7163 5.07189 49.6852 4.48647 50.152 4.04262C50.3349 4.1794 50.5117 4.31139 50.7323 4.47621V3.79607C51.345 3.69143 51.9017 3.48079 52.5159 3.51772C52.8681 3.53892 53.1724 3.6504 53.3954 3.86412C53.6819 4.13836 54.0328 4.33464 54.2667 4.68617C54.478 5.00419 54.767 5.27023 54.9889 5.59782C55.3531 6.13639 55.4762 6.76593 55.7425 7.33904C55.8698 7.61226 55.7644 7.99388 55.7644 8.31908Z" fill="white"/>
<path fill-rule="evenodd" clip-rule="evenodd" d="M16.2691 26.1471V28.1483C16.4548 27.6425 16.4226 27.1316 16.4383 26.6235C16.4445 26.419 16.3477 26.1646 16.5956 26.0425C16.8518 25.916 17.1222 25.7908 17.3985 25.7501C17.4936 25.7361 17.6745 25.9611 17.7285 26.1085C17.7867 26.2668 17.7419 26.4628 17.7419 26.6625C17.8964 26.5978 17.9884 26.5229 18.0708 26.5322C18.2411 26.5513 18.475 26.709 18.5622 26.6454C19.0468 26.2887 19.5778 26.5229 20.0788 26.4949C20.3055 26.4823 20.6485 26.6337 20.7572 26.8177C21.0239 27.2708 21.5622 27.4093 21.8443 27.9424C21.8535 28.1701 21.8836 28.4516 22.1202 28.7545C22.4304 29.1515 22.695 29.6446 22.599 30.2256C22.5542 30.4958 22.5911 30.7792 22.5911 31.1085C21.9554 31.4857 21.2941 31.8523 20.6601 32.2613C19.9967 32.6894 19.3932 32.4018 18.8286 32.106C18.4165 31.8899 17.8636 31.7887 17.7244 31.2132C16.8032 30.7987 16.6394 29.8279 16.1477 29.0944C15.817 28.6013 15.8273 28.0275 15.7336 27.5057C15.6563 27.0745 15.9606 26.5749 16.096 26.1058C16.1538 26.1194 16.2116 26.1335 16.2691 26.1471Z" fill="white"/>
<path fill-rule="evenodd" clip-rule="evenodd" d="M34.3135 36.2381C33.9209 35.8455 33.5048 35.4293 33.0363 34.9609C33.0363 34.6507 33.0042 34.2811 33.0527 33.9224C33.0712 33.789 33.2637 33.6543 33.407 33.576C33.4614 33.5459 33.6012 33.6724 33.7031 33.7281C33.8385 33.46 33.9179 33.0972 34.3757 33.1854C34.4609 33.2022 34.5816 33.2073 34.6397 33.1605C34.8678 32.9758 35.1161 32.7874 35.4078 32.8685C35.9306 33.0141 36.5133 33.0993 36.9209 33.46C37.7265 34.1737 38.4925 34.9492 38.8936 35.9799C39.1326 36.5944 39.3484 37.229 39.464 37.8746C39.5143 38.1571 39.438 38.5449 39.1162 38.7699C38.5865 39.1409 38.0767 39.5417 37.5354 39.8946C37.3511 40.0146 37.0912 40.0977 36.8761 40.0789C35.5209 39.9616 34.5553 39.3238 34.1548 37.7933C34.0964 37.5703 33.9565 37.3381 33.9866 37.1295C34.0304 36.8276 34.1952 36.5427 34.3135 36.2381Z" fill="white"/>
<path fill-rule="evenodd" clip-rule="evenodd" d="M36.6385 69.9303C36.6016 69.7433 36.5647 69.5566 36.5277 69.3695C36.5253 70.1116 35.7419 70.3892 35.5713 71.0201C35.5104 71.2458 35.1767 71.3464 35.0385 71.2209C34.8132 71.0171 34.6596 71.1658 34.5324 71.2486C34.1942 71.4688 33.907 71.4476 33.5616 71.2458C32.5662 70.6638 31.5393 70.129 30.9525 69.0621C30.2454 68.6795 30.0385 67.9022 29.5991 67.3113C29.3854 67.0241 29.3173 66.6284 29.1682 66.2427C29.4281 65.8642 29.8056 65.9644 30.2621 66.1921C30.218 65.977 30.23 65.779 30.1397 65.6569C30.0149 65.489 30.1482 65.4231 30.219 65.3933C30.5405 65.2589 30.8728 65.1604 31.1375 64.9067C31.2021 64.8445 31.3851 64.8691 31.4986 64.9033C31.7014 64.9648 31.8751 65.0944 32.1005 64.9111C32.1644 64.8595 32.3723 64.9628 32.5029 65.0202C33.6256 65.5133 34.6415 66.1316 35.3063 67.2258C35.3959 67.3736 35.5976 67.5302 35.7484 67.6707C36.181 68.0725 36.262 68.6579 36.5968 69.0912C36.8191 69.3794 36.7705 69.6325 36.6385 69.9303Z" fill="white"/>
<path fill-rule="evenodd" clip-rule="evenodd" d="M93.2455 26.4514C93.2702 26.2794 93.2948 26.107 93.3221 25.9176C93.3898 25.9668 93.45 25.9863 93.4658 26.0243C93.7048 26.609 94.0026 27.1695 94.1432 27.7949C94.2314 28.1882 94.3439 28.5647 93.9633 28.871C93.7041 29.0796 93.9671 29.6787 93.384 29.6452C93.1091 30.0867 92.6687 30.0426 92.2474 30.0125C92.1523 30.3079 92.0932 30.5959 91.969 30.8527C91.8292 31.142 91.3822 31.2237 90.9032 31.0869C90.7937 31.0558 90.6881 30.9494 90.5879 30.9583C89.8117 31.026 89.813 31.0318 89.4865 30.4198C89.3233 30.1144 89.1264 29.8227 88.9999 29.503C88.846 29.1131 88.6066 28.8697 88.213 28.7014C87.6286 28.4515 87.2491 27.9447 87.1482 27.3418C87.0569 26.7961 87.3123 26.2955 87.7996 25.9022C88.041 26.2175 88.2818 26.5317 88.6193 26.9722C88.6193 26.5215 88.6145 26.2182 88.6206 25.9152C88.6268 25.6139 88.6596 25.6755 89.1363 25.4608C89.4769 25.3072 89.9703 25.4932 90.1663 25.0207C90.5027 25.0077 90.8389 24.9954 91.1754 24.9824C91.7967 24.9577 92.3479 25.0254 92.6376 25.7162C92.7524 25.9898 93.0277 26.1963 93.2455 26.4514Z" fill="white"/>
<path fill-rule="evenodd" clip-rule="evenodd" d="M1.30564 30.9821C0.569757 30.8228 0.311241 30.3009 0.244218 29.8424C0.158388 29.2559 -0.0402865 28.6811 0.00724495 28.0611C0.0687964 27.2586 0.0643511 26.4444 0.00416737 25.6418C-0.0248986 25.2523 0.225069 24.9641 0.219256 24.5999C0.217888 24.5052 0.34954 24.3219 0.411775 24.3257C0.891877 24.353 1.11996 23.8332 1.62331 23.8302C1.95672 23.8285 2.28841 23.5159 2.66251 23.3203C3.03113 23.6889 3.81523 23.2331 4.1141 24.0459C3.9185 24.617 4.40578 25.1186 4.57095 25.7037C4.59386 25.7854 4.67969 25.8583 4.68037 25.9356C4.68824 26.8571 4.68516 27.7784 4.68516 28.7792C4.53607 28.6469 4.47144 28.5898 4.31106 28.4472C4.36133 28.6637 4.35175 28.8295 4.42562 28.8856C4.50426 28.9458 4.67011 28.8791 4.78159 28.9164C4.8322 28.9331 4.85921 29.0668 4.86468 29.1496C4.86742 29.1875 4.78501 29.2713 4.75492 29.2652C4.52923 29.221 4.30662 29.1595 4.0628 29.0986C3.89627 29.459 3.71846 29.8437 3.58578 30.1313C3.33171 30.1125 3.17988 30.1009 3.0284 30.0896C3.29409 30.3577 2.98873 30.4541 2.87828 30.619C2.76578 30.7862 2.68337 30.9736 2.59412 31.1401C2.00733 31.0765 1.78848 30.6983 1.63152 30.1973C1.52039 30.4654 1.42019 30.7058 1.30564 30.9821Z" fill="white"/>
<path fill-rule="evenodd" clip-rule="evenodd" d="M69.9528 73.868C69.4703 73.8543 69.0138 73.724 68.7806 74.2588C68.3867 73.7397 68.3401 73.3715 68.7413 72.9591C69.0182 72.6746 69.2008 72.3193 69.5537 72.0734C69.8625 71.858 69.976 71.3816 70.2421 71.0783C70.4466 70.8451 70.7537 70.7015 71.0152 70.5186C71.097 70.5982 71.1852 70.6851 71.3244 70.8215C71.1766 70.9265 71.0317 71.0298 70.8863 71.1327C70.9024 71.17 70.9188 71.2072 70.9349 71.2445C71.1476 71.211 71.3599 71.1775 71.599 71.1399C71.6626 71.2353 71.7364 71.4801 71.8947 71.5625C72.8457 72.0577 73.4527 72.8842 74.0306 73.7326C74.2204 74.0109 74.2857 74.371 74.4382 74.6791C74.8147 75.4406 74.9118 75.5812 74.7972 76.2733C74.7145 76.7736 74.6232 77.307 74.2303 77.7146C74.075 77.8753 73.9095 78.1075 73.9013 78.3134C73.8808 78.8331 73.5953 78.9162 73.1754 78.8896C73.0581 78.882 72.9339 78.8971 72.8197 78.9279C72.0873 79.1248 72.0117 79.1043 71.6465 78.5428C71.1055 77.7115 70.847 76.7609 70.5324 75.8369C70.3101 75.1842 70.1405 74.5129 69.9528 73.868Z" fill="white"/>
<path fill-rule="evenodd" clip-rule="evenodd" d="M58.094 63.6368C57.5759 63.3427 57.0514 63.0852 56.6291 62.6595C55.8422 61.8648 54.9976 61.1204 54.2716 60.2737C53.5084 59.3836 52.7004 58.5061 52.2397 57.4625C52.2883 57.0504 52.8252 57.4881 52.8354 57.0019C52.8385 56.863 53.1787 56.729 53.3675 56.5973C53.836 56.2704 54.0976 56.2157 54.4388 56.5789C54.7757 56.9376 55.1652 57.0662 55.6059 57.1595C56.2868 57.3038 56.7566 57.8267 57.3393 58.1484C57.9627 58.4924 58.4069 59.0464 58.9133 59.5275C59.1756 59.7765 59.5015 59.9676 59.7268 60.2432C59.9535 60.5206 60.1618 60.854 60.2421 61.1949C60.2907 61.4025 60.1348 61.7157 59.9761 61.9007C59.7801 62.1288 59.6875 62.4581 59.3445 62.5685C59.1462 62.6321 59.1742 62.8537 59.1356 63.0363C59.0911 63.2459 59.0326 63.501 58.6688 63.2377C58.4144 63.0541 58.2003 63.3147 58.094 63.6368Z" fill="white"/>
<path fill-rule="evenodd" clip-rule="evenodd" d="M95.6384 58.2429C94.5756 57.8052 94.1188 56.9914 93.6646 56.2005C93.2656 55.5053 92.9017 54.7813 92.6049 54.0369C92.3091 53.2935 91.7931 52.5891 92.0233 51.6535C92.6955 52.122 92.6398 53.0176 93.2854 53.6163C93.1671 52.6691 92.6757 51.9373 92.4305 50.9395C92.7698 51.1255 92.8929 51.1929 93.0433 51.2753C93.0724 51.1129 93.1028 50.9426 93.1329 50.773C93.414 50.7196 93.6913 50.667 94.0189 50.6047C94.1058 50.7436 94.2196 50.9487 94.355 51.1389C94.883 51.8785 94.8861 51.8751 95.8449 52.216C95.952 52.2543 96.0522 52.3166 96.1493 52.3781C96.892 52.8473 97.568 53.3759 97.9767 54.1915C98.1278 54.4931 98.3337 55.047 98.3244 55.3681C98.3224 55.4434 98.3853 55.5316 98.44 55.5952C98.5795 55.7569 98.5166 55.8947 98.3723 55.9765C97.9534 56.2128 97.7718 56.6778 97.3998 56.9562C97.2411 57.0748 97.2127 57.2328 97.184 57.4287C97.1444 57.6955 96.6212 58.0412 96.3777 57.9851C96.2269 57.9502 96.1294 57.6732 95.9239 57.8774C95.8162 57.9848 95.7341 58.1181 95.6384 58.2429Z" fill="white"/>
<path fill-rule="evenodd" clip-rule="evenodd" d="M65.4382 36.5099C65.2755 36.5369 65.1048 36.565 64.8692 36.6039C64.9622 36.7783 65.0286 36.9021 65.098 37.0321C64.6552 37.4749 64.1942 37.9358 63.7189 38.4115C63.6423 38.4115 63.5486 38.3975 63.4604 38.4136C62.4143 38.6071 61.7178 38.0135 61.1368 37.2978C60.683 36.7387 60.2929 36.1228 59.9892 35.4509C59.7998 35.0313 59.6305 34.6449 59.7659 34.0749C60.0833 34.7724 60.366 35.3934 60.6488 36.0148C60.6991 35.9983 60.7494 35.9823 60.8 35.9659C60.7771 35.8475 60.7737 35.7207 60.7278 35.6119C60.5387 35.1626 60.3236 34.7235 60.1455 34.2705C60.0665 34.0697 59.8972 33.8198 60.3284 33.7264C60.4615 33.6977 60.5394 33.4108 60.641 33.2408C60.7299 33.0917 60.8161 32.9409 60.8865 32.8206C61.3225 32.7806 61.3266 33.1618 61.5984 33.3191C61.5352 33.0791 61.4719 32.839 61.3885 32.5231C61.528 32.4126 61.7144 32.2649 61.9007 32.1168C62.0184 32.2338 62.1743 32.4202 62.3189 32.0765C62.4759 31.7051 62.7077 31.5605 63.0835 31.8043C63.1177 31.8265 63.1885 31.8436 63.2111 31.8252C63.6464 31.4664 63.9029 31.8238 64.1043 32.098C64.5851 32.7536 64.8114 33.5407 65.0994 34.2896C65.1671 34.4654 65.3144 34.8781 64.8186 34.8979C64.7906 34.899 64.769 35.0532 64.7448 35.1359C64.848 35.1609 65.0067 35.2409 65.046 35.2013C65.324 34.9226 65.4738 35.2864 65.4464 35.3503C65.2792 35.7432 65.6667 36.1228 65.4382 36.5099Z" fill="white"/>
<path fill-rule="evenodd" clip-rule="evenodd" d="M62.0615 16.6099C62.1709 16.7193 62.2807 16.8291 62.4472 16.9953C62.4776 16.7317 62.5029 16.5142 62.5306 16.2769C62.9143 16.1965 63.3099 16.0953 63.7117 16.0358C63.9545 15.9999 64.211 16.0009 64.4531 16.0382C64.6377 16.0669 64.4928 16.4109 64.8371 16.441C65.0597 16.4605 65.2307 16.8387 65.389 17.102C65.5176 17.3157 65.3251 17.7784 65.8134 17.7507C65.8301 18.0533 65.8469 18.3563 65.8643 18.6589C65.8657 18.6883 65.8725 18.7174 65.877 18.7468L67.2626 20.1324C67.411 20.1324 67.5683 20.1132 67.7184 20.1368C67.9499 20.1741 68.1992 20.4035 68.0805 20.5458C67.8165 20.8621 68.2898 21.0806 68.1021 21.3388C67.3809 21.5549 67.1535 21.5788 66.5667 21.4762C66.7137 21.7939 66.8416 22.0709 67.0024 22.419C66.9087 22.5089 66.7852 22.7281 66.6635 22.7275C65.8951 22.7216 65.0864 22.9166 64.4015 22.3711C64.2158 22.2231 63.9915 22.1072 63.8472 21.9263C63.5179 21.5139 63.2231 21.0738 62.9225 20.6388C62.7744 20.4244 62.6479 20.1946 62.5057 19.9758C62.2855 19.6369 62.3508 19.1486 61.9469 18.9061C62.0081 18.4951 61.7763 18.1843 61.6282 17.8297C61.4268 17.3479 61.5516 16.8869 62.0615 16.6099Z" fill="white"/>
<path fill-rule="evenodd" clip-rule="evenodd" d="M33.2802 2.78626C33.6437 2.78626 33.8923 2.78592 34.1405 2.78626C34.4732 2.78694 34.8333 2.7312 34.9096 3.21199C34.9178 3.26533 35.0422 3.34706 35.1017 3.33851C35.4957 3.28004 35.5979 3.65243 35.839 3.81622C36.4931 4.26076 36.5896 4.99288 36.753 5.66995C36.8464 6.05601 36.7216 6.33299 36.2822 6.59595C35.7891 6.89106 35.1718 7.07435 34.8333 7.61053C34.5344 7.61634 34.2899 8.08379 33.9408 7.70969C33.8902 7.65567 33.778 7.63754 33.6949 7.63891C32.5179 7.66148 31.7814 6.98578 31.1662 6.08473C30.854 5.62789 30.4632 5.21959 30.3407 4.65708C30.2905 4.42626 30.2611 4.18963 30.2446 3.95403C30.2388 3.87675 30.2843 3.7427 30.3383 3.72321C30.8119 3.55394 31.1563 3.1501 31.6155 2.98562C32.1818 2.78318 32.7874 2.72231 33.2802 2.78626Z" fill="white"/>
<path fill-rule="evenodd" clip-rule="evenodd" d="M31.7853 48.0221C31.9218 48.2365 32.0219 48.3945 32.2169 48.7012C32.2606 48.3764 32.2774 48.2653 32.29 48.1538C32.3311 47.7841 32.3304 47.7848 32.7975 47.7373C32.856 47.7311 32.9459 47.739 32.9668 47.7058C33.1798 47.37 33.5125 47.276 33.8483 47.3772C34.2289 47.4918 34.6375 47.6354 34.9337 47.885C36.0891 48.8589 36.7689 50.1641 37.2969 51.549C37.3865 51.7853 37.3096 52.0849 37.3096 52.3516C37.1711 52.3362 37.0623 52.3242 36.9532 52.3119C36.9768 52.6464 36.9013 52.8943 36.5101 52.9733C36.3928 52.9972 36.2324 53.1723 36.2208 53.2902C36.1815 53.6931 35.7677 53.4968 35.6234 53.7064C35.3929 53.3395 34.9963 53.7837 34.7371 53.5214C34.4888 53.2704 34.1489 53.0769 33.9848 52.7821C33.6233 52.1327 33.2773 51.457 33.0656 50.7499C32.9575 50.3881 32.7972 50.1477 32.5185 49.9836C32.0661 49.7179 31.7145 49.381 31.4936 48.9023C31.3093 48.5026 31.3015 48.5063 31.7853 48.0221Z" fill="white"/>
<path fill-rule="evenodd" clip-rule="evenodd" d="M49.2633 37.1757C49.2633 37.083 49.2411 36.9541 49.2712 36.8385C49.2914 36.7612 49.4237 36.7086 49.4353 36.6343C49.448 36.5533 49.3529 36.4603 49.3519 36.3721C49.3512 36.2938 49.4613 36.1977 49.4398 36.1399C49.4005 36.0335 49.3122 35.9351 49.2216 35.8612C49.1614 35.812 49.0612 35.8113 48.9375 35.7778C48.9956 35.9799 49.0424 36.1426 49.0896 36.3057C48.7603 36.105 48.3944 35.945 48.5555 35.4611C48.6916 35.5192 48.8253 35.577 48.9911 35.6482C49.0445 35.0658 48.5045 35.3688 48.2966 35.0932C48.601 35.1291 48.8037 34.9195 49.1098 34.9601C49.2517 34.979 49.4364 34.6774 49.6538 34.4715C49.9558 34.718 50.2943 34.994 50.6903 35.3171C50.7289 35.0809 50.7566 34.9126 50.7902 34.7078C51.2378 34.6213 51.6967 34.5327 52.1607 34.4431C52.399 34.7475 52.5854 35.0251 52.8125 35.2641C53.0094 35.4707 53.2803 35.6085 53.47 35.8202C54.0055 36.4179 54.2483 37.1726 54.4685 37.9191C54.5475 38.1861 54.6344 38.6088 54.1238 38.6803C54.1262 39.1706 53.6092 39.2438 53.376 39.5546C53.0836 39.9438 52.5666 40.0108 52.0085 39.7854C51.1728 39.4479 50.6236 38.7955 50.0898 38.1601C49.8228 37.8418 49.5229 37.5415 49.2633 37.1757Z" fill="white"/>
<path fill-rule="evenodd" clip-rule="evenodd" d="M64.6321 49.2691C64.7826 49.3204 64.9279 49.3696 65.0944 49.4264C65.1283 48.642 64.3175 48.4221 64.2047 47.6999C64.3688 47.7724 64.5025 47.8031 64.5993 47.8801C64.7545 48.0039 64.8852 48.1578 65.0787 48.3513C65.0127 47.9581 64.9689 47.8678 64.7446 47.5987C65.235 47.0057 65.235 47.0057 65.8139 47.0037C66.1323 47.3624 66.4041 47.8349 66.8121 48.0839C67.2624 48.3592 67.3951 48.829 67.7271 49.1658C68.0445 49.4883 68.2551 49.9274 68.4654 50.3394C68.581 50.5651 68.6791 50.8534 68.6415 51.0907C68.5936 51.3906 68.4658 51.8314 68.2537 51.9165C67.9049 52.057 67.9829 52.3036 67.8731 52.5156C67.7227 52.8052 67.5168 53.087 67.1393 53.1492C66.9188 53.1855 66.6561 53.3537 66.4944 53.2809C66.1008 53.1034 65.6942 52.8774 65.4032 52.5672C64.854 51.9818 64.363 51.3379 63.8932 50.6855C63.7752 50.522 63.8296 50.2348 63.7947 49.9116C63.9513 50.0382 64.0135 50.0881 64.1455 50.1944C64.0771 49.7188 64.4929 49.5557 64.6321 49.2691Z" fill="white"/>
<path fill-rule="evenodd" clip-rule="evenodd" d="M59.7293 83.4718C59.4745 83.3319 59.3518 83.2646 59.2328 83.1989C59.0231 83.9563 58.9712 83.9956 58.3519 83.7228C58.5153 84.1034 58.6463 84.4077 58.7889 84.7387C58.6272 84.8324 58.4617 84.9288 58.2944 85.026C57.9922 84.724 57.6854 84.4173 57.3503 84.0818C57.1486 84.5363 57.7039 84.7462 57.6492 85.185C57.151 85.2544 56.862 84.9155 56.5751 84.6036C56.4185 84.4333 56.3337 84.1957 56.1723 84.0316C55.4528 83.3011 54.8065 82.5116 54.204 81.684C54.15 81.6098 54.0751 81.5503 54.0081 81.4861C53.6449 81.1397 53.2643 80.8049 53.2373 80.2403C53.5998 80.0184 53.7923 80.3603 54.0388 80.572C54.2895 80.1572 53.7095 80.1018 53.7355 79.7961C53.7578 79.4275 54.4591 79.8977 54.2809 79.2952H55.2907C55.5797 79.4986 55.8727 79.7 56.16 79.909C56.4482 80.1186 56.6387 80.4198 56.9916 80.5905C57.3342 80.7567 57.5613 81.1485 57.8629 81.4142C58.0595 81.5876 58.1843 81.826 58.4986 81.9039C58.726 81.96 58.8474 82.305 59.1928 82.2606C59.2888 82.2479 59.4622 82.4216 59.5111 82.5451C59.6045 82.7803 59.6332 83.0406 59.7293 83.4718Z" fill="white"/>
<path fill-rule="evenodd" clip-rule="evenodd" d="M53.3217 21.1C53.6425 21.1212 53.8641 20.9554 54.1575 21.167C54.0084 21.2183 53.9003 21.2556 53.7823 21.2963C53.8924 21.67 54.0149 22.0414 54.1048 22.4203C54.1277 22.5174 54.0768 22.7092 54.0094 22.7376C53.6353 22.8956 53.5221 23.2981 53.2308 23.5186C53.1019 23.6164 52.9087 23.6482 52.7401 23.6674C52.6556 23.6766 52.5561 23.5491 52.4716 23.558C52.3687 23.5689 52.2743 23.6588 52.1659 23.7204C52.0059 23.1548 52.0141 23.1319 51.3839 22.9171C51.0067 22.7886 50.9284 22.4179 50.661 22.1847C50.6012 22.3122 50.5434 22.4353 50.4787 22.5735C50.3847 22.475 50.2264 22.3854 50.2267 22.2965C50.2315 21.1855 50.2305 21.1605 49.7234 20.4948C49.4375 20.9971 49.9853 21.2877 50.015 21.7791C49.8793 21.7579 49.6765 21.7737 49.6529 21.7159C49.4146 21.1366 49.0514 20.5895 49.4238 19.8946C49.5394 19.6789 49.5603 19.5657 49.8198 19.5612C49.9798 19.5588 50.1518 19.4648 50.2944 19.3745C50.6641 19.141 51.02 18.8865 51.415 18.6174C51.5053 18.7522 51.5887 18.877 51.5685 18.8465C51.8801 19.0637 52.2049 18.4789 52.2569 19.0886C52.2719 19.2617 52.6587 18.8489 52.6587 19.302C52.6587 19.4771 52.9805 19.6525 53.1422 19.8143C53.0844 19.964 53.0297 20.107 52.9746 20.2499C53.0205 20.2817 53.0663 20.3135 53.1125 20.3453C53.1935 20.1911 53.2745 20.0369 53.3768 19.843C53.5433 20.1261 53.6401 20.2899 53.767 20.505C53.6291 20.689 53.4756 20.8945 53.3217 21.1Z" fill="white"/>
<path fill-rule="evenodd" clip-rule="evenodd" d="M21.9749 48.9555C21.7601 48.6847 21.5902 48.4703 21.4014 48.2316C21.3053 48.4282 21.2441 48.553 21.1645 48.7158C20.8057 48.5476 20.5643 48.2699 20.3588 47.9803C19.9047 47.3398 19.5535 46.6333 19.0932 45.9918C18.8101 45.5975 18.7934 45.102 18.9052 44.5891C19.3302 44.5029 19.4222 45.0025 19.7765 45.1287V44.2208C20.446 44.1264 21.0913 44.0355 21.6829 43.9524C22.3035 44.5098 22.7121 45.112 23.0018 45.8075C23.1673 46.2038 23.5082 46.5013 23.6118 46.9547C23.6528 47.1339 23.4231 47.375 23.7058 47.5084C23.7106 47.5104 23.6217 47.7286 23.619 47.7276C23.1574 47.561 23.0021 48.2306 22.5579 48.1232C22.5292 48.116 22.4505 48.2877 22.4064 48.3817C22.3575 48.485 22.3356 48.6033 22.2755 48.6984C22.231 48.7695 22.1448 48.8139 21.9749 48.9555Z" fill="white"/>
<path fill-rule="evenodd" clip-rule="evenodd" d="M42.6305 60.2343C42.7638 60.5428 42.861 60.7675 42.9998 61.0879C43.088 60.8543 43.1287 60.7473 43.1718 60.6337C43.2135 60.6594 43.2819 60.6772 43.2908 60.7107C43.3749 61.0304 43.5267 61.3036 43.7576 61.5464C43.8957 61.6918 43.9956 61.8788 44.0896 62.059C44.2554 62.3781 44.4907 62.5959 44.8716 62.6636C44.9315 62.5425 44.993 62.4174 45.0218 62.3592C45.1982 62.4912 45.39 62.6352 45.533 62.7422C45.533 62.8585 45.5453 62.9084 45.5313 62.9177C45.3623 63.0274 45.1897 63.131 45.032 63.2275C45.0778 63.4822 45.1189 63.713 45.1808 64.0587C44.9014 63.923 44.7485 63.8484 44.5283 63.7411C44.4062 63.9866 44.2838 64.2335 44.1522 64.4988C44.027 64.5129 43.8803 64.53 43.7008 64.5501V64.9646C43.2323 65.3154 42.849 65.2682 42.4427 64.8979C42.0003 64.4944 41.5013 64.1535 41.05 63.673C41.2398 63.5475 41.423 63.4265 41.6241 63.2938C41.5215 62.9177 41.3372 62.5819 41.0715 62.2536C40.8058 61.925 40.6601 61.4989 40.469 61.1289C40.7422 60.7921 40.958 61.0414 41.2086 61.1467C41.2192 61.0526 41.2627 60.9524 41.2329 60.8847C41.0459 60.4641 41.1269 60.2562 41.5232 60.2381C41.8953 60.2207 42.2687 60.2343 42.6305 60.2343Z" fill="white"/>
<path fill-rule="evenodd" clip-rule="evenodd" d="M16.0888 63.9217C16.2451 64.1529 16.3726 64.342 16.532 64.5776C16.5734 64.4487 16.6301 64.3656 16.6171 64.2962C16.5535 63.9593 16.4711 63.6263 16.385 63.2464H16.927C16.9738 63.3438 17.0312 63.4632 17.1448 63.6995V62.9376C17.2508 62.9003 17.3411 62.889 17.4043 62.8422C17.549 62.7345 17.7781 62.49 17.8017 62.5091C18.0386 62.704 18.3314 62.5864 18.5611 62.6746C18.9038 62.8059 19.2293 63.035 19.2249 63.4721C19.2235 63.6027 19.0505 63.748 19.0765 63.8578C19.0977 63.947 19.337 63.9669 19.4085 64.0677C19.467 64.1502 19.4718 64.3711 19.4116 64.4193C19.1698 64.6121 19.2232 64.8618 19.2396 65.0956C19.2604 65.3877 19.1325 65.5652 18.8733 65.6387C18.5964 65.7173 18.5317 65.8948 18.4736 66.1598C18.3912 66.5342 18.1344 66.7832 17.7001 66.7647C17.55 66.7586 17.3944 66.762 17.2487 66.7938C16.8781 66.8748 16.4109 66.7859 16.2954 66.5141C16.0133 65.8507 15.605 65.2239 15.6809 64.4432C15.7106 64.1389 15.8939 64.0524 16.0888 63.9217Z" fill="white"/>
<path fill-rule="evenodd" clip-rule="evenodd" d="M45.9952 47.1443C46.227 47.2123 46.4691 47.2831 46.7666 47.3703C46.8928 47.0697 46.9301 46.7811 46.664 46.5127C46.991 46.2155 47.2084 46.6635 47.5288 46.6149C47.5586 46.4532 47.5904 46.2829 47.6212 46.116C47.8722 45.8472 48.0985 46.3431 48.4018 46.1092C48.712 45.8698 48.7903 46.3865 49.054 46.4457C49.202 46.4788 49.3405 46.633 49.4462 46.763C49.7963 47.1925 49.851 47.8001 50.3226 48.1753C50.4354 48.2648 50.3753 48.5729 50.4006 48.8468C49.8777 48.59 49.8459 49.4196 49.3422 49.223C49.1873 49.4736 49.3337 49.9281 48.7671 49.9825C48.7072 49.8806 48.6135 49.7209 48.4802 49.4931C48.3666 49.7301 48.3116 49.845 48.2552 49.9633C47.9378 50.0386 47.7925 49.765 47.6882 49.5909C47.3418 49.0113 46.8932 48.5678 46.3129 48.2211C45.9559 48.0077 45.7599 47.6599 45.9952 47.1443Z" fill="white"/>
<path fill-rule="evenodd" clip-rule="evenodd" d="M41.4578 22.3675C41.0177 22.7122 40.6932 22.9666 40.2743 23.2953H39.4909C39.1859 22.8541 39.0867 22.2738 38.6371 21.9097C38.5899 21.2955 38.1652 20.9149 37.7962 20.4868C37.6789 20.3504 37.7042 20.0912 37.6543 19.8374C37.789 19.7998 37.9224 19.8026 37.9921 19.7372C38.7079 19.068 39.3822 19.4442 39.9526 19.9007C40.4395 20.2902 40.8505 20.8055 41.1956 21.3301C41.3912 21.6272 41.386 22.0564 41.4578 22.3675Z" fill="white"/>
</svg>
