<svg width="98" height="83" viewBox="0 0 98 83" fill="none" xmlns="http://www.w3.org/2000/svg">
<path fill-rule="evenodd" clip-rule="evenodd" d="M88.6536 66.2858C88.0209 66.7712 87.7239 67.4745 87.5967 68.2651C87.5266 68.7011 87.1202 68.7608 86.8144 68.8374C86.5497 68.904 86.3055 68.9127 86.0915 69.1266C86.0031 69.2152 85.7269 69.2345 85.6109 69.1652C85.2398 68.9437 84.8425 68.7818 84.5 68.4863C83.2938 67.4469 82.4097 66.1612 81.5821 64.8496C80.7378 63.5114 79.8541 62.1875 79.2075 60.736C79.0065 60.2842 78.9983 60.2879 79.5044 59.9371C79.916 60.7036 80.2997 61.4819 80.744 62.2255C81.0964 62.8155 81.5226 63.3625 81.9519 63.9798C82.0529 63.7313 82.0505 63.572 81.8937 63.3505C81.0399 62.1425 80.2293 60.9072 79.5864 59.4927C79.6891 59.427 79.8133 59.3474 79.9368 59.2688C79.9654 59.2928 80.029 59.3467 80.1378 59.439V58.9353C80.4429 58.8757 80.7195 58.822 81.0794 58.7521C81.36 58.8803 81.4933 59.3667 81.9553 59.427C81.9403 59.9191 82.3794 60.1643 82.6002 60.5237C82.874 60.9695 83.2451 61.3576 83.5077 61.6871C83.8043 61.6484 84.0261 61.6078 84.2499 61.5925C85.0357 61.5385 85.0166 61.5628 85.5061 61.9856C86.05 62.4553 86.4222 63.1126 87.1236 63.4111C87.1688 63.4301 87.2191 63.4974 87.2215 63.5444C87.2433 64.0388 87.526 64.2183 87.9998 64.3383C88.3974 64.4392 88.5104 64.8496 88.5291 65.2534C88.5434 65.5629 88.6015 65.8704 88.6536 66.2858" fill="white"/>
<path fill-rule="evenodd" clip-rule="evenodd" d="M18.5079 8.86437C19.0706 9.14021 19.0706 9.14021 19.3733 8.56287C19.758 8.43361 20.223 8.69379 20.571 8.34766C20.9625 8.44327 21.3489 8.5732 21.7462 8.62683C22.3877 8.71312 22.7191 9.19918 23.0813 9.60828C23.3273 9.88612 23.5848 10.165 23.8096 10.4668C24.0725 10.8199 24.3868 11.1358 24.6508 11.4879C24.8899 11.807 25.0944 12.1519 25.3066 12.4897C25.3655 12.5836 25.441 12.6979 25.4325 12.7965C25.4097 13.059 25.5025 13.2359 25.693 13.4241C26.0594 13.7859 26.0308 14.317 26.158 14.7687C26.2761 15.1898 26.2084 15.6699 26.1703 16.12C26.156 16.2919 26.1329 16.6586 25.7464 16.3881C25.7192 16.3688 25.5842 16.5097 25.4913 16.563C25.3934 16.619 25.226 16.7259 25.1913 16.6963C24.7838 16.3458 24.6845 16.5964 24.4981 16.9428C24.2239 17.4529 24.0565 17.4152 23.3205 17.2866C22.8725 17.208 22.3976 17.1943 22.1354 16.8136C21.4261 15.7841 20.6996 14.7617 20.6013 13.4458C20.5621 12.9184 20.4118 12.3681 19.9675 11.9889C19.5849 11.6621 19.3308 11.1951 18.8083 11.0128C18.6508 10.9579 18.5355 10.774 18.413 10.6384C18.1528 10.3492 18.013 10.0277 18.0062 9.62094C17.9991 9.19851 18.3399 9.1039 18.5079 8.86437" fill="white"/>
<path fill-rule="evenodd" clip-rule="evenodd" d="M78.6334 43.272C78.1742 42.8222 77.7888 42.3818 77.3395 42.0167C76.0506 40.9693 75.4387 39.4874 74.6679 38.1082C74.3216 37.4889 74.4206 36.7933 74.4356 36.1233C74.4383 36.0071 74.6023 35.8941 74.6982 35.7722C74.8291 36.0261 74.9519 36.2639 75.1312 36.6111V35.3708C75.4009 35.2398 75.6673 35.1685 75.8489 35.0066C76.0745 34.8057 76.3292 34.8454 76.536 34.8964C76.7769 34.9557 76.9823 35.1525 77.2245 35.3031C77.0827 35.9541 77.3443 36.4991 77.6684 37.0671C77.9586 36.9902 78.3011 37.1921 78.5916 36.9002C78.6532 36.8383 78.8552 36.8333 78.9423 36.8846C79.6539 37.304 80.5271 37.5265 80.887 38.3874C80.9516 38.5426 81.0234 38.7432 81.1533 38.8122C81.3492 38.9161 81.1734 39.2406 81.5098 39.2532C81.7867 39.2636 81.6098 39.5401 81.6595 39.6907C81.721 39.8772 81.805 40.0598 81.8384 40.251C81.869 40.4263 81.8448 40.6108 81.8448 40.7927C81.1326 41.391 80.6747 42.1533 80.3237 43.0025C79.7539 43.0931 79.1756 43.1854 78.6334 43.272" fill="white"/>
<path fill-rule="evenodd" clip-rule="evenodd" d="M1.37281 0.913859C1.54187 0.68832 1.67351 0.500425 1.81944 0.323192C1.87284 0.258894 1.95516 0.213587 2.03169 0.17161C2.24973 0.0520108 2.40552 0.390154 2.64942 0.242903C2.84058 0.127635 3.0644 0.0240266 3.28244 0.0033715C3.46341 -0.0136189 3.73179 0.199928 3.82907 0.1313C4.04575 -0.0216144 4.17535 -0.0675886 4.3638 0.139295C4.39883 0.177274 4.52707 0.148623 4.60701 0.129634C5.19819 -0.00995434 5.19785 -0.0116201 5.5142 0.551063C5.5574 0.429132 5.59482 0.323858 5.66285 0.131633C5.75639 0.379493 5.84823 0.555727 5.88701 0.742289C5.93463 0.970161 5.94619 1.20636 5.95708 1.43956C5.9683 1.6741 5.95946 1.90963 6.09382 2.15116L6.18362 1.27765C6.21526 1.27632 6.24723 1.27499 6.27921 1.27399C6.29655 1.42857 6.32717 1.58315 6.32819 1.73806C6.33329 2.52362 6.29553 3.31118 6.34111 4.09407C6.38159 4.78468 6.26084 5.41 5.86252 5.98101C5.71319 5.84109 5.57168 5.62887 5.40161 5.96735C5.21554 6.33714 4.91757 6.30916 4.53251 6.13959C4.46856 6.54169 4.43965 7.01576 3.75968 6.86418V5.85708C3.71444 5.84842 3.66886 5.83942 3.62362 5.83043C3.51579 6.1739 3.4083 6.51737 3.29741 6.87084C2.99365 6.67162 2.74466 6.45974 2.79398 6.04064C2.80759 5.92304 2.66744 5.79445 2.6222 5.66319C2.42661 5.09218 2.42968 5.09084 1.94564 5.07718C1.85311 5.07452 1.76059 5.07685 1.66807 5.07685H1.41397C1.17927 4.84698 0.96769 4.6261 0.741488 4.42089C0.259488 3.9848 0.106079 3.40746 0.0288635 2.80746C-0.00923385 2.50996 0.056416 2.19914 0.0132164 1.90297C-0.0344053 1.57649 0.137373 1.33529 0.289082 1.10542C0.591479 0.647343 0.756454 0.634017 1.37281 0.913859" fill="white"/>
<path fill-rule="evenodd" clip-rule="evenodd" d="M55.4711 8.10474C55.0755 8.36792 54.6945 8.63177 54.2976 8.86931C54.2591 8.89229 54.121 8.75537 53.9721 8.65343C53.8809 8.81367 53.819 8.96059 53.7224 9.08052C53.6088 9.22211 53.4628 9.33871 53.3339 9.46897C53.0727 9.73249 52.821 10.026 52.4349 9.62555C52.4053 9.59523 52.3155 9.62521 52.2546 9.61888C51.8209 9.57291 51.4076 9.67885 50.9712 9.33704C50.6198 9.06186 50.1725 8.87164 49.8422 8.53383C49.5327 8.21667 49.2123 7.91884 48.9963 7.5164C48.665 6.89841 48.3377 6.28742 48.4558 5.56217C48.4854 5.38027 48.6129 5.21336 48.7282 4.96983C48.9616 5.15706 49.1194 5.28366 49.3038 5.43191C49.4548 4.94118 49.4238 4.37084 49.8882 3.93841C50.0701 4.07167 50.246 4.20026 50.4654 4.36084V3.69821C51.075 3.59627 51.6287 3.39105 52.2396 3.42703C52.59 3.44769 52.8927 3.55629 53.1145 3.76451C53.3996 4.03169 53.7486 4.22292 53.9812 4.56539C54.1915 4.87522 54.4789 5.13441 54.6996 5.45356C55.0619 5.97826 55.1844 6.59159 55.4493 7.14994C55.5759 7.41612 55.4711 7.78791 55.4711 8.10474" fill="white"/>
<path fill-rule="evenodd" clip-rule="evenodd" d="M16.1834 25.4738V27.4233C16.3681 26.9306 16.3362 26.4329 16.3518 25.9378C16.3579 25.7386 16.2617 25.4907 16.5083 25.3718C16.7631 25.2485 17.0321 25.1266 17.307 25.087C17.4015 25.0733 17.5815 25.2925 17.6352 25.4361C17.693 25.5904 17.6485 25.7812 17.6485 25.9758C17.8022 25.9128 17.8937 25.8399 17.9757 25.8489C18.1451 25.8675 18.3778 26.0211 18.4645 25.9591C18.9465 25.6117 19.4748 25.8399 19.9731 25.8126C20.1986 25.8002 20.5398 25.9478 20.648 26.1271C20.9133 26.5685 21.4487 26.7034 21.7293 27.2228C21.7385 27.4446 21.7684 27.7188 22.0038 28.014C22.3123 28.4008 22.5756 28.8812 22.48 29.4472C22.4355 29.7104 22.4722 29.9866 22.4722 30.3074C21.8399 30.6748 21.182 31.032 20.5514 31.4304C19.8915 31.8475 19.2911 31.5673 18.7295 31.2792C18.3196 31.0686 17.7696 30.97 17.6311 30.4093C16.7147 30.0055 16.5518 29.0597 16.0627 28.3451C15.7337 27.8647 15.7439 27.3057 15.6507 26.7973C15.5739 26.3772 15.8766 25.8905 16.0113 25.4334C16.0688 25.4468 16.1263 25.4604 16.1834 25.4738" fill="white"/>
<path fill-rule="evenodd" clip-rule="evenodd" d="M34.1332 35.3048C33.7427 34.9223 33.3287 34.5169 32.8627 34.0605C32.8627 33.7583 32.8307 33.3982 32.879 33.0487C32.8974 32.9188 33.0889 32.7875 33.2314 32.7112C33.2855 32.6819 33.4246 32.8052 33.526 32.8595C33.6607 32.5983 33.7396 32.2448 34.1951 32.3308C34.2798 32.3471 34.3998 32.3521 34.4577 32.3065C34.6845 32.1266 34.9315 31.943 35.2216 32.022C35.7417 32.1639 36.3214 32.2468 36.7268 32.5983C37.5282 33.2936 38.2902 34.0491 38.6892 35.0532C38.9269 35.6519 39.1416 36.2702 39.2566 36.8992C39.3066 37.1744 39.2307 37.5522 38.9106 37.7714C38.3837 38.1328 37.8766 38.5233 37.3381 38.8671C37.1547 38.984 36.8962 39.065 36.6823 39.0467C35.3342 38.9324 34.3736 38.3111 33.9753 36.8199C33.9172 36.6027 33.778 36.3765 33.808 36.1733C33.8515 35.8791 34.0155 35.6016 34.1332 35.3048" fill="white"/>
<path fill-rule="evenodd" clip-rule="evenodd" d="M36.4459 68.1294C36.4092 67.9471 36.3724 67.7652 36.3357 67.583C36.3333 68.3059 35.554 68.5765 35.3843 69.1911C35.3237 69.411 34.9918 69.5089 34.8543 69.3867C34.6302 69.1881 34.4774 69.333 34.3509 69.4137C34.0145 69.6282 33.7288 69.6075 33.3852 69.411C32.395 68.844 31.3735 68.3229 30.7898 67.2835C30.0864 66.9107 29.8806 66.1535 29.4435 65.5778C29.2309 65.298 29.1632 64.9125 29.0149 64.5367C29.2734 64.1679 29.6489 64.2655 30.103 64.4874C30.0592 64.2779 30.0711 64.085 29.9813 63.966C29.8571 63.8025 29.9898 63.7382 30.0602 63.7092C30.3799 63.5783 30.7106 63.4823 30.9738 63.2351C31.0381 63.1745 31.2201 63.1985 31.333 63.2318C31.5348 63.2918 31.7076 63.418 31.9317 63.2395C31.9953 63.1892 32.2021 63.2898 32.3321 63.3457C33.4488 63.8261 34.4594 64.4285 35.1207 65.4945C35.2098 65.6384 35.4105 65.791 35.5605 65.9279C35.9908 66.3194 36.0714 66.8897 36.4044 67.3118C36.6255 67.5927 36.5772 67.8392 36.4459 68.1294" fill="white"/>
<path fill-rule="evenodd" clip-rule="evenodd" d="M92.7551 25.7701C92.7796 25.6025 92.8041 25.4346 92.8313 25.25C92.8987 25.298 92.9586 25.317 92.9742 25.354C93.212 25.9237 93.5082 26.4697 93.648 27.079C93.7358 27.4621 93.8477 27.8289 93.4691 28.1274C93.2113 28.3306 93.4729 28.9143 92.8929 28.8817C92.6194 29.3118 92.1813 29.2688 91.7622 29.2395C91.6677 29.5273 91.6088 29.8078 91.4853 30.058C91.3462 30.3398 90.9016 30.4195 90.4251 30.2862C90.3162 30.2559 90.2111 30.1523 90.1115 30.1609C89.3393 30.2269 89.3407 30.2326 89.0158 29.6362C88.8536 29.3387 88.6576 29.0546 88.5318 28.7431C88.3787 28.3633 88.1406 28.1261 87.7491 27.9622C87.1678 27.7187 86.7902 27.2249 86.6898 26.6376C86.599 26.1059 86.8531 25.6182 87.3378 25.235C87.578 25.5422 87.8175 25.8484 88.1532 26.2775C88.1532 25.8384 88.1484 25.5429 88.1545 25.2477C88.1607 24.9542 88.1933 25.0142 88.6675 24.805C89.0063 24.6554 89.4971 24.8366 89.692 24.3762C90.0268 24.3635 90.3611 24.3515 90.6958 24.3389C91.3139 24.3149 91.8622 24.3809 92.1503 25.0538C92.2646 25.3203 92.5385 25.5216 92.7551 25.7701" fill="white"/>
<path fill-rule="evenodd" clip-rule="evenodd" d="M1.29877 30.1843C0.566761 30.029 0.309604 29.5206 0.242934 29.0739C0.157555 28.5025 -0.0400747 27.9425 0.00720685 27.3385C0.0684347 26.5566 0.0640127 25.7634 0.00414546 24.9815C-0.0247677 24.6021 0.223885 24.3212 0.218103 23.9664C0.216742 23.8741 0.347702 23.6956 0.40961 23.6992C0.887187 23.7259 1.11407 23.2195 1.61478 23.2165C1.94643 23.2148 2.27638 22.9103 2.64851 22.7198C3.0152 23.0789 3.79517 22.6348 4.09247 23.4267C3.8979 23.9831 4.38262 24.4718 4.54691 25.0418C4.5697 25.1214 4.65508 25.1924 4.65576 25.2677C4.66358 26.1655 4.66052 27.063 4.66052 28.0381C4.51222 27.9092 4.44793 27.8536 4.28839 27.7146C4.3384 27.9255 4.32887 28.0871 4.40235 28.1417C4.48058 28.2004 4.64556 28.1354 4.75645 28.1717C4.80679 28.188 4.83366 28.3183 4.8391 28.3989C4.84183 28.4359 4.75985 28.5175 4.72992 28.5115C4.50541 28.4686 4.28397 28.4086 4.04144 28.3493C3.87579 28.7004 3.69891 29.0752 3.56693 29.3554C3.31419 29.3371 3.16316 29.3257 3.01247 29.3147C3.27677 29.5759 2.97302 29.6699 2.86315 29.8305C2.75123 29.9934 2.66926 30.1759 2.58048 30.3382C1.99677 30.2762 1.77907 29.9077 1.62294 29.4197C1.51239 29.6809 1.41273 29.9151 1.29877 30.1843" fill="white"/>
<path fill-rule="evenodd" clip-rule="evenodd" d="M69.5851 71.9654C69.1051 71.9521 68.651 71.8252 68.419 72.3462C68.0272 71.8405 67.9809 71.4817 68.3799 71.0799C68.6555 70.8028 68.8371 70.4566 69.1881 70.2171C69.4953 70.0072 69.6082 69.5431 69.8729 69.2476C70.0763 69.0204 70.3817 68.8805 70.642 68.7023C70.7233 68.7799 70.811 68.8645 70.9495 68.9974C70.8025 69.0997 70.6583 69.2003 70.5137 69.3006C70.5297 69.3369 70.546 69.3732 70.562 69.4095C70.7736 69.3769 70.9848 69.3442 71.2226 69.3076C71.2859 69.4005 71.3593 69.6391 71.5168 69.7194C72.4628 70.2018 73.0666 71.007 73.6414 71.8335C73.8302 72.1047 73.8952 72.4555 74.0469 72.7557C74.4214 73.4976 74.518 73.6345 74.4041 74.3088C74.3218 74.7962 74.2309 75.3159 73.8401 75.713C73.6857 75.8696 73.521 76.0958 73.5129 76.2963C73.4925 76.8027 73.2084 76.8837 72.7907 76.8577C72.674 76.8504 72.5506 76.865 72.437 76.895C71.7083 77.0869 71.6332 77.0669 71.2699 76.5199C70.7318 75.71 70.4746 74.7839 70.1617 73.8837C69.9406 73.2477 69.7718 72.5938 69.5851 71.9654" fill="white"/>
<path fill-rule="evenodd" clip-rule="evenodd" d="M57.7885 61.9978C57.2732 61.7113 56.7514 61.4604 56.3313 61.0456C55.5486 60.2714 54.7084 59.5461 53.9863 58.7213C53.2271 57.8541 52.4233 56.9992 51.9651 55.9825C52.0134 55.581 52.5474 56.0075 52.5576 55.5337C52.5607 55.3985 52.8992 55.2679 53.0869 55.1396C53.5529 54.8211 53.8131 54.7678 54.1526 55.1216C54.4877 55.4711 54.8751 55.5964 55.3136 55.6873C55.9908 55.8279 56.4582 56.3373 57.0378 56.6508C57.6579 56.9859 58.0998 57.5256 58.6035 57.9943C58.8644 58.2369 59.1886 58.4231 59.4128 58.6916C59.6383 58.9618 59.8455 59.2866 59.9254 59.6188C59.9737 59.821 59.8186 60.1261 59.6607 60.3064C59.4658 60.5286 59.3737 60.8494 59.0325 60.957C58.8352 61.019 58.8631 61.2349 58.8246 61.4128C58.7804 61.617 58.7223 61.8655 58.3603 61.609C58.1073 61.4301 57.8943 61.6839 57.7885 61.9978" fill="white"/>
<path fill-rule="evenodd" clip-rule="evenodd" d="M95.1354 56.7429C94.0782 56.3165 93.6238 55.5236 93.1721 54.7531C92.7751 54.0758 92.4132 53.3705 92.1179 52.6452C91.8237 51.921 91.3104 51.2347 91.5393 50.3232C92.2081 50.7796 92.1526 51.6521 92.7948 52.2355C92.6771 51.3127 92.1883 50.5997 91.9445 49.6276C92.2819 49.8088 92.4043 49.8745 92.554 49.9548C92.5829 49.7965 92.6132 49.6306 92.6431 49.4654C92.9227 49.4134 93.1986 49.3621 93.5245 49.3015C93.6109 49.4367 93.7241 49.6366 93.8588 49.8218C94.384 50.5424 94.3871 50.5391 95.3409 50.8712C95.4474 50.9085 95.547 50.9692 95.6436 51.0291C96.3824 51.4862 97.0549 52.0013 97.4614 52.7958C97.6118 53.0897 97.8165 53.6294 97.8074 53.9422C97.8053 54.0155 97.8679 54.1014 97.9223 54.1634C98.0611 54.321 97.9985 54.4552 97.855 54.5348C97.4383 54.765 97.2577 55.2181 96.8876 55.4893C96.7297 55.6049 96.7015 55.7588 96.6729 55.9497C96.6335 56.2096 96.113 56.5464 95.8709 56.4917C95.7208 56.4578 95.6239 56.1879 95.4195 56.3868C95.3123 56.4914 95.2307 56.6213 95.1354 56.7429" fill="white"/>
<path fill-rule="evenodd" clip-rule="evenodd" d="M65.0942 35.5696C64.9323 35.5959 64.7625 35.6233 64.5282 35.6612C64.6207 35.8311 64.6867 35.9517 64.7557 36.0783C64.3152 36.5098 63.8567 36.9588 63.3839 37.4223C63.3077 37.4223 63.2145 37.4086 63.1267 37.4243C62.0862 37.6128 61.3933 37.0345 60.8154 36.3372C60.364 35.7925 59.9759 35.1925 59.6738 34.5379C59.4854 34.1291 59.317 33.7526 59.4517 33.1973C59.7674 33.8769 60.0487 34.4819 60.33 35.0872C60.38 35.0712 60.43 35.0556 60.4803 35.0396C60.4575 34.9243 60.4541 34.8007 60.4086 34.6948C60.2204 34.257 60.0065 33.8293 59.8293 33.3879C59.7507 33.1923 59.5823 32.9488 60.0113 32.8578C60.1436 32.8298 60.2211 32.5503 60.3222 32.3848C60.4106 32.2395 60.4963 32.0926 60.5664 31.9753C61.0001 31.9363 61.0042 32.3078 61.2746 32.461C61.2117 32.2272 61.1487 31.9933 61.0657 31.6855C61.2045 31.5779 61.3899 31.434 61.5753 31.2897C61.6923 31.4036 61.8474 31.5852 61.9913 31.2504C62.1474 30.8886 62.3781 30.7477 62.7519 30.9852C62.7859 31.0069 62.8563 31.0235 62.8788 31.0055C63.3118 30.6561 63.5669 31.0042 63.7672 31.2714C64.2455 31.91 64.4707 32.6769 64.7571 33.4065C64.8244 33.5777 64.9711 33.9799 64.4778 33.9992C64.4499 34.0002 64.4285 34.1504 64.4044 34.231C64.5071 34.2554 64.6649 34.3333 64.704 34.2947C64.9806 34.0232 65.1296 34.3776 65.1024 34.4399C64.936 34.8227 65.3214 35.1925 65.0942 35.5696" fill="white"/>
<path fill-rule="evenodd" clip-rule="evenodd" d="M61.735 16.1822C61.8438 16.2888 61.953 16.3957 62.1187 16.5576C62.149 16.3008 62.1741 16.0889 62.2017 15.8577C62.5833 15.7794 62.9769 15.6808 63.3766 15.6228C63.6181 15.5878 63.8732 15.5888 64.114 15.6251C64.2977 15.6531 64.1535 15.9883 64.496 16.0176C64.7175 16.0366 64.8875 16.405 65.045 16.6616C65.1729 16.8698 64.9814 17.3205 65.4672 17.2935C65.4838 17.5884 65.5005 17.8835 65.5178 18.1784C65.5192 18.207 65.526 18.2353 65.5304 18.264L66.9087 19.6139C67.0564 19.6139 67.2128 19.5952 67.3622 19.6182C67.5924 19.6545 67.8404 19.8781 67.7224 20.0167C67.4598 20.3248 67.9306 20.5377 67.7438 20.7892C67.0264 20.9998 66.8002 21.0231 66.2165 20.9232C66.3628 21.2327 66.49 21.5025 66.6499 21.8416C66.5567 21.9293 66.4339 22.1428 66.3128 22.1421C65.5485 22.1365 64.744 22.3264 64.0627 21.795C63.878 21.6508 63.6548 21.5378 63.5113 21.3616C63.1837 20.9598 62.8905 20.5311 62.5915 20.1073C62.4442 19.8984 62.3184 19.6745 62.1768 19.4613C61.9578 19.1312 62.0228 18.6554 61.621 18.4192C61.6819 18.0188 61.4513 17.716 61.304 17.3705C61.1037 16.9011 61.2278 16.452 61.735 16.1822" fill="white"/>
<path fill-rule="evenodd" clip-rule="evenodd" d="M33.1053 2.71447C33.4668 2.71447 33.7141 2.71413 33.9611 2.71447C34.2921 2.71513 34.6502 2.66083 34.7261 3.12923C34.7343 3.1812 34.8581 3.26083 34.9173 3.2525C35.3091 3.19553 35.4108 3.55832 35.6506 3.7179C36.3014 4.15099 36.3973 4.86426 36.5599 5.52389C36.6527 5.90001 36.5286 6.16986 36.0915 6.42605C35.601 6.71355 34.987 6.89212 34.6502 7.41449C34.3529 7.42015 34.1097 7.87556 33.7624 7.5111C33.7121 7.45846 33.6005 7.44081 33.5179 7.44214C32.3471 7.46413 31.6144 6.80583 31.0024 5.92799C30.6919 5.48291 30.3031 5.08513 30.1813 4.53711C30.1313 4.31223 30.102 4.0817 30.0857 3.85216C30.0799 3.77687 30.1252 3.64628 30.1789 3.62729C30.65 3.46238 30.9926 3.06893 31.4494 2.90869C32.0127 2.71147 32.6151 2.65217 33.1053 2.71447" fill="white"/>
<path fill-rule="evenodd" clip-rule="evenodd" d="M31.6181 46.7853C31.7539 46.9942 31.8535 47.1481 32.0474 47.4469C32.0909 47.1304 32.1076 47.0221 32.1202 46.9135C32.161 46.5534 32.1603 46.5541 32.625 46.5078C32.6832 46.5018 32.7726 46.5094 32.7934 46.4771C33.0053 46.15 33.3363 46.0584 33.6703 46.157C34.0489 46.2686 34.4554 46.4085 34.7499 46.6517C35.8993 47.6005 36.5755 48.8721 37.1007 50.2214C37.1899 50.4516 37.1133 50.7434 37.1133 51.0032C36.9756 50.9883 36.8674 50.9766 36.7589 50.9646C36.7824 51.2904 36.7072 51.5319 36.318 51.6089C36.2014 51.6322 36.0418 51.8028 36.0303 51.9177C35.9912 52.3102 35.5796 52.119 35.436 52.3232C35.2068 51.9657 34.8122 52.3985 34.5543 52.1429C34.3074 51.8984 33.9693 51.7098 33.806 51.4227C33.4465 50.79 33.1022 50.1317 32.8917 49.4428C32.7842 49.0903 32.6246 48.8561 32.3474 48.6962C31.8974 48.4374 31.5477 48.1092 31.328 47.6428C31.1446 47.2534 31.1368 47.257 31.6181 46.7853" fill="white"/>
<path fill-rule="evenodd" clip-rule="evenodd" d="M49.0043 36.2181C49.0043 36.1279 48.9822 36.0023 49.0122 35.8897C49.0322 35.8144 49.1639 35.7631 49.1754 35.6908C49.188 35.6118 49.0935 35.5212 49.0924 35.4352C49.0918 35.359 49.2013 35.2653 49.1799 35.209C49.1407 35.1054 49.053 35.0095 48.9628 34.9375C48.903 34.8896 48.8033 34.8889 48.6802 34.8562C48.738 35.0531 48.7846 35.2117 48.8315 35.3706C48.504 35.1751 48.14 35.0191 48.3002 34.5477C48.4356 34.6044 48.5686 34.6607 48.7336 34.73C48.7866 34.1626 48.2495 34.4578 48.0427 34.1893C48.3455 34.2243 48.5472 34.02 48.8516 34.0597C48.9928 34.078 49.1765 33.7842 49.3928 33.5836C49.6932 33.8238 50.0299 34.0927 50.4238 34.4075C50.4622 34.1773 50.4898 34.0134 50.5231 33.8138C50.9684 33.7295 51.4249 33.6433 51.8865 33.556C52.1236 33.8525 52.3089 34.123 52.5348 34.3559C52.7307 34.5571 53.0001 34.6913 53.1889 34.8975C53.7216 35.4799 53.9631 36.2151 54.1822 36.9424C54.2608 37.2026 54.3472 37.6144 53.8393 37.684C53.8417 38.1617 53.3274 38.233 53.0954 38.5358C52.8046 38.915 52.2902 38.9803 51.7351 38.7607C50.9038 38.4319 50.3575 37.7963 49.8265 37.1773C49.5608 36.8671 49.2625 36.5746 49.0043 36.2181" fill="white"/>
<path fill-rule="evenodd" clip-rule="evenodd" d="M64.2923 48.0003C64.4419 48.0503 64.5865 48.0982 64.7522 48.1536C64.7858 47.3893 63.9793 47.1751 63.8671 46.4715C64.0303 46.5421 64.1633 46.5721 64.2596 46.6471C64.414 46.7677 64.544 46.9176 64.7365 47.1061C64.6709 46.723 64.6273 46.6351 64.4042 46.3729C64.892 45.7952 64.892 45.7952 65.4678 45.7932C65.7845 46.1427 66.055 46.6031 66.4608 46.8456C66.9087 47.1138 67.0407 47.5715 67.371 47.8997C67.6867 48.2139 67.8962 48.6416 68.1054 49.0431C68.2204 49.2629 68.318 49.5438 68.2806 49.775C68.233 50.0671 68.1057 50.4966 67.8949 50.5795C67.5479 50.7164 67.6254 50.9566 67.5163 51.1632C67.3666 51.4454 67.1618 51.7199 66.7863 51.7805C66.5669 51.8158 66.3056 51.9797 66.1448 51.9088C65.7532 51.7359 65.3488 51.5157 65.0593 51.2135C64.513 50.6432 64.0246 50.0158 63.5572 49.3802C63.4398 49.221 63.4939 48.9411 63.4592 48.6263C63.615 48.7495 63.6769 48.7982 63.8082 48.9018C63.7402 48.4384 64.1538 48.2795 64.2923 48.0003" fill="white"/>
<path fill-rule="evenodd" clip-rule="evenodd" d="M59.4151 81.322C59.1617 81.1858 59.0396 81.1201 58.9212 81.0562C58.7127 81.7941 58.661 81.8324 58.045 81.5666C58.2076 81.9374 58.3378 82.2339 58.4797 82.5563C58.3188 82.6476 58.1542 82.7416 57.9878 82.8362C57.6871 82.542 57.382 82.2432 57.0487 81.9164C56.848 82.3591 57.4004 82.5637 57.346 82.9911C56.8503 83.0587 56.5629 82.7286 56.2775 82.4247C56.1217 82.2588 56.0374 82.0273 55.8768 81.8674C55.1611 81.1558 54.5182 80.3866 53.9189 79.5803C53.8651 79.5081 53.7907 79.4501 53.724 79.3875C53.3627 79.05 52.9841 78.7238 52.9573 78.1738C53.3178 77.9576 53.5093 78.2907 53.7546 78.497C54.0039 78.0929 53.427 78.0389 53.4529 77.741C53.475 77.3819 54.1726 77.84 53.9954 77.253H54.9999C55.2873 77.4512 55.5789 77.6474 55.8646 77.851C56.1513 78.0552 56.3408 78.3487 56.6918 78.5149C57.0327 78.6769 57.2585 79.0586 57.5586 79.3175C57.7541 79.4864 57.8783 79.7186 58.1909 79.7946C58.4171 79.8492 58.5379 80.1853 58.8814 80.142C58.977 80.1297 59.1495 80.2989 59.1981 80.4192C59.291 80.6484 59.3195 80.9019 59.4151 81.322" fill="white"/>
<path fill-rule="evenodd" clip-rule="evenodd" d="M53.0414 20.5566C53.3604 20.5773 53.5808 20.4157 53.8727 20.6219C53.7244 20.6719 53.6169 20.7082 53.4995 20.7479C53.6091 21.112 53.7309 21.4738 53.8203 21.8429C53.8431 21.9375 53.7924 22.1244 53.7254 22.1521C53.3533 22.306 53.2407 22.6981 52.9509 22.913C52.8226 23.0083 52.6305 23.0392 52.4628 23.0579C52.3787 23.0669 52.2798 22.9426 52.1957 22.9513C52.0933 22.962 51.9995 23.0496 51.8916 23.1095C51.7324 22.5585 51.7406 22.5362 51.1137 22.327C50.7385 22.2017 50.6606 21.8406 50.3946 21.6134C50.3351 21.7376 50.2776 21.8576 50.2133 21.9922C50.1198 21.8962 49.9623 21.8089 49.9626 21.7223C49.9674 20.6399 49.9664 20.6156 49.4619 19.967C49.1775 20.4564 49.7225 20.7395 49.7521 21.2183C49.617 21.1976 49.4153 21.2129 49.3918 21.1566C49.1548 20.5923 48.7935 20.0593 49.1639 19.3823C49.2789 19.1721 49.2997 19.0618 49.5578 19.0575C49.717 19.0552 49.8881 18.9635 50.03 18.8756C50.3977 18.648 50.7518 18.4002 51.1447 18.138C51.2345 18.2693 51.3175 18.3909 51.2974 18.3612C51.6073 18.5728 51.9304 18.0031 51.9821 18.5971C51.9971 18.7656 52.3818 18.3635 52.3818 18.805C52.3818 18.9755 52.7019 19.1464 52.8628 19.304C52.8053 19.4499 52.7509 19.5892 52.6961 19.7284C52.7417 19.7594 52.7873 19.7904 52.8332 19.8214C52.9138 19.6711 52.9944 19.5209 53.0961 19.332C53.2618 19.6078 53.358 19.7674 53.4842 19.977C53.3472 20.1562 53.1944 20.3564 53.0414 20.5566" fill="white"/>
<path fill-rule="evenodd" clip-rule="evenodd" d="M21.8593 47.6947C21.6457 47.4308 21.4766 47.222 21.2888 46.9894C21.1933 47.181 21.1324 47.3026 21.0531 47.4612C20.6963 47.2973 20.4561 47.0267 20.2517 46.7446C19.8 46.1206 19.4506 45.4323 18.9928 44.8073C18.7112 44.4232 18.6945 43.9405 18.8057 43.4408C19.2285 43.3568 19.32 43.8435 19.6724 43.9665V43.082C20.3385 42.99 20.9803 42.9014 21.5688 42.8204C22.1862 43.3635 22.5927 43.9501 22.8808 44.6278C23.0454 45.0139 23.3845 45.3037 23.4876 45.7455C23.5284 45.92 23.2998 46.1549 23.5811 46.2848C23.5859 46.2868 23.4975 46.4994 23.4947 46.4984C23.0355 46.3361 22.8811 46.9884 22.4392 46.8838C22.4107 46.8768 22.3324 47.0441 22.2886 47.1357C22.2399 47.2363 22.2181 47.3516 22.1583 47.4442C22.1141 47.5135 22.0283 47.5568 21.8593 47.6947" fill="white"/>
<path fill-rule="evenodd" clip-rule="evenodd" d="M42.4062 58.6831C42.5389 58.9836 42.6355 59.2024 42.7736 59.5146C42.8613 59.2871 42.9018 59.1828 42.9447 59.0722C42.9862 59.0972 43.0542 59.1145 43.0631 59.1471C43.1467 59.4586 43.2978 59.7248 43.5274 59.9614C43.6648 60.1029 43.7641 60.2852 43.8577 60.4607C44.0226 60.7716 44.2567 60.9838 44.6356 61.0497C44.6951 60.9318 44.7564 60.8099 44.7849 60.7532C44.9604 60.8818 45.1513 61.0221 45.2935 61.1264C45.2935 61.2396 45.3057 61.2883 45.2918 61.2973C45.1237 61.4042 44.9519 61.5051 44.7951 61.5991C44.8407 61.8473 44.8815 62.0722 44.9431 62.409C44.6652 62.2767 44.5131 62.2041 44.2941 62.0995C44.1726 62.3387 44.0509 62.5792 43.9199 62.8377C43.7954 62.8514 43.6495 62.868 43.4709 62.8877V63.2915C43.0049 63.6333 42.6236 63.5873 42.2195 63.2265C41.7793 62.8334 41.283 62.5013 40.834 62.0332C41.0228 61.9109 41.2051 61.793 41.4051 61.6637C41.3031 61.2973 41.1198 60.9701 40.8555 60.6503C40.5912 60.3301 40.4463 59.915 40.2561 59.5546C40.5279 59.2264 40.7425 59.4693 40.9919 59.5719C41.0024 59.4803 41.0456 59.3827 41.016 59.3167C40.8299 58.9069 40.9106 58.7044 41.3048 58.6867C41.6749 58.6697 42.0463 58.6831 42.4062 58.6831" fill="white"/>
<path fill-rule="evenodd" clip-rule="evenodd" d="M16.0041 62.2755C16.1596 62.5007 16.2864 62.6849 16.445 62.9144C16.4861 62.7888 16.5426 62.7079 16.5297 62.6402C16.4664 62.3121 16.3844 61.9876 16.2987 61.6175H16.8378C16.8844 61.7124 16.9416 61.8287 17.0545 62.0589V61.3167C17.16 61.2803 17.2498 61.2694 17.3127 61.2237C17.4566 61.1188 17.6845 60.8806 17.7079 60.8992C17.9437 61.0891 18.2348 60.9745 18.4634 61.0605C18.8043 61.1884 19.1281 61.4116 19.1237 61.8374C19.1223 61.9646 18.9502 62.1062 18.976 62.2132C18.9971 62.3001 19.2352 62.3194 19.3063 62.4177C19.3645 62.498 19.3693 62.7132 19.3094 62.7602C19.0689 62.9481 19.122 63.1913 19.1383 63.4191C19.159 63.7037 19.0318 63.8766 18.774 63.9482C18.4985 64.0248 18.4342 64.1977 18.3764 64.4559C18.2944 64.8207 18.0389 65.0632 17.6069 65.0452C17.4576 65.0392 17.3028 65.0426 17.1579 65.0735C16.7892 65.1525 16.3245 65.0659 16.2096 64.801C15.9289 64.1547 15.5228 63.5441 15.5983 62.7835C15.6279 62.487 15.8102 62.4027 16.0041 62.2755" fill="white"/>
<path fill-rule="evenodd" clip-rule="evenodd" d="M45.7534 45.9301C45.9841 45.9963 46.2249 46.0653 46.5208 46.1503C46.6463 45.8574 46.6834 45.5763 46.4188 45.3147C46.744 45.0252 46.9603 45.4616 47.279 45.4143C47.3086 45.2568 47.3403 45.0909 47.3709 44.9283C47.6205 44.6664 47.8457 45.1495 48.1474 44.9216C48.456 44.6884 48.5339 45.1918 48.7961 45.2494C48.9434 45.2818 49.0812 45.432 49.1863 45.5586C49.5346 45.977 49.589 46.569 50.0581 46.9345C50.1703 47.0218 50.1105 47.3219 50.1357 47.5888C49.6156 47.3386 49.5839 48.1468 49.0829 47.9552C48.9288 48.1994 49.0744 48.6422 48.5107 48.6952C48.4512 48.5959 48.358 48.4403 48.2253 48.2184C48.1124 48.4493 48.0576 48.5612 48.0015 48.6765C47.6859 48.7498 47.5413 48.4833 47.4375 48.3137C47.093 47.749 46.6467 47.3169 46.0694 46.9791C45.7143 46.7712 45.5194 46.4324 45.7534 45.9301" fill="white"/>
<path fill-rule="evenodd" clip-rule="evenodd" d="M41.2398 21.7914C40.8021 22.1272 40.4793 22.375 40.0626 22.6952H39.2833C38.9799 22.2654 38.8812 21.7001 38.4339 21.3453C38.387 20.7469 37.9645 20.3762 37.5975 19.9591C37.4808 19.8261 37.506 19.5736 37.4563 19.3264C37.5903 19.2898 37.723 19.2924 37.7924 19.2288C38.5043 18.5768 39.1751 18.9433 39.7425 19.388C40.2269 19.7675 40.6357 20.2695 40.9789 20.7806C41.1735 21.0701 41.1684 21.4882 41.2398 21.7914" fill="white"/>
</svg>
