<svg width="111" height="115" viewBox="0 0 111 115" fill="none" xmlns="http://www.w3.org/2000/svg">
<path d="M105 106.167C105 106.167 67.5 97.9303 58 65.897" stroke="white" stroke-width="2.5" stroke-linecap="round"/>
<path d="M37.2039 32.9344C37.2203 33.2464 37.0053 33.5885 36.5588 33.9604L35.5913 33.7975L34.4989 33.2642L34.0303 32.8108L33.7696 32.384L33.5742 32.1834C33.1541 31.7568 32.8581 31.3352 32.686 30.9187C32.6463 30.8226 32.6207 30.6925 32.6092 30.5284L32.6374 30.4605L32.4968 29.9841L31.9901 29.5746L31.9671 29.2465L31.7602 28.8819L31.6452 28.5355C31.5178 28.3631 31.4242 28.2048 31.3647 28.0607L31.315 27.9405C31.1959 27.6521 31.0367 27.3803 30.8375 27.1251L30.5595 26.4522L30.2126 26.0892L30.0256 25.7726L29.8349 25.992L29.4631 27.2709L29.098 28.2938L29.0322 28.8836L28.6248 30.0084L28.036 30.8986L28.1285 31.3949L27.7174 31.7616L27.7305 32.0657L27.263 32.5682L27.2594 33.1042L26.8864 33.4271L26.7234 34.3946L26.5046 34.6819C26.5216 34.7687 26.5525 34.9341 26.5971 35.1782C26.4097 35.4057 26.1799 35.5756 25.9075 35.6881L25.7633 35.7477L25.3344 35.3904L24.7754 35.0587L24.7143 34.7745L24.335 34.5374L24.3857 34.3195L24.3517 34.3054L24.0727 33.9706L23.8209 33.9058C23.3908 33.7272 23.0347 33.5461 22.7525 33.3626L22.4198 32.9656L22.0703 32.8005L21.2662 32.148L20.5672 31.8179L20.2799 31.5991L19.6248 31.3071L18.8322 30.8187C18.7473 30.7037 18.6142 30.6087 18.4331 30.5334C18.6233 31.13 18.6946 31.5976 18.6469 31.9361L18.5121 32.8357L18.8507 33.3147L18.8528 33.9327L18.9877 35.6212L18.994 36.1812L19.075 36.5134L19.0181 37.4653L18.9001 38.1329L19.1467 38.5936C19.1564 38.8897 19.1361 39.2263 19.0856 39.6035L19.468 40.1206C19.1954 40.7771 18.9389 41.155 18.6986 41.2543C18.4423 41.3602 18.2004 41.3195 17.973 41.1321C17.8079 41.0503 17.6762 40.9359 17.578 40.7889L17.5383 40.6928C17.3369 39.3882 17.2843 38.716 17.3804 38.6763C17.3964 38.6697 17.4077 38.6744 17.4144 38.6904L17.2456 38.2819C17.0735 37.8654 17.1047 37.4868 17.339 37.1462L17.2795 37.002L17.2251 36.4618L17.1316 36.3035C17.0985 36.2234 17.078 35.9694 17.0699 35.5413L17.1263 35.4055L16.8823 34.7468L16.9539 34.239L16.818 32.8886L16.3901 32.1933L16.5933 31.7999L16.5635 31.7278L16.2244 30.7707L16.1277 30.3325C16.1228 30.1844 16.1005 30.0624 16.0608 29.9662L16.0211 29.8701L15.2949 29.2699L15.2265 28.7637L15.3989 28.6362L15.4678 28.3264L15.3643 28.1441L15.5576 27.7267L15.8136 27.7335L16.0027 27.3741L16.359 27.2831L17.1285 27.4435L17.198 27.6117L17.4738 27.6665L17.7982 28.1795L18.026 28.2542L18.3588 28.6512L18.3505 28.7672L18.6362 28.8461C18.7125 28.7583 18.7907 28.6979 18.8708 28.6648C18.9868 28.6731 19.1579 28.7243 19.3843 28.8183L19.5714 29.1349L19.8869 29.2859L20.2636 29.721L21.8058 30.3217L22.2462 30.843L22.7059 30.9344L23.4875 31.7368L24.7685 32.7267C24.7911 32.7361 24.8624 32.7723 24.9822 32.8353L25.06 32.8876L25.3003 32.7883L25.3238 32.3004L25.7516 31.7016C25.9546 31.1489 26.0495 30.8565 26.0363 30.8245C26.0296 30.8085 26.0103 30.8071 25.9783 30.8203L25.9542 30.8303C26.0079 30.7331 26.0888 30.634 26.1971 30.533C26.2093 30.4717 26.2917 30.3533 26.4442 30.1777C26.4571 29.8911 26.5732 29.6275 26.7926 29.3868L26.8292 29.2029L26.7398 28.9866C26.9258 28.3472 27.1224 27.9378 27.3296 27.7584C27.2237 27.5021 27.376 27.1672 27.7866 26.7538L27.971 25.9744L27.9464 25.5063L28.2107 25.3971C28.2706 24.9973 28.3075 24.7007 28.3214 24.5074L28.5983 24.2242L28.7764 24.1788L28.5298 23.718L28.115 23.3268L28.243 22.6832L28.187 22.003C28.3312 21.9434 28.4641 21.8792 28.5856 21.8102C28.7072 21.7412 28.7599 21.7101 28.7439 21.7167C28.84 21.677 29.0974 21.6644 29.516 21.679L29.6435 21.8514L29.9972 21.9585L30.1006 22.1408L30.4203 22.2338L30.3498 22.4036C30.6298 22.4004 30.8062 22.4869 30.879 22.6632C30.9055 22.7272 30.9226 22.814 30.9303 22.9233L31.0891 23.3078C31.141 23.3426 31.2967 23.4471 31.5561 23.6212L31.4616 23.8009L31.4872 23.931L31.5452 23.9352L31.7761 24.2899L32.2217 24.4152L32.0964 24.8609L32.1946 25.4392L32.5217 25.7542L32.7019 26.3267L33.216 26.9583C33.4445 27.239 33.5985 27.4754 33.6779 27.6677C33.7242 27.7798 33.715 27.9618 33.6502 28.2136C33.7888 28.2313 33.8846 28.3043 33.9376 28.4325C33.9839 28.5446 33.9954 28.7086 33.9721 28.9246L34.1079 28.981L34.5917 30.3565L35.1638 30.9922L35.4914 31.7852C35.6471 31.8897 35.7934 32.0168 35.9302 32.1665C35.9821 32.2013 36.2378 32.3208 36.6972 32.5249C36.9528 32.6443 37.1217 32.7808 37.2039 32.9344ZM45.3523 23.0418L45.3868 23.5339C45.5588 23.9504 45.6705 24.2887 45.7217 24.5489L45.6768 24.8488L45.786 25.1131L45.7353 25.3309L45.8022 25.6971L45.6471 26.0707L45.7271 26.7409L45.5646 26.8924L45.5777 27.1965L45.3588 27.4838L45.3353 27.9717L45.1065 28.235L45.2016 28.5333L44.8145 28.8902C44.7254 29.2646 44.5452 29.5547 44.2739 29.7605L44.1877 29.8243C44.1024 30.2533 43.8755 30.544 43.507 30.6962C43.3866 30.8585 43.2222 30.9827 43.0139 31.0687L42.8431 31.3362L42.6326 31.5076L42.4195 31.8769L42.0971 31.9819L41.8004 32.217L41.3224 32.2176L40.2593 32.5724L39.6706 32.1686L38.9136 31.8343L38.8749 31.4002L38.1769 30.732L38.2161 30.3502L37.8577 29.8231L37.8289 29.413C37.7042 29.2019 37.622 29.0483 37.5823 28.9522C37.4566 28.6478 37.444 28.3905 37.5446 28.1801C37.4945 28.0133 37.4894 27.7059 37.5294 27.2581L37.6496 27.2084L37.532 27.0601L37.4652 26.6939L37.3162 26.3334C37.3848 26.1363 37.4172 26.0104 37.4134 25.9557L37.2023 25.6491L37.1626 25.5529C37.1821 25.2823 37.1422 25.0269 37.0429 24.7866L37.2597 23.8812C37.2597 23.8812 37.2691 23.8586 37.2879 23.8133C37.3227 23.7614 37.3495 23.7128 37.3683 23.6675L37.3046 23.5814L37.4007 23.5416L37.5924 22.9842L37.3881 22.4216L37.8995 21.9572C38.0642 21.7203 38.1092 21.4205 38.0343 21.0576L38.3466 20.9285C38.4832 20.7596 38.6235 20.6453 38.7677 20.5858C38.9119 20.5262 39.0613 20.502 39.2159 20.5131L39.4902 20.428L40.0157 19.9296L40.4812 20.103L40.815 20.162L41.0072 20.0826L41.4471 20.1259L41.6393 20.0465C41.927 20.1527 42.2765 20.3178 42.6878 20.5417L42.7855 20.642L42.9935 20.6686L43.7661 21.1089L44.6893 22.0497L44.7885 22.29L45.3523 23.0418ZM44.0045 24.2737L43.9309 24.1635C43.7724 24.0976 43.6587 24.004 43.5897 23.8824L43.6122 23.7325L43.2073 23.3653L43.0667 22.8888L42.921 22.8084C42.6465 22.7342 42.4814 22.6524 42.4257 22.5629C42.2551 22.5584 42.1168 22.4279 42.0109 22.1716L41.8568 22.2072L41.3699 21.8457L41.0841 21.7668L40.5001 21.783L40.288 21.8144C40.1918 21.8541 40.1145 21.8485 40.056 21.7977L39.7938 22.5249L39.7594 23.3268L39.3639 23.7996L39.4011 24.0937L39.2104 24.3131L39.3724 24.9776L39.1436 25.2409C39.1721 25.4917 39.2261 25.7132 39.3056 25.9054L39.07 26.4247L39.2199 26.4472C39.2993 26.6394 39.2967 26.8374 39.2121 27.0412C39.2236 27.2052 39.2257 27.3919 39.2184 27.6012L39.2978 27.7934L39.2654 27.9193L39.4086 28.1978L39.4123 28.9558L39.51 29.0561L39.788 29.7289L39.8308 30.105L39.9938 30.4315L40.3392 30.6546L40.7252 30.6358L40.8652 30.6342L41.0178 30.4587L41.6624 30.2486L41.6592 29.9686L41.7554 29.9289C41.8515 29.8892 41.9175 29.89 41.9534 29.9315L42.1398 29.7701L42.3619 29.7627L42.5849 29.4174L42.6032 29.3255L42.7996 29.188C42.839 28.9655 43.0305 28.6801 43.3742 28.3318L43.3726 28.1918L43.7143 27.6568L43.8198 27.1631L44.1248 26.8121L44.0992 26.682L44.1102 26.368L43.9811 26.0556L44.1702 25.6962L44.1968 25.4883L44.2574 25.2945C44.1139 25.1287 44.0256 25.0057 43.9926 24.9256C43.933 24.7815 43.9182 24.6094 43.9481 24.4095L44.0045 24.2737ZM57.6449 22.2395L57.4956 22.695L57.4893 23.429L57.3567 23.6526L57.3274 24.0585L56.8667 24.3051L56.6833 24.7466L56.2027 24.9451L56.0136 25.3045L55.7195 25.3416L55.4369 25.5428L55.5163 25.735L54.5974 26.0302L54.2229 26.2131L53.9941 26.4764L53.6942 26.4315C53.8478 26.3493 53.9727 26.2883 54.0688 26.2486C53.9472 26.3176 53.576 26.5085 52.955 26.8213L52.873 26.827L52.6708 26.8824L52.4279 27.1797C52.3053 27.1553 52.0993 27.156 51.8099 27.1818C51.4443 27.2953 51.2053 27.3753 51.0932 27.4216L50.901 27.501C50.7822 27.5313 50.6587 27.573 50.5306 27.6259C50.4024 27.6789 50.2875 27.7638 50.1858 27.8809L49.76 27.8036L49.5479 27.8349C49.4999 27.8548 49.4018 27.8672 49.2538 27.872C48.6346 28.0528 48.1331 27.6786 47.7492 26.7495L47.6599 26.5332L47.9775 26.0082L48.4649 25.5536L48.9867 25.5912L49.3232 25.4522L49.3529 25.5243C49.5396 25.5222 49.7207 25.5974 49.8963 25.75L50.0984 25.6946L50.2275 26.007L50.5697 25.95L50.6616 25.9683L53.6581 24.5054L54.3534 24.0775L54.4254 24.0477L54.4239 23.9077L54.7404 23.7207L54.7587 23.6287C55.0753 23.4417 55.348 23.2165 55.5768 22.9532L55.5512 22.8231C55.5285 22.8137 55.4733 22.7709 55.3856 22.6946L55.2753 22.7683L54.8637 22.657L54.6474 22.7464L54.4578 22.6278L54.4901 22.5019L54.2457 22.6592L53.9641 22.5223C53.9226 22.5582 53.8458 22.5993 53.7337 22.6456C53.5254 22.7316 53.3006 22.7776 53.0593 22.7836L52.843 22.8729L52.645 22.8703L52.3582 23.1294L52.0766 22.9926L52.0045 23.0224L51.5589 22.897L50.6949 22.9164L50.3751 22.8234L49.3925 23.0324L49.2269 22.9039L48.3754 22.7494L47.6873 22.1053L47.2302 21.8159L46.6179 20.606L46.6544 20.4221C46.5342 20.0404 46.53 19.6671 46.6418 19.3021C46.8292 19.0746 46.8732 18.8408 46.7739 18.6005L47.1046 18.3795C47.1157 18.2248 47.1943 18.0517 47.3402 17.8602L47.5815 17.4229L48.8572 16.2208L49.0917 16.0395L49.5525 15.7929L50.2561 15.249L51.8097 14.7197L51.9074 14.82C52.0715 14.8085 52.2846 14.8705 52.5469 15.006L52.5965 15.1261L53.0803 15.2076L53.1503 15.8538L53.1916 16.0899C53.2609 16.5301 53.1194 16.823 52.7669 16.9686C52.4786 17.0878 52.206 17.0409 51.9493 16.8282L51.9196 16.7561L51.6213 16.8512L51.3245 17.0863L50.9228 16.9991L50.8042 17.1887C50.596 17.2747 50.4302 17.4182 50.3069 17.6192C50.0666 17.7185 49.874 17.9105 49.7292 18.1954L49.4168 18.3245L49.27 18.582L48.9634 18.7931L48.9352 18.861L48.8208 18.9927L48.6938 19.2983L48.6317 19.3521L48.5544 19.7779L48.3496 20.0313C48.3716 20.266 48.4043 20.4588 48.4478 20.6096C48.5565 20.8272 48.6434 20.9695 48.7086 21.0364C48.7831 21.0806 48.925 21.1063 49.1343 21.1136L49.184 21.2338L49.5658 21.273C49.8619 21.2632 50.0971 21.2879 50.2716 21.3471L50.7522 21.1486L51.1738 21.2838L51.7563 21.1276L52.0321 21.1824L53.0785 21.0596L53.3079 21.2743L53.3345 21.0664C53.5427 20.9803 53.8628 20.9607 54.2947 21.0073L54.757 20.9007L54.8745 21.0491L55.259 20.8902L56.0907 20.9967C56.2568 21.1719 56.5125 21.2914 56.8576 21.3551L57.1915 21.4141L57.2385 21.7322C57.4168 21.8461 57.5424 21.9912 57.6152 22.1674L57.6449 22.2395ZM64.2453 11.7204C64.3049 11.8646 64.217 12.0603 63.9815 12.3076C63.9505 12.4142 63.8602 12.5359 63.7104 12.6728C63.5259 12.8616 63.3987 13.0079 63.3291 13.1116L62.755 13.1519C62.5781 13.45 62.2894 13.6818 61.8889 13.8473L61.5707 13.8943L61.4339 14.1759L60.785 14.4439L60.4857 14.877C60.283 14.8857 60.1016 14.9232 59.9414 14.9894C59.9066 15.0413 59.8077 15.1196 59.6447 15.2245C59.5646 15.2576 59.4665 15.2699 59.3506 15.2616L59.6557 16.2045L59.9577 16.8674L60.2331 17.7383L60.6583 18.6316L60.9091 19.0343L61.0481 19.3708L61.6823 19.9527C61.6541 20.0206 61.6533 20.0866 61.6797 20.1507C61.7261 20.2628 61.9387 20.2781 62.3176 20.1966L62.4848 20.4651L62.6828 20.4677L63.0506 20.5408L63.3024 20.6056C63.4493 20.5074 63.5549 20.445 63.6189 20.4186C63.7631 20.359 63.9172 20.3235 64.0813 20.312C64.1321 20.2534 64.222 20.0851 64.3508 19.8068C64.442 19.6191 64.5517 19.4987 64.6799 19.4458C64.6959 19.4392 64.7199 19.4292 64.752 19.416C64.7906 19.4188 64.818 19.4169 64.834 19.4102C64.8524 19.0463 65.026 18.7402 65.3548 18.4918C65.6912 18.3528 66.0146 18.3411 66.3249 18.4568L66.3944 18.625C66.6194 19.1697 66.5695 19.5935 66.2445 19.8965C66.2393 20.2925 66.0243 20.6345 65.5994 20.9226L65.4203 21.306L65.1079 21.4351L64.6147 21.8076C64.4998 21.8926 64.3222 21.9847 64.0819 22.084C63.9537 22.1369 63.8043 22.1611 63.6337 22.1566L63.3213 22.2857L62.2916 22.1765L62.0455 22.1938L61.263 21.7294L60.8455 21.5362L59.8205 20.553L59.1617 19.503L59.0906 19.1948L58.7892 19.0099L58.7704 18.6238L58.4318 18.1448L58.5305 17.9071L58.4495 17.5749L58.2583 17.3163L58.1277 16.8639L57.8727 16.5191L57.9433 16.3493L57.7844 15.9648L57.5864 15.9622L57.1696 16.247L56.608 16.1133L56.5359 16.1431C56.0553 16.3416 55.7091 16.1845 55.4973 15.6719L55.4675 15.5998L54.9905 15.2624L55.2684 14.6412L55.9089 14.4891L56.2014 14.312L56.7076 14.2436L57.2123 14.0351L57.0137 13.5545L56.4234 13.0107L56.6663 12.7134L56.3972 12.4026L56.1135 11.6478L55.7922 11.4148C55.6073 11.2849 55.485 11.1478 55.4255 11.0037C55.3527 10.8274 55.3331 10.6667 55.3669 10.5215L55.3 10.1553L55.4129 9.88362C55.8123 9.62483 56.0841 9.46566 56.2283 9.40609C56.7409 9.19431 57.1173 9.31079 57.3572 9.75552L57.3348 9.90545C57.4905 10.0099 57.5948 10.1262 57.6477 10.2544C57.6544 10.2704 57.6629 10.3138 57.6733 10.3845L57.6848 10.5485L57.7303 10.7267L57.9555 10.9993L57.9811 11.1294L58.1681 11.446L58.071 11.8237L58.3897 12.2547L58.5318 12.8711L58.8134 13.0079L58.7998 13.5199L59.5051 13.116L60.8764 12.6902L61.8642 12.0852L62.2346 11.9603L62.3448 11.8867L63.282 11.4995C63.7786 11.2943 64.0997 11.368 64.2453 11.7204ZM24.1599 55.6108L24.2273 56.455L23.9536 57.0182L24.0827 57.3305C23.9677 57.4155 23.8307 57.5378 23.6715 57.6973L23.6094 57.7511C23.6153 57.9925 23.5335 58.1575 23.3639 58.2464C23.2577 58.534 22.9794 58.8365 22.5291 59.1538C22.4013 59.5255 22.2046 59.7755 21.9388 59.9041L21.6719 60.2112L21.1913 60.4098L20.9965 60.6872L20.8862 60.7609C20.8486 60.8514 20.7757 60.9472 20.6674 61.0482L20.4824 61.3496L19.9297 61.578L19.7407 61.9374L18.7967 62.5805C18.6846 62.6269 18.4989 62.7223 18.2398 62.8668L17.894 63.4598C17.7234 63.4553 17.566 63.4828 17.4218 63.5424L17.2776 63.6019L17.1491 63.7675L16.8665 63.9687L16.7098 64.2022L16.5614 64.3198L16.9705 64.629L17.0745 65.2893L17.6183 65.993L17.8226 66.5556L18.0081 66.7322C18.3644 66.6412 18.6219 66.788 18.7808 67.1725C18.933 67.541 18.7524 67.9438 18.2391 68.3809L17.6556 68.8751L16.5434 68.2937L15.824 67.4375L15.4467 66.5244L14.8621 66.0626L14.9932 65.699L14.802 65.4404L14.7466 65.2383C14.3008 65.3849 13.9639 65.4772 13.7358 65.5152L12.4422 64.6993L14.1949 63.8346L14.0956 63.5943L14.0966 63.2563L13.7758 62.2073L13.8364 62.0135L13.4351 61.1103L13.3484 60.696L12.8604 59.3785L12.8964 58.7166L12.9246 58.6487L12.8708 58.5865C12.8488 58.3518 12.9108 58.1387 13.0567 57.9471L13.5755 57.7047L13.7437 57.6352C14.4325 57.3506 14.8829 57.4646 15.0946 57.9773C15.1807 58.1855 15.1877 58.5202 15.1156 58.9814L15.1652 59.1015C15.2645 59.3418 15.4792 59.5438 15.8094 59.7075L15.4887 59.9525L15.7128 60.5632L15.5237 60.9226L15.7588 61.2193L15.7155 61.6592L16.0002 62.0761L15.9934 62.332L16.1068 62.5384L16.2353 62.3728L16.7159 62.1742C16.8674 61.9053 17.092 61.7 17.3898 61.5583L17.6071 61.1309C17.7656 61.1967 17.8995 61.2258 18.0088 61.2181C18.152 61.0652 18.4034 60.8113 18.7631 60.4564L19.0557 60.2793L19.3409 59.8802L19.5331 59.8008L19.5373 59.7428L19.7055 59.6733C20.0259 59.5409 20.268 59.3097 20.4316 58.9795L20.9802 58.8091L20.9545 58.6791L21.2314 58.3959L21.3103 58.1101C21.381 58.0997 21.4644 58.0746 21.5605 58.0349L21.608 57.537C21.6616 57.4399 21.7125 57.3814 21.7605 57.3615C21.8086 57.3416 21.8539 57.3605 21.8964 57.4179C21.9113 57.318 21.9937 57.1995 22.1435 57.0627L22.1178 56.9326L22.2364 56.7429L22.181 56.5408L21.9318 56.278L21.6502 56.1412L21.4382 56.1725L20.8227 55.9767L19.7946 56.0075C19.2949 55.9327 18.8503 55.9007 18.4609 55.9115L18.1658 56.2866L17.3242 56.156L16.7913 56.4324L16.3415 56.3651L15.9571 56.5239L15.5412 56.4706C15.5252 56.4773 15.4932 56.4905 15.4451 56.5103C15.4037 56.5462 15.3669 56.5708 15.3349 56.584C15.1426 56.6634 14.9159 56.6821 14.6547 56.6399L14.0482 56.8061L13.6355 57.0329L13.1194 57.0773L12.6644 57.4059L12.5724 57.3876L12.2914 57.7288L11.9335 57.6797L11.9832 57.7998L11.4064 58.0381L11.0732 58.4571L10.5983 58.7377L10.0786 59.3181L9.39783 58.896C9.09308 58.7031 8.8646 58.4224 8.71239 58.0539L8.85759 57.6564C8.80916 57.3576 8.9159 57.1165 9.17779 56.9333C9.43306 56.7341 9.69634 56.5316 9.96763 56.3257C10.0317 56.2993 10.0958 56.2728 10.1599 56.2463C10.2306 56.2359 10.2659 56.2306 10.2659 56.2306L10.4441 56.1852L10.4018 56.287L10.8468 55.9344L10.9388 55.9527C10.9802 55.9168 11.049 55.879 11.1451 55.8393C11.2893 55.7797 11.458 55.7569 11.6513 55.7708L12.6125 55.3737L13.3533 55.124L14.7544 54.7702L15.224 54.8857L15.5207 54.6506L16.215 54.5607L16.9458 54.2869L17.0916 54.3673L17.5962 54.1589L18.2879 54.267L18.8364 54.0966L19.0261 54.2152C19.3144 54.0961 19.6458 54.0811 20.0202 54.1702L20.4611 53.8755L20.8519 54.2767L21.1956 54.3598L21.6042 54.191L22.1052 54.5185L23.2367 54.67L23.3856 55.0304L24.1599 55.6108ZM34.6808 54.4996L34.7153 54.9917C34.8874 55.4082 34.999 55.7465 35.0502 56.0067L35.0053 56.3065L35.1145 56.5709L35.0638 56.7887L35.1307 57.1549L34.9756 57.5285L35.0556 58.1987L34.8931 58.3502L34.9062 58.6543L34.6873 58.9416L34.6638 59.4295L34.435 59.6928L34.5301 59.9911L34.143 60.3479C34.0539 60.7223 33.8737 61.0125 33.6024 61.2183L33.5162 61.2821C33.4309 61.7111 33.204 62.0018 32.8356 62.154C32.7151 62.3163 32.5507 62.4405 32.3424 62.5265L32.1716 62.794L31.9611 62.9653L31.748 63.3347L31.4257 63.4397L31.1289 63.6748L30.6509 63.6754L29.5879 64.0301L28.9991 63.6264L28.2421 63.2921L28.2034 62.8579L27.5054 62.1898L27.5446 61.8079L27.1862 61.2809L27.1574 60.8708C27.0327 60.6597 26.9505 60.5061 26.9108 60.41C26.7851 60.1056 26.7725 59.8483 26.8732 59.6379C26.823 59.4711 26.8179 59.1637 26.858 58.7158L26.9781 58.6662L26.8606 58.5179L26.7937 58.1516L26.6448 57.7912C26.7134 57.5941 26.7457 57.4682 26.7419 57.4135L26.5308 57.1068L26.4911 57.0107C26.5106 56.7401 26.4707 56.4847 26.3715 56.2444L26.5882 55.339C26.5882 55.339 26.5976 55.3164 26.6164 55.2711C26.6512 55.2192 26.678 55.1706 26.6969 55.1253L26.6331 55.0391L26.7292 54.9994L26.9209 54.442L26.7166 53.8794L27.228 53.4149C27.3928 53.1781 27.4377 52.8782 27.3628 52.5153L27.6752 52.3863C27.8117 52.2174 27.952 52.1031 28.0962 52.0436C28.2404 51.984 28.3898 51.9598 28.5444 51.9709L28.8187 51.8858L29.3442 51.3874L29.8097 51.5608L30.1435 51.6198L30.3357 51.5404L30.7756 51.5837L30.9679 51.5043C31.2555 51.6105 31.605 51.7755 32.0164 51.9995L32.1141 52.0998L32.322 52.1264L33.0946 52.5667L34.0178 53.5075L34.1171 53.7478L34.6808 54.4996ZM33.333 55.7315L33.2594 55.6212C33.1009 55.5554 32.9872 55.4618 32.9182 55.3402L32.9407 55.1903L32.5358 54.823L32.3952 54.3466L32.2495 54.2662C31.975 54.192 31.81 54.1102 31.7542 54.0207C31.5836 54.0162 31.4453 53.8857 31.3394 53.6294L31.1853 53.6649L30.6984 53.3035L30.4126 53.2246L29.8286 53.2408L29.6165 53.2722C29.5204 53.3119 29.443 53.3063 29.3845 53.2555L29.1223 53.9827L29.0879 54.7846L28.6925 55.2574L28.7296 55.5515L28.5389 55.7709L28.7009 56.4354L28.4721 56.6987C28.5007 56.9495 28.5547 57.171 28.6341 57.3632L28.3985 57.8825L28.5484 57.905C28.6278 58.0972 28.6252 58.2952 28.5406 58.4989C28.5521 58.663 28.5542 58.8497 28.5469 59.059L28.6263 59.2512L28.594 59.3771L28.7371 59.6555L28.7408 60.4136L28.8385 60.5139L29.1165 61.1867L29.1593 61.5628L29.3223 61.8893L29.6677 62.1124L30.0537 62.0936L30.1937 62.092L30.3463 61.9164L30.9909 61.7064L30.9878 61.4264L31.0839 61.3867C31.18 61.347 31.246 61.3478 31.2819 61.3893L31.4684 61.2278L31.6904 61.2205L31.9134 60.8752L31.9317 60.7832L32.1281 60.6458C32.1675 60.4233 32.359 60.1379 32.7027 59.7896L32.7012 59.6496L33.0428 59.1146L33.1483 58.6209L33.4533 58.2698L33.4277 58.1398L33.4387 57.8258L33.3096 57.5134L33.4987 57.154L33.5254 56.9461L33.5859 56.7522C33.4425 56.5865 33.3542 56.4635 33.3211 56.3834C33.2615 56.2393 33.2467 56.0672 33.2766 55.8673L33.333 55.7315ZM46.6307 51.9822L46.6401 52.8222L47.0309 53.2234L46.9943 53.4073L47.0571 53.8315L47.0038 54.2473L46.9275 54.3351L47.0681 54.8115L46.6554 55.0383C46.5172 55.3392 46.3543 55.6034 46.167 55.8308L46.0129 55.8663L45.7021 56.1354L45.4957 56.2488L45.1086 56.6056L44.4807 56.5837L44.3888 56.5654L43.9902 56.7582L44.1061 56.7666L43.3936 56.9484L42.8524 57.3408L42.5227 57.2238L42.038 57.4803L41.7862 57.4155C41.7701 57.4222 41.7094 57.4566 41.6038 57.519L41.6634 57.6632C41.723 57.8073 41.7585 57.9615 41.77 58.1255L42.0307 58.5523L41.9377 58.872C42.1154 59.2112 42.2406 59.4689 42.3134 59.6451L42.4895 60.2757L42.9628 61.1491L42.8699 61.4688L43.1149 61.7896L43.1421 62.0597L43.316 62.0722L43.465 62.4327C43.5367 62.5155 43.5825 62.581 43.6024 62.6291C43.6619 62.7733 43.6234 62.9298 43.4869 63.0987L43.722 63.3954L43.6813 63.6373L44.0303 64.6184C44.4455 65.7596 44.4289 66.4229 43.9803 66.6082C43.8842 66.6479 43.5773 66.6997 43.0598 66.7634L42.8341 66.0128L42.2531 65.015L42.3147 64.4832L42.1204 63.9446L41.7264 63.2634L41.7896 62.8716L41.345 62.4082L41.3941 62.0504L41.0514 61.6293L41.0649 61.1174C40.9932 61.0345 40.8927 60.9728 40.7635 60.9325C40.6503 60.8854 40.5871 60.8459 40.5739 60.8139C40.554 60.7658 40.5902 60.6946 40.6825 60.6002C40.6466 60.5588 40.6055 60.482 40.5592 60.3698C40.4732 60.1616 40.4087 59.8694 40.3659 59.4932L40.1224 59.3125L40.0654 58.9703L39.8079 58.8235L39.915 58.4699L39.5309 57.8127L39.2681 56.7679L38.9709 56.525L39.0466 55.9592L38.649 55.814L38.6286 55.288L38.4108 55.2373L38.266 54.8188L38.2017 54.2547L38.162 54.1585L38.1463 54.0525L38.0371 53.7881L38.0215 53.6821L37.7425 53.3473L37.6939 52.8891L37.4447 52.6263L37.3919 52.2262L37.2561 52.1698L37.1296 51.6594L36.9483 51.4248L36.8971 51.1647L36.7555 51.0262L36.0493 51.7681L35.9897 51.6239L35.8314 51.7174L35.6664 52.067L35.4501 52.1563L35.3206 52.6599L35.0405 52.6631L35.0197 52.953C34.0428 52.8127 33.498 52.6064 33.3855 52.334C33.3061 52.1418 33.312 51.9518 33.4033 51.7641L33.2303 51.4136C33.573 50.9719 33.9413 50.6604 34.3352 50.4789L34.4339 50.2412L35.0738 49.6111L35.1725 49.3734L35.8652 49.1435L35.9655 49.0458L35.8343 48.1154L36.4607 47.9973L37.1033 48.4633L37.2302 48.1577L37.7918 48.2914C38.0001 48.2053 38.2169 48.1627 38.4422 48.1634L38.6517 48.33L38.7901 48.1884L39.0419 48.2532C39.1541 48.2068 39.2455 48.1785 39.3162 48.168L39.3517 48.3221L39.8109 47.9355L40.1944 48.1147L40.7105 48.0702L41.1817 48.3257L41.9074 48.4479L41.9512 48.486L42.4674 48.4416L42.5269 48.5857C42.6948 48.6289 42.8439 48.7174 42.9741 48.8511L43.216 48.8918L43.4694 49.0966L43.7578 48.9775L43.9563 49.4581L44.194 49.5568L44.3116 49.7052L44.5717 49.6539C44.756 50.0092 44.9892 50.2786 45.2713 50.4621L45.3408 50.6303L45.6803 50.7713L45.7911 51.1757L46.162 51.5288L46.4426 52.0036L46.6307 51.9822ZM44.9773 53.0872L44.9036 52.977L44.888 52.8709L44.5651 52.4979L44.5719 52.242L44.3963 52.0894L44.273 51.8591L43.922 51.554L43.7166 51.3294L43.0981 50.8535L42.7104 50.7323L42.3735 50.3933L42.1175 50.3865L41.5245 50.0407L41.1599 50.2476L40.7127 49.9822L40.4923 50.1296L40.195 49.8867L40.0889 49.9024L39.7525 50.0413L39.5619 50.2608L39.2902 50.1479L39.0697 50.2953L38.9041 50.1668L38.4418 50.2734L38.585 50.5518L38.7255 51.0282L38.9308 51.2528L39.3963 51.4263L39.3702 52.1122L39.5432 52.4627L39.7208 53.2333C39.8946 53.5178 40.0967 53.7344 40.3269 53.8831L40.3399 54.1871C40.3626 54.1965 40.3772 54.2092 40.3838 54.2253C40.4037 54.2733 40.3694 54.3719 40.2809 54.521L40.5385 54.6677L40.5375 55.0057L40.6185 55.338L40.8295 55.6446L40.9346 55.9669L41.4392 55.7585C41.49 55.7 41.5715 55.6475 41.6837 55.6012C41.8278 55.5417 41.9759 55.5368 42.1277 55.5866C42.1437 55.5799 42.1725 55.5587 42.2139 55.5228C42.2459 55.5096 42.27 55.4997 42.286 55.493C42.3341 55.4732 42.4288 55.4528 42.5702 55.4319C42.6465 55.3441 42.7246 55.2837 42.8047 55.2506C42.9329 55.1977 43.0663 55.1801 43.2049 55.1978L43.4212 55.1085L43.6333 55.0771L44.0543 54.7344L44.5381 54.8159C44.7021 54.8044 44.7681 54.8052 44.7361 54.8185L45.004 54.1733L44.9131 53.817L45.0134 53.7193L44.8619 53.5568L44.9507 53.2951L44.9773 53.0872ZM62.874 47.8037C62.9534 47.996 62.9052 48.2878 62.7293 48.6793L62.5669 48.8308L62.488 49.1166L62.1051 49.4154C62.0713 49.5606 62.0144 49.6498 61.9343 49.6829C61.9183 49.6895 61.8989 49.6881 61.8763 49.6787C61.8442 49.6919 61.8202 49.7019 61.8042 49.7085C61.5246 50.0303 61.1364 50.2938 60.6398 50.499L60.4476 50.5784L59.7972 50.7064L59.3092 50.6829L58.0784 50.2912L57.6181 49.7218L57.1046 49.5682C57.1262 49.4843 57.1072 49.3702 57.0476 49.2261C57.0079 49.1299 56.8777 48.9962 56.6569 48.8249L56.4907 48.2184L56.451 48.1222C56.3716 47.93 56.2129 47.7048 55.975 47.4468L55.8214 46.6663L55.7671 47.4202L55.4265 47.6171L55.5869 48.1416C55.4852 48.2586 55.3463 48.3536 55.1701 48.4264L55.144 49.1123L54.9805 49.6018C54.9119 49.7989 54.8328 49.9253 54.7433 49.9811L54.6911 50.0589L54.1933 51.3054L54.0972 51.3451L53.859 52.0624L53.5158 52.4574L53.4046 52.869L52.9214 53.2656L52.2574 53.9055L51.6775 53.8638C51.3571 53.9961 51.0733 53.9446 50.826 53.7092L50.5601 53.6784C50.5402 53.6303 50.5218 53.5629 50.5047 53.4762C50.4716 53.3961 50.4485 53.3401 50.4352 53.308L49.9118 53.1304L49.9483 52.9465L49.382 52.3928L49.4384 52.257L49.3705 52.2288C49.3573 52.1967 49.3374 52.1487 49.3109 52.0846C49.2751 52.0432 49.2505 52.0064 49.2373 51.9744C49.1645 51.7982 49.119 51.62 49.1009 51.44L48.8668 50.8052L48.5622 50.3403C48.5894 50.1791 48.5831 50.0504 48.5434 49.9543C48.4971 49.8421 48.406 49.7578 48.2702 49.7014L48.4551 49.4L48.3359 49.1116L47.9122 48.3583L47.5412 46.7112C47.4353 46.4549 47.2077 46.1082 46.8584 45.6711C46.6947 45.1386 46.9153 44.7193 47.5202 44.4131L47.7422 44.4058L48.0985 44.3149L48.7296 44.6168L48.8435 45.3012L49.2223 46.3543L49.622 47.1175L49.5969 47.4654L49.7484 47.6279L49.7871 48.062L49.8864 48.3023L49.8681 48.3943C49.904 48.4357 49.9418 48.5045 49.9815 48.6006C50.0675 48.8089 50.1248 49.0384 50.1534 49.2891L50.3431 49.4077L50.3958 49.8079L50.563 50.0764L50.702 50.4128C50.8218 50.4758 50.9115 50.5794 50.9711 50.7236C51.024 50.8518 51.0449 50.9932 51.0338 51.1478L51.0735 51.2439C51.2661 51.4832 51.3789 51.6429 51.412 51.723L51.7177 51.8499C51.7873 51.7461 51.8664 51.6197 51.9548 51.4706C51.9367 51.2906 52.0058 51.1401 52.1622 51.0192L52.0629 50.7789C52.159 50.7392 52.3013 50.6523 52.4897 50.5182L52.4484 50.2821L52.7874 49.9451L52.8297 49.8433C52.8956 49.6848 53.0368 49.5046 53.2534 49.3025L53.2137 49.2064L53.5313 48.6814C53.5177 48.3307 53.6352 48.0477 53.8838 47.8325C53.9873 47.5834 54.0644 47.4297 54.1152 47.3712L54.2589 46.8336L54.2291 46.7615L54.3054 46.6737L54.4819 46.4883L54.4631 46.1022L54.8784 45.6775L54.9646 45.6137C54.9646 45.6137 54.9975 45.5345 55.0633 45.376L54.974 45.1597L55.0983 45.0521C55.0405 44.7759 55.0892 44.5308 55.2445 44.3166L55.2674 43.3506L55.2089 42.8684L55.2173 42.7525L55.3134 42.7128L55.432 42.5231L55.2679 42.5346C55.325 42.1735 55.3354 41.8128 55.2992 41.4527L55.9862 41.1408L56.7275 41.369L57.1266 41.6543L57.2891 42.7968L57.1272 43.4263L57.226 44.4826L57.0453 44.726L57.1942 45.0865L57.1592 45.4104L57.41 45.8131L57.2872 46.0608L57.701 46.79L58.1958 47.8515L58.316 47.8019L58.5741 48.4267L59.0793 48.6962L59.4611 48.7354L59.5348 48.8456C59.6536 48.8153 59.8063 48.7991 59.993 48.797L60.6136 48.5969L60.9343 48.3518L61.4541 47.7714C61.5558 47.6544 61.7027 47.5562 61.895 47.4767C62.3756 47.2782 62.7019 47.3872 62.874 47.8037ZM70.4938 43.2212C70.5666 43.3974 70.5621 43.568 70.4803 43.7331C70.4316 43.9783 70.306 44.2646 70.1037 44.592L69.9329 44.8595L69.8357 45.2372L69.6592 45.4226L69.4121 45.7779L69.1817 45.9012L69.1253 46.037C68.8446 46.2655 68.6625 46.5283 68.5789 46.8254C68.4999 46.9518 68.4123 47.0349 68.3162 47.0746C68.2521 47.1011 68.1927 47.1162 68.138 47.12C67.9319 47.3927 67.6125 47.6184 67.18 47.7971C66.8115 47.9494 66.558 48.0166 66.4193 47.9988L65.8875 47.9372L65.6441 47.7565L65.6143 47.6844C65.5283 47.4761 65.3707 47.3443 65.1415 47.289L64.8468 46.8481L64.5652 46.7112L64.0778 45.8717L63.8354 45.353L63.7005 44.9586L63.689 44.7945C63.6013 44.7183 63.5342 44.6241 63.4879 44.5119C63.29 43.806 63.1547 43.3649 63.0819 43.1887L62.687 42.8455L62.7543 42.3957L62.5782 41.7652L62.3614 41.3765L62.3567 40.9565L62.014 40.5354L62.0912 40.1097L62.0259 39.8835L61.6785 39.0424L61.6811 38.8444L61.2401 37.8451L60.8853 36.782L60.7098 36.6295L60.388 35.9185L60.192 35.2399L60.0206 35.0294L59.5692 33.528C60.1759 33.0898 60.4391 32.8873 60.359 32.9204C60.6154 32.8145 60.8799 32.8646 61.1526 33.0708L61.2801 33.2432L61.7894 33.4547L61.8057 34.0388L61.8934 34.115C61.9871 34.4327 62.0298 34.6495 62.0215 34.7654L62.278 35.2502L62.5868 35.6571L62.627 36.2313C62.7395 36.5036 62.8021 36.7685 62.8146 37.0258C62.8477 37.1059 62.8846 37.2407 62.9254 37.4302L62.9609 37.5843L63.2864 37.7593L63.2995 38.0633C63.3844 38.1782 63.4369 38.2597 63.4567 38.3078C63.4964 38.4039 63.5173 38.5453 63.5194 38.732L63.6568 38.9284L63.8303 39.7569L64.0388 40.2616L64.0791 40.8357L64.3638 41.2526L64.7045 42.3496L64.8262 42.44L64.9344 43.0423L65.1643 43.735C65.1719 43.8444 65.1791 43.9071 65.1857 43.9231C65.2982 44.1954 65.3828 44.423 65.4396 44.6058L65.6988 44.8926L65.7996 45.2729L66.0728 45.5258L66.0984 45.6558C66.2277 45.6962 66.3687 45.788 66.5216 45.9311L66.7379 45.8418L67.09 45.8089L67.1547 45.5571L67.3611 45.4437C67.444 45.3719 67.5095 45.3261 67.5575 45.3063L67.6296 45.2765C67.7766 45.1783 67.8716 45.0452 67.9148 44.8774L68.0292 44.7457C68.0686 44.5232 68.2032 44.3269 68.433 44.1569C68.4866 44.0597 68.5859 43.8687 68.7307 43.5838C68.6381 43.3595 68.7048 43.1351 68.9308 42.9104C69.1711 42.8112 69.3147 42.7049 69.3618 42.5917C69.702 42.5074 69.9387 42.5128 70.0717 42.6079C70.2142 42.6803 70.3549 42.8847 70.4938 43.2212ZM79.5125 40.255C79.5919 40.4473 79.547 40.7471 79.3777 41.1546C79.4035 41.444 79.3694 41.7019 79.2754 41.9283L79.1411 42.0119L79.0654 42.5777L78.6626 42.8285L78.3252 43.3054L78.2636 43.8373L77.9794 43.8984C77.8363 44.0513 77.7119 44.1589 77.6064 44.2213L77.5516 44.4971C77.4969 44.5009 77.4215 44.5227 77.3254 44.5624C77.1171 44.6484 76.9764 44.8754 76.9033 45.2431L76.4478 45.0938C76.3903 45.1362 76.2975 45.184 76.1693 45.2369C75.9611 45.3229 75.7716 45.3637 75.601 45.3592L75.1924 45.5279L74.9506 45.4872C74.3021 45.6426 73.8216 45.5691 73.5092 45.2668L73.4794 45.1947L73.1315 45.1697L72.8186 44.8207L72.4508 44.7476L72.3019 44.3872L71.5767 43.449L71.2674 42.564L71.2047 42.1398L70.9962 41.6352L70.9575 41.2011L70.864 41.0428L70.9131 40.6849L70.8849 40.7529C70.8253 40.6087 70.8025 40.4399 70.8164 40.2466L70.7668 40.1265L70.4565 39.5796C70.3439 39.3072 70.3648 39.0173 70.5191 38.7097C70.5219 38.6711 70.51 38.6197 70.4836 38.5556C70.4571 38.4915 70.3721 38.3766 70.2286 38.2109C70.0945 38.0224 70.0109 37.8882 69.9778 37.8081C69.8984 37.6159 69.8637 37.3957 69.8738 37.1478C70.0814 37.2871 70.3053 37.3071 70.5457 37.2078L70.6177 37.178C70.6233 37.1007 70.6656 36.9988 70.7447 36.8724C70.7074 36.419 70.7446 36.0097 70.8564 35.6447L70.9128 35.5089C70.8863 35.4448 70.8583 35.2408 70.8287 34.8967L71.0209 34.8172L71.0193 34.6772L71.1917 34.5498C71.2189 34.3885 71.2372 34.2966 71.2466 34.2739C71.2654 34.2286 71.3986 34.0517 71.6462 33.7431C71.6639 33.6045 71.717 33.4607 71.8055 33.3116C71.8563 33.2531 71.9232 33.188 72.0061 33.1162L72.0426 32.9323C72.4156 32.6095 72.6582 32.4249 72.7703 32.3785C72.8985 32.3256 73.0319 32.308 73.1705 32.3258L73.2807 32.2521L73.4886 32.2787C73.7404 32.3435 73.9823 32.3842 74.2142 32.4009L74.7518 32.5445L74.7915 32.6407C75.2791 32.7768 75.6321 33.1092 75.8505 33.6379L75.8777 33.908L76.2774 34.6712L76.1207 34.9047L76.1385 35.6288L75.8904 36.322L76.0252 36.7164C75.6647 37.2967 75.3146 37.7883 74.9747 38.1912C74.9232 38.4751 74.7452 38.6799 74.4408 38.8056L74.3687 38.8354L74.0313 39.3124L73.6468 39.4712L73.1693 39.9498L72.6475 39.9122L72.5994 39.9321C72.6203 40.0735 72.6677 40.2789 72.7415 40.5485L72.6088 40.7721L72.7039 41.0704L72.7285 41.5385C72.9354 41.9031 73.062 42.1415 73.1084 42.2536L73.042 42.3654C73.1281 42.5737 73.1829 42.7292 73.2066 42.8319C73.2132 42.8479 73.2151 42.8753 73.2124 42.9139C73.2256 42.946 73.2355 42.97 73.2421 42.986C73.2951 43.1142 73.4022 43.1918 73.5634 43.219C73.6909 43.3914 73.8206 43.4784 73.9526 43.4802L74.1804 43.5549L74.7686 43.4806L74.7984 43.5527L75.0105 43.5214L75.8474 43.2319L76.2982 42.9613L76.469 42.6938L76.5934 42.5862L76.6848 42.1265L76.795 42.0528L77.3163 41.6124C77.3341 41.4738 77.3985 41.3346 77.5096 41.195L77.532 41.045C77.826 40.8486 77.9407 40.6043 77.8763 40.3121C78.0079 39.9951 78.2499 39.7639 78.6024 39.6183L78.6985 39.5786C79.1485 39.8053 79.4198 40.0307 79.5125 40.255ZM74.2744 34.3171C74.2546 34.269 74.1908 34.1829 74.0832 34.0585L73.9531 34.0841L73.915 34.128C73.899 34.1346 73.8669 34.1479 73.8189 34.1677C73.7935 34.197 73.7647 34.2182 73.7327 34.2315C73.7167 34.2381 73.6893 34.24 73.6507 34.2372C73.6186 34.2505 73.5946 34.2604 73.5786 34.267L73.4078 34.5345L73.2014 34.6479L73.1011 34.7456L72.911 35.443L72.7261 35.7444L72.6196 36.5761L72.4629 36.8096C72.5273 37.1018 72.5111 37.3804 72.4143 37.6455L72.3877 37.8534C72.5176 37.6685 72.6947 37.5297 72.919 37.437L73.0574 37.2954L73.0401 37.0494L73.3865 36.9344L73.4596 36.5666L73.6038 36.5071L73.9078 36.494L73.8791 36.0839L74.0473 36.0144L73.9381 35.7501L74.2207 35.549L74.263 35.4471L74.2217 35.211L74.3455 34.6253C74.3445 34.532 74.3208 34.4292 74.2744 34.3171ZM87.2538 28.8989L87.3892 29.7713L86.5497 30.2588L86.1981 30.7697L85.8262 30.7546L85.5692 31.0858L85.2683 31.3789L85.0975 31.6464L85.1372 31.7425L84.7318 32.1913L84.5741 32.7628L84.4059 32.8323C84.262 33.2105 84.1473 33.4549 84.0616 33.5653L83.9535 34.2569L83.8532 34.3546C83.8581 34.5026 83.8815 34.7181 83.9233 35.0008L83.6365 35.26L83.6114 35.6079L83.5185 35.9276L83.6193 36.3079L83.4569 36.4594L83.6058 36.8199L83.5635 36.9218C83.6446 36.982 83.7371 37.047 83.8409 37.1166L83.54 37.4097L83.621 37.7419L83.5494 38.2497L83.8227 38.5026L83.689 39.0642C83.7872 39.2111 83.8495 39.3166 83.876 39.3807C83.8826 39.3967 83.8959 39.4288 83.9157 39.4768C83.9195 39.5315 83.9281 39.5749 83.9413 39.6069L84.0787 39.8033L84.6659 40.0671L84.5819 40.7489L84.3828 41.0843L83.849 41.6987L82.8109 41.7055L82.5826 41.1528L82.3972 40.9762L82.3203 40.586C82.1824 40.3429 82.087 40.1573 82.034 40.0291C82.0142 39.9811 81.9957 39.9137 81.9786 39.827C81.9455 39.7469 81.9224 39.6908 81.9091 39.6588L81.7858 39.4284C81.6274 39.3626 81.5184 39.2576 81.4588 39.1134C81.4059 38.9852 81.4024 38.8179 81.4483 38.6114C81.4152 38.5313 81.2999 38.2976 81.1024 37.9103L81.1448 37.8084L80.9436 37.5258L80.8725 37.2176L80.755 37.0692L80.5988 36.4868L80.3553 36.306L80.3422 36.002L80.1171 35.7293C80.0934 35.6266 80.0484 35.4951 79.9822 35.3349C79.883 35.0946 79.7848 34.9476 79.6876 34.894L79.7241 34.7101L79.4493 34.3173L79.104 34.0942L79.0653 33.6601L78.9096 33.5556L78.5753 33.0186L78.4959 32.8264C78.376 32.7633 78.2864 32.6597 78.2268 32.5156C78.0944 32.1952 78.3344 31.7772 78.9466 31.2617L79.597 31.1337L79.9058 31.5406L80.2751 31.7538L80.4711 32.4324C80.6515 32.7329 80.8531 33.0622 81.0761 33.4202L81.307 33.7749C81.3362 33.8003 81.3887 33.8818 81.4642 34.0194C81.504 34.1155 81.5069 34.2362 81.4731 34.3814L81.7438 34.8322L81.9141 35.3808L81.9173 35.6608L82.0291 35.7271L82.1764 35.9476C82.2262 35.7957 82.2326 35.6524 82.1957 35.5176L82.1429 35.1174C82.1513 35.0015 82.1936 34.8996 82.2698 34.8118L82.2171 34.4117L82.4741 34.0804L82.403 33.7722L82.5482 33.3747L82.5915 32.9348C82.7072 32.6245 82.8478 32.3976 83.0136 32.2541L83.0319 32.1621L83.1092 31.7364L83.3296 31.589L83.3719 31.4872L83.4085 31.3033L83.6133 31.0499L83.688 30.8221L83.8421 30.7866L83.9946 30.611L84.0312 30.4272L84.26 30.1638L84.5593 29.7307L85.0566 29.3003C85.2676 29.1756 85.3812 29.1099 85.3972 29.1033C85.4038 29.1193 85.4071 29.1273 85.4071 29.1273C85.3911 29.1339 85.3864 29.1453 85.393 29.1613L85.417 29.1513C85.4811 29.1249 85.564 29.0531 85.6657 28.9361C85.7193 28.8389 85.8182 28.7606 85.9624 28.701C86.0265 28.6745 86.1452 28.6442 86.3187 28.6101C86.7418 28.454 87.0535 28.5503 87.2538 28.8989Z" fill="white"/>
<path d="M98.2949 112.018L107.761 107.596L101.676 96.9006" stroke="white" stroke-width="2.5" stroke-linecap="round"/>
</svg>
