<svg width="104" height="89" viewBox="0 0 104 89" fill="none" xmlns="http://www.w3.org/2000/svg">
<path fill-rule="evenodd" clip-rule="evenodd" d="M94.0813 71.0776C93.4099 71.5981 93.0948 72.3522 92.9597 73.1999C92.8854 73.6676 92.454 73.7315 92.1295 73.8137C91.8486 73.8851 91.5895 73.8944 91.3624 74.1237C91.2686 74.2188 90.9754 74.2395 90.8523 74.1652C90.4585 73.9276 90.0369 73.754 89.6734 73.4371C88.3933 72.3226 87.4552 70.944 86.5769 69.5376C85.6809 68.1026 84.7431 66.683 84.0569 65.1266C83.8435 64.6422 83.8349 64.6461 84.372 64.2699C84.8088 65.0919 85.216 65.9264 85.6874 66.7237C86.0614 67.3564 86.5137 67.943 86.9693 68.6049C87.0765 68.3384 87.074 68.1677 86.9075 67.9301C86.0015 66.6348 85.1413 65.3102 84.459 63.7934C84.568 63.723 84.6998 63.6376 84.8308 63.5533C84.8611 63.5791 84.9287 63.6369 85.0442 63.7359V63.1957C85.368 63.1318 85.6614 63.0743 86.0434 62.9993C86.3412 63.1368 86.4827 63.6584 86.9729 63.723C86.957 64.2506 87.423 64.5136 87.6573 64.899C87.9479 65.377 88.3417 65.7932 88.6204 66.1465C88.9352 66.105 89.1705 66.0614 89.4081 66.045C90.2419 65.9871 90.2217 66.0132 90.7412 66.4665C91.3184 66.9702 91.7133 67.675 92.4576 67.9951C92.5056 68.0155 92.5591 68.0876 92.5616 68.138C92.5847 68.6681 92.8847 68.8607 93.3875 68.9893C93.8095 69.0975 93.9293 69.5376 93.9492 69.9706C93.9644 70.3025 94.0261 70.6322 94.0813 71.0776Z" fill="white"/>
<path fill-rule="evenodd" clip-rule="evenodd" d="M19.6412 9.50523C20.2383 9.80102 20.2383 9.80102 20.5595 9.18194C20.9678 9.04334 21.4613 9.32233 21.8306 8.95117C22.246 9.0537 22.6561 9.19302 23.0777 9.25053C23.7586 9.34305 24.1101 9.86425 24.4946 10.3029C24.7556 10.6009 25.0288 10.8999 25.2675 11.2235C25.5465 11.6022 25.88 11.9408 26.1602 12.3184C26.4139 12.6606 26.6309 13.0304 26.8561 13.3926C26.9186 13.4933 26.9987 13.6159 26.9897 13.7216C26.9655 14.0031 27.0641 14.1928 27.2662 14.3946C27.655 14.7826 27.6247 15.352 27.7597 15.8364C27.8849 16.2879 27.8131 16.8027 27.7727 17.2853C27.7575 17.4697 27.7329 17.863 27.3229 17.5729C27.294 17.5522 27.1507 17.7033 27.0521 17.7604C26.9482 17.8204 26.7706 17.9351 26.7338 17.9033C26.3013 17.5275 26.1959 17.7962 25.9981 18.1677C25.7071 18.7146 25.5295 18.6742 24.7484 18.5363C24.2729 18.452 23.769 18.4374 23.4907 18.0291C22.7381 16.9252 21.967 15.8289 21.8627 14.4178C21.8212 13.8524 21.6616 13.2622 21.1902 12.8557C20.7841 12.5052 20.5144 12.0044 19.96 11.809C19.7928 11.7501 19.6704 11.5529 19.5405 11.4075C19.2643 11.0974 19.116 10.7527 19.1088 10.3165C19.1012 9.86353 19.4629 9.76208 19.6412 9.50523Z" fill="white"/>
<path fill-rule="evenodd" clip-rule="evenodd" d="M83.4479 46.4001C82.9605 45.9178 82.5515 45.4456 82.0747 45.054C80.7069 43.9309 80.0575 42.342 79.2395 40.863C78.8721 40.1989 78.9771 39.4531 78.993 38.7347C78.9959 38.61 79.1699 38.4889 79.2717 38.3581C79.4106 38.6304 79.541 38.8854 79.7312 39.2577V37.9277C80.0175 37.7873 80.3001 37.7108 80.4929 37.5372C80.7322 37.3218 81.0026 37.3643 81.222 37.419C81.4776 37.4826 81.6957 37.6937 81.9527 37.8552C81.8021 38.5532 82.0797 39.1376 82.4237 39.7467C82.7317 39.6642 83.0952 39.8807 83.4035 39.5677C83.4688 39.5013 83.6832 39.4959 83.7756 39.5509C84.5308 40.0007 85.4574 40.2393 85.8393 41.1624C85.9079 41.3289 85.9841 41.5439 86.122 41.6179C86.3299 41.7293 86.1433 42.0773 86.5003 42.0908C86.7941 42.1019 86.6064 42.3984 86.6591 42.5599C86.7245 42.7599 86.8136 42.9557 86.849 43.1607C86.8815 43.3486 86.8559 43.5465 86.8559 43.7416C86.1 44.3832 85.6141 45.2005 85.2416 46.1111C84.6369 46.2083 84.0233 46.3072 83.4479 46.4001Z" fill="white"/>
<path fill-rule="evenodd" clip-rule="evenodd" d="M1.45679 0.979922C1.6362 0.738078 1.7759 0.536601 1.93076 0.346555C1.98744 0.27761 2.07479 0.229027 2.15601 0.184016C2.3874 0.0557706 2.55273 0.418358 2.81155 0.260463C3.01443 0.136862 3.25195 0.0257634 3.48334 0.00361523C3.67538 -0.0146034 3.96019 0.21438 4.06343 0.140791C4.29338 -0.0231769 4.43091 -0.0724745 4.6309 0.149365C4.66808 0.190089 4.80417 0.159367 4.889 0.139005C5.51638 -0.0106739 5.51602 -0.0124601 5.85173 0.590899C5.89758 0.460154 5.93728 0.347269 6.00948 0.141148C6.10875 0.406927 6.20621 0.595901 6.24737 0.795949C6.2979 1.04029 6.31018 1.29357 6.32173 1.54363C6.33364 1.79512 6.32426 2.04768 6.46684 2.30667L6.56214 1.37002C6.59571 1.36859 6.62964 1.36716 6.66358 1.36609C6.68199 1.53184 6.71448 1.69759 6.71556 1.86371C6.72097 2.70605 6.6809 3.55054 6.72928 4.39003C6.77223 5.13056 6.64408 5.80108 6.22138 6.41337C6.06291 6.26334 5.91274 6.03578 5.73225 6.39873C5.53479 6.79525 5.21857 6.76524 4.80994 6.58341C4.74208 7.01459 4.71139 7.52292 3.98979 7.36039V6.28048C3.94178 6.27119 3.89341 6.26155 3.8454 6.2519C3.73097 6.62021 3.6169 6.98851 3.49922 7.36753C3.17687 7.15391 2.91263 6.92671 2.96497 6.47732C2.97941 6.35121 2.83069 6.21332 2.78268 6.07258C2.57511 5.46029 2.57836 5.45886 2.06469 5.44421C1.9665 5.44135 1.86831 5.44385 1.77013 5.44385H1.50047C1.2514 5.19736 1.02687 4.96052 0.786815 4.74047C0.275306 4.27286 0.112503 3.65378 0.0305609 3.01041C-0.00986894 2.6914 0.0598003 2.35811 0.0139558 2.04053C-0.0365815 1.69045 0.145714 1.43182 0.306711 1.18533C0.627623 0.694138 0.802698 0.679849 1.45679 0.979922Z" fill="white"/>
<path fill-rule="evenodd" clip-rule="evenodd" d="M58.8672 8.6905C58.4474 8.97271 58.0431 9.25563 57.6218 9.51034C57.581 9.53499 57.4345 9.38817 57.2764 9.27885C57.1796 9.45068 57.1139 9.60822 57.0114 9.73682C56.8909 9.88864 56.736 10.0137 56.5992 10.1534C56.3219 10.4359 56.0548 10.7506 55.6451 10.3212C55.6137 10.2887 55.5184 10.3209 55.4538 10.3141C54.9935 10.2648 54.5549 10.3784 54.0918 10.0119C53.7189 9.71682 53.2442 9.51284 52.8937 9.15061C52.5652 8.81053 52.2252 8.49117 51.996 8.05963C51.6444 7.39697 51.2971 6.74182 51.4224 5.96413C51.4538 5.76908 51.5891 5.59011 51.7115 5.32898C51.9591 5.52974 52.1266 5.66549 52.3223 5.82445C52.4826 5.29825 52.4497 4.68668 52.9424 4.223C53.1356 4.36589 53.3222 4.50378 53.555 4.67596V3.96543C54.2019 3.85612 54.7896 3.63607 55.4379 3.67465C55.8097 3.6968 56.131 3.81325 56.3663 4.03652C56.6688 4.32302 57.0392 4.52807 57.2861 4.8953C57.5092 5.22752 57.8142 5.50545 58.0485 5.84767C58.433 6.41031 58.5629 7.06797 58.8441 7.66668C58.9784 7.95211 58.8672 8.35077 58.8672 8.6905Z" fill="white"/>
<path fill-rule="evenodd" clip-rule="evenodd" d="M17.1743 27.3153V29.4058C17.3703 28.8775 17.3364 28.3438 17.353 27.8129C17.3595 27.5993 17.2573 27.3335 17.5191 27.206C17.7894 27.0738 18.075 26.9431 18.3666 26.9006C18.467 26.8859 18.6579 27.121 18.715 27.2749C18.7763 27.4403 18.7291 27.645 18.7291 27.8536C18.8922 27.7861 18.9893 27.7079 19.0763 27.7175C19.2561 27.7375 19.503 27.9022 19.5951 27.8358C20.1066 27.4632 20.6672 27.7079 21.196 27.6786C21.4353 27.6654 21.7974 27.8236 21.9122 28.0158C22.1937 28.4892 22.7619 28.6338 23.0597 29.1907C23.0695 29.4287 23.1013 29.7227 23.3511 30.0392C23.6785 30.4539 23.9579 30.969 23.8564 31.576C23.8091 31.8582 23.8481 32.1543 23.8481 32.4983C23.1771 32.8924 22.4789 33.2753 21.8097 33.7025C21.1094 34.1498 20.4722 33.8494 19.8763 33.5404C19.4413 33.3146 18.8576 33.2089 18.7106 32.6076C17.7382 32.1747 17.5653 31.1605 17.0462 30.3943C16.6971 29.8791 16.7079 29.2797 16.609 28.7346C16.5274 28.2841 16.8487 27.7622 16.9917 27.2721C17.0527 27.2864 17.1137 27.301 17.1743 27.3153Z" fill="white"/>
<path fill-rule="evenodd" clip-rule="evenodd" d="M36.2228 37.857C35.8084 37.4469 35.3691 37.0121 34.8745 36.5227C34.8745 36.1987 34.8406 35.8126 34.8919 35.4378C34.9114 35.2985 35.1146 35.1578 35.2658 35.076C35.3232 35.0445 35.4709 35.1767 35.5785 35.2349C35.7214 34.9549 35.8051 34.5758 36.2885 34.668C36.3784 34.6855 36.5058 34.6909 36.5672 34.6419C36.808 34.449 37.07 34.2522 37.3779 34.3369C37.9299 34.489 38.545 34.578 38.9753 34.9549C39.8257 35.7004 40.6343 36.5106 41.0578 37.5873C41.3101 38.2292 41.5379 38.8922 41.6599 39.5667C41.713 39.8618 41.6325 40.2668 41.2928 40.5019C40.7336 40.8895 40.1954 41.3082 39.624 41.6768C39.4294 41.8022 39.155 41.889 38.928 41.8694C37.4974 41.7468 36.478 41.0806 36.0553 39.4817C35.9936 39.2487 35.8459 39.0062 35.8777 38.7883C35.9239 38.4728 36.0979 38.1753 36.2228 37.857Z" fill="white"/>
<path fill-rule="evenodd" clip-rule="evenodd" d="M38.6772 73.0544C38.6383 72.859 38.5993 72.664 38.5603 72.4686C38.5578 73.2437 37.7307 73.5338 37.5506 74.1929C37.4864 74.4287 37.134 74.5337 36.9882 74.4026C36.7503 74.1897 36.5882 74.3451 36.454 74.4315C36.097 74.6616 35.7937 74.6394 35.4291 74.4287C34.3783 73.8207 33.2943 73.262 32.6749 72.1474C31.9283 71.7477 31.71 70.9357 31.2461 70.3184C31.0205 70.0183 30.9486 69.605 30.7913 69.2021C31.0656 68.8066 31.4641 68.9113 31.946 69.1492C31.8995 68.9245 31.9121 68.7177 31.8168 68.5901C31.685 68.4147 31.8258 68.3458 31.9006 68.3147C32.2399 68.1743 32.5907 68.0714 32.8701 67.8064C32.9384 67.7413 33.1315 67.7671 33.2513 67.8028C33.4654 67.8671 33.6488 68.0025 33.8867 67.811C33.9542 67.7571 34.1736 67.8649 34.3115 67.925C35.4966 68.4401 36.5691 69.086 37.2709 70.2291C37.3654 70.3834 37.5784 70.547 37.7376 70.6938C38.1942 71.1136 38.2798 71.7252 38.6332 72.1778C38.8678 72.4789 38.8166 72.7433 38.6772 73.0544Z" fill="white"/>
<path fill-rule="evenodd" clip-rule="evenodd" d="M98.434 27.6329C98.46 27.4532 98.486 27.2732 98.5149 27.0753C98.5863 27.1267 98.6499 27.1471 98.6665 27.1867C98.9188 27.7976 99.2332 28.3831 99.3816 29.0365C99.4747 29.4473 99.5935 29.8406 99.1917 30.1607C98.9181 30.3786 99.1957 31.0044 98.5802 30.9694C98.29 31.4306 97.825 31.3845 97.3803 31.3531C97.2799 31.6617 97.2175 31.9625 97.0865 32.2308C96.9388 32.533 96.467 32.6184 95.9613 32.4755C95.8458 32.443 95.7342 32.3319 95.6285 32.3412C94.809 32.4119 94.8105 32.418 94.4657 31.7786C94.2935 31.4596 94.0856 31.1548 93.9521 30.8208C93.7896 30.4136 93.5369 30.1592 93.1214 29.9835C92.5045 29.7224 92.1038 29.1929 91.9973 28.5631C91.901 27.993 92.1706 27.47 92.685 27.0592C92.9399 27.3886 93.194 27.7169 93.5503 28.177C93.5503 27.7062 93.5452 27.3893 93.5517 27.0728C93.5582 26.7581 93.5929 26.8224 94.0961 26.598C94.4556 26.4376 94.9765 26.632 95.1834 26.1383C95.5386 26.1247 95.8934 26.1118 96.2486 26.0983C96.9045 26.0725 97.4864 26.1433 97.7922 26.8649C97.9135 27.1507 98.2041 27.3664 98.434 27.6329Z" fill="white"/>
<path fill-rule="evenodd" clip-rule="evenodd" d="M1.37829 32.3661C0.601461 32.1997 0.32856 31.6545 0.257808 31.1755C0.167201 30.5628 -0.0425282 29.9623 0.00764809 29.3147C0.0726246 28.4763 0.0679318 27.6257 0.00439926 26.7873C-0.0262841 26.3804 0.237593 26.0793 0.231456 25.6988C0.230012 25.5999 0.36899 25.4084 0.434688 25.4123C0.941505 25.4409 1.18228 24.8979 1.71364 24.8947C2.0656 24.8929 2.41575 24.5664 2.81066 24.3621C3.1998 24.7472 4.02753 24.271 4.34302 25.1201C4.13654 25.7167 4.65094 26.2407 4.82529 26.8519C4.84948 26.9373 4.94009 27.0134 4.94081 27.0941C4.94911 28.0569 4.94586 29.0193 4.94586 30.0649C4.78847 29.9266 4.72025 29.867 4.55095 29.718C4.60401 29.9441 4.59391 30.1174 4.67188 30.176C4.7549 30.2388 4.92998 30.1692 5.04766 30.2081C5.10108 30.2256 5.1296 30.3653 5.13538 30.4517C5.13826 30.4914 5.05127 30.5789 5.0195 30.5725C4.78125 30.5264 4.54626 30.4621 4.28888 30.3985C4.11308 30.775 3.92537 31.1769 3.78531 31.4773C3.5171 31.4577 3.35683 31.4455 3.19691 31.4338C3.47739 31.7138 3.15504 31.8146 3.03844 31.9868C2.91968 32.1614 2.83268 32.3572 2.73847 32.5312C2.11902 32.4647 1.888 32.0696 1.72231 31.5463C1.60499 31.8264 1.49922 32.0775 1.37829 32.3661Z" fill="white"/>
<path fill-rule="evenodd" clip-rule="evenodd" d="M73.8453 77.1678C73.336 77.1535 72.8541 77.0174 72.6079 77.5761C72.192 77.0338 72.1429 76.6491 72.5664 76.2182C72.8588 75.921 73.0515 75.5499 73.4241 75.293C73.75 75.068 73.8699 74.5703 74.1507 74.2535C74.3666 74.0099 74.6907 73.8598 74.9669 73.6687C75.0532 73.7519 75.1463 73.8427 75.2932 73.9852C75.1373 74.0949 74.9842 74.2028 74.8308 74.3103C74.8478 74.3492 74.8651 74.3882 74.8821 74.4271C75.1066 74.3921 75.3308 74.3571 75.5831 74.3178C75.6502 74.4175 75.7282 74.6732 75.8953 74.7593C76.8992 75.2766 77.54 76.14 78.15 77.0263C78.3504 77.3171 78.4193 77.6932 78.5803 78.0151C78.9777 78.8107 79.0803 78.9575 78.9593 79.6805C78.872 80.2031 78.7756 80.7604 78.3608 81.1862C78.1969 81.3541 78.0222 81.5967 78.0136 81.8117C77.9919 82.3547 77.6905 82.4415 77.2472 82.4137C77.1234 82.4058 76.9924 82.4215 76.8718 82.4537C76.0986 82.6594 76.0188 82.638 75.6333 82.0514C75.0622 81.183 74.7893 80.1899 74.4572 79.2247C74.2226 78.5427 74.0435 77.8415 73.8453 77.1678Z" fill="white"/>
<path fill-rule="evenodd" clip-rule="evenodd" d="M61.3267 66.4796C60.7798 66.1724 60.2261 65.9034 59.7803 65.4587C58.9497 64.6285 58.058 63.8508 57.2917 62.9663C56.486 62.0364 55.633 61.1198 55.1467 60.0295C55.198 59.599 55.7647 60.0563 55.7756 59.5483C55.7788 59.4033 56.138 59.2632 56.3372 59.1257C56.8318 58.7842 57.1079 58.727 57.4682 59.1064C57.8238 59.4811 58.2349 59.6155 58.7002 59.713C59.4189 59.8637 59.9149 60.4099 60.53 60.7461C61.1881 61.1055 61.657 61.6842 62.1916 62.1868C62.4685 62.4469 62.8125 62.6466 63.0504 62.9345C63.2897 63.2242 63.5096 63.5725 63.5944 63.9286C63.6457 64.1455 63.481 64.4727 63.3136 64.666C63.1067 64.9042 63.0089 65.2483 62.6468 65.3636C62.4375 65.4301 62.4671 65.6616 62.4263 65.8523C62.3793 66.0713 62.3176 66.3378 61.9335 66.0627C61.665 65.8709 61.439 66.1431 61.3267 66.4796Z" fill="white"/>
<path fill-rule="evenodd" clip-rule="evenodd" d="M100.96 60.8449C99.8383 60.3876 99.356 59.5374 98.8766 58.7112C98.4553 57.9849 98.0713 57.2287 97.7579 56.451C97.4457 55.6744 96.901 54.9385 97.1439 53.9611C97.8536 54.4505 97.7947 55.3861 98.4763 56.0116C98.3514 55.0221 97.8326 54.2576 97.5738 53.2152C97.9319 53.4095 98.0619 53.4799 98.2207 53.566C98.2514 53.3963 98.2835 53.2184 98.3153 53.0412C98.612 52.9855 98.9048 52.9305 99.2506 52.8655C99.3423 53.0105 99.4625 53.2249 99.6054 53.4235C100.163 54.1962 100.166 54.1926 101.178 54.5487C101.291 54.5888 101.397 54.6538 101.499 54.7181C102.284 55.2082 102.997 55.7605 103.429 56.6125C103.588 56.9275 103.805 57.5062 103.796 57.8417C103.794 57.9203 103.86 58.0124 103.918 58.0789C104.065 58.2478 103.999 58.3918 103.846 58.4772C103.404 58.724 103.212 59.2099 102.82 59.5006C102.652 59.6246 102.622 59.7896 102.592 59.9943C102.55 60.273 101.998 60.6341 101.741 60.5755C101.581 60.5391 101.479 60.2498 101.262 60.463C101.148 60.5752 101.061 60.7145 100.96 60.8449Z" fill="white"/>
<path fill-rule="evenodd" clip-rule="evenodd" d="M69.0796 38.141C68.9078 38.1692 68.7276 38.1985 68.4789 38.2392C68.5771 38.4214 68.6471 38.5507 68.7204 38.6865C68.2529 39.1491 67.7663 39.6306 67.2646 40.1275C67.1837 40.1275 67.0848 40.1129 66.9917 40.1297C65.8874 40.3319 65.1521 39.7117 64.5388 38.964C64.0598 38.38 63.6479 37.7366 63.3274 37.0346C63.1274 36.5963 62.9487 36.1927 63.0916 35.5972C63.4266 36.3259 63.7252 36.9746 64.0237 37.6237C64.0768 37.6066 64.1298 37.5898 64.1832 37.5726C64.1591 37.449 64.1554 37.3165 64.1071 37.2029C63.9075 36.7335 63.6804 36.2748 63.4923 35.8015C63.4089 35.5918 63.2303 35.3307 63.6855 35.2331C63.8259 35.2031 63.9082 34.9034 64.0154 34.7259C64.1092 34.5701 64.2002 34.4126 64.2746 34.2868C64.7348 34.245 64.7392 34.6434 65.0261 34.8077C64.9594 34.5569 64.8926 34.3061 64.8045 33.976C64.9518 33.8607 65.1485 33.7063 65.3452 33.5517C65.4694 33.6738 65.634 33.8685 65.7867 33.5095C65.9524 33.1216 66.1972 32.9704 66.5939 33.2252C66.63 33.2484 66.7047 33.2662 66.7285 33.2469C67.188 32.8722 67.4588 33.2455 67.6714 33.532C68.1789 34.2168 68.4179 35.0392 68.7219 35.8215C68.7933 36.0051 68.9489 36.4363 68.4255 36.457C68.3959 36.4581 68.3731 36.6192 68.3475 36.7056C68.4565 36.7317 68.624 36.8153 68.6655 36.7739C68.959 36.4827 69.1171 36.8628 69.0883 36.9296C68.9117 37.3401 69.3207 37.7366 69.0796 38.141Z" fill="white"/>
<path fill-rule="evenodd" clip-rule="evenodd" d="M65.5148 17.3521C65.6303 17.4664 65.7461 17.5811 65.9219 17.7547C65.9541 17.4792 65.9808 17.252 66.01 17.0041C66.415 16.9202 66.8327 16.8144 67.2568 16.7523C67.5131 16.7148 67.7839 16.7158 68.0394 16.7548C68.2344 16.7848 68.0813 17.1442 68.4448 17.1756C68.6798 17.196 68.8603 17.5911 69.0275 17.8661C69.1632 18.0894 68.9599 18.5727 69.4754 18.5438C69.4931 18.8599 69.5108 19.1764 69.5292 19.4926C69.5307 19.5233 69.5379 19.5537 69.5426 19.5844L71.0053 21.0319C71.1619 21.0319 71.328 21.0119 71.4864 21.0365C71.7308 21.0755 71.994 21.3152 71.8687 21.4638C71.5901 21.7942 72.0896 22.0225 71.8915 22.2922C71.1302 22.518 70.8901 22.543 70.2707 22.4358C70.4259 22.7677 70.5609 23.057 70.7306 23.4207C70.6316 23.5146 70.5013 23.7436 70.3728 23.7429C69.5617 23.7368 68.708 23.9404 67.9849 23.3707C67.7889 23.216 67.5521 23.0949 67.3998 22.9059C67.0522 22.4751 66.741 22.0153 66.4237 21.5609C66.2674 21.337 66.1338 21.0969 65.9837 20.8683C65.7512 20.5143 65.8201 20.0041 65.3938 19.7509C65.4584 19.3215 65.2137 18.9968 65.0574 18.6263C64.8448 18.123 64.9765 17.6414 65.5148 17.3521Z" fill="white"/>
<path fill-rule="evenodd" clip-rule="evenodd" d="M35.1322 2.91064C35.5159 2.91064 35.7784 2.91028 36.0404 2.91064C36.3917 2.91135 36.7718 2.85312 36.8523 3.35539C36.8609 3.41111 36.9923 3.49649 37.0551 3.48756C37.471 3.42647 37.5789 3.8155 37.8334 3.98661C38.524 4.45101 38.6258 5.21583 38.7983 5.92315C38.8969 6.32646 38.7651 6.61581 38.3012 6.89052C37.7807 7.19881 37.1291 7.39028 36.7718 7.95042C36.4563 7.95649 36.1982 8.44482 35.8296 8.05402C35.7762 7.99757 35.6578 7.97864 35.5701 7.98007C34.3276 8.00365 33.55 7.29776 32.9006 6.35646C32.571 5.87921 32.1584 5.45268 32.0292 4.86503C31.9761 4.6239 31.9451 4.3767 31.9278 4.13057C31.9216 4.04984 31.9696 3.9098 32.0267 3.88944C32.5266 3.71261 32.8902 3.29073 33.3749 3.1189C33.9727 2.90742 34.612 2.84383 35.1322 2.91064Z" fill="white"/>
<path fill-rule="evenodd" clip-rule="evenodd" d="M33.5539 50.1674C33.6979 50.3914 33.8037 50.5564 34.0094 50.8769C34.0556 50.5375 34.0733 50.4214 34.0867 50.3049C34.13 49.9188 34.1293 49.9195 34.6224 49.8698C34.6841 49.8634 34.779 49.8716 34.8011 49.837C35.026 49.4862 35.3772 49.3879 35.7317 49.4937C36.1334 49.6133 36.5648 49.7634 36.8774 50.0242C38.0972 51.0415 38.8148 52.4051 39.3722 53.8519C39.4667 54.0987 39.3855 54.4116 39.3855 54.6903C39.2393 54.6742 39.1245 54.6617 39.0094 54.6488C39.0343 54.9982 38.9545 55.2572 38.5415 55.3397C38.4177 55.3647 38.2484 55.5476 38.2362 55.6709C38.1946 56.0917 37.7579 55.8866 37.6055 56.1056C37.3622 55.7223 36.9435 56.1864 36.6699 55.9124C36.4078 55.6502 36.049 55.448 35.8757 55.14C35.4941 54.4617 35.1288 53.7558 34.9054 53.017C34.7913 52.6391 34.622 52.3879 34.3278 52.2165C33.8502 51.9389 33.4792 51.587 33.246 51.0869C33.0514 50.6693 33.0431 50.6732 33.5539 50.1674Z" fill="white"/>
<path fill-rule="evenodd" clip-rule="evenodd" d="M52.0046 38.8363C52.0046 38.7395 51.9812 38.6048 52.0129 38.4841C52.0342 38.4033 52.1739 38.3483 52.1862 38.2708C52.1996 38.1861 52.0992 38.089 52.0981 37.9968C52.0974 37.915 52.2136 37.8146 52.1909 37.7543C52.1494 37.6432 52.0562 37.5403 51.9606 37.4631C51.8971 37.4117 51.7913 37.411 51.6606 37.376C51.722 37.5871 51.7714 37.7571 51.8212 37.9275C51.4736 37.7178 51.0874 37.5506 51.2574 37.0452C51.4011 37.1059 51.5422 37.1663 51.7173 37.2406C51.7736 36.6322 51.2036 36.9487 50.9841 36.6608C51.3054 36.6983 51.5195 36.4793 51.8425 36.5218C51.9923 36.5415 52.1873 36.2264 52.4169 36.0113C52.7356 36.2689 53.093 36.5572 53.511 36.8948C53.5518 36.6479 53.581 36.4722 53.6164 36.2582C54.0889 36.1678 54.5734 36.0753 55.0632 35.9817C55.3148 36.2996 55.5115 36.5897 55.7512 36.8394C55.9592 37.0552 56.2451 37.1991 56.4454 37.4203C57.0107 38.0447 57.267 38.8331 57.4995 39.6129C57.5829 39.8919 57.6745 40.3335 57.1356 40.4081C57.1381 40.9204 56.5923 40.9968 56.3461 41.3215C56.0375 41.7281 55.4917 41.7981 54.9026 41.5627C54.0203 41.2101 53.4406 40.5285 52.8771 39.8648C52.5952 39.5322 52.2786 39.2185 52.0046 38.8363Z" fill="white"/>
<path fill-rule="evenodd" clip-rule="evenodd" d="M68.2285 51.4702C68.3874 51.5237 68.5408 51.5752 68.7166 51.6345C68.7523 50.815 67.8964 50.5853 67.7773 49.8308C67.9506 49.9066 68.0917 49.9387 68.1939 50.0191C68.3578 50.1484 68.4956 50.3092 68.7 50.5114C68.6303 50.1005 68.5841 50.0062 68.3473 49.7251C68.8649 49.1057 68.8649 49.1057 69.4761 49.1035C69.8121 49.4782 70.0991 49.9719 70.5298 50.232C71.0052 50.5196 71.1452 51.0104 71.4958 51.3623C71.8307 51.6991 72.0531 52.1578 72.2751 52.5883C72.3971 52.8241 72.5007 53.1252 72.461 53.3731C72.4105 53.6864 72.2755 54.1469 72.0517 54.2358C71.6835 54.3826 71.7658 54.6402 71.6499 54.8617C71.4911 55.1643 71.2738 55.4586 70.8752 55.5236C70.6424 55.5615 70.3652 55.7373 70.1944 55.6612C69.7789 55.4758 69.3497 55.2396 69.0425 54.9156C68.4628 54.3041 67.9444 53.6314 67.4484 52.9498C67.3239 52.779 67.3813 52.479 67.3445 52.1414C67.5098 52.2736 67.5755 52.3257 67.7148 52.4368C67.6427 51.9399 68.0816 51.7695 68.2285 51.4702Z" fill="white"/>
<path fill-rule="evenodd" clip-rule="evenodd" d="M63.0529 87.2008C62.784 87.0547 62.6544 86.9844 62.5288 86.9158C62.3075 87.707 62.2526 87.7481 61.5989 87.463C61.7714 87.8606 61.9097 88.1786 62.0602 88.5244C61.8895 88.6223 61.7148 88.723 61.5383 88.8244C61.2191 88.509 60.8953 88.1886 60.5416 87.8381C60.3286 88.3129 60.9148 88.5322 60.8571 88.9906C60.3311 89.0631 60.0261 88.7091 59.7232 88.3833C59.5579 88.2054 59.4684 87.9571 59.298 87.7856C58.5385 87.0226 57.8562 86.1977 57.2202 85.3332C57.1632 85.2557 57.0841 85.1936 57.0134 85.1264C56.63 84.7645 56.2282 84.4148 56.1997 83.825C56.5823 83.5932 56.7856 83.9504 57.0458 84.1715C57.3104 83.7382 56.6982 83.6803 56.7257 83.361C56.7491 82.9759 57.4895 83.4671 57.3014 82.8376H58.3674C58.6724 83.0502 58.9818 83.2606 59.285 83.4789C59.5893 83.6979 59.7904 84.0126 60.1629 84.1908C60.5246 84.3644 60.7643 84.7738 61.0827 85.0514C61.2903 85.2325 61.422 85.4815 61.7538 85.5629C61.9938 85.6215 62.122 85.982 62.4865 85.9355C62.588 85.9223 62.771 86.1038 62.8226 86.2328C62.9212 86.4785 62.9515 86.7504 63.0529 87.2008Z" fill="white"/>
<path fill-rule="evenodd" clip-rule="evenodd" d="M56.2887 22.0427C56.6273 22.0648 56.8613 21.8916 57.171 22.1127C57.0136 22.1663 56.8995 22.2052 56.775 22.2477C56.8912 22.6382 57.0204 23.0262 57.1154 23.422C57.1396 23.5234 57.0858 23.7238 57.0147 23.7535C56.6198 23.9185 56.5003 24.339 56.1927 24.5694C56.0566 24.6715 55.8527 24.7048 55.6747 24.7248C55.5855 24.7344 55.4805 24.6012 55.3913 24.6105C55.2827 24.6219 55.1831 24.7158 55.0686 24.7801C54.8997 24.1893 54.9083 24.1654 54.2431 23.941C53.8449 23.8067 53.7622 23.4195 53.4799 23.1758C53.4168 23.3091 53.3558 23.4377 53.2875 23.582C53.1883 23.4791 53.0211 23.3855 53.0215 23.2926C53.0266 22.132 53.0255 22.1059 52.4901 21.4104C52.1884 21.9352 52.7666 22.2388 52.7981 22.7522C52.6547 22.73 52.4407 22.7464 52.4158 22.6861C52.1642 22.0809 51.7808 21.5094 52.1739 20.7835C52.2959 20.5581 52.318 20.4398 52.5919 20.4352C52.7609 20.4327 52.9424 20.3344 53.093 20.2401C53.4832 19.9961 53.859 19.7304 54.2759 19.4492C54.3712 19.59 54.4593 19.7204 54.438 19.6886C54.7668 19.9154 55.1098 19.3045 55.1646 19.9415C55.1805 20.1222 55.5888 19.6911 55.5888 20.1644C55.5888 20.3473 55.9285 20.5306 56.0992 20.6995C56.0382 20.856 55.9805 21.0053 55.9223 21.1546C55.9707 21.1879 56.0191 21.2211 56.0678 21.2543C56.1534 21.0932 56.2389 20.9321 56.3469 20.7295C56.5227 21.0253 56.6248 21.1964 56.7587 21.4211C56.6133 21.6133 56.4512 21.828 56.2887 22.0427Z" fill="white"/>
<path fill-rule="evenodd" clip-rule="evenodd" d="M23.1976 51.1426C22.9709 50.8597 22.7915 50.6357 22.5923 50.3864C22.4908 50.5918 22.4262 50.7222 22.3421 50.8922C21.9634 50.7165 21.7086 50.4264 21.4916 50.1238C21.0122 49.4547 20.6415 48.7167 20.1556 48.0465C19.8567 47.6346 19.8391 47.117 19.9571 46.5812C20.4058 46.4912 20.5029 47.0131 20.8769 47.1449V46.1964C21.5837 46.0978 22.2648 46.0028 22.8893 45.916C23.5445 46.4983 23.9759 47.1274 24.2816 47.854C24.4564 48.268 24.8163 48.5788 24.9256 49.0525C24.9689 49.2397 24.7264 49.4915 25.0249 49.6308C25.03 49.633 24.9361 49.8609 24.9332 49.8598C24.4459 49.6859 24.282 50.3853 23.8131 50.2731C23.7828 50.2656 23.6997 50.445 23.6532 50.5432C23.6016 50.6511 23.5784 50.7747 23.5149 50.874C23.468 50.9483 23.377 50.9947 23.1976 51.1426Z" fill="white"/>
<path fill-rule="evenodd" clip-rule="evenodd" d="M45.0025 62.9253C45.1432 63.2475 45.2458 63.4822 45.3923 63.8169C45.4855 63.5729 45.5284 63.4611 45.5739 63.3425C45.6179 63.3693 45.6901 63.3879 45.6995 63.4229C45.7883 63.7569 45.9486 64.0423 46.1923 64.2959C46.3381 64.4478 46.4435 64.6432 46.5428 64.8314C46.7178 65.1647 46.9662 65.3923 47.3683 65.463C47.4315 65.3365 47.4965 65.2058 47.5268 65.1451C47.7131 65.283 47.9156 65.4334 48.0665 65.5452C48.0665 65.6666 48.0795 65.7188 48.0647 65.7284C47.8863 65.8431 47.704 65.9513 47.5376 66.0521C47.586 66.3182 47.6293 66.5593 47.6947 66.9205C47.3997 66.7787 47.2384 66.7008 47.0059 66.5886C46.877 66.8451 46.7478 67.103 46.6088 67.3803C46.4767 67.3949 46.3218 67.4128 46.1323 67.4338V67.8668C45.6378 68.2333 45.2331 68.184 44.8043 67.7971C44.3372 67.3756 43.8105 67.0195 43.334 66.5175C43.5344 66.3864 43.7278 66.26 43.9401 66.1214C43.8318 65.7284 43.6372 65.3776 43.3568 65.0347C43.0763 64.6914 42.9225 64.2463 42.7207 63.8598C43.0091 63.5079 43.2369 63.7683 43.5015 63.8783C43.5127 63.7801 43.5585 63.6754 43.5271 63.6047C43.3297 63.1653 43.4152 62.9481 43.8336 62.9292C44.2264 62.911 44.6205 62.9253 45.0025 62.9253Z" fill="white"/>
<path fill-rule="evenodd" clip-rule="evenodd" d="M16.9841 66.7774C17.1491 67.0188 17.2837 67.2164 17.4519 67.4625C17.4956 67.3279 17.5555 67.241 17.5418 67.1685C17.4747 66.8167 17.3877 66.4687 17.2967 66.0718H17.8689C17.9183 66.1736 17.979 66.2983 18.0988 66.5452V65.7493C18.2107 65.7103 18.306 65.6985 18.3728 65.6496C18.5255 65.5371 18.7674 65.2816 18.7923 65.3016C19.0424 65.5053 19.3514 65.3824 19.594 65.4745C19.9557 65.6117 20.2994 65.8511 20.2947 66.3076C20.2932 66.4441 20.1106 66.5959 20.138 66.7106C20.1604 66.8038 20.4131 66.8245 20.4885 66.9299C20.5502 67.016 20.5553 67.2468 20.4918 67.2971C20.2365 67.4986 20.2929 67.7594 20.3102 68.0037C20.3322 68.3088 20.1972 68.4942 19.9236 68.571C19.6312 68.6532 19.563 68.8386 19.5016 69.1154C19.4146 69.5066 19.1435 69.7667 18.6851 69.7474C18.5266 69.7409 18.3623 69.7445 18.2086 69.7777C17.8173 69.8624 17.3242 69.7695 17.2021 69.4855C16.9043 68.7925 16.4733 68.1377 16.5535 67.3221C16.5849 67.0042 16.7784 66.9138 16.9841 66.7774Z" fill="white"/>
<path fill-rule="evenodd" clip-rule="evenodd" d="M48.5546 49.2503C48.7994 49.3214 49.0549 49.3953 49.369 49.4864C49.5022 49.1724 49.5415 48.8709 49.2607 48.5905C49.6058 48.28 49.8354 48.748 50.1736 48.6973C50.205 48.5283 50.2386 48.3504 50.2711 48.1761C50.536 47.8953 50.775 48.4133 51.0952 48.1689C51.4226 47.9189 51.5053 48.4587 51.7836 48.5205C51.9399 48.5551 52.0861 48.7162 52.1976 48.852C52.5673 49.3006 52.625 49.9354 53.1228 50.3273C53.2419 50.4209 53.1784 50.7428 53.2051 51.0289C52.6532 50.7606 52.6196 51.6273 52.0879 51.4219C51.9244 51.6837 52.0789 52.1585 51.4807 52.2153C51.4175 52.1088 51.3186 51.942 51.1779 51.7041C51.058 51.9516 50.9999 52.0717 50.9403 52.1953C50.6053 52.2739 50.4519 51.9881 50.3418 51.8062C49.9761 51.2007 49.5025 50.7374 48.89 50.3752C48.5131 50.1523 48.3063 49.789 48.5546 49.2503Z" fill="white"/>
<path fill-rule="evenodd" clip-rule="evenodd" d="M43.7647 23.3667C43.3001 23.7268 42.9575 23.9926 42.5153 24.3359H41.6883C41.3663 23.8751 41.2617 23.2689 40.787 22.8884C40.7372 22.2468 40.2888 21.8492 39.8993 21.402C39.7755 21.2595 39.8022 20.9887 39.7495 20.7236C39.8917 20.6843 40.0325 20.6872 40.1062 20.6189C40.8617 19.9198 41.5735 20.3128 42.1757 20.7897C42.6897 21.1966 43.1236 21.7349 43.4878 22.2829C43.6943 22.5933 43.6889 23.0417 43.7647 23.3667Z" fill="white"/>
</svg>
