<svg width="12" height="12" viewBox="0 0 12 12" fill="none" xmlns="http://www.w3.org/2000/svg">
<path d="M7.86489 1.78772C4.79781 -0.188532 0.598046 2.24643 0.0574462 5.84344C-0.527285 9.73862 3.46654 12.3609 6.82047 11.9595C10.5385 11.5123 12.9252 7.23867 11.6564 3.59961C10.3877 -0.0394526 5.87533 -1.09065 3.04362 1.23728C2.28237 1.86035 3.35621 2.96124 4.10643 2.34199C6.23941 0.591267 9.66321 1.75332 10.3583 4.49408C11.0533 7.23485 9.16307 10.2508 6.38284 10.4343C4.2094 10.5796 1.51743 9.08496 1.51376 6.55061C1.51376 3.77545 4.82355 1.66922 7.11467 3.13708C7.94212 3.66842 8.69602 2.31523 7.87225 1.78772H7.86489Z" fill="#10100E"/>
</svg>
