<svg width="39" height="41" viewBox="0 0 39 41" fill="none" xmlns="http://www.w3.org/2000/svg">
<path d="M38.7369 39.6007C31.8746 33.3227 21.3631 26.4581 11.5611 27.0285C6.74573 27.3116 -0.0879583 33.4683 5.03731 38.0838C9.816 42.3958 15.508 36.1623 15.7282 31.4053C15.9606 26.4783 13.5346 21.3168 11.5733 16.9076C8.91803 11.0178 5.57186 5.45919 1.60415 0.346939C0.964005 -0.490398 -0.487542 0.346935 0.164839 1.18023C3.33771 5.26857 6.11964 9.64137 8.47454 14.2419C11.3287 19.905 15.7853 28.1813 12.5886 34.156C11.9471 37.5646 10.4874 37.8626 8.20951 35.0499C4.94761 34.3299 4.41619 33.1164 6.61525 31.4093C8.46638 28.9216 11.0025 28.5778 14.0483 28.8326C16.9514 29.0672 19.7893 30.0987 22.4722 31.1626C28.0535 33.4194 33.1677 36.6776 37.5585 40.7738C38.3454 41.4938 39.5319 40.3288 38.7369 39.6007Z" fill="#10100E"/>
</svg>
