<?xml version="1.0" encoding="utf-8"?>
<svg width="289px" height="277px" viewBox="0 0 289 277" version="1.1" xmlns:xlink="http://www.w3.org/1999/xlink" xmlns="http://www.w3.org/2000/svg">
  <g id="Group-2">
    <path d="M19.6403 0.304923C20.5082 0.784739 21.9316 1.11604 22.1515 1.79578C22.6607 3.43515 23.4128 5.8171 22.6491 6.89668C18.3443 12.8258 12.1474 16.2131 4.99585 17.5383C3.5204 17.8068 0.737314 16.2588 0.199212 14.9165C-0.379393 13.4599 0.367007 10.4382 1.60522 9.53567C6.39607 6.07985 11.5804 3.13812 16.7126 0.156409C17.4185 -0.243438 18.6509 0.24209 19.6403 0.304923" transform="translate(0 259.29895)" id="Fill-138" fill="#9FA2A1" fill-rule="evenodd" stroke="none" />
    <path d="M6.87981 0C8.06117 0.45536 10.3097 1.02894 10.279 1.3617C9.75197 6.21742 7.16527 10.6659 7.44633 15.7143C6.00147 15.7056 4.04717 16.2923 3.20397 15.5786C-2.37346 10.8236 -0.366465 2.67962 6.87981 0" transform="translate(277.99805 242.89368)" id="Fill-145" fill="#9FA2A1" fill-rule="evenodd" stroke="none" />
    <path d="M8.8004 0C12.2463 3.1378 12.5102 7.1869 12.1666 11.433C11.8878 14.8713 8.15305 16.9304 4.78186 15.5068C-0.172848 13.4083 -1.7464 6.60564 2.31198 3.39888C4.16439 1.93588 6.89321 1.57136 9.22865 0.704405L8.8004 0" transform="translate(41.4541 0)" id="Fill-154" fill="#9FA2A1" fill-rule="evenodd" stroke="none" />
  </g>
</svg>