<svg width="1039" height="973" viewBox="0 0 1039 973" fill="none" xmlns="http://www.w3.org/2000/svg">
<rect x="0.00195312" y="141.021" width="1155.58" height="1159.68" rx="200" transform="rotate(-44.1581 0.00195312 141.021)" fill="#6640FF"/>
<mask id="mask0" mask-type="alpha" maskUnits="userSpaceOnUse" x="0" y="-664" width="1637" height="1637">
<rect x="0.00195312" y="141.021" width="1155.58" height="1159.68" rx="200" transform="rotate(-44.1581 0.00195312 141.021)" fill="#C751FF"/>
</mask>
<g mask="url(#mask0)">
<path d="M992.874 858.678L992.874 448.061L-96.0048 448.061L846.068 947.047C912.668 982.323 992.874 934.044 992.874 858.678Z" fill="#FFC962"/>
<path d="M653.572 25.961L909 476.036L1248 -63.9599L752.311 -122.702C670.906 -132.348 613.111 -45.3324 653.572 25.961Z" fill="#572FF6"/>
<path d="M405.271 308.202L597.726 650.832L1480.1 155.206L492.051 159.229C415.776 159.54 367.917 241.699 405.271 308.202Z" fill="#C751FF"/>
<path d="M488.001 157.059L727.501 157.059L818.001 310.059L388.001 305.059L388.001 257.059C388.001 201.831 432.773 157.059 488.001 157.059Z" fill="#00E1FF"/>
</g>
</svg>
