<svg width="187" height="255" viewBox="0 0 187 255" fill="none" xmlns="http://www.w3.org/2000/svg">
<g id="Bg Shape 3">
<circle id="Oval" cx="9" cy="250" r="1" transform="rotate(-90 9 250)" fill="#9A9A9A"/>
<circle id="Oval_2" cx="9" cy="232" r="1" transform="rotate(-90 9 232)" fill="#9A9A9A"/>
<circle id="Oval_3" cx="9" cy="215" r="1" transform="rotate(-90 9 215)" fill="#9A9A9A"/>
<circle id="Oval_4" cx="9" cy="197" r="1" transform="rotate(-90 9 197)" fill="#9A9A9A"/>
<circle id="Oval_5" cx="9" cy="179" r="1" transform="rotate(-90 9 179)" fill="#9A9A9A"/>
<circle id="Oval_6" cx="9" cy="161" r="1" transform="rotate(-90 9 161)" fill="#9A9A9A"/>
<circle id="Oval_7" cx="9" cy="143" r="1" transform="rotate(-90 9 143)" fill="#9A9A9A"/>
<circle id="Oval_8" cx="9" cy="125" r="1" transform="rotate(-90 9 125)" fill="#9A9A9A"/>
<circle id="Oval_9" cx="9" cy="108" r="1" transform="rotate(-90 9 108)" fill="#9A9A9A"/>
<circle id="Oval_10" cx="9" cy="90" r="1" transform="rotate(-90 9 90)" fill="#9A9A9A"/>
<circle id="Oval_11" cx="9" cy="72" r="1" transform="rotate(-90 9 72)" fill="#9A9A9A"/>
<circle id="Oval_12" cx="9" cy="54" r="1" transform="rotate(-90 9 54)" fill="#9A9A9A"/>
<circle id="Oval_13" cx="9" cy="36" r="1" transform="rotate(-90 9 36)" fill="#9A9A9A"/>
<circle id="Oval_14" cx="9" cy="19" r="1" transform="rotate(-90 9 19)" fill="#9A9A9A"/>
<circle id="Oval_15" cx="9" cy="1" r="1" transform="rotate(-90 9 1)" fill="#9A9A9A"/>
<circle id="Oval_16" cx="27" cy="250" r="1" transform="rotate(-90 27 250)" fill="#9A9A9A"/>
<circle id="Oval_17" cx="27" cy="232" r="1" transform="rotate(-90 27 232)" fill="#9A9A9A"/>
<circle id="Oval_18" cx="27" cy="215" r="1" transform="rotate(-90 27 215)" fill="#9A9A9A"/>
<circle id="Oval_19" cx="27" cy="197" r="1" transform="rotate(-90 27 197)" fill="#9A9A9A"/>
<circle id="Oval_20" cx="27" cy="179" r="1" transform="rotate(-90 27 179)" fill="#9A9A9A"/>
<circle id="Oval_21" cx="27" cy="161" r="1" transform="rotate(-90 27 161)" fill="#9A9A9A"/>
<circle id="Oval_22" cx="27" cy="143" r="1" transform="rotate(-90 27 143)" fill="#9A9A9A"/>
<circle id="Oval_23" cx="27" cy="125" r="1" transform="rotate(-90 27 125)" fill="#9A9A9A"/>
<circle id="Oval_24" cx="27" cy="108" r="1" transform="rotate(-90 27 108)" fill="#9A9A9A"/>
<circle id="Oval_25" cx="27" cy="90" r="1" transform="rotate(-90 27 90)" fill="#9A9A9A"/>
<circle id="Oval_26" cx="27" cy="72" r="1" transform="rotate(-90 27 72)" fill="#9A9A9A"/>
<circle id="Oval_27" cx="27" cy="54" r="1" transform="rotate(-90 27 54)" fill="#9A9A9A"/>
<circle id="Oval_28" cx="27" cy="36" r="1" transform="rotate(-90 27 36)" fill="#9A9A9A"/>
<circle id="Oval_29" cx="27" cy="19" r="1" transform="rotate(-90 27 19)" fill="#9A9A9A"/>
<circle id="Oval_30" cx="27" cy="1" r="1" transform="rotate(-90 27 1)" fill="#9A9A9A"/>
<circle id="Oval_31" cx="45" cy="250" r="1" transform="rotate(-90 45 250)" fill="#9A9A9A"/>
<circle id="Oval_32" cx="45" cy="232" r="1" transform="rotate(-90 45 232)" fill="#9A9A9A"/>
<circle id="Oval_33" cx="45" cy="215" r="1" transform="rotate(-90 45 215)" fill="#9A9A9A"/>
<circle id="Oval_34" cx="45" cy="197" r="1" transform="rotate(-90 45 197)" fill="#9A9A9A"/>
<circle id="Oval_35" cx="45" cy="179" r="1" transform="rotate(-90 45 179)" fill="#9A9A9A"/>
<circle id="Oval_36" cx="45" cy="161" r="1" transform="rotate(-90 45 161)" fill="#9A9A9A"/>
<circle id="Oval_37" cx="45" cy="143" r="1" transform="rotate(-90 45 143)" fill="#9A9A9A"/>
<circle id="Oval_38" cx="45" cy="125" r="1" transform="rotate(-90 45 125)" fill="#9A9A9A"/>
<circle id="Oval_39" cx="45" cy="108" r="1" transform="rotate(-90 45 108)" fill="#9A9A9A"/>
<circle id="Oval_40" cx="45" cy="90" r="1" transform="rotate(-90 45 90)" fill="#9A9A9A"/>
<circle id="Oval_41" cx="45" cy="72" r="1" transform="rotate(-90 45 72)" fill="#9A9A9A"/>
<circle id="Oval_42" cx="45" cy="54" r="1" transform="rotate(-90 45 54)" fill="#9A9A9A"/>
<circle id="Oval_43" cx="45" cy="36" r="1" transform="rotate(-90 45 36)" fill="#9A9A9A"/>
<circle id="Oval_44" cx="45" cy="19" r="1" transform="rotate(-90 45 19)" fill="#9A9A9A"/>
<circle id="Oval_45" cx="45" cy="1" r="1" transform="rotate(-90 45 1)" fill="#9A9A9A"/>
<circle id="Oval_46" cx="63" cy="250" r="1" transform="rotate(-90 63 250)" fill="#9A9A9A"/>
<circle id="Oval_47" cx="63" cy="232" r="1" transform="rotate(-90 63 232)" fill="#9A9A9A"/>
<circle id="Oval_48" cx="63" cy="215" r="1" transform="rotate(-90 63 215)" fill="#9A9A9A"/>
<circle id="Oval_49" cx="63" cy="197" r="1" transform="rotate(-90 63 197)" fill="#9A9A9A"/>
<circle id="Oval_50" cx="63" cy="179" r="1" transform="rotate(-90 63 179)" fill="#9A9A9A"/>
<circle id="Oval_51" cx="63" cy="161" r="1" transform="rotate(-90 63 161)" fill="#9A9A9A"/>
<circle id="Oval_52" cx="63" cy="143" r="1" transform="rotate(-90 63 143)" fill="#9A9A9A"/>
<circle id="Oval_53" cx="63" cy="125" r="1" transform="rotate(-90 63 125)" fill="#9A9A9A"/>
<circle id="Oval_54" cx="63" cy="108" r="1" transform="rotate(-90 63 108)" fill="#9A9A9A"/>
<circle id="Oval_55" cx="63" cy="90" r="1" transform="rotate(-90 63 90)" fill="#9A9A9A"/>
<circle id="Oval_56" cx="63" cy="72" r="1" transform="rotate(-90 63 72)" fill="#9A9A9A"/>
<circle id="Oval_57" cx="63" cy="54" r="1" transform="rotate(-90 63 54)" fill="#9A9A9A"/>
<circle id="Oval_58" cx="63" cy="36" r="1" transform="rotate(-90 63 36)" fill="#9A9A9A"/>
<circle id="Oval_59" cx="63" cy="19" r="1" transform="rotate(-90 63 19)" fill="#9A9A9A"/>
<circle id="Oval_60" cx="63" cy="1" r="1" transform="rotate(-90 63 1)" fill="#9A9A9A"/>
<circle id="Oval_61" cx="81" cy="250" r="1" transform="rotate(-90 81 250)" fill="#9A9A9A"/>
<circle id="Oval_62" cx="81" cy="232" r="1" transform="rotate(-90 81 232)" fill="#9A9A9A"/>
<circle id="Oval_63" cx="81" cy="215" r="1" transform="rotate(-90 81 215)" fill="#9A9A9A"/>
<circle id="Oval_64" cx="81" cy="197" r="1" transform="rotate(-90 81 197)" fill="#9A9A9A"/>
<circle id="Oval_65" cx="81" cy="179" r="1" transform="rotate(-90 81 179)" fill="#9A9A9A"/>
<circle id="Oval_66" cx="81" cy="161" r="1" transform="rotate(-90 81 161)" fill="#9A9A9A"/>
<circle id="Oval_67" cx="81" cy="143" r="1" transform="rotate(-90 81 143)" fill="#9A9A9A"/>
<circle id="Oval_68" cx="81" cy="125" r="1" transform="rotate(-90 81 125)" fill="#9A9A9A"/>
<circle id="Oval_69" cx="81" cy="108" r="1" transform="rotate(-90 81 108)" fill="#9A9A9A"/>
<circle id="Oval_70" cx="81" cy="90" r="1" transform="rotate(-90 81 90)" fill="#9A9A9A"/>
<circle id="Oval_71" cx="81" cy="72" r="1" transform="rotate(-90 81 72)" fill="#9A9A9A"/>
<circle id="Oval_72" cx="81" cy="54" r="1" transform="rotate(-90 81 54)" fill="#9A9A9A"/>
<circle id="Oval_73" cx="81" cy="36" r="1" transform="rotate(-90 81 36)" fill="#9A9A9A"/>
<circle id="Oval_74" cx="81" cy="19" r="1" transform="rotate(-90 81 19)" fill="#9A9A9A"/>
<circle id="Oval_75" cx="81" cy="1" r="1" transform="rotate(-90 81 1)" fill="#9A9A9A"/>
<circle id="Oval_76" cx="99" cy="250" r="1" transform="rotate(-90 99 250)" fill="#9A9A9A"/>
<circle id="Oval_77" cx="99" cy="232" r="1" transform="rotate(-90 99 232)" fill="#9A9A9A"/>
<circle id="Oval_78" cx="99" cy="215" r="1" transform="rotate(-90 99 215)" fill="#9A9A9A"/>
<circle id="Oval_79" cx="99" cy="197" r="1" transform="rotate(-90 99 197)" fill="#9A9A9A"/>
<circle id="Oval_80" cx="99" cy="179" r="1" transform="rotate(-90 99 179)" fill="#9A9A9A"/>
<circle id="Oval_81" cx="99" cy="161" r="1" transform="rotate(-90 99 161)" fill="#9A9A9A"/>
<circle id="Oval_82" cx="99" cy="143" r="1" transform="rotate(-90 99 143)" fill="#9A9A9A"/>
<circle id="Oval_83" cx="99" cy="125" r="1" transform="rotate(-90 99 125)" fill="#9A9A9A"/>
<circle id="Oval_84" cx="99" cy="108" r="1" transform="rotate(-90 99 108)" fill="#9A9A9A"/>
<circle id="Oval_85" cx="99" cy="90" r="1" transform="rotate(-90 99 90)" fill="#9A9A9A"/>
<circle id="Oval_86" cx="99" cy="72" r="1" transform="rotate(-90 99 72)" fill="#9A9A9A"/>
<circle id="Oval_87" cx="99" cy="54" r="1" transform="rotate(-90 99 54)" fill="#9A9A9A"/>
<circle id="Oval_88" cx="99" cy="36" r="1" transform="rotate(-90 99 36)" fill="#9A9A9A"/>
<circle id="Oval_89" cx="99" cy="19" r="1" transform="rotate(-90 99 19)" fill="#9A9A9A"/>
<circle id="Oval_90" cx="99" cy="1" r="1" transform="rotate(-90 99 1)" fill="#9A9A9A"/>
<circle id="Oval_91" cx="116" cy="250" r="1" transform="rotate(-90 116 250)" fill="#9A9A9A"/>
<circle id="Oval_92" cx="116" cy="232" r="1" transform="rotate(-90 116 232)" fill="#9A9A9A"/>
<circle id="Oval_93" cx="116" cy="215" r="1" transform="rotate(-90 116 215)" fill="#9A9A9A"/>
<circle id="Oval_94" cx="116" cy="197" r="1" transform="rotate(-90 116 197)" fill="#9A9A9A"/>
<circle id="Oval_95" cx="116" cy="179" r="1" transform="rotate(-90 116 179)" fill="#9A9A9A"/>
<circle id="Oval_96" cx="116" cy="161" r="1" transform="rotate(-90 116 161)" fill="#9A9A9A"/>
<circle id="Oval_97" cx="116" cy="143" r="1" transform="rotate(-90 116 143)" fill="#9A9A9A"/>
<circle id="Oval_98" cx="116" cy="125" r="1" transform="rotate(-90 116 125)" fill="#9A9A9A"/>
<circle id="Oval_99" cx="116" cy="108" r="1" transform="rotate(-90 116 108)" fill="#9A9A9A"/>
<circle id="Oval_100" cx="116" cy="90" r="1" transform="rotate(-90 116 90)" fill="#9A9A9A"/>
<circle id="Oval_101" cx="116" cy="72" r="1" transform="rotate(-90 116 72)" fill="#9A9A9A"/>
<circle id="Oval_102" cx="116" cy="54" r="1" transform="rotate(-90 116 54)" fill="#9A9A9A"/>
<circle id="Oval_103" cx="116" cy="36" r="1" transform="rotate(-90 116 36)" fill="#9A9A9A"/>
<circle id="Oval_104" cx="116" cy="19" r="1" transform="rotate(-90 116 19)" fill="#9A9A9A"/>
<circle id="Oval_105" cx="116" cy="1" r="1" transform="rotate(-90 116 1)" fill="#9A9A9A"/>
<circle id="Oval_106" cx="133" cy="250" r="1" transform="rotate(-90 133 250)" fill="#9A9A9A"/>
<circle id="Oval_107" cx="133" cy="232" r="1" transform="rotate(-90 133 232)" fill="#9A9A9A"/>
<circle id="Oval_108" cx="133" cy="215" r="1" transform="rotate(-90 133 215)" fill="#9A9A9A"/>
<circle id="Oval_109" cx="133" cy="197" r="1" transform="rotate(-90 133 197)" fill="#9A9A9A"/>
<circle id="Oval_110" cx="133" cy="179" r="1" transform="rotate(-90 133 179)" fill="#9A9A9A"/>
<circle id="Oval_111" cx="133" cy="161" r="1" transform="rotate(-90 133 161)" fill="#9A9A9A"/>
<circle id="Oval_112" cx="133" cy="143" r="1" transform="rotate(-90 133 143)" fill="#9A9A9A"/>
<circle id="Oval_113" cx="133" cy="125" r="1" transform="rotate(-90 133 125)" fill="#9A9A9A"/>
<circle id="Oval_114" cx="133" cy="108" r="1" transform="rotate(-90 133 108)" fill="#9A9A9A"/>
<circle id="Oval_115" cx="133" cy="90" r="1" transform="rotate(-90 133 90)" fill="#9A9A9A"/>
<circle id="Oval_116" cx="133" cy="72" r="1" transform="rotate(-90 133 72)" fill="#9A9A9A"/>
<circle id="Oval_117" cx="133" cy="54" r="1" transform="rotate(-90 133 54)" fill="#9A9A9A"/>
<circle id="Oval_118" cx="133" cy="36" r="1" transform="rotate(-90 133 36)" fill="#9A9A9A"/>
<circle id="Oval_119" cx="133" cy="19" r="1" transform="rotate(-90 133 19)" fill="#9A9A9A"/>
<circle id="Oval_120" cx="133" cy="1" r="1" transform="rotate(-90 133 1)" fill="#9A9A9A"/>
<circle id="Oval_121" cx="150" cy="250" r="1" transform="rotate(-90 150 250)" fill="#9A9A9A"/>
<circle id="Oval_122" cx="150" cy="232" r="1" transform="rotate(-90 150 232)" fill="#9A9A9A"/>
<circle id="Oval_123" cx="150" cy="215" r="1" transform="rotate(-90 150 215)" fill="#9A9A9A"/>
<circle id="Oval_124" cx="150" cy="197" r="1" transform="rotate(-90 150 197)" fill="#9A9A9A"/>
<circle id="Oval_125" cx="150" cy="179" r="1" transform="rotate(-90 150 179)" fill="#9A9A9A"/>
<circle id="Oval_126" cx="150" cy="161" r="1" transform="rotate(-90 150 161)" fill="#9A9A9A"/>
<circle id="Oval_127" cx="150" cy="143" r="1" transform="rotate(-90 150 143)" fill="#9A9A9A"/>
<circle id="Oval_128" cx="150" cy="125" r="1" transform="rotate(-90 150 125)" fill="#9A9A9A"/>
<circle id="Oval_129" cx="150" cy="108" r="1" transform="rotate(-90 150 108)" fill="#9A9A9A"/>
<circle id="Oval_130" cx="150" cy="90" r="1" transform="rotate(-90 150 90)" fill="#9A9A9A"/>
<circle id="Oval_131" cx="150" cy="72" r="1" transform="rotate(-90 150 72)" fill="#9A9A9A"/>
<circle id="Oval_132" cx="150" cy="54" r="1" transform="rotate(-90 150 54)" fill="#9A9A9A"/>
<circle id="Oval_133" cx="150" cy="36" r="1" transform="rotate(-90 150 36)" fill="#9A9A9A"/>
<circle id="Oval_134" cx="150" cy="19" r="1" transform="rotate(-90 150 19)" fill="#9A9A9A"/>
<circle id="Oval_135" cx="150" cy="1" r="1" transform="rotate(-90 150 1)" fill="#9A9A9A"/>
<circle id="Oval_136" cx="168" cy="250" r="1" transform="rotate(-90 168 250)" fill="#9A9A9A"/>
<circle id="Oval_137" cx="168" cy="232" r="1" transform="rotate(-90 168 232)" fill="#9A9A9A"/>
<circle id="Oval_138" cx="168" cy="215" r="1" transform="rotate(-90 168 215)" fill="#9A9A9A"/>
<circle id="Oval_139" cx="168" cy="197" r="1" transform="rotate(-90 168 197)" fill="#9A9A9A"/>
<circle id="Oval_140" cx="168" cy="179" r="1" transform="rotate(-90 168 179)" fill="#9A9A9A"/>
<circle id="Oval_141" cx="168" cy="161" r="1" transform="rotate(-90 168 161)" fill="#9A9A9A"/>
<circle id="Oval_142" cx="168" cy="143" r="1" transform="rotate(-90 168 143)" fill="#9A9A9A"/>
<circle id="Oval_143" cx="168" cy="125" r="1" transform="rotate(-90 168 125)" fill="#9A9A9A"/>
<circle id="Oval_144" cx="168" cy="108" r="1" transform="rotate(-90 168 108)" fill="#9A9A9A"/>
<circle id="Oval_145" cx="168" cy="90" r="1" transform="rotate(-90 168 90)" fill="#9A9A9A"/>
<circle id="Oval_146" cx="168" cy="72" r="1" transform="rotate(-90 168 72)" fill="#9A9A9A"/>
<circle id="Oval_147" cx="168" cy="54" r="1" transform="rotate(-90 168 54)" fill="#9A9A9A"/>
<circle id="Oval_148" cx="168" cy="36" r="1" transform="rotate(-90 168 36)" fill="#9A9A9A"/>
<circle id="Oval_149" cx="168" cy="19" r="1" transform="rotate(-90 168 19)" fill="#9A9A9A"/>
<circle id="Oval_150" cx="168" cy="1" r="1" transform="rotate(-90 168 1)" fill="#9A9A9A"/>
<circle id="Oval_151" cx="186" cy="250" r="1" transform="rotate(-90 186 250)" fill="#9A9A9A"/>
<circle id="Oval_152" cx="186" cy="232" r="1" transform="rotate(-90 186 232)" fill="#9A9A9A"/>
<circle id="Oval_153" cx="186" cy="215" r="1" transform="rotate(-90 186 215)" fill="#9A9A9A"/>
<circle id="Oval_154" cx="186" cy="197" r="1" transform="rotate(-90 186 197)" fill="#9A9A9A"/>
<circle id="Oval_155" cx="186" cy="179" r="1" transform="rotate(-90 186 179)" fill="#9A9A9A"/>
<circle id="Oval_156" cx="186" cy="161" r="1" transform="rotate(-90 186 161)" fill="#9A9A9A"/>
<circle id="Oval_157" cx="186" cy="143" r="1" transform="rotate(-90 186 143)" fill="#9A9A9A"/>
<circle id="Oval_158" cx="186" cy="125" r="1" transform="rotate(-90 186 125)" fill="#9A9A9A"/>
<circle id="Oval_159" cx="186" cy="108" r="1" transform="rotate(-90 186 108)" fill="#9A9A9A"/>
<circle id="Oval_160" cx="186" cy="90" r="1" transform="rotate(-90 186 90)" fill="#9A9A9A"/>
<circle id="Oval_161" cx="186" cy="72" r="1" transform="rotate(-90 186 72)" fill="#9A9A9A"/>
<circle id="Oval_162" cx="186" cy="54" r="1" transform="rotate(-90 186 54)" fill="#9A9A9A"/>
<circle id="Oval_163" cx="186" cy="36" r="1" transform="rotate(-90 186 36)" fill="#9A9A9A"/>
<circle id="Oval_164" cx="186" cy="19" r="1" transform="rotate(-90 186 19)" fill="#9A9A9A"/>
<circle id="Oval_165" cx="186" cy="1" r="1" transform="rotate(-90 186 1)" fill="#9A9A9A"/>
</g>
</svg>
