<svg width="278" height="280" viewBox="0 0 278 280" fill="none" xmlns="http://www.w3.org/2000/svg">
<g id="Bg Shape 2">
<circle id="Oval" cx="214.445" cy="5.33322" r="0.888889" transform="rotate(90 214.445 5.33322)" fill="#9A9A9A"/>
<circle id="Oval_2" cx="214.445" cy="24.8889" r="0.888889" transform="rotate(90 214.445 24.8889)" fill="#9A9A9A"/>
<circle id="Oval_3" cx="214.445" cy="44.4446" r="0.888889" transform="rotate(90 214.445 44.4446)" fill="#9A9A9A"/>
<circle id="Oval_4" cx="214.445" cy="64" r="0.888889" transform="rotate(90 214.445 64)" fill="#9A9A9A"/>
<circle id="Oval_5" cx="214.445" cy="83.5556" r="0.888889" transform="rotate(90 214.445 83.5556)" fill="#9A9A9A"/>
<circle id="Oval_6" cx="214.445" cy="103.111" r="0.888889" transform="rotate(90 214.445 103.111)" fill="#9A9A9A"/>
<circle id="Oval_7" cx="214.445" cy="122.667" r="0.888889" transform="rotate(90 214.445 122.667)" fill="#9A9A9A"/>
<circle id="Oval_8" cx="214.445" cy="142.222" r="0.888889" transform="rotate(90 214.445 142.222)" fill="#9A9A9A"/>
<circle id="Oval_9" cx="214.445" cy="161.778" r="0.888889" transform="rotate(90 214.445 161.778)" fill="#9A9A9A"/>
<circle id="Oval_10" cx="214.445" cy="181.333" r="0.888889" transform="rotate(90 214.445 181.333)" fill="#9A9A9A"/>
<circle id="Oval_11" cx="214.445" cy="200.889" r="0.888889" transform="rotate(90 214.445 200.889)" fill="#9A9A9A"/>
<circle id="Oval_12" cx="214.445" cy="220.445" r="0.888889" transform="rotate(90 214.445 220.445)" fill="#9A9A9A"/>
<circle id="Oval_13" cx="214.445" cy="240" r="0.888889" transform="rotate(90 214.445 240)" fill="#9A9A9A"/>
<circle id="Oval_14" cx="214.445" cy="259.556" r="0.888889" transform="rotate(90 214.445 259.556)" fill="#9A9A9A"/>
<circle id="Oval_15" cx="214.445" cy="279.111" r="0.888889" transform="rotate(90 214.445 279.111)" fill="#9A9A9A"/>
<circle id="Oval_16" cx="194.889" cy="5.33322" r="0.888889" transform="rotate(90 194.889 5.33322)" fill="#9A9A9A"/>
<circle id="Oval_17" cx="194.889" cy="24.8889" r="0.888889" transform="rotate(90 194.889 24.8889)" fill="#9A9A9A"/>
<circle id="Oval_18" cx="194.889" cy="44.4446" r="0.888889" transform="rotate(90 194.889 44.4446)" fill="#9A9A9A"/>
<circle id="Oval_19" cx="194.889" cy="64" r="0.888889" transform="rotate(90 194.889 64)" fill="#9A9A9A"/>
<circle id="Oval_20" cx="194.889" cy="83.5556" r="0.888889" transform="rotate(90 194.889 83.5556)" fill="#9A9A9A"/>
<circle id="Oval_21" cx="194.889" cy="103.111" r="0.888889" transform="rotate(90 194.889 103.111)" fill="#9A9A9A"/>
<circle id="Oval_22" cx="194.889" cy="122.667" r="0.888889" transform="rotate(90 194.889 122.667)" fill="#9A9A9A"/>
<circle id="Oval_23" cx="194.889" cy="142.222" r="0.888889" transform="rotate(90 194.889 142.222)" fill="#9A9A9A"/>
<circle id="Oval_24" cx="194.889" cy="161.778" r="0.888889" transform="rotate(90 194.889 161.778)" fill="#9A9A9A"/>
<circle id="Oval_25" cx="194.889" cy="181.333" r="0.888889" transform="rotate(90 194.889 181.333)" fill="#9A9A9A"/>
<circle id="Oval_26" cx="194.889" cy="200.889" r="0.888889" transform="rotate(90 194.889 200.889)" fill="#9A9A9A"/>
<circle id="Oval_27" cx="194.889" cy="220.445" r="0.888889" transform="rotate(90 194.889 220.445)" fill="#9A9A9A"/>
<circle id="Oval_28" cx="194.889" cy="240" r="0.888889" transform="rotate(90 194.889 240)" fill="#9A9A9A"/>
<circle id="Oval_29" cx="194.889" cy="259.556" r="0.888889" transform="rotate(90 194.889 259.556)" fill="#9A9A9A"/>
<circle id="Oval_30" cx="194.889" cy="279.111" r="0.888889" transform="rotate(90 194.889 279.111)" fill="#9A9A9A"/>
<circle id="Oval_31" cx="175.334" cy="5.33322" r="0.888889" transform="rotate(90 175.334 5.33322)" fill="#9A9A9A"/>
<circle id="Oval_32" cx="175.334" cy="24.8889" r="0.888889" transform="rotate(90 175.334 24.8889)" fill="#9A9A9A"/>
<circle id="Oval_33" cx="175.334" cy="44.4446" r="0.888889" transform="rotate(90 175.334 44.4446)" fill="#9A9A9A"/>
<circle id="Oval_34" cx="175.334" cy="64" r="0.888889" transform="rotate(90 175.334 64)" fill="#9A9A9A"/>
<circle id="Oval_35" cx="175.334" cy="83.5556" r="0.888889" transform="rotate(90 175.334 83.5556)" fill="#9A9A9A"/>
<circle id="Oval_36" cx="175.334" cy="103.111" r="0.888889" transform="rotate(90 175.334 103.111)" fill="#9A9A9A"/>
<circle id="Oval_37" cx="175.334" cy="122.667" r="0.888889" transform="rotate(90 175.334 122.667)" fill="#9A9A9A"/>
<circle id="Oval_38" cx="175.334" cy="142.222" r="0.888889" transform="rotate(90 175.334 142.222)" fill="#9A9A9A"/>
<circle id="Oval_39" cx="175.334" cy="161.778" r="0.888889" transform="rotate(90 175.334 161.778)" fill="#9A9A9A"/>
<circle id="Oval_40" cx="175.334" cy="181.333" r="0.888889" transform="rotate(90 175.334 181.333)" fill="#9A9A9A"/>
<circle id="Oval_41" cx="175.334" cy="200.889" r="0.888889" transform="rotate(90 175.334 200.889)" fill="#9A9A9A"/>
<circle id="Oval_42" cx="175.334" cy="220.445" r="0.888889" transform="rotate(90 175.334 220.445)" fill="#9A9A9A"/>
<circle id="Oval_43" cx="175.334" cy="240" r="0.888889" transform="rotate(90 175.334 240)" fill="#9A9A9A"/>
<circle id="Oval_44" cx="175.334" cy="259.556" r="0.888889" transform="rotate(90 175.334 259.556)" fill="#9A9A9A"/>
<circle id="Oval_45" cx="175.334" cy="279.111" r="0.888889" transform="rotate(90 175.334 279.111)" fill="#9A9A9A"/>
<circle id="Oval_46" cx="155.778" cy="5.33322" r="0.888889" transform="rotate(90 155.778 5.33322)" fill="#9A9A9A"/>
<circle id="Oval_47" cx="155.778" cy="24.8889" r="0.888889" transform="rotate(90 155.778 24.8889)" fill="#9A9A9A"/>
<circle id="Oval_48" cx="155.778" cy="44.4446" r="0.888889" transform="rotate(90 155.778 44.4446)" fill="#9A9A9A"/>
<circle id="Oval_49" cx="155.778" cy="64" r="0.888889" transform="rotate(90 155.778 64)" fill="#9A9A9A"/>
<circle id="Oval_50" cx="155.778" cy="83.5556" r="0.888889" transform="rotate(90 155.778 83.5556)" fill="#9A9A9A"/>
<circle id="Oval_51" cx="155.778" cy="103.111" r="0.888889" transform="rotate(90 155.778 103.111)" fill="#9A9A9A"/>
<circle id="Oval_52" cx="155.778" cy="122.667" r="0.888889" transform="rotate(90 155.778 122.667)" fill="#9A9A9A"/>
<circle id="Oval_53" cx="155.778" cy="142.222" r="0.888889" transform="rotate(90 155.778 142.222)" fill="#9A9A9A"/>
<circle id="Oval_54" cx="155.778" cy="161.778" r="0.888889" transform="rotate(90 155.778 161.778)" fill="#9A9A9A"/>
<circle id="Oval_55" cx="155.778" cy="181.333" r="0.888889" transform="rotate(90 155.778 181.333)" fill="#9A9A9A"/>
<circle id="Oval_56" cx="155.778" cy="200.889" r="0.888889" transform="rotate(90 155.778 200.889)" fill="#9A9A9A"/>
<circle id="Oval_57" cx="155.778" cy="220.445" r="0.888889" transform="rotate(90 155.778 220.445)" fill="#9A9A9A"/>
<circle id="Oval_58" cx="155.778" cy="240" r="0.888889" transform="rotate(90 155.778 240)" fill="#9A9A9A"/>
<circle id="Oval_59" cx="155.778" cy="259.556" r="0.888889" transform="rotate(90 155.778 259.556)" fill="#9A9A9A"/>
<circle id="Oval_60" cx="155.778" cy="279.111" r="0.888889" transform="rotate(90 155.778 279.111)" fill="#9A9A9A"/>
<circle id="Oval_61" cx="136.222" cy="5.33322" r="0.888889" transform="rotate(90 136.222 5.33322)" fill="#9A9A9A"/>
<circle id="Oval_62" cx="136.222" cy="24.8889" r="0.888889" transform="rotate(90 136.222 24.8889)" fill="#9A9A9A"/>
<circle id="Oval_63" cx="136.222" cy="44.4446" r="0.888889" transform="rotate(90 136.222 44.4446)" fill="#9A9A9A"/>
<circle id="Oval_64" cx="136.222" cy="64" r="0.888889" transform="rotate(90 136.222 64)" fill="#9A9A9A"/>
<circle id="Oval_65" cx="136.222" cy="83.5556" r="0.888889" transform="rotate(90 136.222 83.5556)" fill="#9A9A9A"/>
<circle id="Oval_66" cx="136.222" cy="103.111" r="0.888889" transform="rotate(90 136.222 103.111)" fill="#9A9A9A"/>
<circle id="Oval_67" cx="136.222" cy="122.667" r="0.888889" transform="rotate(90 136.222 122.667)" fill="#9A9A9A"/>
<circle id="Oval_68" cx="136.222" cy="142.222" r="0.888889" transform="rotate(90 136.222 142.222)" fill="#9A9A9A"/>
<circle id="Oval_69" cx="136.222" cy="161.778" r="0.888889" transform="rotate(90 136.222 161.778)" fill="#9A9A9A"/>
<circle id="Oval_70" cx="136.222" cy="181.333" r="0.888889" transform="rotate(90 136.222 181.333)" fill="#9A9A9A"/>
<circle id="Oval_71" cx="136.222" cy="200.889" r="0.888889" transform="rotate(90 136.222 200.889)" fill="#9A9A9A"/>
<circle id="Oval_72" cx="136.222" cy="220.445" r="0.888889" transform="rotate(90 136.222 220.445)" fill="#9A9A9A"/>
<circle id="Oval_73" cx="136.222" cy="240" r="0.888889" transform="rotate(90 136.222 240)" fill="#9A9A9A"/>
<circle id="Oval_74" cx="136.222" cy="259.556" r="0.888889" transform="rotate(90 136.222 259.556)" fill="#9A9A9A"/>
<circle id="Oval_75" cx="136.222" cy="279.111" r="0.888889" transform="rotate(90 136.222 279.111)" fill="#9A9A9A"/>
<circle id="Oval_76" cx="116.667" cy="5.33322" r="0.888889" transform="rotate(90 116.667 5.33322)" fill="#9A9A9A"/>
<circle id="Oval_77" cx="116.667" cy="24.8889" r="0.888889" transform="rotate(90 116.667 24.8889)" fill="#9A9A9A"/>
<circle id="Oval_78" cx="116.667" cy="44.4446" r="0.888889" transform="rotate(90 116.667 44.4446)" fill="#9A9A9A"/>
<circle id="Oval_79" cx="116.667" cy="64" r="0.888889" transform="rotate(90 116.667 64)" fill="#9A9A9A"/>
<circle id="Oval_80" cx="116.667" cy="83.5556" r="0.888889" transform="rotate(90 116.667 83.5556)" fill="#9A9A9A"/>
<circle id="Oval_81" cx="116.667" cy="103.111" r="0.888889" transform="rotate(90 116.667 103.111)" fill="#9A9A9A"/>
<circle id="Oval_82" cx="116.667" cy="122.667" r="0.888889" transform="rotate(90 116.667 122.667)" fill="#9A9A9A"/>
<circle id="Oval_83" cx="116.667" cy="142.222" r="0.888889" transform="rotate(90 116.667 142.222)" fill="#9A9A9A"/>
<circle id="Oval_84" cx="116.667" cy="161.778" r="0.888889" transform="rotate(90 116.667 161.778)" fill="#9A9A9A"/>
<circle id="Oval_85" cx="116.667" cy="181.333" r="0.888889" transform="rotate(90 116.667 181.333)" fill="#9A9A9A"/>
<circle id="Oval_86" cx="116.667" cy="200.889" r="0.888889" transform="rotate(90 116.667 200.889)" fill="#9A9A9A"/>
<circle id="Oval_87" cx="116.667" cy="220.445" r="0.888889" transform="rotate(90 116.667 220.445)" fill="#9A9A9A"/>
<circle id="Oval_88" cx="116.667" cy="240" r="0.888889" transform="rotate(90 116.667 240)" fill="#9A9A9A"/>
<circle id="Oval_89" cx="116.667" cy="259.556" r="0.888889" transform="rotate(90 116.667 259.556)" fill="#9A9A9A"/>
<circle id="Oval_90" cx="116.667" cy="279.111" r="0.888889" transform="rotate(90 116.667 279.111)" fill="#9A9A9A"/>
<circle id="Oval_91" cx="97.1111" cy="5.33322" r="0.888889" transform="rotate(90 97.1111 5.33322)" fill="#9A9A9A"/>
<circle id="Oval_92" cx="97.1111" cy="24.8889" r="0.888889" transform="rotate(90 97.1111 24.8889)" fill="#9A9A9A"/>
<circle id="Oval_93" cx="97.1111" cy="44.4446" r="0.888889" transform="rotate(90 97.1111 44.4446)" fill="#9A9A9A"/>
<circle id="Oval_94" cx="97.1111" cy="64" r="0.888889" transform="rotate(90 97.1111 64)" fill="#9A9A9A"/>
<circle id="Oval_95" cx="97.1111" cy="83.5556" r="0.888889" transform="rotate(90 97.1111 83.5556)" fill="#9A9A9A"/>
<circle id="Oval_96" cx="97.1111" cy="103.111" r="0.888889" transform="rotate(90 97.1111 103.111)" fill="#9A9A9A"/>
<circle id="Oval_97" cx="97.1111" cy="122.667" r="0.888889" transform="rotate(90 97.1111 122.667)" fill="#9A9A9A"/>
<circle id="Oval_98" cx="97.1111" cy="142.222" r="0.888889" transform="rotate(90 97.1111 142.222)" fill="#9A9A9A"/>
<circle id="Oval_99" cx="97.1111" cy="161.778" r="0.888889" transform="rotate(90 97.1111 161.778)" fill="#9A9A9A"/>
<circle id="Oval_100" cx="97.1111" cy="181.333" r="0.888889" transform="rotate(90 97.1111 181.333)" fill="#9A9A9A"/>
<circle id="Oval_101" cx="97.1111" cy="200.889" r="0.888889" transform="rotate(90 97.1111 200.889)" fill="#9A9A9A"/>
<circle id="Oval_102" cx="97.1111" cy="220.445" r="0.888889" transform="rotate(90 97.1111 220.445)" fill="#9A9A9A"/>
<circle id="Oval_103" cx="97.1111" cy="240" r="0.888889" transform="rotate(90 97.1111 240)" fill="#9A9A9A"/>
<circle id="Oval_104" cx="97.1111" cy="259.556" r="0.888889" transform="rotate(90 97.1111 259.556)" fill="#9A9A9A"/>
<circle id="Oval_105" cx="97.1111" cy="279.111" r="0.888889" transform="rotate(90 97.1111 279.111)" fill="#9A9A9A"/>
<circle id="Oval_106" cx="77.5564" cy="5.33322" r="0.888889" transform="rotate(90 77.5564 5.33322)" fill="#9A9A9A"/>
<circle id="Oval_107" cx="77.5564" cy="24.8889" r="0.888889" transform="rotate(90 77.5564 24.8889)" fill="#9A9A9A"/>
<circle id="Oval_108" cx="77.5564" cy="44.4446" r="0.888889" transform="rotate(90 77.5564 44.4446)" fill="#9A9A9A"/>
<circle id="Oval_109" cx="77.5564" cy="64" r="0.888889" transform="rotate(90 77.5564 64)" fill="#9A9A9A"/>
<circle id="Oval_110" cx="77.5564" cy="83.5556" r="0.888889" transform="rotate(90 77.5564 83.5556)" fill="#9A9A9A"/>
<circle id="Oval_111" cx="77.5564" cy="103.111" r="0.888889" transform="rotate(90 77.5564 103.111)" fill="#9A9A9A"/>
<circle id="Oval_112" cx="77.5564" cy="122.667" r="0.888889" transform="rotate(90 77.5564 122.667)" fill="#9A9A9A"/>
<circle id="Oval_113" cx="77.5564" cy="142.222" r="0.888889" transform="rotate(90 77.5564 142.222)" fill="#9A9A9A"/>
<circle id="Oval_114" cx="77.5564" cy="161.778" r="0.888889" transform="rotate(90 77.5564 161.778)" fill="#9A9A9A"/>
<circle id="Oval_115" cx="77.5564" cy="181.333" r="0.888889" transform="rotate(90 77.5564 181.333)" fill="#9A9A9A"/>
<circle id="Oval_116" cx="77.5564" cy="200.889" r="0.888889" transform="rotate(90 77.5564 200.889)" fill="#9A9A9A"/>
<circle id="Oval_117" cx="77.5564" cy="220.445" r="0.888889" transform="rotate(90 77.5564 220.445)" fill="#9A9A9A"/>
<circle id="Oval_118" cx="77.5564" cy="240" r="0.888889" transform="rotate(90 77.5564 240)" fill="#9A9A9A"/>
<circle id="Oval_119" cx="77.5564" cy="259.556" r="0.888889" transform="rotate(90 77.5564 259.556)" fill="#9A9A9A"/>
<circle id="Oval_120" cx="77.5564" cy="279.111" r="0.888889" transform="rotate(90 77.5564 279.111)" fill="#9A9A9A"/>
<circle id="Oval_121" cx="59.7781" cy="5.33322" r="0.888889" transform="rotate(90 59.7781 5.33322)" fill="#9A9A9A"/>
<circle id="Oval_122" cx="59.7781" cy="24.8889" r="0.888889" transform="rotate(90 59.7781 24.8889)" fill="#9A9A9A"/>
<circle id="Oval_123" cx="59.7781" cy="44.4446" r="0.888889" transform="rotate(90 59.7781 44.4446)" fill="#9A9A9A"/>
<circle id="Oval_124" cx="59.7781" cy="64" r="0.888889" transform="rotate(90 59.7781 64)" fill="#9A9A9A"/>
<circle id="Oval_125" cx="59.7781" cy="83.5556" r="0.888889" transform="rotate(90 59.7781 83.5556)" fill="#9A9A9A"/>
<circle id="Oval_126" cx="59.7781" cy="103.111" r="0.888889" transform="rotate(90 59.7781 103.111)" fill="#9A9A9A"/>
<circle id="Oval_127" cx="59.7781" cy="122.667" r="0.888889" transform="rotate(90 59.7781 122.667)" fill="#9A9A9A"/>
<circle id="Oval_128" cx="59.7781" cy="142.222" r="0.888889" transform="rotate(90 59.7781 142.222)" fill="#9A9A9A"/>
<circle id="Oval_129" cx="59.7781" cy="161.778" r="0.888889" transform="rotate(90 59.7781 161.778)" fill="#9A9A9A"/>
<circle id="Oval_130" cx="59.7781" cy="181.333" r="0.888889" transform="rotate(90 59.7781 181.333)" fill="#9A9A9A"/>
<circle id="Oval_131" cx="59.7781" cy="200.889" r="0.888889" transform="rotate(90 59.7781 200.889)" fill="#9A9A9A"/>
<circle id="Oval_132" cx="59.7781" cy="220.445" r="0.888889" transform="rotate(90 59.7781 220.445)" fill="#9A9A9A"/>
<circle id="Oval_133" cx="59.7781" cy="240" r="0.888889" transform="rotate(90 59.7781 240)" fill="#9A9A9A"/>
<circle id="Oval_134" cx="59.7781" cy="259.556" r="0.888889" transform="rotate(90 59.7781 259.556)" fill="#9A9A9A"/>
<circle id="Oval_135" cx="59.7781" cy="279.111" r="0.888889" transform="rotate(90 59.7781 279.111)" fill="#9A9A9A"/>
<circle id="Oval_136" cx="40.2224" cy="5.33322" r="0.888889" transform="rotate(90 40.2224 5.33322)" fill="#9A9A9A"/>
<circle id="Oval_137" cx="40.2224" cy="24.8889" r="0.888889" transform="rotate(90 40.2224 24.8889)" fill="#9A9A9A"/>
<circle id="Oval_138" cx="40.2224" cy="44.4446" r="0.888889" transform="rotate(90 40.2224 44.4446)" fill="#9A9A9A"/>
<circle id="Oval_139" cx="40.2224" cy="64" r="0.888889" transform="rotate(90 40.2224 64)" fill="#9A9A9A"/>
<circle id="Oval_140" cx="40.2224" cy="83.5556" r="0.888889" transform="rotate(90 40.2224 83.5556)" fill="#9A9A9A"/>
<circle id="Oval_141" cx="40.2224" cy="103.111" r="0.888889" transform="rotate(90 40.2224 103.111)" fill="#9A9A9A"/>
<circle id="Oval_142" cx="40.2224" cy="122.667" r="0.888889" transform="rotate(90 40.2224 122.667)" fill="#9A9A9A"/>
<circle id="Oval_143" cx="40.2224" cy="142.222" r="0.888889" transform="rotate(90 40.2224 142.222)" fill="#9A9A9A"/>
<circle id="Oval_144" cx="40.2224" cy="161.778" r="0.888889" transform="rotate(90 40.2224 161.778)" fill="#9A9A9A"/>
<circle id="Oval_145" cx="40.2224" cy="181.333" r="0.888889" transform="rotate(90 40.2224 181.333)" fill="#9A9A9A"/>
<circle id="Oval_146" cx="40.2224" cy="200.889" r="0.888889" transform="rotate(90 40.2224 200.889)" fill="#9A9A9A"/>
<circle id="Oval_147" cx="40.2224" cy="220.445" r="0.888889" transform="rotate(90 40.2224 220.445)" fill="#9A9A9A"/>
<circle id="Oval_148" cx="40.2224" cy="240" r="0.888889" transform="rotate(90 40.2224 240)" fill="#9A9A9A"/>
<circle id="Oval_149" cx="40.2224" cy="259.556" r="0.888889" transform="rotate(90 40.2224 259.556)" fill="#9A9A9A"/>
<circle id="Oval_150" cx="40.2224" cy="279.111" r="0.888889" transform="rotate(90 40.2224 279.111)" fill="#9A9A9A"/>
<circle id="Oval_151" cx="20.6668" cy="5.33322" r="0.888889" transform="rotate(90 20.6668 5.33322)" fill="#9A9A9A"/>
<circle id="Oval_152" cx="20.6668" cy="24.8889" r="0.888889" transform="rotate(90 20.6668 24.8889)" fill="#9A9A9A"/>
<circle id="Oval_153" cx="20.6668" cy="44.4446" r="0.888889" transform="rotate(90 20.6668 44.4446)" fill="#9A9A9A"/>
<circle id="Oval_154" cx="20.6668" cy="64" r="0.888889" transform="rotate(90 20.6668 64)" fill="#9A9A9A"/>
<circle id="Oval_155" cx="20.6668" cy="83.5556" r="0.888889" transform="rotate(90 20.6668 83.5556)" fill="#9A9A9A"/>
<circle id="Oval_156" cx="20.6668" cy="103.111" r="0.888889" transform="rotate(90 20.6668 103.111)" fill="#9A9A9A"/>
<circle id="Oval_157" cx="20.6668" cy="122.667" r="0.888889" transform="rotate(90 20.6668 122.667)" fill="#9A9A9A"/>
<circle id="Oval_158" cx="20.6668" cy="142.222" r="0.888889" transform="rotate(90 20.6668 142.222)" fill="#9A9A9A"/>
<circle id="Oval_159" cx="20.6668" cy="161.778" r="0.888889" transform="rotate(90 20.6668 161.778)" fill="#9A9A9A"/>
<circle id="Oval_160" cx="20.6668" cy="181.333" r="0.888889" transform="rotate(90 20.6668 181.333)" fill="#9A9A9A"/>
<circle id="Oval_161" cx="20.6668" cy="200.889" r="0.888889" transform="rotate(90 20.6668 200.889)" fill="#9A9A9A"/>
<circle id="Oval_162" cx="20.6668" cy="220.445" r="0.888889" transform="rotate(90 20.6668 220.445)" fill="#9A9A9A"/>
<circle id="Oval_163" cx="20.6668" cy="240" r="0.888889" transform="rotate(90 20.6668 240)" fill="#9A9A9A"/>
<circle id="Oval_164" cx="20.6668" cy="259.556" r="0.888889" transform="rotate(90 20.6668 259.556)" fill="#9A9A9A"/>
<circle id="Oval_165" cx="20.6668" cy="279.111" r="0.888889" transform="rotate(90 20.6668 279.111)" fill="#9A9A9A"/>
<circle id="Oval_166" cx="1.11111" cy="5.33322" r="0.888889" transform="rotate(90 1.11111 5.33322)" fill="#9A9A9A"/>
<circle id="Oval_167" cx="1.11111" cy="24.8889" r="0.888889" transform="rotate(90 1.11111 24.8889)" fill="#9A9A9A"/>
<circle id="Oval_168" cx="1.11111" cy="44.4446" r="0.888889" transform="rotate(90 1.11111 44.4446)" fill="#9A9A9A"/>
<circle id="Oval_169" cx="1.11111" cy="64" r="0.888889" transform="rotate(90 1.11111 64)" fill="#9A9A9A"/>
<circle id="Oval_170" cx="1.11111" cy="83.5556" r="0.888889" transform="rotate(90 1.11111 83.5556)" fill="#9A9A9A"/>
<circle id="Oval_171" cx="1.11111" cy="103.111" r="0.888889" transform="rotate(90 1.11111 103.111)" fill="#9A9A9A"/>
<circle id="Oval_172" cx="1.11111" cy="122.667" r="0.888889" transform="rotate(90 1.11111 122.667)" fill="#9A9A9A"/>
<circle id="Oval_173" cx="1.11111" cy="142.222" r="0.888889" transform="rotate(90 1.11111 142.222)" fill="#9A9A9A"/>
<circle id="Oval_174" cx="1.11111" cy="161.778" r="0.888889" transform="rotate(90 1.11111 161.778)" fill="#9A9A9A"/>
<circle id="Oval_175" cx="1.11111" cy="181.333" r="0.888889" transform="rotate(90 1.11111 181.333)" fill="#9A9A9A"/>
<circle id="Oval_176" cx="1.11111" cy="200.889" r="0.888889" transform="rotate(90 1.11111 200.889)" fill="#9A9A9A"/>
<circle id="Oval_177" cx="1.11111" cy="220.445" r="0.888889" transform="rotate(90 1.11111 220.445)" fill="#9A9A9A"/>
<circle id="Oval_178" cx="1.11111" cy="240" r="0.888889" transform="rotate(90 1.11111 240)" fill="#9A9A9A"/>
<circle id="Oval_179" cx="1.11111" cy="259.556" r="0.888889" transform="rotate(90 1.11111 259.556)" fill="#9A9A9A"/>
<circle id="Oval_180" cx="1.11111" cy="279.111" r="0.888889" transform="rotate(90 1.11111 279.111)" fill="#9A9A9A"/>
<circle id="Oval_181" cx="271.334" cy="5.33322" r="0.888889" transform="rotate(90 271.334 5.33322)" fill="#9A9A9A"/>
<circle id="Oval_182" cx="271.334" cy="24.8889" r="0.888889" transform="rotate(90 271.334 24.8889)" fill="#9A9A9A"/>
<circle id="Oval_183" cx="271.334" cy="44.4446" r="0.888889" transform="rotate(90 271.334 44.4446)" fill="#9A9A9A"/>
<circle id="Oval_184" cx="271.334" cy="64" r="0.888889" transform="rotate(90 271.334 64)" fill="#9A9A9A"/>
<circle id="Oval_185" cx="271.334" cy="83.5556" r="0.888889" transform="rotate(90 271.334 83.5556)" fill="#9A9A9A"/>
<circle id="Oval_186" cx="271.334" cy="103.111" r="0.888889" transform="rotate(90 271.334 103.111)" fill="#9A9A9A"/>
<circle id="Oval_187" cx="271.334" cy="122.667" r="0.888889" transform="rotate(90 271.334 122.667)" fill="#9A9A9A"/>
<circle id="Oval_188" cx="271.334" cy="142.222" r="0.888889" transform="rotate(90 271.334 142.222)" fill="#9A9A9A"/>
<circle id="Oval_189" cx="271.334" cy="161.778" r="0.888889" transform="rotate(90 271.334 161.778)" fill="#9A9A9A"/>
<circle id="Oval_190" cx="271.334" cy="181.333" r="0.888889" transform="rotate(90 271.334 181.333)" fill="#9A9A9A"/>
<circle id="Oval_191" cx="271.334" cy="200.889" r="0.888889" transform="rotate(90 271.334 200.889)" fill="#9A9A9A"/>
<circle id="Oval_192" cx="271.334" cy="220.445" r="0.888889" transform="rotate(90 271.334 220.445)" fill="#9A9A9A"/>
<circle id="Oval_193" cx="271.334" cy="240" r="0.888889" transform="rotate(90 271.334 240)" fill="#9A9A9A"/>
<circle id="Oval_194" cx="271.334" cy="259.556" r="0.888889" transform="rotate(90 271.334 259.556)" fill="#9A9A9A"/>
<circle id="Oval_195" cx="271.334" cy="279.111" r="0.888889" transform="rotate(90 271.334 279.111)" fill="#9A9A9A"/>
<circle id="Oval_196" cx="251.778" cy="5.33322" r="0.888889" transform="rotate(90 251.778 5.33322)" fill="#9A9A9A"/>
<circle id="Oval_197" cx="251.778" cy="24.8889" r="0.888889" transform="rotate(90 251.778 24.8889)" fill="#9A9A9A"/>
<circle id="Oval_198" cx="251.778" cy="44.4446" r="0.888889" transform="rotate(90 251.778 44.4446)" fill="#9A9A9A"/>
<circle id="Oval_199" cx="251.778" cy="64" r="0.888889" transform="rotate(90 251.778 64)" fill="#9A9A9A"/>
<circle id="Oval_200" cx="251.778" cy="83.5556" r="0.888889" transform="rotate(90 251.778 83.5556)" fill="#9A9A9A"/>
<circle id="Oval_201" cx="251.778" cy="103.111" r="0.888889" transform="rotate(90 251.778 103.111)" fill="#9A9A9A"/>
<circle id="Oval_202" cx="251.778" cy="122.667" r="0.888889" transform="rotate(90 251.778 122.667)" fill="#9A9A9A"/>
<circle id="Oval_203" cx="251.778" cy="142.222" r="0.888889" transform="rotate(90 251.778 142.222)" fill="#9A9A9A"/>
<circle id="Oval_204" cx="251.778" cy="161.778" r="0.888889" transform="rotate(90 251.778 161.778)" fill="#9A9A9A"/>
<circle id="Oval_205" cx="251.778" cy="181.333" r="0.888889" transform="rotate(90 251.778 181.333)" fill="#9A9A9A"/>
<circle id="Oval_206" cx="251.778" cy="200.889" r="0.888889" transform="rotate(90 251.778 200.889)" fill="#9A9A9A"/>
<circle id="Oval_207" cx="251.778" cy="220.445" r="0.888889" transform="rotate(90 251.778 220.445)" fill="#9A9A9A"/>
<circle id="Oval_208" cx="251.778" cy="240" r="0.888889" transform="rotate(90 251.778 240)" fill="#9A9A9A"/>
<circle id="Oval_209" cx="251.778" cy="259.556" r="0.888889" transform="rotate(90 251.778 259.556)" fill="#9A9A9A"/>
<circle id="Oval_210" cx="251.778" cy="279.111" r="0.888889" transform="rotate(90 251.778 279.111)" fill="#9A9A9A"/>
<circle id="Oval_211" cx="232.222" cy="5.33322" r="0.888889" transform="rotate(90 232.222 5.33322)" fill="#9A9A9A"/>
<circle id="Oval_212" cx="232.222" cy="24.8889" r="0.888889" transform="rotate(90 232.222 24.8889)" fill="#9A9A9A"/>
<circle id="Oval_213" cx="232.222" cy="44.4446" r="0.888889" transform="rotate(90 232.222 44.4446)" fill="#9A9A9A"/>
<circle id="Oval_214" cx="232.222" cy="64" r="0.888889" transform="rotate(90 232.222 64)" fill="#9A9A9A"/>
<circle id="Oval_215" cx="232.222" cy="83.5556" r="0.888889" transform="rotate(90 232.222 83.5556)" fill="#9A9A9A"/>
<circle id="Oval_216" cx="232.222" cy="103.111" r="0.888889" transform="rotate(90 232.222 103.111)" fill="#9A9A9A"/>
<circle id="Oval_217" cx="232.222" cy="122.667" r="0.888889" transform="rotate(90 232.222 122.667)" fill="#9A9A9A"/>
<circle id="Oval_218" cx="232.222" cy="142.222" r="0.888889" transform="rotate(90 232.222 142.222)" fill="#9A9A9A"/>
<circle id="Oval_219" cx="232.222" cy="161.778" r="0.888889" transform="rotate(90 232.222 161.778)" fill="#9A9A9A"/>
<circle id="Oval_220" cx="232.222" cy="181.333" r="0.888889" transform="rotate(90 232.222 181.333)" fill="#9A9A9A"/>
<circle id="Oval_221" cx="232.222" cy="200.889" r="0.888889" transform="rotate(90 232.222 200.889)" fill="#9A9A9A"/>
<circle id="Oval_222" cx="232.222" cy="220.445" r="0.888889" transform="rotate(90 232.222 220.445)" fill="#9A9A9A"/>
<circle id="Oval_223" cx="232.222" cy="240" r="0.888889" transform="rotate(90 232.222 240)" fill="#9A9A9A"/>
<circle id="Oval_224" cx="232.222" cy="259.556" r="0.888889" transform="rotate(90 232.222 259.556)" fill="#9A9A9A"/>
<circle id="Oval_225" cx="232.222" cy="279.111" r="0.888889" transform="rotate(90 232.222 279.111)" fill="#9A9A9A"/>
</g>
</svg>
