<svg width="191" height="280" viewBox="0 0 191 280" fill="none" xmlns="http://www.w3.org/2000/svg">
<g id="Shape 2">
<circle id="Oval" cx="15.6662" cy="274.667" r="0.888889" transform="rotate(-90 15.6662 274.667)" fill="#9A9A9A"/>
<circle id="Oval_2" cx="15.6662" cy="255.111" r="0.888889" transform="rotate(-90 15.6662 255.111)" fill="#9A9A9A"/>
<circle id="Oval_3" cx="15.6662" cy="235.555" r="0.888889" transform="rotate(-90 15.6662 235.555)" fill="#9A9A9A"/>
<circle id="Oval_4" cx="15.6662" cy="216" r="0.888889" transform="rotate(-90 15.6662 216)" fill="#9A9A9A"/>
<circle id="Oval_5" cx="15.6662" cy="196.445" r="0.888889" transform="rotate(-90 15.6662 196.445)" fill="#9A9A9A"/>
<circle id="Oval_6" cx="15.6662" cy="176.889" r="0.888889" transform="rotate(-90 15.6662 176.889)" fill="#9A9A9A"/>
<circle id="Oval_7" cx="15.6662" cy="157.333" r="0.888889" transform="rotate(-90 15.6662 157.333)" fill="#9A9A9A"/>
<circle id="Oval_8" cx="15.6662" cy="137.778" r="0.888889" transform="rotate(-90 15.6662 137.778)" fill="#9A9A9A"/>
<circle id="Oval_9" cx="15.6662" cy="118.222" r="0.888889" transform="rotate(-90 15.6662 118.222)" fill="#9A9A9A"/>
<circle id="Oval_10" cx="15.6662" cy="98.6668" r="0.888889" transform="rotate(-90 15.6662 98.6668)" fill="#9A9A9A"/>
<circle id="Oval_11" cx="15.6662" cy="79.1111" r="0.888889" transform="rotate(-90 15.6662 79.1111)" fill="#9A9A9A"/>
<circle id="Oval_12" cx="15.6662" cy="59.5554" r="0.888889" transform="rotate(-90 15.6662 59.5554)" fill="#9A9A9A"/>
<circle id="Oval_13" cx="15.6662" cy="39.9998" r="0.888889" transform="rotate(-90 15.6662 39.9998)" fill="#9A9A9A"/>
<circle id="Oval_14" cx="15.6662" cy="20.4446" r="0.888889" transform="rotate(-90 15.6662 20.4446)" fill="#9A9A9A"/>
<circle id="Oval_15" cx="15.6662" cy="0.888943" r="0.888889" transform="rotate(-90 15.6662 0.888943)" fill="#9A9A9A"/>
<circle id="Oval_16" cx="35.2219" cy="274.667" r="0.888889" transform="rotate(-90 35.2219 274.667)" fill="#9A9A9A"/>
<circle id="Oval_17" cx="35.2219" cy="255.111" r="0.888889" transform="rotate(-90 35.2219 255.111)" fill="#9A9A9A"/>
<circle id="Oval_18" cx="35.2219" cy="235.555" r="0.888889" transform="rotate(-90 35.2219 235.555)" fill="#9A9A9A"/>
<circle id="Oval_19" cx="35.2219" cy="216" r="0.888889" transform="rotate(-90 35.2219 216)" fill="#9A9A9A"/>
<circle id="Oval_20" cx="35.2219" cy="196.445" r="0.888889" transform="rotate(-90 35.2219 196.445)" fill="#9A9A9A"/>
<circle id="Oval_21" cx="35.2219" cy="176.889" r="0.888889" transform="rotate(-90 35.2219 176.889)" fill="#9A9A9A"/>
<circle id="Oval_22" cx="35.2219" cy="157.333" r="0.888889" transform="rotate(-90 35.2219 157.333)" fill="#9A9A9A"/>
<circle id="Oval_23" cx="35.2219" cy="137.778" r="0.888889" transform="rotate(-90 35.2219 137.778)" fill="#9A9A9A"/>
<circle id="Oval_24" cx="35.2219" cy="118.222" r="0.888889" transform="rotate(-90 35.2219 118.222)" fill="#9A9A9A"/>
<circle id="Oval_25" cx="35.2219" cy="98.6668" r="0.888889" transform="rotate(-90 35.2219 98.6668)" fill="#9A9A9A"/>
<circle id="Oval_26" cx="35.2219" cy="79.1111" r="0.888889" transform="rotate(-90 35.2219 79.1111)" fill="#9A9A9A"/>
<circle id="Oval_27" cx="35.2219" cy="59.5554" r="0.888889" transform="rotate(-90 35.2219 59.5554)" fill="#9A9A9A"/>
<circle id="Oval_28" cx="35.2219" cy="39.9998" r="0.888889" transform="rotate(-90 35.2219 39.9998)" fill="#9A9A9A"/>
<circle id="Oval_29" cx="35.2219" cy="20.4446" r="0.888889" transform="rotate(-90 35.2219 20.4446)" fill="#9A9A9A"/>
<circle id="Oval_30" cx="35.2219" cy="0.888943" r="0.888889" transform="rotate(-90 35.2219 0.888943)" fill="#9A9A9A"/>
<circle id="Oval_31" cx="54.7776" cy="274.667" r="0.888889" transform="rotate(-90 54.7776 274.667)" fill="#9A9A9A"/>
<circle id="Oval_32" cx="54.7776" cy="255.111" r="0.888889" transform="rotate(-90 54.7776 255.111)" fill="#9A9A9A"/>
<circle id="Oval_33" cx="54.7776" cy="235.555" r="0.888889" transform="rotate(-90 54.7776 235.555)" fill="#9A9A9A"/>
<circle id="Oval_34" cx="54.7776" cy="216" r="0.888889" transform="rotate(-90 54.7776 216)" fill="#9A9A9A"/>
<circle id="Oval_35" cx="54.7776" cy="196.445" r="0.888889" transform="rotate(-90 54.7776 196.445)" fill="#9A9A9A"/>
<circle id="Oval_36" cx="54.7776" cy="176.889" r="0.888889" transform="rotate(-90 54.7776 176.889)" fill="#9A9A9A"/>
<circle id="Oval_37" cx="54.7776" cy="157.333" r="0.888889" transform="rotate(-90 54.7776 157.333)" fill="#9A9A9A"/>
<circle id="Oval_38" cx="54.7776" cy="137.778" r="0.888889" transform="rotate(-90 54.7776 137.778)" fill="#9A9A9A"/>
<circle id="Oval_39" cx="54.7776" cy="118.222" r="0.888889" transform="rotate(-90 54.7776 118.222)" fill="#9A9A9A"/>
<circle id="Oval_40" cx="54.7776" cy="98.6668" r="0.888889" transform="rotate(-90 54.7776 98.6668)" fill="#9A9A9A"/>
<circle id="Oval_41" cx="54.7776" cy="79.1111" r="0.888889" transform="rotate(-90 54.7776 79.1111)" fill="#9A9A9A"/>
<circle id="Oval_42" cx="54.7776" cy="59.5554" r="0.888889" transform="rotate(-90 54.7776 59.5554)" fill="#9A9A9A"/>
<circle id="Oval_43" cx="54.7776" cy="39.9998" r="0.888889" transform="rotate(-90 54.7776 39.9998)" fill="#9A9A9A"/>
<circle id="Oval_44" cx="54.7776" cy="20.4446" r="0.888889" transform="rotate(-90 54.7776 20.4446)" fill="#9A9A9A"/>
<circle id="Oval_45" cx="54.7776" cy="0.888943" r="0.888889" transform="rotate(-90 54.7776 0.888943)" fill="#9A9A9A"/>
<circle id="Oval_46" cx="74.3332" cy="274.667" r="0.888889" transform="rotate(-90 74.3332 274.667)" fill="#9A9A9A"/>
<circle id="Oval_47" cx="74.3332" cy="255.111" r="0.888889" transform="rotate(-90 74.3332 255.111)" fill="#9A9A9A"/>
<circle id="Oval_48" cx="74.3332" cy="235.555" r="0.888889" transform="rotate(-90 74.3332 235.555)" fill="#9A9A9A"/>
<circle id="Oval_49" cx="74.3332" cy="216" r="0.888889" transform="rotate(-90 74.3332 216)" fill="#9A9A9A"/>
<circle id="Oval_50" cx="74.3332" cy="196.445" r="0.888889" transform="rotate(-90 74.3332 196.445)" fill="#9A9A9A"/>
<circle id="Oval_51" cx="74.3332" cy="176.889" r="0.888889" transform="rotate(-90 74.3332 176.889)" fill="#9A9A9A"/>
<circle id="Oval_52" cx="74.3332" cy="157.333" r="0.888889" transform="rotate(-90 74.3332 157.333)" fill="#9A9A9A"/>
<circle id="Oval_53" cx="74.3332" cy="137.778" r="0.888889" transform="rotate(-90 74.3332 137.778)" fill="#9A9A9A"/>
<circle id="Oval_54" cx="74.3332" cy="118.222" r="0.888889" transform="rotate(-90 74.3332 118.222)" fill="#9A9A9A"/>
<circle id="Oval_55" cx="74.3332" cy="98.6668" r="0.888889" transform="rotate(-90 74.3332 98.6668)" fill="#9A9A9A"/>
<circle id="Oval_56" cx="74.3332" cy="79.1111" r="0.888889" transform="rotate(-90 74.3332 79.1111)" fill="#9A9A9A"/>
<circle id="Oval_57" cx="74.3332" cy="59.5554" r="0.888889" transform="rotate(-90 74.3332 59.5554)" fill="#9A9A9A"/>
<circle id="Oval_58" cx="74.3332" cy="39.9998" r="0.888889" transform="rotate(-90 74.3332 39.9998)" fill="#9A9A9A"/>
<circle id="Oval_59" cx="74.3332" cy="20.4446" r="0.888889" transform="rotate(-90 74.3332 20.4446)" fill="#9A9A9A"/>
<circle id="Oval_60" cx="74.3332" cy="0.888943" r="0.888889" transform="rotate(-90 74.3332 0.888943)" fill="#9A9A9A"/>
<circle id="Oval_61" cx="93.8889" cy="274.667" r="0.888889" transform="rotate(-90 93.8889 274.667)" fill="#9A9A9A"/>
<circle id="Oval_62" cx="93.8889" cy="255.111" r="0.888889" transform="rotate(-90 93.8889 255.111)" fill="#9A9A9A"/>
<circle id="Oval_63" cx="93.8889" cy="235.555" r="0.888889" transform="rotate(-90 93.8889 235.555)" fill="#9A9A9A"/>
<circle id="Oval_64" cx="93.8889" cy="216" r="0.888889" transform="rotate(-90 93.8889 216)" fill="#9A9A9A"/>
<circle id="Oval_65" cx="93.8889" cy="196.445" r="0.888889" transform="rotate(-90 93.8889 196.445)" fill="#9A9A9A"/>
<circle id="Oval_66" cx="93.8889" cy="176.889" r="0.888889" transform="rotate(-90 93.8889 176.889)" fill="#9A9A9A"/>
<circle id="Oval_67" cx="93.8889" cy="157.333" r="0.888889" transform="rotate(-90 93.8889 157.333)" fill="#9A9A9A"/>
<circle id="Oval_68" cx="93.8889" cy="137.778" r="0.888889" transform="rotate(-90 93.8889 137.778)" fill="#9A9A9A"/>
<circle id="Oval_69" cx="93.8889" cy="118.222" r="0.888889" transform="rotate(-90 93.8889 118.222)" fill="#9A9A9A"/>
<circle id="Oval_70" cx="93.8889" cy="98.6668" r="0.888889" transform="rotate(-90 93.8889 98.6668)" fill="#9A9A9A"/>
<circle id="Oval_71" cx="93.8889" cy="79.1111" r="0.888889" transform="rotate(-90 93.8889 79.1111)" fill="#9A9A9A"/>
<circle id="Oval_72" cx="93.8889" cy="59.5554" r="0.888889" transform="rotate(-90 93.8889 59.5554)" fill="#9A9A9A"/>
<circle id="Oval_73" cx="93.8889" cy="39.9998" r="0.888889" transform="rotate(-90 93.8889 39.9998)" fill="#9A9A9A"/>
<circle id="Oval_74" cx="93.8889" cy="20.4446" r="0.888889" transform="rotate(-90 93.8889 20.4446)" fill="#9A9A9A"/>
<circle id="Oval_75" cx="93.8889" cy="0.888943" r="0.888889" transform="rotate(-90 93.8889 0.888943)" fill="#9A9A9A"/>
<circle id="Oval_76" cx="113.444" cy="274.667" r="0.888889" transform="rotate(-90 113.444 274.667)" fill="#9A9A9A"/>
<circle id="Oval_77" cx="113.444" cy="255.111" r="0.888889" transform="rotate(-90 113.444 255.111)" fill="#9A9A9A"/>
<circle id="Oval_78" cx="113.444" cy="235.555" r="0.888889" transform="rotate(-90 113.444 235.555)" fill="#9A9A9A"/>
<circle id="Oval_79" cx="113.444" cy="216" r="0.888889" transform="rotate(-90 113.444 216)" fill="#9A9A9A"/>
<circle id="Oval_80" cx="113.444" cy="196.445" r="0.888889" transform="rotate(-90 113.444 196.445)" fill="#9A9A9A"/>
<circle id="Oval_81" cx="113.444" cy="176.889" r="0.888889" transform="rotate(-90 113.444 176.889)" fill="#9A9A9A"/>
<circle id="Oval_82" cx="113.444" cy="157.333" r="0.888889" transform="rotate(-90 113.444 157.333)" fill="#9A9A9A"/>
<circle id="Oval_83" cx="113.444" cy="137.778" r="0.888889" transform="rotate(-90 113.444 137.778)" fill="#9A9A9A"/>
<circle id="Oval_84" cx="113.444" cy="118.222" r="0.888889" transform="rotate(-90 113.444 118.222)" fill="#9A9A9A"/>
<circle id="Oval_85" cx="113.444" cy="98.6668" r="0.888889" transform="rotate(-90 113.444 98.6668)" fill="#9A9A9A"/>
<circle id="Oval_86" cx="113.444" cy="79.1111" r="0.888889" transform="rotate(-90 113.444 79.1111)" fill="#9A9A9A"/>
<circle id="Oval_87" cx="113.444" cy="59.5554" r="0.888889" transform="rotate(-90 113.444 59.5554)" fill="#9A9A9A"/>
<circle id="Oval_88" cx="113.444" cy="39.9998" r="0.888889" transform="rotate(-90 113.444 39.9998)" fill="#9A9A9A"/>
<circle id="Oval_89" cx="113.444" cy="20.4446" r="0.888889" transform="rotate(-90 113.444 20.4446)" fill="#9A9A9A"/>
<circle id="Oval_90" cx="113.444" cy="0.888943" r="0.888889" transform="rotate(-90 113.444 0.888943)" fill="#9A9A9A"/>
<circle id="Oval_91" cx="131.222" cy="274.667" r="0.888889" transform="rotate(-90 131.222 274.667)" fill="#9A9A9A"/>
<circle id="Oval_92" cx="131.222" cy="255.111" r="0.888889" transform="rotate(-90 131.222 255.111)" fill="#9A9A9A"/>
<circle id="Oval_93" cx="131.222" cy="235.555" r="0.888889" transform="rotate(-90 131.222 235.555)" fill="#9A9A9A"/>
<circle id="Oval_94" cx="131.222" cy="216" r="0.888889" transform="rotate(-90 131.222 216)" fill="#9A9A9A"/>
<circle id="Oval_95" cx="131.222" cy="196.445" r="0.888889" transform="rotate(-90 131.222 196.445)" fill="#9A9A9A"/>
<circle id="Oval_96" cx="131.222" cy="176.889" r="0.888889" transform="rotate(-90 131.222 176.889)" fill="#9A9A9A"/>
<circle id="Oval_97" cx="131.222" cy="157.333" r="0.888889" transform="rotate(-90 131.222 157.333)" fill="#9A9A9A"/>
<circle id="Oval_98" cx="131.222" cy="137.778" r="0.888889" transform="rotate(-90 131.222 137.778)" fill="#9A9A9A"/>
<circle id="Oval_99" cx="131.222" cy="118.222" r="0.888889" transform="rotate(-90 131.222 118.222)" fill="#9A9A9A"/>
<circle id="Oval_100" cx="131.222" cy="98.6668" r="0.888889" transform="rotate(-90 131.222 98.6668)" fill="#9A9A9A"/>
<circle id="Oval_101" cx="131.222" cy="79.1111" r="0.888889" transform="rotate(-90 131.222 79.1111)" fill="#9A9A9A"/>
<circle id="Oval_102" cx="131.222" cy="59.5554" r="0.888889" transform="rotate(-90 131.222 59.5554)" fill="#9A9A9A"/>
<circle id="Oval_103" cx="131.222" cy="39.9998" r="0.888889" transform="rotate(-90 131.222 39.9998)" fill="#9A9A9A"/>
<circle id="Oval_104" cx="131.222" cy="20.4446" r="0.888889" transform="rotate(-90 131.222 20.4446)" fill="#9A9A9A"/>
<circle id="Oval_105" cx="131.222" cy="0.888943" r="0.888889" transform="rotate(-90 131.222 0.888943)" fill="#9A9A9A"/>
<circle id="Oval_106" cx="150.778" cy="274.667" r="0.888889" transform="rotate(-90 150.778 274.667)" fill="#9A9A9A"/>
<circle id="Oval_107" cx="150.778" cy="255.111" r="0.888889" transform="rotate(-90 150.778 255.111)" fill="#9A9A9A"/>
<circle id="Oval_108" cx="150.778" cy="235.555" r="0.888889" transform="rotate(-90 150.778 235.555)" fill="#9A9A9A"/>
<circle id="Oval_109" cx="150.778" cy="216" r="0.888889" transform="rotate(-90 150.778 216)" fill="#9A9A9A"/>
<circle id="Oval_110" cx="150.778" cy="196.445" r="0.888889" transform="rotate(-90 150.778 196.445)" fill="#9A9A9A"/>
<circle id="Oval_111" cx="150.778" cy="176.889" r="0.888889" transform="rotate(-90 150.778 176.889)" fill="#9A9A9A"/>
<circle id="Oval_112" cx="150.778" cy="157.333" r="0.888889" transform="rotate(-90 150.778 157.333)" fill="#9A9A9A"/>
<circle id="Oval_113" cx="150.778" cy="137.778" r="0.888889" transform="rotate(-90 150.778 137.778)" fill="#9A9A9A"/>
<circle id="Oval_114" cx="150.778" cy="118.222" r="0.888889" transform="rotate(-90 150.778 118.222)" fill="#9A9A9A"/>
<circle id="Oval_115" cx="150.778" cy="98.6668" r="0.888889" transform="rotate(-90 150.778 98.6668)" fill="#9A9A9A"/>
<circle id="Oval_116" cx="150.778" cy="79.1111" r="0.888889" transform="rotate(-90 150.778 79.1111)" fill="#9A9A9A"/>
<circle id="Oval_117" cx="150.778" cy="59.5554" r="0.888889" transform="rotate(-90 150.778 59.5554)" fill="#9A9A9A"/>
<circle id="Oval_118" cx="150.778" cy="39.9998" r="0.888889" transform="rotate(-90 150.778 39.9998)" fill="#9A9A9A"/>
<circle id="Oval_119" cx="150.778" cy="20.4446" r="0.888889" transform="rotate(-90 150.778 20.4446)" fill="#9A9A9A"/>
<circle id="Oval_120" cx="150.778" cy="0.888943" r="0.888889" transform="rotate(-90 150.778 0.888943)" fill="#9A9A9A"/>
<circle id="Oval_121" cx="170.333" cy="274.667" r="0.888889" transform="rotate(-90 170.333 274.667)" fill="#9A9A9A"/>
<circle id="Oval_122" cx="170.333" cy="255.111" r="0.888889" transform="rotate(-90 170.333 255.111)" fill="#9A9A9A"/>
<circle id="Oval_123" cx="170.333" cy="235.555" r="0.888889" transform="rotate(-90 170.333 235.555)" fill="#9A9A9A"/>
<circle id="Oval_124" cx="170.333" cy="216" r="0.888889" transform="rotate(-90 170.333 216)" fill="#9A9A9A"/>
<circle id="Oval_125" cx="170.333" cy="196.445" r="0.888889" transform="rotate(-90 170.333 196.445)" fill="#9A9A9A"/>
<circle id="Oval_126" cx="170.333" cy="176.889" r="0.888889" transform="rotate(-90 170.333 176.889)" fill="#9A9A9A"/>
<circle id="Oval_127" cx="170.333" cy="157.333" r="0.888889" transform="rotate(-90 170.333 157.333)" fill="#9A9A9A"/>
<circle id="Oval_128" cx="170.333" cy="137.778" r="0.888889" transform="rotate(-90 170.333 137.778)" fill="#9A9A9A"/>
<circle id="Oval_129" cx="170.333" cy="118.222" r="0.888889" transform="rotate(-90 170.333 118.222)" fill="#9A9A9A"/>
<circle id="Oval_130" cx="170.333" cy="98.6668" r="0.888889" transform="rotate(-90 170.333 98.6668)" fill="#9A9A9A"/>
<circle id="Oval_131" cx="170.333" cy="79.1111" r="0.888889" transform="rotate(-90 170.333 79.1111)" fill="#9A9A9A"/>
<circle id="Oval_132" cx="170.333" cy="59.5554" r="0.888889" transform="rotate(-90 170.333 59.5554)" fill="#9A9A9A"/>
<circle id="Oval_133" cx="170.333" cy="39.9998" r="0.888889" transform="rotate(-90 170.333 39.9998)" fill="#9A9A9A"/>
<circle id="Oval_134" cx="170.333" cy="20.4446" r="0.888889" transform="rotate(-90 170.333 20.4446)" fill="#9A9A9A"/>
<circle id="Oval_135" cx="170.333" cy="0.888943" r="0.888889" transform="rotate(-90 170.333 0.888943)" fill="#9A9A9A"/>
<circle id="Oval_136" cx="189.889" cy="274.667" r="0.888889" transform="rotate(-90 189.889 274.667)" fill="#9A9A9A"/>
<circle id="Oval_137" cx="189.889" cy="255.111" r="0.888889" transform="rotate(-90 189.889 255.111)" fill="#9A9A9A"/>
<circle id="Oval_138" cx="189.889" cy="235.555" r="0.888889" transform="rotate(-90 189.889 235.555)" fill="#9A9A9A"/>
<circle id="Oval_139" cx="189.889" cy="216" r="0.888889" transform="rotate(-90 189.889 216)" fill="#9A9A9A"/>
<circle id="Oval_140" cx="189.889" cy="196.445" r="0.888889" transform="rotate(-90 189.889 196.445)" fill="#9A9A9A"/>
<circle id="Oval_141" cx="189.889" cy="176.889" r="0.888889" transform="rotate(-90 189.889 176.889)" fill="#9A9A9A"/>
<circle id="Oval_142" cx="189.889" cy="157.333" r="0.888889" transform="rotate(-90 189.889 157.333)" fill="#9A9A9A"/>
<circle id="Oval_143" cx="189.889" cy="137.778" r="0.888889" transform="rotate(-90 189.889 137.778)" fill="#9A9A9A"/>
<circle id="Oval_144" cx="189.889" cy="118.222" r="0.888889" transform="rotate(-90 189.889 118.222)" fill="#9A9A9A"/>
<circle id="Oval_145" cx="189.889" cy="98.6668" r="0.888889" transform="rotate(-90 189.889 98.6668)" fill="#9A9A9A"/>
<circle id="Oval_146" cx="189.889" cy="79.1111" r="0.888889" transform="rotate(-90 189.889 79.1111)" fill="#9A9A9A"/>
<circle id="Oval_147" cx="189.889" cy="59.5554" r="0.888889" transform="rotate(-90 189.889 59.5554)" fill="#9A9A9A"/>
<circle id="Oval_148" cx="189.889" cy="39.9998" r="0.888889" transform="rotate(-90 189.889 39.9998)" fill="#9A9A9A"/>
<circle id="Oval_149" cx="189.889" cy="20.4446" r="0.888889" transform="rotate(-90 189.889 20.4446)" fill="#9A9A9A"/>
<circle id="Oval_150" cx="189.889" cy="0.888943" r="0.888889" transform="rotate(-90 189.889 0.888943)" fill="#9A9A9A"/>
</g>
</svg>
