<svg width="185" height="280" viewBox="0 0 185 280" fill="none" xmlns="http://www.w3.org/2000/svg">
<circle cx="175.334" cy="5.33322" r="0.888889" transform="rotate(90 175.334 5.33322)" fill="#9A9A9A"/>
<circle cx="175.334" cy="24.8889" r="0.888889" transform="rotate(90 175.334 24.8889)" fill="#9A9A9A"/>
<circle cx="175.334" cy="44.4446" r="0.888889" transform="rotate(90 175.334 44.4446)" fill="#9A9A9A"/>
<circle cx="175.334" cy="64" r="0.888889" transform="rotate(90 175.334 64)" fill="#9A9A9A"/>
<circle cx="175.334" cy="83.5556" r="0.888889" transform="rotate(90 175.334 83.5556)" fill="#9A9A9A"/>
<circle cx="175.334" cy="103.111" r="0.888889" transform="rotate(90 175.334 103.111)" fill="#9A9A9A"/>
<circle cx="175.334" cy="122.667" r="0.888889" transform="rotate(90 175.334 122.667)" fill="#9A9A9A"/>
<circle cx="175.334" cy="142.222" r="0.888889" transform="rotate(90 175.334 142.222)" fill="#9A9A9A"/>
<circle cx="175.334" cy="161.778" r="0.888889" transform="rotate(90 175.334 161.778)" fill="#9A9A9A"/>
<circle cx="175.334" cy="181.333" r="0.888889" transform="rotate(90 175.334 181.333)" fill="#9A9A9A"/>
<circle cx="175.334" cy="200.889" r="0.888889" transform="rotate(90 175.334 200.889)" fill="#9A9A9A"/>
<circle cx="175.334" cy="220.445" r="0.888889" transform="rotate(90 175.334 220.445)" fill="#9A9A9A"/>
<circle cx="175.334" cy="240" r="0.888889" transform="rotate(90 175.334 240)" fill="#9A9A9A"/>
<circle cx="175.334" cy="259.556" r="0.888889" transform="rotate(90 175.334 259.556)" fill="#9A9A9A"/>
<circle cx="175.334" cy="279.111" r="0.888889" transform="rotate(90 175.334 279.111)" fill="#9A9A9A"/>
<circle cx="155.778" cy="5.33322" r="0.888889" transform="rotate(90 155.778 5.33322)" fill="#9A9A9A"/>
<circle cx="155.778" cy="24.8889" r="0.888889" transform="rotate(90 155.778 24.8889)" fill="#9A9A9A"/>
<circle cx="155.778" cy="44.4446" r="0.888889" transform="rotate(90 155.778 44.4446)" fill="#9A9A9A"/>
<circle cx="155.778" cy="64" r="0.888889" transform="rotate(90 155.778 64)" fill="#9A9A9A"/>
<circle cx="155.778" cy="83.5556" r="0.888889" transform="rotate(90 155.778 83.5556)" fill="#9A9A9A"/>
<circle cx="155.778" cy="103.111" r="0.888889" transform="rotate(90 155.778 103.111)" fill="#9A9A9A"/>
<circle cx="155.778" cy="122.667" r="0.888889" transform="rotate(90 155.778 122.667)" fill="#9A9A9A"/>
<circle cx="155.778" cy="142.222" r="0.888889" transform="rotate(90 155.778 142.222)" fill="#9A9A9A"/>
<circle cx="155.778" cy="161.778" r="0.888889" transform="rotate(90 155.778 161.778)" fill="#9A9A9A"/>
<circle cx="155.778" cy="181.333" r="0.888889" transform="rotate(90 155.778 181.333)" fill="#9A9A9A"/>
<circle cx="155.778" cy="200.889" r="0.888889" transform="rotate(90 155.778 200.889)" fill="#9A9A9A"/>
<circle cx="155.778" cy="220.445" r="0.888889" transform="rotate(90 155.778 220.445)" fill="#9A9A9A"/>
<circle cx="155.778" cy="240" r="0.888889" transform="rotate(90 155.778 240)" fill="#9A9A9A"/>
<circle cx="155.778" cy="259.556" r="0.888889" transform="rotate(90 155.778 259.556)" fill="#9A9A9A"/>
<circle cx="155.778" cy="279.111" r="0.888889" transform="rotate(90 155.778 279.111)" fill="#9A9A9A"/>
<circle cx="136.222" cy="5.33322" r="0.888889" transform="rotate(90 136.222 5.33322)" fill="#9A9A9A"/>
<circle cx="136.222" cy="24.8889" r="0.888889" transform="rotate(90 136.222 24.8889)" fill="#9A9A9A"/>
<circle cx="136.222" cy="44.4446" r="0.888889" transform="rotate(90 136.222 44.4446)" fill="#9A9A9A"/>
<circle cx="136.222" cy="64" r="0.888889" transform="rotate(90 136.222 64)" fill="#9A9A9A"/>
<circle cx="136.222" cy="83.5556" r="0.888889" transform="rotate(90 136.222 83.5556)" fill="#9A9A9A"/>
<circle cx="136.222" cy="103.111" r="0.888889" transform="rotate(90 136.222 103.111)" fill="#9A9A9A"/>
<circle cx="136.222" cy="122.667" r="0.888889" transform="rotate(90 136.222 122.667)" fill="#9A9A9A"/>
<circle cx="136.222" cy="142.222" r="0.888889" transform="rotate(90 136.222 142.222)" fill="#9A9A9A"/>
<circle cx="136.222" cy="161.778" r="0.888889" transform="rotate(90 136.222 161.778)" fill="#9A9A9A"/>
<circle cx="136.222" cy="181.333" r="0.888889" transform="rotate(90 136.222 181.333)" fill="#9A9A9A"/>
<circle cx="136.222" cy="200.889" r="0.888889" transform="rotate(90 136.222 200.889)" fill="#9A9A9A"/>
<circle cx="136.222" cy="220.445" r="0.888889" transform="rotate(90 136.222 220.445)" fill="#9A9A9A"/>
<circle cx="136.222" cy="240" r="0.888889" transform="rotate(90 136.222 240)" fill="#9A9A9A"/>
<circle cx="136.222" cy="259.556" r="0.888889" transform="rotate(90 136.222 259.556)" fill="#9A9A9A"/>
<circle cx="136.222" cy="279.111" r="0.888889" transform="rotate(90 136.222 279.111)" fill="#9A9A9A"/>
<circle cx="116.667" cy="5.33322" r="0.888889" transform="rotate(90 116.667 5.33322)" fill="#9A9A9A"/>
<circle cx="116.667" cy="24.8889" r="0.888889" transform="rotate(90 116.667 24.8889)" fill="#9A9A9A"/>
<circle cx="116.667" cy="44.4446" r="0.888889" transform="rotate(90 116.667 44.4446)" fill="#9A9A9A"/>
<circle cx="116.667" cy="64" r="0.888889" transform="rotate(90 116.667 64)" fill="#9A9A9A"/>
<circle cx="116.667" cy="83.5556" r="0.888889" transform="rotate(90 116.667 83.5556)" fill="#9A9A9A"/>
<circle cx="116.667" cy="103.111" r="0.888889" transform="rotate(90 116.667 103.111)" fill="#9A9A9A"/>
<circle cx="116.667" cy="122.667" r="0.888889" transform="rotate(90 116.667 122.667)" fill="#9A9A9A"/>
<circle cx="116.667" cy="142.222" r="0.888889" transform="rotate(90 116.667 142.222)" fill="#9A9A9A"/>
<circle cx="116.667" cy="161.778" r="0.888889" transform="rotate(90 116.667 161.778)" fill="#9A9A9A"/>
<circle cx="116.667" cy="181.333" r="0.888889" transform="rotate(90 116.667 181.333)" fill="#9A9A9A"/>
<circle cx="116.667" cy="200.889" r="0.888889" transform="rotate(90 116.667 200.889)" fill="#9A9A9A"/>
<circle cx="116.667" cy="220.445" r="0.888889" transform="rotate(90 116.667 220.445)" fill="#9A9A9A"/>
<circle cx="116.667" cy="240" r="0.888889" transform="rotate(90 116.667 240)" fill="#9A9A9A"/>
<circle cx="116.667" cy="259.556" r="0.888889" transform="rotate(90 116.667 259.556)" fill="#9A9A9A"/>
<circle cx="116.667" cy="279.111" r="0.888889" transform="rotate(90 116.667 279.111)" fill="#9A9A9A"/>
<circle cx="97.1111" cy="5.33322" r="0.888889" transform="rotate(90 97.1111 5.33322)" fill="#9A9A9A"/>
<circle cx="97.1111" cy="24.8889" r="0.888889" transform="rotate(90 97.1111 24.8889)" fill="#9A9A9A"/>
<circle cx="97.1111" cy="44.4446" r="0.888889" transform="rotate(90 97.1111 44.4446)" fill="#9A9A9A"/>
<circle cx="97.1111" cy="64" r="0.888889" transform="rotate(90 97.1111 64)" fill="#9A9A9A"/>
<circle cx="97.1111" cy="83.5556" r="0.888889" transform="rotate(90 97.1111 83.5556)" fill="#9A9A9A"/>
<circle cx="97.1111" cy="103.111" r="0.888889" transform="rotate(90 97.1111 103.111)" fill="#9A9A9A"/>
<circle cx="97.1111" cy="122.667" r="0.888889" transform="rotate(90 97.1111 122.667)" fill="#9A9A9A"/>
<circle cx="97.1111" cy="142.222" r="0.888889" transform="rotate(90 97.1111 142.222)" fill="#9A9A9A"/>
<circle cx="97.1111" cy="161.778" r="0.888889" transform="rotate(90 97.1111 161.778)" fill="#9A9A9A"/>
<circle cx="97.1111" cy="181.333" r="0.888889" transform="rotate(90 97.1111 181.333)" fill="#9A9A9A"/>
<circle cx="97.1111" cy="200.889" r="0.888889" transform="rotate(90 97.1111 200.889)" fill="#9A9A9A"/>
<circle cx="97.1111" cy="220.445" r="0.888889" transform="rotate(90 97.1111 220.445)" fill="#9A9A9A"/>
<circle cx="97.1111" cy="240" r="0.888889" transform="rotate(90 97.1111 240)" fill="#9A9A9A"/>
<circle cx="97.1111" cy="259.556" r="0.888889" transform="rotate(90 97.1111 259.556)" fill="#9A9A9A"/>
<circle cx="97.1111" cy="279.111" r="0.888889" transform="rotate(90 97.1111 279.111)" fill="#9A9A9A"/>
<circle cx="77.5564" cy="5.33322" r="0.888889" transform="rotate(90 77.5564 5.33322)" fill="#9A9A9A"/>
<circle cx="77.5564" cy="24.8889" r="0.888889" transform="rotate(90 77.5564 24.8889)" fill="#9A9A9A"/>
<circle cx="77.5564" cy="44.4446" r="0.888889" transform="rotate(90 77.5564 44.4446)" fill="#9A9A9A"/>
<circle cx="77.5564" cy="64" r="0.888889" transform="rotate(90 77.5564 64)" fill="#9A9A9A"/>
<circle cx="77.5564" cy="83.5556" r="0.888889" transform="rotate(90 77.5564 83.5556)" fill="#9A9A9A"/>
<circle cx="77.5564" cy="103.111" r="0.888889" transform="rotate(90 77.5564 103.111)" fill="#9A9A9A"/>
<circle cx="77.5564" cy="122.667" r="0.888889" transform="rotate(90 77.5564 122.667)" fill="#9A9A9A"/>
<circle cx="77.5564" cy="142.222" r="0.888889" transform="rotate(90 77.5564 142.222)" fill="#9A9A9A"/>
<circle cx="77.5564" cy="161.778" r="0.888889" transform="rotate(90 77.5564 161.778)" fill="#9A9A9A"/>
<circle cx="77.5564" cy="181.333" r="0.888889" transform="rotate(90 77.5564 181.333)" fill="#9A9A9A"/>
<circle cx="77.5564" cy="200.889" r="0.888889" transform="rotate(90 77.5564 200.889)" fill="#9A9A9A"/>
<circle cx="77.5564" cy="220.445" r="0.888889" transform="rotate(90 77.5564 220.445)" fill="#9A9A9A"/>
<circle cx="77.5564" cy="240" r="0.888889" transform="rotate(90 77.5564 240)" fill="#9A9A9A"/>
<circle cx="77.5564" cy="259.556" r="0.888889" transform="rotate(90 77.5564 259.556)" fill="#9A9A9A"/>
<circle cx="77.5564" cy="279.111" r="0.888889" transform="rotate(90 77.5564 279.111)" fill="#9A9A9A"/>
<circle cx="59.7781" cy="5.33322" r="0.888889" transform="rotate(90 59.7781 5.33322)" fill="#9A9A9A"/>
<circle cx="59.7781" cy="24.8889" r="0.888889" transform="rotate(90 59.7781 24.8889)" fill="#9A9A9A"/>
<circle cx="59.7781" cy="44.4446" r="0.888889" transform="rotate(90 59.7781 44.4446)" fill="#9A9A9A"/>
<circle cx="59.7781" cy="64" r="0.888889" transform="rotate(90 59.7781 64)" fill="#9A9A9A"/>
<circle cx="59.7781" cy="83.5556" r="0.888889" transform="rotate(90 59.7781 83.5556)" fill="#9A9A9A"/>
<circle cx="59.7781" cy="103.111" r="0.888889" transform="rotate(90 59.7781 103.111)" fill="#9A9A9A"/>
<circle cx="59.7781" cy="122.667" r="0.888889" transform="rotate(90 59.7781 122.667)" fill="#9A9A9A"/>
<circle cx="59.7781" cy="142.222" r="0.888889" transform="rotate(90 59.7781 142.222)" fill="#9A9A9A"/>
<circle cx="59.7781" cy="161.778" r="0.888889" transform="rotate(90 59.7781 161.778)" fill="#9A9A9A"/>
<circle cx="59.7781" cy="181.333" r="0.888889" transform="rotate(90 59.7781 181.333)" fill="#9A9A9A"/>
<circle cx="59.7781" cy="200.889" r="0.888889" transform="rotate(90 59.7781 200.889)" fill="#9A9A9A"/>
<circle cx="59.7781" cy="220.445" r="0.888889" transform="rotate(90 59.7781 220.445)" fill="#9A9A9A"/>
<circle cx="59.7781" cy="240" r="0.888889" transform="rotate(90 59.7781 240)" fill="#9A9A9A"/>
<circle cx="59.7781" cy="259.556" r="0.888889" transform="rotate(90 59.7781 259.556)" fill="#9A9A9A"/>
<circle cx="59.7781" cy="279.111" r="0.888889" transform="rotate(90 59.7781 279.111)" fill="#9A9A9A"/>
<circle cx="40.2224" cy="5.33322" r="0.888889" transform="rotate(90 40.2224 5.33322)" fill="#9A9A9A"/>
<circle cx="40.2224" cy="24.8889" r="0.888889" transform="rotate(90 40.2224 24.8889)" fill="#9A9A9A"/>
<circle cx="40.2224" cy="44.4446" r="0.888889" transform="rotate(90 40.2224 44.4446)" fill="#9A9A9A"/>
<circle cx="40.2224" cy="64" r="0.888889" transform="rotate(90 40.2224 64)" fill="#9A9A9A"/>
<circle cx="40.2224" cy="83.5556" r="0.888889" transform="rotate(90 40.2224 83.5556)" fill="#9A9A9A"/>
<circle cx="40.2224" cy="103.111" r="0.888889" transform="rotate(90 40.2224 103.111)" fill="#9A9A9A"/>
<circle cx="40.2224" cy="122.667" r="0.888889" transform="rotate(90 40.2224 122.667)" fill="#9A9A9A"/>
<circle cx="40.2224" cy="142.222" r="0.888889" transform="rotate(90 40.2224 142.222)" fill="#9A9A9A"/>
<circle cx="40.2224" cy="161.778" r="0.888889" transform="rotate(90 40.2224 161.778)" fill="#9A9A9A"/>
<circle cx="40.2224" cy="181.333" r="0.888889" transform="rotate(90 40.2224 181.333)" fill="#9A9A9A"/>
<circle cx="40.2224" cy="200.889" r="0.888889" transform="rotate(90 40.2224 200.889)" fill="#9A9A9A"/>
<circle cx="40.2224" cy="220.445" r="0.888889" transform="rotate(90 40.2224 220.445)" fill="#9A9A9A"/>
<circle cx="40.2224" cy="240" r="0.888889" transform="rotate(90 40.2224 240)" fill="#9A9A9A"/>
<circle cx="40.2224" cy="259.556" r="0.888889" transform="rotate(90 40.2224 259.556)" fill="#9A9A9A"/>
<circle cx="40.2224" cy="279.111" r="0.888889" transform="rotate(90 40.2224 279.111)" fill="#9A9A9A"/>
<circle cx="20.6668" cy="5.33322" r="0.888889" transform="rotate(90 20.6668 5.33322)" fill="#9A9A9A"/>
<circle cx="20.6668" cy="24.8889" r="0.888889" transform="rotate(90 20.6668 24.8889)" fill="#9A9A9A"/>
<circle cx="20.6668" cy="44.4446" r="0.888889" transform="rotate(90 20.6668 44.4446)" fill="#9A9A9A"/>
<circle cx="20.6668" cy="64" r="0.888889" transform="rotate(90 20.6668 64)" fill="#9A9A9A"/>
<circle cx="20.6668" cy="83.5556" r="0.888889" transform="rotate(90 20.6668 83.5556)" fill="#9A9A9A"/>
<circle cx="20.6668" cy="103.111" r="0.888889" transform="rotate(90 20.6668 103.111)" fill="#9A9A9A"/>
<circle cx="20.6668" cy="122.667" r="0.888889" transform="rotate(90 20.6668 122.667)" fill="#9A9A9A"/>
<circle cx="20.6668" cy="142.222" r="0.888889" transform="rotate(90 20.6668 142.222)" fill="#9A9A9A"/>
<circle cx="20.6668" cy="161.778" r="0.888889" transform="rotate(90 20.6668 161.778)" fill="#9A9A9A"/>
<circle cx="20.6668" cy="181.333" r="0.888889" transform="rotate(90 20.6668 181.333)" fill="#9A9A9A"/>
<circle cx="20.6668" cy="200.889" r="0.888889" transform="rotate(90 20.6668 200.889)" fill="#9A9A9A"/>
<circle cx="20.6668" cy="220.445" r="0.888889" transform="rotate(90 20.6668 220.445)" fill="#9A9A9A"/>
<circle cx="20.6668" cy="240" r="0.888889" transform="rotate(90 20.6668 240)" fill="#9A9A9A"/>
<circle cx="20.6668" cy="259.556" r="0.888889" transform="rotate(90 20.6668 259.556)" fill="#9A9A9A"/>
<circle cx="20.6668" cy="279.111" r="0.888889" transform="rotate(90 20.6668 279.111)" fill="#9A9A9A"/>
<circle cx="1.11111" cy="5.33322" r="0.888889" transform="rotate(90 1.11111 5.33322)" fill="#9A9A9A"/>
<circle cx="1.11111" cy="24.8889" r="0.888889" transform="rotate(90 1.11111 24.8889)" fill="#9A9A9A"/>
<circle cx="1.11111" cy="44.4446" r="0.888889" transform="rotate(90 1.11111 44.4446)" fill="#9A9A9A"/>
<circle cx="1.11111" cy="64" r="0.888889" transform="rotate(90 1.11111 64)" fill="#9A9A9A"/>
<circle cx="1.11111" cy="83.5556" r="0.888889" transform="rotate(90 1.11111 83.5556)" fill="#9A9A9A"/>
<circle cx="1.11111" cy="103.111" r="0.888889" transform="rotate(90 1.11111 103.111)" fill="#9A9A9A"/>
<circle cx="1.11111" cy="122.667" r="0.888889" transform="rotate(90 1.11111 122.667)" fill="#9A9A9A"/>
<circle cx="1.11111" cy="142.222" r="0.888889" transform="rotate(90 1.11111 142.222)" fill="#9A9A9A"/>
<circle cx="1.11111" cy="161.778" r="0.888889" transform="rotate(90 1.11111 161.778)" fill="#9A9A9A"/>
<circle cx="1.11111" cy="181.333" r="0.888889" transform="rotate(90 1.11111 181.333)" fill="#9A9A9A"/>
<circle cx="1.11111" cy="200.889" r="0.888889" transform="rotate(90 1.11111 200.889)" fill="#9A9A9A"/>
<circle cx="1.11111" cy="220.445" r="0.888889" transform="rotate(90 1.11111 220.445)" fill="#9A9A9A"/>
<circle cx="1.11111" cy="240" r="0.888889" transform="rotate(90 1.11111 240)" fill="#9A9A9A"/>
<circle cx="1.11111" cy="259.556" r="0.888889" transform="rotate(90 1.11111 259.556)" fill="#9A9A9A"/>
<circle cx="1.11111" cy="279.111" r="0.888889" transform="rotate(90 1.11111 279.111)" fill="#9A9A9A"/>
</svg>
