<svg width="36" height="30" viewBox="0 0 36 30" fill="none" xmlns="http://www.w3.org/2000/svg">
<path d="M35.7571 28.9761C29.4227 24.3824 19.7198 19.3596 10.6718 19.7769C6.22683 19.9841 -0.0811923 24.489 4.64982 27.8662C9.06092 31.0214 14.3151 26.4602 14.5183 22.9795C14.7329 19.3744 12.4934 15.5976 10.6831 12.3714C8.23203 8.0618 5.14325 3.99453 1.48076 0.253857C0.889851 -0.358829 -0.450039 0.253855 0.152159 0.863581C3.08096 3.85505 5.6489 7.05466 7.82265 10.4209C10.4573 14.5647 14.571 20.6205 11.6203 24.9922C11.0281 27.4863 9.68068 27.7044 7.57801 25.6463C4.56702 25.1194 4.07648 24.2315 6.10639 22.9824C7.81512 21.1621 10.1562 20.9106 12.9677 21.097C15.6475 21.2687 18.267 22.0234 20.7436 22.8019C25.8956 24.4532 30.6164 26.8372 34.6694 29.8345C35.3958 30.3613 36.491 29.5089 35.7571 28.9761Z" fill="#10100E"/>
</svg>
