<?xml version="1.0" encoding="utf-8"?>
<svg width="179px" height="179px" viewBox="0 0 179 179" version="1.1" xmlns:xlink="http://www.w3.org/1999/xlink" xmlns="http://www.w3.org/2000/svg">
  <defs>
    <path d="M103.77 2.03131L122.226 126.713Q122.234 126.77 122.236 126.829Q122.238 126.887 122.233 126.945Q122.228 127.004 122.216 127.061Q122.204 127.118 122.186 127.174Q122.167 127.229 122.142 127.282Q122.118 127.335 122.087 127.385Q122.056 127.435 122.02 127.48Q121.983 127.526 121.942 127.567Q121.9 127.609 121.854 127.645Q121.808 127.681 121.759 127.711Q121.709 127.742 121.656 127.766Q121.602 127.791 121.547 127.809Q121.491 127.827 121.434 127.838Q121.377 127.85 121.318 127.855Q121.26 127.859 121.202 127.857Q121.143 127.855 121.085 127.846L1.88436 109.455Q1.85078 109.45 1.81762 109.442Q1.78446 109.435 1.75189 109.425Q1.71931 109.416 1.68747 109.404Q1.65563 109.392 1.62467 109.378Q1.59371 109.364 1.56378 109.348Q1.53384 109.332 1.50507 109.314Q1.4763 109.295 1.44882 109.275Q1.42134 109.255 1.39529 109.234Q1.36923 109.212 1.34472 109.188Q1.32021 109.165 1.29735 109.14Q1.2745 109.114 1.25341 109.088Q1.23231 109.061 1.21308 109.033Q1.19385 109.005 1.17656 108.976Q1.15928 108.947 1.14402 108.916Q1.12876 108.886 1.1156 108.855Q1.10245 108.823 1.09145 108.791Q1.08045 108.759 1.07166 108.726Q1.06288 108.693 1.05634 108.66Q1.0498 108.627 1.04555 108.593Q1.0413 108.559 1.03934 108.525Q1.03739 108.491 1.03775 108.457Q1.0381 108.423 1.04077 108.389Q1.04343 108.356 1.0484 108.322Q1.05336 108.288 1.06059 108.255Q1.06783 108.222 1.0773 108.189Q1.08678 108.157 1.09845 108.125Q1.11012 108.093 1.12393 108.062Q1.13775 108.031 1.15364 108.001Q1.16953 107.971 1.18743 107.942Q1.20532 107.913 1.22514 107.885Q1.24496 107.858 1.26661 107.831Q1.28825 107.805 1.31163 107.781L102.057 1.49036Q102.081 1.46502 102.107 1.44141Q102.133 1.41781 102.16 1.39606Q102.187 1.37431 102.216 1.35452Q102.245 1.33473 102.275 1.317Q102.305 1.29927 102.336 1.28368Q102.367 1.26809 102.4 1.25472Q102.432 1.24135 102.465 1.23027Q102.498 1.21918 102.532 1.21044Q102.566 1.20169 102.6 1.19533Q102.634 1.18896 102.669 1.18501Q102.704 1.18106 102.739 1.17954Q102.773 1.17802 102.808 1.17894Q102.843 1.17986 102.878 1.18321Q102.913 1.18657 102.947 1.19234Q102.982 1.19811 103.016 1.20628Q103.05 1.21444 103.083 1.22495Q103.116 1.23546 103.149 1.24828Q103.181 1.26109 103.213 1.27614Q103.244 1.29119 103.275 1.3084Q103.305 1.32561 103.334 1.3449Q103.363 1.36419 103.391 1.38547Q103.419 1.40674 103.445 1.4299Q103.471 1.45306 103.495 1.47798Q103.52 1.50291 103.542 1.52948Q103.565 1.55605 103.586 1.58414Q103.606 1.61223 103.625 1.64169Q103.644 1.67116 103.661 1.70187Q103.677 1.73257 103.692 1.76436Q103.706 1.79615 103.718 1.82887Q103.73 1.86159 103.74 1.89508Q103.75 1.92857 103.758 1.96267Q103.765 1.99677 103.77 2.03131Z" transform="matrix(-0.70710677 -0.70710677 0.70710677 -0.70710677 87.33278 177.91272)" id="path_1" />
    <clipPath id="mask_1">
      <use xlink:href="#path_1" />
    </clipPath>
  </defs>
  <g id="SHape" transform="matrix(1 -1.7484555E-07 1.7484555E-07 1 0.5 0.5)">
    <path d="M103.77 2.03131L122.226 126.713Q122.234 126.77 122.236 126.829Q122.238 126.887 122.233 126.945Q122.228 127.004 122.216 127.061Q122.204 127.118 122.186 127.174Q122.167 127.229 122.142 127.282Q122.118 127.335 122.087 127.385Q122.056 127.435 122.02 127.48Q121.983 127.526 121.942 127.567Q121.9 127.609 121.854 127.645Q121.808 127.681 121.759 127.711Q121.709 127.742 121.656 127.766Q121.602 127.791 121.547 127.809Q121.491 127.827 121.434 127.838Q121.377 127.85 121.318 127.855Q121.26 127.859 121.202 127.857Q121.143 127.855 121.085 127.846L1.88436 109.455Q1.85078 109.45 1.81762 109.442Q1.78446 109.435 1.75189 109.425Q1.71931 109.416 1.68747 109.404Q1.65563 109.392 1.62467 109.378Q1.59371 109.364 1.56378 109.348Q1.53384 109.332 1.50507 109.314Q1.4763 109.295 1.44882 109.275Q1.42134 109.255 1.39529 109.234Q1.36923 109.212 1.34472 109.188Q1.32021 109.165 1.29735 109.14Q1.2745 109.114 1.25341 109.088Q1.23231 109.061 1.21308 109.033Q1.19385 109.005 1.17656 108.976Q1.15928 108.947 1.14402 108.916Q1.12876 108.886 1.1156 108.855Q1.10245 108.823 1.09145 108.791Q1.08045 108.759 1.07166 108.726Q1.06288 108.693 1.05634 108.66Q1.0498 108.627 1.04555 108.593Q1.0413 108.559 1.03934 108.525Q1.03739 108.491 1.03775 108.457Q1.0381 108.423 1.04077 108.389Q1.04343 108.356 1.0484 108.322Q1.05336 108.288 1.06059 108.255Q1.06783 108.222 1.0773 108.189Q1.08678 108.157 1.09845 108.125Q1.11012 108.093 1.12393 108.062Q1.13775 108.031 1.15364 108.001Q1.16953 107.971 1.18743 107.942Q1.20532 107.913 1.22514 107.885Q1.24496 107.858 1.26661 107.831Q1.28825 107.805 1.31163 107.781L102.057 1.49036Q102.081 1.46502 102.107 1.44141Q102.133 1.41781 102.16 1.39606Q102.187 1.37431 102.216 1.35452Q102.245 1.33473 102.275 1.317Q102.305 1.29927 102.336 1.28368Q102.367 1.26809 102.4 1.25472Q102.432 1.24135 102.465 1.23027Q102.498 1.21918 102.532 1.21044Q102.566 1.20169 102.6 1.19533Q102.634 1.18896 102.669 1.18501Q102.704 1.18106 102.739 1.17954Q102.773 1.17802 102.808 1.17894Q102.843 1.17986 102.878 1.18321Q102.913 1.18657 102.947 1.19234Q102.982 1.19811 103.016 1.20628Q103.05 1.21444 103.083 1.22495Q103.116 1.23546 103.149 1.24828Q103.181 1.26109 103.213 1.27614Q103.244 1.29119 103.275 1.3084Q103.305 1.32561 103.334 1.3449Q103.363 1.36419 103.391 1.38547Q103.419 1.40674 103.445 1.4299Q103.471 1.45306 103.495 1.47798Q103.52 1.50291 103.542 1.52948Q103.565 1.55605 103.586 1.58414Q103.606 1.61223 103.625 1.64169Q103.644 1.67116 103.661 1.70187Q103.677 1.73257 103.692 1.76436Q103.706 1.79615 103.718 1.82887Q103.73 1.86159 103.74 1.89508Q103.75 1.92857 103.758 1.96267Q103.765 1.99677 103.77 2.03131Z" transform="matrix(-0.70710677 -0.70710677 0.70710677 -0.70710677 87.33278 177.91272)" id="Rectangle" fill="none" fill-rule="evenodd" stroke="none" />
    <g clip-path="url(#mask_1)">
      <g id="Group-34" transform="matrix(0.81915206 -0.57357645 0.57357645 0.81915206 -54.546257 64.63422)">
        <path d="M0 0L2.81333 0L2.81333 164.683L0 164.683L0 0Z" transform="translate(0.14917627 1.6443778)" id="Rectangle" fill="#FD6A5E" fill-rule="evenodd" stroke="none" />
        <path d="M0 0L2.81333 0L2.81333 164.683L0 164.683L0 0Z" transform="translate(14.831429 1.9779671)" id="Rectangle" fill="#FD6A5E" fill-rule="evenodd" stroke="none" />
        <path d="M0 0L2.81333 0L2.81333 164.683L0 164.683L0 0Z" transform="translate(26.838041 1.4416442)" id="Rectangle-Copy-3" fill="#FD6A5E" fill-rule="evenodd" stroke="none" />
        <path d="M0 0L2.81333 0L2.81333 164.683L0 164.683L0 0Z" transform="translate(41.520294 1.7752335)" id="Rectangle-Copy-4" fill="#FD6A5E" fill-rule="evenodd" stroke="none" />
        <path d="M0 0L2.81333 0L2.81333 164.683L0 164.683L0 0Z" transform="translate(56.202545 2.1088228)" id="Rectangle-Copy-5" fill="#FD6A5E" fill-rule="evenodd" stroke="none" />
        <path d="M0 0L2.81333 0L2.81333 164.683L0 164.683L0 0Z" transform="translate(68.20916 1.5725)" id="Rectangle-Copy-6" fill="#FD6A5E" fill-rule="evenodd" stroke="none" />
        <path d="M0 0L2.81333 0L2.81333 164.683L0 164.683L0 0Z" transform="translate(82.89141 1.9060893)" id="Rectangle-Copy-7" fill="#FD6A5E" fill-rule="evenodd" stroke="none" />
        <path d="M0 0L2.81333 0L2.81333 164.683L0 164.683L0 0Z" transform="translate(96.85607 0.09368534)" id="Rectangle-Copy-8" fill="#FD6A5E" fill-rule="evenodd" stroke="none" />
        <path d="M0 0L2.81333 0L2.81333 164.683L0 164.683L0 0Z" transform="translate(110.73255 2.5106916)" id="Rectangle-Copy-9" fill="#FD6A5E" fill-rule="evenodd" stroke="none" />
        <path d="M0 0L2.81333 0L2.81333 164.683L0 164.683L0 0Z" transform="translate(124.26253 2.036945)" id="Rectangle-Copy-10" fill="#FD6A5E" fill-rule="evenodd" stroke="none" />
        <path d="M0 0L2.81333 0L2.81333 164.683L0 164.683L0 0Z" transform="translate(138.22719 0.22454108)" id="Rectangle-Copy-11" fill="#FD6A5E" fill-rule="evenodd" stroke="none" />
        <path d="M0 0L2.81333 0L2.81333 164.683L0 164.683L0 0Z" transform="translate(150.95139 1.8342115)" id="Rectangle-Copy-12" fill="#FD6A5E" fill-rule="evenodd" stroke="none" />
        <path d="M0 0L2.81333 0L2.81333 164.683L0 164.683L0 0Z" transform="translate(166.06833 0.8291436)" id="Rectangle-Copy-13" fill="#FD6A5E" fill-rule="evenodd" stroke="none" />
        <path d="M0 0L2.81333 0L2.81333 164.683L0 164.683L0 0Z" transform="translate(178.97807 2.066434)" id="Rectangle-Copy-14" fill="#FD6A5E" fill-rule="evenodd" stroke="none" />
      </g>
    </g>
  </g>
</svg>