<?xml version="1.0" encoding="utf-8"?>
<svg width="104px" height="104px" viewBox="0 0 104 104" version="1.1" xmlns:xlink="http://www.w3.org/1999/xlink" xmlns="http://www.w3.org/2000/svg">
  <defs>
    <path d="M59.713 2.03131L70.0977 72.1877Q70.1062 72.2456 70.108 72.304Q70.1098 72.3625 70.1047 72.4207Q70.0996 72.479 70.0878 72.5362Q70.0759 72.5935 70.0575 72.649Q70.0391 72.7045 70.0143 72.7574Q69.9895 72.8104 69.9587 72.8601Q69.9279 72.9098 69.8915 72.9556Q69.8552 73.0014 69.8137 73.0426Q69.7722 73.0838 69.7262 73.1199Q69.6802 73.156 69.6303 73.1865Q69.5804 73.217 69.5273 73.2414Q69.4742 73.2659 69.4186 73.284Q69.363 73.3021 69.3057 73.3136Q69.2483 73.3251 69.1901 73.3298Q69.1318 73.3345 69.0733 73.3324Q69.0149 73.3303 68.9571 73.3213L1.88436 62.973Q1.85078 62.9678 1.81762 62.9603Q1.78446 62.9529 1.75189 62.9432Q1.71931 62.9335 1.68747 62.9216Q1.65563 62.9097 1.62467 62.8957Q1.59371 62.8817 1.56378 62.8656Q1.53384 62.8495 1.50507 62.8314Q1.4763 62.8134 1.44882 62.7934Q1.42134 62.7734 1.39529 62.7515Q1.36923 62.7297 1.34472 62.7062Q1.32021 62.6826 1.29735 62.6575Q1.2745 62.6323 1.25341 62.6057Q1.23231 62.579 1.21308 62.551Q1.19385 62.523 1.17656 62.4938Q1.15928 62.4645 1.14402 62.4341Q1.12876 62.4038 1.1156 62.3724Q1.10245 62.3411 1.09145 62.3089Q1.08045 62.2768 1.07166 62.2439Q1.06288 62.2111 1.05634 62.1778Q1.0498 62.1444 1.04555 62.1107Q1.0413 62.077 1.03934 62.0431Q1.03739 62.0091 1.03775 61.9751Q1.0381 61.9412 1.04077 61.9073Q1.04343 61.8734 1.0484 61.8398Q1.05336 61.8062 1.06059 61.773Q1.06783 61.7398 1.0773 61.7071Q1.08678 61.6745 1.09845 61.6426Q1.11012 61.6106 1.12393 61.5796Q1.13775 61.5485 1.15364 61.5185Q1.16953 61.4885 1.18743 61.4596Q1.20532 61.4307 1.22514 61.4031Q1.24496 61.3755 1.26661 61.3493Q1.28825 61.3231 1.31163 61.2984L57.9997 1.49036Q58.0237 1.46502 58.0495 1.44141Q58.0752 1.41781 58.1025 1.39606Q58.1298 1.37431 58.1586 1.35452Q58.1874 1.33473 58.2174 1.317Q58.2475 1.29927 58.2788 1.28368Q58.31 1.26809 58.3423 1.25472Q58.3745 1.24135 58.4076 1.23027Q58.4407 1.21918 58.4745 1.21044Q58.5083 1.20169 58.5427 1.19533Q58.577 1.18896 58.6117 1.18501Q58.6464 1.18106 58.6813 1.17954Q58.7162 1.17802 58.7511 1.17894Q58.786 1.17986 58.8207 1.18321Q58.8555 1.18657 58.8899 1.19234Q58.9244 1.19811 58.9583 1.20627Q58.9923 1.21444 59.0256 1.22495Q59.0589 1.23546 59.0913 1.24828Q59.1238 1.26109 59.1553 1.27614Q59.1868 1.29119 59.2172 1.3084Q59.2476 1.32561 59.2767 1.3449Q59.3058 1.36419 59.3335 1.38547Q59.3612 1.40674 59.3873 1.4299Q59.4134 1.45306 59.4379 1.47798Q59.4623 1.50291 59.485 1.52948Q59.5077 1.55605 59.5284 1.58414Q59.5491 1.61223 59.5679 1.64169Q59.5866 1.67116 59.6032 1.70187Q59.6199 1.73257 59.6343 1.76436Q59.6487 1.79615 59.6609 1.82887Q59.6731 1.86159 59.683 1.89508Q59.6929 1.92857 59.7004 1.96267Q59.7079 1.99677 59.713 2.03131Z" transform="matrix(-0.70710677 -0.70710677 0.70710677 -0.70710677 50.14653 102.15756)" id="path_1" />
    <clipPath id="mask_1">
      <use xlink:href="#path_1" />
    </clipPath>
  </defs>
  <g id="Rectangle-8" transform="matrix(1 -1.7484555E-07 1.7484555E-07 1 0.5 0.5)">
    <path d="M59.713 2.03131L70.0977 72.1877Q70.1062 72.2456 70.108 72.304Q70.1098 72.3625 70.1047 72.4207Q70.0996 72.479 70.0878 72.5362Q70.0759 72.5935 70.0575 72.649Q70.0391 72.7045 70.0143 72.7574Q69.9895 72.8104 69.9587 72.8601Q69.9279 72.9098 69.8915 72.9556Q69.8552 73.0014 69.8137 73.0426Q69.7722 73.0838 69.7262 73.1199Q69.6802 73.156 69.6303 73.1865Q69.5804 73.217 69.5273 73.2414Q69.4742 73.2659 69.4186 73.284Q69.363 73.3021 69.3057 73.3136Q69.2483 73.3251 69.1901 73.3298Q69.1318 73.3345 69.0733 73.3324Q69.0149 73.3303 68.9571 73.3213L1.88436 62.973Q1.85078 62.9678 1.81762 62.9603Q1.78446 62.9529 1.75189 62.9432Q1.71931 62.9335 1.68747 62.9216Q1.65563 62.9097 1.62467 62.8957Q1.59371 62.8817 1.56378 62.8656Q1.53384 62.8495 1.50507 62.8314Q1.4763 62.8134 1.44882 62.7934Q1.42134 62.7734 1.39529 62.7515Q1.36923 62.7297 1.34472 62.7062Q1.32021 62.6826 1.29735 62.6575Q1.2745 62.6323 1.25341 62.6057Q1.23231 62.579 1.21308 62.551Q1.19385 62.523 1.17656 62.4938Q1.15928 62.4645 1.14402 62.4341Q1.12876 62.4038 1.1156 62.3724Q1.10245 62.3411 1.09145 62.3089Q1.08045 62.2768 1.07166 62.2439Q1.06288 62.2111 1.05634 62.1778Q1.0498 62.1444 1.04555 62.1107Q1.0413 62.077 1.03934 62.0431Q1.03739 62.0091 1.03775 61.9751Q1.0381 61.9412 1.04077 61.9073Q1.04343 61.8734 1.0484 61.8398Q1.05336 61.8062 1.06059 61.773Q1.06783 61.7398 1.0773 61.7071Q1.08678 61.6745 1.09845 61.6426Q1.11012 61.6106 1.12393 61.5796Q1.13775 61.5485 1.15364 61.5185Q1.16953 61.4885 1.18743 61.4596Q1.20532 61.4307 1.22514 61.4031Q1.24496 61.3755 1.26661 61.3493Q1.28825 61.3231 1.31163 61.2984L57.9997 1.49036Q58.0237 1.46502 58.0495 1.44141Q58.0752 1.41781 58.1025 1.39606Q58.1298 1.37431 58.1586 1.35452Q58.1874 1.33473 58.2174 1.317Q58.2475 1.29927 58.2788 1.28368Q58.31 1.26809 58.3423 1.25472Q58.3745 1.24135 58.4076 1.23027Q58.4407 1.21918 58.4745 1.21044Q58.5083 1.20169 58.5427 1.19533Q58.577 1.18896 58.6117 1.18501Q58.6464 1.18106 58.6813 1.17954Q58.7162 1.17802 58.7511 1.17894Q58.786 1.17986 58.8207 1.18321Q58.8555 1.18657 58.8899 1.19234Q58.9244 1.19811 58.9583 1.20627Q58.9923 1.21444 59.0256 1.22495Q59.0589 1.23546 59.0913 1.24828Q59.1238 1.26109 59.1553 1.27614Q59.1868 1.29119 59.2172 1.3084Q59.2476 1.32561 59.2767 1.3449Q59.3058 1.36419 59.3335 1.38547Q59.3612 1.40674 59.3873 1.4299Q59.4134 1.45306 59.4379 1.47798Q59.4623 1.50291 59.485 1.52948Q59.5077 1.55605 59.5284 1.58414Q59.5491 1.61223 59.5679 1.64169Q59.5866 1.67116 59.6032 1.70187Q59.6199 1.73257 59.6343 1.76436Q59.6487 1.79615 59.6609 1.82887Q59.6731 1.86159 59.683 1.89508Q59.6929 1.92857 59.7004 1.96267Q59.7079 1.99677 59.713 2.03131Z" transform="matrix(-0.70710677 -0.70710677 0.70710677 -0.70710677 50.14653 102.15756)" id="Rectangle" fill="none" fill-rule="evenodd" stroke="none" />
    <g clip-path="url(#mask_1)">
      <g id="Group-34" transform="matrix(0.81915206 -0.57357645 0.57357645 0.81915206 -31.8101 37.455826)">
        <path d="M0 0L1.61542 0L1.61542 94.5611L0 94.5611L0 0Z" transform="translate(0.6833629 0.9442026)" id="Rectangle" fill="#0FD8F7" fill-rule="evenodd" stroke="none" />
        <path d="M0 0L1.61542 0L1.61542 94.5611L0 94.5611L0 0Z" transform="translate(9.11392 1.1357497)" id="Rectangle" fill="#0FD8F7" fill-rule="evenodd" stroke="none" />
        <path d="M0 0L1.61542 0L1.61542 94.5611L0 94.5611L0 0Z" transform="translate(16.008123 0.8277929)" id="Rectangle-Copy-3" fill="#0FD8F7" fill-rule="evenodd" stroke="none" />
        <path d="M0 0L1.61542 0L1.61542 94.5611L0 94.5611L0 0Z" transform="translate(24.43868 1.01934)" id="Rectangle-Copy-4" fill="#0FD8F7" fill-rule="evenodd" stroke="none" />
        <path d="M0 0L1.61542 0L1.61542 94.5611L0 94.5611L0 0Z" transform="translate(32.869236 1.2108872)" id="Rectangle-Copy-5" fill="#0FD8F7" fill-rule="evenodd" stroke="none" />
        <path d="M0 0L1.61542 0L1.61542 94.5611L0 94.5611L0 0Z" transform="translate(39.76344 0.9029303)" id="Rectangle-Copy-6" fill="#0FD8F7" fill-rule="evenodd" stroke="none" />
        <path d="M0 0L1.61542 0L1.61542 94.5611L0 94.5611L0 0Z" transform="translate(48.193996 1.0944774)" id="Rectangle-Copy-7" fill="#0FD8F7" fill-rule="evenodd" stroke="none" />
        <path d="M0 0L1.61542 0L1.61542 94.5611L0 94.5611L0 0Z" transform="translate(56.212513 0.053794168)" id="Rectangle-Copy-8" fill="#0FD8F7" fill-rule="evenodd" stroke="none" />
        <path d="M0 0L1.61542 0L1.61542 94.5611L0 94.5611L0 0Z" transform="translate(64.18039 1.4416405)" id="Rectangle-Copy-9" fill="#0FD8F7" fill-rule="evenodd" stroke="none" />
        <path d="M0 0L1.61542 0L1.61542 94.5611L0 94.5611L0 0Z" transform="translate(71.94931 1.1696149)" id="Rectangle-Copy-10" fill="#0FD8F7" fill-rule="evenodd" stroke="none" />
        <path d="M0 0L1.61542 0L1.61542 94.5611L0 94.5611L0 0Z" transform="translate(79.96783 0.1289316)" id="Rectangle-Copy-11" fill="#0FD8F7" fill-rule="evenodd" stroke="none" />
        <path d="M0 0L1.61542 0L1.61542 94.5611L0 94.5611L0 0Z" transform="translate(87.27407 1.0532051)" id="Rectangle-Copy-12" fill="#0FD8F7" fill-rule="evenodd" stroke="none" />
        <path d="M0 0L1.61542 0L1.61542 94.5611L0 94.5611L0 0Z" transform="translate(95.95422 0.47609466)" id="Rectangle-Copy-13" fill="#0FD8F7" fill-rule="evenodd" stroke="none" />
        <path d="M0 0L1.61542 0L1.61542 94.5611L0 94.5611L0 0Z" transform="translate(103.36701 1.1865474)" id="Rectangle-Copy-14" fill="#0FD8F7" fill-rule="evenodd" stroke="none" />
      </g>
    </g>
  </g>
</svg>