<?xml version="1.0" encoding="utf-8"?>
<svg width="116px" height="116px" viewBox="0 0 116 116" version="1.1" xmlns:xlink="http://www.w3.org/1999/xlink" xmlns="http://www.w3.org/2000/svg">
  <defs>
    <path d="M67.149 2.03131L78.8959 81.3905Q78.9045 81.4483 78.9063 81.5068Q78.908 81.5652 78.9029 81.6235Q78.8979 81.6817 78.886 81.739Q78.8742 81.7962 78.8558 81.8517Q78.8373 81.9072 78.8125 81.9602Q78.7878 82.0131 78.757 82.0629Q78.7262 82.1126 78.6898 82.1583Q78.6534 82.2041 78.6119 82.2453Q78.5705 82.2865 78.5245 82.3226Q78.4785 82.3587 78.4286 82.3892Q78.3787 82.4197 78.3256 82.4442Q78.2725 82.4686 78.2169 82.4867Q78.1613 82.5048 78.1039 82.5163Q78.0466 82.5278 77.9883 82.5325Q77.93 82.5372 77.8716 82.5351Q77.8132 82.533 77.7554 82.5241L1.88436 70.8183Q1.85078 70.8131 1.81762 70.8056Q1.78446 70.7982 1.75189 70.7885Q1.71931 70.7788 1.68747 70.7669Q1.65563 70.7551 1.62467 70.741Q1.59371 70.727 1.56378 70.7109Q1.53384 70.6948 1.50507 70.6768Q1.4763 70.6587 1.44882 70.6387Q1.42134 70.6187 1.39529 70.5969Q1.36923 70.575 1.34472 70.5515Q1.32021 70.528 1.29735 70.5028Q1.2745 70.4776 1.25341 70.451Q1.23231 70.4244 1.21308 70.3963Q1.19385 70.3683 1.17656 70.3391Q1.15928 70.3098 1.14402 70.2794Q1.12876 70.2491 1.1156 70.2177Q1.10245 70.1864 1.09145 70.1543Q1.08045 70.1221 1.07166 70.0893Q1.06288 70.0564 1.05634 70.0231Q1.0498 69.9897 1.04555 69.956Q1.0413 69.9223 1.03934 69.8884Q1.03739 69.8544 1.03775 69.8205Q1.0381 69.7865 1.04077 69.7526Q1.04343 69.7187 1.0484 69.6851Q1.05336 69.6515 1.06059 69.6183Q1.06783 69.5851 1.0773 69.5524Q1.08678 69.5198 1.09845 69.4879Q1.11012 69.4559 1.12393 69.4249Q1.13775 69.3938 1.15364 69.3638Q1.16953 69.3338 1.18743 69.3049Q1.20532 69.276 1.22514 69.2484Q1.24496 69.2208 1.26661 69.1946Q1.28825 69.1684 1.31163 69.1437L65.4358 1.49036Q65.4598 1.46502 65.4855 1.44141Q65.5112 1.41781 65.5386 1.39606Q65.5659 1.37431 65.5946 1.35452Q65.6234 1.33473 65.6535 1.317Q65.6836 1.29927 65.7148 1.28368Q65.746 1.26809 65.7783 1.25472Q65.8106 1.24135 65.8437 1.23027Q65.8768 1.21918 65.9106 1.21044Q65.9444 1.20169 65.9787 1.19533Q66.0131 1.18896 66.0477 1.18501Q66.0824 1.18106 66.1173 1.17954Q66.1522 1.17802 66.1871 1.17894Q66.222 1.17986 66.2568 1.18321Q66.2915 1.18657 66.326 1.19234Q66.3604 1.19811 66.3943 1.20628Q66.4283 1.21444 66.4616 1.22495Q66.4949 1.23546 66.5274 1.24828Q66.5599 1.26109 66.5914 1.27614Q66.6229 1.29119 66.6532 1.3084Q66.6836 1.32561 66.7127 1.3449Q66.7418 1.36419 66.7695 1.38547Q66.7972 1.40674 66.8233 1.4299Q66.8495 1.45306 66.8739 1.47798Q66.8984 1.50291 66.921 1.52948Q66.9437 1.55605 66.9644 1.58414Q66.9852 1.61223 67.0039 1.64169Q67.0227 1.67116 67.0393 1.70187Q67.0559 1.73257 67.0703 1.76436Q67.0848 1.79615 67.097 1.82887Q67.1092 1.86159 67.119 1.89508Q67.1289 1.92857 67.1364 1.96267Q67.1439 1.99677 67.149 2.03131L67.149 2.03131Z" transform="matrix(-0.70710677 -0.70710677 0.70710677 -0.70710677 56.42286 114.943596)" id="path_1" />
    <clipPath id="mask_1">
      <use xlink:href="#path_1" />
    </clipPath>
  </defs>
  <g id="Rectangle-8" transform="matrix(-1 -8.742278E-08 8.742278E-08 -1 115.5 115.5)">
    <path d="M67.149 2.03131L78.8959 81.3905Q78.9045 81.4483 78.9063 81.5068Q78.908 81.5652 78.9029 81.6235Q78.8979 81.6817 78.886 81.739Q78.8742 81.7962 78.8558 81.8517Q78.8373 81.9072 78.8125 81.9602Q78.7878 82.0131 78.757 82.0629Q78.7262 82.1126 78.6898 82.1583Q78.6534 82.2041 78.6119 82.2453Q78.5705 82.2865 78.5245 82.3226Q78.4785 82.3587 78.4286 82.3892Q78.3787 82.4197 78.3256 82.4442Q78.2725 82.4686 78.2169 82.4867Q78.1613 82.5048 78.1039 82.5163Q78.0466 82.5278 77.9883 82.5325Q77.93 82.5372 77.8716 82.5351Q77.8132 82.533 77.7554 82.5241L1.88436 70.8183Q1.85078 70.8131 1.81762 70.8056Q1.78446 70.7982 1.75189 70.7885Q1.71931 70.7788 1.68747 70.7669Q1.65563 70.7551 1.62467 70.741Q1.59371 70.727 1.56378 70.7109Q1.53384 70.6948 1.50507 70.6768Q1.4763 70.6587 1.44882 70.6387Q1.42134 70.6187 1.39529 70.5969Q1.36923 70.575 1.34472 70.5515Q1.32021 70.528 1.29735 70.5028Q1.2745 70.4776 1.25341 70.451Q1.23231 70.4244 1.21308 70.3963Q1.19385 70.3683 1.17656 70.3391Q1.15928 70.3098 1.14402 70.2794Q1.12876 70.2491 1.1156 70.2177Q1.10245 70.1864 1.09145 70.1543Q1.08045 70.1221 1.07166 70.0893Q1.06288 70.0564 1.05634 70.0231Q1.0498 69.9897 1.04555 69.956Q1.0413 69.9223 1.03934 69.8884Q1.03739 69.8544 1.03775 69.8205Q1.0381 69.7865 1.04077 69.7526Q1.04343 69.7187 1.0484 69.6851Q1.05336 69.6515 1.06059 69.6183Q1.06783 69.5851 1.0773 69.5524Q1.08678 69.5198 1.09845 69.4879Q1.11012 69.4559 1.12393 69.4249Q1.13775 69.3938 1.15364 69.3638Q1.16953 69.3338 1.18743 69.3049Q1.20532 69.276 1.22514 69.2484Q1.24496 69.2208 1.26661 69.1946Q1.28825 69.1684 1.31163 69.1437L65.4358 1.49036Q65.4598 1.46502 65.4855 1.44141Q65.5112 1.41781 65.5386 1.39606Q65.5659 1.37431 65.5946 1.35452Q65.6234 1.33473 65.6535 1.317Q65.6836 1.29927 65.7148 1.28368Q65.746 1.26809 65.7783 1.25472Q65.8106 1.24135 65.8437 1.23027Q65.8768 1.21918 65.9106 1.21044Q65.9444 1.20169 65.9787 1.19533Q66.0131 1.18896 66.0477 1.18501Q66.0824 1.18106 66.1173 1.17954Q66.1522 1.17802 66.1871 1.17894Q66.222 1.17986 66.2568 1.18321Q66.2915 1.18657 66.326 1.19234Q66.3604 1.19811 66.3943 1.20628Q66.4283 1.21444 66.4616 1.22495Q66.4949 1.23546 66.5274 1.24828Q66.5599 1.26109 66.5914 1.27614Q66.6229 1.29119 66.6532 1.3084Q66.6836 1.32561 66.7127 1.3449Q66.7418 1.36419 66.7695 1.38547Q66.7972 1.40674 66.8233 1.4299Q66.8495 1.45306 66.8739 1.47798Q66.8984 1.50291 66.921 1.52948Q66.9437 1.55605 66.9644 1.58414Q66.9852 1.61223 67.0039 1.64169Q67.0227 1.67116 67.0393 1.70187Q67.0559 1.73257 67.0703 1.76436Q67.0848 1.79615 67.097 1.82887Q67.1092 1.86159 67.119 1.89508Q67.1289 1.92857 67.1364 1.96267Q67.1439 1.99677 67.149 2.03131L67.149 2.03131Z" transform="matrix(-0.70710677 -0.70710677 0.70710677 -0.70710677 56.42286 114.943596)" id="Rectangle" fill="none" fill-rule="evenodd" stroke="none" />
    <g clip-path="url(#mask_1)">
      <g id="Group-34" transform="matrix(0.81915206 -0.57357645 0.57357645 0.81915206 -35.1717 41.709835)">
        <path d="M0 0L1.8176 0L1.8176 106.396L0 106.396L0 0Z" transform="translate(0.012313603 1.0623789)" id="Rectangle" fill="#0FD8F7" fill-rule="evenodd" stroke="none" />
        <path d="M0 0L1.8176 0L1.8176 106.396L0 106.396L0 0Z" transform="translate(9.498038 1.2779001)" id="Rectangle" fill="#0FD8F7" fill-rule="evenodd" stroke="none" />
        <path d="M0 0L1.8176 0L1.8176 106.396L0 106.396L0 0Z" transform="translate(17.25512 0.93139935)" id="Rectangle-Copy-3" fill="#0FD8F7" fill-rule="evenodd" stroke="none" />
        <path d="M0 0L1.8176 0L1.8176 106.396L0 106.396L0 0Z" transform="translate(26.740845 1.1469206)" id="Rectangle-Copy-4" fill="#0FD8F7" fill-rule="evenodd" stroke="none" />
        <path d="M0 0L1.8176 0L1.8176 106.396L0 106.396L0 0Z" transform="translate(36.22657 1.3624417)" id="Rectangle-Copy-5" fill="#0FD8F7" fill-rule="evenodd" stroke="none" />
        <path d="M0 0L1.8176 0L1.8176 106.396L0 106.396L0 0Z" transform="translate(43.98365 1.015941)" id="Rectangle-Copy-6" fill="#0FD8F7" fill-rule="evenodd" stroke="none" />
        <path d="M0 0L1.8176 0L1.8176 106.396L0 106.396L0 0Z" transform="translate(53.469376 1.2314621)" id="Rectangle-Copy-7" fill="#0FD8F7" fill-rule="evenodd" stroke="none" />
        <path d="M0 0L1.8176 0L1.8176 106.396L0 106.396L0 0Z" transform="translate(62.49149 0.06052704)" id="Rectangle-Copy-8" fill="#0FD8F7" fill-rule="evenodd" stroke="none" />
        <path d="M0 0L1.8176 0L1.8176 106.396L0 106.396L0 0Z" transform="translate(71.45663 1.6220762)" id="Rectangle-Copy-9" fill="#0FD8F7" fill-rule="evenodd" stroke="none" />
        <path d="M0 0L1.8176 0L1.8176 106.396L0 106.396L0 0Z" transform="translate(80.19791 1.3160038)" id="Rectangle-Copy-10" fill="#0FD8F7" fill-rule="evenodd" stroke="none" />
        <path d="M0 0L1.8176 0L1.8176 106.396L0 106.396L0 0Z" transform="translate(89.22002 0.14506868)" id="Rectangle-Copy-11" fill="#0FD8F7" fill-rule="evenodd" stroke="none" />
        <path d="M0 0L1.8176 0L1.8176 106.396L0 106.396L0 0Z" transform="translate(97.44071 1.1850243)" id="Rectangle-Copy-12" fill="#0FD8F7" fill-rule="evenodd" stroke="none" />
        <path d="M0 0L1.8176 0L1.8176 106.396L0 106.396L0 0Z" transform="translate(107.20727 0.5356826)" id="Rectangle-Copy-13" fill="#0FD8F7" fill-rule="evenodd" stroke="none" />
        <path d="M0 0L1.8176 0L1.8176 106.396L0 106.396L0 0Z" transform="translate(115.54784 1.3350557)" id="Rectangle-Copy-14" fill="#0FD8F7" fill-rule="evenodd" stroke="none" />
      </g>
    </g>
  </g>
</svg>