<?xml version="1.0" encoding="utf-8"?>
<svg width="175px" height="175px" viewBox="0 0 175 175" version="1.1" xmlns:xlink="http://www.w3.org/1999/xlink" xmlns="http://www.w3.org/2000/svg">
  <defs>
    <path d="M101.445 2.03131L119.475 123.835Q119.483 123.893 119.485 123.951Q119.487 124.01 119.482 124.068Q119.477 124.126 119.465 124.183Q119.453 124.241 119.435 124.296Q119.416 124.352 119.391 124.405Q119.367 124.458 119.336 124.507Q119.305 124.557 119.269 124.603Q119.232 124.649 119.191 124.69Q119.149 124.731 119.103 124.767Q119.057 124.803 119.007 124.834Q118.957 124.864 118.904 124.889Q118.851 124.913 118.796 124.931Q118.74 124.949 118.683 124.961Q118.625 124.972 118.567 124.977Q118.509 124.982 118.45 124.98Q118.392 124.977 118.334 124.969L1.88436 107.002Q1.85078 106.997 1.81762 106.989Q1.78446 106.982 1.75189 106.972Q1.71931 106.962 1.68747 106.951Q1.65563 106.939 1.62467 106.925Q1.59371 106.911 1.56378 106.895Q1.53384 106.879 1.50507 106.86Q1.4763 106.842 1.44882 106.822Q1.42134 106.802 1.39529 106.781Q1.36923 106.759 1.34472 106.735Q1.32021 106.712 1.29735 106.686Q1.2745 106.661 1.25341 106.635Q1.23231 106.608 1.21308 106.58Q1.19385 106.552 1.17656 106.523Q1.15928 106.493 1.14402 106.463Q1.12876 106.433 1.1156 106.401Q1.10245 106.37 1.09145 106.338Q1.08045 106.306 1.07166 106.273Q1.06288 106.24 1.05634 106.207Q1.0498 106.173 1.04555 106.14Q1.0413 106.106 1.03934 106.072Q1.03739 106.038 1.03775 106.004Q1.0381 105.97 1.04077 105.936Q1.04343 105.902 1.0484 105.869Q1.05336 105.835 1.06059 105.802Q1.06783 105.769 1.0773 105.736Q1.08678 105.703 1.09845 105.672Q1.11012 105.64 1.12393 105.609Q1.13775 105.578 1.15364 105.547Q1.16953 105.517 1.18743 105.489Q1.20532 105.46 1.22514 105.432Q1.24496 105.404 1.26661 105.378Q1.28825 105.352 1.31163 105.327L99.7319 1.49036Q99.7559 1.46502 99.7816 1.44141Q99.8073 1.41781 99.8347 1.39606Q99.862 1.37431 99.8907 1.35452Q99.9195 1.33473 99.9496 1.317Q99.9797 1.29927 100.011 1.28368Q100.042 1.26809 100.074 1.25472Q100.107 1.24135 100.14 1.23027Q100.173 1.21918 100.207 1.21044Q100.241 1.20169 100.275 1.19533Q100.309 1.18896 100.344 1.18501Q100.379 1.18106 100.413 1.17954Q100.448 1.17802 100.483 1.17894Q100.518 1.17986 100.553 1.18321Q100.588 1.18657 100.622 1.19234Q100.657 1.19811 100.69 1.20627Q100.724 1.21444 100.758 1.22495Q100.791 1.23546 100.823 1.24828Q100.856 1.26109 100.887 1.27614Q100.919 1.29119 100.949 1.3084Q100.98 1.32561 101.009 1.3449Q101.038 1.36419 101.066 1.38547Q101.093 1.40674 101.119 1.4299Q101.146 1.45306 101.17 1.47798Q101.195 1.50291 101.217 1.52948Q101.24 1.55605 101.261 1.58414Q101.281 1.61223 101.3 1.64169Q101.319 1.67116 101.335 1.70187Q101.352 1.73257 101.366 1.76436Q101.381 1.79615 101.393 1.82887Q101.405 1.86159 101.415 1.89508Q101.425 1.92857 101.433 1.96267Q101.44 1.99677 101.445 2.03131Z" transform="matrix(-0.70710677 -0.70710677 0.70710677 -0.70710677 85.37026 173.91467)" id="path_1" />
    <clipPath id="mask_1">
      <use xlink:href="#path_1" />
    </clipPath>
  </defs>
  <g id="Shape" transform="matrix(-1 -8.742278E-08 8.742278E-08 -1 174.5 174.5)">
    <path d="M101.445 2.03131L119.475 123.835Q119.483 123.893 119.485 123.951Q119.487 124.01 119.482 124.068Q119.477 124.126 119.465 124.183Q119.453 124.241 119.435 124.296Q119.416 124.352 119.391 124.405Q119.367 124.458 119.336 124.507Q119.305 124.557 119.269 124.603Q119.232 124.649 119.191 124.69Q119.149 124.731 119.103 124.767Q119.057 124.803 119.007 124.834Q118.957 124.864 118.904 124.889Q118.851 124.913 118.796 124.931Q118.74 124.949 118.683 124.961Q118.625 124.972 118.567 124.977Q118.509 124.982 118.45 124.98Q118.392 124.977 118.334 124.969L1.88436 107.002Q1.85078 106.997 1.81762 106.989Q1.78446 106.982 1.75189 106.972Q1.71931 106.962 1.68747 106.951Q1.65563 106.939 1.62467 106.925Q1.59371 106.911 1.56378 106.895Q1.53384 106.879 1.50507 106.86Q1.4763 106.842 1.44882 106.822Q1.42134 106.802 1.39529 106.781Q1.36923 106.759 1.34472 106.735Q1.32021 106.712 1.29735 106.686Q1.2745 106.661 1.25341 106.635Q1.23231 106.608 1.21308 106.58Q1.19385 106.552 1.17656 106.523Q1.15928 106.493 1.14402 106.463Q1.12876 106.433 1.1156 106.401Q1.10245 106.37 1.09145 106.338Q1.08045 106.306 1.07166 106.273Q1.06288 106.24 1.05634 106.207Q1.0498 106.173 1.04555 106.14Q1.0413 106.106 1.03934 106.072Q1.03739 106.038 1.03775 106.004Q1.0381 105.97 1.04077 105.936Q1.04343 105.902 1.0484 105.869Q1.05336 105.835 1.06059 105.802Q1.06783 105.769 1.0773 105.736Q1.08678 105.703 1.09845 105.672Q1.11012 105.64 1.12393 105.609Q1.13775 105.578 1.15364 105.547Q1.16953 105.517 1.18743 105.489Q1.20532 105.46 1.22514 105.432Q1.24496 105.404 1.26661 105.378Q1.28825 105.352 1.31163 105.327L99.7319 1.49036Q99.7559 1.46502 99.7816 1.44141Q99.8073 1.41781 99.8347 1.39606Q99.862 1.37431 99.8907 1.35452Q99.9195 1.33473 99.9496 1.317Q99.9797 1.29927 100.011 1.28368Q100.042 1.26809 100.074 1.25472Q100.107 1.24135 100.14 1.23027Q100.173 1.21918 100.207 1.21044Q100.241 1.20169 100.275 1.19533Q100.309 1.18896 100.344 1.18501Q100.379 1.18106 100.413 1.17954Q100.448 1.17802 100.483 1.17894Q100.518 1.17986 100.553 1.18321Q100.588 1.18657 100.622 1.19234Q100.657 1.19811 100.69 1.20627Q100.724 1.21444 100.758 1.22495Q100.791 1.23546 100.823 1.24828Q100.856 1.26109 100.887 1.27614Q100.919 1.29119 100.949 1.3084Q100.98 1.32561 101.009 1.3449Q101.038 1.36419 101.066 1.38547Q101.093 1.40674 101.119 1.4299Q101.146 1.45306 101.17 1.47798Q101.195 1.50291 101.217 1.52948Q101.24 1.55605 101.261 1.58414Q101.281 1.61223 101.3 1.64169Q101.319 1.67116 101.335 1.70187Q101.352 1.73257 101.366 1.76436Q101.381 1.79615 101.393 1.82887Q101.405 1.86159 101.415 1.89508Q101.425 1.92857 101.433 1.96267Q101.44 1.99677 101.445 2.03131Z" transform="matrix(-0.70710677 -0.70710677 0.70710677 -0.70710677 85.37026 173.91467)" id="Rectangle" fill="none" fill-rule="evenodd" stroke="none" />
    <g clip-path="url(#mask_1)">
      <g id="Group-34" transform="matrix(0.81915206 -0.57357645 0.57357645 0.81915206 -53.45534 63.276173)">
        <path d="M0 0L2.75011 0L2.75011 160.982L0 160.982L0 0Z" transform="translate(0.31042668 1.6074255)" id="Rectangle" fill="#0FD8F7" fill-rule="evenodd" stroke="none" />
        <path d="M0 0L2.75011 0L2.75011 160.982L0 160.982L0 0Z" transform="translate(14.662741 1.9335184)" id="Rectangle" fill="#0FD8F7" fill-rule="evenodd" stroke="none" />
        <path d="M0 0L2.75011 0L2.75011 160.982L0 160.982L0 0Z" transform="translate(26.399542 1.4092478)" id="Rectangle-Copy-3" fill="#0FD8F7" fill-rule="evenodd" stroke="none" />
        <path d="M0 0L2.75011 0L2.75011 160.982L0 160.982L0 0Z" transform="translate(40.751854 1.7353406)" id="Rectangle-Copy-4" fill="#0FD8F7" fill-rule="evenodd" stroke="none" />
        <path d="M0 0L2.75011 0L2.75011 160.982L0 160.982L0 0Z" transform="translate(55.104168 2.0614336)" id="Rectangle-Copy-5" fill="#0FD8F7" fill-rule="evenodd" stroke="none" />
        <path d="M0 0L2.75011 0L2.75011 160.982L0 160.982L0 0Z" transform="translate(66.84097 1.5371629)" id="Rectangle-Copy-6" fill="#0FD8F7" fill-rule="evenodd" stroke="none" />
        <path d="M0 0L2.75011 0L2.75011 160.982L0 160.982L0 0Z" transform="translate(81.19328 1.8632559)" id="Rectangle-Copy-7" fill="#0FD8F7" fill-rule="evenodd" stroke="none" />
        <path d="M0 0L2.75011 0L2.75011 160.982L0 160.982L0 0Z" transform="translate(94.84413 0.09158005)" id="Rectangle-Copy-8" fill="#0FD8F7" fill-rule="evenodd" stroke="none" />
        <path d="M0 0L2.75011 0L2.75011 160.982L0 160.982L0 0Z" transform="translate(108.40878 2.4542718)" id="Rectangle-Copy-9" fill="#0FD8F7" fill-rule="evenodd" stroke="none" />
        <path d="M0 0L2.75011 0L2.75011 160.982L0 160.982L0 0Z" transform="translate(121.63471 1.991171)" id="Rectangle-Copy-10" fill="#0FD8F7" fill-rule="evenodd" stroke="none" />
        <path d="M0 0L2.75011 0L2.75011 160.982L0 160.982L0 0Z" transform="translate(135.28557 0.2194952)" id="Rectangle-Copy-11" fill="#0FD8F7" fill-rule="evenodd" stroke="none" />
        <path d="M0 0L2.75011 0L2.75011 160.982L0 160.982L0 0Z" transform="translate(147.72383 1.7929932)" id="Rectangle-Copy-12" fill="#0FD8F7" fill-rule="evenodd" stroke="none" />
        <path d="M0 0L2.75011 0L2.75011 160.982L0 160.982L0 0Z" transform="translate(162.50105 0.8105111)" id="Rectangle-Copy-13" fill="#0FD8F7" fill-rule="evenodd" stroke="none" />
        <path d="M0 0L2.75011 0L2.75011 160.982L0 160.982L0 0Z" transform="translate(175.1207 2.0199974)" id="Rectangle-Copy-14" fill="#0FD8F7" fill-rule="evenodd" stroke="none" />
      </g>
    </g>
  </g>
</svg>