<?xml version="1.0" encoding="utf-8"?>
<svg width="186px" height="102px" viewBox="0 0 186 102" version="1.1" xmlns:xlink="http://www.w3.org/1999/xlink" xmlns="http://www.w3.org/2000/svg">
  <defs>
    <path d="M107.841 2.03258L126.97 131.676Q126.979 131.734 126.98 131.792Q126.982 131.85 126.977 131.909Q126.972 131.967 126.96 132.024Q126.948 132.081 126.93 132.137Q126.911 132.192 126.887 132.245Q126.862 132.298 126.831 132.348Q126.8 132.397 126.764 132.443Q126.728 132.489 126.686 132.53Q126.645 132.571 126.599 132.607Q126.553 132.643 126.503 132.674Q126.453 132.704 126.4 132.729Q126.347 132.753 126.291 132.771Q126.236 132.79 126.178 132.801Q126.121 132.813 126.063 132.817Q126.005 132.822 125.946 132.82Q125.888 132.818 125.83 132.809L1.88561 113.745Q1.85201 113.739 1.81885 113.732Q1.78568 113.724 1.75309 113.715Q1.72051 113.705 1.68865 113.693Q1.6568 113.681 1.62583 113.667Q1.59486 113.653 1.56491 113.637Q1.53496 113.621 1.50618 113.603Q1.47739 113.585 1.4499 113.565Q1.42241 113.545 1.39634 113.523Q1.37027 113.501 1.34575 113.478Q1.32122 113.454 1.29836 113.429Q1.27549 113.404 1.25438 113.377Q1.23328 113.351 1.21403 113.323Q1.19478 113.295 1.17749 113.265Q1.16019 113.236 1.14492 113.206Q1.12966 113.175 1.11649 113.144Q1.10332 113.113 1.09231 113.081Q1.08131 113.048 1.07251 113.016Q1.06371 112.983 1.05717 112.949Q1.05063 112.916 1.04637 112.882Q1.0421 112.849 1.04015 112.815Q1.03819 112.781 1.03854 112.747Q1.03889 112.713 1.04155 112.679Q1.04422 112.645 1.04917 112.611Q1.05413 112.578 1.06137 112.545Q1.0686 112.511 1.07808 112.479Q1.08755 112.446 1.09922 112.414Q1.11089 112.382 1.12471 112.351Q1.13852 112.32 1.15442 112.29Q1.17031 112.26 1.18821 112.231Q1.20611 112.202 1.22593 112.175Q1.24575 112.147 1.26741 112.121Q1.28906 112.095 1.31245 112.07L106.128 1.49115Q106.152 1.4658 106.178 1.4422Q106.204 1.41859 106.231 1.39684Q106.258 1.37508 106.287 1.35529Q106.316 1.3355 106.346 1.31777Q106.376 1.30004 106.407 1.28445Q106.438 1.26886 106.471 1.25549Q106.503 1.24212 106.536 1.23104Q106.569 1.21996 106.603 1.21121Q106.637 1.20247 106.671 1.19611Q106.706 1.18975 106.74 1.1858Q106.775 1.18186 106.81 1.18034Q106.845 1.17883 106.88 1.17975Q106.915 1.18068 106.949 1.18404Q106.984 1.1874 107.018 1.19318Q107.053 1.19897 107.087 1.20714Q107.121 1.21531 107.154 1.22583Q107.187 1.23636 107.22 1.24918Q107.252 1.262 107.284 1.27706Q107.315 1.29212 107.346 1.30935Q107.376 1.32657 107.405 1.34587Q107.434 1.36518 107.462 1.38647Q107.49 1.40776 107.516 1.43093Q107.542 1.4541 107.566 1.47903Q107.591 1.50397 107.614 1.53056Q107.636 1.55714 107.657 1.58524Q107.678 1.61334 107.696 1.64282Q107.715 1.67231 107.732 1.70302Q107.748 1.73374 107.763 1.76554Q107.777 1.79734 107.789 1.83007Q107.802 1.86281 107.811 1.89631Q107.821 1.92981 107.829 1.96392Q107.836 1.99803 107.841 2.03258Z" transform="matrix(-0.70710677 -0.70710677 0.70710677 -0.70710677 90.76924 183.98479)" id="path_1" />
    <clipPath id="mask_1">
      <use xlink:href="#path_1" />
    </clipPath>
  </defs>
  <g id="Shape-2" transform="translate(0.5 0.5)">
    <path d="M107.841 2.03258L126.97 131.676Q126.979 131.734 126.98 131.792Q126.982 131.85 126.977 131.909Q126.972 131.967 126.96 132.024Q126.948 132.081 126.93 132.137Q126.911 132.192 126.887 132.245Q126.862 132.298 126.831 132.348Q126.8 132.397 126.764 132.443Q126.728 132.489 126.686 132.53Q126.645 132.571 126.599 132.607Q126.553 132.643 126.503 132.674Q126.453 132.704 126.4 132.729Q126.347 132.753 126.291 132.771Q126.236 132.79 126.178 132.801Q126.121 132.813 126.063 132.817Q126.005 132.822 125.946 132.82Q125.888 132.818 125.83 132.809L1.88561 113.745Q1.85201 113.739 1.81885 113.732Q1.78568 113.724 1.75309 113.715Q1.72051 113.705 1.68865 113.693Q1.6568 113.681 1.62583 113.667Q1.59486 113.653 1.56491 113.637Q1.53496 113.621 1.50618 113.603Q1.47739 113.585 1.4499 113.565Q1.42241 113.545 1.39634 113.523Q1.37027 113.501 1.34575 113.478Q1.32122 113.454 1.29836 113.429Q1.27549 113.404 1.25438 113.377Q1.23328 113.351 1.21403 113.323Q1.19478 113.295 1.17749 113.265Q1.16019 113.236 1.14492 113.206Q1.12966 113.175 1.11649 113.144Q1.10332 113.113 1.09231 113.081Q1.08131 113.048 1.07251 113.016Q1.06371 112.983 1.05717 112.949Q1.05063 112.916 1.04637 112.882Q1.0421 112.849 1.04015 112.815Q1.03819 112.781 1.03854 112.747Q1.03889 112.713 1.04155 112.679Q1.04422 112.645 1.04917 112.611Q1.05413 112.578 1.06137 112.545Q1.0686 112.511 1.07808 112.479Q1.08755 112.446 1.09922 112.414Q1.11089 112.382 1.12471 112.351Q1.13852 112.32 1.15442 112.29Q1.17031 112.26 1.18821 112.231Q1.20611 112.202 1.22593 112.175Q1.24575 112.147 1.26741 112.121Q1.28906 112.095 1.31245 112.07L106.128 1.49115Q106.152 1.4658 106.178 1.4422Q106.204 1.41859 106.231 1.39684Q106.258 1.37508 106.287 1.35529Q106.316 1.3355 106.346 1.31777Q106.376 1.30004 106.407 1.28445Q106.438 1.26886 106.471 1.25549Q106.503 1.24212 106.536 1.23104Q106.569 1.21996 106.603 1.21121Q106.637 1.20247 106.671 1.19611Q106.706 1.18975 106.74 1.1858Q106.775 1.18186 106.81 1.18034Q106.845 1.17883 106.88 1.17975Q106.915 1.18068 106.949 1.18404Q106.984 1.1874 107.018 1.19318Q107.053 1.19897 107.087 1.20714Q107.121 1.21531 107.154 1.22583Q107.187 1.23636 107.22 1.24918Q107.252 1.262 107.284 1.27706Q107.315 1.29212 107.346 1.30935Q107.376 1.32657 107.405 1.34587Q107.434 1.36518 107.462 1.38647Q107.49 1.40776 107.516 1.43093Q107.542 1.4541 107.566 1.47903Q107.591 1.50397 107.614 1.53056Q107.636 1.55714 107.657 1.58524Q107.678 1.61334 107.696 1.64282Q107.715 1.67231 107.732 1.70302Q107.748 1.73374 107.763 1.76554Q107.777 1.79734 107.789 1.83007Q107.802 1.86281 107.811 1.89631Q107.821 1.92981 107.829 1.96392Q107.836 1.99803 107.841 2.03258Z" transform="matrix(-0.70710677 -0.70710677 0.70710677 -0.70710677 90.76924 183.98479)" id="Rectangle" fill="none" fill-rule="evenodd" stroke="none" />
    <g clip-path="url(#mask_1)">
      <g id="Group-34" transform="matrix(0.81915206 -0.57357645 0.57357645 0.81915206 -56.786472 66.44255)">
        <path d="M0 0L2.92397 0L2.92397 170.994L0 170.994L0 0Z" transform="translate(0.33005136 1.7073947)" id="Rectangle" fill="#0FD8F7" fill-rule="evenodd" stroke="none" />
        <path d="M0 0L2.92397 0L2.92397 170.994L0 170.994L0 0Z" transform="translate(15.589696 2.053768)" id="Rectangle" fill="#0FD8F7" fill-rule="evenodd" stroke="none" />
        <path d="M0 0L2.92397 0L2.92397 170.994L0 170.994L0 0Z" transform="translate(28.068478 1.4968919)" id="Rectangle-Copy-3" fill="#0FD8F7" fill-rule="evenodd" stroke="none" />
        <path d="M0 0L2.92397 0L2.92397 170.994L0 170.994L0 0Z" transform="translate(43.32812 1.8432652)" id="Rectangle-Copy-4" fill="#0FD8F7" fill-rule="evenodd" stroke="none" />
        <path d="M0 0L2.92397 0L2.92397 170.994L0 170.994L0 0Z" transform="translate(58.587765 2.1896384)" id="Rectangle-Copy-5" fill="#0FD8F7" fill-rule="evenodd" stroke="none" />
        <path d="M0 0L2.92397 0L2.92397 170.994L0 170.994L0 0Z" transform="translate(71.06655 1.6327623)" id="Rectangle-Copy-6" fill="#0FD8F7" fill-rule="evenodd" stroke="none" />
        <path d="M0 0L2.92397 0L2.92397 170.994L0 170.994L0 0Z" transform="translate(86.326195 1.9791356)" id="Rectangle-Copy-7" fill="#0FD8F7" fill-rule="evenodd" stroke="none" />
        <path d="M0 0L2.92397 0L2.92397 170.994L0 170.994L0 0Z" transform="translate(100.84003 0.09727561)" id="Rectangle-Copy-8" fill="#0FD8F7" fill-rule="evenodd" stroke="none" />
        <path d="M0 0L2.92397 0L2.92397 170.994L0 170.994L0 0Z" transform="translate(115.26221 2.606908)" id="Rectangle-Copy-9" fill="#0FD8F7" fill-rule="evenodd" stroke="none" />
        <path d="M0 0L2.92397 0L2.92397 170.994L0 170.994L0 0Z" transform="translate(129.32426 2.1150062)" id="Rectangle-Copy-10" fill="#0FD8F7" fill-rule="evenodd" stroke="none" />
        <path d="M0 0L2.92397 0L2.92397 170.994L0 170.994L0 0Z" transform="translate(143.8381 0.23314609)" id="Rectangle-Copy-11" fill="#0FD8F7" fill-rule="evenodd" stroke="none" />
        <path d="M0 0L2.92397 0L2.92397 170.994L0 170.994L0 0Z" transform="translate(157.0627 1.9045032)" id="Rectangle-Copy-12" fill="#0FD8F7" fill-rule="evenodd" stroke="none" />
        <path d="M0 0L2.92397 0L2.92397 170.994L0 170.994L0 0Z" transform="translate(172.77411 0.8609185)" id="Rectangle-Copy-13" fill="#0FD8F7" fill-rule="evenodd" stroke="none" />
        <path d="M0 0L2.92397 0L2.92397 170.994L0 170.994L0 0Z" transform="translate(186.19154 2.145625)" id="Rectangle-Copy-14" fill="#0FD8F7" fill-rule="evenodd" stroke="none" />
      </g>
    </g>
  </g>
</svg>