<?xml version="1.0" encoding="utf-8"?>
<svg width="121px" height="145px" viewBox="0 0 121 145" version="1.1" xmlns:xlink="http://www.w3.org/1999/xlink" xmlns="http://www.w3.org/2000/svg">
  <g id="Group-21" transform="matrix(0.9848077 0.17364818 -0.17364818 0.9848077 22.40039 0)">
    <path d="M23 17.1758C22.3072 18.3129 21.6451 20.0666 21.2099 19.9981C13.798 18.8404 6.66822 16.6346 1.51243 10.0928C0.329239 8.58576 -0.33286 5.53746 0.169845 3.68108C0.623505 2.03706 3.16768 -0.16183 4.56545 0.00942307C13.9881 1.22874 19.3462 8.19531 23 17.1758" transform="translate(5.684342E-14 109)" id="Fill-305" fill="#E05C5C" fill-rule="evenodd" stroke="none" />
    <path d="M11.8797 9.45764C10.7277 10.6524 9.71268 11.9719 8.3365 12.9381C7.95665 13.203 6.34385 12.5641 5.57793 12.0394C2.30873 9.86283 -0.854601 7.43172 0.210222 3.52012C0.565163 2.19548 2.2776 1.0059 3.67245 0.0656581C4.06476 -0.204465 5.67133 0.413702 6.45594 0.922781C9.78117 3.06818 12.6269 5.48371 11.8797 9.45764" transform="translate(5.684342E-14 21)" id="Fill-291" fill="#E05C5C" fill-rule="evenodd" stroke="none" />
    <path d="M14.5659 16.8936C12.9256 18.2677 11.5272 20.2917 9.6713 20.756C7.72394 21.2635 4.12327 20.9912 3.37176 19.8275C-0.313859 14.0402 -1.45091 7.75144 2.37194 1.46891C2.81631 0.732333 4.12327 -0.0908956 4.91398 0.00813945C7.05085 0.268106 9.95884 0.367141 11.0697 1.66079C14.8534 6.0369 15.6245 11.3724 14.5659 16.8936" transform="translate(85 0)" id="Fill-255" fill="#E05C5C" fill-rule="evenodd" stroke="none" />
  </g>
</svg>