<?xml version="1.0" encoding="utf-8"?>
<svg width="144px" height="144px" viewBox="0 0 144 144" version="1.1" xmlns:xlink="http://www.w3.org/1999/xlink" xmlns="http://www.w3.org/2000/svg">
  <defs>
    <path d="M83.1252 2.03213L97.7628 101.125Q97.7713 101.183 97.7731 101.241Q97.7748 101.3 97.7697 101.358Q97.7646 101.416 97.7528 101.474Q97.7409 101.531 97.7225 101.586Q97.7041 101.642 97.6793 101.695Q97.6545 101.748 97.6237 101.797Q97.5929 101.847 97.5566 101.893Q97.5202 101.938 97.4787 101.98Q97.4373 102.021 97.3913 102.057Q97.3453 102.093 97.2954 102.124Q97.2456 102.154 97.1925 102.179Q97.1394 102.203 97.0838 102.221Q97.0282 102.239 96.9709 102.251Q96.9136 102.262 96.8553 102.267Q96.7971 102.272 96.7387 102.27Q96.6802 102.267 96.6225 102.259L1.88517 87.6708Q1.85158 87.6656 1.81841 87.6582Q1.78525 87.6508 1.75267 87.6411Q1.72009 87.6314 1.68824 87.6195Q1.65639 87.6077 1.62542 87.5936Q1.59446 87.5796 1.56451 87.5635Q1.53457 87.5475 1.50579 87.5294Q1.477 87.5113 1.44952 87.4913Q1.42203 87.4713 1.39597 87.4495Q1.36991 87.4277 1.34539 87.4042Q1.32087 87.3806 1.298 87.3555Q1.27514 87.3303 1.25404 87.3037Q1.23294 87.277 1.2137 87.249Q1.19445 87.221 1.17716 87.1917Q1.15987 87.1625 1.1446 87.1321Q1.12934 87.1017 1.11618 87.0704Q1.10301 87.039 1.09201 87.0069Q1.081 86.9747 1.07221 86.9419Q1.06342 86.9091 1.05688 86.8757Q1.05034 86.8424 1.04608 86.8086Q1.04182 86.7749 1.03986 86.741Q1.03791 86.707 1.03826 86.6731Q1.03861 86.6391 1.04128 86.6052Q1.04394 86.5713 1.0489 86.5377Q1.05386 86.5041 1.06109 86.4708Q1.06833 86.4376 1.0778 86.405Q1.08728 86.3723 1.09895 86.3404Q1.11062 86.3085 1.12443 86.2774Q1.13825 86.2464 1.15414 86.2163Q1.17003 86.1863 1.18793 86.1574Q1.20583 86.1285 1.22565 86.1009Q1.24547 86.0733 1.26712 86.0471Q1.28878 86.0209 1.31216 85.9962L81.4118 1.49087Q81.4359 1.46553 81.4616 1.44192Q81.4873 1.41831 81.5146 1.39656Q81.542 1.37481 81.5707 1.35502Q81.5995 1.33523 81.6296 1.3175Q81.6597 1.29977 81.6909 1.28418Q81.7222 1.26859 81.7544 1.25522Q81.7867 1.24185 81.8198 1.23077Q81.8529 1.21968 81.8867 1.21094Q81.9206 1.2022 81.9549 1.19583Q81.9892 1.18947 82.0239 1.18552Q82.0586 1.18158 82.0935 1.18006Q82.1284 1.17854 82.1633 1.17947Q82.1982 1.18039 82.233 1.18375Q82.2678 1.18711 82.3022 1.19289Q82.3366 1.19867 82.3706 1.20683Q82.4045 1.215 82.4378 1.22552Q82.4711 1.23604 82.5036 1.24886Q82.5361 1.26168 82.5676 1.27674Q82.5991 1.29179 82.6295 1.30901Q82.6599 1.32623 82.689 1.34553Q82.7181 1.36483 82.7458 1.38611Q82.7735 1.4074 82.7996 1.43056Q82.8257 1.45373 82.8502 1.47866Q82.8746 1.5036 82.8973 1.53018Q82.9199 1.55676 82.9407 1.58485Q82.9614 1.61295 82.9801 1.64243Q82.9988 1.6719 83.0155 1.70261Q83.0321 1.73333 83.0465 1.76512Q83.061 1.79692 83.0731 1.82965Q83.0853 1.86238 83.0952 1.89588Q83.105 1.92938 83.1126 1.96348Q83.1201 1.99759 83.1252 2.03213L83.1252 2.03213Z" transform="matrix(-0.70710677 -0.70710677 0.70710677 -0.70710677 69.90763 142.36101)" id="path_1" />
    <clipPath id="mask_1">
      <use xlink:href="#path_1" />
    </clipPath>
  </defs>
  <g id="Bg-SHape-1" transform="matrix(-1 -8.742278E-08 8.742278E-08 -1 143.5 143.5)">
    <path d="M83.1252 2.03213L97.7628 101.125Q97.7713 101.183 97.7731 101.241Q97.7748 101.3 97.7697 101.358Q97.7646 101.416 97.7528 101.474Q97.7409 101.531 97.7225 101.586Q97.7041 101.642 97.6793 101.695Q97.6545 101.748 97.6237 101.797Q97.5929 101.847 97.5566 101.893Q97.5202 101.938 97.4787 101.98Q97.4373 102.021 97.3913 102.057Q97.3453 102.093 97.2954 102.124Q97.2456 102.154 97.1925 102.179Q97.1394 102.203 97.0838 102.221Q97.0282 102.239 96.9709 102.251Q96.9136 102.262 96.8553 102.267Q96.7971 102.272 96.7387 102.27Q96.6802 102.267 96.6225 102.259L1.88517 87.6708Q1.85158 87.6656 1.81841 87.6582Q1.78525 87.6508 1.75267 87.6411Q1.72009 87.6314 1.68824 87.6195Q1.65639 87.6077 1.62542 87.5936Q1.59446 87.5796 1.56451 87.5635Q1.53457 87.5475 1.50579 87.5294Q1.477 87.5113 1.44952 87.4913Q1.42203 87.4713 1.39597 87.4495Q1.36991 87.4277 1.34539 87.4042Q1.32087 87.3806 1.298 87.3555Q1.27514 87.3303 1.25404 87.3037Q1.23294 87.277 1.2137 87.249Q1.19445 87.221 1.17716 87.1917Q1.15987 87.1625 1.1446 87.1321Q1.12934 87.1017 1.11618 87.0704Q1.10301 87.039 1.09201 87.0069Q1.081 86.9747 1.07221 86.9419Q1.06342 86.9091 1.05688 86.8757Q1.05034 86.8424 1.04608 86.8086Q1.04182 86.7749 1.03986 86.741Q1.03791 86.707 1.03826 86.6731Q1.03861 86.6391 1.04128 86.6052Q1.04394 86.5713 1.0489 86.5377Q1.05386 86.5041 1.06109 86.4708Q1.06833 86.4376 1.0778 86.405Q1.08728 86.3723 1.09895 86.3404Q1.11062 86.3085 1.12443 86.2774Q1.13825 86.2464 1.15414 86.2163Q1.17003 86.1863 1.18793 86.1574Q1.20583 86.1285 1.22565 86.1009Q1.24547 86.0733 1.26712 86.0471Q1.28878 86.0209 1.31216 85.9962L81.4118 1.49087Q81.4359 1.46553 81.4616 1.44192Q81.4873 1.41831 81.5146 1.39656Q81.542 1.37481 81.5707 1.35502Q81.5995 1.33523 81.6296 1.3175Q81.6597 1.29977 81.6909 1.28418Q81.7222 1.26859 81.7544 1.25522Q81.7867 1.24185 81.8198 1.23077Q81.8529 1.21968 81.8867 1.21094Q81.9206 1.2022 81.9549 1.19583Q81.9892 1.18947 82.0239 1.18552Q82.0586 1.18158 82.0935 1.18006Q82.1284 1.17854 82.1633 1.17947Q82.1982 1.18039 82.233 1.18375Q82.2678 1.18711 82.3022 1.19289Q82.3366 1.19867 82.3706 1.20683Q82.4045 1.215 82.4378 1.22552Q82.4711 1.23604 82.5036 1.24886Q82.5361 1.26168 82.5676 1.27674Q82.5991 1.29179 82.6295 1.30901Q82.6599 1.32623 82.689 1.34553Q82.7181 1.36483 82.7458 1.38611Q82.7735 1.4074 82.7996 1.43056Q82.8257 1.45373 82.8502 1.47866Q82.8746 1.5036 82.8973 1.53018Q82.9199 1.55676 82.9407 1.58485Q82.9614 1.61295 82.9801 1.64243Q82.9988 1.6719 83.0155 1.70261Q83.0321 1.73333 83.0465 1.76512Q83.061 1.79692 83.0731 1.82965Q83.0853 1.86238 83.0952 1.89588Q83.105 1.92938 83.1126 1.96348Q83.1201 1.99759 83.1252 2.03213L83.1252 2.03213Z" transform="matrix(-0.70710677 -0.70710677 0.70710677 -0.70710677 69.90763 142.36101)" id="Rectangle" fill="none" fill-rule="evenodd" stroke="none" />
    <g clip-path="url(#mask_1)">
      <g id="Bg-SHape" transform="matrix(0.81915206 -0.57357645 0.57357645 0.81915206 -43.58394 51.692936)">
        <path d="M0 0L2.25197 0L2.25197 131.74L0 131.74L0 0Z" transform="translate(0.053268835 1.3154395)" id="Rectangle" fill="#39D1E9" fill-rule="evenodd" stroke="none" />
        <path d="M0 0L2.25197 0L2.25197 131.74L0 131.74L0 0Z" transform="translate(11.8058605 1.5822982)" id="Rectangle" fill="#39D1E9" fill-rule="evenodd" stroke="none" />
        <path d="M0 0L2.25197 0L2.25197 131.74L0 131.74L0 0Z" transform="translate(21.416702 1.1532604)" id="Rectangle-Copy-3" fill="#39D1E9" fill-rule="evenodd" stroke="none" />
        <path d="M0 0L2.25197 0L2.25197 131.74L0 131.74L0 0Z" transform="translate(33.169292 1.420119)" id="Rectangle-Copy-4" fill="#39D1E9" fill-rule="evenodd" stroke="none" />
        <path d="M0 0L2.25197 0L2.25197 131.74L0 131.74L0 0Z" transform="translate(44.921886 1.6869777)" id="Rectangle-Copy-5" fill="#39D1E9" fill-rule="evenodd" stroke="none" />
        <path d="M0 0L2.25197 0L2.25197 131.74L0 131.74L0 0Z" transform="translate(54.532726 1.2579399)" id="Rectangle-Copy-6" fill="#39D1E9" fill-rule="evenodd" stroke="none" />
        <path d="M0 0L2.25197 0L2.25197 131.74L0 131.74L0 0Z" transform="translate(66.28532 1.5247986)" id="Rectangle-Copy-7" fill="#39D1E9" fill-rule="evenodd" stroke="none" />
        <path d="M0 0L2.25197 0L2.25197 131.74L0 131.74L0 0Z" transform="translate(77.46351 0.07494469)" id="Rectangle-Copy-8" fill="#39D1E9" fill-rule="evenodd" stroke="none" />
        <path d="M0 0L2.25197 0L2.25197 131.74L0 131.74L0 0Z" transform="translate(88.571106 2.0084577)" id="Rectangle-Copy-9" fill="#39D1E9" fill-rule="evenodd" stroke="none" />
        <path d="M0 0L2.25197 0L2.25197 131.74L0 131.74L0 0Z" transform="translate(99.401344 1.6294782)" id="Rectangle-Copy-10" fill="#39D1E9" fill-rule="evenodd" stroke="none" />
        <path d="M0 0L2.25197 0L2.25197 131.74L0 131.74L0 0Z" transform="translate(110.57953 0.17962429)" id="Rectangle-Copy-11" fill="#39D1E9" fill-rule="evenodd" stroke="none" />
        <path d="M0 0L2.25197 0L2.25197 131.74L0 131.74L0 0Z" transform="translate(120.76478 1.4672991)" id="Rectangle-Copy-12" fill="#39D1E9" fill-rule="evenodd" stroke="none" />
        <path d="M0 0L2.25197 0L2.25197 131.74L0 131.74L0 0Z" transform="translate(132.86531 0.6632832)" id="Rectangle-Copy-13" fill="#39D1E9" fill-rule="evenodd" stroke="none" />
        <path d="M0 0L2.25197 0L2.25197 131.74L0 131.74L0 0Z" transform="translate(143.19908 1.6530683)" id="Rectangle-Copy-14" fill="#39D1E9" fill-rule="evenodd" stroke="none" />
      </g>
    </g>
  </g>
</svg>