<?xml version="1.0" encoding="utf-8"?>
<svg width="122px" height="108px" viewBox="0 0 122 108" version="1.1" xmlns:xlink="http://www.w3.org/1999/xlink" xmlns="http://www.w3.org/2000/svg">
  <g id="Group-21" transform="matrix(-0.25881904 0.9659258 -0.9659258 -0.25881904 121.93848 26.916992)">
    <path d="M19 13.7406C18.4277 14.6503 17.8808 16.0532 17.5212 15.9984C11.3984 15.0723 5.50853 13.3077 1.2494 8.07423C0.27198 6.86861 -0.274971 4.42997 0.140306 2.94487C0.515069 1.62965 2.61678 -0.129464 3.77146 0.00753845C11.5554 0.982994 15.9816 6.55625 19 13.7406" transform="translate(0.7493805 87.107544)" id="Fill-305" fill="#DD5A5A" fill-rule="evenodd" stroke="none" />
    <path d="M8.90976 7.27511C8.04576 8.19417 7.28451 9.20913 6.25238 9.95237C5.96749 10.1562 4.75789 9.66466 4.18344 9.26108C1.73155 7.58679 -0.640951 5.7167 0.157666 2.70779C0.423872 1.68883 1.7082 0.773766 2.75434 0.0505062C3.04857 -0.157281 4.2535 0.318232 4.84195 0.709831C7.33588 2.36014 9.4702 4.21824 8.90976 7.27511" transform="translate(1.7493806 17.107548)" id="Fill-291" fill="#DD5A5A" fill-rule="evenodd" stroke="none" />
    <path d="M11.6527 13.6758C10.3405 14.7882 9.22175 16.4267 7.73704 16.8025C6.17915 17.2133 3.29861 16.9929 2.69741 16.0509C-0.251087 11.3658 -1.16073 6.27498 1.89755 1.18911C2.25305 0.592841 3.29861 -0.0735821 3.93118 0.00658908C5.64068 0.217038 7.96707 0.29721 8.8558 1.34445C11.8827 4.88701 12.4996 9.20623 11.6527 13.6758" transform="translate(70.74938 0.10754701)" id="Fill-255" fill="#DD5A5A" fill-rule="evenodd" stroke="none" />
  </g>
</svg>