<?xml version="1.0" encoding="utf-8"?>
<svg width="152px" height="152px" viewBox="0 0 152 152" version="1.1" xmlns:xlink="http://www.w3.org/1999/xlink" xmlns="http://www.w3.org/2000/svg">
  <defs>
    <path d="M88.0755 2.03131L103.656 107.289Q103.664 107.347 103.666 107.405Q103.668 107.464 103.663 107.522Q103.658 107.58 103.646 107.637Q103.634 107.695 103.616 107.75Q103.597 107.806 103.573 107.858Q103.548 107.911 103.517 107.961Q103.486 108.011 103.45 108.057Q103.413 108.102 103.372 108.144Q103.33 108.185 103.284 108.221Q103.238 108.257 103.189 108.288Q103.139 108.318 103.086 108.342Q103.032 108.367 102.977 108.385Q102.921 108.403 102.864 108.415Q102.807 108.426 102.748 108.431Q102.69 108.436 102.632 108.433Q102.573 108.431 102.515 108.422L1.88436 92.8965Q1.85078 92.8913 1.81762 92.8838Q1.78446 92.8764 1.75189 92.8667Q1.71931 92.857 1.68747 92.8451Q1.65563 92.8332 1.62467 92.8192Q1.59371 92.8052 1.56378 92.7891Q1.53384 92.773 1.50507 92.7549Q1.4763 92.7368 1.44882 92.7169Q1.42134 92.6969 1.39529 92.675Q1.36923 92.6532 1.34472 92.6297Q1.32021 92.6061 1.29735 92.581Q1.2745 92.5558 1.25341 92.5292Q1.23231 92.5025 1.21308 92.4745Q1.19385 92.4465 1.17656 92.4172Q1.15928 92.388 1.14402 92.3576Q1.12876 92.3272 1.1156 92.2959Q1.10245 92.2646 1.09145 92.2324Q1.08045 92.2003 1.07166 92.1674Q1.06288 92.1346 1.05634 92.1013Q1.0498 92.0679 1.04555 92.0342Q1.0413 92.0005 1.03934 91.9665Q1.03739 91.9326 1.03775 91.8986Q1.0381 91.8647 1.04077 91.8308Q1.04343 91.7969 1.0484 91.7633Q1.05336 91.7297 1.06059 91.6964Q1.06783 91.6632 1.0773 91.6306Q1.08678 91.598 1.09845 91.566Q1.11012 91.5341 1.12393 91.5031Q1.13775 91.472 1.15364 91.442Q1.16953 91.4119 1.18743 91.3831Q1.20532 91.3542 1.22514 91.3266Q1.24496 91.299 1.26661 91.2728Q1.28825 91.2466 1.31163 91.2219L86.3622 1.49036Q86.3862 1.46502 86.4119 1.44141Q86.4377 1.41781 86.465 1.39606Q86.4923 1.37431 86.5211 1.35452Q86.5499 1.33473 86.5799 1.317Q86.61 1.29927 86.6413 1.28368Q86.6725 1.26809 86.7047 1.25472Q86.737 1.24135 86.7701 1.23027Q86.8032 1.21918 86.837 1.21044Q86.8708 1.20169 86.9052 1.19533Q86.9395 1.18896 86.9742 1.18501Q87.0089 1.18106 87.0438 1.17954Q87.0787 1.17802 87.1136 1.17894Q87.1485 1.17986 87.1832 1.18321Q87.218 1.18657 87.2524 1.19234Q87.2868 1.19811 87.3208 1.20627Q87.3548 1.21444 87.388 1.22495Q87.4213 1.23546 87.4538 1.24828Q87.4863 1.26109 87.5178 1.27614Q87.5493 1.29119 87.5797 1.3084Q87.6101 1.32561 87.6392 1.3449Q87.6683 1.36419 87.696 1.38547Q87.7237 1.40674 87.7498 1.4299Q87.7759 1.45306 87.8004 1.47798Q87.8248 1.50291 87.8475 1.52948Q87.8701 1.55605 87.8909 1.58414Q87.9116 1.61223 87.9304 1.64169Q87.9491 1.67116 87.9657 1.70187Q87.9823 1.73257 87.9968 1.76436Q88.0112 1.79615 88.0234 1.82887Q88.0356 1.86159 88.0455 1.89508Q88.0554 1.92857 88.0629 1.96267Q88.0704 1.99677 88.0755 2.03131Z" transform="matrix(-0.70710677 -0.70710677 0.70710677 -0.70710677 74.085686 150.92595)" id="path_1" />
    <clipPath id="mask_1">
      <use xlink:href="#path_1" />
    </clipPath>
  </defs>
  <g id="Rectangle-8" transform="translate(0.5 0.5)">
    <path d="M88.0755 2.03131L103.656 107.289Q103.664 107.347 103.666 107.405Q103.668 107.464 103.663 107.522Q103.658 107.58 103.646 107.637Q103.634 107.695 103.616 107.75Q103.597 107.806 103.573 107.858Q103.548 107.911 103.517 107.961Q103.486 108.011 103.45 108.057Q103.413 108.102 103.372 108.144Q103.33 108.185 103.284 108.221Q103.238 108.257 103.189 108.288Q103.139 108.318 103.086 108.342Q103.032 108.367 102.977 108.385Q102.921 108.403 102.864 108.415Q102.807 108.426 102.748 108.431Q102.69 108.436 102.632 108.433Q102.573 108.431 102.515 108.422L1.88436 92.8965Q1.85078 92.8913 1.81762 92.8838Q1.78446 92.8764 1.75189 92.8667Q1.71931 92.857 1.68747 92.8451Q1.65563 92.8332 1.62467 92.8192Q1.59371 92.8052 1.56378 92.7891Q1.53384 92.773 1.50507 92.7549Q1.4763 92.7368 1.44882 92.7169Q1.42134 92.6969 1.39529 92.675Q1.36923 92.6532 1.34472 92.6297Q1.32021 92.6061 1.29735 92.581Q1.2745 92.5558 1.25341 92.5292Q1.23231 92.5025 1.21308 92.4745Q1.19385 92.4465 1.17656 92.4172Q1.15928 92.388 1.14402 92.3576Q1.12876 92.3272 1.1156 92.2959Q1.10245 92.2646 1.09145 92.2324Q1.08045 92.2003 1.07166 92.1674Q1.06288 92.1346 1.05634 92.1013Q1.0498 92.0679 1.04555 92.0342Q1.0413 92.0005 1.03934 91.9665Q1.03739 91.9326 1.03775 91.8986Q1.0381 91.8647 1.04077 91.8308Q1.04343 91.7969 1.0484 91.7633Q1.05336 91.7297 1.06059 91.6964Q1.06783 91.6632 1.0773 91.6306Q1.08678 91.598 1.09845 91.566Q1.11012 91.5341 1.12393 91.5031Q1.13775 91.472 1.15364 91.442Q1.16953 91.4119 1.18743 91.3831Q1.20532 91.3542 1.22514 91.3266Q1.24496 91.299 1.26661 91.2728Q1.28825 91.2466 1.31163 91.2219L86.3622 1.49036Q86.3862 1.46502 86.4119 1.44141Q86.4377 1.41781 86.465 1.39606Q86.4923 1.37431 86.5211 1.35452Q86.5499 1.33473 86.5799 1.317Q86.61 1.29927 86.6413 1.28368Q86.6725 1.26809 86.7047 1.25472Q86.737 1.24135 86.7701 1.23027Q86.8032 1.21918 86.837 1.21044Q86.8708 1.20169 86.9052 1.19533Q86.9395 1.18896 86.9742 1.18501Q87.0089 1.18106 87.0438 1.17954Q87.0787 1.17802 87.1136 1.17894Q87.1485 1.17986 87.1832 1.18321Q87.218 1.18657 87.2524 1.19234Q87.2868 1.19811 87.3208 1.20627Q87.3548 1.21444 87.388 1.22495Q87.4213 1.23546 87.4538 1.24828Q87.4863 1.26109 87.5178 1.27614Q87.5493 1.29119 87.5797 1.3084Q87.6101 1.32561 87.6392 1.3449Q87.6683 1.36419 87.696 1.38547Q87.7237 1.40674 87.7498 1.4299Q87.7759 1.45306 87.8004 1.47798Q87.8248 1.50291 87.8475 1.52948Q87.8701 1.55605 87.8909 1.58414Q87.9116 1.61223 87.9304 1.64169Q87.9491 1.67116 87.9657 1.70187Q87.9823 1.73257 87.9968 1.76436Q88.0112 1.79615 88.0234 1.82887Q88.0356 1.86159 88.0455 1.89508Q88.0554 1.92857 88.0629 1.96267Q88.0704 1.99677 88.0755 2.03131Z" transform="matrix(-0.70710677 -0.70710677 0.70710677 -0.70710677 74.085686 150.92595)" id="Rectangle" fill="none" fill-rule="evenodd" stroke="none" />
    <g clip-path="url(#mask_1)">
      <g id="Group-34" transform="matrix(0.81915206 -0.57357645 0.57357645 0.81915206 -46.18197 54.766838)">
        <path d="M0 0L2.38659 0L2.38659 139.703L0 139.703L0 0Z" transform="translate(0.016168296 1.3949497)" id="Rectangle" fill="#0FD8F7" fill-rule="evenodd" stroke="none" />
        <path d="M0 0L2.38659 0L2.38659 139.703L0 139.703L0 0Z" transform="translate(12.471337 1.6779383)" id="Rectangle" fill="#0FD8F7" fill-rule="evenodd" stroke="none" />
        <path d="M0 0L2.38659 0L2.38659 139.703L0 139.703L0 0Z" transform="translate(22.656721 1.2229679)" id="Rectangle-Copy-3" fill="#0FD8F7" fill-rule="evenodd" stroke="none" />
        <path d="M0 0L2.38659 0L2.38659 139.703L0 139.703L0 0Z" transform="translate(35.111893 1.5059565)" id="Rectangle-Copy-4" fill="#0FD8F7" fill-rule="evenodd" stroke="none" />
        <path d="M0 0L2.38659 0L2.38659 139.703L0 139.703L0 0Z" transform="translate(47.56706 1.7889452)" id="Rectangle-Copy-5" fill="#0FD8F7" fill-rule="evenodd" stroke="none" />
        <path d="M0 0L2.38659 0L2.38659 139.703L0 139.703L0 0Z" transform="translate(57.752445 1.3339747)" id="Rectangle-Copy-6" fill="#0FD8F7" fill-rule="evenodd" stroke="none" />
        <path d="M0 0L2.38659 0L2.38659 139.703L0 139.703L0 0Z" transform="translate(70.20761 1.6169634)" id="Rectangle-Copy-7" fill="#0FD8F7" fill-rule="evenodd" stroke="none" />
        <path d="M0 0L2.38659 0L2.38659 139.703L0 139.703L0 0Z" transform="translate(82.05404 0.079474635)" id="Rectangle-Copy-8" fill="#0FD8F7" fill-rule="evenodd" stroke="none" />
        <path d="M0 0L2.38659 0L2.38659 139.703L0 139.703L0 0Z" transform="translate(93.82566 2.1298566)" id="Rectangle-Copy-9" fill="#0FD8F7" fill-rule="evenodd" stroke="none" />
        <path d="M0 0L2.38659 0L2.38659 139.703L0 139.703L0 0Z" transform="translate(105.30334 1.7279702)" id="Rectangle-Copy-10" fill="#0FD8F7" fill-rule="evenodd" stroke="none" />
        <path d="M0 0L2.38659 0L2.38659 139.703L0 139.703L0 0Z" transform="translate(117.149765 0.19048147)" id="Rectangle-Copy-11" fill="#0FD8F7" fill-rule="evenodd" stroke="none" />
        <path d="M0 0L2.38659 0L2.38659 139.703L0 139.703L0 0Z" transform="translate(127.94389 1.5559883)" id="Rectangle-Copy-12" fill="#0FD8F7" fill-rule="evenodd" stroke="none" />
        <path d="M0 0L2.38659 0L2.38659 139.703L0 139.703L0 0Z" transform="translate(140.7678 0.7033746)" id="Rectangle-Copy-13" fill="#0FD8F7" fill-rule="evenodd" stroke="none" />
        <path d="M0 0L2.38659 0L2.38659 139.703L0 139.703L0 0Z" transform="translate(151.71933 1.7529861)" id="Rectangle-Copy-14" fill="#0FD8F7" fill-rule="evenodd" stroke="none" />
      </g>
    </g>
  </g>
</svg>