<?xml version="1.0" encoding="utf-8"?>
<svg width="49px" height="50px" viewBox="0 0 49 50" version="1.1" xmlns:xlink="http://www.w3.org/1999/xlink" xmlns="http://www.w3.org/2000/svg">
  <path d="M25.5994 50C25.4423 50 25.2853 50 25.1282 49.8433L0.314103 26.9592C0.157051 26.8025 0 26.6458 0 26.3323C0 26.1756 0 25.8621 0.157051 25.7053L22.6154 0.31348C22.7724 0.15674 22.9295 0 23.2436 0C23.4006 0 23.7147 0 23.8718 0.15674L48.6859 23.0408C48.8429 23.1975 49 23.3542 49 23.6677C49 23.8245 49 24.1379 48.8429 24.2947L26.3846 49.6865C26.0705 49.8433 25.7564 50 25.5994 50ZM2 26.2517L25.676 48L47 23.9048L23.324 2L2 26.2517Z" id="Shape" fill="#1D1D1D" stroke="none" />
</svg>