<?xml version="1.0" encoding="utf-8"?>
<svg width="36px" height="37px" viewBox="0 0 36 37" version="1.1" xmlns:xlink="http://www.w3.org/1999/xlink" xmlns="http://www.w3.org/2000/svg">
  <path d="M17.7628 35C17.6538 35 17.5449 35 17.4359 34.8903L0.217949 18.8715C0.108974 18.7618 0 18.652 0 18.4326C0 18.3229 0 18.1034 0.108974 17.9937L15.6923 0.219436C15.8013 0.109718 15.9103 0 16.1282 0C16.2372 0 16.4551 0 16.5641 0.109718L33.7821 16.1285C33.891 16.2382 34 16.348 34 16.5674C34 16.6771 34 16.8966 33.891 17.0063L18.3077 34.7806C18.0897 34.8903 17.8718 35 17.7628 35Z" transform="translate(0.75 0.75)" id="Path" fill="none" stroke="#0E0E0E" stroke-width="1.5" />
</svg>