<?xml version="1.0" encoding="utf-8"?>
<svg width="27px" height="28px" viewBox="0 0 27 28" version="1.1" xmlns:xlink="http://www.w3.org/1999/xlink" xmlns="http://www.w3.org/2000/svg">
  <path d="M13.4296 27.6204C10.0317 27.6204 6.63388 26.3187 3.88324 23.5526C1.29441 20.9492 0 17.5322 0 13.7899C0 10.0475 1.45622 6.63053 3.88324 4.02713L3.88324 4.02713L3.88324 4.02713C9.0609 -1.34238 17.6364 -1.34238 22.8141 4.02713C25.4029 6.63053 26.6973 10.0475 26.6973 13.7899C26.6973 17.5322 25.2411 20.9492 22.8141 23.5526C20.387 26.156 16.8274 27.6204 13.4296 27.6204ZM13.2693 1.84136C10.2535 1.84136 7.39652 2.96032 5.17439 5.35808L5.17439 5.35808C2.95226 7.596 1.84119 10.6332 1.84119 13.8302C1.84119 17.0272 3.11098 20.0644 5.17439 22.3023C9.61865 26.938 16.9199 26.938 21.5229 22.3023C23.745 20.0644 24.8561 17.0272 24.8561 13.8302C24.8561 10.6332 23.5863 7.596 21.5229 5.35808C19.1421 2.96032 16.285 1.84136 13.2693 1.84136Z" id="Shape" fill="#000000" stroke="none" />
</svg>