<?xml version="1.0" encoding="utf-8"?>
<svg width="46px" height="47px" viewBox="0 0 46 47" version="1.1" xmlns:xlink="http://www.w3.org/1999/xlink" xmlns="http://www.w3.org/2000/svg">
  <path d="M21.1567 41.85C21.0269 41.85 20.8971 41.85 20.7673 41.7188L0.259592 22.5649C0.129796 22.4337 0 22.3025 0 22.0401C0 21.9089 0 21.6465 0.129796 21.5154L18.6906 0.262382C18.8204 0.131191 18.9502 0 19.2098 0C19.3396 0 19.5992 0 19.729 0.131191L40.2367 19.2851C40.3665 19.4163 40.4963 19.5475 40.4963 19.8099C40.4963 19.9411 40.4963 20.2034 40.3665 20.3346L21.8057 41.5876C21.5461 41.7188 21.2865 41.85 21.1567 41.85Z" transform="matrix(0.9961947 0.08715574 -0.08715574 0.9961947 4.459961 0.8125)" id="Path" fill="none" stroke="#0E0E0E" stroke-width="1.5" />
</svg>