<?xml version="1.0" encoding="utf-8"?>
<svg width="135px" height="83px" viewBox="0 0 135 83" version="1.1" xmlns:xlink="http://www.w3.org/1999/xlink" xmlns="http://www.w3.org/2000/svg">
  <path d="M102.121 82.35C69.6673 82.35 35.3181 56.8203 0.258251 6.23381C-0.21553 5.76104 0.0213604 4.81549 0.495142 4.57911C0.968924 4.10634 1.6796 4.34272 2.15338 4.81549C38.1608 56.3476 72.7469 81.6408 105.438 79.7498C131.97 78.3314 150.21 59.8934 169.635 40.5097C188.587 21.3625 208.249 1.50609 236.675 0.0877806C268.419 -1.56692 301.347 20.1806 334.511 64.6211C334.985 65.0938 334.748 66.0394 334.274 66.2758C333.801 66.7485 333.09 66.5122 332.616 66.0394C299.925 22.308 267.708 0.796938 236.912 2.45164C209.433 3.86995 190.008 23.2536 171.53 42.1644C152.816 61.0753 133.391 80.4589 105.912 82.1136C104.49 82.1136 103.306 82.35 102.121 82.35Z" id="Path" fill="#000000" fill-opacity="0.8662807" stroke="none" />
</svg>