<?xml version="1.0" encoding="utf-8"?>
<svg width="30px" height="31px" viewBox="0 0 30 31" version="1.1" xmlns:xlink="http://www.w3.org/1999/xlink" xmlns="http://www.w3.org/2000/svg">
  <path d="M14.9386 30.7241C11.159 30.7241 7.37933 29.2762 4.31961 26.1992C1.43987 23.3033 0 19.5024 0 15.3394C0 11.1765 1.61985 7.3756 4.31961 4.47966L4.31961 4.47966L4.31961 4.47966C10.0791 -1.49322 19.6182 -1.49322 25.3777 4.47966C28.2574 7.3756 29.6973 11.1765 29.6973 15.3394C29.6973 19.5024 28.0774 23.3033 25.3777 26.1992C22.6779 29.0952 18.7183 30.7241 14.9386 30.7241ZM14.7604 2.04828C11.4057 2.04828 8.22767 3.29297 5.75584 5.96018L5.75584 5.96018C3.28401 8.44957 2.04809 11.828 2.04809 15.3843C2.04809 18.9406 3.46057 22.319 5.75584 24.8084C10.6995 29.965 18.8212 29.965 23.9415 24.8084C26.4133 22.319 27.6492 18.9406 27.6492 15.3843C27.6492 11.828 26.2367 8.44957 23.9415 5.96018C21.2931 3.29297 18.115 2.04828 14.7604 2.04828Z" id="Shape" fill="#000000" stroke="none" />
</svg>