<?xml version="1.0" encoding="utf-8"?>
<svg width="142px" height="75px" viewBox="0 0 142 75" version="1.1" xmlns:xlink="http://www.w3.org/1999/xlink" xmlns="http://www.w3.org/2000/svg">
  <path d="M92.2386 74.25C62.9253 74.25 31.9002 51.2315 0.233259 5.62065C-0.194673 5.19438 0.0192933 4.34184 0.447225 4.1287C0.875157 3.70244 1.51706 3.91557 1.94499 4.34184C34.4678 50.8052 65.9208 73.6106 95.2342 71.9055C119.198 70.6267 135.674 54.0022 153.219 36.5252C170.336 19.2613 188.095 1.35795 213.771 0.0791464C242.443 -1.4128 271.97 18.1956 302.139 58.2649C302.567 58.6912 302.353 59.5437 301.925 59.7568C301.497 60.1831 300.855 59.97 300.428 59.5437C270.686 20.3269 241.587 1.14482 213.771 2.42363C188.951 3.70244 171.406 21.1795 154.717 38.2302C137.813 55.281 120.268 72.7581 95.4481 74.25C94.3783 74.25 93.3085 74.25 92.2386 74.25Z" transform="translate(-160.99951 0)" id="Path" fill="#292929" fill-opacity="0.8662807" stroke="none" />
</svg>