<?xml version="1.0" encoding="utf-8"?>
<svg width="220px" height="502px" viewBox="0 0 220 502" version="1.1" xmlns:xlink="http://www.w3.org/1999/xlink" xmlns="http://www.w3.org/2000/svg">
  <g id="Group-4" transform="translate(0.75 0.75)">
    <path d="M75.6523 61C51.6101 61 26.1639 42.0891 0.191315 4.61764C-0.159667 4.26744 0.015824 3.56703 0.366805 3.39193C0.717787 3.04173 1.24426 3.21683 1.59524 3.56703C28.2698 41.7389 53.8915 60.4747 78.1092 59.0739C97.7641 58.0233 111.277 44.3655 125.667 30.0072C139.706 15.8241 154.272 1.11563 175.331 0.0650227C198.847 -1.16068 223.24 14.9486 247.809 47.8675C248.16 48.2177 247.984 48.9181 247.633 49.0932C247.282 49.4434 246.756 49.2683 246.405 48.9181C222.187 16.5245 198.32 0.590324 175.507 1.81603C155.15 2.86663 140.759 17.2249 127.071 31.2329C113.207 45.241 98.8171 59.5992 78.4602 60.8249C77.4072 60.8249 76.5298 61 75.6523 61Z" transform="translate(82 439)" id="Path" fill="#000000" fill-opacity="0.8662807" stroke="none" />
    <path d="M15.6731 31C15.5769 31 15.4808 31 15.3846 30.9028L0.192308 16.7147C0.0961538 16.6176 0 16.5204 0 16.326C0 16.2288 0 16.0345 0.0961538 15.9373L13.8462 0.194357C13.9423 0.0971787 14.0385 0 14.2308 0C14.3269 0 14.5192 0 14.6154 0.0971787L29.8077 14.2853C29.9038 14.3824 30 14.4796 30 14.674C30 14.7712 30 14.9655 29.9038 15.0627L16.1538 30.8056C15.9615 30.9028 15.7692 31 15.6731 31Z" transform="translate(122 0)" id="Path" fill="none" stroke="#0E0E0E" stroke-width="1.5" />
    <path d="M30.7029 10.5656C30.7029 10.5656 30.5138 10.5656 30.5138 10.5656L0.638167 1.88672C0.0709075 1.69805 -0.118179 1.13203 0.0709075 0.754689C0.259994 0.188672 0.827254 0 1.20543 0L31.0811 8.67893C31.6484 8.8676 31.8375 9.43361 31.6484 9.81096C31.6484 10.377 31.0811 10.5656 30.7029 10.5656Z" transform="matrix(-0.50000006 0.8660254 -0.8660254 -0.50000006 25.364517 217.18939)" id="Path" fill="#000000" fill-opacity="0.8662807" stroke="none" />
  </g>
</svg>