<?xml version="1.0" encoding="utf-8"?>
<svg width="200px" height="408px" viewBox="0 0 200 408" version="1.1" xmlns:xlink="http://www.w3.org/1999/xlink" xmlns="http://www.w3.org/2000/svg">
  <g id="Group-5" transform="translate(-135 0)">
    <path d="M68.3311 55C46.6156 55 23.6319 37.9492 0.1728 4.16344C-0.144215 3.84769 0.0142926 3.21618 0.331308 3.0583C0.648324 2.74254 1.12385 2.90042 1.44086 3.21618C25.534 37.6335 48.8347 54.5264 70.5502 53.2633C88.3031 52.3161 100.508 40.0016 113.506 27.0557C126.186 14.2676 139.343 1.00589 158.364 0.058627C179.604 -1.04652 201.478 13.4782 223.827 43.1592C224.144 43.4749 223.986 44.1065 223.669 44.2643C223.352 44.5801 222.876 44.4222 222.559 44.1065C200.527 15.057 178.97 0.848015 158.364 1.79528C139.977 2.74254 126.979 15.6885 114.615 28.3187C102.093 40.9489 89.0956 53.8949 70.7087 55C69.9162 55 69.1237 55 68.3311 55Z" id="Path" fill="#292929" fill-opacity="0.8662807" stroke="none" />
    <path d="M17.1309 28.791C16.7527 28.791 16.5636 28.6024 16.3745 28.4137L0.113088 1.43355C-0.0759984 1.0562 -0.0759984 0.301513 0.491261 0.11284C0.869435 -0.0758319 1.62578 -0.0758319 1.81487 0.490185L18.0763 27.4703C18.2654 27.8477 18.2654 28.6024 17.6981 28.791C17.5091 28.6024 17.32 28.791 17.1309 28.791Z" transform="translate(189 378.75314)" id="Path" fill="#000000" fill-opacity="0.8662807" stroke="none" />
    <path d="M11.0667 22.7586C8.26667 22.7586 5.46667 21.6861 3.2 19.4068C1.06667 17.2617 0 14.4462 0 11.3626C0 8.27891 1.2 5.46341 3.2 3.31827L3.2 3.31827L3.2 3.31827C7.46667 -1.10609 14.5333 -1.10609 18.8 3.31827C20.9333 5.46341 22 8.27891 22 11.3626C22 14.4462 20.8 17.2617 18.8 19.4068C16.8 21.552 13.8667 22.7586 11.0667 22.7586ZM10.9346 1.51724C8.44946 1.51724 6.09512 2.43924 4.26397 4.41494L4.26397 4.41494C2.43282 6.25894 1.51724 8.7615 1.51724 11.3958C1.51724 14.0301 2.56361 16.5326 4.26397 18.3766C7.92628 22.1963 13.9429 22.1963 17.736 18.3766C19.5672 16.5326 20.4828 14.0301 20.4828 11.3958C20.4828 8.7615 19.4364 6.25894 17.736 4.41494C15.7741 2.43924 13.4197 1.51724 10.9346 1.51724Z" transform="translate(313 178.75314)" id="Shape" fill="#000000" stroke="none" />
  </g>
</svg>