<?xml version="1.0" encoding="utf-8"?>
<svg width="1174px" height="14px" viewBox="0 0 1174 14" version="1.1" xmlns:xlink="http://www.w3.org/1999/xlink" xmlns="http://www.w3.org/2000/svg">
  <path d="M0.505426 11.5C300.836 11.4871 600.668 2.77556e-15 900.5 2.77556e-15C1199.92 2.77556e-15 1080.3 11.4556 1169.48 11.4999C1169.77 11.5 1170 11.7332 1170 12.0208L1170 12.0081C1170 12.2798 1169.78 12.5 1169.51 12.5C877.98 12.486 563.651 0 299 0C34.6282 0 98.7915 12.4596 0.478534 12.4999C0.214247 12.5 0 12.2858 0 12.0215L0 12.0054C0 11.7263 0.226287 11.5 0.505426 11.5Z" transform="translate(0.5 0.5)" id="Rectangle" fill="none" fill-rule="evenodd" stroke="#000000" stroke-opacity="0.09976591" stroke-width="1" />
</svg>