<svg width="123" height="139" viewBox="0 0 123 139" fill="none" xmlns="http://www.w3.org/2000/svg">
<path d="M3 131C3 131 47 114 57 78.6494" stroke="black" stroke-width="2.5" stroke-linecap="round"/>
<path d="M5.82819 120.814L2.3908 130.87L14.8931 135.029" stroke="black" stroke-width="2.5" stroke-linecap="round"/>
<path d="M72.3894 31.2715C72.1745 31.4984 71.7785 31.5782 71.2013 31.511L70.6527 30.6975L70.2865 29.5384L70.2922 28.8863L70.4219 28.4033L70.4326 28.1235C70.4524 27.5251 70.5539 27.0201 70.7372 26.6084C70.7795 26.5134 70.8561 26.4052 70.9671 26.2838L71.0357 26.2575L71.2842 25.8273L71.2318 25.1779L71.4537 24.9352L71.5754 24.534L71.7472 24.212C71.7843 24.0008 71.8346 23.824 71.898 23.6815L71.9509 23.5627C72.0778 23.2777 72.1651 22.9751 72.2129 22.6548L72.509 21.9897L72.533 21.4882L72.6336 21.1345L72.3432 21.1475L71.1601 21.7592L70.1672 22.1994L69.6945 22.5581L68.5986 23.0378L67.5478 23.2246L67.2518 23.6336L66.7028 23.5883L66.4914 23.8073L65.8051 23.8148L65.4141 24.1815L64.9231 24.1336L64.1097 24.6822L63.7506 24.7216C63.6995 24.7937 63.6009 24.93 63.4547 25.1306C63.1608 25.1515 62.8792 25.102 62.61 24.9822L62.4675 24.9187L62.4309 24.3617L62.2861 23.728L62.45 23.4879L62.3605 23.0496L62.5533 22.9362L62.5401 22.9019L62.5905 22.469L62.464 22.2419C62.2971 21.807 62.1829 21.4242 62.1215 21.0933L62.18 20.5785L62.0588 20.2115L61.9776 19.1792L61.7352 18.4452L61.6958 18.0861L61.4561 17.4102L61.2639 16.4993C61.2887 16.3585 61.2659 16.1966 61.1956 16.0135C60.8943 16.5624 60.6046 16.9362 60.3264 17.1349L59.5816 17.6571L59.4677 18.2325L59.0212 18.6599L57.8905 19.921L57.489 20.3115L57.304 20.5991L56.575 21.2137L56.0098 21.5882L55.8458 22.0844C55.638 22.2955 55.3801 22.5126 55.0719 22.736L54.9606 23.3695C54.297 23.6242 53.8464 23.6987 53.6089 23.593C53.3555 23.4802 53.2184 23.2768 53.1974 22.9829C53.143 22.8068 53.1352 22.6326 53.174 22.4602L53.2163 22.3652C54.0231 21.3203 54.4739 20.819 54.5689 20.8613C54.5848 20.8683 54.5892 20.8798 54.5821 20.8956L54.7619 20.4918C54.9452 20.0801 55.241 19.8419 55.6494 19.777L55.7128 19.6345L56.0668 19.2229L56.1171 19.0461C56.1524 18.9669 56.3223 18.7769 56.627 18.4762L56.7643 18.4235L57.0736 17.7927L57.4909 17.4947L58.3759 16.4657L58.585 15.6765L59.0101 15.5527L59.0418 15.4815L59.5017 14.5763L59.7528 14.2042C59.8567 14.0987 59.9298 13.9984 59.9721 13.9034L60.0144 13.8084L59.949 12.8686L60.2687 12.4701L60.4799 12.5072L60.7519 12.3437L60.8127 12.1432L61.2484 11.9956L61.4199 12.1858L61.8107 12.0752L62.122 12.2707L62.5361 12.9389L62.462 13.1052L62.6124 13.3428L62.4641 13.9314L62.5669 14.148L62.5085 14.6627L62.4187 14.7366L62.5585 14.998C62.6746 14.9928 62.7723 15.0078 62.8515 15.0431C62.9253 15.1329 63.0062 15.2922 63.094 15.5211L62.9935 15.8748L63.1015 16.2075L63.0457 16.7803L63.673 18.3118L63.5986 18.9902L63.8492 19.3864L63.8062 20.5057L63.9714 22.1161C63.9802 22.139 64.0031 22.2156 64.0399 22.3458L64.0557 22.4382L64.2932 22.544L64.663 22.2248L65.3917 22.1223C65.9322 21.8886 66.2094 21.7559 66.2235 21.7243C66.2306 21.7084 66.2183 21.6935 66.1866 21.6794L66.1628 21.6688C66.2702 21.6407 66.3978 21.6311 66.5457 21.64C66.5985 21.6066 66.741 21.5847 66.9734 21.5743C67.19 21.3861 67.461 21.2886 67.7866 21.2818L67.9451 21.1816L68.0403 20.9678C68.6318 20.662 69.064 20.5223 69.3367 20.5489C69.4495 20.2955 69.7972 20.1752 70.3797 20.1879L71.0717 19.7845L71.3939 19.4441L71.6552 19.5605C71.9862 19.3284 72.2266 19.1508 72.3763 19.0277L72.7722 19.0332L72.9279 19.131L73.0919 18.6348L73.0897 18.0646L73.6443 17.7138L74.0987 17.2046C74.2412 17.2681 74.3793 17.3201 74.513 17.3606C74.6468 17.4012 74.7057 17.418 74.6899 17.4109C74.7849 17.4532 74.9713 17.6311 75.2492 17.9445L75.2121 18.1557L75.3782 18.4858L75.3173 18.6864L75.4703 18.9822L75.2986 19.0481C75.4938 19.2488 75.5527 19.4363 75.4751 19.6105C75.4469 19.6738 75.3958 19.7459 75.3219 19.8268L75.1527 20.2069C75.1632 20.2685 75.1947 20.4533 75.2473 20.7613L75.052 20.8166L74.9753 20.9248L75.0123 20.9697L74.9143 21.3815L75.1305 21.7908L74.7212 22.007L74.3698 22.4767L74.3668 22.9307L74.0761 23.4559L73.9726 24.2636C73.9266 24.6226 73.8613 24.8971 73.7767 25.0872C73.7274 25.198 73.5891 25.3167 73.362 25.4433C73.4447 25.556 73.4578 25.6756 73.4014 25.8023C73.352 25.9132 73.2411 26.0345 73.0685 26.1664L73.1212 26.3037L72.4578 27.6021L72.3912 28.4548L72.0422 29.2386C72.0738 29.4234 72.0825 29.617 72.0683 29.8194C72.0788 29.881 72.1684 30.1485 72.337 30.6221C72.4266 30.8896 72.444 31.1061 72.3894 31.2715ZM85.1733 30.3605L84.8405 30.7246C84.6572 31.1363 84.4889 31.4503 84.3356 31.6667L84.0874 31.8407L83.971 32.102L83.7782 32.2154L83.5589 32.5162L83.1813 32.6612L82.7507 33.1809L82.529 33.1676L82.3176 33.3866L81.9586 33.4259L81.5888 33.7451L81.2403 33.7607L81.0896 34.0352L80.5643 34.0005C80.2316 34.1939 79.8971 34.2632 79.561 34.2084L79.4554 34.1899C79.0857 34.4237 78.7187 34.4595 78.3545 34.2974C78.1539 34.3219 77.9506 34.2883 77.7448 34.1967L77.4332 34.2572L77.164 34.2227L76.7495 34.3227L76.4513 34.1615L76.0764 34.1085L75.7467 33.7624L74.757 33.2364L74.644 32.5315L74.3647 31.7525L74.6526 31.4254L74.6559 30.4592L74.9596 30.2244L75.0947 29.6015L75.3721 29.2981C75.4391 29.0623 75.4938 28.8969 75.5361 28.8019C75.67 28.501 75.8479 28.3146 76.0697 28.2426C76.156 28.0913 76.3753 27.8758 76.7275 27.5962L76.8462 27.6491L76.8727 27.4617L77.0921 27.1609L77.2507 26.8046C77.4408 26.7185 77.5544 26.6552 77.5913 26.6148L77.6681 26.2505L77.7104 26.1555C77.92 25.9832 78.0776 25.7782 78.1834 25.5407L78.9889 25.074C78.9889 25.074 79.0118 25.0652 79.0575 25.0476C79.1191 25.0371 79.1728 25.0231 79.2186 25.0055L79.2371 24.8999L79.3321 24.9422L79.8682 24.6971L80.1352 24.1613L80.8242 24.2119C81.1093 24.1681 81.3576 23.9941 81.569 23.6897L81.8777 23.8272C82.0942 23.8097 82.2737 23.8327 82.4162 23.8962C82.5587 23.9596 82.6792 24.0512 82.7777 24.171L83.0284 24.3111L83.7517 24.3485L83.9468 24.8053L84.134 25.0879L84.324 25.1725L84.5957 25.5212L84.7857 25.6058C84.907 25.8874 85.0282 26.2545 85.1493 26.7068L85.144 26.8467L85.2679 27.0158L85.4812 27.8792L85.4354 29.1964L85.3297 29.434L85.1733 30.3605ZM83.3519 30.2326L83.381 30.1032C83.3195 29.943 83.3091 29.7961 83.3496 29.6623L83.4737 29.5753L83.4609 29.0288L83.7093 28.5987L83.6672 28.4376C83.5319 28.1876 83.4774 28.0116 83.5039 27.9096C83.3896 27.7828 83.3888 27.5927 83.5016 27.3393L83.3697 27.2521L83.2962 26.6502L83.1564 26.3887L82.7422 25.9766L82.5733 25.8445C82.4783 25.8022 82.4291 25.7424 82.4256 25.6649L81.7179 25.976L81.113 26.5036L80.4979 26.5428L80.3103 26.7723L80.0199 26.7853L79.65 27.3606L79.3015 27.3762C79.1395 27.5697 79.0161 27.7614 78.9315 27.9514L78.3929 28.1385L78.4799 28.2626C78.3953 28.4527 78.25 28.5872 78.0441 28.6663C77.9331 28.7876 77.7993 28.9178 77.6425 29.0567L77.5579 29.2467L77.4444 29.31L77.3412 29.6056L76.7944 30.1306L76.7891 30.2705L76.493 30.9356L76.2499 31.2258L76.1256 31.5689L76.2019 31.9729L76.4815 32.2397L76.5792 32.3401L76.8115 32.3296L77.4079 32.6521L77.6086 32.4569L77.7037 32.4992C77.7987 32.5415 77.8435 32.5899 77.8382 32.6445L78.0837 32.6684L78.242 32.8242L78.6459 32.7479L78.7252 32.6978L78.9601 32.7455C79.1485 32.6207 79.4873 32.5628 79.9766 32.5719L80.0769 32.4743L80.7 32.3533L81.1305 32.0896L81.5951 32.0688L81.6718 31.9606L81.9069 31.7522L82.0443 31.4434L82.4351 31.3328L82.6042 31.2088L82.7864 31.1192C82.8076 30.901 82.8359 30.7523 82.8711 30.6731C82.9346 30.5306 83.0491 30.4013 83.2146 30.2853L83.3519 30.2326ZM94.2249 38.7165L93.7918 38.9221L93.2556 39.4233L93.0021 39.4813L92.6878 39.7398L92.1916 39.5758L91.7453 39.7471L91.2703 39.5356L90.8795 39.6462L90.65 39.4586L90.3095 39.3924L90.2249 39.5824L89.3778 39.1199L88.9872 38.9744L88.6387 38.99L88.4646 38.7418C88.63 38.7964 88.7602 38.8449 88.8552 38.8872C88.7215 38.8466 88.3274 38.7091 87.6728 38.4746L87.6121 38.4191L87.4327 38.3108L87.0499 38.3396C86.9831 38.2339 86.8406 38.0851 86.6225 37.8931C86.2882 37.7064 86.0657 37.5883 85.9548 37.539L85.7648 37.4544C85.661 37.3892 85.5458 37.3284 85.4191 37.272C85.2924 37.2156 85.1517 37.1908 84.9968 37.1978L84.7594 36.836L84.5906 36.7039C84.5431 36.6827 84.4665 36.6202 84.361 36.5163C83.8033 36.1921 83.7289 35.5708 84.1378 34.6524L84.233 34.4386L84.8324 34.307L85.4976 34.347L85.83 34.7511L86.1625 34.8992L86.1308 34.9704C86.2609 35.1043 86.3312 35.2874 86.3416 35.5197L86.521 35.628L86.3836 35.9368L86.6606 36.1456L86.7107 36.2248L89.8356 37.3884L90.6248 37.5975L90.6961 37.6292L90.7964 37.5316L91.1501 37.6321L91.2293 37.582C91.583 37.6826 91.9341 37.725 92.2826 37.7094L92.3592 37.6012C92.3504 37.5783 92.3434 37.5088 92.3382 37.3927L92.2089 37.3635L92.0059 36.9885L91.7921 36.8934L91.7474 36.6742L91.8609 36.6109L91.5785 36.5421L91.4836 36.2437C91.4291 36.2384 91.3464 36.2111 91.2356 36.1617C91.0297 36.0701 90.8415 35.9389 90.6709 35.768L90.4571 35.6729L90.3226 35.5276L89.9372 35.4983L89.8423 35.1999L89.7711 35.1682L89.5549 34.7589L88.9454 34.146L88.7925 33.8502L87.964 33.2821L87.943 33.0735L87.4683 32.3499L87.461 31.4075L87.3557 30.8768L87.8106 29.5993L87.9691 29.4991C88.1629 29.149 88.4306 28.8887 88.7721 28.7183C89.066 28.6973 89.2659 28.5681 89.3716 28.3306L89.7596 28.418C89.8794 28.3195 90.0589 28.2571 90.2983 28.2309L90.7815 28.1045L92.5317 28.2007L92.8247 28.2457L93.3209 28.4097L94.1999 28.5449L95.654 29.3062L95.6486 29.4461C95.7699 29.557 95.8719 29.7542 95.9544 30.0376L95.9015 30.1564L96.1758 30.5631L95.7558 31.0591L95.6131 31.2518C95.3418 31.6053 95.032 31.7046 94.6836 31.5495C94.3986 31.4226 94.2448 31.1928 94.2221 30.8601L94.2538 30.7889L93.9794 30.6382L93.6046 30.5852L93.391 30.2339L93.1718 30.2787C92.966 30.187 92.7477 30.1658 92.5172 30.2149C92.2796 30.1091 92.0077 30.1019 91.7014 30.1932L91.3927 30.0558L91.1049 30.1268L90.7406 30.0501L90.672 30.0764L90.4977 30.0842L90.1888 30.2028L90.1069 30.1948L89.7451 30.4322L89.4204 30.4584C89.2654 30.636 89.1483 30.7926 89.069 30.928C88.9861 31.1568 88.9429 31.3178 88.9393 31.4111C88.9586 31.4956 89.0377 31.6162 89.1767 31.7729L89.1238 31.8916L89.3585 32.1954C89.5696 32.4032 89.7138 32.5907 89.7911 32.758L90.2662 32.9695L90.4586 33.3682L90.9732 33.6827L91.1235 33.9204L91.9335 34.5941L91.9359 34.9083L92.105 34.7843C92.3108 34.8759 92.5456 35.0943 92.8094 35.4394L93.2052 35.7011L93.1787 35.8885L93.5587 36.0577L94.0546 36.7338C94.0421 36.9749 94.1317 37.2425 94.3233 37.5365L94.5106 37.8191L94.3124 38.0724C94.3528 38.2801 94.3342 38.471 94.2566 38.6452L94.2249 38.7165ZM106.396 36.2519C106.333 36.3945 106.13 36.4656 105.789 36.4654C105.69 36.5163 105.54 36.5347 105.337 36.5205C105.073 36.5168 104.88 36.5255 104.757 36.5465L104.332 36.1582C103.994 36.2354 103.627 36.1859 103.231 36.0096L102.978 35.8115L102.679 35.9063L102.038 35.6208L101.518 35.7023C101.372 35.5614 101.22 35.4557 101.062 35.3852C101 35.3957 100.875 35.378 100.687 35.3322C100.608 35.2969 100.531 35.2344 100.457 35.1446L99.984 36.0154L99.7117 36.6911L99.2703 37.4907L98.916 38.4144L98.7969 38.8737L98.6488 39.2062L98.6641 40.0668C98.5954 40.0932 98.547 40.138 98.5188 40.2014C98.4695 40.3122 98.6049 40.4768 98.925 40.6953L98.8456 41.0015L98.9802 41.1467L99.1806 41.4637L99.3072 41.6908C99.4796 41.7296 99.5975 41.7631 99.6608 41.7913C99.8034 41.8548 99.9353 41.942 100.057 42.0529C100.134 42.0495 100.318 41.9985 100.608 41.9002C100.807 41.837 100.97 41.8335 101.097 41.8899C101.113 41.897 101.136 41.9076 101.168 41.9217C101.193 41.9516 101.213 41.9701 101.229 41.9771C101.505 41.7397 101.847 41.6546 102.253 41.7217C102.586 41.8698 102.817 42.0961 102.947 42.4007L102.873 42.5669C102.633 43.1053 102.292 43.3611 101.848 43.3345C101.558 43.6035 101.162 43.6834 100.66 43.5739L100.259 43.7083L99.9501 43.5708L99.3403 43.4701C99.1995 43.4454 99.0104 43.3801 98.7729 43.2744C98.6462 43.218 98.5257 43.1264 98.4114 42.9996L98.1026 42.8621L97.4722 42.0407L97.2902 41.8742L97.0875 40.9871L96.9399 40.5514L96.9461 39.1312L97.2531 37.9302L97.4275 37.6663L97.3539 37.3205L97.6207 37.0408L97.7346 36.4654L97.9749 36.3731L98.1598 36.0855L98.2155 35.7688L98.4533 35.3624L98.5275 34.94L98.6992 34.8742L98.8684 34.4941L98.7338 34.3488L98.2402 34.2429L97.9502 33.7438L97.8789 33.7121C97.4039 33.5006 97.2792 33.1414 97.5048 32.6347L97.5365 32.5635L97.4524 31.9853L98.094 31.7587L98.6455 32.1181L98.9755 32.208L99.3739 32.5277L99.8727 32.7498L100.084 32.2748L100.072 31.4722L100.454 31.4434L100.494 31.0343L100.846 30.3085L100.793 29.9152C100.76 29.6916 100.775 29.5086 100.838 29.3661C100.916 29.1919 101.019 29.067 101.148 28.9914L101.367 28.6906L101.641 28.5852C102.104 28.6964 102.407 28.7837 102.549 28.8471C103.056 29.0727 103.231 29.4257 103.074 29.9061L102.95 29.9931C102.982 30.1779 102.969 30.3337 102.913 30.4604C102.906 30.4762 102.88 30.5123 102.836 30.5685L102.725 30.6899L102.627 30.8456L102.585 31.1967L102.508 31.3049L102.408 31.6585L102.067 31.8484L101.974 32.3763L101.625 32.9041L101.72 33.2024L101.34 33.5454L102.119 33.7782L103.372 34.4786L104.491 34.7776L104.837 34.96L104.966 34.9891L105.893 35.4016C106.383 35.6201 106.551 35.9036 106.396 36.2519ZM46.9674 37.443L46.402 38.0736L45.8053 38.2633L45.6678 38.5721C45.527 38.5473 45.344 38.5322 45.1187 38.5268L45.0369 38.5188C44.8661 38.6894 44.69 38.7439 44.5088 38.6822C44.2271 38.8034 43.8162 38.8102 43.276 38.7025C42.9186 38.8659 42.6018 38.8956 42.3255 38.7916L41.919 38.8098L41.4439 38.5983L41.1086 38.6483L40.9793 38.6191C40.8878 38.6543 40.7681 38.6674 40.6203 38.6585L40.2744 38.7322L39.7281 38.489L39.3373 38.5996L38.2208 38.3586C38.1099 38.3093 37.9129 38.2405 37.6296 38.1523L36.9616 38.3103C36.8473 38.1835 36.7189 38.0884 36.5763 38.0249L36.4338 37.9615L36.2253 37.9825L35.8848 37.9162L35.6075 37.9636L35.4201 37.937L35.4779 38.4466L35.071 38.9769L34.9358 39.8559L34.6688 40.3917L34.6686 40.6477C34.98 40.8433 35.0511 41.1311 34.8819 41.5111C34.7197 41.8753 34.3034 42.022 33.6329 41.9512L32.8727 41.8688L32.5276 40.6622L32.6524 39.5509L33.0543 38.6483L32.9862 37.9064L33.34 37.7509L33.3956 37.4341L33.504 37.2547C33.0906 37.0327 32.7915 36.8521 32.6068 36.7129L32.3068 35.2133L34.1411 35.8876L34.2469 35.6501L34.4925 35.418L35.0317 34.4627L35.2139 34.373L35.592 33.4599L35.8325 33.1116L36.451 31.8501L36.9555 31.4201L37.0242 31.3938L37.0322 31.312C37.1871 31.1343 37.3843 31.0324 37.6237 31.0061L38.1568 31.215L38.3231 31.289C39.004 31.5922 39.2316 31.9971 39.006 32.5038C38.9144 32.7097 38.6766 32.9454 38.2928 33.2109L38.2399 33.3296C38.1342 33.5671 38.1357 33.8619 38.2446 34.214L37.846 34.1504L37.5579 34.7336L37.1671 34.8442L37.1141 35.2191L36.7654 35.4907L36.6595 35.9843L36.4693 36.1558L36.3979 36.3801L36.6065 36.3592L37.0815 36.5707C37.3808 36.4952 37.6843 36.5165 37.9922 36.6346L38.4517 36.4976C38.5132 36.6578 38.5844 36.7749 38.6653 36.8489C38.8747 36.8473 39.232 36.8545 39.7371 36.8707L40.067 36.9607L40.5528 36.8924L40.7428 36.977L40.7877 36.94L40.954 37.0141C41.2707 37.1551 41.605 37.1711 41.9571 37.0622L42.4585 37.3424L42.5351 37.2342L42.9311 37.2398L43.1925 37.1C43.2488 37.144 43.3245 37.1872 43.4195 37.2295L43.813 36.9209C43.9204 36.8928 43.9978 36.8893 44.0454 36.9105C44.0929 36.9316 44.1104 36.9774 44.0981 37.0478C44.1808 36.9898 44.3234 36.9679 44.5258 36.9821L44.6024 36.8739L44.8215 36.8292L44.9299 36.6497L44.9486 36.2881L44.8538 35.9897L44.6849 35.8576L44.4028 35.2766L43.672 34.5528C43.3819 34.139 43.0988 33.7948 42.8227 33.5201L42.3474 33.5646L41.8622 32.8647L41.2947 32.669L41.0336 32.2966L40.6536 32.1274L40.4056 31.7893C40.3898 31.7823 40.3581 31.7682 40.3106 31.747C40.2561 31.7417 40.213 31.732 40.1813 31.7179C39.9913 31.6333 39.8215 31.4819 39.6721 31.2635L39.1338 30.9385L38.6851 30.7956L38.2972 30.4522L37.7456 30.3489L37.6955 30.2696L37.2546 30.301L37.0436 30.0078L36.9907 30.1266L36.4206 29.8728L35.8874 29.92L35.3568 29.7692L34.578 29.7924L34.4149 29.0082C34.3447 28.6545 34.3907 28.2955 34.5529 27.9313L34.941 27.7626C35.1242 27.5216 35.3724 27.4329 35.6857 27.4964C36.0059 27.5441 36.3341 27.5954 36.6703 27.6502C36.7336 27.6784 36.7969 27.7066 36.8603 27.7348C36.9166 27.7788 36.9447 27.8008 36.9447 27.8008L37.1004 27.8986L36.9974 27.9381L37.5597 28.0177L37.6098 28.0969C37.6643 28.1022 37.7391 28.1261 37.8341 28.1684C37.9766 28.2318 38.1094 28.3384 38.2325 28.488L39.1826 28.9111L39.874 29.2758L41.0958 30.0475L41.3358 30.4674L41.7106 30.5204L42.2541 30.9616L42.9561 31.3026L42.9982 31.4637L43.497 31.6858L43.8953 32.2615L44.3967 32.5417L44.4414 32.7608C44.7264 32.8877 44.9656 33.1176 45.159 33.4503L45.6764 33.5668L45.6549 34.1265L45.8315 34.4328L46.2353 34.6126L46.3432 35.2013L47.0131 36.1257L46.8545 36.482L46.9674 37.443ZM55.022 44.3021L54.6891 44.6662C54.5058 45.0779 54.3376 45.392 54.1843 45.6083L53.936 45.7824L53.8197 46.0437L53.6269 46.1571L53.4076 46.4579L53.03 46.6028L52.5994 47.1226L52.3776 47.1093L52.1663 47.3282L51.8072 47.3676L51.4374 47.6868L51.089 47.7024L50.9383 47.9768L50.413 47.9422C50.0802 48.1356 49.7458 48.2049 49.4097 48.1501L49.3041 48.1315C48.9344 48.3654 48.5674 48.4012 48.2032 48.239C48.0026 48.2636 47.7993 48.23 47.5934 48.1383L47.2819 48.1988L47.0127 48.1644L46.5981 48.2644L46.2999 48.1032L45.9251 48.0501L45.5953 47.7041L44.6057 47.1781L44.4927 46.4732L44.2133 45.6942L44.5013 45.3671L44.5046 44.4009L44.8083 44.1661L44.9434 43.5432L45.2207 43.2398C45.2878 43.004 45.3424 42.8386 45.3847 42.7436C45.5187 42.4427 45.6966 42.2563 45.9184 42.1843C46.0047 42.033 46.224 41.8175 46.5761 41.5379L46.6949 41.5908L46.7214 41.4034L46.9407 41.1026L47.0993 40.7463C47.2895 40.6602 47.403 40.5969 47.44 40.5564L47.5168 40.1922L47.5591 40.0972C47.7687 39.9248 47.9263 39.7199 48.0321 39.4824L48.8375 39.0157C48.8375 39.0157 48.8604 39.0069 48.9062 38.9893C48.9678 38.9788 49.0215 38.9647 49.0673 38.9472L49.0858 38.8416L49.1808 38.8839L49.7169 38.6387L49.9839 38.103L50.6728 38.1536C50.958 38.1098 51.2062 37.9357 51.4176 37.6314L51.7264 37.7689C51.9429 37.7514 52.1224 37.7744 52.2649 37.8379C52.4074 37.9013 52.5279 37.9929 52.6264 38.1126L52.8771 38.2527L53.6004 38.2902L53.7954 38.747L53.9827 39.0296L54.1727 39.1142L54.4444 39.4628L54.6344 39.5474C54.7557 39.8291 54.8769 40.1961 54.998 40.6485L54.9926 40.7884L55.1166 40.9574L55.3299 41.8208L55.2841 43.1381L55.1784 43.3756L55.022 44.3021ZM53.2006 44.1742L53.2297 44.0449C53.1682 43.8847 53.1577 43.7377 53.1983 43.604L53.3224 43.517L53.3096 42.9705L53.558 42.5404L53.5159 42.3793C53.3805 42.1293 53.3261 41.9533 53.3525 41.8512C53.2382 41.7244 53.2375 41.5344 53.3503 41.281L53.2183 41.1938L53.1448 40.5919L53.0051 40.3304L52.5909 39.9183L52.422 39.7862C52.327 39.7439 52.2778 39.684 52.2743 39.6066L51.5666 39.9176L50.9617 40.4452L50.3466 40.4844L50.159 40.714L49.8686 40.727L49.4987 41.3022L49.1502 41.3178C48.9881 41.5113 48.8648 41.7031 48.7802 41.8931L48.2416 42.0802L48.3286 42.2043C48.244 42.3943 48.0987 42.5289 47.8927 42.6079C47.7818 42.7293 47.6479 42.8594 47.4912 42.9984L47.4066 43.1884L47.2931 43.2517L47.1899 43.5473L46.6431 44.0723L46.6377 44.2122L46.3416 44.8772L46.0986 45.1675L45.9743 45.5106L46.0506 45.9145L46.3302 46.1813L46.4278 46.2817L46.6601 46.2713L47.2566 46.5938L47.4573 46.3985L47.5523 46.4408C47.6473 46.4832 47.6922 46.5316 47.6869 46.5861L47.9324 46.6101L48.0906 46.7659L48.4946 46.6896L48.5738 46.6395L48.8088 46.6872C48.9971 46.5624 49.336 46.5045 49.8252 46.5136L49.9256 46.416L50.5487 46.295L50.9792 46.0313L51.4438 46.0105L51.5204 45.9023L51.7555 45.6939L51.893 45.3851L52.2838 45.2745L52.4528 45.1505L52.635 45.0609C52.6563 44.8427 52.6846 44.694 52.7198 44.6148C52.7833 44.4723 52.8977 44.343 53.0632 44.2269L53.2006 44.1742ZM65.0803 51.228L64.478 51.8137L64.4565 52.3733L64.2981 52.4735L64.0339 52.8112L63.6958 53.0592L63.5796 53.0644L63.3312 53.4945L62.8825 53.3517C62.5692 53.4588 62.2655 53.5229 61.9716 53.5438L61.8397 53.4566L61.4305 53.4167L61.2062 53.3453L60.6809 53.3106L60.2641 52.8405L60.214 52.7612L59.7996 52.6052L59.8734 52.695L59.2507 52.3039L58.5934 52.182L58.4511 51.8625L57.9311 51.6879L57.8046 51.4608C57.7887 51.4538 57.7219 51.4335 57.604 51.4L57.5405 51.5425C57.4771 51.685 57.3899 51.8169 57.2789 51.9383L57.1493 52.4213L56.8535 52.5742C56.73 52.9367 56.6296 53.205 56.552 53.3792L56.2164 53.9413L55.9095 54.8862L55.6138 55.0391L55.5501 55.4377L55.3731 55.6435L55.4839 55.7782L55.3253 56.1345C55.3147 56.2436 55.2988 56.3219 55.2776 56.3694C55.2142 56.5119 55.0742 56.5919 54.8577 56.6093L54.8047 56.9842L54.6013 57.1213L54.1308 58.0502C53.5898 59.1375 53.0976 59.5825 52.6542 59.3851C52.5592 59.3428 52.3103 59.156 51.9075 58.8249L52.296 58.1441L52.6188 57.0355L53.0467 56.7137L53.3031 56.2018L53.5253 55.4469L53.8528 55.2227L53.8823 54.5813L54.1754 54.3703L54.2444 53.8318L54.6248 53.4888C54.6354 53.3797 54.6109 53.2644 54.5511 53.1429C54.5072 53.0285 54.4923 52.9555 54.5064 52.9238C54.5275 52.8763 54.6041 52.8535 54.7361 52.8553C54.7414 52.8008 54.7687 52.7181 54.8181 52.6072C54.9097 52.4014 55.0771 52.1533 55.3202 51.8631L55.2834 51.5621L55.4921 51.2851L55.421 50.9973L55.7511 50.8312L55.9628 50.1001L56.5389 49.1897L56.5101 48.8069L56.9723 48.4719L56.8036 48.0837L57.1708 47.7065L57.0574 47.5137L57.261 47.1205L57.6255 46.6851L57.6678 46.5901L57.7339 46.5057L57.8502 46.2444L57.9163 46.16L57.9667 45.7271L58.2653 45.3761L58.284 45.0145L58.5376 44.7005L58.4849 44.5632L58.7677 44.1199L58.8127 43.8269L58.966 43.6105L58.9688 43.4125L57.9445 43.4119L58.0079 43.2693L57.8311 43.2191L57.4641 43.3403L57.2503 43.2451L56.7961 43.4982L56.6008 43.2975L56.3763 43.4821C55.8049 42.6774 55.5791 42.1405 55.6989 41.8713C55.7835 41.6813 55.9253 41.5547 56.1242 41.4915L56.2591 41.1246C56.8153 41.0686 57.2948 41.1209 57.6977 41.2813L57.938 41.189L58.8356 41.2187L59.0759 41.1264L59.7198 41.47L59.8597 41.4754L60.4436 40.7393L60.9608 41.1118L61.0658 41.8986L61.3748 41.78L61.6648 42.2791C61.8707 42.3708 62.051 42.4985 62.2058 42.6623L62.2294 42.9289L62.4273 42.9317L62.5539 43.1588C62.6648 43.2081 62.7483 43.2548 62.8046 43.2989L62.7174 43.4308L63.314 43.4972L63.4484 43.8986L63.8362 44.242L63.9758 44.7595L64.3872 45.3696L64.3898 45.4277L64.7776 45.7711L64.7142 45.9136C64.7986 46.065 64.8372 46.234 64.83 46.4206L64.9672 46.6239L64.9933 46.9487L65.2784 47.0756L65.0669 47.5506L65.1591 47.7909L65.1326 47.9783L65.349 48.1316C65.2185 48.5099 65.1839 48.8645 65.2453 49.1954L65.1713 49.3616L65.303 49.7049L65.0863 50.0638L65.086 50.5759L64.9352 51.1065L65.0803 51.228ZM63.1403 50.7911L63.1694 50.6618L63.2354 50.5774L63.2833 50.0864L63.4735 49.9149L63.463 49.6826L63.545 49.4345L63.5242 48.9699L63.5455 48.6663L63.4642 47.8901L63.2849 47.5257L63.2985 47.0479L63.127 46.8577L62.969 46.1897L62.5678 46.068L62.452 45.561L62.1934 45.5028L62.1646 45.12L62.0801 45.0539L61.7476 44.9059L61.4572 44.9189L61.3518 44.6443L61.0931 44.586L61.0721 44.3775L60.6763 44.1159L60.5732 44.4115L60.3247 44.8416L60.3034 45.1452L60.4985 45.602L59.9834 46.0557L59.8485 46.4226L59.4125 47.0823C59.3261 47.4043 59.3083 47.6999 59.3591 47.9692L59.1478 48.1882C59.1566 48.2111 59.1574 48.2305 59.1504 48.2463C59.1292 48.2938 59.0342 48.3369 58.8652 48.3755L58.9363 48.6633L58.6906 48.8954L58.5056 49.183L58.4288 49.5473L58.2676 49.8455L58.7664 50.0676C58.8439 50.0641 58.938 50.087 59.0488 50.1364C59.1913 50.1999 59.2969 50.3038 59.3654 50.4481C59.3813 50.4552 59.4164 50.4613 59.471 50.4667C59.5027 50.4808 59.5264 50.4913 59.5423 50.4984C59.5898 50.5195 59.6698 50.5742 59.7824 50.6622C59.8985 50.657 59.9962 50.672 60.0754 50.7073C60.2021 50.7637 60.3067 50.8482 60.3894 50.9609L60.6031 51.0561L60.772 51.1882L61.3105 51.2572L61.5848 51.6639C61.7061 51.7749 61.751 51.8233 61.7193 51.8092L62.3715 51.5588L62.5671 51.2475L62.707 51.2528L62.7204 51.0311L62.9712 50.9151L63.1403 50.7911ZM79.3008 60.1208C79.2162 60.3108 78.9715 60.477 78.5666 60.6193L78.3448 60.6059L78.0834 60.7457L77.603 60.6741C77.4744 60.7497 77.3706 60.7698 77.2914 60.7346C77.2756 60.7275 77.2633 60.7126 77.2545 60.6897C77.2228 60.6756 77.1991 60.665 77.1832 60.658C76.7573 60.677 76.2989 60.5773 75.808 60.3588L75.618 60.2742L75.0771 59.891L74.7579 59.5212L74.1937 58.3593L74.2892 57.6334L74.0467 57.1554C74.1224 57.1132 74.192 57.0209 74.2554 56.8783C74.2977 56.7833 74.3049 56.5968 74.2769 56.3187L74.602 55.7804L74.6443 55.6854C74.7289 55.4954 74.7827 55.2252 74.8058 54.875L75.2656 54.2259L74.6819 54.706L74.3044 54.5949L74.0349 55.0725C73.88 55.0795 73.7154 55.0441 73.5413 54.9666L73.0262 55.4203L72.5588 55.6391C72.3687 55.7252 72.2226 55.7551 72.1205 55.7286L72.0281 55.7444L70.7817 56.2425L70.6867 56.2002L70.0028 56.5218L69.4801 56.5452L69.1051 56.7483L68.4847 56.6713L67.5634 56.6311L67.1941 56.1821C66.8775 56.0411 66.7192 55.7999 66.7194 55.4584L66.5585 55.2445C66.5797 55.197 66.6158 55.1372 66.6669 55.065C66.7021 54.9859 66.7268 54.9305 66.7409 54.8988L66.5089 54.3971L66.6674 54.2968L66.6785 53.5049L66.8158 53.4522L66.7894 53.3835C66.8035 53.3518 66.8247 53.3043 66.8529 53.241C66.8582 53.1864 66.8679 53.1433 66.882 53.1117C66.9596 52.9375 67.0573 52.7818 67.1753 52.6446L67.474 52.0376L67.6011 51.4965C67.7367 51.4051 67.8256 51.3119 67.8679 51.2169C67.9173 51.106 67.9156 50.9819 67.8629 50.8446L68.2088 50.7709L68.3357 50.4859L68.5896 49.6598L69.5277 48.256C69.6405 48.0026 69.735 47.5988 69.811 47.0445C70.0841 46.5589 70.54 46.4298 71.1787 46.6573L71.337 46.8131L71.6484 47.0087L71.8644 47.6741L71.447 48.2282L70.9447 49.2284L70.667 50.0439L70.3976 50.2655L70.3842 50.4873L70.0963 50.8144L69.9905 51.0519L69.9113 51.102C69.906 51.1566 69.8822 51.2314 69.8399 51.3264C69.7482 51.5322 69.6214 51.7319 69.4593 51.9254L69.5041 52.1445L69.2504 52.4585L69.171 52.7647L69.023 53.0972C69.0599 53.2275 69.0466 53.3639 68.9831 53.5064C68.9267 53.6331 68.8386 53.7456 68.7189 53.8441L68.6766 53.9391C68.6359 54.2436 68.598 54.4354 68.5627 54.5146L68.6813 54.8235C68.8045 54.8025 68.9506 54.7726 69.1196 54.734C69.2376 54.5968 69.3943 54.5433 69.5896 54.5733L69.6953 54.3358C69.7904 54.3781 69.9514 54.4213 70.1784 54.4655L70.321 54.2728L70.7989 54.2863L70.9018 54.2468C71.062 54.1853 71.29 54.1635 71.5856 54.1813L71.6279 54.0863L72.2273 53.9547C72.4721 53.7031 72.7581 53.5933 73.0854 53.6252C73.3372 53.5286 73.5018 53.4785 73.5792 53.4751L74.0678 53.2088L74.0995 53.1375L74.2156 53.1323L74.4717 53.1325L74.7385 52.8528L75.3325 52.8611L75.4381 52.8797C75.4381 52.8797 75.5182 52.8489 75.6784 52.7874L75.7735 52.5737L75.9372 52.5896C76.0975 52.3574 76.3088 52.2238 76.571 52.1888L77.2869 51.5398L77.596 51.1652L77.6858 51.0913L77.7808 51.1336L78 51.0889L77.8786 50.9779C78.1797 50.7704 78.4482 50.5295 78.6842 50.2551L79.3836 50.538L79.729 51.2325L79.7973 51.7183L79.0813 52.6233L78.5135 52.9398L77.8161 53.7392L77.5151 53.776L77.3565 54.1322L77.0976 54.3301L76.9785 54.7893L76.7145 54.871L76.4711 55.6734L76.0427 56.7634L76.1615 56.8162L75.8865 57.4338L76.0393 57.9856L76.274 58.2894L76.2449 58.4187C76.3487 58.4839 76.4657 58.5834 76.5958 58.7173L77.1685 59.0291L77.5671 59.0928L78.3458 59.0695C78.5007 59.0626 78.6732 59.1014 78.8632 59.186C79.3382 59.3975 79.4841 59.7091 79.3008 60.1208ZM87.8723 62.4856C87.7947 62.6598 87.6679 62.7741 87.4919 62.8285C87.2806 62.9621 86.9866 63.0684 86.61 63.1474L86.2984 63.2079L85.9577 63.3977L85.7017 63.3976L85.274 63.4633L85.0259 63.3813L84.8886 63.434C84.5296 63.388 84.2136 63.4371 83.9407 63.5812C83.7946 63.611 83.6741 63.6048 83.5791 63.5625C83.5157 63.5343 83.4638 63.5017 83.4234 63.4647C83.0837 63.5032 82.7001 63.4273 82.2725 63.2369C81.9083 63.0748 81.6849 62.9374 81.6023 62.8247L81.2805 62.3968L81.2437 62.0958L81.2754 62.0246C81.3671 61.8187 81.354 61.6137 81.2363 61.4094L81.3527 60.8921L81.2579 60.5937L81.5304 59.662L81.7393 59.1289L81.9323 58.7594L82.0432 58.6381C82.038 58.5219 82.0601 58.4084 82.1095 58.2976C82.4847 57.6678 82.7112 57.2658 82.7887 57.0916L82.7653 56.5689L83.1377 56.3078L83.4733 55.7457L83.6056 55.3207L83.9067 55.0279L83.9757 54.4894L84.3375 54.2521L84.4565 54.0489L84.8266 53.2175L84.9719 53.083L85.3923 52.0748L85.9183 51.0852L85.9079 50.8529L86.2014 50.1298L86.5582 49.5202L86.5927 49.2509L87.3697 47.8892C88.1052 48.027 88.4334 48.0783 88.3543 48.043C88.6076 48.1558 88.7535 48.3821 88.792 48.7217L88.7549 48.9329L88.9526 49.4478L88.5405 49.862L88.5457 49.9782C88.3801 50.2649 88.2524 50.4452 88.1626 50.5191L87.988 51.0391L87.9058 51.5432L87.5175 51.968C87.3976 52.2372 87.2488 52.465 87.0709 52.6514C87.0356 52.7306 86.9634 52.8502 86.8542 53.0103L86.767 53.1423L86.8644 53.4987L86.6531 53.7177C86.6284 53.8585 86.6054 53.9526 86.5843 54.0001C86.542 54.0951 86.4539 54.2077 86.3201 54.3378L86.2724 54.5728L85.7915 55.2694L85.5694 55.7682L85.181 56.1929L85.0751 56.6865L84.5148 57.6893L84.5332 57.8398L84.1712 58.3332L83.8276 58.9772C83.7536 59.0581 83.7131 59.1064 83.7061 59.1223C83.5862 59.3915 83.4796 59.6096 83.3862 59.7768L83.3569 60.1622L83.1508 60.4973L83.1558 60.8695L83.0792 60.9777C83.1389 61.0992 83.1696 61.2646 83.1713 61.4741L83.385 61.5692L83.6515 61.8017L83.8786 61.6752L84.103 61.7466C84.2121 61.7572 84.2904 61.7731 84.3379 61.7943L84.4091 61.826C84.5816 61.8648 84.7435 61.842 84.8949 61.7577L85.0692 61.7499C85.2576 61.625 85.4925 61.5873 85.7741 61.6368C85.8815 61.6087 86.0883 61.549 86.3946 61.4577C86.4933 61.236 86.7019 61.1297 87.0205 61.1387C87.258 61.2444 87.4339 61.2753 87.5484 61.2314C87.8439 61.4199 88.0031 61.5951 88.0259 61.7571C88.0715 61.9102 88.0203 62.1531 87.8723 62.4856ZM96.236 66.9778C96.1514 67.1678 95.9032 67.3419 95.4913 67.5C95.2993 67.7181 95.0889 67.8711 94.86 67.959L94.7069 67.9193L94.2447 68.2542L93.7855 68.1351L93.2073 68.2192L92.7794 68.541L92.5393 68.3772C92.3298 68.3788 92.1662 68.3629 92.0483 68.3293L91.8106 68.4797C91.7701 68.4427 91.7024 68.403 91.6074 68.3607C91.4015 68.2691 91.1402 68.3235 90.8232 68.5239L90.6176 68.0908C90.5472 68.0785 90.4487 68.0441 90.322 67.9877C90.1162 67.896 89.9561 67.7868 89.8418 67.66L89.438 67.4802L89.3008 67.2769C88.7414 66.914 88.4636 66.5151 88.4674 66.0804L88.4991 66.0092L88.2776 65.7398L88.3148 65.2725L88.1144 64.9556L88.273 64.5993L88.4533 63.4273L88.8815 62.5934L89.1457 62.2557L89.3678 61.7569L89.6558 61.4297L89.706 61.2529L89.9992 61.0419L89.9306 61.0682C89.994 60.9257 90.1006 60.7929 90.2502 60.6698L90.3031 60.5511L90.4857 59.9493C90.6055 59.6801 90.83 59.4954 91.1592 59.3953C91.1891 59.3707 91.2182 59.3267 91.2464 59.2634C91.2746 59.2001 91.2993 59.0593 91.3206 58.8411C91.3647 58.6141 91.4044 58.461 91.4397 58.3818C91.5243 58.1918 91.6599 58.015 91.8466 57.8515C91.8887 58.0979 92.0285 58.274 92.266 58.3797L92.3372 58.4114C92.3971 58.3622 92.5001 58.3227 92.6462 58.2928C92.9491 57.9534 93.2714 57.6984 93.6129 57.5279L93.7502 57.4752C93.7784 57.4119 93.907 57.2509 94.1359 56.9923L94.326 57.0769L94.4263 56.9793L94.6375 57.0164C94.7731 56.925 94.8523 56.8749 94.8752 56.8661C94.921 56.8485 95.141 56.8232 95.5352 56.79C95.6479 56.7073 95.7888 56.6467 95.9577 56.6081C96.0352 56.6046 96.1284 56.6082 96.2376 56.6189L96.396 56.5186C96.887 56.5665 97.1879 56.6151 97.2988 56.6644C97.4254 56.7208 97.5301 56.8054 97.6127 56.9181L97.7421 56.9472L97.866 57.1162C97.9926 57.3433 98.1298 57.5467 98.2775 57.7263L98.5438 58.2149L98.5015 58.3099C98.7388 58.757 98.7411 59.2419 98.5084 59.7645L98.3314 59.9703L98.0537 60.7858L97.7765 60.8331L97.264 61.3449L96.5906 61.6428L96.3977 62.0123C95.7288 62.1509 95.1313 62.2358 94.605 62.2672C94.3638 62.4254 94.0928 62.4375 93.7919 62.3036L93.7207 62.2719L93.1425 62.356L92.7624 62.1868L92.0866 62.1705L91.7543 61.7664L91.7068 61.7452C91.6187 61.8578 91.5024 62.0337 91.358 62.273L91.1045 62.3309L90.9538 62.6053L90.6315 62.9457C90.5098 63.3468 90.4243 63.6029 90.375 63.7137L90.2482 63.7427C90.1566 63.9485 90.0817 64.0954 90.0236 64.1834C90.0165 64.1992 89.998 64.2194 89.9681 64.2441C89.954 64.2757 89.9434 64.2995 89.9363 64.3153C89.8799 64.442 89.8975 64.5731 89.9889 64.7087C89.9518 64.9199 89.9781 65.0739 90.0678 65.1707L90.1706 65.3873L90.6297 65.7624L90.598 65.8337L90.7668 65.9658L91.5533 66.3729L92.06 66.5131L92.3716 66.4526L92.5352 66.4685L92.9314 66.218L93.0607 66.2471L93.7391 66.3215C93.8518 66.2388 93.9971 66.1897 94.1748 66.1739L94.2989 66.0869C94.6438 66.1646 94.9 66.0794 95.0673 65.8313C95.3877 65.7084 95.7221 65.7244 96.0705 65.8795L96.1655 65.9218C96.3112 66.4041 96.3348 66.7561 96.236 66.9778ZM96.9302 59.0903C96.9514 59.0427 96.9699 58.9372 96.9859 58.7735L96.8777 58.6969L96.8196 58.6995C96.8038 58.6924 96.7721 58.6783 96.7246 58.6572C96.6859 58.6589 96.6507 58.6527 96.619 58.6386C96.6032 58.6316 96.583 58.6131 96.5583 58.5831C96.5267 58.569 96.5029 58.5585 96.4871 58.5514L96.1755 58.6119L95.9512 58.5405L95.8113 58.5351L95.1748 58.8779L94.829 58.9516L94.1528 59.4475L93.8756 59.4948C93.7082 59.7428 93.4952 59.9231 93.2364 60.0356L93.0674 60.1595C93.2909 60.1262 93.5135 60.1589 93.7352 60.2576L93.9332 60.2604L94.0996 60.0784L94.4216 60.2502L94.7385 60.0497L94.881 60.1132L95.1 60.3245L95.3774 60.0211L95.5436 60.0951L95.6599 59.8339L96.0005 59.9001L96.1034 59.8606L96.2461 59.6679L96.7558 59.3541C96.8227 59.2891 96.8809 59.2011 96.9302 59.0903ZM109.8 64.7634L109.261 65.4626L108.329 65.1901L107.717 65.2874L107.472 65.0074L107.055 65.0494L106.635 65.0332L106.323 65.0938L106.281 65.1888L105.676 65.2042L105.153 65.4837L104.987 65.4097C104.614 65.5661 104.358 65.6513 104.219 65.6652L103.643 66.0635L103.503 66.0581C103.399 66.1636 103.259 66.329 103.083 66.5541L102.698 66.5249L102.428 66.7464L102.133 66.8993L101.926 67.2345L101.705 67.2211L101.546 67.5774L101.443 67.617C101.455 67.7173 101.472 67.829 101.493 67.9523L101.073 67.9361L100.888 68.2238L100.471 68.5218L100.476 68.894L99.9769 69.1841C99.938 69.3565 99.9045 69.4744 99.8763 69.5378C99.8693 69.5536 99.8552 69.5853 99.834 69.6328C99.797 69.6732 99.7715 69.7093 99.7574 69.741L99.7097 69.9759L99.9232 70.5832L99.3711 70.992L98.9909 71.0789L98.1778 71.1153L97.4576 70.3678L97.7009 69.8215L97.701 69.5654L97.9309 69.2408C98.012 68.9734 98.0808 68.7763 98.1372 68.6496C98.1584 68.6021 98.1945 68.5423 98.2456 68.4702C98.2808 68.391 98.3055 68.3356 98.3196 68.3039L98.4016 68.0558C98.3401 67.8956 98.3411 67.7443 98.4045 67.6018C98.4609 67.4751 98.5798 67.3572 98.7611 67.2482C98.7964 67.1691 98.8863 66.9245 99.0309 66.5145L99.1339 66.475L99.2001 66.1345L99.3745 65.8706L99.401 65.6832L99.7155 65.1686L99.6787 64.8677L99.8901 64.6487L99.9326 64.2976C99.9907 64.2096 100.055 64.0865 100.126 63.9281C100.231 63.6906 100.27 63.5182 100.242 63.4108L100.4 63.3106L100.496 62.8408L100.42 62.4368L100.707 62.1096L100.676 61.9248L100.835 61.3125L100.919 61.1225C100.882 60.9922 100.896 60.8558 100.959 60.7133C101.1 60.3966 101.568 60.2825 102.364 60.371L102.905 60.7542L102.823 61.2583L102.923 61.6729L102.566 62.2824C102.472 62.6203 102.373 62.9933 102.267 63.4016L102.169 63.8133C102.171 63.852 102.148 63.9462 102.1 64.0958C102.058 64.1908 101.972 64.2761 101.844 64.3517L101.704 64.8584L101.423 65.3598L101.223 65.555L101.252 65.6818L101.193 65.9405C101.338 65.8719 101.446 65.7778 101.518 65.6582L101.772 65.3442C101.862 65.2704 101.965 65.2308 102.081 65.2256L102.334 64.9116L102.752 64.8697L102.926 64.6058L103.314 64.4371L103.663 64.1654C103.967 64.0354 104.229 63.981 104.447 64.0023L104.526 63.9521L104.888 63.7148L105.147 63.773L105.25 63.7335L105.408 63.6333L105.733 63.6071L105.949 63.5043L106.081 63.5915L106.314 63.5811L106.472 63.4809L106.821 63.4653L107.341 63.3838L107.995 63.4476C108.231 63.5146 108.357 63.5516 108.373 63.5587C108.366 63.5745 108.362 63.5824 108.362 63.5824C108.346 63.5754 108.335 63.5798 108.328 63.5956L108.352 63.6062C108.415 63.6344 108.524 63.645 108.679 63.6381C108.786 63.61 108.911 63.6277 109.054 63.6911C109.117 63.7193 109.221 63.7845 109.365 63.8867C109.77 64.0858 109.915 64.3781 109.8 64.7634Z" fill="black"/>
</svg>
