<?xml version="1.0" encoding="utf-8"?>
<svg width="1778px" height="39px" viewBox="0 0 1778 39" version="1.1" xmlns:xlink="http://www.w3.org/1999/xlink" xmlns="http://www.w3.org/2000/svg">
  <defs>
    <rect width="1778" height="39" id="slice_1" />
    <clipPath id="clip_1">
      <use xlink:href="#slice_1" clip-rule="evenodd" />
    </clipPath>
  </defs>
  <g id="Slice-2" clip-path="url(#clip_1)">
    <use xlink:href="#slice_1" stroke="none" fill="none" />
    <path d="M1884.54 68.7619C1884.54 68.7619 1901.72 33.1027 1884.54 33.5229C1881.03 33.6038 1877.53 33.7654 1874.03 33.8624C1869.12 30.7103 1862.67 31.0498 1857.65 34.3635C1799.36 36.0446 1741.08 38.34 1682.8 40.4091C1639.82 41.9447 1606.95 43.545 1565.96 21.8197C1545.66 11.0379 1471.17 7.09096 1448.1 7.09096C1297.76 7.09096 1230.02 5.31131 1095.26 12.816C1085.2 13.3762 1080.24 29.1908 1086.7 38.3885C971.66 40.8617 856.603 42.0094 741.559 45.113C740.385 43.0763 738.674 41.6053 736.401 41.6538C645.642 43.3187 554.564 59.5965 464.147 71.3806C473.545 54.3107 472.402 52.9529 479.295 33.5229C482.595 24.2121 462.955 21.5288 454.192 21.8197C308.739 26.8631 194.736 3.79615 49.2713 0.0136264C36.8172 -0.309667 31.3825 21.7551 43.6043 22.8381C48.8231 23.3069 54.054 23.6463 59.285 24.0828C57.3057 128.667 53.7264 233.132 49.0197 337.512C43.5832 458.076 36.6425 578.525 28.9259 698.909C21.9472 807.519 12.4019 915.66 4.01769 1024.08C-2.86323 1112.98 -3.44988 1195.92 23.1205 1279.14C24.8926 1284.65 33.8278 1296.58 38.1788 1296.19C221.812 1279.56 379.63 1275.5 562 1279.14C877.278 1285.43 1077.47 1285.43 1402.21 1288.32C1507.1 1289.25 1855.63 1317.21 1893.59 1296.19C1918.33 1282.52 1912.92 1096.88 1917.41 1023.9C1937.14 704.663 1915.8 385.217 1883.29 68.7942L1884.54 68.7619Z" transform="matrix(1 -1.7484555E-07 1.7484555E-07 1 -81 -1264.9995)" id="Fill-111" fill="#DFF1EE" fill-rule="evenodd" stroke="none" />
  </g>
</svg>