<?xml version="1.0" encoding="utf-8"?>
<svg width="1770px" height="64px" viewBox="0 0 1770 64" version="1.1" xmlns:xlink="http://www.w3.org/1999/xlink" xmlns="http://www.w3.org/2000/svg">
  <defs>
    <path d="M1878.66 49.6486C1878.66 49.6486 1895.79 23.906 1878.66 24.2094C1875.17 24.2678 1871.68 24.3845 1868.18 24.4545C1863.3 22.179 1856.87 22.424 1851.86 24.8162C1793.75 26.0299 1735.65 27.6869 1677.56 29.1806C1634.71 30.2892 1601.94 31.4444 1561.08 15.7608C1540.84 7.97737 1466.59 5.12805 1443.59 5.12805C1293.72 5.12805 1226.19 3.8433 1091.85 9.261C1081.82 9.66537 1076.87 21.082 1083.32 27.7219C968.631 29.5073 853.933 30.3358 739.247 32.5764C738.078 31.106 736.372 30.0441 734.106 30.0791C643.629 31.2811 552.836 43.0321 462.7 51.539C472.069 39.2162 470.93 38.236 477.801 24.2094C481.091 17.4879 461.512 15.5508 452.776 15.7608C307.777 19.4017 194.129 2.7495 49.1177 0.0188779C36.7024 -0.214509 31.2846 15.7141 43.4684 16.496C48.6709 16.8344 53.8856 17.0795 59.1002 17.3945C57.1271 92.8942 53.559 168.308 48.8669 243.661C43.4473 330.696 36.5283 417.649 28.8357 504.555C21.8788 582.961 12.3632 661.029 4.00517 739.295C-2.8543 803.477 -3.43912 863.352 23.0484 923.426C24.8151 927.405 -0.337425 1755.63 4 1755.35C187.061 1743.35 385.199 1752.72 567 1755.35C881.295 1759.9 1075.27 1753.27 1399 1755.35C1503.57 1756.02 1858.16 1770.52 1896 1755.35C1898.26 1754.45 1900.27 1271.12 1901.93 1263.09C1918.36 1183.42 1907.36 787.025 1911.44 739.167C1931.1 508.709 1909.83 278.099 1877.42 49.6719L1878.66 49.6486Z" transform="matrix(-1 8.742278E-08 -8.742278E-08 -1 1852.0002 63.274902)" id="path_1" />
    <rect width="1770" height="63.30005" id="slice_1" />
    <clipPath id="clip_1">
      <use xlink:href="#slice_1" clip-rule="evenodd" />
    </clipPath>
    <clipPath id="mask_1">
      <use xlink:href="#path_1" />
    </clipPath>
  </defs>
  <g id="Slice" clip-path="url(#clip_1)">
    <use xlink:href="#slice_1" stroke="none" fill="none" />
    <path d="M1878.66 49.6486C1878.66 49.6486 1895.79 23.906 1878.66 24.2094C1875.17 24.2678 1871.68 24.3845 1868.18 24.4545C1863.3 22.179 1856.87 22.424 1851.86 24.8162C1793.75 26.0299 1735.65 27.6869 1677.56 29.1806C1634.71 30.2892 1601.94 31.4444 1561.08 15.7608C1540.84 7.97737 1466.59 5.12805 1443.59 5.12805C1293.72 5.12805 1226.19 3.8433 1091.85 9.261C1081.82 9.66537 1076.87 21.082 1083.32 27.7219C968.631 29.5073 853.933 30.3358 739.247 32.5764C738.078 31.106 736.372 30.0441 734.106 30.0791C643.629 31.2811 552.836 43.0321 462.7 51.539C472.069 39.2162 470.93 38.236 477.801 24.2094C481.091 17.4879 461.512 15.5508 452.776 15.7608C307.777 19.4017 194.129 2.7495 49.1177 0.0188779C36.7024 -0.214509 31.2846 15.7141 43.4684 16.496C48.6709 16.8344 53.8856 17.0795 59.1002 17.3945C57.1271 92.8942 53.559 168.308 48.8669 243.661C43.4473 330.696 36.5283 417.649 28.8357 504.555C21.8788 582.961 12.3632 661.029 4.00517 739.295C-2.8543 803.477 -3.43912 863.352 23.0484 923.426C24.8151 927.405 -0.337425 1755.63 4 1755.35C187.061 1743.35 385.199 1752.72 567 1755.35C881.295 1759.9 1075.27 1753.27 1399 1755.35C1503.57 1756.02 1858.16 1770.52 1896 1755.35C1898.26 1754.45 1900.27 1271.12 1901.93 1263.09C1918.36 1183.42 1907.36 787.025 1911.44 739.167C1931.1 508.709 1909.83 278.099 1877.42 49.6719L1878.66 49.6486Z" transform="matrix(-1 8.742278E-08 -8.742278E-08 -1 1852.0002 63.274902)" id="Mask" fill="#FDECD8" fill-rule="evenodd" stroke="none" />
  </g>
</svg>