<?xml version="1.0" encoding="utf-8"?>
<svg width="18px" height="20px" viewBox="0 0 18 20" version="1.1" xmlns:xlink="http://www.w3.org/1999/xlink" xmlns="http://www.w3.org/2000/svg">
  <g id="flaticon1544195282-svg">
    <path d="M17.7263 17.332L13.289 12.6218C14.4299 11.2376 15.055 9.49591 15.055 7.68278C15.055 3.44656 11.6781 0 7.52752 0C3.37691 0 0 3.44656 0 7.68278C0 11.919 3.37691 15.3656 7.52752 15.3656C9.08571 15.3656 10.5706 14.8859 11.8401 13.9753L16.3111 18.7213C16.498 18.9193 16.7494 19.0286 17.0187 19.0286C17.2737 19.0286 17.5156 18.9294 17.6992 18.749C18.0893 18.3658 18.1017 17.7305 17.7263 17.332ZM7.52752 2.0042C10.5955 2.0042 13.0913 4.55155 13.0913 7.68278C13.0913 10.814 10.5955 13.3614 7.52752 13.3614C4.45956 13.3614 1.9637 10.814 1.9637 7.68278C1.9637 4.55155 4.45956 2.0042 7.52752 2.0042Z" id="Shape" fill="#000000" stroke="none" />
  </g>
</svg>