<?xml version="1.0" encoding="utf-8"?>
<svg width="14px" height="19px" viewBox="0 0 14 19" version="1.1" xmlns:xlink="http://www.w3.org/1999/xlink" xmlns="http://www.w3.org/2000/svg">
  <g id="6.-Lock" opacity="0.97581846">
    <path d="M2.33333 4.66667C2.33333 2.08934 4.42267 0 7 0C9.57732 0 11.6667 2.08934 11.6667 4.66667L11.6667 7.77778C12.9554 7.77778 14 8.82241 14 10.1111L14 16.3333C14 17.622 12.9554 18.6667 11.6667 18.6667L2.33333 18.6667C1.04467 18.6667 0 17.622 0 16.3333L0 10.1111C0 8.82241 1.04467 7.77778 2.33333 7.77778L10.1111 7.77778L10.1111 4.66667C10.1111 2.94845 8.71819 1.55556 7 1.55556C5.28178 1.55556 3.88889 2.94845 3.88889 4.66667L3.88889 5.44444C3.88889 5.874 3.54066 6.22222 3.11111 6.22222C2.68156 6.22222 2.33333 5.874 2.33333 5.44444L2.33333 4.66667ZM2.33333 9.33333C1.90378 9.33333 1.55556 9.68154 1.55556 10.1111L1.55556 16.3333C1.55556 16.7629 1.90378 17.1111 2.33333 17.1111L11.6667 17.1111C12.0962 17.1111 12.4444 16.7629 12.4444 16.3333L12.4444 10.1111C12.4444 9.68154 12.0962 9.33333 11.6667 9.33333L2.33333 9.33333ZM7 11.6667C7.42957 11.6667 7.77778 12.0149 7.77778 12.4444L7.77778 14C7.77778 14.4296 7.42957 14.7778 7 14.7778C6.57043 14.7778 6.22222 14.4296 6.22222 14L6.22222 12.4444C6.22222 12.0149 6.57043 11.6667 7 11.6667Z" id="Shape" fill="#020202" fill-rule="evenodd" stroke="none" />
  </g>
</svg>