<?xml version="1.0" encoding="utf-8"?>
<svg width="40px" height="36px" viewBox="0 0 40 36" version="1.1" xmlns:xlink="http://www.w3.org/1999/xlink" xmlns="http://www.w3.org/2000/svg">
  <g id="Icon">
    <path d="M13.1436 0.67258C7.3859 -1.79967 -1.28366 2.86867 0.159567 9.36696C0.96983 13.0147 4.49648 15.6542 8.26377 16.3101C11.5241 16.8782 14.5242 15.5262 16.7194 13.3957C16.2654 16.4404 14.9218 19.4925 13.608 22.008C11.4065 26.2235 8.24891 30.704 4.0516 33.3588C2.48299 34.3501 3.95398 36.7621 5.53606 35.7618C14.7652 29.9262 28.3849 7.21691 13.1436 0.67258ZM16.174 9.50465C14.319 12.5254 11.2466 14.3042 7.54286 13.2902C4.37806 12.4239 2.03708 9.13544 3.49182 6.1824C6.25233 0.578038 14.1901 2.58487 16.1928 7.5508C16.2334 8.16989 16.2445 8.78987 16.248 9.41089C16.2237 9.44323 16.1963 9.46844 16.174 9.50465Z" id="Shape" fill="#000000" fill-opacity="0.12134951" stroke="none" />
    <path d="M13.1433 0.67258C7.38572 -1.79967 -1.28341 2.86867 0.159511 9.36696C0.969295 13.0147 4.49654 15.6542 8.26386 16.3101C11.5242 16.8782 14.5242 15.5262 16.7191 13.3957C16.2649 16.4404 14.9222 19.4925 13.6078 22.008C11.4063 26.2235 8.24928 30.704 4.05129 33.3588C2.48271 34.3501 3.95414 36.7621 5.53591 35.7618C14.7652 29.9262 28.3851 7.21691 13.1433 0.67258ZM16.1743 9.50465C14.3194 12.5254 11.2468 14.3042 7.54314 13.2902C4.37858 12.4239 2.03746 9.13544 3.49236 6.1824C6.13059 0.82564 13.495 2.42469 15.8904 6.91167C16.1219 7.74226 16.1997 8.58435 16.2106 9.45887C16.1989 9.47521 16.1848 9.48672 16.1743 9.50465Z" transform="translate(20 0)" id="Shape" fill="#000000" fill-opacity="0.12134951" stroke="none" />
  </g>
</svg>