<?xml version="1.0" encoding="utf-8"?>
<svg width="33px" height="33px" viewBox="0 0 33 33" version="1.1" xmlns:xlink="http://www.w3.org/1999/xlink" xmlns="http://www.w3.org/2000/svg">
  <g id="+" fill-opacity="0.21230061" transform="matrix(0.70710665 0.7071069 -0.7071069 0.70710665 21.213196 0)">
    <path d="M7.325 22.925Q7.075 22.925 6.9125 22.7625Q6.75 22.6 6.75 22.35L6.75 17.15L1.625 17.15Q1.375 17.15 1.2125 16.9875Q1.05 16.825 1.05 16.575L1.05 15.775Q1.05 15.525 1.2125 15.3625Q1.375 15.2 1.625 15.2L6.75 15.2L6.75 10.15Q6.75 9.9 6.9125 9.7375Q7.075 9.575 7.325 9.575L8.2 9.575Q8.45 9.575 8.6125 9.7375Q8.775 9.9 8.775 10.15L8.775 15.2L13.925 15.2Q14.175 15.2 14.3375 15.3625Q14.5 15.525 14.5 15.775L14.5 16.575Q14.5 16.825 14.3375 16.9875Q14.175 17.15 13.925 17.15L8.775 17.15L8.775 22.35Q8.775 22.6 8.6125 22.7625Q8.45 22.925 8.2 22.925L7.325 22.925Z" />
  </g>
</svg>