<svg width="30" height="30" viewBox="0 0 30 30" fill="none" xmlns="http://www.w3.org/2000/svg">
<path d="M29.2943 10.241L15.4929 16.1223C15.3361 16.2007 15.1792 16.2007 15.0224 16.2007C14.8656 16.2007 14.7087 16.1615 14.552 16.1223L0.750622 10.241C0.319324 10.045 0.0448761 9.61371 0.0448761 9.14316C0.0448761 8.67262 0.319324 8.2414 0.750622 8.0453L14.552 2.12482C14.8657 2.00722 15.1793 2.00722 15.493 2.12482L29.2943 8.04537C29.7256 8.2414 30 8.67269 30 9.14316C30 9.61363 29.7256 10.045 29.2943 10.241Z" fill="white"/>
<path d="M1.69161 19.808L15.0225 25.5325L28.3533 19.808C28.9414 19.5335 29.6472 19.8472 29.8824 20.4353C30.1569 21.0235 29.8433 21.7292 29.2551 21.9644L15.4538 27.8849C15.2969 27.9633 15.1401 27.9633 14.9833 27.9633C14.8265 27.9633 14.6696 27.9241 14.5128 27.8849L0.711489 21.9644C0.123343 21.69 -0.151106 21.0234 0.0841675 20.4352C0.397715 19.8472 1.10346 19.5728 1.69161 19.808Z" fill="white"/>
<path d="M29.2942 16.1225L15.4928 22.0037C15.336 22.0821 15.1791 22.0821 15.0224 22.0821C14.8655 22.0821 14.7087 22.0429 14.5519 22.0037L0.750553 16.1225C0.162409 15.8872 -0.11204 15.1814 0.123232 14.5933C0.39768 14.0052 1.06425 13.7307 1.6524 13.966L15.0224 19.612L28.3532 13.9268C28.9413 13.6915 29.6471 13.966 29.8823 14.5541C30.1568 15.1423 29.8823 15.848 29.2942 16.1225Z" fill="white"/>
</svg>
